G04 #@! TF.GenerationSoftware,KiCad,Pcbnew,5.0.0-fee4fd1~66~ubuntu16.04.1*
G04 #@! TF.CreationDate,2018-08-14T00:09:00-04:00*
G04 #@! TF.ProjectId,motor controller,6D6F746F7220636F6E74726F6C6C6572,rev?*
G04 #@! TF.SameCoordinates,Original*
G04 #@! TF.FileFunction,Legend,Top*
G04 #@! TF.FilePolarity,Positive*
%FSLAX46Y46*%
G04 Gerber Fmt 4.6, Leading zero omitted, Abs format (unit mm)*
G04 Created by KiCad (PCBNEW 5.0.0-fee4fd1~66~ubuntu16.04.1) date Tue Aug 14 00:09:00 2018*
%MOMM*%
%LPD*%
G01*
G04 APERTURE LIST*
%ADD10C,0.037500*%
%ADD11C,0.150000*%
%ADD12C,0.120000*%
%ADD13C,0.200000*%
%ADD14C,0.100000*%
%ADD15C,0.020000*%
G04 APERTURE END LIST*
D10*
X7639285Y-6839285D02*
X7660714Y-6846428D01*
X7667857Y-6853571D01*
X7675000Y-6867857D01*
X7675000Y-6889285D01*
X7667857Y-6903571D01*
X7660714Y-6910714D01*
X7646428Y-6917857D01*
X7589285Y-6917857D01*
X7589285Y-6767857D01*
X7639285Y-6767857D01*
X7653571Y-6775000D01*
X7660714Y-6782142D01*
X7667857Y-6796428D01*
X7667857Y-6810714D01*
X7660714Y-6825000D01*
X7653571Y-6832142D01*
X7639285Y-6839285D01*
X7589285Y-6839285D01*
X7732142Y-6875000D02*
X7803571Y-6875000D01*
X7717857Y-6917857D02*
X7767857Y-6767857D01*
X7817857Y-6917857D01*
X7846428Y-6767857D02*
X7932142Y-6767857D01*
X7889285Y-6917857D02*
X7889285Y-6767857D01*
X7960714Y-6767857D02*
X8046428Y-6767857D01*
X8003571Y-6917857D02*
X8003571Y-6767857D01*
X8096428Y-6860714D02*
X8210714Y-6860714D01*
X8153571Y-6917857D02*
X8153571Y-6803571D01*
X6835714Y-6775000D02*
X6821428Y-6767857D01*
X6800000Y-6767857D01*
X6778571Y-6775000D01*
X6764285Y-6789285D01*
X6757142Y-6803571D01*
X6750000Y-6832142D01*
X6750000Y-6853571D01*
X6757142Y-6882142D01*
X6764285Y-6896428D01*
X6778571Y-6910714D01*
X6800000Y-6917857D01*
X6814285Y-6917857D01*
X6835714Y-6910714D01*
X6842857Y-6903571D01*
X6842857Y-6853571D01*
X6814285Y-6853571D01*
X6907142Y-6917857D02*
X6907142Y-6767857D01*
X6992857Y-6917857D01*
X6992857Y-6767857D01*
X7064285Y-6917857D02*
X7064285Y-6767857D01*
X7100000Y-6767857D01*
X7121428Y-6775000D01*
X7135714Y-6789285D01*
X7142857Y-6803571D01*
X7150000Y-6832142D01*
X7150000Y-6853571D01*
X7142857Y-6882142D01*
X7135714Y-6896428D01*
X7121428Y-6910714D01*
X7100000Y-6917857D01*
X7064285Y-6917857D01*
X5664285Y-6917857D02*
X5664285Y-6767857D01*
X5714285Y-6875000D01*
X5764285Y-6767857D01*
X5764285Y-6917857D01*
X5864285Y-6767857D02*
X5892857Y-6767857D01*
X5907142Y-6775000D01*
X5921428Y-6789285D01*
X5928571Y-6817857D01*
X5928571Y-6867857D01*
X5921428Y-6896428D01*
X5907142Y-6910714D01*
X5892857Y-6917857D01*
X5864285Y-6917857D01*
X5850000Y-6910714D01*
X5835714Y-6896428D01*
X5828571Y-6867857D01*
X5828571Y-6817857D01*
X5835714Y-6789285D01*
X5850000Y-6775000D01*
X5864285Y-6767857D01*
X5985714Y-6910714D02*
X6007142Y-6917857D01*
X6042857Y-6917857D01*
X6057142Y-6910714D01*
X6064285Y-6903571D01*
X6071428Y-6889285D01*
X6071428Y-6875000D01*
X6064285Y-6860714D01*
X6057142Y-6853571D01*
X6042857Y-6846428D01*
X6014285Y-6839285D01*
X6000000Y-6832142D01*
X5992857Y-6825000D01*
X5985714Y-6810714D01*
X5985714Y-6796428D01*
X5992857Y-6782142D01*
X6000000Y-6775000D01*
X6014285Y-6767857D01*
X6050000Y-6767857D01*
X6071428Y-6775000D01*
X6135714Y-6917857D02*
X6135714Y-6767857D01*
X4614285Y-6917857D02*
X4614285Y-6767857D01*
X4664285Y-6875000D01*
X4714285Y-6767857D01*
X4714285Y-6917857D01*
X4785714Y-6917857D02*
X4785714Y-6767857D01*
X4850000Y-6910714D02*
X4871428Y-6917857D01*
X4907142Y-6917857D01*
X4921428Y-6910714D01*
X4928571Y-6903571D01*
X4935714Y-6889285D01*
X4935714Y-6875000D01*
X4928571Y-6860714D01*
X4921428Y-6853571D01*
X4907142Y-6846428D01*
X4878571Y-6839285D01*
X4864285Y-6832142D01*
X4857142Y-6825000D01*
X4850000Y-6810714D01*
X4850000Y-6796428D01*
X4857142Y-6782142D01*
X4864285Y-6775000D01*
X4878571Y-6767857D01*
X4914285Y-6767857D01*
X4935714Y-6775000D01*
X5028571Y-6767857D02*
X5057142Y-6767857D01*
X5071428Y-6775000D01*
X5085714Y-6789285D01*
X5092857Y-6817857D01*
X5092857Y-6867857D01*
X5085714Y-6896428D01*
X5071428Y-6910714D01*
X5057142Y-6917857D01*
X5028571Y-6917857D01*
X5014285Y-6910714D01*
X5000000Y-6896428D01*
X4992857Y-6867857D01*
X4992857Y-6817857D01*
X5000000Y-6789285D01*
X5014285Y-6775000D01*
X5028571Y-6767857D01*
X3657142Y-6910714D02*
X3678571Y-6917857D01*
X3714285Y-6917857D01*
X3728571Y-6910714D01*
X3735714Y-6903571D01*
X3742857Y-6889285D01*
X3742857Y-6875000D01*
X3735714Y-6860714D01*
X3728571Y-6853571D01*
X3714285Y-6846428D01*
X3685714Y-6839285D01*
X3671428Y-6832142D01*
X3664285Y-6825000D01*
X3657142Y-6810714D01*
X3657142Y-6796428D01*
X3664285Y-6782142D01*
X3671428Y-6775000D01*
X3685714Y-6767857D01*
X3721428Y-6767857D01*
X3742857Y-6775000D01*
X3892857Y-6903571D02*
X3885714Y-6910714D01*
X3864285Y-6917857D01*
X3850000Y-6917857D01*
X3828571Y-6910714D01*
X3814285Y-6896428D01*
X3807142Y-6882142D01*
X3800000Y-6853571D01*
X3800000Y-6832142D01*
X3807142Y-6803571D01*
X3814285Y-6789285D01*
X3828571Y-6775000D01*
X3850000Y-6767857D01*
X3864285Y-6767857D01*
X3885714Y-6775000D01*
X3892857Y-6782142D01*
X3957142Y-6917857D02*
X3957142Y-6767857D01*
X4042857Y-6917857D02*
X3978571Y-6832142D01*
X4042857Y-6767857D02*
X3957142Y-6853571D01*
X2835000Y-6913571D02*
X2827857Y-6920714D01*
X2806428Y-6927857D01*
X2792142Y-6927857D01*
X2770714Y-6920714D01*
X2756428Y-6906428D01*
X2749285Y-6892142D01*
X2742142Y-6863571D01*
X2742142Y-6842142D01*
X2749285Y-6813571D01*
X2756428Y-6799285D01*
X2770714Y-6785000D01*
X2792142Y-6777857D01*
X2806428Y-6777857D01*
X2827857Y-6785000D01*
X2835000Y-6792142D01*
X2892142Y-6920714D02*
X2913571Y-6927857D01*
X2949285Y-6927857D01*
X2963571Y-6920714D01*
X2970714Y-6913571D01*
X2977857Y-6899285D01*
X2977857Y-6885000D01*
X2970714Y-6870714D01*
X2963571Y-6863571D01*
X2949285Y-6856428D01*
X2920714Y-6849285D01*
X2906428Y-6842142D01*
X2899285Y-6835000D01*
X2892142Y-6820714D01*
X2892142Y-6806428D01*
X2899285Y-6792142D01*
X2906428Y-6785000D01*
X2920714Y-6777857D01*
X2956428Y-6777857D01*
X2977857Y-6785000D01*
X20205357Y-7050000D02*
X20055357Y-7050000D01*
X20162500Y-7000000D01*
X20055357Y-6950000D01*
X20205357Y-6950000D01*
X20062500Y-6800000D02*
X20055357Y-6814285D01*
X20055357Y-6835714D01*
X20062500Y-6857142D01*
X20076785Y-6871428D01*
X20091071Y-6878571D01*
X20119642Y-6885714D01*
X20141071Y-6885714D01*
X20169642Y-6878571D01*
X20183928Y-6871428D01*
X20198214Y-6857142D01*
X20205357Y-6835714D01*
X20205357Y-6821428D01*
X20198214Y-6800000D01*
X20191071Y-6792857D01*
X20141071Y-6792857D01*
X20141071Y-6821428D01*
X20205357Y-6721428D02*
X20205357Y-6692857D01*
X20198214Y-6678571D01*
X20191071Y-6671428D01*
X20169642Y-6657142D01*
X20141071Y-6650000D01*
X20083928Y-6650000D01*
X20069642Y-6657142D01*
X20062500Y-6664285D01*
X20055357Y-6678571D01*
X20055357Y-6707142D01*
X20062500Y-6721428D01*
X20069642Y-6728571D01*
X20083928Y-6735714D01*
X20119642Y-6735714D01*
X20133928Y-6728571D01*
X20141071Y-6721428D01*
X20148214Y-6707142D01*
X20148214Y-6678571D01*
X20141071Y-6664285D01*
X20133928Y-6657142D01*
X20119642Y-6650000D01*
X20055357Y-6557142D02*
X20055357Y-6542857D01*
X20062500Y-6528571D01*
X20069642Y-6521428D01*
X20083928Y-6514285D01*
X20112500Y-6507142D01*
X20148214Y-6507142D01*
X20176785Y-6514285D01*
X20191071Y-6521428D01*
X20198214Y-6528571D01*
X20205357Y-6542857D01*
X20205357Y-6557142D01*
X20198214Y-6571428D01*
X20191071Y-6578571D01*
X20176785Y-6585714D01*
X20148214Y-6592857D01*
X20112500Y-6592857D01*
X20083928Y-6585714D01*
X20069642Y-6578571D01*
X20062500Y-6571428D01*
X20055357Y-6557142D01*
X20205357Y-6442857D02*
X20055357Y-6442857D01*
X20055357Y-6407142D01*
X20062500Y-6385714D01*
X20076785Y-6371428D01*
X20091071Y-6364285D01*
X20119642Y-6357142D01*
X20141071Y-6357142D01*
X20169642Y-6364285D01*
X20183928Y-6371428D01*
X20198214Y-6385714D01*
X20205357Y-6407142D01*
X20205357Y-6442857D01*
X20048214Y-6185714D02*
X20241071Y-6314285D01*
X20205357Y-6135714D02*
X20055357Y-6135714D01*
X20162500Y-6085714D01*
X20055357Y-6035714D01*
X20205357Y-6035714D01*
X20062500Y-5885714D02*
X20055357Y-5900000D01*
X20055357Y-5921428D01*
X20062500Y-5942857D01*
X20076785Y-5957142D01*
X20091071Y-5964285D01*
X20119642Y-5971428D01*
X20141071Y-5971428D01*
X20169642Y-5964285D01*
X20183928Y-5957142D01*
X20198214Y-5942857D01*
X20205357Y-5921428D01*
X20205357Y-5907142D01*
X20198214Y-5885714D01*
X20191071Y-5878571D01*
X20141071Y-5878571D01*
X20141071Y-5907142D01*
X20205357Y-5807142D02*
X20205357Y-5778571D01*
X20198214Y-5764285D01*
X20191071Y-5757142D01*
X20169642Y-5742857D01*
X20141071Y-5735714D01*
X20083928Y-5735714D01*
X20069642Y-5742857D01*
X20062500Y-5750000D01*
X20055357Y-5764285D01*
X20055357Y-5792857D01*
X20062500Y-5807142D01*
X20069642Y-5814285D01*
X20083928Y-5821428D01*
X20119642Y-5821428D01*
X20133928Y-5814285D01*
X20141071Y-5807142D01*
X20148214Y-5792857D01*
X20148214Y-5764285D01*
X20141071Y-5750000D01*
X20133928Y-5742857D01*
X20119642Y-5735714D01*
X20069642Y-5678571D02*
X20062500Y-5671428D01*
X20055357Y-5657142D01*
X20055357Y-5621428D01*
X20062500Y-5607142D01*
X20069642Y-5600000D01*
X20083928Y-5592857D01*
X20098214Y-5592857D01*
X20119642Y-5600000D01*
X20205357Y-5685714D01*
X20205357Y-5592857D01*
X20126785Y-5478571D02*
X20133928Y-5457142D01*
X20141071Y-5450000D01*
X20155357Y-5442857D01*
X20176785Y-5442857D01*
X20191071Y-5450000D01*
X20198214Y-5457142D01*
X20205357Y-5471428D01*
X20205357Y-5528571D01*
X20055357Y-5528571D01*
X20055357Y-5478571D01*
X20062500Y-5464285D01*
X20069642Y-5457142D01*
X20083928Y-5450000D01*
X20098214Y-5450000D01*
X20112500Y-5457142D01*
X20119642Y-5464285D01*
X20126785Y-5478571D01*
X20126785Y-5528571D01*
X20198214Y-5271428D02*
X20205357Y-5250000D01*
X20205357Y-5214285D01*
X20198214Y-5200000D01*
X20191071Y-5192857D01*
X20176785Y-5185714D01*
X20162500Y-5185714D01*
X20148214Y-5192857D01*
X20141071Y-5200000D01*
X20133928Y-5214285D01*
X20126785Y-5242857D01*
X20119642Y-5257142D01*
X20112500Y-5264285D01*
X20098214Y-5271428D01*
X20083928Y-5271428D01*
X20069642Y-5264285D01*
X20062500Y-5257142D01*
X20055357Y-5242857D01*
X20055357Y-5207142D01*
X20062500Y-5185714D01*
X20205357Y-5121428D02*
X20105357Y-5121428D01*
X20119642Y-5121428D02*
X20112500Y-5114285D01*
X20105357Y-5100000D01*
X20105357Y-5078571D01*
X20112500Y-5064285D01*
X20126785Y-5057142D01*
X20205357Y-5057142D01*
X20126785Y-5057142D02*
X20112500Y-5050000D01*
X20105357Y-5035714D01*
X20105357Y-5014285D01*
X20112500Y-5000000D01*
X20126785Y-4992857D01*
X20205357Y-4992857D01*
X20205357Y-4857142D02*
X20126785Y-4857142D01*
X20112500Y-4864285D01*
X20105357Y-4878571D01*
X20105357Y-4907142D01*
X20112500Y-4921428D01*
X20198214Y-4857142D02*
X20205357Y-4871428D01*
X20205357Y-4907142D01*
X20198214Y-4921428D01*
X20183928Y-4928571D01*
X20169642Y-4928571D01*
X20155357Y-4921428D01*
X20148214Y-4907142D01*
X20148214Y-4871428D01*
X20141071Y-4857142D01*
X20205357Y-4785714D02*
X20105357Y-4785714D01*
X20133928Y-4785714D02*
X20119642Y-4778571D01*
X20112500Y-4771428D01*
X20105357Y-4757142D01*
X20105357Y-4742857D01*
X20105357Y-4714285D02*
X20105357Y-4657142D01*
X20055357Y-4692857D02*
X20183928Y-4692857D01*
X20198214Y-4685714D01*
X20205357Y-4671428D01*
X20205357Y-4657142D01*
X20191071Y-4407142D02*
X20198214Y-4414285D01*
X20205357Y-4435714D01*
X20205357Y-4450000D01*
X20198214Y-4471428D01*
X20183928Y-4485714D01*
X20169642Y-4492857D01*
X20141071Y-4500000D01*
X20119642Y-4500000D01*
X20091071Y-4492857D01*
X20076785Y-4485714D01*
X20062500Y-4471428D01*
X20055357Y-4450000D01*
X20055357Y-4435714D01*
X20062500Y-4414285D01*
X20069642Y-4407142D01*
X20205357Y-4321428D02*
X20198214Y-4335714D01*
X20191071Y-4342857D01*
X20176785Y-4350000D01*
X20133928Y-4350000D01*
X20119642Y-4342857D01*
X20112500Y-4335714D01*
X20105357Y-4321428D01*
X20105357Y-4300000D01*
X20112500Y-4285714D01*
X20119642Y-4278571D01*
X20133928Y-4271428D01*
X20176785Y-4271428D01*
X20191071Y-4278571D01*
X20198214Y-4285714D01*
X20205357Y-4300000D01*
X20205357Y-4321428D01*
X20105357Y-4207142D02*
X20205357Y-4207142D01*
X20119642Y-4207142D02*
X20112500Y-4200000D01*
X20105357Y-4185714D01*
X20105357Y-4164285D01*
X20112500Y-4150000D01*
X20126785Y-4142857D01*
X20205357Y-4142857D01*
X20105357Y-4092857D02*
X20105357Y-4035714D01*
X20055357Y-4071428D02*
X20183928Y-4071428D01*
X20198214Y-4064285D01*
X20205357Y-4050000D01*
X20205357Y-4035714D01*
X20205357Y-3985714D02*
X20105357Y-3985714D01*
X20133928Y-3985714D02*
X20119642Y-3978571D01*
X20112500Y-3971428D01*
X20105357Y-3957142D01*
X20105357Y-3942857D01*
X20205357Y-3871428D02*
X20198214Y-3885714D01*
X20191071Y-3892857D01*
X20176785Y-3900000D01*
X20133928Y-3900000D01*
X20119642Y-3892857D01*
X20112500Y-3885714D01*
X20105357Y-3871428D01*
X20105357Y-3850000D01*
X20112500Y-3835714D01*
X20119642Y-3828571D01*
X20133928Y-3821428D01*
X20176785Y-3821428D01*
X20191071Y-3828571D01*
X20198214Y-3835714D01*
X20205357Y-3850000D01*
X20205357Y-3871428D01*
X20205357Y-3735714D02*
X20198214Y-3750000D01*
X20183928Y-3757142D01*
X20055357Y-3757142D01*
X20205357Y-3657142D02*
X20198214Y-3671428D01*
X20183928Y-3678571D01*
X20055357Y-3678571D01*
X20198214Y-3542857D02*
X20205357Y-3557142D01*
X20205357Y-3585714D01*
X20198214Y-3600000D01*
X20183928Y-3607142D01*
X20126785Y-3607142D01*
X20112500Y-3600000D01*
X20105357Y-3585714D01*
X20105357Y-3557142D01*
X20112500Y-3542857D01*
X20126785Y-3535714D01*
X20141071Y-3535714D01*
X20155357Y-3607142D01*
X20205357Y-3471428D02*
X20105357Y-3471428D01*
X20133928Y-3471428D02*
X20119642Y-3464285D01*
X20112500Y-3457142D01*
X20105357Y-3442857D01*
X20105357Y-3428571D01*
X20467857Y-6053571D02*
X20317857Y-6053571D01*
X20467857Y-5967857D02*
X20382142Y-6032142D01*
X20317857Y-5967857D02*
X20403571Y-6053571D01*
X20460714Y-5846428D02*
X20467857Y-5860714D01*
X20467857Y-5889285D01*
X20460714Y-5903571D01*
X20446428Y-5910714D01*
X20389285Y-5910714D01*
X20375000Y-5903571D01*
X20367857Y-5889285D01*
X20367857Y-5860714D01*
X20375000Y-5846428D01*
X20389285Y-5839285D01*
X20403571Y-5839285D01*
X20417857Y-5910714D01*
X20467857Y-5775000D02*
X20367857Y-5775000D01*
X20317857Y-5775000D02*
X20325000Y-5782142D01*
X20332142Y-5775000D01*
X20325000Y-5767857D01*
X20317857Y-5775000D01*
X20332142Y-5775000D01*
X20467857Y-5682142D02*
X20460714Y-5696428D01*
X20453571Y-5703571D01*
X20439285Y-5710714D01*
X20396428Y-5710714D01*
X20382142Y-5703571D01*
X20375000Y-5696428D01*
X20367857Y-5682142D01*
X20367857Y-5660714D01*
X20375000Y-5646428D01*
X20382142Y-5639285D01*
X20396428Y-5632142D01*
X20439285Y-5632142D01*
X20453571Y-5639285D01*
X20460714Y-5646428D01*
X20467857Y-5660714D01*
X20467857Y-5682142D01*
X20367857Y-5567857D02*
X20467857Y-5567857D01*
X20382142Y-5567857D02*
X20375000Y-5560714D01*
X20367857Y-5546428D01*
X20367857Y-5525000D01*
X20375000Y-5510714D01*
X20389285Y-5503571D01*
X20467857Y-5503571D01*
X20389285Y-5267857D02*
X20396428Y-5246428D01*
X20403571Y-5239285D01*
X20417857Y-5232142D01*
X20439285Y-5232142D01*
X20453571Y-5239285D01*
X20460714Y-5246428D01*
X20467857Y-5260714D01*
X20467857Y-5317857D01*
X20317857Y-5317857D01*
X20317857Y-5267857D01*
X20325000Y-5253571D01*
X20332142Y-5246428D01*
X20346428Y-5239285D01*
X20360714Y-5239285D01*
X20375000Y-5246428D01*
X20382142Y-5253571D01*
X20389285Y-5267857D01*
X20389285Y-5317857D01*
X20467857Y-5167857D02*
X20367857Y-5167857D01*
X20317857Y-5167857D02*
X20325000Y-5175000D01*
X20332142Y-5167857D01*
X20325000Y-5160714D01*
X20317857Y-5167857D01*
X20332142Y-5167857D01*
X20460714Y-5103571D02*
X20467857Y-5089285D01*
X20467857Y-5060714D01*
X20460714Y-5046428D01*
X20446428Y-5039285D01*
X20439285Y-5039285D01*
X20425000Y-5046428D01*
X20417857Y-5060714D01*
X20417857Y-5082142D01*
X20410714Y-5096428D01*
X20396428Y-5103571D01*
X20389285Y-5103571D01*
X20375000Y-5096428D01*
X20367857Y-5082142D01*
X20367857Y-5060714D01*
X20375000Y-5046428D01*
X20467857Y-4953571D02*
X20460714Y-4967857D01*
X20446428Y-4975000D01*
X20317857Y-4975000D01*
X20467857Y-4832142D02*
X20389285Y-4832142D01*
X20375000Y-4839285D01*
X20367857Y-4853571D01*
X20367857Y-4882142D01*
X20375000Y-4896428D01*
X20460714Y-4832142D02*
X20467857Y-4846428D01*
X20467857Y-4882142D01*
X20460714Y-4896428D01*
X20446428Y-4903571D01*
X20432142Y-4903571D01*
X20417857Y-4896428D01*
X20410714Y-4882142D01*
X20410714Y-4846428D01*
X20403571Y-4832142D01*
X20367857Y-4760714D02*
X20467857Y-4760714D01*
X20382142Y-4760714D02*
X20375000Y-4753571D01*
X20367857Y-4739285D01*
X20367857Y-4717857D01*
X20375000Y-4703571D01*
X20389285Y-4696428D01*
X20467857Y-4696428D01*
X20467857Y-4560714D02*
X20317857Y-4560714D01*
X20460714Y-4560714D02*
X20467857Y-4575000D01*
X20467857Y-4603571D01*
X20460714Y-4617857D01*
X20453571Y-4625000D01*
X20439285Y-4632142D01*
X20396428Y-4632142D01*
X20382142Y-4625000D01*
X20375000Y-4617857D01*
X20367857Y-4603571D01*
X20367857Y-4575000D01*
X20375000Y-4560714D01*
X20730357Y-5453571D02*
X20658928Y-5503571D01*
X20730357Y-5539285D02*
X20580357Y-5539285D01*
X20580357Y-5482142D01*
X20587500Y-5467857D01*
X20594642Y-5460714D01*
X20608928Y-5453571D01*
X20630357Y-5453571D01*
X20644642Y-5460714D01*
X20651785Y-5467857D01*
X20658928Y-5482142D01*
X20658928Y-5539285D01*
X20723214Y-5332142D02*
X20730357Y-5346428D01*
X20730357Y-5375000D01*
X20723214Y-5389285D01*
X20708928Y-5396428D01*
X20651785Y-5396428D01*
X20637500Y-5389285D01*
X20630357Y-5375000D01*
X20630357Y-5346428D01*
X20637500Y-5332142D01*
X20651785Y-5325000D01*
X20666071Y-5325000D01*
X20680357Y-5396428D01*
X20630357Y-5275000D02*
X20730357Y-5239285D01*
X20630357Y-5203571D01*
X20730357Y-4953571D02*
X20730357Y-5039285D01*
X20730357Y-4996428D02*
X20580357Y-4996428D01*
X20601785Y-5010714D01*
X20616071Y-5025000D01*
X20623214Y-5039285D01*
D11*
G04 #@! TO.C,M1*
X19900000Y-5250000D02*
G75*
G03X19900000Y-5250000I-2500000J0D01*
G01*
X20900000Y-6750000D02*
G75*
G02X13900000Y-6750000I-3500000J0D01*
G01*
X13900000Y-3750000D02*
G75*
G02X20900000Y-3750000I3500000J0D01*
G01*
X20900000Y-3750000D02*
X20900000Y-6750000D01*
X13900000Y-3750000D02*
X13900000Y-6750000D01*
D12*
G04 #@! TO.C,J1*
X2310000Y-7245000D02*
X2310000Y-7545507D01*
X2310000Y-8334493D02*
X2310000Y-8635000D01*
X7185000Y-7245000D02*
X2310000Y-7245000D01*
X7185000Y-8635000D02*
X2310000Y-8635000D01*
X7185000Y-7245000D02*
X7185000Y-7331724D01*
X7185000Y-8548276D02*
X7185000Y-8635000D01*
X7870000Y-7245000D02*
X8555000Y-7245000D01*
X8555000Y-7245000D02*
X8555000Y-7940000D01*
G04 #@! TO.C,J2*
X2205000Y-9905000D02*
X2205000Y-9210000D01*
X2890000Y-9905000D02*
X2205000Y-9905000D01*
X3575000Y-8601724D02*
X3575000Y-8515000D01*
X3575000Y-9905000D02*
X3575000Y-9818276D01*
X3575000Y-8515000D02*
X8450000Y-8515000D01*
X3575000Y-9905000D02*
X8450000Y-9905000D01*
X8450000Y-8815507D02*
X8450000Y-8515000D01*
X8450000Y-9905000D02*
X8450000Y-9604493D01*
D11*
G04 #@! TO.C,U1*
X6735000Y-495000D02*
X6210000Y-495000D01*
X6735000Y-5745000D02*
X6210000Y-5745000D01*
X1485000Y-5745000D02*
X2010000Y-5745000D01*
X1485000Y-495000D02*
X2010000Y-495000D01*
X6735000Y-5745000D02*
X6735000Y-5220000D01*
X1485000Y-5745000D02*
X1485000Y-5220000D01*
X6735000Y-495000D02*
X6735000Y-1020000D01*
D13*
G04 #@! TO.C,IC3*
X9218000Y-7920000D02*
X9218000Y-7320000D01*
X9218000Y-7320000D02*
X12118000Y-7320000D01*
X12118000Y-7320000D02*
X12118000Y-7920000D01*
X12118000Y-7920000D02*
X9218000Y-7920000D01*
X9168000Y-9470000D02*
X9168000Y-8270000D01*
D14*
G04 #@! TO.C,D1*
X750000Y-6260000D02*
G75*
G03X750000Y-6260000I-50000J0D01*
G01*
G04 #@! TO.C,M1*
D15*
X17467857Y-2521428D02*
X17317857Y-2521428D01*
X17425000Y-2471428D01*
X17317857Y-2421428D01*
X17467857Y-2421428D01*
X17467857Y-2271428D02*
X17467857Y-2357142D01*
X17467857Y-2314285D02*
X17317857Y-2314285D01*
X17339285Y-2328571D01*
X17353571Y-2342857D01*
X17360714Y-2357142D01*
G04 #@! TO.C,IC2*
X11470251Y-7482897D02*
X11470251Y-7332897D01*
X11627394Y-7468611D02*
X11620251Y-7475754D01*
X11598822Y-7482897D01*
X11584537Y-7482897D01*
X11563108Y-7475754D01*
X11548822Y-7461468D01*
X11541680Y-7447182D01*
X11534537Y-7418611D01*
X11534537Y-7397182D01*
X11541680Y-7368611D01*
X11548822Y-7354325D01*
X11563108Y-7340040D01*
X11584537Y-7332897D01*
X11598822Y-7332897D01*
X11620251Y-7340040D01*
X11627394Y-7347182D01*
X11684537Y-7347182D02*
X11691680Y-7340040D01*
X11705965Y-7332897D01*
X11741680Y-7332897D01*
X11755965Y-7340040D01*
X11763108Y-7347182D01*
X11770251Y-7361468D01*
X11770251Y-7375754D01*
X11763108Y-7397182D01*
X11677394Y-7482897D01*
X11770251Y-7482897D01*
G04 #@! TO.C,J1*
X9347857Y-7990000D02*
X9455000Y-7990000D01*
X9476428Y-7997142D01*
X9490714Y-8011428D01*
X9497857Y-8032857D01*
X9497857Y-8047142D01*
X9497857Y-7840000D02*
X9497857Y-7925714D01*
X9497857Y-7882857D02*
X9347857Y-7882857D01*
X9369285Y-7897142D01*
X9383571Y-7911428D01*
X9390714Y-7925714D01*
G04 #@! TO.C,J2*
X1247857Y-9260000D02*
X1355000Y-9260000D01*
X1376428Y-9267142D01*
X1390714Y-9281428D01*
X1397857Y-9302857D01*
X1397857Y-9317142D01*
X1262142Y-9195714D02*
X1255000Y-9188571D01*
X1247857Y-9174285D01*
X1247857Y-9138571D01*
X1255000Y-9124285D01*
X1262142Y-9117142D01*
X1276428Y-9110000D01*
X1290714Y-9110000D01*
X1312142Y-9117142D01*
X1397857Y-9202857D01*
X1397857Y-9110000D01*
G04 #@! TO.C,U1*
X1485714Y-217857D02*
X1485714Y-339285D01*
X1492857Y-353571D01*
X1500000Y-360714D01*
X1514285Y-367857D01*
X1542857Y-367857D01*
X1557142Y-360714D01*
X1564285Y-353571D01*
X1571428Y-339285D01*
X1571428Y-217857D01*
X1721428Y-367857D02*
X1635714Y-367857D01*
X1678571Y-367857D02*
X1678571Y-217857D01*
X1664285Y-239285D01*
X1650000Y-253571D01*
X1635714Y-260714D01*
G04 #@! TO.C,IC3*
X10521571Y-7687857D02*
X10521571Y-7537857D01*
X10678714Y-7673571D02*
X10671571Y-7680714D01*
X10650142Y-7687857D01*
X10635857Y-7687857D01*
X10614428Y-7680714D01*
X10600142Y-7666428D01*
X10593000Y-7652142D01*
X10585857Y-7623571D01*
X10585857Y-7602142D01*
X10593000Y-7573571D01*
X10600142Y-7559285D01*
X10614428Y-7545000D01*
X10635857Y-7537857D01*
X10650142Y-7537857D01*
X10671571Y-7545000D01*
X10678714Y-7552142D01*
X10728714Y-7537857D02*
X10821571Y-7537857D01*
X10771571Y-7595000D01*
X10793000Y-7595000D01*
X10807285Y-7602142D01*
X10814428Y-7609285D01*
X10821571Y-7623571D01*
X10821571Y-7659285D01*
X10814428Y-7673571D01*
X10807285Y-7680714D01*
X10793000Y-7687857D01*
X10750142Y-7687857D01*
X10735857Y-7680714D01*
X10728714Y-7673571D01*
G04 #@! TO.C,C5*
X12720000Y-9193571D02*
X12712857Y-9200714D01*
X12691428Y-9207857D01*
X12677142Y-9207857D01*
X12655714Y-9200714D01*
X12641428Y-9186428D01*
X12634285Y-9172142D01*
X12627142Y-9143571D01*
X12627142Y-9122142D01*
X12634285Y-9093571D01*
X12641428Y-9079285D01*
X12655714Y-9065000D01*
X12677142Y-9057857D01*
X12691428Y-9057857D01*
X12712857Y-9065000D01*
X12720000Y-9072142D01*
X12855714Y-9057857D02*
X12784285Y-9057857D01*
X12777142Y-9129285D01*
X12784285Y-9122142D01*
X12798571Y-9115000D01*
X12834285Y-9115000D01*
X12848571Y-9122142D01*
X12855714Y-9129285D01*
X12862857Y-9143571D01*
X12862857Y-9179285D01*
X12855714Y-9193571D01*
X12848571Y-9200714D01*
X12834285Y-9207857D01*
X12798571Y-9207857D01*
X12784285Y-9200714D01*
X12777142Y-9193571D01*
G04 #@! TO.C,C6*
X14275000Y-9453571D02*
X14267857Y-9460714D01*
X14246428Y-9467857D01*
X14232142Y-9467857D01*
X14210714Y-9460714D01*
X14196428Y-9446428D01*
X14189285Y-9432142D01*
X14182142Y-9403571D01*
X14182142Y-9382142D01*
X14189285Y-9353571D01*
X14196428Y-9339285D01*
X14210714Y-9325000D01*
X14232142Y-9317857D01*
X14246428Y-9317857D01*
X14267857Y-9325000D01*
X14275000Y-9332142D01*
X14403571Y-9317857D02*
X14375000Y-9317857D01*
X14360714Y-9325000D01*
X14353571Y-9332142D01*
X14339285Y-9353571D01*
X14332142Y-9382142D01*
X14332142Y-9439285D01*
X14339285Y-9453571D01*
X14346428Y-9460714D01*
X14360714Y-9467857D01*
X14389285Y-9467857D01*
X14403571Y-9460714D01*
X14410714Y-9453571D01*
X14417857Y-9439285D01*
X14417857Y-9403571D01*
X14410714Y-9389285D01*
X14403571Y-9382142D01*
X14389285Y-9375000D01*
X14360714Y-9375000D01*
X14346428Y-9382142D01*
X14339285Y-9389285D01*
X14332142Y-9403571D01*
G04 #@! TO.C,C7*
X10575000Y-3853571D02*
X10567857Y-3860714D01*
X10546428Y-3867857D01*
X10532142Y-3867857D01*
X10510714Y-3860714D01*
X10496428Y-3846428D01*
X10489285Y-3832142D01*
X10482142Y-3803571D01*
X10482142Y-3782142D01*
X10489285Y-3753571D01*
X10496428Y-3739285D01*
X10510714Y-3725000D01*
X10532142Y-3717857D01*
X10546428Y-3717857D01*
X10567857Y-3725000D01*
X10575000Y-3732142D01*
X10625000Y-3717857D02*
X10725000Y-3717857D01*
X10660714Y-3867857D01*
G04 #@! TO.C,C9*
X10375000Y-5353571D02*
X10367857Y-5360714D01*
X10346428Y-5367857D01*
X10332142Y-5367857D01*
X10310714Y-5360714D01*
X10296428Y-5346428D01*
X10289285Y-5332142D01*
X10282142Y-5303571D01*
X10282142Y-5282142D01*
X10289285Y-5253571D01*
X10296428Y-5239285D01*
X10310714Y-5225000D01*
X10332142Y-5217857D01*
X10346428Y-5217857D01*
X10367857Y-5225000D01*
X10375000Y-5232142D01*
X10446428Y-5367857D02*
X10475000Y-5367857D01*
X10489285Y-5360714D01*
X10496428Y-5353571D01*
X10510714Y-5332142D01*
X10517857Y-5303571D01*
X10517857Y-5246428D01*
X10510714Y-5232142D01*
X10503571Y-5225000D01*
X10489285Y-5217857D01*
X10460714Y-5217857D01*
X10446428Y-5225000D01*
X10439285Y-5232142D01*
X10432142Y-5246428D01*
X10432142Y-5282142D01*
X10439285Y-5296428D01*
X10446428Y-5303571D01*
X10460714Y-5310714D01*
X10489285Y-5310714D01*
X10503571Y-5303571D01*
X10510714Y-5296428D01*
X10517857Y-5282142D01*
G04 #@! TO.C,C10*
X12103571Y-5253571D02*
X12096428Y-5260714D01*
X12075000Y-5267857D01*
X12060714Y-5267857D01*
X12039285Y-5260714D01*
X12025000Y-5246428D01*
X12017857Y-5232142D01*
X12010714Y-5203571D01*
X12010714Y-5182142D01*
X12017857Y-5153571D01*
X12025000Y-5139285D01*
X12039285Y-5125000D01*
X12060714Y-5117857D01*
X12075000Y-5117857D01*
X12096428Y-5125000D01*
X12103571Y-5132142D01*
X12246428Y-5267857D02*
X12160714Y-5267857D01*
X12203571Y-5267857D02*
X12203571Y-5117857D01*
X12189285Y-5139285D01*
X12175000Y-5153571D01*
X12160714Y-5160714D01*
X12339285Y-5117857D02*
X12353571Y-5117857D01*
X12367857Y-5125000D01*
X12375000Y-5132142D01*
X12382142Y-5146428D01*
X12389285Y-5175000D01*
X12389285Y-5210714D01*
X12382142Y-5239285D01*
X12375000Y-5253571D01*
X12367857Y-5260714D01*
X12353571Y-5267857D01*
X12339285Y-5267857D01*
X12325000Y-5260714D01*
X12317857Y-5253571D01*
X12310714Y-5239285D01*
X12303571Y-5210714D01*
X12303571Y-5175000D01*
X12310714Y-5146428D01*
X12317857Y-5132142D01*
X12325000Y-5125000D01*
X12339285Y-5117857D01*
G04 #@! TO.C,C11*
X11653571Y-3196428D02*
X11660714Y-3203571D01*
X11667857Y-3225000D01*
X11667857Y-3239285D01*
X11660714Y-3260714D01*
X11646428Y-3275000D01*
X11632142Y-3282142D01*
X11603571Y-3289285D01*
X11582142Y-3289285D01*
X11553571Y-3282142D01*
X11539285Y-3275000D01*
X11525000Y-3260714D01*
X11517857Y-3239285D01*
X11517857Y-3225000D01*
X11525000Y-3203571D01*
X11532142Y-3196428D01*
X11667857Y-3053571D02*
X11667857Y-3139285D01*
X11667857Y-3096428D02*
X11517857Y-3096428D01*
X11539285Y-3110714D01*
X11553571Y-3125000D01*
X11560714Y-3139285D01*
X11667857Y-2910714D02*
X11667857Y-2996428D01*
X11667857Y-2953571D02*
X11517857Y-2953571D01*
X11539285Y-2967857D01*
X11553571Y-2982142D01*
X11560714Y-2996428D01*
G04 #@! TO.C,D1*
X767857Y-6310714D02*
X617857Y-6310714D01*
X617857Y-6275000D01*
X625000Y-6253571D01*
X639285Y-6239285D01*
X653571Y-6232142D01*
X682142Y-6225000D01*
X703571Y-6225000D01*
X732142Y-6232142D01*
X746428Y-6239285D01*
X760714Y-6253571D01*
X767857Y-6275000D01*
X767857Y-6310714D01*
X767857Y-6082142D02*
X767857Y-6167857D01*
X767857Y-6125000D02*
X617857Y-6125000D01*
X639285Y-6139285D01*
X653571Y-6153571D01*
X660714Y-6167857D01*
G04 #@! TO.C,R2*
X767857Y-3425000D02*
X696428Y-3475000D01*
X767857Y-3510714D02*
X617857Y-3510714D01*
X617857Y-3453571D01*
X625000Y-3439285D01*
X632142Y-3432142D01*
X646428Y-3425000D01*
X667857Y-3425000D01*
X682142Y-3432142D01*
X689285Y-3439285D01*
X696428Y-3453571D01*
X696428Y-3510714D01*
X632142Y-3367857D02*
X625000Y-3360714D01*
X617857Y-3346428D01*
X617857Y-3310714D01*
X625000Y-3296428D01*
X632142Y-3289285D01*
X646428Y-3282142D01*
X660714Y-3282142D01*
X682142Y-3289285D01*
X767857Y-3375000D01*
X767857Y-3282142D01*
G04 #@! TO.C,R4*
X8275000Y-2767857D02*
X8225000Y-2696428D01*
X8189285Y-2767857D02*
X8189285Y-2617857D01*
X8246428Y-2617857D01*
X8260714Y-2625000D01*
X8267857Y-2632142D01*
X8275000Y-2646428D01*
X8275000Y-2667857D01*
X8267857Y-2682142D01*
X8260714Y-2689285D01*
X8246428Y-2696428D01*
X8189285Y-2696428D01*
X8403571Y-2667857D02*
X8403571Y-2767857D01*
X8367857Y-2610714D02*
X8332142Y-2717857D01*
X8425000Y-2717857D01*
G04 #@! TO.C,R5*
X8275000Y-1667857D02*
X8225000Y-1596428D01*
X8189285Y-1667857D02*
X8189285Y-1517857D01*
X8246428Y-1517857D01*
X8260714Y-1525000D01*
X8267857Y-1532142D01*
X8275000Y-1546428D01*
X8275000Y-1567857D01*
X8267857Y-1582142D01*
X8260714Y-1589285D01*
X8246428Y-1596428D01*
X8189285Y-1596428D01*
X8410714Y-1517857D02*
X8339285Y-1517857D01*
X8332142Y-1589285D01*
X8339285Y-1582142D01*
X8353571Y-1575000D01*
X8389285Y-1575000D01*
X8403571Y-1582142D01*
X8410714Y-1589285D01*
X8417857Y-1603571D01*
X8417857Y-1639285D01*
X8410714Y-1653571D01*
X8403571Y-1660714D01*
X8389285Y-1667857D01*
X8353571Y-1667857D01*
X8339285Y-1660714D01*
X8332142Y-1653571D01*
G04 #@! TO.C,R6*
X11175000Y-867857D02*
X11125000Y-796428D01*
X11089285Y-867857D02*
X11089285Y-717857D01*
X11146428Y-717857D01*
X11160714Y-725000D01*
X11167857Y-732142D01*
X11175000Y-746428D01*
X11175000Y-767857D01*
X11167857Y-782142D01*
X11160714Y-789285D01*
X11146428Y-796428D01*
X11089285Y-796428D01*
X11303571Y-717857D02*
X11275000Y-717857D01*
X11260714Y-725000D01*
X11253571Y-732142D01*
X11239285Y-753571D01*
X11232142Y-782142D01*
X11232142Y-839285D01*
X11239285Y-853571D01*
X11246428Y-860714D01*
X11260714Y-867857D01*
X11289285Y-867857D01*
X11303571Y-860714D01*
X11310714Y-853571D01*
X11317857Y-839285D01*
X11317857Y-803571D01*
X11310714Y-789285D01*
X11303571Y-782142D01*
X11289285Y-775000D01*
X11260714Y-775000D01*
X11246428Y-782142D01*
X11239285Y-789285D01*
X11232142Y-803571D01*
G04 #@! TD*
M02*
