G04 #@! TF.GenerationSoftware,KiCad,Pcbnew,5.0.0-fee4fd1~66~ubuntu16.04.1*
G04 #@! TF.CreationDate,2018-08-14T00:09:00-04:00*
G04 #@! TF.ProjectId,motor controller,6D6F746F7220636F6E74726F6C6C6572,rev?*
G04 #@! TF.SameCoordinates,Original*
G04 #@! TF.FileFunction,Copper,L1,Top,Signal*
G04 #@! TF.FilePolarity,Positive*
%FSLAX46Y46*%
G04 Gerber Fmt 4.6, Leading zero omitted, Abs format (unit mm)*
G04 Created by KiCad (PCBNEW 5.0.0-fee4fd1~66~ubuntu16.04.1) date Tue Aug 14 00:09:00 2018*
%MOMM*%
%LPD*%
G01*
G04 APERTURE LIST*
G04 #@! TA.AperFunction,ComponentPad*
%ADD10O,3.000000X1.300000*%
G04 #@! TD*
G04 #@! TA.AperFunction,ComponentPad*
%ADD11R,0.850000X0.850000*%
G04 #@! TD*
G04 #@! TA.AperFunction,ComponentPad*
%ADD12O,0.850000X0.850000*%
G04 #@! TD*
G04 #@! TA.AperFunction,SMDPad,CuDef*
%ADD13R,3.450000X3.450000*%
G04 #@! TD*
G04 #@! TA.AperFunction,SMDPad,CuDef*
%ADD14R,0.250000X0.700000*%
G04 #@! TD*
G04 #@! TA.AperFunction,SMDPad,CuDef*
%ADD15R,0.700000X0.250000*%
G04 #@! TD*
G04 #@! TA.AperFunction,SMDPad,CuDef*
%ADD16R,0.600000X1.200000*%
G04 #@! TD*
G04 #@! TA.AperFunction,SMDPad,CuDef*
%ADD17R,0.350000X0.400000*%
G04 #@! TD*
G04 #@! TA.AperFunction,SMDPad,CuDef*
%ADD18R,0.400000X0.350000*%
G04 #@! TD*
G04 #@! TA.AperFunction,ViaPad*
%ADD19C,0.400000*%
G04 #@! TD*
G04 #@! TA.AperFunction,ViaPad*
%ADD20C,0.450000*%
G04 #@! TD*
G04 #@! TA.AperFunction,Conductor*
%ADD21C,0.100000*%
G04 #@! TD*
G04 #@! TA.AperFunction,Conductor*
%ADD22C,0.600000*%
G04 #@! TD*
G04 #@! TA.AperFunction,Conductor*
%ADD23C,0.127000*%
G04 #@! TD*
G04 APERTURE END LIST*
D10*
G04 #@! TO.P,M1,1*
G04 #@! TO.N,OUT2*
X17400000Y-950000D03*
G04 #@! TO.P,M1,2*
G04 #@! TO.N,OUT1*
X17400000Y-9550000D03*
G04 #@! TD*
D11*
G04 #@! TO.P,J1,1*
G04 #@! TO.N,+BATT*
X7870000Y-7940000D03*
D12*
G04 #@! TO.P,J1,2*
G04 #@! TO.N,GND*
X6870000Y-7940000D03*
G04 #@! TO.P,J1,3*
G04 #@! TO.N,MOSI*
X5870000Y-7940000D03*
G04 #@! TO.P,J1,4*
G04 #@! TO.N,Net-(J1-Pad4)*
X4870000Y-7940000D03*
G04 #@! TO.P,J1,5*
G04 #@! TO.N,SCK*
X3870000Y-7940000D03*
G04 #@! TO.P,J1,6*
G04 #@! TO.N,CS*
X2870000Y-7940000D03*
G04 #@! TD*
G04 #@! TO.P,J2,6*
G04 #@! TO.N,+BATT*
X7890000Y-9210000D03*
G04 #@! TO.P,J2,5*
G04 #@! TO.N,GND*
X6890000Y-9210000D03*
G04 #@! TO.P,J2,4*
G04 #@! TO.N,Net-(J1-Pad4)*
X5890000Y-9210000D03*
G04 #@! TO.P,J2,3*
G04 #@! TO.N,MISO*
X4890000Y-9210000D03*
G04 #@! TO.P,J2,2*
G04 #@! TO.N,SCK*
X3890000Y-9210000D03*
D11*
G04 #@! TO.P,J2,1*
G04 #@! TO.N,CS*
X2890000Y-9210000D03*
G04 #@! TD*
D13*
G04 #@! TO.P,U1,33*
G04 #@! TO.N,GND*
X4110000Y-3120000D03*
D14*
G04 #@! TO.P,U1,32*
X2360000Y-720000D03*
G04 #@! TO.P,U1,31*
G04 #@! TO.N,Net-(R1-Pad1)*
X2860000Y-720000D03*
G04 #@! TO.P,U1,30*
G04 #@! TO.N,Net-(U1-Pad30)*
X3360000Y-720000D03*
G04 #@! TO.P,U1,29*
G04 #@! TO.N,Net-(U1-Pad29)*
X3860000Y-720000D03*
G04 #@! TO.P,U1,28*
G04 #@! TO.N,Net-(U1-Pad28)*
X4360000Y-720000D03*
G04 #@! TO.P,U1,27*
G04 #@! TO.N,Net-(U1-Pad27)*
X4860000Y-720000D03*
G04 #@! TO.P,U1,26*
G04 #@! TO.N,Net-(U1-Pad26)*
X5360000Y-720000D03*
G04 #@! TO.P,U1,25*
G04 #@! TO.N,Net-(U1-Pad25)*
X5860000Y-720000D03*
D15*
G04 #@! TO.P,U1,24*
G04 #@! TO.N,SWCLK*
X6510000Y-1370000D03*
G04 #@! TO.P,U1,23*
G04 #@! TO.N,SWDIO*
X6510000Y-1870000D03*
G04 #@! TO.P,U1,22*
G04 #@! TO.N,MOSI2*
X6510000Y-2370000D03*
G04 #@! TO.P,U1,21*
G04 #@! TO.N,MISO2*
X6510000Y-2870000D03*
G04 #@! TO.P,U1,20*
G04 #@! TO.N,IN1*
X6510000Y-3370000D03*
G04 #@! TO.P,U1,19*
G04 #@! TO.N,IN2*
X6510000Y-3870000D03*
G04 #@! TO.P,U1,18*
G04 #@! TO.N,ENC_CS*
X6510000Y-4370000D03*
G04 #@! TO.P,U1,17*
G04 #@! TO.N,+3V3*
X6510000Y-4870000D03*
D14*
G04 #@! TO.P,U1,16*
G04 #@! TO.N,GND*
X5860000Y-5520000D03*
G04 #@! TO.P,U1,15*
G04 #@! TO.N,Net-(U1-Pad15)*
X5360000Y-5520000D03*
G04 #@! TO.P,U1,14*
G04 #@! TO.N,FB*
X4860000Y-5520000D03*
G04 #@! TO.P,U1,13*
G04 #@! TO.N,MOSI*
X4360000Y-5520000D03*
G04 #@! TO.P,U1,12*
G04 #@! TO.N,MISO*
X3860000Y-5520000D03*
G04 #@! TO.P,U1,11*
G04 #@! TO.N,SCK*
X3360000Y-5520000D03*
G04 #@! TO.P,U1,10*
G04 #@! TO.N,CS*
X2860000Y-5520000D03*
G04 #@! TO.P,U1,9*
G04 #@! TO.N,Net-(U1-Pad9)*
X2360000Y-5520000D03*
D15*
G04 #@! TO.P,U1,8*
G04 #@! TO.N,Net-(U1-Pad8)*
X1710000Y-4870000D03*
G04 #@! TO.P,U1,7*
G04 #@! TO.N,Net-(U1-Pad7)*
X1710000Y-4370000D03*
G04 #@! TO.P,U1,6*
G04 #@! TO.N,signaling*
X1710000Y-3870000D03*
G04 #@! TO.P,U1,5*
G04 #@! TO.N,+3V3*
X1710000Y-3370000D03*
G04 #@! TO.P,U1,4*
G04 #@! TO.N,Net-(U1-Pad4)*
X1710000Y-2870000D03*
G04 #@! TO.P,U1,3*
G04 #@! TO.N,Net-(C2-Pad2)*
X1710000Y-2370000D03*
G04 #@! TO.P,U1,2*
G04 #@! TO.N,Net-(C1-Pad1)*
X1710000Y-1870000D03*
G04 #@! TO.P,U1,1*
G04 #@! TO.N,+3V3*
X1710000Y-1370000D03*
G04 #@! TD*
D16*
G04 #@! TO.P,IC3,1*
G04 #@! TO.N,+BATT*
X9718000Y-8870000D03*
G04 #@! TO.P,IC3,2*
G04 #@! TO.N,Net-(IC3-Pad2)*
X10668000Y-8870000D03*
G04 #@! TO.P,IC3,3*
G04 #@! TO.N,GND*
X11618000Y-8870000D03*
G04 #@! TO.P,IC3,4*
G04 #@! TO.N,Net-(IC3-Pad4)*
X11618000Y-6370000D03*
G04 #@! TO.P,IC3,5*
G04 #@! TO.N,+3V3*
X9718000Y-6370000D03*
G04 #@! TD*
D17*
G04 #@! TO.P,C5,1*
G04 #@! TO.N,+3V3*
X12470000Y-9640000D03*
G04 #@! TO.P,C5,2*
G04 #@! TO.N,GND*
X13020000Y-9640000D03*
G04 #@! TD*
G04 #@! TO.P,C6,1*
G04 #@! TO.N,FB*
X14025000Y-8900000D03*
G04 #@! TO.P,C6,2*
G04 #@! TO.N,GND*
X14575000Y-8900000D03*
G04 #@! TD*
G04 #@! TO.P,C7,1*
G04 #@! TO.N,Net-(C7-Pad1)*
X10775000Y-4300000D03*
G04 #@! TO.P,C7,2*
G04 #@! TO.N,Net-(C7-Pad2)*
X10225000Y-4300000D03*
G04 #@! TD*
G04 #@! TO.P,C9,2*
G04 #@! TO.N,GND*
X9325000Y-5000000D03*
G04 #@! TO.P,C9,1*
G04 #@! TO.N,+3V3*
X9875000Y-5000000D03*
G04 #@! TD*
G04 #@! TO.P,C10,2*
G04 #@! TO.N,Net-(C10-Pad2)*
X11025000Y-5100000D03*
G04 #@! TO.P,C10,1*
G04 #@! TO.N,Net-(C10-Pad1)*
X11575000Y-5100000D03*
G04 #@! TD*
D18*
G04 #@! TO.P,C11,1*
G04 #@! TO.N,Net-(C11-Pad1)*
X12200000Y-3350000D03*
G04 #@! TO.P,C11,2*
G04 #@! TO.N,MC+*
X12200000Y-2800000D03*
G04 #@! TD*
G04 #@! TO.P,D1,1*
G04 #@! TO.N,GND*
X700000Y-5775000D03*
G04 #@! TO.P,D1,2*
G04 #@! TO.N,Net-(D1-Pad2)*
X700000Y-5225000D03*
G04 #@! TD*
G04 #@! TO.P,R2,2*
G04 #@! TO.N,signaling*
X700000Y-3925000D03*
G04 #@! TO.P,R2,1*
G04 #@! TO.N,Net-(D1-Pad2)*
X700000Y-4475000D03*
G04 #@! TD*
D17*
G04 #@! TO.P,R4,1*
G04 #@! TO.N,Net-(IC4-Pad3)*
X9375000Y-2700000D03*
G04 #@! TO.P,R4,2*
G04 #@! TO.N,GND*
X8825000Y-2700000D03*
G04 #@! TD*
G04 #@! TO.P,R5,2*
G04 #@! TO.N,GND*
X8825000Y-1600000D03*
G04 #@! TO.P,R5,1*
G04 #@! TO.N,IN1*
X9375000Y-1600000D03*
G04 #@! TD*
G04 #@! TO.P,R6,1*
G04 #@! TO.N,IN2*
X10925000Y-1300000D03*
G04 #@! TO.P,R6,2*
G04 #@! TO.N,GND*
X11475000Y-1300000D03*
G04 #@! TD*
D19*
G04 #@! TO.N,GND*
X14610000Y-8920000D03*
X13030000Y-9670000D03*
X11500000Y-8380000D03*
X11480000Y-8890000D03*
X11500000Y-9370000D03*
X8825000Y-2700000D03*
X11440000Y-1450000D03*
X9325000Y-5000000D03*
X12410000Y-6750000D03*
X11674998Y-2950000D03*
X6450000Y-6000000D03*
X8500000Y-4580000D03*
X8825000Y-1600000D03*
X4110000Y-3120000D03*
X1525000Y-6300000D03*
X7420000Y-590000D03*
G04 #@! TO.N,Net-(C1-Pad1)*
X1950000Y-1820002D03*
G04 #@! TO.N,Net-(C2-Pad2)*
X900000Y-2450000D03*
G04 #@! TO.N,+3V3*
X13700000Y-4990000D03*
X12320000Y-7890000D03*
X7250000Y-4130000D03*
X2075000Y-6300000D03*
X3818753Y-6241192D03*
X9691933Y-6362734D03*
X8880678Y-7880397D03*
X549998Y-3230000D03*
X702670Y-6250002D03*
X7050000Y-5510000D03*
X14240000Y-1900000D03*
D20*
G04 #@! TO.N,+BATT*
X9520000Y-9310000D03*
X9510000Y-8830000D03*
X9510000Y-8370000D03*
D19*
G04 #@! TO.N,FB*
X12920000Y-8790000D03*
G04 #@! TO.N,CS*
X2860000Y-5520000D03*
D20*
G04 #@! TO.N,OUT1*
X12980000Y-3710000D03*
X13380000Y-3710000D03*
G04 #@! TO.N,OUT2*
X12920000Y-2680000D03*
X13310000Y-2680000D03*
X13710000Y-2680000D03*
D19*
G04 #@! TO.N,SCK*
X3440000Y-6640000D03*
G04 #@! TO.N,SWDIO*
X7100000Y-2000000D03*
G04 #@! TO.N,SWCLK*
X7100000Y-1300000D03*
G04 #@! TO.N,ENC_CS*
X6510000Y-4370000D03*
G04 #@! TO.N,IN2*
X10889997Y-1450000D03*
G04 #@! TO.N,IN1*
X9375000Y-1600000D03*
G04 #@! TO.N,Net-(C7-Pad1)*
X11440000Y-4450000D03*
G04 #@! TO.N,Net-(C7-Pad2)*
X10225000Y-4300000D03*
G04 #@! TO.N,Net-(C10-Pad2)*
X11025000Y-5100000D03*
G04 #@! TO.N,Net-(C10-Pad1)*
X11930000Y-5120000D03*
G04 #@! TO.N,Net-(C11-Pad1)*
X12440000Y-4450000D03*
G04 #@! TO.N,MC+*
X13190874Y-2055000D03*
G04 #@! TO.N,Net-(IC4-Pad3)*
X9375190Y-2704693D03*
G04 #@! TO.N,MISO2*
X7917597Y-1904085D03*
X7937415Y-3422916D03*
X7431602Y-4848067D03*
G04 #@! TO.N,MOSI2*
X6160002Y-2390000D03*
G04 #@! TD*
D21*
G04 #@! TO.N,GND*
X12410000Y-6431802D02*
X12380000Y-6401802D01*
X12410000Y-6750000D02*
X12410000Y-6431802D01*
X11815001Y-4380003D02*
X11815001Y-3995001D01*
X12380000Y-4945002D02*
X11815001Y-4380003D01*
X12380000Y-6401802D02*
X12380000Y-4945002D01*
X11674998Y-3854998D02*
X11674998Y-2950000D01*
X11815001Y-3995001D02*
X11674998Y-3854998D01*
X6450000Y-6000000D02*
X7020000Y-6000000D01*
X7020000Y-6000000D02*
X7390000Y-5630000D01*
X7390000Y-5630000D02*
X7390000Y-5420000D01*
X8230000Y-4580000D02*
X8500000Y-4580000D01*
X7390000Y-5420000D02*
X8230000Y-4580000D01*
X5860000Y-5520000D02*
X5860000Y-5650000D01*
X6225000Y-6000000D02*
X6450000Y-6000000D01*
X5875000Y-5650000D02*
X6225000Y-6000000D01*
X5860000Y-5650000D02*
X5875000Y-5650000D01*
X8825000Y-3000000D02*
X9290000Y-3465000D01*
X8825000Y-2700000D02*
X8825000Y-3000000D01*
X9290000Y-3465000D02*
X9290000Y-4280000D01*
X8990000Y-4580000D02*
X8500000Y-4580000D01*
X9290000Y-4280000D02*
X8990000Y-4580000D01*
X1000000Y-5775000D02*
X1525000Y-6300000D01*
X700000Y-5775000D02*
X1000000Y-5775000D01*
X8430000Y-1600000D02*
X8825000Y-1600000D01*
X7420000Y-590000D02*
X8430000Y-1600000D01*
G04 #@! TO.N,Net-(C1-Pad1)*
X1900002Y-1870000D02*
X1950000Y-1820002D01*
X1710000Y-1870000D02*
X1900002Y-1870000D01*
G04 #@! TO.N,Net-(C2-Pad2)*
X1630000Y-2450000D02*
X1710000Y-2370000D01*
X900000Y-2450000D02*
X1630000Y-2450000D01*
G04 #@! TO.N,+3V3*
X7250000Y-4355000D02*
X7250000Y-4130000D01*
X6735000Y-4870000D02*
X7250000Y-4355000D01*
X6510000Y-4870000D02*
X6735000Y-4870000D01*
X2350000Y-6300000D02*
X3065001Y-7015001D01*
X3818753Y-6816249D02*
X3818753Y-6241192D01*
X3620001Y-7015001D02*
X3818753Y-6816249D01*
X2075000Y-6300000D02*
X2350000Y-6300000D01*
X3065001Y-7015001D02*
X3620001Y-7015001D01*
X9699199Y-6370000D02*
X9691933Y-6362734D01*
X9718000Y-6370000D02*
X9699199Y-6370000D01*
X9691933Y-6362734D02*
X9691933Y-5758067D01*
X9875000Y-5575000D02*
X9875000Y-5000000D01*
X9691933Y-5758067D02*
X9875000Y-5575000D01*
X689998Y-3370000D02*
X549998Y-3230000D01*
X1710000Y-3370000D02*
X689998Y-3370000D01*
X2070000Y-3505000D02*
X1845000Y-3505000D01*
X2210000Y-3645000D02*
X2070000Y-3505000D01*
X1845000Y-3505000D02*
X1710000Y-3370000D01*
X2210000Y-4940002D02*
X2210000Y-3645000D01*
X6510000Y-4870000D02*
X6210000Y-4870000D01*
X6210000Y-4870000D02*
X6084999Y-4995001D01*
X6084999Y-4995001D02*
X2264999Y-4995001D01*
X2264999Y-4995001D02*
X2210000Y-4940002D01*
G04 #@! TO.N,FB*
X12920000Y-8790000D02*
X13430000Y-8790000D01*
X13540000Y-8900000D02*
X14025000Y-8900000D01*
X13430000Y-8790000D02*
X13540000Y-8900000D01*
X12680000Y-8085002D02*
X12680000Y-8550000D01*
X12680000Y-8550000D02*
X12920000Y-8790000D01*
X12695001Y-8070001D02*
X12680000Y-8085002D01*
X8964999Y-7514999D02*
X12500001Y-7514999D01*
X12695001Y-7709999D02*
X12695001Y-8070001D01*
X4860000Y-5520000D02*
X4860000Y-5970000D01*
X12500001Y-7514999D02*
X12695001Y-7709999D01*
X4860000Y-5970000D02*
X6010000Y-7120000D01*
X6010000Y-7120000D02*
X8570000Y-7120000D01*
X8570000Y-7120000D02*
X8964999Y-7514999D01*
G04 #@! TO.N,MOSI*
X4660000Y-6045000D02*
X4360000Y-5745000D01*
X4360000Y-5745000D02*
X4360000Y-5520000D01*
X4660000Y-6730000D02*
X4660000Y-6045000D01*
X5870000Y-7940000D02*
X4660000Y-6730000D01*
G04 #@! TO.N,MISO*
X4720000Y-9380000D02*
X4890000Y-9210000D01*
X4570000Y-9850000D02*
X4720000Y-9700000D01*
X4159990Y-6069990D02*
X4340000Y-6250000D01*
X4159990Y-6027427D02*
X4159990Y-6069990D01*
X2409998Y-9850000D02*
X4570000Y-9850000D01*
X4340000Y-6250000D02*
X4340000Y-6770000D01*
X3860000Y-5727437D02*
X4159990Y-6027427D01*
X2708998Y-7250000D02*
X2210000Y-7748998D01*
X4720000Y-9700000D02*
X4720000Y-9380000D01*
X2210000Y-7748998D02*
X2210000Y-9650002D01*
X3860000Y-5520000D02*
X3860000Y-5727437D01*
X4340000Y-6770000D02*
X3860000Y-7250000D01*
X3860000Y-7250000D02*
X2708998Y-7250000D01*
X2210000Y-9650002D02*
X2409998Y-9850000D01*
D22*
G04 #@! TO.N,OUT1*
X16550000Y-9550000D02*
X15820000Y-8820000D01*
X17400000Y-9550000D02*
X16550000Y-9550000D01*
X15820000Y-8820000D02*
X15820000Y-8020000D01*
X14444703Y-6644703D02*
X14444703Y-4244703D01*
X15820000Y-8020000D02*
X14444703Y-6644703D01*
X14444703Y-4244703D02*
X13910000Y-3710000D01*
X13910000Y-3710000D02*
X13380000Y-3710000D01*
X12980000Y-3710000D02*
X12980000Y-3710000D01*
X13380000Y-3710000D02*
X12980000Y-3710000D01*
G04 #@! TO.N,OUT2*
X17400000Y-950000D02*
X17050000Y-950000D01*
X17050000Y-950000D02*
X15320000Y-2680000D01*
X15320000Y-2680000D02*
X13710000Y-2680000D01*
X12920000Y-2680000D02*
X12880000Y-2680000D01*
X13310000Y-2680000D02*
X12920000Y-2680000D01*
X13710000Y-2680000D02*
X13310000Y-2680000D01*
D21*
G04 #@! TO.N,Net-(J1-Pad4)*
X4870000Y-7940000D02*
X5350000Y-8420000D01*
X5350000Y-8670000D02*
X5890000Y-9210000D01*
X5350000Y-8420000D02*
X5350000Y-8670000D01*
G04 #@! TO.N,SCK*
X3440000Y-6640000D02*
X3440000Y-6010000D01*
X3360000Y-5970000D02*
X3360000Y-5520000D01*
X3400000Y-6010000D02*
X3360000Y-5970000D01*
X3440000Y-6010000D02*
X3400000Y-6010000D01*
G04 #@! TO.N,SWDIO*
X6970000Y-1870000D02*
X7100000Y-2000000D01*
X6510000Y-1870000D02*
X6970000Y-1870000D01*
G04 #@! TO.N,SWCLK*
X7030000Y-1370000D02*
X7100000Y-1300000D01*
X6510000Y-1370000D02*
X7030000Y-1370000D01*
G04 #@! TO.N,Net-(D1-Pad2)*
X700000Y-5225000D02*
X700000Y-4475000D01*
G04 #@! TO.N,signaling*
X1655000Y-3925000D02*
X1710000Y-3870000D01*
X700000Y-3925000D02*
X1655000Y-3925000D01*
G04 #@! TO.N,IN2*
X8505001Y-2324999D02*
X9354999Y-2324999D01*
X6960000Y-3870000D02*
X8505001Y-2324999D01*
X6510000Y-3870000D02*
X6960000Y-3870000D01*
X9354999Y-2324999D02*
X9360000Y-2330000D01*
X10925000Y-1785000D02*
X10925000Y-1300000D01*
X10385001Y-2324999D02*
X10925000Y-1785000D01*
X9354999Y-2324999D02*
X10385001Y-2324999D01*
G04 #@! TO.N,IN1*
X7177144Y-3370000D02*
X8437144Y-2110000D01*
X6510000Y-3370000D02*
X7177144Y-3370000D01*
X8437144Y-2110000D02*
X9200000Y-2110000D01*
X9375000Y-1935000D02*
X9375000Y-1600000D01*
X9200000Y-2110000D02*
X9375000Y-1935000D01*
G04 #@! TO.N,Net-(C7-Pad1)*
X11290000Y-4300000D02*
X11440000Y-4450000D01*
X10775000Y-4300000D02*
X11290000Y-4300000D01*
G04 #@! TO.N,Net-(C10-Pad1)*
X11910000Y-5100000D02*
X11930000Y-5120000D01*
X11575000Y-5100000D02*
X11910000Y-5100000D01*
G04 #@! TO.N,Net-(C11-Pad1)*
X12200000Y-3625000D02*
X12375000Y-3800000D01*
X12200000Y-3350000D02*
X12200000Y-3625000D01*
X12375000Y-3800000D02*
X12430000Y-3800000D01*
X12440000Y-3810000D02*
X12440000Y-4450000D01*
X12430000Y-3800000D02*
X12440000Y-3810000D01*
G04 #@! TO.N,MC+*
X12670000Y-2055000D02*
X13190874Y-2055000D01*
X12200000Y-2525000D02*
X12670000Y-2055000D01*
X12200000Y-2800000D02*
X12200000Y-2525000D01*
G04 #@! TO.N,Net-(IC4-Pad3)*
X9375000Y-2704503D02*
X9375190Y-2704693D01*
X9375000Y-2700000D02*
X9375000Y-2704503D01*
G04 #@! TO.N,MISO2*
X7937415Y-3637585D02*
X7937415Y-3422916D01*
X7625001Y-3949999D02*
X7937415Y-3637585D01*
X7625001Y-4310001D02*
X7625001Y-3949999D01*
X7431602Y-4503400D02*
X7625001Y-4310001D01*
X7431602Y-4848067D02*
X7431602Y-4503400D01*
X6960000Y-2870000D02*
X7270000Y-2560000D01*
X6510000Y-2870000D02*
X6960000Y-2870000D01*
X7270000Y-2551682D02*
X7917597Y-1904085D01*
X7270000Y-2560000D02*
X7270000Y-2551682D01*
G04 #@! TO.N,MOSI2*
X6180002Y-2370000D02*
X6160002Y-2390000D01*
X6510000Y-2370000D02*
X6180002Y-2370000D01*
G04 #@! TD*
D23*
G04 #@! TO.N,+3V3*
G36*
X8721492Y-7714848D02*
X8738979Y-7741019D01*
X8842678Y-7810309D01*
X8934126Y-7828499D01*
X8934131Y-7828499D01*
X8964999Y-7834639D01*
X8995867Y-7828499D01*
X12370146Y-7828499D01*
X12381501Y-7839854D01*
X12381501Y-7978714D01*
X12366500Y-8054130D01*
X12366500Y-8054134D01*
X12360360Y-8085002D01*
X12366500Y-8115871D01*
X12366501Y-8519127D01*
X12360360Y-8550000D01*
X12384691Y-8672321D01*
X12436492Y-8749847D01*
X12436494Y-8749849D01*
X12453981Y-8776020D01*
X12456500Y-8777703D01*
X12456500Y-8882196D01*
X12527063Y-9052552D01*
X12657448Y-9182937D01*
X12717938Y-9207992D01*
X12655027Y-9250027D01*
X12596789Y-9337188D01*
X12576338Y-9440000D01*
X12576338Y-9554053D01*
X12566500Y-9577804D01*
X12566500Y-9588500D01*
X12155729Y-9588500D01*
X12166211Y-9572812D01*
X12186662Y-9470000D01*
X12186662Y-8270000D01*
X12166211Y-8167188D01*
X12107973Y-8080027D01*
X12020812Y-8021789D01*
X11918000Y-8001338D01*
X11776827Y-8001338D01*
X11762552Y-7987063D01*
X11592196Y-7916500D01*
X11407804Y-7916500D01*
X11237448Y-7987063D01*
X11177621Y-8046890D01*
X11143000Y-8070023D01*
X11070812Y-8021789D01*
X10968000Y-8001338D01*
X10368000Y-8001338D01*
X10265188Y-8021789D01*
X10193000Y-8070023D01*
X10120812Y-8021789D01*
X10018000Y-8001338D01*
X9832181Y-8001338D01*
X9786713Y-7955870D01*
X9607169Y-7881500D01*
X9412831Y-7881500D01*
X9233287Y-7955870D01*
X9095870Y-8093287D01*
X9021500Y-8272831D01*
X9021500Y-8467169D01*
X9076521Y-8600000D01*
X9021500Y-8732831D01*
X9021500Y-8927169D01*
X9085663Y-9082071D01*
X9031500Y-9212831D01*
X9031500Y-9407169D01*
X9105870Y-9586713D01*
X9107657Y-9588500D01*
X8699500Y-9588500D01*
X8699500Y-7692856D01*
X8721492Y-7714848D01*
X8721492Y-7714848D01*
G37*
X8721492Y-7714848D02*
X8738979Y-7741019D01*
X8842678Y-7810309D01*
X8934126Y-7828499D01*
X8934131Y-7828499D01*
X8964999Y-7834639D01*
X8995867Y-7828499D01*
X12370146Y-7828499D01*
X12381501Y-7839854D01*
X12381501Y-7978714D01*
X12366500Y-8054130D01*
X12366500Y-8054134D01*
X12360360Y-8085002D01*
X12366500Y-8115871D01*
X12366501Y-8519127D01*
X12360360Y-8550000D01*
X12384691Y-8672321D01*
X12436492Y-8749847D01*
X12436494Y-8749849D01*
X12453981Y-8776020D01*
X12456500Y-8777703D01*
X12456500Y-8882196D01*
X12527063Y-9052552D01*
X12657448Y-9182937D01*
X12717938Y-9207992D01*
X12655027Y-9250027D01*
X12596789Y-9337188D01*
X12576338Y-9440000D01*
X12576338Y-9554053D01*
X12566500Y-9577804D01*
X12566500Y-9588500D01*
X12155729Y-9588500D01*
X12166211Y-9572812D01*
X12186662Y-9470000D01*
X12186662Y-8270000D01*
X12166211Y-8167188D01*
X12107973Y-8080027D01*
X12020812Y-8021789D01*
X11918000Y-8001338D01*
X11776827Y-8001338D01*
X11762552Y-7987063D01*
X11592196Y-7916500D01*
X11407804Y-7916500D01*
X11237448Y-7987063D01*
X11177621Y-8046890D01*
X11143000Y-8070023D01*
X11070812Y-8021789D01*
X10968000Y-8001338D01*
X10368000Y-8001338D01*
X10265188Y-8021789D01*
X10193000Y-8070023D01*
X10120812Y-8021789D01*
X10018000Y-8001338D01*
X9832181Y-8001338D01*
X9786713Y-7955870D01*
X9607169Y-7881500D01*
X9412831Y-7881500D01*
X9233287Y-7955870D01*
X9095870Y-8093287D01*
X9021500Y-8272831D01*
X9021500Y-8467169D01*
X9076521Y-8600000D01*
X9021500Y-8732831D01*
X9021500Y-8927169D01*
X9085663Y-9082071D01*
X9031500Y-9212831D01*
X9031500Y-9407169D01*
X9105870Y-9586713D01*
X9107657Y-9588500D01*
X8699500Y-9588500D01*
X8699500Y-7692856D01*
X8721492Y-7714848D01*
G36*
X12924503Y-4273500D02*
X13676592Y-4273500D01*
X13881204Y-4478113D01*
X13881203Y-6589210D01*
X13870165Y-6644703D01*
X13881203Y-6700196D01*
X13881203Y-6700199D01*
X13913898Y-6864569D01*
X14038443Y-7050963D01*
X14085493Y-7082401D01*
X14414500Y-7411408D01*
X14414500Y-8431338D01*
X14400000Y-8431338D01*
X14300000Y-8451230D01*
X14200000Y-8431338D01*
X13850000Y-8431338D01*
X13747188Y-8451789D01*
X13660027Y-8510027D01*
X13633868Y-8549178D01*
X13552321Y-8494690D01*
X13460873Y-8476500D01*
X13460868Y-8476500D01*
X13430000Y-8470360D01*
X13399132Y-8476500D01*
X13261989Y-8476500D01*
X13182552Y-8397063D01*
X13012196Y-8326500D01*
X12993500Y-8326500D01*
X12993500Y-8176290D01*
X13008501Y-8100874D01*
X13008501Y-8100869D01*
X13014641Y-8070001D01*
X13008501Y-8039133D01*
X13008501Y-7740867D01*
X13014641Y-7709999D01*
X13008501Y-7679131D01*
X13008501Y-7679126D01*
X12990311Y-7587678D01*
X12921021Y-7483979D01*
X12894847Y-7466490D01*
X12743510Y-7315153D01*
X12726021Y-7288979D01*
X12622322Y-7219689D01*
X12531073Y-7201539D01*
X12672552Y-7142937D01*
X12802937Y-7012552D01*
X12873500Y-6842196D01*
X12873500Y-6657804D01*
X12802937Y-6487448D01*
X12725257Y-6409768D01*
X12723500Y-6400933D01*
X12723500Y-6400929D01*
X12705310Y-6309481D01*
X12693500Y-6291806D01*
X12693500Y-4975869D01*
X12699640Y-4945001D01*
X12693500Y-4914133D01*
X12693500Y-4914129D01*
X12681106Y-4851820D01*
X12702552Y-4842937D01*
X12832937Y-4712552D01*
X12903500Y-4542196D01*
X12903500Y-4357804D01*
X12863559Y-4261378D01*
X12924503Y-4273500D01*
X12924503Y-4273500D01*
G37*
X12924503Y-4273500D02*
X13676592Y-4273500D01*
X13881204Y-4478113D01*
X13881203Y-6589210D01*
X13870165Y-6644703D01*
X13881203Y-6700196D01*
X13881203Y-6700199D01*
X13913898Y-6864569D01*
X14038443Y-7050963D01*
X14085493Y-7082401D01*
X14414500Y-7411408D01*
X14414500Y-8431338D01*
X14400000Y-8431338D01*
X14300000Y-8451230D01*
X14200000Y-8431338D01*
X13850000Y-8431338D01*
X13747188Y-8451789D01*
X13660027Y-8510027D01*
X13633868Y-8549178D01*
X13552321Y-8494690D01*
X13460873Y-8476500D01*
X13460868Y-8476500D01*
X13430000Y-8470360D01*
X13399132Y-8476500D01*
X13261989Y-8476500D01*
X13182552Y-8397063D01*
X13012196Y-8326500D01*
X12993500Y-8326500D01*
X12993500Y-8176290D01*
X13008501Y-8100874D01*
X13008501Y-8100869D01*
X13014641Y-8070001D01*
X13008501Y-8039133D01*
X13008501Y-7740867D01*
X13014641Y-7709999D01*
X13008501Y-7679131D01*
X13008501Y-7679126D01*
X12990311Y-7587678D01*
X12921021Y-7483979D01*
X12894847Y-7466490D01*
X12743510Y-7315153D01*
X12726021Y-7288979D01*
X12622322Y-7219689D01*
X12531073Y-7201539D01*
X12672552Y-7142937D01*
X12802937Y-7012552D01*
X12873500Y-6842196D01*
X12873500Y-6657804D01*
X12802937Y-6487448D01*
X12725257Y-6409768D01*
X12723500Y-6400933D01*
X12723500Y-6400929D01*
X12705310Y-6309481D01*
X12693500Y-6291806D01*
X12693500Y-4975869D01*
X12699640Y-4945001D01*
X12693500Y-4914133D01*
X12693500Y-4914129D01*
X12681106Y-4851820D01*
X12702552Y-4842937D01*
X12832937Y-4712552D01*
X12903500Y-4542196D01*
X12903500Y-4357804D01*
X12863559Y-4261378D01*
X12924503Y-4273500D01*
G36*
X1170027Y-5184973D02*
X1257188Y-5243211D01*
X1360000Y-5263662D01*
X1966338Y-5263662D01*
X1966338Y-5870000D01*
X1986789Y-5972812D01*
X2045027Y-6059973D01*
X2132188Y-6118211D01*
X2235000Y-6138662D01*
X2485000Y-6138662D01*
X2587812Y-6118211D01*
X2610000Y-6103386D01*
X2632188Y-6118211D01*
X2735000Y-6138662D01*
X2985000Y-6138662D01*
X3082673Y-6119233D01*
X3126501Y-6184826D01*
X3126501Y-6298010D01*
X3047063Y-6377448D01*
X2976500Y-6547804D01*
X2976500Y-6732196D01*
X3047063Y-6902552D01*
X3081011Y-6936500D01*
X2739866Y-6936500D01*
X2708998Y-6930360D01*
X2678130Y-6936500D01*
X2678125Y-6936500D01*
X2586677Y-6954690D01*
X2482978Y-7023980D01*
X2465491Y-7050151D01*
X2213143Y-7302500D01*
X338500Y-7302500D01*
X338500Y-6158998D01*
X397188Y-6198211D01*
X500000Y-6218662D01*
X900000Y-6218662D01*
X983664Y-6202020D01*
X1061500Y-6279856D01*
X1061500Y-6392196D01*
X1132063Y-6562552D01*
X1262448Y-6692937D01*
X1432804Y-6763500D01*
X1617196Y-6763500D01*
X1787552Y-6692937D01*
X1917937Y-6562552D01*
X1988500Y-6392196D01*
X1988500Y-6207804D01*
X1917937Y-6037448D01*
X1787552Y-5907063D01*
X1617196Y-5836500D01*
X1504856Y-5836500D01*
X1243509Y-5575154D01*
X1226020Y-5548980D01*
X1149233Y-5497672D01*
X1168662Y-5400000D01*
X1168662Y-5182930D01*
X1170027Y-5184973D01*
X1170027Y-5184973D01*
G37*
X1170027Y-5184973D02*
X1257188Y-5243211D01*
X1360000Y-5263662D01*
X1966338Y-5263662D01*
X1966338Y-5870000D01*
X1986789Y-5972812D01*
X2045027Y-6059973D01*
X2132188Y-6118211D01*
X2235000Y-6138662D01*
X2485000Y-6138662D01*
X2587812Y-6118211D01*
X2610000Y-6103386D01*
X2632188Y-6118211D01*
X2735000Y-6138662D01*
X2985000Y-6138662D01*
X3082673Y-6119233D01*
X3126501Y-6184826D01*
X3126501Y-6298010D01*
X3047063Y-6377448D01*
X2976500Y-6547804D01*
X2976500Y-6732196D01*
X3047063Y-6902552D01*
X3081011Y-6936500D01*
X2739866Y-6936500D01*
X2708998Y-6930360D01*
X2678130Y-6936500D01*
X2678125Y-6936500D01*
X2586677Y-6954690D01*
X2482978Y-7023980D01*
X2465491Y-7050151D01*
X2213143Y-7302500D01*
X338500Y-7302500D01*
X338500Y-6158998D01*
X397188Y-6198211D01*
X500000Y-6218662D01*
X900000Y-6218662D01*
X983664Y-6202020D01*
X1061500Y-6279856D01*
X1061500Y-6392196D01*
X1132063Y-6562552D01*
X1262448Y-6692937D01*
X1432804Y-6763500D01*
X1617196Y-6763500D01*
X1787552Y-6692937D01*
X1917937Y-6562552D01*
X1988500Y-6392196D01*
X1988500Y-6207804D01*
X1917937Y-6037448D01*
X1787552Y-5907063D01*
X1617196Y-5836500D01*
X1504856Y-5836500D01*
X1243509Y-5575154D01*
X1226020Y-5548980D01*
X1149233Y-5497672D01*
X1168662Y-5400000D01*
X1168662Y-5182930D01*
X1170027Y-5184973D01*
G36*
X14414500Y-2116500D02*
X13654374Y-2116500D01*
X13654374Y-1962804D01*
X13583811Y-1792448D01*
X13453426Y-1662063D01*
X13283070Y-1591500D01*
X13098678Y-1591500D01*
X12928322Y-1662063D01*
X12848885Y-1741500D01*
X12700867Y-1741500D01*
X12669999Y-1735360D01*
X12639131Y-1741500D01*
X12639127Y-1741500D01*
X12547679Y-1759690D01*
X12547677Y-1759691D01*
X12547678Y-1759691D01*
X12498654Y-1792448D01*
X12443980Y-1828980D01*
X12426493Y-1855151D01*
X12000152Y-2281493D01*
X11973981Y-2298980D01*
X11956493Y-2325152D01*
X11956492Y-2325153D01*
X11953254Y-2329999D01*
X11925791Y-2371099D01*
X11897188Y-2376789D01*
X11810027Y-2435027D01*
X11773805Y-2489238D01*
X11767194Y-2486500D01*
X11582802Y-2486500D01*
X11412446Y-2557063D01*
X11282061Y-2687448D01*
X11211498Y-2857804D01*
X11211498Y-3042196D01*
X11282061Y-3212552D01*
X11361499Y-3291990D01*
X11361498Y-3824130D01*
X11355358Y-3854998D01*
X11361498Y-3885866D01*
X11361498Y-3885870D01*
X11379688Y-3977318D01*
X11385823Y-3986500D01*
X11347804Y-3986500D01*
X11339067Y-3990119D01*
X11320873Y-3986500D01*
X11320868Y-3986500D01*
X11290000Y-3980360D01*
X11259132Y-3986500D01*
X11191070Y-3986500D01*
X11139973Y-3910027D01*
X11052812Y-3851789D01*
X10950000Y-3831338D01*
X10600000Y-3831338D01*
X10500000Y-3851230D01*
X10400000Y-3831338D01*
X10050000Y-3831338D01*
X9947188Y-3851789D01*
X9860027Y-3910027D01*
X9801789Y-3997188D01*
X9781338Y-4100000D01*
X9781338Y-4159910D01*
X9761500Y-4207804D01*
X9761500Y-4392196D01*
X9781338Y-4440090D01*
X9781338Y-4500000D01*
X9801789Y-4602812D01*
X9860027Y-4689973D01*
X9947188Y-4748211D01*
X10050000Y-4768662D01*
X10400000Y-4768662D01*
X10500000Y-4748770D01*
X10600000Y-4768662D01*
X10620849Y-4768662D01*
X10601789Y-4797188D01*
X10581338Y-4900000D01*
X10581338Y-4959910D01*
X10561500Y-5007804D01*
X10561500Y-5192196D01*
X10581338Y-5240090D01*
X10581338Y-5300000D01*
X10601789Y-5402812D01*
X10660027Y-5489973D01*
X10747188Y-5548211D01*
X10850000Y-5568662D01*
X11145036Y-5568662D01*
X11128027Y-5580027D01*
X11069789Y-5667188D01*
X11049338Y-5770000D01*
X11049338Y-6970000D01*
X11069789Y-7072812D01*
X11128027Y-7159973D01*
X11190176Y-7201499D01*
X9094855Y-7201499D01*
X8813509Y-6920154D01*
X8796020Y-6893980D01*
X8692321Y-6824690D01*
X8600873Y-6806500D01*
X8600868Y-6806500D01*
X8570000Y-6800360D01*
X8539132Y-6806500D01*
X6139856Y-6806500D01*
X5472017Y-6138662D01*
X5485000Y-6138662D01*
X5587812Y-6118211D01*
X5610000Y-6103386D01*
X5632188Y-6118211D01*
X5735000Y-6138662D01*
X5920306Y-6138662D01*
X5981493Y-6199849D01*
X5998980Y-6226020D01*
X6025151Y-6243507D01*
X6025152Y-6243508D01*
X6057781Y-6265310D01*
X6063929Y-6269418D01*
X6187448Y-6392937D01*
X6357804Y-6463500D01*
X6542196Y-6463500D01*
X6712552Y-6392937D01*
X6791989Y-6313500D01*
X6989132Y-6313500D01*
X7020000Y-6319640D01*
X7050868Y-6313500D01*
X7050873Y-6313500D01*
X7142321Y-6295310D01*
X7246020Y-6226020D01*
X7263509Y-6199846D01*
X7589849Y-5873507D01*
X7616020Y-5856020D01*
X7685310Y-5752321D01*
X7703500Y-5660873D01*
X7703500Y-5660869D01*
X7709640Y-5630001D01*
X7703500Y-5599133D01*
X7703500Y-5549855D01*
X8267833Y-4985523D01*
X8407804Y-5043500D01*
X8592196Y-5043500D01*
X8762552Y-4972937D01*
X8841989Y-4893500D01*
X8867425Y-4893500D01*
X8861500Y-4907804D01*
X8861500Y-5092196D01*
X8881338Y-5140090D01*
X8881338Y-5200000D01*
X8901789Y-5302812D01*
X8960027Y-5389973D01*
X9047188Y-5448211D01*
X9150000Y-5468662D01*
X9500000Y-5468662D01*
X9602812Y-5448211D01*
X9689973Y-5389973D01*
X9748211Y-5302812D01*
X9768662Y-5200000D01*
X9768662Y-5140090D01*
X9788500Y-5092196D01*
X9788500Y-4907804D01*
X9768662Y-4859910D01*
X9768662Y-4800000D01*
X9748211Y-4697188D01*
X9689973Y-4610027D01*
X9602812Y-4551789D01*
X9500000Y-4531338D01*
X9482018Y-4531338D01*
X9489848Y-4523507D01*
X9516020Y-4506020D01*
X9538400Y-4472527D01*
X9571946Y-4422321D01*
X9585310Y-4402321D01*
X9603500Y-4310873D01*
X9603500Y-4310869D01*
X9609640Y-4280001D01*
X9603500Y-4249133D01*
X9603500Y-3495867D01*
X9609640Y-3464999D01*
X9603500Y-3434131D01*
X9603500Y-3434127D01*
X9585310Y-3342679D01*
X9516020Y-3238980D01*
X9489849Y-3221493D01*
X9437018Y-3168662D01*
X9550000Y-3168662D01*
X9652812Y-3148211D01*
X9739973Y-3089973D01*
X9798211Y-3002812D01*
X9818662Y-2900000D01*
X9818662Y-2845241D01*
X9838690Y-2796889D01*
X9838690Y-2638499D01*
X10354133Y-2638499D01*
X10385001Y-2644639D01*
X10415869Y-2638499D01*
X10415874Y-2638499D01*
X10507322Y-2620309D01*
X10611021Y-2551019D01*
X10628510Y-2524845D01*
X11124849Y-2028507D01*
X11151020Y-2011020D01*
X11181187Y-1965873D01*
X11207495Y-1926500D01*
X11220310Y-1907321D01*
X11228879Y-1864240D01*
X11347804Y-1913500D01*
X11532196Y-1913500D01*
X11702552Y-1842937D01*
X11832937Y-1712552D01*
X11846068Y-1680852D01*
X11898211Y-1602812D01*
X11918662Y-1500000D01*
X11918662Y-1100000D01*
X11898211Y-997188D01*
X11839973Y-910027D01*
X11752812Y-851789D01*
X11650000Y-831338D01*
X11300000Y-831338D01*
X11200000Y-851230D01*
X11100000Y-831338D01*
X10750000Y-831338D01*
X10647188Y-851789D01*
X10560027Y-910027D01*
X10501789Y-997188D01*
X10481338Y-1100000D01*
X10481338Y-1225405D01*
X10426497Y-1357804D01*
X10426497Y-1542196D01*
X10497060Y-1712552D01*
X10525576Y-1741068D01*
X10255146Y-2011499D01*
X9707756Y-2011499D01*
X9739973Y-1989973D01*
X9798211Y-1902812D01*
X9818662Y-1800000D01*
X9818662Y-1740090D01*
X9838500Y-1692196D01*
X9838500Y-1507804D01*
X9818662Y-1459910D01*
X9818662Y-1400000D01*
X9798211Y-1297188D01*
X9739973Y-1210027D01*
X9652812Y-1151789D01*
X9550000Y-1131338D01*
X9200000Y-1131338D01*
X9100000Y-1151230D01*
X9000000Y-1131338D01*
X8650000Y-1131338D01*
X8547188Y-1151789D01*
X8474028Y-1200672D01*
X7883500Y-610145D01*
X7883500Y-497804D01*
X7817515Y-338500D01*
X14414500Y-338500D01*
X14414500Y-2116500D01*
X14414500Y-2116500D01*
G37*
X14414500Y-2116500D02*
X13654374Y-2116500D01*
X13654374Y-1962804D01*
X13583811Y-1792448D01*
X13453426Y-1662063D01*
X13283070Y-1591500D01*
X13098678Y-1591500D01*
X12928322Y-1662063D01*
X12848885Y-1741500D01*
X12700867Y-1741500D01*
X12669999Y-1735360D01*
X12639131Y-1741500D01*
X12639127Y-1741500D01*
X12547679Y-1759690D01*
X12547677Y-1759691D01*
X12547678Y-1759691D01*
X12498654Y-1792448D01*
X12443980Y-1828980D01*
X12426493Y-1855151D01*
X12000152Y-2281493D01*
X11973981Y-2298980D01*
X11956493Y-2325152D01*
X11956492Y-2325153D01*
X11953254Y-2329999D01*
X11925791Y-2371099D01*
X11897188Y-2376789D01*
X11810027Y-2435027D01*
X11773805Y-2489238D01*
X11767194Y-2486500D01*
X11582802Y-2486500D01*
X11412446Y-2557063D01*
X11282061Y-2687448D01*
X11211498Y-2857804D01*
X11211498Y-3042196D01*
X11282061Y-3212552D01*
X11361499Y-3291990D01*
X11361498Y-3824130D01*
X11355358Y-3854998D01*
X11361498Y-3885866D01*
X11361498Y-3885870D01*
X11379688Y-3977318D01*
X11385823Y-3986500D01*
X11347804Y-3986500D01*
X11339067Y-3990119D01*
X11320873Y-3986500D01*
X11320868Y-3986500D01*
X11290000Y-3980360D01*
X11259132Y-3986500D01*
X11191070Y-3986500D01*
X11139973Y-3910027D01*
X11052812Y-3851789D01*
X10950000Y-3831338D01*
X10600000Y-3831338D01*
X10500000Y-3851230D01*
X10400000Y-3831338D01*
X10050000Y-3831338D01*
X9947188Y-3851789D01*
X9860027Y-3910027D01*
X9801789Y-3997188D01*
X9781338Y-4100000D01*
X9781338Y-4159910D01*
X9761500Y-4207804D01*
X9761500Y-4392196D01*
X9781338Y-4440090D01*
X9781338Y-4500000D01*
X9801789Y-4602812D01*
X9860027Y-4689973D01*
X9947188Y-4748211D01*
X10050000Y-4768662D01*
X10400000Y-4768662D01*
X10500000Y-4748770D01*
X10600000Y-4768662D01*
X10620849Y-4768662D01*
X10601789Y-4797188D01*
X10581338Y-4900000D01*
X10581338Y-4959910D01*
X10561500Y-5007804D01*
X10561500Y-5192196D01*
X10581338Y-5240090D01*
X10581338Y-5300000D01*
X10601789Y-5402812D01*
X10660027Y-5489973D01*
X10747188Y-5548211D01*
X10850000Y-5568662D01*
X11145036Y-5568662D01*
X11128027Y-5580027D01*
X11069789Y-5667188D01*
X11049338Y-5770000D01*
X11049338Y-6970000D01*
X11069789Y-7072812D01*
X11128027Y-7159973D01*
X11190176Y-7201499D01*
X9094855Y-7201499D01*
X8813509Y-6920154D01*
X8796020Y-6893980D01*
X8692321Y-6824690D01*
X8600873Y-6806500D01*
X8600868Y-6806500D01*
X8570000Y-6800360D01*
X8539132Y-6806500D01*
X6139856Y-6806500D01*
X5472017Y-6138662D01*
X5485000Y-6138662D01*
X5587812Y-6118211D01*
X5610000Y-6103386D01*
X5632188Y-6118211D01*
X5735000Y-6138662D01*
X5920306Y-6138662D01*
X5981493Y-6199849D01*
X5998980Y-6226020D01*
X6025151Y-6243507D01*
X6025152Y-6243508D01*
X6057781Y-6265310D01*
X6063929Y-6269418D01*
X6187448Y-6392937D01*
X6357804Y-6463500D01*
X6542196Y-6463500D01*
X6712552Y-6392937D01*
X6791989Y-6313500D01*
X6989132Y-6313500D01*
X7020000Y-6319640D01*
X7050868Y-6313500D01*
X7050873Y-6313500D01*
X7142321Y-6295310D01*
X7246020Y-6226020D01*
X7263509Y-6199846D01*
X7589849Y-5873507D01*
X7616020Y-5856020D01*
X7685310Y-5752321D01*
X7703500Y-5660873D01*
X7703500Y-5660869D01*
X7709640Y-5630001D01*
X7703500Y-5599133D01*
X7703500Y-5549855D01*
X8267833Y-4985523D01*
X8407804Y-5043500D01*
X8592196Y-5043500D01*
X8762552Y-4972937D01*
X8841989Y-4893500D01*
X8867425Y-4893500D01*
X8861500Y-4907804D01*
X8861500Y-5092196D01*
X8881338Y-5140090D01*
X8881338Y-5200000D01*
X8901789Y-5302812D01*
X8960027Y-5389973D01*
X9047188Y-5448211D01*
X9150000Y-5468662D01*
X9500000Y-5468662D01*
X9602812Y-5448211D01*
X9689973Y-5389973D01*
X9748211Y-5302812D01*
X9768662Y-5200000D01*
X9768662Y-5140090D01*
X9788500Y-5092196D01*
X9788500Y-4907804D01*
X9768662Y-4859910D01*
X9768662Y-4800000D01*
X9748211Y-4697188D01*
X9689973Y-4610027D01*
X9602812Y-4551789D01*
X9500000Y-4531338D01*
X9482018Y-4531338D01*
X9489848Y-4523507D01*
X9516020Y-4506020D01*
X9538400Y-4472527D01*
X9571946Y-4422321D01*
X9585310Y-4402321D01*
X9603500Y-4310873D01*
X9603500Y-4310869D01*
X9609640Y-4280001D01*
X9603500Y-4249133D01*
X9603500Y-3495867D01*
X9609640Y-3464999D01*
X9603500Y-3434131D01*
X9603500Y-3434127D01*
X9585310Y-3342679D01*
X9516020Y-3238980D01*
X9489849Y-3221493D01*
X9437018Y-3168662D01*
X9550000Y-3168662D01*
X9652812Y-3148211D01*
X9739973Y-3089973D01*
X9798211Y-3002812D01*
X9818662Y-2900000D01*
X9818662Y-2845241D01*
X9838690Y-2796889D01*
X9838690Y-2638499D01*
X10354133Y-2638499D01*
X10385001Y-2644639D01*
X10415869Y-2638499D01*
X10415874Y-2638499D01*
X10507322Y-2620309D01*
X10611021Y-2551019D01*
X10628510Y-2524845D01*
X11124849Y-2028507D01*
X11151020Y-2011020D01*
X11181187Y-1965873D01*
X11207495Y-1926500D01*
X11220310Y-1907321D01*
X11228879Y-1864240D01*
X11347804Y-1913500D01*
X11532196Y-1913500D01*
X11702552Y-1842937D01*
X11832937Y-1712552D01*
X11846068Y-1680852D01*
X11898211Y-1602812D01*
X11918662Y-1500000D01*
X11918662Y-1100000D01*
X11898211Y-997188D01*
X11839973Y-910027D01*
X11752812Y-851789D01*
X11650000Y-831338D01*
X11300000Y-831338D01*
X11200000Y-851230D01*
X11100000Y-831338D01*
X10750000Y-831338D01*
X10647188Y-851789D01*
X10560027Y-910027D01*
X10501789Y-997188D01*
X10481338Y-1100000D01*
X10481338Y-1225405D01*
X10426497Y-1357804D01*
X10426497Y-1542196D01*
X10497060Y-1712552D01*
X10525576Y-1741068D01*
X10255146Y-2011499D01*
X9707756Y-2011499D01*
X9739973Y-1989973D01*
X9798211Y-1902812D01*
X9818662Y-1800000D01*
X9818662Y-1740090D01*
X9838500Y-1692196D01*
X9838500Y-1507804D01*
X9818662Y-1459910D01*
X9818662Y-1400000D01*
X9798211Y-1297188D01*
X9739973Y-1210027D01*
X9652812Y-1151789D01*
X9550000Y-1131338D01*
X9200000Y-1131338D01*
X9100000Y-1151230D01*
X9000000Y-1131338D01*
X8650000Y-1131338D01*
X8547188Y-1151789D01*
X8474028Y-1200672D01*
X7883500Y-610145D01*
X7883500Y-497804D01*
X7817515Y-338500D01*
X14414500Y-338500D01*
X14414500Y-2116500D01*
G36*
X3860499Y-6171292D02*
X3864680Y-6192311D01*
X3891170Y-6231955D01*
X3911615Y-6262552D01*
X3933971Y-6296010D01*
X3960142Y-6313497D01*
X4026500Y-6379855D01*
X4026501Y-6640143D01*
X3881617Y-6785028D01*
X3903500Y-6732196D01*
X3903500Y-6547804D01*
X3832937Y-6377448D01*
X3753500Y-6298011D01*
X3753500Y-6138662D01*
X3827869Y-6138662D01*
X3860499Y-6171292D01*
X3860499Y-6171292D01*
G37*
X3860499Y-6171292D02*
X3864680Y-6192311D01*
X3891170Y-6231955D01*
X3911615Y-6262552D01*
X3933971Y-6296010D01*
X3960142Y-6313497D01*
X4026500Y-6379855D01*
X4026501Y-6640143D01*
X3881617Y-6785028D01*
X3903500Y-6732196D01*
X3903500Y-6547804D01*
X3832937Y-6377448D01*
X3753500Y-6298011D01*
X3753500Y-6138662D01*
X3827869Y-6138662D01*
X3860499Y-6171292D01*
G36*
X6968102Y-4755871D02*
X6968102Y-4940263D01*
X7038665Y-5110619D01*
X7147176Y-5219130D01*
X7146493Y-5220152D01*
X7146492Y-5220153D01*
X7133023Y-5240311D01*
X7094690Y-5297679D01*
X7076500Y-5389127D01*
X7076500Y-5389132D01*
X7070360Y-5420000D01*
X7076500Y-5450868D01*
X7076500Y-5500144D01*
X6890145Y-5686500D01*
X6791989Y-5686500D01*
X6712552Y-5607063D01*
X6542196Y-5536500D01*
X6357804Y-5536500D01*
X6253662Y-5579637D01*
X6253662Y-5170000D01*
X6233211Y-5067188D01*
X6174973Y-4980027D01*
X6088320Y-4922128D01*
X6103662Y-4845000D01*
X6103662Y-4752455D01*
X6160000Y-4763662D01*
X6249198Y-4763662D01*
X6417804Y-4833500D01*
X6602196Y-4833500D01*
X6770802Y-4763662D01*
X6860000Y-4763662D01*
X6962812Y-4743211D01*
X6977377Y-4733479D01*
X6968102Y-4755871D01*
X6968102Y-4755871D01*
G37*
X6968102Y-4755871D02*
X6968102Y-4940263D01*
X7038665Y-5110619D01*
X7147176Y-5219130D01*
X7146493Y-5220152D01*
X7146492Y-5220153D01*
X7133023Y-5240311D01*
X7094690Y-5297679D01*
X7076500Y-5389127D01*
X7076500Y-5389132D01*
X7070360Y-5420000D01*
X7076500Y-5450868D01*
X7076500Y-5500144D01*
X6890145Y-5686500D01*
X6791989Y-5686500D01*
X6712552Y-5607063D01*
X6542196Y-5536500D01*
X6357804Y-5536500D01*
X6253662Y-5579637D01*
X6253662Y-5170000D01*
X6233211Y-5067188D01*
X6174973Y-4980027D01*
X6088320Y-4922128D01*
X6103662Y-4845000D01*
X6103662Y-4752455D01*
X6160000Y-4763662D01*
X6249198Y-4763662D01*
X6417804Y-4833500D01*
X6602196Y-4833500D01*
X6770802Y-4763662D01*
X6860000Y-4763662D01*
X6962812Y-4743211D01*
X6977377Y-4733479D01*
X6968102Y-4755871D01*
G36*
X7311501Y-3980867D02*
X7311501Y-4180146D01*
X7231754Y-4259893D01*
X7205583Y-4277380D01*
X7136292Y-4381079D01*
X7128662Y-4419438D01*
X7128662Y-4245000D01*
X7109233Y-4147328D01*
X7186020Y-4096020D01*
X7203509Y-4069846D01*
X7308347Y-3965009D01*
X7311501Y-3980867D01*
X7311501Y-3980867D01*
G37*
X7311501Y-3980867D02*
X7311501Y-4180146D01*
X7231754Y-4259893D01*
X7205583Y-4277380D01*
X7136292Y-4381079D01*
X7128662Y-4419438D01*
X7128662Y-4245000D01*
X7109233Y-4147328D01*
X7186020Y-4096020D01*
X7203509Y-4069846D01*
X7308347Y-3965009D01*
X7311501Y-3980867D01*
G36*
X1966338Y-370000D02*
X1966338Y-1070000D01*
X1986789Y-1172812D01*
X2045027Y-1259973D01*
X2131680Y-1317872D01*
X2117769Y-1387805D01*
X2042196Y-1356502D01*
X1857804Y-1356502D01*
X1687448Y-1427065D01*
X1638175Y-1476338D01*
X1360000Y-1476338D01*
X1257188Y-1496789D01*
X1170027Y-1555027D01*
X1111789Y-1642188D01*
X1091338Y-1745000D01*
X1091338Y-1995000D01*
X1098397Y-2030490D01*
X992196Y-1986500D01*
X807804Y-1986500D01*
X637448Y-2057063D01*
X507063Y-2187448D01*
X436500Y-2357804D01*
X436500Y-2542196D01*
X507063Y-2712552D01*
X637448Y-2842937D01*
X807804Y-2913500D01*
X992196Y-2913500D01*
X1091338Y-2872434D01*
X1091338Y-2995000D01*
X1111789Y-3097812D01*
X1170027Y-3184973D01*
X1257188Y-3243211D01*
X1360000Y-3263662D01*
X2060000Y-3263662D01*
X2116338Y-3252455D01*
X2116338Y-3487545D01*
X2060000Y-3476338D01*
X1360000Y-3476338D01*
X1257188Y-3496789D01*
X1170027Y-3555027D01*
X1132294Y-3611500D01*
X1124365Y-3611500D01*
X1089973Y-3560027D01*
X1002812Y-3501789D01*
X900000Y-3481338D01*
X500000Y-3481338D01*
X397188Y-3501789D01*
X338500Y-3541002D01*
X338500Y-1277800D01*
X448721Y-1255876D01*
X570743Y-1205333D01*
X570744Y-1205332D01*
X895167Y-988560D01*
X988560Y-895167D01*
X1205332Y-570744D01*
X1220136Y-535004D01*
X1255876Y-448721D01*
X1277800Y-338500D01*
X1972604Y-338500D01*
X1966338Y-370000D01*
X1966338Y-370000D01*
G37*
X1966338Y-370000D02*
X1966338Y-1070000D01*
X1986789Y-1172812D01*
X2045027Y-1259973D01*
X2131680Y-1317872D01*
X2117769Y-1387805D01*
X2042196Y-1356502D01*
X1857804Y-1356502D01*
X1687448Y-1427065D01*
X1638175Y-1476338D01*
X1360000Y-1476338D01*
X1257188Y-1496789D01*
X1170027Y-1555027D01*
X1111789Y-1642188D01*
X1091338Y-1745000D01*
X1091338Y-1995000D01*
X1098397Y-2030490D01*
X992196Y-1986500D01*
X807804Y-1986500D01*
X637448Y-2057063D01*
X507063Y-2187448D01*
X436500Y-2357804D01*
X436500Y-2542196D01*
X507063Y-2712552D01*
X637448Y-2842937D01*
X807804Y-2913500D01*
X992196Y-2913500D01*
X1091338Y-2872434D01*
X1091338Y-2995000D01*
X1111789Y-3097812D01*
X1170027Y-3184973D01*
X1257188Y-3243211D01*
X1360000Y-3263662D01*
X2060000Y-3263662D01*
X2116338Y-3252455D01*
X2116338Y-3487545D01*
X2060000Y-3476338D01*
X1360000Y-3476338D01*
X1257188Y-3496789D01*
X1170027Y-3555027D01*
X1132294Y-3611500D01*
X1124365Y-3611500D01*
X1089973Y-3560027D01*
X1002812Y-3501789D01*
X900000Y-3481338D01*
X500000Y-3481338D01*
X397188Y-3501789D01*
X338500Y-3541002D01*
X338500Y-1277800D01*
X448721Y-1255876D01*
X570743Y-1205333D01*
X570744Y-1205332D01*
X895167Y-988560D01*
X988560Y-895167D01*
X1205332Y-570744D01*
X1220136Y-535004D01*
X1255876Y-448721D01*
X1277800Y-338500D01*
X1972604Y-338500D01*
X1966338Y-370000D01*
G04 #@! TO.N,GND*
G36*
X7176338Y-7515000D02*
X7176338Y-8365000D01*
X7196789Y-8467812D01*
X7255027Y-8554973D01*
X7342188Y-8613211D01*
X7445000Y-8633662D01*
X7513285Y-8633662D01*
X7393620Y-8713620D01*
X7241448Y-8941361D01*
X7188012Y-9210000D01*
X7241448Y-9478639D01*
X7393620Y-9706380D01*
X7621361Y-9858552D01*
X7822192Y-9898500D01*
X7957808Y-9898500D01*
X8158639Y-9858552D01*
X8386380Y-9706380D01*
X8536500Y-9481710D01*
X8536500Y-9700000D01*
X8541334Y-9724300D01*
X8555099Y-9744901D01*
X8575700Y-9758666D01*
X8600000Y-9763500D01*
X9338334Y-9763500D01*
X9422831Y-9798500D01*
X9617169Y-9798500D01*
X9701666Y-9763500D01*
X12026338Y-9763500D01*
X12026338Y-9840000D01*
X12046789Y-9942812D01*
X12105027Y-10029973D01*
X12192188Y-10088211D01*
X12295000Y-10108662D01*
X12645000Y-10108662D01*
X12747812Y-10088211D01*
X12834973Y-10029973D01*
X12893211Y-9942812D01*
X12913662Y-9840000D01*
X12913662Y-9763500D01*
X14500000Y-9763500D01*
X14524300Y-9758666D01*
X14544901Y-9744901D01*
X14558666Y-9724300D01*
X14563500Y-9700000D01*
X14563500Y-7560409D01*
X15256500Y-8253410D01*
X15256500Y-8764507D01*
X15245462Y-8820000D01*
X15256500Y-8875493D01*
X15256500Y-8875496D01*
X15289195Y-9039866D01*
X15413740Y-9226260D01*
X15460790Y-9257698D01*
X15640917Y-9437825D01*
X15618604Y-9550000D01*
X15689502Y-9906430D01*
X15859935Y-10161500D01*
X4610928Y-10161500D01*
X4692321Y-10145310D01*
X4796020Y-10076020D01*
X4813509Y-10049846D01*
X4919846Y-9943509D01*
X4946020Y-9926020D01*
X4965420Y-9896986D01*
X5158639Y-9858552D01*
X5386380Y-9706380D01*
X5390000Y-9700962D01*
X5393620Y-9706380D01*
X5621361Y-9858552D01*
X5822192Y-9898500D01*
X5957808Y-9898500D01*
X6158639Y-9858552D01*
X6386380Y-9706380D01*
X6538552Y-9478639D01*
X6591988Y-9210000D01*
X6538552Y-8941361D01*
X6386380Y-8713620D01*
X6168921Y-8568318D01*
X6366380Y-8436380D01*
X6518552Y-8208639D01*
X6571988Y-7940000D01*
X6518552Y-7671361D01*
X6379663Y-7463500D01*
X7186582Y-7463500D01*
X7176338Y-7515000D01*
X7176338Y-7515000D01*
G37*
X7176338Y-7515000D02*
X7176338Y-8365000D01*
X7196789Y-8467812D01*
X7255027Y-8554973D01*
X7342188Y-8613211D01*
X7445000Y-8633662D01*
X7513285Y-8633662D01*
X7393620Y-8713620D01*
X7241448Y-8941361D01*
X7188012Y-9210000D01*
X7241448Y-9478639D01*
X7393620Y-9706380D01*
X7621361Y-9858552D01*
X7822192Y-9898500D01*
X7957808Y-9898500D01*
X8158639Y-9858552D01*
X8386380Y-9706380D01*
X8536500Y-9481710D01*
X8536500Y-9700000D01*
X8541334Y-9724300D01*
X8555099Y-9744901D01*
X8575700Y-9758666D01*
X8600000Y-9763500D01*
X9338334Y-9763500D01*
X9422831Y-9798500D01*
X9617169Y-9798500D01*
X9701666Y-9763500D01*
X12026338Y-9763500D01*
X12026338Y-9840000D01*
X12046789Y-9942812D01*
X12105027Y-10029973D01*
X12192188Y-10088211D01*
X12295000Y-10108662D01*
X12645000Y-10108662D01*
X12747812Y-10088211D01*
X12834973Y-10029973D01*
X12893211Y-9942812D01*
X12913662Y-9840000D01*
X12913662Y-9763500D01*
X14500000Y-9763500D01*
X14524300Y-9758666D01*
X14544901Y-9744901D01*
X14558666Y-9724300D01*
X14563500Y-9700000D01*
X14563500Y-7560409D01*
X15256500Y-8253410D01*
X15256500Y-8764507D01*
X15245462Y-8820000D01*
X15256500Y-8875493D01*
X15256500Y-8875496D01*
X15289195Y-9039866D01*
X15413740Y-9226260D01*
X15460790Y-9257698D01*
X15640917Y-9437825D01*
X15618604Y-9550000D01*
X15689502Y-9906430D01*
X15859935Y-10161500D01*
X4610928Y-10161500D01*
X4692321Y-10145310D01*
X4796020Y-10076020D01*
X4813509Y-10049846D01*
X4919846Y-9943509D01*
X4946020Y-9926020D01*
X4965420Y-9896986D01*
X5158639Y-9858552D01*
X5386380Y-9706380D01*
X5390000Y-9700962D01*
X5393620Y-9706380D01*
X5621361Y-9858552D01*
X5822192Y-9898500D01*
X5957808Y-9898500D01*
X6158639Y-9858552D01*
X6386380Y-9706380D01*
X6538552Y-9478639D01*
X6591988Y-9210000D01*
X6538552Y-8941361D01*
X6386380Y-8713620D01*
X6168921Y-8568318D01*
X6366380Y-8436380D01*
X6518552Y-8208639D01*
X6571988Y-7940000D01*
X6518552Y-7671361D01*
X6379663Y-7463500D01*
X7186582Y-7463500D01*
X7176338Y-7515000D01*
G04 #@! TD*
M02*
