G04 #@! TF.GenerationSoftware,KiCad,Pcbnew,5.0.0-fee4fd1~66~ubuntu16.04.1*
G04 #@! TF.CreationDate,2018-08-14T00:09:00-04:00*
G04 #@! TF.ProjectId,motor controller,6D6F746F7220636F6E74726F6C6C6572,rev?*
G04 #@! TF.SameCoordinates,Original*
G04 #@! TF.FileFunction,Copper,L2,Bot,Signal*
G04 #@! TF.FilePolarity,Positive*
%FSLAX46Y46*%
G04 Gerber Fmt 4.6, Leading zero omitted, Abs format (unit mm)*
G04 Created by KiCad (PCBNEW 5.0.0-fee4fd1~66~ubuntu16.04.1) date Tue Aug 14 00:09:00 2018*
%MOMM*%
%LPD*%
G01*
G04 APERTURE LIST*
G04 #@! TA.AperFunction,ComponentPad*
%ADD10O,3.000000X1.300000*%
G04 #@! TD*
G04 #@! TA.AperFunction,SMDPad,CuDef*
%ADD11O,1.000000X0.600000*%
G04 #@! TD*
G04 #@! TA.AperFunction,SMDPad,CuDef*
%ADD12R,1.400000X1.120000*%
G04 #@! TD*
G04 #@! TA.AperFunction,SMDPad,CuDef*
%ADD13R,0.700000X0.250000*%
G04 #@! TD*
G04 #@! TA.AperFunction,SMDPad,CuDef*
%ADD14R,0.250000X0.700000*%
G04 #@! TD*
G04 #@! TA.AperFunction,SMDPad,CuDef*
%ADD15R,1.700000X1.700000*%
G04 #@! TD*
G04 #@! TA.AperFunction,SMDPad,CuDef*
%ADD16R,1.270000X0.800000*%
G04 #@! TD*
G04 #@! TA.AperFunction,SMDPad,CuDef*
%ADD17R,0.300000X0.850000*%
G04 #@! TD*
G04 #@! TA.AperFunction,SMDPad,CuDef*
%ADD18R,0.850000X0.300000*%
G04 #@! TD*
G04 #@! TA.AperFunction,SMDPad,CuDef*
%ADD19R,0.800000X0.300000*%
G04 #@! TD*
G04 #@! TA.AperFunction,SMDPad,CuDef*
%ADD20R,0.300000X0.800000*%
G04 #@! TD*
G04 #@! TA.AperFunction,ComponentPad*
%ADD21R,0.850000X0.850000*%
G04 #@! TD*
G04 #@! TA.AperFunction,ComponentPad*
%ADD22O,0.850000X0.850000*%
G04 #@! TD*
G04 #@! TA.AperFunction,SMDPad,CuDef*
%ADD23R,0.350000X0.400000*%
G04 #@! TD*
G04 #@! TA.AperFunction,SMDPad,CuDef*
%ADD24R,0.400000X0.350000*%
G04 #@! TD*
G04 #@! TA.AperFunction,SMDPad,CuDef*
%ADD25R,0.550000X0.450000*%
G04 #@! TD*
G04 #@! TA.AperFunction,ViaPad*
%ADD26C,0.400000*%
G04 #@! TD*
G04 #@! TA.AperFunction,ViaPad*
%ADD27C,0.450000*%
G04 #@! TD*
G04 #@! TA.AperFunction,Conductor*
%ADD28C,0.100000*%
G04 #@! TD*
G04 #@! TA.AperFunction,Conductor*
%ADD29C,0.127000*%
G04 #@! TD*
G04 APERTURE END LIST*
D10*
G04 #@! TO.P,M1,1*
G04 #@! TO.N,OUT2*
X17400000Y-950000D03*
G04 #@! TO.P,M1,2*
G04 #@! TO.N,OUT1*
X17400000Y-9550000D03*
G04 #@! TD*
D11*
G04 #@! TO.P,J3,1*
G04 #@! TO.N,SWCLK*
X7100000Y-1300000D03*
G04 #@! TO.P,J3,2*
G04 #@! TO.N,SWDIO*
X7100000Y-2000000D03*
G04 #@! TO.P,J3,3*
G04 #@! TO.N,GND*
X7100000Y-2700000D03*
G04 #@! TO.P,J3,4*
G04 #@! TO.N,+3V3*
X7100000Y-3400000D03*
G04 #@! TD*
D12*
G04 #@! TO.P,C12,1*
G04 #@! TO.N,MC+*
X8500000Y-6340000D03*
G04 #@! TO.P,C12,2*
G04 #@! TO.N,GND*
X8500000Y-4580000D03*
G04 #@! TD*
D13*
G04 #@! TO.P,IC1,16*
G04 #@! TO.N,Net-(IC1-Pad16)*
X3550000Y-4500000D03*
G04 #@! TO.P,IC1,15*
G04 #@! TO.N,Net-(IC1-Pad15)*
X3550000Y-5000000D03*
G04 #@! TO.P,IC1,14*
G04 #@! TO.N,Net-(IC1-Pad14)*
X3550000Y-5500000D03*
G04 #@! TO.P,IC1,13*
G04 #@! TO.N,+3V3*
X3550000Y-6000000D03*
D14*
G04 #@! TO.P,IC1,12*
G04 #@! TO.N,SCK*
X4250000Y-6700000D03*
G04 #@! TO.P,IC1,11*
G04 #@! TO.N,Net-(IC1-Pad11)*
X4750000Y-6700000D03*
G04 #@! TO.P,IC1,10*
G04 #@! TO.N,Net-(IC1-Pad10)*
X5250000Y-6700000D03*
G04 #@! TO.P,IC1,9*
G04 #@! TO.N,Net-(IC1-Pad9)*
X5750000Y-6700000D03*
D13*
G04 #@! TO.P,IC1,8*
G04 #@! TO.N,GND*
X6450000Y-6000000D03*
G04 #@! TO.P,IC1,7*
G04 #@! TO.N,MISO2*
X6450000Y-5500000D03*
G04 #@! TO.P,IC1,6*
G04 #@! TO.N,Net-(IC1-Pad6)*
X6450000Y-5000000D03*
G04 #@! TO.P,IC1,5*
G04 #@! TO.N,ENC_CS*
X6450000Y-4500000D03*
D14*
G04 #@! TO.P,IC1,4*
G04 #@! TO.N,MOSI2*
X5750000Y-3800000D03*
G04 #@! TO.P,IC1,3*
G04 #@! TO.N,Net-(IC1-Pad3)*
X5250000Y-3800000D03*
G04 #@! TO.P,IC1,2*
G04 #@! TO.N,Net-(IC1-Pad2)*
X4750000Y-3800000D03*
G04 #@! TO.P,IC1,1*
G04 #@! TO.N,Net-(IC1-Pad1)*
X4250000Y-3800000D03*
D15*
G04 #@! TO.P,IC1,17*
G04 #@! TO.N,GND*
X5000000Y-5250000D03*
G04 #@! TD*
D16*
G04 #@! TO.P,IC2,1*
G04 #@! TO.N,+BATT*
X10640000Y-7850000D03*
G04 #@! TO.P,IC2,2*
G04 #@! TO.N,MC+*
X10640000Y-6850000D03*
D17*
G04 #@! TO.P,IC2,3*
G04 #@! TO.N,GND*
X12140000Y-5900000D03*
G04 #@! TO.P,IC2,4*
G04 #@! TO.N,Net-(IC2-Pad4)*
X12640000Y-5900000D03*
D18*
G04 #@! TO.P,IC2,5*
G04 #@! TO.N,Net-(IC2-Pad5)*
X13340000Y-6600000D03*
G04 #@! TO.P,IC2,6*
G04 #@! TO.N,Net-(IC2-Pad6)*
X13340000Y-7100000D03*
G04 #@! TO.P,IC2,7*
G04 #@! TO.N,Net-(IC2-Pad7)*
X13340000Y-7600000D03*
G04 #@! TO.P,IC2,8*
G04 #@! TO.N,Net-(IC2-Pad8)*
X13340000Y-8100000D03*
D17*
G04 #@! TO.P,IC2,9*
G04 #@! TO.N,FB*
X12640000Y-8800000D03*
G04 #@! TO.P,IC2,10*
G04 #@! TO.N,+3V3*
X12140000Y-8800000D03*
G04 #@! TD*
D19*
G04 #@! TO.P,IC4,1*
G04 #@! TO.N,Net-(C7-Pad2)*
X10190000Y-3700000D03*
G04 #@! TO.P,IC4,2*
G04 #@! TO.N,GND*
X10190000Y-3200000D03*
G04 #@! TO.P,IC4,3*
G04 #@! TO.N,Net-(IC4-Pad3)*
X10190000Y-2700000D03*
G04 #@! TO.P,IC4,4*
G04 #@! TO.N,IN1*
X10190000Y-2200000D03*
D20*
G04 #@! TO.P,IC4,5*
G04 #@! TO.N,IN2*
X10940000Y-1450000D03*
G04 #@! TO.P,IC4,6*
G04 #@! TO.N,GND*
X11440000Y-1450000D03*
G04 #@! TO.P,IC4,7*
G04 #@! TO.N,Net-(IC4-Pad7)*
X11940000Y-1450000D03*
G04 #@! TO.P,IC4,8*
G04 #@! TO.N,GND*
X12440000Y-1450000D03*
D19*
G04 #@! TO.P,IC4,9*
G04 #@! TO.N,MC+*
X13190000Y-2200000D03*
G04 #@! TO.P,IC4,10*
G04 #@! TO.N,OUT2*
X13190000Y-2700000D03*
G04 #@! TO.P,IC4,11*
G04 #@! TO.N,Net-(IC4-Pad11)*
X13190000Y-3200000D03*
G04 #@! TO.P,IC4,12*
G04 #@! TO.N,OUT1*
X13190000Y-3700000D03*
D20*
G04 #@! TO.P,IC4,13*
G04 #@! TO.N,Net-(C11-Pad1)*
X12440000Y-4450000D03*
G04 #@! TO.P,IC4,14*
G04 #@! TO.N,Net-(C10-Pad1)*
X11940000Y-4450000D03*
G04 #@! TO.P,IC4,15*
G04 #@! TO.N,Net-(C7-Pad1)*
X11440000Y-4450000D03*
G04 #@! TO.P,IC4,16*
G04 #@! TO.N,Net-(C10-Pad2)*
X10940000Y-4450000D03*
D15*
G04 #@! TO.P,IC4,17*
G04 #@! TO.N,GND*
X11690000Y-2950000D03*
G04 #@! TD*
D21*
G04 #@! TO.P,J1,1*
G04 #@! TO.N,+BATT*
X7870000Y-7940000D03*
D22*
G04 #@! TO.P,J1,2*
G04 #@! TO.N,GND*
X6870000Y-7940000D03*
G04 #@! TO.P,J1,3*
G04 #@! TO.N,MOSI*
X5870000Y-7940000D03*
G04 #@! TO.P,J1,4*
G04 #@! TO.N,Net-(J1-Pad4)*
X4870000Y-7940000D03*
G04 #@! TO.P,J1,5*
G04 #@! TO.N,SCK*
X3870000Y-7940000D03*
G04 #@! TO.P,J1,6*
G04 #@! TO.N,CS*
X2870000Y-7940000D03*
G04 #@! TD*
G04 #@! TO.P,J2,6*
G04 #@! TO.N,+BATT*
X7890000Y-9210000D03*
G04 #@! TO.P,J2,5*
G04 #@! TO.N,GND*
X6890000Y-9210000D03*
G04 #@! TO.P,J2,4*
G04 #@! TO.N,Net-(J1-Pad4)*
X5890000Y-9210000D03*
G04 #@! TO.P,J2,3*
G04 #@! TO.N,MISO*
X4890000Y-9210000D03*
G04 #@! TO.P,J2,2*
G04 #@! TO.N,SCK*
X3890000Y-9210000D03*
D21*
G04 #@! TO.P,J2,1*
G04 #@! TO.N,CS*
X2890000Y-9210000D03*
G04 #@! TD*
D23*
G04 #@! TO.P,C1,2*
G04 #@! TO.N,GND*
X1025000Y-800000D03*
G04 #@! TO.P,C1,1*
G04 #@! TO.N,Net-(C1-Pad1)*
X1575000Y-800000D03*
G04 #@! TD*
G04 #@! TO.P,C2,2*
G04 #@! TO.N,Net-(C2-Pad2)*
X1025000Y-3200000D03*
G04 #@! TO.P,C2,1*
G04 #@! TO.N,GND*
X1575000Y-3200000D03*
G04 #@! TD*
G04 #@! TO.P,C3,2*
G04 #@! TO.N,GND*
X1525000Y-6300000D03*
G04 #@! TO.P,C3,1*
G04 #@! TO.N,+3V3*
X2075000Y-6300000D03*
G04 #@! TD*
D24*
G04 #@! TO.P,C4,1*
G04 #@! TO.N,+BATT*
X8900000Y-9425000D03*
G04 #@! TO.P,C4,2*
G04 #@! TO.N,GND*
X8900000Y-9975000D03*
G04 #@! TD*
G04 #@! TO.P,C8,1*
G04 #@! TO.N,GND*
X9600000Y-9975000D03*
G04 #@! TO.P,C8,2*
G04 #@! TO.N,+BATT*
X9600000Y-9425000D03*
G04 #@! TD*
D23*
G04 #@! TO.P,R1,1*
G04 #@! TO.N,Net-(R1-Pad1)*
X2800000Y-700000D03*
G04 #@! TO.P,R1,2*
G04 #@! TO.N,GND*
X2250000Y-700000D03*
G04 #@! TD*
G04 #@! TO.P,R3,2*
G04 #@! TO.N,+3V3*
X13675000Y-5000000D03*
G04 #@! TO.P,R3,1*
G04 #@! TO.N,Net-(IC2-Pad4)*
X13125000Y-5000000D03*
G04 #@! TD*
D25*
G04 #@! TO.P,Y1,1*
G04 #@! TO.N,Net-(C1-Pad1)*
X1950000Y-1700000D03*
G04 #@! TO.P,Y1,2*
G04 #@! TO.N,GND*
X900000Y-1700000D03*
G04 #@! TO.P,Y1,3*
G04 #@! TO.N,Net-(C2-Pad2)*
X900000Y-2450000D03*
G04 #@! TO.P,Y1,4*
G04 #@! TO.N,GND*
X1950000Y-2450000D03*
G04 #@! TD*
D26*
G04 #@! TO.N,GND*
X14610000Y-8920000D03*
X13030000Y-9670000D03*
X11500000Y-8380000D03*
X11480000Y-8890000D03*
X11500000Y-9370000D03*
X8825000Y-2700000D03*
X11440000Y-1450000D03*
X9325000Y-5000000D03*
X12410000Y-6750000D03*
X11674998Y-2950000D03*
X6450000Y-6000000D03*
X8500000Y-4580000D03*
X8825000Y-1600000D03*
X4110000Y-3120000D03*
X1525000Y-6300000D03*
X7420000Y-590000D03*
G04 #@! TO.N,Net-(C1-Pad1)*
X1950000Y-1820002D03*
G04 #@! TO.N,Net-(C2-Pad2)*
X900000Y-2450000D03*
G04 #@! TO.N,+3V3*
X13700000Y-4990000D03*
X12320000Y-7890000D03*
X7250000Y-4130000D03*
X2075000Y-6300000D03*
X3818753Y-6241192D03*
X9691933Y-6362734D03*
X8880678Y-7880397D03*
X549998Y-3230000D03*
X702670Y-6250002D03*
X7050000Y-5510000D03*
X14240000Y-1900000D03*
D27*
G04 #@! TO.N,+BATT*
X9520000Y-9310000D03*
X9510000Y-8830000D03*
X9510000Y-8370000D03*
D26*
G04 #@! TO.N,FB*
X12920000Y-8790000D03*
G04 #@! TO.N,CS*
X2860000Y-5520000D03*
D27*
G04 #@! TO.N,OUT1*
X12980000Y-3710000D03*
X13380000Y-3710000D03*
G04 #@! TO.N,OUT2*
X12920000Y-2680000D03*
X13310000Y-2680000D03*
X13710000Y-2680000D03*
D26*
G04 #@! TO.N,SCK*
X3440000Y-6640000D03*
G04 #@! TO.N,SWDIO*
X7100000Y-2000000D03*
G04 #@! TO.N,SWCLK*
X7100000Y-1300000D03*
G04 #@! TO.N,ENC_CS*
X6510000Y-4370000D03*
G04 #@! TO.N,IN2*
X10889997Y-1450000D03*
G04 #@! TO.N,IN1*
X9375000Y-1600000D03*
G04 #@! TO.N,Net-(C7-Pad1)*
X11440000Y-4450000D03*
G04 #@! TO.N,Net-(C7-Pad2)*
X10225000Y-4300000D03*
G04 #@! TO.N,Net-(C10-Pad2)*
X11025000Y-5100000D03*
G04 #@! TO.N,Net-(C10-Pad1)*
X11930000Y-5120000D03*
G04 #@! TO.N,Net-(C11-Pad1)*
X12440000Y-4450000D03*
G04 #@! TO.N,MC+*
X13190874Y-2055000D03*
G04 #@! TO.N,Net-(IC4-Pad3)*
X9375190Y-2704693D03*
G04 #@! TO.N,MISO2*
X7917597Y-1904085D03*
X7937415Y-3422916D03*
X7431602Y-4848067D03*
G04 #@! TO.N,MOSI2*
X6160002Y-2390000D03*
G04 #@! TD*
D28*
G04 #@! TO.N,GND*
X11440000Y-3200000D02*
X11690000Y-2950000D01*
X10190000Y-3200000D02*
X11440000Y-3200000D01*
X11440000Y-1750000D02*
X11440000Y-1450000D01*
X11690000Y-2000000D02*
X11440000Y-1750000D01*
X11690000Y-2950000D02*
X11690000Y-2000000D01*
X12440000Y-2200000D02*
X12440000Y-1450000D01*
X11690000Y-2950000D02*
X12440000Y-2200000D01*
X8500000Y-4580000D02*
X8600000Y-4580000D01*
X9020000Y-5000000D02*
X9325000Y-5000000D01*
X8600000Y-4580000D02*
X9020000Y-5000000D01*
X8500000Y-4580000D02*
X8700000Y-4580000D01*
X12140000Y-6480000D02*
X12410000Y-6750000D01*
X12140000Y-5900000D02*
X12140000Y-6480000D01*
X6890000Y-9811040D02*
X7198960Y-10120000D01*
X6890000Y-9210000D02*
X6890000Y-9811040D01*
X7343960Y-9975000D02*
X8900000Y-9975000D01*
X7198960Y-10120000D02*
X7343960Y-9975000D01*
X11500000Y-8870000D02*
X11480000Y-8890000D01*
X11500000Y-8380000D02*
X11500000Y-8870000D01*
X11480000Y-9350000D02*
X11500000Y-9370000D01*
X11480000Y-8890000D02*
X11480000Y-9350000D01*
X11950000Y-9820000D02*
X12990000Y-9820000D01*
X11500000Y-9370000D02*
X11950000Y-9820000D01*
X8825000Y-1600000D02*
X8825000Y-2700000D01*
X1950000Y-3100000D02*
X1950000Y-2775000D01*
X1950000Y-2775000D02*
X1950000Y-2450000D01*
X1850000Y-3200000D02*
X1950000Y-3100000D01*
X1575000Y-3200000D02*
X1850000Y-3200000D01*
X8825000Y-2725000D02*
X9300000Y-3200000D01*
X9300000Y-3200000D02*
X10190000Y-3200000D01*
X8825000Y-2700000D02*
X8825000Y-2725000D01*
X6449990Y-2186400D02*
X6449990Y-880010D01*
X6963590Y-2700000D02*
X6449990Y-2186400D01*
X7100000Y-2700000D02*
X6963590Y-2700000D01*
X6449990Y-880010D02*
X6720000Y-610000D01*
X7400000Y-610000D02*
X7420000Y-590000D01*
X6720000Y-610000D02*
X7400000Y-610000D01*
G04 #@! TO.N,Net-(C1-Pad1)*
X1900000Y-1700000D02*
X1950000Y-1700000D01*
X1575000Y-1375000D02*
X1900000Y-1700000D01*
X1575000Y-800000D02*
X1575000Y-1375000D01*
G04 #@! TO.N,Net-(C2-Pad2)*
X1025000Y-2575000D02*
X900000Y-2450000D01*
X1025000Y-3200000D02*
X1025000Y-2575000D01*
G04 #@! TO.N,+3V3*
X12140000Y-8070000D02*
X12320000Y-7890000D01*
X12140000Y-8800000D02*
X12140000Y-8070000D01*
X7250000Y-3550000D02*
X7100000Y-3400000D01*
X7250000Y-4130000D02*
X7250000Y-3550000D01*
X9691933Y-6680932D02*
X8850000Y-7522865D01*
X9691933Y-6362734D02*
X9691933Y-6680932D01*
X8850000Y-7849719D02*
X8880678Y-7880397D01*
X8850000Y-7522865D02*
X8850000Y-7849719D01*
X549998Y-6097330D02*
X702670Y-6250002D01*
X549998Y-3230000D02*
X549998Y-6097330D01*
X3791192Y-6241192D02*
X3550000Y-6000000D01*
X3818753Y-6241192D02*
X3791192Y-6241192D01*
X7249999Y-5709999D02*
X7249999Y-7049999D01*
X7050000Y-5510000D02*
X7249999Y-5709999D01*
X7249999Y-7049999D02*
X7430000Y-7230000D01*
X7430000Y-7230000D02*
X8660000Y-7230000D01*
X8850000Y-7420000D02*
X8850000Y-7522865D01*
X8660000Y-7230000D02*
X8850000Y-7420000D01*
X13700000Y-4990000D02*
X14690000Y-4000000D01*
X14690000Y-4000000D02*
X14690000Y-2110000D01*
X14480000Y-1900000D02*
X14240000Y-1900000D01*
X14690000Y-2110000D02*
X14480000Y-1900000D01*
G04 #@! TO.N,FB*
X12910000Y-8800000D02*
X12920000Y-8790000D01*
X12640000Y-8800000D02*
X12910000Y-8800000D01*
G04 #@! TO.N,CS*
X2860000Y-7930000D02*
X2870000Y-7940000D01*
X2860000Y-5520000D02*
X2860000Y-7930000D01*
X2870000Y-9190000D02*
X2890000Y-9210000D01*
X2870000Y-7940000D02*
X2870000Y-9190000D01*
G04 #@! TO.N,SCK*
X3890000Y-7960000D02*
X3870000Y-7940000D01*
X3890000Y-9210000D02*
X3890000Y-7960000D01*
X3870000Y-7940000D02*
X3870000Y-7580000D01*
X4250000Y-7200000D02*
X4250000Y-6700000D01*
X3870000Y-7580000D02*
X4250000Y-7200000D01*
X3500000Y-6700000D02*
X3440000Y-6640000D01*
X4250000Y-6700000D02*
X3500000Y-6700000D01*
G04 #@! TO.N,ENC_CS*
X6450000Y-4430000D02*
X6510000Y-4370000D01*
X6450000Y-4500000D02*
X6450000Y-4430000D01*
G04 #@! TO.N,IN2*
X10940000Y-1450000D02*
X10889997Y-1450000D01*
G04 #@! TO.N,IN1*
X9940000Y-2200000D02*
X10190000Y-2200000D01*
X9375000Y-1635000D02*
X9940000Y-2200000D01*
X9375000Y-1600000D02*
X9375000Y-1635000D01*
G04 #@! TO.N,Net-(C7-Pad2)*
X10225000Y-3735000D02*
X10190000Y-3700000D01*
X10225000Y-4300000D02*
X10225000Y-3735000D01*
G04 #@! TO.N,Net-(C10-Pad2)*
X10940000Y-5015000D02*
X11025000Y-5100000D01*
X10940000Y-4450000D02*
X10940000Y-5015000D01*
G04 #@! TO.N,Net-(C10-Pad1)*
X11930000Y-4460000D02*
X11940000Y-4450000D01*
X11930000Y-5120000D02*
X11930000Y-4460000D01*
G04 #@! TO.N,MC+*
X13190000Y-2055874D02*
X13190874Y-2055000D01*
X13190000Y-2200000D02*
X13190000Y-2055874D01*
G04 #@! TO.N,Net-(IC2-Pad4)*
X13125000Y-5300000D02*
X13125000Y-5000000D01*
X13125000Y-5665000D02*
X13125000Y-5300000D01*
X12890000Y-5900000D02*
X13125000Y-5665000D01*
X12640000Y-5900000D02*
X12890000Y-5900000D01*
G04 #@! TO.N,Net-(IC4-Pad3)*
X10185307Y-2704693D02*
X10190000Y-2700000D01*
X9375190Y-2704693D02*
X10185307Y-2704693D01*
G04 #@! TO.N,MISO2*
X7937415Y-1923903D02*
X7917597Y-1904085D01*
X7937415Y-3422916D02*
X7937415Y-1923903D01*
X7326933Y-4848067D02*
X7431602Y-4848067D01*
X6675000Y-5500000D02*
X7326933Y-4848067D01*
X6450000Y-5500000D02*
X6675000Y-5500000D01*
G04 #@! TO.N,MOSI2*
X5750000Y-3800000D02*
X5750000Y-2710000D01*
X6070000Y-2390000D02*
X6160002Y-2390000D01*
X5750000Y-2710000D02*
X6070000Y-2390000D01*
G04 #@! TD*
D29*
G04 #@! TO.N,+BATT*
G36*
X9815027Y-7439973D02*
X9902188Y-7498211D01*
X10005000Y-7518662D01*
X11275000Y-7518662D01*
X11377812Y-7498211D01*
X11464973Y-7439973D01*
X11482661Y-7413500D01*
X11636500Y-7413500D01*
X11636500Y-7934851D01*
X11592196Y-7916500D01*
X11407804Y-7916500D01*
X11237448Y-7987063D01*
X11107063Y-8117448D01*
X11036500Y-8287804D01*
X11036500Y-8472196D01*
X11096781Y-8617730D01*
X11087063Y-8627448D01*
X11016500Y-8797804D01*
X11016500Y-8982196D01*
X11087063Y-9152552D01*
X11087995Y-9153484D01*
X11036500Y-9277804D01*
X11036500Y-9462196D01*
X11107063Y-9632552D01*
X11211011Y-9736500D01*
X10056031Y-9736500D01*
X10048211Y-9697188D01*
X9989973Y-9610027D01*
X9902812Y-9551789D01*
X9800000Y-9531338D01*
X9400000Y-9531338D01*
X9297188Y-9551789D01*
X9250000Y-9583318D01*
X9202812Y-9551789D01*
X9100000Y-9531338D01*
X8700000Y-9531338D01*
X8597188Y-9551789D01*
X8510027Y-9610027D01*
X8475635Y-9661500D01*
X7416368Y-9661500D01*
X7538552Y-9478639D01*
X7591988Y-9210000D01*
X7538552Y-8941361D01*
X7413500Y-8754208D01*
X7413500Y-8365860D01*
X7518552Y-8208639D01*
X7571988Y-7940000D01*
X7518552Y-7671361D01*
X7436373Y-7548372D01*
X7460868Y-7543500D01*
X8530145Y-7543500D01*
X8535537Y-7548892D01*
X8536500Y-7553733D01*
X8536500Y-7569086D01*
X8487741Y-7617845D01*
X8417178Y-7788201D01*
X8417178Y-7972593D01*
X8487741Y-8142949D01*
X8618126Y-8273334D01*
X8788482Y-8343897D01*
X8972874Y-8343897D01*
X9143230Y-8273334D01*
X9273615Y-8142949D01*
X9344178Y-7972593D01*
X9344178Y-7788201D01*
X9273615Y-7617845D01*
X9235995Y-7580225D01*
X9402720Y-7413500D01*
X9797339Y-7413500D01*
X9815027Y-7439973D01*
X9815027Y-7439973D01*
G37*
X9815027Y-7439973D02*
X9902188Y-7498211D01*
X10005000Y-7518662D01*
X11275000Y-7518662D01*
X11377812Y-7498211D01*
X11464973Y-7439973D01*
X11482661Y-7413500D01*
X11636500Y-7413500D01*
X11636500Y-7934851D01*
X11592196Y-7916500D01*
X11407804Y-7916500D01*
X11237448Y-7987063D01*
X11107063Y-8117448D01*
X11036500Y-8287804D01*
X11036500Y-8472196D01*
X11096781Y-8617730D01*
X11087063Y-8627448D01*
X11016500Y-8797804D01*
X11016500Y-8982196D01*
X11087063Y-9152552D01*
X11087995Y-9153484D01*
X11036500Y-9277804D01*
X11036500Y-9462196D01*
X11107063Y-9632552D01*
X11211011Y-9736500D01*
X10056031Y-9736500D01*
X10048211Y-9697188D01*
X9989973Y-9610027D01*
X9902812Y-9551789D01*
X9800000Y-9531338D01*
X9400000Y-9531338D01*
X9297188Y-9551789D01*
X9250000Y-9583318D01*
X9202812Y-9551789D01*
X9100000Y-9531338D01*
X8700000Y-9531338D01*
X8597188Y-9551789D01*
X8510027Y-9610027D01*
X8475635Y-9661500D01*
X7416368Y-9661500D01*
X7538552Y-9478639D01*
X7591988Y-9210000D01*
X7538552Y-8941361D01*
X7413500Y-8754208D01*
X7413500Y-8365860D01*
X7518552Y-8208639D01*
X7571988Y-7940000D01*
X7518552Y-7671361D01*
X7436373Y-7548372D01*
X7460868Y-7543500D01*
X8530145Y-7543500D01*
X8535537Y-7548892D01*
X8536500Y-7553733D01*
X8536500Y-7569086D01*
X8487741Y-7617845D01*
X8417178Y-7788201D01*
X8417178Y-7972593D01*
X8487741Y-8142949D01*
X8618126Y-8273334D01*
X8788482Y-8343897D01*
X8972874Y-8343897D01*
X9143230Y-8273334D01*
X9273615Y-8142949D01*
X9344178Y-7972593D01*
X9344178Y-7788201D01*
X9273615Y-7617845D01*
X9235995Y-7580225D01*
X9402720Y-7413500D01*
X9797339Y-7413500D01*
X9815027Y-7439973D01*
G04 #@! TO.N,MC+*
G36*
X14586500Y-1591011D02*
X14502552Y-1507063D01*
X14332196Y-1436500D01*
X14147804Y-1436500D01*
X13977448Y-1507063D01*
X13847063Y-1637448D01*
X13776500Y-1807804D01*
X13776500Y-1992196D01*
X13847063Y-2162552D01*
X13924690Y-2240179D01*
X13807169Y-2191500D01*
X13612831Y-2191500D01*
X13510000Y-2234094D01*
X13407169Y-2191500D01*
X13212831Y-2191500D01*
X13115000Y-2232023D01*
X13017169Y-2191500D01*
X12822831Y-2191500D01*
X12808662Y-2197369D01*
X12808662Y-2100000D01*
X12792879Y-2020657D01*
X12838211Y-1952812D01*
X12858662Y-1850000D01*
X12858662Y-1050000D01*
X12838211Y-947188D01*
X12779973Y-860027D01*
X12692812Y-801789D01*
X12590000Y-781338D01*
X12290000Y-781338D01*
X12190000Y-801230D01*
X12090000Y-781338D01*
X11790000Y-781338D01*
X11690000Y-801230D01*
X11590000Y-781338D01*
X11290000Y-781338D01*
X11190000Y-801230D01*
X11090000Y-781338D01*
X10790000Y-781338D01*
X10687188Y-801789D01*
X10600027Y-860027D01*
X10541789Y-947188D01*
X10521338Y-1050000D01*
X10521338Y-1163170D01*
X10497060Y-1187448D01*
X10426497Y-1357804D01*
X10426497Y-1542196D01*
X10497060Y-1712552D01*
X10521338Y-1736830D01*
X10521338Y-1781338D01*
X9964694Y-1781338D01*
X9838500Y-1655145D01*
X9838500Y-1507804D01*
X9767937Y-1337448D01*
X9637552Y-1207063D01*
X9467196Y-1136500D01*
X9282804Y-1136500D01*
X9112448Y-1207063D01*
X9100000Y-1219511D01*
X9087552Y-1207063D01*
X8917196Y-1136500D01*
X8732804Y-1136500D01*
X8562448Y-1207063D01*
X8432063Y-1337448D01*
X8361500Y-1507804D01*
X8361500Y-1692196D01*
X8432063Y-1862552D01*
X8511500Y-1941989D01*
X8511501Y-2358010D01*
X8432063Y-2437448D01*
X8361500Y-2607804D01*
X8361500Y-2792196D01*
X8432063Y-2962552D01*
X8562448Y-3092937D01*
X8732804Y-3163500D01*
X8820145Y-3163500D01*
X9056493Y-3399849D01*
X9073980Y-3426020D01*
X9100151Y-3443507D01*
X9100152Y-3443508D01*
X9177677Y-3495309D01*
X9177678Y-3495309D01*
X9177679Y-3495310D01*
X9269127Y-3513500D01*
X9269131Y-3513500D01*
X9299999Y-3519640D01*
X9330867Y-3513500D01*
X9528598Y-3513500D01*
X9521338Y-3550000D01*
X9521338Y-3850000D01*
X9541789Y-3952812D01*
X9600027Y-4039973D01*
X9687188Y-4098211D01*
X9790000Y-4118662D01*
X9798423Y-4118662D01*
X9761500Y-4207804D01*
X9761500Y-4392196D01*
X9832063Y-4562552D01*
X9962448Y-4692937D01*
X10132804Y-4763500D01*
X10317196Y-4763500D01*
X10487552Y-4692937D01*
X10521338Y-4659151D01*
X10521338Y-4850000D01*
X10541789Y-4952812D01*
X10568018Y-4992068D01*
X10561500Y-5007804D01*
X10561500Y-5192196D01*
X10632063Y-5362552D01*
X10762448Y-5492937D01*
X10932804Y-5563500D01*
X11117196Y-5563500D01*
X11287552Y-5492937D01*
X11417937Y-5362552D01*
X11473358Y-5228753D01*
X11537063Y-5382552D01*
X11667448Y-5512937D01*
X11721338Y-5535259D01*
X11721338Y-6325000D01*
X11741789Y-6427812D01*
X11800027Y-6514973D01*
X11831499Y-6536002D01*
X11844691Y-6602321D01*
X11896492Y-6679847D01*
X11896494Y-6679849D01*
X11913981Y-6706020D01*
X11940152Y-6723507D01*
X11946500Y-6729855D01*
X11946500Y-6842196D01*
X12017063Y-7012552D01*
X12147448Y-7142937D01*
X12317804Y-7213500D01*
X12502196Y-7213500D01*
X12646338Y-7153795D01*
X12646338Y-7236500D01*
X11429762Y-7236500D01*
X11377812Y-7201789D01*
X11275000Y-7181338D01*
X10005000Y-7181338D01*
X9902188Y-7201789D01*
X9850238Y-7236500D01*
X9579721Y-7236500D01*
X9891782Y-6924439D01*
X9917953Y-6906952D01*
X9954129Y-6852812D01*
X9987242Y-6803254D01*
X9987243Y-6803253D01*
X10005433Y-6711805D01*
X10005433Y-6711801D01*
X10007190Y-6702966D01*
X10084870Y-6625286D01*
X10155433Y-6454930D01*
X10155433Y-6270538D01*
X10084870Y-6100182D01*
X9954485Y-5969797D01*
X9784129Y-5899234D01*
X9599737Y-5899234D01*
X9429381Y-5969797D01*
X9298996Y-6100182D01*
X9228433Y-6270538D01*
X9228433Y-6454930D01*
X9298996Y-6625286D01*
X9301610Y-6627900D01*
X8901845Y-7027664D01*
X8886020Y-7003980D01*
X8782321Y-6934690D01*
X8690873Y-6916500D01*
X8690868Y-6916500D01*
X8660000Y-6910360D01*
X8629132Y-6916500D01*
X7563499Y-6916500D01*
X7563499Y-5740866D01*
X7569639Y-5709998D01*
X7563499Y-5679130D01*
X7563499Y-5679126D01*
X7545309Y-5587678D01*
X7513500Y-5540073D01*
X7513500Y-5417804D01*
X7469496Y-5311567D01*
X7523798Y-5311567D01*
X7581703Y-5287582D01*
X7610027Y-5329973D01*
X7697188Y-5388211D01*
X7800000Y-5408662D01*
X9100412Y-5408662D01*
X9232804Y-5463500D01*
X9417196Y-5463500D01*
X9587552Y-5392937D01*
X9717937Y-5262552D01*
X9788500Y-5092196D01*
X9788500Y-4907804D01*
X9717937Y-4737448D01*
X9587552Y-4607063D01*
X9468662Y-4557818D01*
X9468662Y-4020000D01*
X9448211Y-3917188D01*
X9389973Y-3830027D01*
X9302812Y-3771789D01*
X9200000Y-3751338D01*
X8264482Y-3751338D01*
X8330352Y-3685468D01*
X8400915Y-3515112D01*
X8400915Y-3330720D01*
X8330352Y-3160364D01*
X8250915Y-3080927D01*
X8250915Y-2226256D01*
X8310534Y-2166637D01*
X8381097Y-1996281D01*
X8381097Y-1811889D01*
X8310534Y-1641533D01*
X8180149Y-1511148D01*
X8009793Y-1440585D01*
X7846575Y-1440585D01*
X7874539Y-1300000D01*
X7830805Y-1080133D01*
X7732491Y-932998D01*
X7812937Y-852552D01*
X7883500Y-682196D01*
X7883500Y-497804D01*
X7817515Y-338500D01*
X14586500Y-338500D01*
X14586500Y-1591011D01*
X14586500Y-1591011D01*
G37*
X14586500Y-1591011D02*
X14502552Y-1507063D01*
X14332196Y-1436500D01*
X14147804Y-1436500D01*
X13977448Y-1507063D01*
X13847063Y-1637448D01*
X13776500Y-1807804D01*
X13776500Y-1992196D01*
X13847063Y-2162552D01*
X13924690Y-2240179D01*
X13807169Y-2191500D01*
X13612831Y-2191500D01*
X13510000Y-2234094D01*
X13407169Y-2191500D01*
X13212831Y-2191500D01*
X13115000Y-2232023D01*
X13017169Y-2191500D01*
X12822831Y-2191500D01*
X12808662Y-2197369D01*
X12808662Y-2100000D01*
X12792879Y-2020657D01*
X12838211Y-1952812D01*
X12858662Y-1850000D01*
X12858662Y-1050000D01*
X12838211Y-947188D01*
X12779973Y-860027D01*
X12692812Y-801789D01*
X12590000Y-781338D01*
X12290000Y-781338D01*
X12190000Y-801230D01*
X12090000Y-781338D01*
X11790000Y-781338D01*
X11690000Y-801230D01*
X11590000Y-781338D01*
X11290000Y-781338D01*
X11190000Y-801230D01*
X11090000Y-781338D01*
X10790000Y-781338D01*
X10687188Y-801789D01*
X10600027Y-860027D01*
X10541789Y-947188D01*
X10521338Y-1050000D01*
X10521338Y-1163170D01*
X10497060Y-1187448D01*
X10426497Y-1357804D01*
X10426497Y-1542196D01*
X10497060Y-1712552D01*
X10521338Y-1736830D01*
X10521338Y-1781338D01*
X9964694Y-1781338D01*
X9838500Y-1655145D01*
X9838500Y-1507804D01*
X9767937Y-1337448D01*
X9637552Y-1207063D01*
X9467196Y-1136500D01*
X9282804Y-1136500D01*
X9112448Y-1207063D01*
X9100000Y-1219511D01*
X9087552Y-1207063D01*
X8917196Y-1136500D01*
X8732804Y-1136500D01*
X8562448Y-1207063D01*
X8432063Y-1337448D01*
X8361500Y-1507804D01*
X8361500Y-1692196D01*
X8432063Y-1862552D01*
X8511500Y-1941989D01*
X8511501Y-2358010D01*
X8432063Y-2437448D01*
X8361500Y-2607804D01*
X8361500Y-2792196D01*
X8432063Y-2962552D01*
X8562448Y-3092937D01*
X8732804Y-3163500D01*
X8820145Y-3163500D01*
X9056493Y-3399849D01*
X9073980Y-3426020D01*
X9100151Y-3443507D01*
X9100152Y-3443508D01*
X9177677Y-3495309D01*
X9177678Y-3495309D01*
X9177679Y-3495310D01*
X9269127Y-3513500D01*
X9269131Y-3513500D01*
X9299999Y-3519640D01*
X9330867Y-3513500D01*
X9528598Y-3513500D01*
X9521338Y-3550000D01*
X9521338Y-3850000D01*
X9541789Y-3952812D01*
X9600027Y-4039973D01*
X9687188Y-4098211D01*
X9790000Y-4118662D01*
X9798423Y-4118662D01*
X9761500Y-4207804D01*
X9761500Y-4392196D01*
X9832063Y-4562552D01*
X9962448Y-4692937D01*
X10132804Y-4763500D01*
X10317196Y-4763500D01*
X10487552Y-4692937D01*
X10521338Y-4659151D01*
X10521338Y-4850000D01*
X10541789Y-4952812D01*
X10568018Y-4992068D01*
X10561500Y-5007804D01*
X10561500Y-5192196D01*
X10632063Y-5362552D01*
X10762448Y-5492937D01*
X10932804Y-5563500D01*
X11117196Y-5563500D01*
X11287552Y-5492937D01*
X11417937Y-5362552D01*
X11473358Y-5228753D01*
X11537063Y-5382552D01*
X11667448Y-5512937D01*
X11721338Y-5535259D01*
X11721338Y-6325000D01*
X11741789Y-6427812D01*
X11800027Y-6514973D01*
X11831499Y-6536002D01*
X11844691Y-6602321D01*
X11896492Y-6679847D01*
X11896494Y-6679849D01*
X11913981Y-6706020D01*
X11940152Y-6723507D01*
X11946500Y-6729855D01*
X11946500Y-6842196D01*
X12017063Y-7012552D01*
X12147448Y-7142937D01*
X12317804Y-7213500D01*
X12502196Y-7213500D01*
X12646338Y-7153795D01*
X12646338Y-7236500D01*
X11429762Y-7236500D01*
X11377812Y-7201789D01*
X11275000Y-7181338D01*
X10005000Y-7181338D01*
X9902188Y-7201789D01*
X9850238Y-7236500D01*
X9579721Y-7236500D01*
X9891782Y-6924439D01*
X9917953Y-6906952D01*
X9954129Y-6852812D01*
X9987242Y-6803254D01*
X9987243Y-6803253D01*
X10005433Y-6711805D01*
X10005433Y-6711801D01*
X10007190Y-6702966D01*
X10084870Y-6625286D01*
X10155433Y-6454930D01*
X10155433Y-6270538D01*
X10084870Y-6100182D01*
X9954485Y-5969797D01*
X9784129Y-5899234D01*
X9599737Y-5899234D01*
X9429381Y-5969797D01*
X9298996Y-6100182D01*
X9228433Y-6270538D01*
X9228433Y-6454930D01*
X9298996Y-6625286D01*
X9301610Y-6627900D01*
X8901845Y-7027664D01*
X8886020Y-7003980D01*
X8782321Y-6934690D01*
X8690873Y-6916500D01*
X8690868Y-6916500D01*
X8660000Y-6910360D01*
X8629132Y-6916500D01*
X7563499Y-6916500D01*
X7563499Y-5740866D01*
X7569639Y-5709998D01*
X7563499Y-5679130D01*
X7563499Y-5679126D01*
X7545309Y-5587678D01*
X7513500Y-5540073D01*
X7513500Y-5417804D01*
X7469496Y-5311567D01*
X7523798Y-5311567D01*
X7581703Y-5287582D01*
X7610027Y-5329973D01*
X7697188Y-5388211D01*
X7800000Y-5408662D01*
X9100412Y-5408662D01*
X9232804Y-5463500D01*
X9417196Y-5463500D01*
X9587552Y-5392937D01*
X9717937Y-5262552D01*
X9788500Y-5092196D01*
X9788500Y-4907804D01*
X9717937Y-4737448D01*
X9587552Y-4607063D01*
X9468662Y-4557818D01*
X9468662Y-4020000D01*
X9448211Y-3917188D01*
X9389973Y-3830027D01*
X9302812Y-3771789D01*
X9200000Y-3751338D01*
X8264482Y-3751338D01*
X8330352Y-3685468D01*
X8400915Y-3515112D01*
X8400915Y-3330720D01*
X8330352Y-3160364D01*
X8250915Y-3080927D01*
X8250915Y-2226256D01*
X8310534Y-2166637D01*
X8381097Y-1996281D01*
X8381097Y-1811889D01*
X8310534Y-1641533D01*
X8180149Y-1511148D01*
X8009793Y-1440585D01*
X7846575Y-1440585D01*
X7874539Y-1300000D01*
X7830805Y-1080133D01*
X7732491Y-932998D01*
X7812937Y-852552D01*
X7883500Y-682196D01*
X7883500Y-497804D01*
X7817515Y-338500D01*
X14586500Y-338500D01*
X14586500Y-1591011D01*
G04 #@! TO.N,GND*
G36*
X2376789Y-397188D02*
X2356338Y-500000D01*
X2356338Y-900000D01*
X2376789Y-1002812D01*
X2435027Y-1089973D01*
X2522188Y-1148211D01*
X2625000Y-1168662D01*
X2975000Y-1168662D01*
X3077812Y-1148211D01*
X3164973Y-1089973D01*
X3223211Y-1002812D01*
X3243662Y-900000D01*
X3243662Y-500000D01*
X3223211Y-397188D01*
X3183998Y-338500D01*
X7236500Y-338500D01*
X7236500Y-736500D01*
X6844503Y-736500D01*
X6680133Y-769195D01*
X6493740Y-893740D01*
X6369195Y-1080133D01*
X6325461Y-1300000D01*
X6369195Y-1519867D01*
X6456148Y-1650000D01*
X6369195Y-1780133D01*
X6333391Y-1960131D01*
X6252198Y-1926500D01*
X6067806Y-1926500D01*
X5897450Y-1997063D01*
X5767065Y-2127448D01*
X5696502Y-2297804D01*
X5696502Y-2320142D01*
X5550152Y-2466493D01*
X5523981Y-2483980D01*
X5506494Y-2510151D01*
X5506492Y-2510153D01*
X5454691Y-2587679D01*
X5430360Y-2710000D01*
X5436501Y-2740873D01*
X5436501Y-3193571D01*
X5375000Y-3181338D01*
X5125000Y-3181338D01*
X5022188Y-3201789D01*
X5000000Y-3216614D01*
X4977812Y-3201789D01*
X4875000Y-3181338D01*
X4625000Y-3181338D01*
X4522188Y-3201789D01*
X4500000Y-3216614D01*
X4477812Y-3201789D01*
X4375000Y-3181338D01*
X4125000Y-3181338D01*
X4022188Y-3201789D01*
X3935027Y-3260027D01*
X3876789Y-3347188D01*
X3856338Y-3450000D01*
X3856338Y-4106338D01*
X3200000Y-4106338D01*
X3097188Y-4126789D01*
X3010027Y-4185027D01*
X2951789Y-4272188D01*
X2931338Y-4375000D01*
X2931338Y-4625000D01*
X2951789Y-4727812D01*
X2966614Y-4750000D01*
X2951789Y-4772188D01*
X2931338Y-4875000D01*
X2931338Y-5056500D01*
X2767804Y-5056500D01*
X2597448Y-5127063D01*
X2467063Y-5257448D01*
X2396500Y-5427804D01*
X2396500Y-5612196D01*
X2467063Y-5782552D01*
X2546500Y-5861989D01*
X2546501Y-7328105D01*
X2373620Y-7443620D01*
X2221448Y-7671361D01*
X2168012Y-7940000D01*
X2221448Y-8208639D01*
X2373620Y-8436380D01*
X2493285Y-8516338D01*
X2465000Y-8516338D01*
X2362188Y-8536789D01*
X2275027Y-8595027D01*
X2216789Y-8682188D01*
X2196338Y-8785000D01*
X2196338Y-9635000D01*
X2216789Y-9737812D01*
X2275027Y-9824973D01*
X2362188Y-9883211D01*
X2465000Y-9903662D01*
X3315000Y-9903662D01*
X3417812Y-9883211D01*
X3504973Y-9824973D01*
X3525385Y-9794423D01*
X3621361Y-9858552D01*
X3822192Y-9898500D01*
X3957808Y-9898500D01*
X4158639Y-9858552D01*
X4386380Y-9706380D01*
X4390000Y-9700962D01*
X4393620Y-9706380D01*
X4621361Y-9858552D01*
X4822192Y-9898500D01*
X4957808Y-9898500D01*
X5158639Y-9858552D01*
X5386380Y-9706380D01*
X5390000Y-9700962D01*
X5393620Y-9706380D01*
X5621361Y-9858552D01*
X5822192Y-9898500D01*
X5957808Y-9898500D01*
X6158639Y-9858552D01*
X6386380Y-9706380D01*
X6538552Y-9478639D01*
X6591988Y-9210000D01*
X6538552Y-8941361D01*
X6386380Y-8713620D01*
X6168921Y-8568318D01*
X6366380Y-8436380D01*
X6518552Y-8208639D01*
X6571988Y-7940000D01*
X6518552Y-7671361D01*
X6366380Y-7443620D01*
X6138639Y-7291448D01*
X6022506Y-7268348D01*
X6064973Y-7239973D01*
X6123211Y-7152812D01*
X6143662Y-7050000D01*
X6143662Y-6350000D01*
X6123211Y-6247188D01*
X6064973Y-6160027D01*
X5977812Y-6101789D01*
X5875000Y-6081338D01*
X5625000Y-6081338D01*
X5522188Y-6101789D01*
X5500000Y-6116614D01*
X5477812Y-6101789D01*
X5375000Y-6081338D01*
X5125000Y-6081338D01*
X5022188Y-6101789D01*
X5000000Y-6116614D01*
X4977812Y-6101789D01*
X4875000Y-6081338D01*
X4625000Y-6081338D01*
X4522188Y-6101789D01*
X4500000Y-6116614D01*
X4477812Y-6101789D01*
X4375000Y-6081338D01*
X4254228Y-6081338D01*
X4211690Y-5978640D01*
X4168662Y-5935612D01*
X4168662Y-5875000D01*
X4148211Y-5772188D01*
X4133386Y-5750000D01*
X4148211Y-5727812D01*
X4168662Y-5625000D01*
X4168662Y-5375000D01*
X4148211Y-5272188D01*
X4133386Y-5250000D01*
X4148211Y-5227812D01*
X4168662Y-5125000D01*
X4168662Y-4875000D01*
X4148211Y-4772188D01*
X4133386Y-4750000D01*
X4148211Y-4727812D01*
X4168662Y-4625000D01*
X4168662Y-4418662D01*
X4375000Y-4418662D01*
X4477812Y-4398211D01*
X4500000Y-4383386D01*
X4522188Y-4398211D01*
X4625000Y-4418662D01*
X4875000Y-4418662D01*
X4977812Y-4398211D01*
X5000000Y-4383386D01*
X5022188Y-4398211D01*
X5125000Y-4418662D01*
X5375000Y-4418662D01*
X5477812Y-4398211D01*
X5500000Y-4383386D01*
X5522188Y-4398211D01*
X5625000Y-4418662D01*
X5831338Y-4418662D01*
X5831338Y-4625000D01*
X5851789Y-4727812D01*
X5866614Y-4750000D01*
X5851789Y-4772188D01*
X5831338Y-4875000D01*
X5831338Y-5125000D01*
X5851789Y-5227812D01*
X5866614Y-5250000D01*
X5851789Y-5272188D01*
X5831338Y-5375000D01*
X5831338Y-5625000D01*
X5851789Y-5727812D01*
X5910027Y-5814973D01*
X5997188Y-5873211D01*
X6100000Y-5893662D01*
X6778173Y-5893662D01*
X6787448Y-5902937D01*
X6936499Y-5964675D01*
X6936500Y-7019126D01*
X6930359Y-7049999D01*
X6954690Y-7172320D01*
X7006491Y-7249846D01*
X7006493Y-7249848D01*
X7023980Y-7276019D01*
X7050151Y-7293506D01*
X7186491Y-7429846D01*
X7191720Y-7437672D01*
X7176338Y-7515000D01*
X7176338Y-8365000D01*
X7196789Y-8467812D01*
X7236500Y-8527245D01*
X7236500Y-8966236D01*
X7188012Y-9210000D01*
X7236500Y-9453764D01*
X7236500Y-10161500D01*
X1277800Y-10161500D01*
X1255876Y-10051279D01*
X1205332Y-9929257D01*
X1205332Y-9929256D01*
X988560Y-9604833D01*
X895167Y-9511440D01*
X570743Y-9294667D01*
X448721Y-9244124D01*
X338500Y-9222200D01*
X338500Y-6541321D01*
X440118Y-6642939D01*
X610474Y-6713502D01*
X794866Y-6713502D01*
X965222Y-6642939D01*
X1095607Y-6512554D01*
X1166170Y-6342198D01*
X1166170Y-6207804D01*
X1611500Y-6207804D01*
X1611500Y-6392196D01*
X1631338Y-6440090D01*
X1631338Y-6500000D01*
X1651789Y-6602812D01*
X1710027Y-6689973D01*
X1797188Y-6748211D01*
X1900000Y-6768662D01*
X2250000Y-6768662D01*
X2352812Y-6748211D01*
X2439973Y-6689973D01*
X2498211Y-6602812D01*
X2518662Y-6500000D01*
X2518662Y-6440090D01*
X2538500Y-6392196D01*
X2538500Y-6207804D01*
X2518662Y-6159910D01*
X2518662Y-6100000D01*
X2498211Y-5997188D01*
X2439973Y-5910027D01*
X2352812Y-5851789D01*
X2250000Y-5831338D01*
X1900000Y-5831338D01*
X1797188Y-5851789D01*
X1710027Y-5910027D01*
X1651789Y-5997188D01*
X1631338Y-6100000D01*
X1631338Y-6159910D01*
X1611500Y-6207804D01*
X1166170Y-6207804D01*
X1166170Y-6157806D01*
X1095607Y-5987450D01*
X965222Y-5857065D01*
X863498Y-5814930D01*
X863498Y-3668662D01*
X1200000Y-3668662D01*
X1302812Y-3648211D01*
X1389973Y-3589973D01*
X1448211Y-3502812D01*
X1468662Y-3400000D01*
X1468662Y-3000000D01*
X1448211Y-2897188D01*
X1395830Y-2818792D01*
X1423211Y-2777812D01*
X1443662Y-2675000D01*
X1443662Y-2225000D01*
X1423211Y-2122188D01*
X1364973Y-2035027D01*
X1277812Y-1976789D01*
X1175000Y-1956338D01*
X625000Y-1956338D01*
X522188Y-1976789D01*
X435027Y-2035027D01*
X376789Y-2122188D01*
X356338Y-2225000D01*
X356338Y-2675000D01*
X376789Y-2777812D01*
X388430Y-2795234D01*
X338500Y-2815916D01*
X338500Y-1277800D01*
X448721Y-1255876D01*
X570743Y-1205333D01*
X570744Y-1205332D01*
X895167Y-988560D01*
X988560Y-895167D01*
X1131338Y-681484D01*
X1131338Y-1000000D01*
X1151789Y-1102812D01*
X1210027Y-1189973D01*
X1261501Y-1224366D01*
X1261501Y-1344127D01*
X1255360Y-1375000D01*
X1279691Y-1497321D01*
X1331492Y-1574847D01*
X1331494Y-1574849D01*
X1348981Y-1601020D01*
X1375152Y-1618507D01*
X1406338Y-1649693D01*
X1406338Y-1925000D01*
X1426789Y-2027812D01*
X1485027Y-2114973D01*
X1572188Y-2173211D01*
X1666475Y-2191966D01*
X1687448Y-2212939D01*
X1857804Y-2283502D01*
X2042196Y-2283502D01*
X2212552Y-2212939D01*
X2233525Y-2191966D01*
X2327812Y-2173211D01*
X2414973Y-2114973D01*
X2473211Y-2027812D01*
X2493662Y-1925000D01*
X2493662Y-1475000D01*
X2473211Y-1372188D01*
X2414973Y-1285027D01*
X2327812Y-1226789D01*
X2225000Y-1206338D01*
X1915481Y-1206338D01*
X1939973Y-1189973D01*
X1998211Y-1102812D01*
X2018662Y-1000000D01*
X2018662Y-600000D01*
X1998211Y-497188D01*
X1939973Y-410027D01*
X1852812Y-351789D01*
X1786005Y-338500D01*
X2416002Y-338500D01*
X2376789Y-397188D01*
X2376789Y-397188D01*
G37*
X2376789Y-397188D02*
X2356338Y-500000D01*
X2356338Y-900000D01*
X2376789Y-1002812D01*
X2435027Y-1089973D01*
X2522188Y-1148211D01*
X2625000Y-1168662D01*
X2975000Y-1168662D01*
X3077812Y-1148211D01*
X3164973Y-1089973D01*
X3223211Y-1002812D01*
X3243662Y-900000D01*
X3243662Y-500000D01*
X3223211Y-397188D01*
X3183998Y-338500D01*
X7236500Y-338500D01*
X7236500Y-736500D01*
X6844503Y-736500D01*
X6680133Y-769195D01*
X6493740Y-893740D01*
X6369195Y-1080133D01*
X6325461Y-1300000D01*
X6369195Y-1519867D01*
X6456148Y-1650000D01*
X6369195Y-1780133D01*
X6333391Y-1960131D01*
X6252198Y-1926500D01*
X6067806Y-1926500D01*
X5897450Y-1997063D01*
X5767065Y-2127448D01*
X5696502Y-2297804D01*
X5696502Y-2320142D01*
X5550152Y-2466493D01*
X5523981Y-2483980D01*
X5506494Y-2510151D01*
X5506492Y-2510153D01*
X5454691Y-2587679D01*
X5430360Y-2710000D01*
X5436501Y-2740873D01*
X5436501Y-3193571D01*
X5375000Y-3181338D01*
X5125000Y-3181338D01*
X5022188Y-3201789D01*
X5000000Y-3216614D01*
X4977812Y-3201789D01*
X4875000Y-3181338D01*
X4625000Y-3181338D01*
X4522188Y-3201789D01*
X4500000Y-3216614D01*
X4477812Y-3201789D01*
X4375000Y-3181338D01*
X4125000Y-3181338D01*
X4022188Y-3201789D01*
X3935027Y-3260027D01*
X3876789Y-3347188D01*
X3856338Y-3450000D01*
X3856338Y-4106338D01*
X3200000Y-4106338D01*
X3097188Y-4126789D01*
X3010027Y-4185027D01*
X2951789Y-4272188D01*
X2931338Y-4375000D01*
X2931338Y-4625000D01*
X2951789Y-4727812D01*
X2966614Y-4750000D01*
X2951789Y-4772188D01*
X2931338Y-4875000D01*
X2931338Y-5056500D01*
X2767804Y-5056500D01*
X2597448Y-5127063D01*
X2467063Y-5257448D01*
X2396500Y-5427804D01*
X2396500Y-5612196D01*
X2467063Y-5782552D01*
X2546500Y-5861989D01*
X2546501Y-7328105D01*
X2373620Y-7443620D01*
X2221448Y-7671361D01*
X2168012Y-7940000D01*
X2221448Y-8208639D01*
X2373620Y-8436380D01*
X2493285Y-8516338D01*
X2465000Y-8516338D01*
X2362188Y-8536789D01*
X2275027Y-8595027D01*
X2216789Y-8682188D01*
X2196338Y-8785000D01*
X2196338Y-9635000D01*
X2216789Y-9737812D01*
X2275027Y-9824973D01*
X2362188Y-9883211D01*
X2465000Y-9903662D01*
X3315000Y-9903662D01*
X3417812Y-9883211D01*
X3504973Y-9824973D01*
X3525385Y-9794423D01*
X3621361Y-9858552D01*
X3822192Y-9898500D01*
X3957808Y-9898500D01*
X4158639Y-9858552D01*
X4386380Y-9706380D01*
X4390000Y-9700962D01*
X4393620Y-9706380D01*
X4621361Y-9858552D01*
X4822192Y-9898500D01*
X4957808Y-9898500D01*
X5158639Y-9858552D01*
X5386380Y-9706380D01*
X5390000Y-9700962D01*
X5393620Y-9706380D01*
X5621361Y-9858552D01*
X5822192Y-9898500D01*
X5957808Y-9898500D01*
X6158639Y-9858552D01*
X6386380Y-9706380D01*
X6538552Y-9478639D01*
X6591988Y-9210000D01*
X6538552Y-8941361D01*
X6386380Y-8713620D01*
X6168921Y-8568318D01*
X6366380Y-8436380D01*
X6518552Y-8208639D01*
X6571988Y-7940000D01*
X6518552Y-7671361D01*
X6366380Y-7443620D01*
X6138639Y-7291448D01*
X6022506Y-7268348D01*
X6064973Y-7239973D01*
X6123211Y-7152812D01*
X6143662Y-7050000D01*
X6143662Y-6350000D01*
X6123211Y-6247188D01*
X6064973Y-6160027D01*
X5977812Y-6101789D01*
X5875000Y-6081338D01*
X5625000Y-6081338D01*
X5522188Y-6101789D01*
X5500000Y-6116614D01*
X5477812Y-6101789D01*
X5375000Y-6081338D01*
X5125000Y-6081338D01*
X5022188Y-6101789D01*
X5000000Y-6116614D01*
X4977812Y-6101789D01*
X4875000Y-6081338D01*
X4625000Y-6081338D01*
X4522188Y-6101789D01*
X4500000Y-6116614D01*
X4477812Y-6101789D01*
X4375000Y-6081338D01*
X4254228Y-6081338D01*
X4211690Y-5978640D01*
X4168662Y-5935612D01*
X4168662Y-5875000D01*
X4148211Y-5772188D01*
X4133386Y-5750000D01*
X4148211Y-5727812D01*
X4168662Y-5625000D01*
X4168662Y-5375000D01*
X4148211Y-5272188D01*
X4133386Y-5250000D01*
X4148211Y-5227812D01*
X4168662Y-5125000D01*
X4168662Y-4875000D01*
X4148211Y-4772188D01*
X4133386Y-4750000D01*
X4148211Y-4727812D01*
X4168662Y-4625000D01*
X4168662Y-4418662D01*
X4375000Y-4418662D01*
X4477812Y-4398211D01*
X4500000Y-4383386D01*
X4522188Y-4398211D01*
X4625000Y-4418662D01*
X4875000Y-4418662D01*
X4977812Y-4398211D01*
X5000000Y-4383386D01*
X5022188Y-4398211D01*
X5125000Y-4418662D01*
X5375000Y-4418662D01*
X5477812Y-4398211D01*
X5500000Y-4383386D01*
X5522188Y-4398211D01*
X5625000Y-4418662D01*
X5831338Y-4418662D01*
X5831338Y-4625000D01*
X5851789Y-4727812D01*
X5866614Y-4750000D01*
X5851789Y-4772188D01*
X5831338Y-4875000D01*
X5831338Y-5125000D01*
X5851789Y-5227812D01*
X5866614Y-5250000D01*
X5851789Y-5272188D01*
X5831338Y-5375000D01*
X5831338Y-5625000D01*
X5851789Y-5727812D01*
X5910027Y-5814973D01*
X5997188Y-5873211D01*
X6100000Y-5893662D01*
X6778173Y-5893662D01*
X6787448Y-5902937D01*
X6936499Y-5964675D01*
X6936500Y-7019126D01*
X6930359Y-7049999D01*
X6954690Y-7172320D01*
X7006491Y-7249846D01*
X7006493Y-7249848D01*
X7023980Y-7276019D01*
X7050151Y-7293506D01*
X7186491Y-7429846D01*
X7191720Y-7437672D01*
X7176338Y-7515000D01*
X7176338Y-8365000D01*
X7196789Y-8467812D01*
X7236500Y-8527245D01*
X7236500Y-8966236D01*
X7188012Y-9210000D01*
X7236500Y-9453764D01*
X7236500Y-10161500D01*
X1277800Y-10161500D01*
X1255876Y-10051279D01*
X1205332Y-9929257D01*
X1205332Y-9929256D01*
X988560Y-9604833D01*
X895167Y-9511440D01*
X570743Y-9294667D01*
X448721Y-9244124D01*
X338500Y-9222200D01*
X338500Y-6541321D01*
X440118Y-6642939D01*
X610474Y-6713502D01*
X794866Y-6713502D01*
X965222Y-6642939D01*
X1095607Y-6512554D01*
X1166170Y-6342198D01*
X1166170Y-6207804D01*
X1611500Y-6207804D01*
X1611500Y-6392196D01*
X1631338Y-6440090D01*
X1631338Y-6500000D01*
X1651789Y-6602812D01*
X1710027Y-6689973D01*
X1797188Y-6748211D01*
X1900000Y-6768662D01*
X2250000Y-6768662D01*
X2352812Y-6748211D01*
X2439973Y-6689973D01*
X2498211Y-6602812D01*
X2518662Y-6500000D01*
X2518662Y-6440090D01*
X2538500Y-6392196D01*
X2538500Y-6207804D01*
X2518662Y-6159910D01*
X2518662Y-6100000D01*
X2498211Y-5997188D01*
X2439973Y-5910027D01*
X2352812Y-5851789D01*
X2250000Y-5831338D01*
X1900000Y-5831338D01*
X1797188Y-5851789D01*
X1710027Y-5910027D01*
X1651789Y-5997188D01*
X1631338Y-6100000D01*
X1631338Y-6159910D01*
X1611500Y-6207804D01*
X1166170Y-6207804D01*
X1166170Y-6157806D01*
X1095607Y-5987450D01*
X965222Y-5857065D01*
X863498Y-5814930D01*
X863498Y-3668662D01*
X1200000Y-3668662D01*
X1302812Y-3648211D01*
X1389973Y-3589973D01*
X1448211Y-3502812D01*
X1468662Y-3400000D01*
X1468662Y-3000000D01*
X1448211Y-2897188D01*
X1395830Y-2818792D01*
X1423211Y-2777812D01*
X1443662Y-2675000D01*
X1443662Y-2225000D01*
X1423211Y-2122188D01*
X1364973Y-2035027D01*
X1277812Y-1976789D01*
X1175000Y-1956338D01*
X625000Y-1956338D01*
X522188Y-1976789D01*
X435027Y-2035027D01*
X376789Y-2122188D01*
X356338Y-2225000D01*
X356338Y-2675000D01*
X376789Y-2777812D01*
X388430Y-2795234D01*
X338500Y-2815916D01*
X338500Y-1277800D01*
X448721Y-1255876D01*
X570743Y-1205333D01*
X570744Y-1205332D01*
X895167Y-988560D01*
X988560Y-895167D01*
X1131338Y-681484D01*
X1131338Y-1000000D01*
X1151789Y-1102812D01*
X1210027Y-1189973D01*
X1261501Y-1224366D01*
X1261501Y-1344127D01*
X1255360Y-1375000D01*
X1279691Y-1497321D01*
X1331492Y-1574847D01*
X1331494Y-1574849D01*
X1348981Y-1601020D01*
X1375152Y-1618507D01*
X1406338Y-1649693D01*
X1406338Y-1925000D01*
X1426789Y-2027812D01*
X1485027Y-2114973D01*
X1572188Y-2173211D01*
X1666475Y-2191966D01*
X1687448Y-2212939D01*
X1857804Y-2283502D01*
X2042196Y-2283502D01*
X2212552Y-2212939D01*
X2233525Y-2191966D01*
X2327812Y-2173211D01*
X2414973Y-2114973D01*
X2473211Y-2027812D01*
X2493662Y-1925000D01*
X2493662Y-1475000D01*
X2473211Y-1372188D01*
X2414973Y-1285027D01*
X2327812Y-1226789D01*
X2225000Y-1206338D01*
X1915481Y-1206338D01*
X1939973Y-1189973D01*
X1998211Y-1102812D01*
X2018662Y-1000000D01*
X2018662Y-600000D01*
X1998211Y-497188D01*
X1939973Y-410027D01*
X1852812Y-351789D01*
X1786005Y-338500D01*
X2416002Y-338500D01*
X2376789Y-397188D01*
G36*
X6680133Y-2530805D02*
X6844503Y-2563500D01*
X7236500Y-2563500D01*
X7236500Y-2836500D01*
X6844503Y-2836500D01*
X6680133Y-2869195D01*
X6493740Y-2993740D01*
X6369195Y-3180133D01*
X6325461Y-3400000D01*
X6369195Y-3619867D01*
X6493740Y-3806260D01*
X6680133Y-3930805D01*
X6819350Y-3958497D01*
X6800205Y-4004716D01*
X6772552Y-3977063D01*
X6602196Y-3906500D01*
X6417804Y-3906500D01*
X6247448Y-3977063D01*
X6143662Y-4080849D01*
X6143662Y-3450000D01*
X6123211Y-3347188D01*
X6064973Y-3260027D01*
X6063500Y-3259043D01*
X6063500Y-2851716D01*
X6067806Y-2853500D01*
X6252198Y-2853500D01*
X6422554Y-2782937D01*
X6552939Y-2652552D01*
X6620008Y-2490631D01*
X6680133Y-2530805D01*
X6680133Y-2530805D01*
G37*
X6680133Y-2530805D02*
X6844503Y-2563500D01*
X7236500Y-2563500D01*
X7236500Y-2836500D01*
X6844503Y-2836500D01*
X6680133Y-2869195D01*
X6493740Y-2993740D01*
X6369195Y-3180133D01*
X6325461Y-3400000D01*
X6369195Y-3619867D01*
X6493740Y-3806260D01*
X6680133Y-3930805D01*
X6819350Y-3958497D01*
X6800205Y-4004716D01*
X6772552Y-3977063D01*
X6602196Y-3906500D01*
X6417804Y-3906500D01*
X6247448Y-3977063D01*
X6143662Y-4080849D01*
X6143662Y-3450000D01*
X6123211Y-3347188D01*
X6064973Y-3260027D01*
X6063500Y-3259043D01*
X6063500Y-2851716D01*
X6067806Y-2853500D01*
X6252198Y-2853500D01*
X6422554Y-2782937D01*
X6552939Y-2652552D01*
X6620008Y-2490631D01*
X6680133Y-2530805D01*
G36*
X15689502Y-593570D02*
X15618604Y-950000D01*
X15689502Y-1306430D01*
X15891404Y-1608596D01*
X16193570Y-1810498D01*
X16460030Y-1863500D01*
X18339970Y-1863500D01*
X18606430Y-1810498D01*
X18908596Y-1608596D01*
X19110498Y-1306430D01*
X19181396Y-950000D01*
X19110498Y-593570D01*
X18940065Y-338500D01*
X19722200Y-338500D01*
X19744124Y-448721D01*
X19773254Y-519047D01*
X19794667Y-570743D01*
X20011440Y-895167D01*
X20104833Y-988560D01*
X20429256Y-1205332D01*
X20464996Y-1220136D01*
X20551279Y-1255876D01*
X20661500Y-1277800D01*
X20661501Y-9222200D01*
X20551279Y-9244124D01*
X20464996Y-9279864D01*
X20429256Y-9294668D01*
X20104833Y-9511440D01*
X20011440Y-9604833D01*
X19794668Y-9929256D01*
X19794667Y-9929257D01*
X19744124Y-10051279D01*
X19722200Y-10161500D01*
X18940065Y-10161500D01*
X19110498Y-9906430D01*
X19181396Y-9550000D01*
X19110498Y-9193570D01*
X18908596Y-8891404D01*
X18606430Y-8689502D01*
X18339970Y-8636500D01*
X16460030Y-8636500D01*
X16193570Y-8689502D01*
X15891404Y-8891404D01*
X15689502Y-9193570D01*
X15618604Y-9550000D01*
X15689502Y-9906430D01*
X15859935Y-10161500D01*
X7113500Y-10161500D01*
X7113500Y-9913500D01*
X11750000Y-9913500D01*
X11774300Y-9908666D01*
X11794901Y-9894901D01*
X11808666Y-9874300D01*
X11813500Y-9850000D01*
X11813500Y-9423975D01*
X11887188Y-9473211D01*
X11990000Y-9493662D01*
X12290000Y-9493662D01*
X12390000Y-9473770D01*
X12490000Y-9493662D01*
X12790000Y-9493662D01*
X12892812Y-9473211D01*
X12979973Y-9414973D01*
X13038211Y-9327812D01*
X13056656Y-9235084D01*
X13182552Y-9182937D01*
X13312937Y-9052552D01*
X13383500Y-8882196D01*
X13383500Y-8697804D01*
X13312937Y-8527448D01*
X13304151Y-8518662D01*
X13765000Y-8518662D01*
X13867812Y-8498211D01*
X13954973Y-8439973D01*
X14013211Y-8352812D01*
X14033662Y-8250000D01*
X14033662Y-7950000D01*
X14013770Y-7850000D01*
X14033662Y-7750000D01*
X14033662Y-7450000D01*
X14026401Y-7413500D01*
X14700000Y-7413500D01*
X14724300Y-7408666D01*
X14744901Y-7394901D01*
X14758666Y-7374300D01*
X14763500Y-7350000D01*
X14763500Y-6340967D01*
X15087425Y-6930184D01*
X15577924Y-7452512D01*
X16182910Y-7836448D01*
X16864371Y-8057868D01*
X17579487Y-8102859D01*
X18283325Y-7968595D01*
X18931661Y-7663511D01*
X19483757Y-7206778D01*
X19904923Y-6627093D01*
X20168695Y-5960880D01*
X20258500Y-5250000D01*
X20168695Y-4539120D01*
X19904923Y-3872907D01*
X19483757Y-3293222D01*
X18931661Y-2836489D01*
X18283325Y-2531405D01*
X17579487Y-2397141D01*
X16864371Y-2442132D01*
X16182910Y-2663552D01*
X15577924Y-3047488D01*
X15087425Y-3569816D01*
X15003500Y-3722475D01*
X15003500Y-2140868D01*
X15009640Y-2110000D01*
X15003500Y-2079132D01*
X15003500Y-2079127D01*
X14985310Y-1987679D01*
X14916020Y-1883980D01*
X14889848Y-1866493D01*
X14763500Y-1740145D01*
X14763500Y-338500D01*
X15859935Y-338500D01*
X15689502Y-593570D01*
X15689502Y-593570D01*
G37*
X15689502Y-593570D02*
X15618604Y-950000D01*
X15689502Y-1306430D01*
X15891404Y-1608596D01*
X16193570Y-1810498D01*
X16460030Y-1863500D01*
X18339970Y-1863500D01*
X18606430Y-1810498D01*
X18908596Y-1608596D01*
X19110498Y-1306430D01*
X19181396Y-950000D01*
X19110498Y-593570D01*
X18940065Y-338500D01*
X19722200Y-338500D01*
X19744124Y-448721D01*
X19773254Y-519047D01*
X19794667Y-570743D01*
X20011440Y-895167D01*
X20104833Y-988560D01*
X20429256Y-1205332D01*
X20464996Y-1220136D01*
X20551279Y-1255876D01*
X20661500Y-1277800D01*
X20661501Y-9222200D01*
X20551279Y-9244124D01*
X20464996Y-9279864D01*
X20429256Y-9294668D01*
X20104833Y-9511440D01*
X20011440Y-9604833D01*
X19794668Y-9929256D01*
X19794667Y-9929257D01*
X19744124Y-10051279D01*
X19722200Y-10161500D01*
X18940065Y-10161500D01*
X19110498Y-9906430D01*
X19181396Y-9550000D01*
X19110498Y-9193570D01*
X18908596Y-8891404D01*
X18606430Y-8689502D01*
X18339970Y-8636500D01*
X16460030Y-8636500D01*
X16193570Y-8689502D01*
X15891404Y-8891404D01*
X15689502Y-9193570D01*
X15618604Y-9550000D01*
X15689502Y-9906430D01*
X15859935Y-10161500D01*
X7113500Y-10161500D01*
X7113500Y-9913500D01*
X11750000Y-9913500D01*
X11774300Y-9908666D01*
X11794901Y-9894901D01*
X11808666Y-9874300D01*
X11813500Y-9850000D01*
X11813500Y-9423975D01*
X11887188Y-9473211D01*
X11990000Y-9493662D01*
X12290000Y-9493662D01*
X12390000Y-9473770D01*
X12490000Y-9493662D01*
X12790000Y-9493662D01*
X12892812Y-9473211D01*
X12979973Y-9414973D01*
X13038211Y-9327812D01*
X13056656Y-9235084D01*
X13182552Y-9182937D01*
X13312937Y-9052552D01*
X13383500Y-8882196D01*
X13383500Y-8697804D01*
X13312937Y-8527448D01*
X13304151Y-8518662D01*
X13765000Y-8518662D01*
X13867812Y-8498211D01*
X13954973Y-8439973D01*
X14013211Y-8352812D01*
X14033662Y-8250000D01*
X14033662Y-7950000D01*
X14013770Y-7850000D01*
X14033662Y-7750000D01*
X14033662Y-7450000D01*
X14026401Y-7413500D01*
X14700000Y-7413500D01*
X14724300Y-7408666D01*
X14744901Y-7394901D01*
X14758666Y-7374300D01*
X14763500Y-7350000D01*
X14763500Y-6340967D01*
X15087425Y-6930184D01*
X15577924Y-7452512D01*
X16182910Y-7836448D01*
X16864371Y-8057868D01*
X17579487Y-8102859D01*
X18283325Y-7968595D01*
X18931661Y-7663511D01*
X19483757Y-7206778D01*
X19904923Y-6627093D01*
X20168695Y-5960880D01*
X20258500Y-5250000D01*
X20168695Y-4539120D01*
X19904923Y-3872907D01*
X19483757Y-3293222D01*
X18931661Y-2836489D01*
X18283325Y-2531405D01*
X17579487Y-2397141D01*
X16864371Y-2442132D01*
X16182910Y-2663552D01*
X15577924Y-3047488D01*
X15087425Y-3569816D01*
X15003500Y-3722475D01*
X15003500Y-2140868D01*
X15009640Y-2110000D01*
X15003500Y-2079132D01*
X15003500Y-2079127D01*
X14985310Y-1987679D01*
X14916020Y-1883980D01*
X14889848Y-1866493D01*
X14763500Y-1740145D01*
X14763500Y-338500D01*
X15859935Y-338500D01*
X15689502Y-593570D01*
G04 #@! TD*
M02*
