G04 #@! TF.GenerationSoftware,KiCad,Pcbnew,5.0.0-fee4fd1~66~ubuntu16.04.1*
G04 #@! TF.CreationDate,2018-08-08T21:48:41-04:00*
G04 #@! TF.ProjectId,motor controller,6D6F746F7220636F6E74726F6C6C6572,rev?*
G04 #@! TF.SameCoordinates,Original*
G04 #@! TF.FileFunction,Copper,L2,Bot,Signal*
G04 #@! TF.FilePolarity,Positive*
%FSLAX46Y46*%
G04 Gerber Fmt 4.6, Leading zero omitted, Abs format (unit mm)*
G04 Created by KiCad (PCBNEW 5.0.0-fee4fd1~66~ubuntu16.04.1) date Wed Aug  8 21:48:41 2018*
%MOMM*%
%LPD*%
G01*
G04 APERTURE LIST*
G04 #@! TA.AperFunction,SMDPad,CuDef*
%ADD10R,0.250000X0.700000*%
G04 #@! TD*
G04 #@! TA.AperFunction,SMDPad,CuDef*
%ADD11R,0.700000X0.250000*%
G04 #@! TD*
G04 #@! TA.AperFunction,SMDPad,CuDef*
%ADD12R,1.700000X1.700000*%
G04 #@! TD*
G04 #@! TA.AperFunction,SMDPad,CuDef*
%ADD13R,3.450000X3.450000*%
G04 #@! TD*
G04 #@! TA.AperFunction,ComponentPad*
%ADD14C,1.700000*%
G04 #@! TD*
G04 #@! TA.AperFunction,SMDPad,CuDef*
%ADD15R,0.650000X0.575000*%
G04 #@! TD*
G04 #@! TA.AperFunction,SMDPad,CuDef*
%ADD16R,1.800000X1.220000*%
G04 #@! TD*
G04 #@! TA.AperFunction,SMDPad,CuDef*
%ADD17R,0.575000X0.650000*%
G04 #@! TD*
G04 #@! TA.AperFunction,SMDPad,CuDef*
%ADD18R,0.900000X0.800000*%
G04 #@! TD*
G04 #@! TA.AperFunction,ViaPad*
%ADD19C,0.410000*%
G04 #@! TD*
G04 #@! TA.AperFunction,Conductor*
%ADD20C,0.150000*%
G04 #@! TD*
G04 #@! TA.AperFunction,Conductor*
%ADD21C,0.254000*%
G04 #@! TD*
G04 APERTURE END LIST*
D10*
G04 #@! TO.P,IC1,16*
G04 #@! TO.N,Net-(IC1-Pad16)*
X9250000Y-7550000D03*
G04 #@! TO.P,IC1,15*
G04 #@! TO.N,Net-(IC1-Pad15)*
X8750000Y-7550000D03*
G04 #@! TO.P,IC1,14*
G04 #@! TO.N,Net-(IC1-Pad14)*
X8250000Y-7550000D03*
G04 #@! TO.P,IC1,13*
G04 #@! TO.N,+3V3*
X7750000Y-7550000D03*
D11*
G04 #@! TO.P,IC1,12*
G04 #@! TO.N,SCK*
X7050000Y-8250000D03*
G04 #@! TO.P,IC1,11*
G04 #@! TO.N,Net-(IC1-Pad11)*
X7050000Y-8750000D03*
G04 #@! TO.P,IC1,10*
G04 #@! TO.N,Net-(IC1-Pad10)*
X7050000Y-9250000D03*
G04 #@! TO.P,IC1,9*
G04 #@! TO.N,N/C*
X7050000Y-9750000D03*
D10*
G04 #@! TO.P,IC1,8*
G04 #@! TO.N,GND*
X7750000Y-10450000D03*
G04 #@! TO.P,IC1,7*
G04 #@! TO.N,MISO*
X8250000Y-10450000D03*
G04 #@! TO.P,IC1,6*
G04 #@! TO.N,Net-(IC1-Pad6)*
X8750000Y-10450000D03*
G04 #@! TO.P,IC1,5*
G04 #@! TO.N,ENC_CS*
X9250000Y-10450000D03*
D11*
G04 #@! TO.P,IC1,4*
G04 #@! TO.N,MOSI*
X9950000Y-9750000D03*
G04 #@! TO.P,IC1,3*
G04 #@! TO.N,Net-(IC1-Pad3)*
X9950000Y-9250000D03*
G04 #@! TO.P,IC1,2*
G04 #@! TO.N,Net-(IC1-Pad2)*
X9950000Y-8750000D03*
G04 #@! TO.P,IC1,1*
G04 #@! TO.N,Net-(IC1-Pad1)*
X9950000Y-8250000D03*
D12*
G04 #@! TO.P,IC1,17*
G04 #@! TO.N,GND*
X8500000Y-9000000D03*
G04 #@! TD*
D11*
G04 #@! TO.P,U1,1*
G04 #@! TO.N,+3V3*
X13600000Y-7220000D03*
G04 #@! TO.P,U1,2*
G04 #@! TO.N,Net-(C1-Pad1)*
X13600000Y-6720000D03*
G04 #@! TO.P,U1,3*
G04 #@! TO.N,Net-(C2-Pad2)*
X13600000Y-6220000D03*
G04 #@! TO.P,U1,4*
G04 #@! TO.N,Net-(U1-Pad4)*
X13600000Y-5720000D03*
G04 #@! TO.P,U1,5*
G04 #@! TO.N,+3V3*
X13600000Y-5220000D03*
G04 #@! TO.P,U1,6*
G04 #@! TO.N,signaling*
X13600000Y-4720000D03*
G04 #@! TO.P,U1,7*
G04 #@! TO.N,Net-(U1-Pad7)*
X13600000Y-4220000D03*
G04 #@! TO.P,U1,8*
G04 #@! TO.N,Net-(U1-Pad8)*
X13600000Y-3720000D03*
D10*
G04 #@! TO.P,U1,9*
G04 #@! TO.N,Net-(U1-Pad9)*
X14250000Y-3070000D03*
G04 #@! TO.P,U1,10*
G04 #@! TO.N,CS*
X14750000Y-3070000D03*
G04 #@! TO.P,U1,11*
G04 #@! TO.N,SCK*
X15250000Y-3070000D03*
G04 #@! TO.P,U1,12*
G04 #@! TO.N,MISO*
X15750000Y-3070000D03*
G04 #@! TO.P,U1,13*
G04 #@! TO.N,MOSI*
X16250000Y-3070000D03*
G04 #@! TO.P,U1,14*
G04 #@! TO.N,FB*
X16750000Y-3070000D03*
G04 #@! TO.P,U1,15*
G04 #@! TO.N,IN2*
X17250000Y-3070000D03*
G04 #@! TO.P,U1,16*
G04 #@! TO.N,GND*
X17750000Y-3070000D03*
D11*
G04 #@! TO.P,U1,17*
G04 #@! TO.N,+3V3*
X18400000Y-3720000D03*
G04 #@! TO.P,U1,18*
G04 #@! TO.N,Net-(U1-Pad18)*
X18400000Y-4220000D03*
G04 #@! TO.P,U1,19*
G04 #@! TO.N,Net-(U1-Pad19)*
X18400000Y-4720000D03*
G04 #@! TO.P,U1,20*
G04 #@! TO.N,Net-(U1-Pad20)*
X18400000Y-5220000D03*
G04 #@! TO.P,U1,21*
G04 #@! TO.N,Net-(U1-Pad21)*
X18400000Y-5720000D03*
G04 #@! TO.P,U1,22*
G04 #@! TO.N,D2*
X18400000Y-6220000D03*
G04 #@! TO.P,U1,23*
G04 #@! TO.N,SWDIO*
X18400000Y-6720000D03*
G04 #@! TO.P,U1,24*
G04 #@! TO.N,SWCLK*
X18400000Y-7220000D03*
D10*
G04 #@! TO.P,U1,25*
G04 #@! TO.N,IN1*
X17750000Y-7870000D03*
G04 #@! TO.P,U1,26*
G04 #@! TO.N,D1*
X17250000Y-7870000D03*
G04 #@! TO.P,U1,27*
G04 #@! TO.N,Net-(U1-Pad27)*
X16750000Y-7870000D03*
G04 #@! TO.P,U1,28*
G04 #@! TO.N,Net-(U1-Pad28)*
X16250000Y-7870000D03*
G04 #@! TO.P,U1,29*
G04 #@! TO.N,Net-(U1-Pad29)*
X15750000Y-7870000D03*
G04 #@! TO.P,U1,30*
G04 #@! TO.N,ENC_CS*
X15250000Y-7870000D03*
G04 #@! TO.P,U1,31*
G04 #@! TO.N,Net-(R1-Pad1)*
X14750000Y-7870000D03*
G04 #@! TO.P,U1,32*
G04 #@! TO.N,GND*
X14250000Y-7870000D03*
D13*
G04 #@! TO.P,U1,33*
X16000000Y-5470000D03*
G04 #@! TD*
D14*
G04 #@! TO.P,M1,1*
G04 #@! TO.N,OUT2*
X28500000Y-13400000D03*
G04 #@! TO.P,M1,2*
G04 #@! TO.N,OUT1*
X28500000Y-4600000D03*
G04 #@! TD*
D15*
G04 #@! TO.P,C1,2*
G04 #@! TO.N,GND*
X7490000Y-5265000D03*
G04 #@! TO.P,C1,1*
G04 #@! TO.N,Net-(C1-Pad1)*
X7490000Y-4490000D03*
G04 #@! TD*
G04 #@! TO.P,C2,1*
G04 #@! TO.N,GND*
X11390000Y-4512500D03*
G04 #@! TO.P,C2,2*
G04 #@! TO.N,Net-(C2-Pad2)*
X11390000Y-5287500D03*
G04 #@! TD*
G04 #@! TO.P,C5,2*
G04 #@! TO.N,GND*
X21100000Y-1862500D03*
G04 #@! TO.P,C5,1*
G04 #@! TO.N,FB*
X21100000Y-1087500D03*
G04 #@! TD*
D16*
G04 #@! TO.P,C7,2*
G04 #@! TO.N,GND*
X13740000Y-11730000D03*
G04 #@! TO.P,C7,1*
G04 #@! TO.N,+BATT*
X13740000Y-14590000D03*
G04 #@! TD*
D15*
G04 #@! TO.P,R1,2*
G04 #@! TO.N,GND*
X14770000Y-10055000D03*
G04 #@! TO.P,R1,1*
G04 #@! TO.N,Net-(R1-Pad1)*
X14770000Y-9280000D03*
G04 #@! TD*
G04 #@! TO.P,R4,1*
G04 #@! TO.N,FB*
X22050000Y-1087500D03*
G04 #@! TO.P,R4,2*
G04 #@! TO.N,GND*
X22050000Y-1862500D03*
G04 #@! TD*
D17*
G04 #@! TO.P,R5,1*
G04 #@! TO.N,Net-(IC2-Pad1)*
X34677500Y-16002000D03*
G04 #@! TO.P,R5,2*
G04 #@! TO.N,IN2*
X33902500Y-16002000D03*
G04 #@! TD*
G04 #@! TO.P,R6,2*
G04 #@! TO.N,IN1*
X33902500Y-14986000D03*
G04 #@! TO.P,R6,1*
G04 #@! TO.N,Net-(IC2-Pad2)*
X34677500Y-14986000D03*
G04 #@! TD*
D15*
G04 #@! TO.P,C4,1*
G04 #@! TO.N,+BATT*
X15494000Y-13475000D03*
G04 #@! TO.P,C4,2*
G04 #@! TO.N,GND*
X15494000Y-12700000D03*
G04 #@! TD*
D17*
G04 #@! TO.P,R2,1*
G04 #@! TO.N,Net-(D1-Pad2)*
X2402500Y-6530000D03*
G04 #@! TO.P,R2,2*
G04 #@! TO.N,signaling*
X3177500Y-6530000D03*
G04 #@! TD*
D18*
G04 #@! TO.P,Y1,1*
G04 #@! TO.N,Net-(C1-Pad1)*
X8760000Y-4440000D03*
G04 #@! TO.P,Y1,2*
G04 #@! TO.N,GND*
X10160000Y-4440000D03*
G04 #@! TO.P,Y1,3*
G04 #@! TO.N,Net-(C2-Pad2)*
X10160000Y-5540000D03*
G04 #@! TO.P,Y1,4*
G04 #@! TO.N,GND*
X8760000Y-5540000D03*
G04 #@! TD*
D19*
G04 #@! TO.N,*
X4420000Y-3700000D03*
X5250000Y-5460000D03*
G04 #@! TO.N,GND*
X29800000Y-11800000D03*
X29100000Y-11800000D03*
X29100000Y-11000000D03*
X29800000Y-11000000D03*
X29800000Y-10200000D03*
X29100000Y-10200000D03*
X29800000Y-8600000D03*
X29100000Y-8600000D03*
X29800000Y-7800000D03*
X29100000Y-7800000D03*
X29800000Y-7000000D03*
X29100000Y-7000000D03*
X30900000Y-11600000D03*
X31400000Y-11600000D03*
X31900000Y-10600000D03*
X31900000Y-11100000D03*
X31400000Y-11100000D03*
X31400000Y-10600000D03*
X30900000Y-11100000D03*
X30900000Y-10600000D03*
X31900000Y-10100000D03*
X31400000Y-10100000D03*
X30900000Y-10100000D03*
X30900000Y-9600000D03*
X31400000Y-9600000D03*
X31900000Y-9600000D03*
X31900000Y-9100000D03*
X31400000Y-9100000D03*
X30900000Y-9100000D03*
X31900000Y-8600000D03*
X31400000Y-8600000D03*
X30900000Y-8600000D03*
X31900000Y-8100000D03*
X31400000Y-8100000D03*
X30900000Y-8100000D03*
X31900000Y-7600000D03*
X31400000Y-7600000D03*
X30900000Y-7600000D03*
X31900000Y-7100000D03*
X31400000Y-7100000D03*
X30900000Y-7100000D03*
X31900000Y-6600000D03*
X31400000Y-6600000D03*
X30900000Y-6600000D03*
X23900000Y-16230000D03*
X25700000Y-12120000D03*
X14700000Y-12300000D03*
X14200000Y-12300000D03*
X14200000Y-11700000D03*
X13700000Y-11700000D03*
X13700000Y-12300000D03*
X13200000Y-12300000D03*
X13200000Y-11700000D03*
X12700000Y-11700000D03*
X12700000Y-12300000D03*
X12200000Y-12300000D03*
X12200000Y-11700000D03*
X11000000Y-11700000D03*
X11000000Y-12300000D03*
X10500000Y-12300000D03*
X10500000Y-11700000D03*
X10000000Y-11700000D03*
X10000000Y-12300000D03*
X9500000Y-12300000D03*
X9500000Y-11700000D03*
X9000000Y-11700000D03*
X9000000Y-12300000D03*
X8500000Y-12300000D03*
X8500000Y-11700000D03*
X14700000Y-11700000D03*
X21590000Y-15119500D03*
X23876000Y-14820000D03*
X27000000Y-6100000D03*
X27500000Y-6100000D03*
X28000000Y-6100000D03*
X28500000Y-6100000D03*
X28500000Y-6600000D03*
X28000000Y-6600000D03*
X27500000Y-6600000D03*
X27000000Y-6600000D03*
X27000000Y-7100000D03*
X27500000Y-7100000D03*
X28000000Y-7100000D03*
X28500000Y-7100000D03*
X28500000Y-7600000D03*
X28000000Y-7600000D03*
X27500000Y-7600000D03*
X27000000Y-7600000D03*
X27000000Y-8100000D03*
X27500000Y-8100000D03*
X28000000Y-8100000D03*
X28500000Y-8100000D03*
X27000000Y-8100000D03*
X27000000Y-8100000D03*
X27000000Y-8600000D03*
X27500000Y-8600000D03*
X28000000Y-8600000D03*
X28500000Y-8600000D03*
X27000000Y-9100000D03*
X27500000Y-9100000D03*
X28000000Y-9100000D03*
X28500000Y-9100000D03*
X28500000Y-9600000D03*
X28000000Y-9600000D03*
X27500000Y-9600000D03*
X27000000Y-9600000D03*
X27000000Y-10100000D03*
X27500000Y-10100000D03*
X28000000Y-10100000D03*
X28500000Y-10100000D03*
X27000000Y-10600000D03*
X27500000Y-10600000D03*
X28000000Y-10600000D03*
X28500000Y-10600000D03*
X28500000Y-11100000D03*
X28000000Y-11100000D03*
X27500000Y-11100000D03*
X27000000Y-11100000D03*
X27000000Y-11600000D03*
X27500000Y-11600000D03*
X28000000Y-11600000D03*
X28500000Y-11600000D03*
X31400000Y-1400000D03*
X31900000Y-3307000D03*
X31900000Y-2493000D03*
X1400000Y-9800000D03*
X21400000Y-9900000D03*
X12240000Y-4970000D03*
X12990000Y-2584010D03*
X15850000Y-9030000D03*
X16000000Y-5470000D03*
G04 #@! TO.N,+3V3*
X12900000Y-7167998D03*
X12800000Y-5100000D03*
X18400000Y-3720000D03*
X19200000Y-4900000D03*
X24890000Y-12060000D03*
X35290000Y-5150000D03*
X30847000Y-2900000D03*
X7090000Y-7480000D03*
X16310000Y-11060000D03*
G04 #@! TO.N,+BATT*
X35300000Y-14000000D03*
X35300000Y-12500000D03*
X35300000Y-13300000D03*
X34500000Y-5400000D03*
X34500000Y-4800000D03*
X36800000Y-9400000D03*
X37500000Y-9400000D03*
X37400000Y-7800000D03*
X36800000Y-7800000D03*
X13700000Y-13700000D03*
X13700000Y-14300000D03*
X13200000Y-14300000D03*
X13200000Y-13700000D03*
X32800000Y-900000D03*
X32800000Y-1400000D03*
X32800000Y-1900000D03*
X32800000Y-2400000D03*
X32800000Y-2900000D03*
X33300000Y-2900000D03*
X33300000Y-2400000D03*
X33300000Y-1900000D03*
X33300000Y-1400000D03*
X33300000Y-900000D03*
X33800000Y-900000D03*
X33800000Y-1400000D03*
X33800000Y-1900000D03*
X33800000Y-2400000D03*
X33800000Y-2900000D03*
X34300000Y-2900000D03*
X34300000Y-2400000D03*
X34300000Y-1900000D03*
X34300000Y-1400000D03*
X34300000Y-900000D03*
X34800000Y-1900000D03*
X34500000Y-3400000D03*
X34500000Y-3900000D03*
G04 #@! TO.N,FB*
X28800000Y-907000D03*
X29930257Y-654672D03*
X37140000Y-6200000D03*
G04 #@! TO.N,MOSI*
X15271295Y-1493000D03*
X9790000Y-10000000D03*
G04 #@! TO.N,CS*
X14712997Y-3070000D03*
G04 #@! TO.N,MISO*
X13430000Y-8000000D03*
X15787003Y-3070000D03*
X6140000Y-11130000D03*
X7014290Y-6705136D03*
X5980000Y-8110000D03*
G04 #@! TO.N,Net-(IC2-Pad1)*
X34677500Y-16002000D03*
G04 #@! TO.N,Net-(IC2-Pad2)*
X37140000Y-11000000D03*
G04 #@! TO.N,Net-(IC2-Pad3)*
X37593000Y-4800000D03*
X37140000Y-10200000D03*
G04 #@! TO.N,Net-(IC2-Pad16)*
X30493000Y-1524000D03*
X30490000Y-5150000D03*
G04 #@! TO.N,Net-(IC2-Pad26)*
X31375500Y-16764000D03*
X31290000Y-12850000D03*
G04 #@! TO.N,D1*
X30600500Y-16764000D03*
X17800000Y-12600000D03*
X17230000Y-9930000D03*
G04 #@! TO.N,D2*
X20470000Y-3310000D03*
G04 #@! TO.N,SCK*
X15250000Y-3070000D03*
X9300000Y-6400000D03*
X7370000Y-3807000D03*
G04 #@! TO.N,SWDIO*
X21400000Y-5400000D03*
G04 #@! TO.N,SWCLK*
X21400000Y-6900000D03*
G04 #@! TO.N,ENC_CS*
X13900000Y-9100000D03*
X15250000Y-7870000D03*
G04 #@! TO.N,Net-(D1-Pad2)*
X1400000Y-8200000D03*
G04 #@! TO.N,IN2*
X17250000Y-3070000D03*
X16830000Y-8860000D03*
X29810000Y-15440000D03*
X33902500Y-16002000D03*
G04 #@! TO.N,IN1*
X31900000Y-15000000D03*
X30900000Y-15000000D03*
X26160000Y-14580000D03*
X17990000Y-9530000D03*
X19100000Y-12020000D03*
G04 #@! TD*
D20*
G04 #@! TO.N,*
X4430000Y-3710000D02*
X4420000Y-3700000D01*
X4440000Y-3710000D02*
X4430000Y-3710000D01*
G04 #@! TO.N,GND*
X31900000Y-6600000D02*
X31900000Y-3307000D01*
X8550000Y-8250000D02*
X8050000Y-8250000D01*
X11349000Y-4825000D02*
X11350000Y-4826000D01*
X8485000Y-5265000D02*
X8760000Y-5540000D01*
X7490000Y-5265000D02*
X8485000Y-5265000D01*
X8810000Y-5540000D02*
X9430000Y-4920000D01*
X8760000Y-5540000D02*
X8810000Y-5540000D01*
X9560000Y-4440000D02*
X10160000Y-4440000D01*
X9430000Y-4570000D02*
X9560000Y-4440000D01*
X9430000Y-4920000D02*
X9430000Y-4570000D01*
X11317500Y-4440000D02*
X11390000Y-4512500D01*
X10160000Y-4440000D02*
X11317500Y-4440000D01*
X11865000Y-4512500D02*
X12110000Y-4757500D01*
X11390000Y-4512500D02*
X11865000Y-4512500D01*
X12110000Y-4840000D02*
X12240000Y-4970000D01*
X12110000Y-4757500D02*
X12110000Y-4840000D01*
X16000000Y-5620000D02*
X16000000Y-5470000D01*
X14250000Y-7370000D02*
X16000000Y-5620000D01*
X14250000Y-7870000D02*
X14250000Y-7370000D01*
X14700000Y-11700000D02*
X15340000Y-11700000D01*
X15850000Y-11190000D02*
X15850000Y-9030000D01*
X15340000Y-11700000D02*
X15850000Y-11190000D01*
X13975000Y-7870000D02*
X13795000Y-7690000D01*
X14250000Y-7870000D02*
X13975000Y-7870000D01*
X13697999Y-7592999D02*
X12572999Y-7592999D01*
X13795000Y-7690000D02*
X13697999Y-7592999D01*
X12170000Y-7190000D02*
X12170000Y-7167998D01*
X12572999Y-7592999D02*
X12170000Y-7167998D01*
X8300000Y-9000000D02*
X8500000Y-9000000D01*
X7750000Y-9750000D02*
X8500000Y-9000000D01*
X7750000Y-10450000D02*
X7750000Y-9750000D01*
G04 #@! TO.N,Net-(C1-Pad1)*
X8760000Y-4440000D02*
X8800000Y-4440000D01*
X8710000Y-4490000D02*
X8760000Y-4440000D01*
X7490000Y-4490000D02*
X8710000Y-4490000D01*
X13100000Y-6720000D02*
X13600000Y-6720000D01*
X9767001Y-6807001D02*
X9854002Y-6720000D01*
X9854002Y-6720000D02*
X13100000Y-6720000D01*
X8827001Y-6807001D02*
X9767001Y-6807001D01*
X8380000Y-6360000D02*
X8827001Y-6807001D01*
X7230000Y-6360000D02*
X8380000Y-6360000D01*
X7015000Y-4490000D02*
X6600000Y-4905000D01*
X6600000Y-4905000D02*
X6600000Y-5730000D01*
X7490000Y-4490000D02*
X7015000Y-4490000D01*
X6600000Y-5730000D02*
X7230000Y-6360000D01*
G04 #@! TO.N,Net-(C2-Pad2)*
X10315000Y-5575000D02*
X10065000Y-5575000D01*
X11137500Y-5540000D02*
X11390000Y-5287500D01*
X10160000Y-5540000D02*
X11137500Y-5540000D01*
X13100000Y-6220000D02*
X13600000Y-6220000D01*
X11390000Y-5725000D02*
X11885000Y-6220000D01*
X11885000Y-6220000D02*
X13100000Y-6220000D01*
X11390000Y-5287500D02*
X11390000Y-5725000D01*
G04 #@! TO.N,+3V3*
X12952002Y-7220000D02*
X12900000Y-7167998D01*
X13600000Y-7220000D02*
X12952002Y-7220000D01*
X12920000Y-5220000D02*
X12800000Y-5100000D01*
X13600000Y-5220000D02*
X12920000Y-5220000D01*
X18900000Y-3720000D02*
X19180000Y-4000000D01*
X18400000Y-3720000D02*
X18900000Y-3720000D01*
X19180000Y-4880000D02*
X19200000Y-4900000D01*
X19180000Y-4000000D02*
X19180000Y-4880000D01*
X35290000Y-4987638D02*
X35100000Y-4797638D01*
X35290000Y-5150000D02*
X35290000Y-4987638D01*
X35097638Y-4797638D02*
X34607001Y-4307001D01*
X35100000Y-4797638D02*
X35097638Y-4797638D01*
X34607001Y-4307001D02*
X33607001Y-4307001D01*
X32200000Y-2900000D02*
X30847000Y-2900000D01*
X33607001Y-4307001D02*
X32200000Y-2900000D01*
X7750000Y-7023000D02*
X7750000Y-7550000D01*
X7160000Y-7550000D02*
X7090000Y-7480000D01*
X7750000Y-7550000D02*
X7160000Y-7550000D01*
G04 #@! TO.N,+BATT*
X14095000Y-13475000D02*
X15019000Y-13475000D01*
X13740000Y-13830000D02*
X14095000Y-13475000D01*
X15019000Y-13475000D02*
X15494000Y-13475000D01*
X13740000Y-14590000D02*
X13740000Y-13830000D01*
G04 #@! TO.N,FB*
X16750000Y-2570000D02*
X16800000Y-2520000D01*
X16750000Y-3070000D02*
X16750000Y-2570000D01*
X16800000Y-2520000D02*
X16800000Y-2200000D01*
X17912500Y-1087500D02*
X21100000Y-1087500D01*
X16800000Y-2200000D02*
X17912500Y-1087500D01*
X21100000Y-1087500D02*
X22050000Y-1087500D01*
X22525000Y-1087500D02*
X22835490Y-777010D01*
X22050000Y-1087500D02*
X22525000Y-1087500D01*
X22835490Y-777010D02*
X28200000Y-777010D01*
X28670010Y-777010D02*
X28800000Y-907000D01*
X28200000Y-777010D02*
X28670010Y-777010D01*
X36900000Y-6200000D02*
X37140000Y-6200000D01*
X36100000Y-5400000D02*
X36900000Y-6200000D01*
X32107001Y-492999D02*
X34495361Y-492999D01*
X31945328Y-654672D02*
X32107001Y-492999D01*
X36100000Y-3100000D02*
X36100000Y-5400000D01*
X29930257Y-654672D02*
X31945328Y-654672D01*
X34495361Y-492999D02*
X34707001Y-704639D01*
X35250459Y-1748097D02*
X35250459Y-2250459D01*
X35250459Y-2250459D02*
X36100000Y-3100000D01*
X34707001Y-704639D02*
X34707001Y-1207001D01*
X34707001Y-1207001D02*
X34709363Y-1207001D01*
X34709363Y-1207001D02*
X35250459Y-1748097D01*
G04 #@! TO.N,MOSI*
X16250000Y-3070000D02*
X16250000Y-2250000D01*
X15493000Y-1493000D02*
X15271295Y-1493000D01*
X16250000Y-2250000D02*
X15493000Y-1493000D01*
X9950000Y-9840000D02*
X9790000Y-10000000D01*
X9950000Y-9750000D02*
X9950000Y-9840000D01*
G04 #@! TO.N,CS*
X14750000Y-3070000D02*
X14712997Y-3070000D01*
G04 #@! TO.N,MISO*
X8250000Y-10950000D02*
X7870000Y-11330000D01*
X8250000Y-10450000D02*
X8250000Y-10950000D01*
X6340000Y-11330000D02*
X6140000Y-11130000D01*
X7870000Y-11330000D02*
X6340000Y-11330000D01*
X6724377Y-6705136D02*
X6110000Y-7319513D01*
X7014290Y-6705136D02*
X6724377Y-6705136D01*
X6110000Y-7319513D02*
X6110000Y-7890000D01*
X6110000Y-7980000D02*
X5980000Y-8110000D01*
X6110000Y-7890000D02*
X6110000Y-7980000D01*
G04 #@! TO.N,Net-(IC2-Pad2)*
X34677500Y-14986000D02*
X36214000Y-14986000D01*
X37140000Y-14060000D02*
X37140000Y-11000000D01*
X36214000Y-14986000D02*
X37140000Y-14060000D01*
G04 #@! TO.N,Net-(IC2-Pad3)*
X36392999Y-7604639D02*
X36392999Y-8092999D01*
X37593000Y-6404638D02*
X36392999Y-7604639D01*
X37593000Y-4800000D02*
X37593000Y-6404638D01*
X36392999Y-7600000D02*
X36392999Y-9700000D01*
X36892999Y-10200000D02*
X37140000Y-10200000D01*
X36392999Y-9700000D02*
X36892999Y-10200000D01*
G04 #@! TO.N,Net-(IC2-Pad16)*
X30493000Y-1999000D02*
X30440000Y-2052000D01*
X30493000Y-1524000D02*
X30493000Y-1999000D01*
X30440000Y-5100000D02*
X30490000Y-5150000D01*
X30440000Y-2052000D02*
X30440000Y-5100000D01*
G04 #@! TO.N,Net-(IC2-Pad26)*
X31375500Y-16764000D02*
X31375500Y-13895500D01*
X31290000Y-13810000D02*
X31290000Y-12850000D01*
X31375500Y-13895500D02*
X31290000Y-13810000D01*
G04 #@! TO.N,Net-(R1-Pad1)*
X14750000Y-9260000D02*
X14770000Y-9280000D01*
X14750000Y-7870000D02*
X14750000Y-9260000D01*
G04 #@! TO.N,D1*
X17800000Y-14689913D02*
X20310087Y-17200000D01*
X17800000Y-14400000D02*
X17800000Y-14689913D01*
X20310087Y-17200000D02*
X29200000Y-17200000D01*
X29636000Y-16764000D02*
X30600500Y-16764000D01*
X29200000Y-17200000D02*
X29636000Y-16764000D01*
X17800000Y-14400000D02*
X17800000Y-12600000D01*
X17250000Y-9910000D02*
X17230000Y-9930000D01*
X17250000Y-7870000D02*
X17250000Y-9910000D01*
G04 #@! TO.N,D2*
X18400000Y-6220000D02*
X19230000Y-6220000D01*
X19230000Y-6220000D02*
X19850000Y-5600000D01*
X19850000Y-3930000D02*
X20470000Y-3310000D01*
X19850000Y-5600000D02*
X19850000Y-3930000D01*
G04 #@! TO.N,SCK*
X6550000Y-8250000D02*
X6170000Y-8630000D01*
X7050000Y-8250000D02*
X6550000Y-8250000D01*
X6170000Y-8630000D02*
X5890000Y-8630000D01*
X5890000Y-8630000D02*
X5340000Y-8630000D01*
X5340000Y-8630000D02*
X5100000Y-8390000D01*
X5100000Y-8390000D02*
X5100000Y-6640000D01*
X6322990Y-5417010D02*
X6322990Y-4680908D01*
X5100000Y-6640000D02*
X6322990Y-5417010D01*
X6322990Y-4680908D02*
X7196898Y-3807000D01*
X7196898Y-3807000D02*
X7370000Y-3807000D01*
G04 #@! TO.N,SWDIO*
X19410000Y-6720000D02*
X20730000Y-5400000D01*
X20730000Y-5400000D02*
X21400000Y-5400000D01*
X18400000Y-6720000D02*
X19410000Y-6720000D01*
G04 #@! TO.N,SWCLK*
X20240000Y-6900000D02*
X21400000Y-6900000D01*
X19920000Y-7220000D02*
X20240000Y-6900000D01*
X18400000Y-7220000D02*
X19920000Y-7220000D01*
G04 #@! TO.N,ENC_CS*
X13800000Y-9200000D02*
X13900000Y-9100000D01*
X12170000Y-9100000D02*
X13900000Y-9100000D01*
X10820000Y-10450000D02*
X12170000Y-9100000D01*
X9250000Y-10450000D02*
X10820000Y-10450000D01*
G04 #@! TO.N,Net-(D1-Pad2)*
X1400000Y-7095000D02*
X1995000Y-6500000D01*
X1400000Y-8200000D02*
X1400000Y-7095000D01*
X2372500Y-6500000D02*
X2402500Y-6530000D01*
X1995000Y-6500000D02*
X2372500Y-6500000D01*
G04 #@! TO.N,signaling*
X13600000Y-4720000D02*
X13100000Y-4720000D01*
X3177500Y-6055000D02*
X5832500Y-3400000D01*
X3177500Y-6530000D02*
X3177500Y-6055000D01*
X5832500Y-3400000D02*
X11680000Y-3400000D01*
X13000000Y-4720000D02*
X13100000Y-4720000D01*
X11680000Y-3400000D02*
X13000000Y-4720000D01*
G04 #@! TO.N,IN2*
X16625001Y-9064999D02*
X16625001Y-10135001D01*
X16830000Y-8860000D02*
X16625001Y-9064999D01*
X19220000Y-12480000D02*
X19402990Y-12297010D01*
X18957638Y-12480000D02*
X19220000Y-12480000D01*
X19402990Y-12297010D02*
X22087010Y-12297010D01*
X24647009Y-14857009D02*
X24665259Y-14857010D01*
X22087010Y-12297010D02*
X24647009Y-14857009D01*
X25834648Y-14857010D02*
X26207638Y-15230000D01*
X24665259Y-14857010D02*
X25834648Y-14857010D01*
X26228249Y-15230000D02*
X26288249Y-15290000D01*
X26207638Y-15230000D02*
X26228249Y-15230000D01*
X29660000Y-15290000D02*
X29810000Y-15440000D01*
X26288249Y-15290000D02*
X29660000Y-15290000D01*
X16625001Y-10147363D02*
X18957638Y-12480000D01*
X16625001Y-10135001D02*
X16625001Y-10147363D01*
G04 #@! TO.N,IN1*
X31914000Y-14986000D02*
X31900000Y-15000000D01*
X33902500Y-14986000D02*
X31914000Y-14986000D01*
X30900000Y-15000000D02*
X28000000Y-15000000D01*
X28000000Y-15000000D02*
X26390000Y-15000000D01*
X26160000Y-14770000D02*
X26160000Y-14580000D01*
X26390000Y-15000000D02*
X26160000Y-14770000D01*
X17750000Y-9290000D02*
X17990000Y-9530000D01*
X17750000Y-7870000D02*
X17750000Y-9290000D01*
X19100000Y-12020000D02*
X22220000Y-12020000D01*
X24780000Y-14580000D02*
X26160000Y-14580000D01*
X22220000Y-12020000D02*
X24780000Y-14580000D01*
G04 #@! TD*
D21*
G04 #@! TO.N,GND*
G36*
X29573728Y-362076D02*
X29523496Y-437254D01*
X29488896Y-520787D01*
X29471257Y-609464D01*
X29471257Y-699880D01*
X29488896Y-788557D01*
X29523496Y-872090D01*
X29573728Y-947268D01*
X29637661Y-1011201D01*
X29712839Y-1061433D01*
X29796372Y-1096033D01*
X29885049Y-1113672D01*
X29975465Y-1113672D01*
X30064142Y-1096033D01*
X30147675Y-1061433D01*
X30222853Y-1011201D01*
X30250382Y-983672D01*
X31929184Y-983672D01*
X31945328Y-985262D01*
X31961472Y-983672D01*
X31961482Y-983672D01*
X32009823Y-978911D01*
X32071840Y-960098D01*
X32128995Y-929548D01*
X32173000Y-893434D01*
X32173000Y-2571000D01*
X31167125Y-2571000D01*
X31139596Y-2543471D01*
X31064418Y-2493239D01*
X30980885Y-2458639D01*
X30892208Y-2441000D01*
X30801792Y-2441000D01*
X30769000Y-2447523D01*
X30769000Y-2180564D01*
X30798426Y-2125512D01*
X30817239Y-2063495D01*
X30822000Y-2015154D01*
X30822000Y-2015145D01*
X30823590Y-1999001D01*
X30822000Y-1982857D01*
X30822000Y-1844125D01*
X30849529Y-1816596D01*
X30899761Y-1741418D01*
X30934361Y-1657885D01*
X30952000Y-1569208D01*
X30952000Y-1478792D01*
X30934361Y-1390115D01*
X30899761Y-1306582D01*
X30849529Y-1231404D01*
X30785596Y-1167471D01*
X30710418Y-1117239D01*
X30626885Y-1082639D01*
X30538208Y-1065000D01*
X30447792Y-1065000D01*
X30359115Y-1082639D01*
X30275582Y-1117239D01*
X30200404Y-1167471D01*
X30136471Y-1231404D01*
X30086239Y-1306582D01*
X30051639Y-1390115D01*
X30034000Y-1478792D01*
X30034000Y-1569208D01*
X30051639Y-1657885D01*
X30086239Y-1741418D01*
X30136471Y-1816596D01*
X30164001Y-1844126D01*
X30164001Y-1870436D01*
X30134574Y-1925489D01*
X30115761Y-1987506D01*
X30111000Y-2035847D01*
X30111000Y-2035856D01*
X30109410Y-2052000D01*
X30111000Y-2068144D01*
X30111001Y-4891033D01*
X30083239Y-4932582D01*
X30048639Y-5016115D01*
X30031000Y-5104792D01*
X30031000Y-5195208D01*
X30048639Y-5283885D01*
X30083239Y-5367418D01*
X30133471Y-5442596D01*
X30197404Y-5506529D01*
X30272582Y-5556761D01*
X30356115Y-5591361D01*
X30444792Y-5609000D01*
X30535208Y-5609000D01*
X30623885Y-5591361D01*
X30707418Y-5556761D01*
X30782596Y-5506529D01*
X30846529Y-5442596D01*
X30896761Y-5367418D01*
X30931361Y-5283885D01*
X30949000Y-5195208D01*
X30949000Y-5104792D01*
X30931361Y-5016115D01*
X30896761Y-4932582D01*
X30846529Y-4857404D01*
X30782596Y-4793471D01*
X30769000Y-4784387D01*
X30769000Y-3352477D01*
X30801792Y-3359000D01*
X30892208Y-3359000D01*
X30980885Y-3341361D01*
X31064418Y-3306761D01*
X31139596Y-3256529D01*
X31167125Y-3229000D01*
X32063725Y-3229000D01*
X32173000Y-3338275D01*
X32173000Y-14630377D01*
X32117418Y-14593239D01*
X32033885Y-14558639D01*
X31945208Y-14541000D01*
X31854792Y-14541000D01*
X31766115Y-14558639D01*
X31704500Y-14584160D01*
X31704500Y-13911643D01*
X31706090Y-13895499D01*
X31704500Y-13879355D01*
X31704500Y-13879346D01*
X31699739Y-13831005D01*
X31680926Y-13768988D01*
X31650376Y-13711833D01*
X31619000Y-13673601D01*
X31619000Y-13170125D01*
X31646529Y-13142596D01*
X31696761Y-13067418D01*
X31731361Y-12983885D01*
X31749000Y-12895208D01*
X31749000Y-12804792D01*
X31731361Y-12716115D01*
X31696761Y-12632582D01*
X31646529Y-12557404D01*
X31582596Y-12493471D01*
X31507418Y-12443239D01*
X31423885Y-12408639D01*
X31335208Y-12391000D01*
X31244792Y-12391000D01*
X31156115Y-12408639D01*
X31072582Y-12443239D01*
X30997404Y-12493471D01*
X30933471Y-12557404D01*
X30883239Y-12632582D01*
X30848639Y-12716115D01*
X30831000Y-12804792D01*
X30831000Y-12895208D01*
X30848639Y-12983885D01*
X30883239Y-13067418D01*
X30933471Y-13142596D01*
X30961001Y-13170126D01*
X30961000Y-13793856D01*
X30959410Y-13810000D01*
X30961000Y-13826144D01*
X30961000Y-13826153D01*
X30965761Y-13874494D01*
X30984574Y-13936511D01*
X31015124Y-13993666D01*
X31046501Y-14031899D01*
X31046501Y-14563865D01*
X31033885Y-14558639D01*
X30945208Y-14541000D01*
X30854792Y-14541000D01*
X30766115Y-14558639D01*
X30682582Y-14593239D01*
X30607404Y-14643471D01*
X30579875Y-14671000D01*
X26609891Y-14671000D01*
X26619000Y-14625208D01*
X26619000Y-14534792D01*
X26601361Y-14446115D01*
X26566761Y-14362582D01*
X26516529Y-14287404D01*
X26452596Y-14223471D01*
X26377418Y-14173239D01*
X26293885Y-14138639D01*
X26205208Y-14121000D01*
X26114792Y-14121000D01*
X26026115Y-14138639D01*
X25942582Y-14173239D01*
X25867404Y-14223471D01*
X25839875Y-14251000D01*
X24916276Y-14251000D01*
X23956541Y-13291265D01*
X27396000Y-13291265D01*
X27396000Y-13508735D01*
X27438426Y-13722025D01*
X27521648Y-13922940D01*
X27642467Y-14103759D01*
X27796241Y-14257533D01*
X27977060Y-14378352D01*
X28177975Y-14461574D01*
X28391265Y-14504000D01*
X28608735Y-14504000D01*
X28822025Y-14461574D01*
X29022940Y-14378352D01*
X29203759Y-14257533D01*
X29357533Y-14103759D01*
X29478352Y-13922940D01*
X29561574Y-13722025D01*
X29604000Y-13508735D01*
X29604000Y-13291265D01*
X29561574Y-13077975D01*
X29478352Y-12877060D01*
X29357533Y-12696241D01*
X29203759Y-12542467D01*
X29022940Y-12421648D01*
X28822025Y-12338426D01*
X28608735Y-12296000D01*
X28391265Y-12296000D01*
X28177975Y-12338426D01*
X27977060Y-12421648D01*
X27796241Y-12542467D01*
X27642467Y-12696241D01*
X27521648Y-12877060D01*
X27438426Y-13077975D01*
X27396000Y-13291265D01*
X23956541Y-13291265D01*
X22680068Y-12014792D01*
X24431000Y-12014792D01*
X24431000Y-12105208D01*
X24448639Y-12193885D01*
X24483239Y-12277418D01*
X24533471Y-12352596D01*
X24597404Y-12416529D01*
X24672582Y-12466761D01*
X24756115Y-12501361D01*
X24844792Y-12519000D01*
X24935208Y-12519000D01*
X25023885Y-12501361D01*
X25107418Y-12466761D01*
X25182596Y-12416529D01*
X25246529Y-12352596D01*
X25296761Y-12277418D01*
X25331361Y-12193885D01*
X25349000Y-12105208D01*
X25349000Y-12014792D01*
X25331361Y-11926115D01*
X25296761Y-11842582D01*
X25246529Y-11767404D01*
X25182596Y-11703471D01*
X25107418Y-11653239D01*
X25023885Y-11618639D01*
X24935208Y-11601000D01*
X24844792Y-11601000D01*
X24756115Y-11618639D01*
X24672582Y-11653239D01*
X24597404Y-11703471D01*
X24533471Y-11767404D01*
X24483239Y-11842582D01*
X24448639Y-11926115D01*
X24431000Y-12014792D01*
X22680068Y-12014792D01*
X22464065Y-11798790D01*
X22453763Y-11786237D01*
X22403667Y-11745124D01*
X22346512Y-11714574D01*
X22284495Y-11695761D01*
X22236154Y-11691000D01*
X22236144Y-11691000D01*
X22220000Y-11689410D01*
X22203856Y-11691000D01*
X19420125Y-11691000D01*
X19392596Y-11663471D01*
X19317418Y-11613239D01*
X19233885Y-11578639D01*
X19145208Y-11561000D01*
X19054792Y-11561000D01*
X18966115Y-11578639D01*
X18882582Y-11613239D01*
X18807404Y-11663471D01*
X18743471Y-11727404D01*
X18714170Y-11771256D01*
X17322505Y-10379592D01*
X17363885Y-10371361D01*
X17447418Y-10336761D01*
X17522596Y-10286529D01*
X17586529Y-10222596D01*
X17636761Y-10147418D01*
X17671361Y-10063885D01*
X17689000Y-9975208D01*
X17689000Y-9884792D01*
X17687345Y-9876470D01*
X17697404Y-9886529D01*
X17772582Y-9936761D01*
X17856115Y-9971361D01*
X17944792Y-9989000D01*
X18035208Y-9989000D01*
X18123885Y-9971361D01*
X18207418Y-9936761D01*
X18282596Y-9886529D01*
X18346529Y-9822596D01*
X18396761Y-9747418D01*
X18431361Y-9663885D01*
X18449000Y-9575208D01*
X18449000Y-9484792D01*
X18431361Y-9396115D01*
X18396761Y-9312582D01*
X18346529Y-9237404D01*
X18282596Y-9173471D01*
X18207418Y-9123239D01*
X18123885Y-9088639D01*
X18079000Y-9079711D01*
X18079000Y-8371806D01*
X18087214Y-8361797D01*
X18110800Y-8317672D01*
X18125324Y-8269793D01*
X18130228Y-8220000D01*
X18130228Y-7600228D01*
X18750000Y-7600228D01*
X18799793Y-7595324D01*
X18847672Y-7580800D01*
X18891797Y-7557214D01*
X18901806Y-7549000D01*
X19903856Y-7549000D01*
X19920000Y-7550590D01*
X19936144Y-7549000D01*
X19936154Y-7549000D01*
X19984495Y-7544239D01*
X20046512Y-7525426D01*
X20103667Y-7494876D01*
X20153763Y-7453763D01*
X20164065Y-7441210D01*
X20376276Y-7229000D01*
X21079875Y-7229000D01*
X21107404Y-7256529D01*
X21182582Y-7306761D01*
X21266115Y-7341361D01*
X21354792Y-7359000D01*
X21445208Y-7359000D01*
X21533885Y-7341361D01*
X21617418Y-7306761D01*
X21692596Y-7256529D01*
X21756529Y-7192596D01*
X21806761Y-7117418D01*
X21841361Y-7033885D01*
X21859000Y-6945208D01*
X21859000Y-6854792D01*
X21841361Y-6766115D01*
X21806761Y-6682582D01*
X21756529Y-6607404D01*
X21692596Y-6543471D01*
X21617418Y-6493239D01*
X21533885Y-6458639D01*
X21445208Y-6441000D01*
X21354792Y-6441000D01*
X21266115Y-6458639D01*
X21182582Y-6493239D01*
X21107404Y-6543471D01*
X21079875Y-6571000D01*
X20256143Y-6571000D01*
X20239999Y-6569410D01*
X20223855Y-6571000D01*
X20223846Y-6571000D01*
X20175505Y-6575761D01*
X20113488Y-6594574D01*
X20056333Y-6625124D01*
X20006237Y-6666237D01*
X19995939Y-6678785D01*
X19783725Y-6891000D01*
X19704275Y-6891000D01*
X20866276Y-5729000D01*
X21079875Y-5729000D01*
X21107404Y-5756529D01*
X21182582Y-5806761D01*
X21266115Y-5841361D01*
X21354792Y-5859000D01*
X21445208Y-5859000D01*
X21533885Y-5841361D01*
X21617418Y-5806761D01*
X21692596Y-5756529D01*
X21756529Y-5692596D01*
X21806761Y-5617418D01*
X21841361Y-5533885D01*
X21859000Y-5445208D01*
X21859000Y-5354792D01*
X21841361Y-5266115D01*
X21806761Y-5182582D01*
X21756529Y-5107404D01*
X21692596Y-5043471D01*
X21617418Y-4993239D01*
X21533885Y-4958639D01*
X21445208Y-4941000D01*
X21354792Y-4941000D01*
X21266115Y-4958639D01*
X21182582Y-4993239D01*
X21107404Y-5043471D01*
X21079875Y-5071000D01*
X20746144Y-5071000D01*
X20730000Y-5069410D01*
X20713856Y-5071000D01*
X20713846Y-5071000D01*
X20665505Y-5075761D01*
X20603488Y-5094574D01*
X20546333Y-5125124D01*
X20496237Y-5166237D01*
X20485939Y-5178785D01*
X20179000Y-5485724D01*
X20179000Y-4491265D01*
X27396000Y-4491265D01*
X27396000Y-4708735D01*
X27438426Y-4922025D01*
X27521648Y-5122940D01*
X27642467Y-5303759D01*
X27796241Y-5457533D01*
X27977060Y-5578352D01*
X28177975Y-5661574D01*
X28391265Y-5704000D01*
X28608735Y-5704000D01*
X28822025Y-5661574D01*
X29022940Y-5578352D01*
X29203759Y-5457533D01*
X29357533Y-5303759D01*
X29478352Y-5122940D01*
X29561574Y-4922025D01*
X29604000Y-4708735D01*
X29604000Y-4491265D01*
X29561574Y-4277975D01*
X29478352Y-4077060D01*
X29357533Y-3896241D01*
X29203759Y-3742467D01*
X29022940Y-3621648D01*
X28822025Y-3538426D01*
X28608735Y-3496000D01*
X28391265Y-3496000D01*
X28177975Y-3538426D01*
X27977060Y-3621648D01*
X27796241Y-3742467D01*
X27642467Y-3896241D01*
X27521648Y-4077060D01*
X27438426Y-4277975D01*
X27396000Y-4491265D01*
X20179000Y-4491265D01*
X20179000Y-4066275D01*
X20476276Y-3769000D01*
X20515208Y-3769000D01*
X20603885Y-3751361D01*
X20687418Y-3716761D01*
X20762596Y-3666529D01*
X20826529Y-3602596D01*
X20876761Y-3527418D01*
X20911361Y-3443885D01*
X20929000Y-3355208D01*
X20929000Y-3264792D01*
X20911361Y-3176115D01*
X20876761Y-3092582D01*
X20826529Y-3017404D01*
X20762596Y-2953471D01*
X20687418Y-2903239D01*
X20603885Y-2868639D01*
X20515208Y-2851000D01*
X20424792Y-2851000D01*
X20336115Y-2868639D01*
X20252582Y-2903239D01*
X20177404Y-2953471D01*
X20113471Y-3017404D01*
X20063239Y-3092582D01*
X20028639Y-3176115D01*
X20011000Y-3264792D01*
X20011000Y-3303724D01*
X19628786Y-3685939D01*
X19616238Y-3696237D01*
X19605940Y-3708785D01*
X19575124Y-3746334D01*
X19544574Y-3803489D01*
X19531982Y-3845000D01*
X19525762Y-3865505D01*
X19522735Y-3896241D01*
X19519410Y-3930000D01*
X19521001Y-3946154D01*
X19521001Y-4571876D01*
X19509000Y-4559875D01*
X19509000Y-4016146D01*
X19510590Y-4000000D01*
X19509000Y-3983853D01*
X19509000Y-3983846D01*
X19504239Y-3935505D01*
X19485426Y-3873488D01*
X19454876Y-3816333D01*
X19413763Y-3766237D01*
X19401216Y-3755940D01*
X19144065Y-3498790D01*
X19133763Y-3486237D01*
X19083667Y-3445124D01*
X19026512Y-3414574D01*
X18964495Y-3395761D01*
X18916154Y-3391000D01*
X18916144Y-3391000D01*
X18900000Y-3389410D01*
X18899882Y-3389422D01*
X18891797Y-3382786D01*
X18847672Y-3359200D01*
X18799793Y-3344676D01*
X18750000Y-3339772D01*
X18657128Y-3339772D01*
X18617418Y-3313239D01*
X18533885Y-3278639D01*
X18445208Y-3261000D01*
X18354792Y-3261000D01*
X18266115Y-3278639D01*
X18182582Y-3313239D01*
X18142872Y-3339772D01*
X18050000Y-3339772D01*
X18000207Y-3344676D01*
X17952328Y-3359200D01*
X17908203Y-3382786D01*
X17869527Y-3414527D01*
X17837786Y-3453203D01*
X17814200Y-3497328D01*
X17799676Y-3545207D01*
X17794772Y-3595000D01*
X17794772Y-3845000D01*
X17799676Y-3894793D01*
X17814200Y-3942672D01*
X17828808Y-3970000D01*
X17814200Y-3997328D01*
X17799676Y-4045207D01*
X17794772Y-4095000D01*
X17794772Y-4345000D01*
X17799676Y-4394793D01*
X17814200Y-4442672D01*
X17828808Y-4470000D01*
X17814200Y-4497328D01*
X17799676Y-4545207D01*
X17794772Y-4595000D01*
X17794772Y-4845000D01*
X17799676Y-4894793D01*
X17814200Y-4942672D01*
X17828808Y-4970000D01*
X17814200Y-4997328D01*
X17799676Y-5045207D01*
X17794772Y-5095000D01*
X17794772Y-5345000D01*
X17799676Y-5394793D01*
X17814200Y-5442672D01*
X17828808Y-5470000D01*
X17814200Y-5497328D01*
X17799676Y-5545207D01*
X17794772Y-5595000D01*
X17794772Y-5845000D01*
X17799676Y-5894793D01*
X17814200Y-5942672D01*
X17828808Y-5970000D01*
X17814200Y-5997328D01*
X17799676Y-6045207D01*
X17794772Y-6095000D01*
X17794772Y-6345000D01*
X17799676Y-6394793D01*
X17814200Y-6442672D01*
X17828808Y-6470000D01*
X17814200Y-6497328D01*
X17799676Y-6545207D01*
X17794772Y-6595000D01*
X17794772Y-6845000D01*
X17799676Y-6894793D01*
X17814200Y-6942672D01*
X17828808Y-6970000D01*
X17814200Y-6997328D01*
X17799676Y-7045207D01*
X17794772Y-7095000D01*
X17794772Y-7264772D01*
X17625000Y-7264772D01*
X17575207Y-7269676D01*
X17527328Y-7284200D01*
X17500000Y-7298808D01*
X17472672Y-7284200D01*
X17424793Y-7269676D01*
X17375000Y-7264772D01*
X17125000Y-7264772D01*
X17075207Y-7269676D01*
X17027328Y-7284200D01*
X17000000Y-7298808D01*
X16972672Y-7284200D01*
X16924793Y-7269676D01*
X16875000Y-7264772D01*
X16625000Y-7264772D01*
X16575207Y-7269676D01*
X16527328Y-7284200D01*
X16500000Y-7298808D01*
X16472672Y-7284200D01*
X16424793Y-7269676D01*
X16375000Y-7264772D01*
X16125000Y-7264772D01*
X16075207Y-7269676D01*
X16027328Y-7284200D01*
X16000000Y-7298808D01*
X15972672Y-7284200D01*
X15924793Y-7269676D01*
X15875000Y-7264772D01*
X15625000Y-7264772D01*
X15575207Y-7269676D01*
X15527328Y-7284200D01*
X15500000Y-7298808D01*
X15472672Y-7284200D01*
X15424793Y-7269676D01*
X15375000Y-7264772D01*
X15125000Y-7264772D01*
X15075207Y-7269676D01*
X15027328Y-7284200D01*
X15000000Y-7298808D01*
X14972672Y-7284200D01*
X14924793Y-7269676D01*
X14875000Y-7264772D01*
X14625000Y-7264772D01*
X14575207Y-7269676D01*
X14527328Y-7284200D01*
X14483203Y-7307786D01*
X14444527Y-7339527D01*
X14412786Y-7378203D01*
X14389200Y-7422328D01*
X14374676Y-7470207D01*
X14369772Y-7520000D01*
X14369772Y-8220000D01*
X14374676Y-8269793D01*
X14389200Y-8317672D01*
X14412786Y-8361797D01*
X14421000Y-8371806D01*
X14421001Y-8739636D01*
X14395207Y-8742176D01*
X14347328Y-8756700D01*
X14303203Y-8780286D01*
X14264527Y-8812027D01*
X14261821Y-8815324D01*
X14256529Y-8807404D01*
X14192596Y-8743471D01*
X14117418Y-8693239D01*
X14033885Y-8658639D01*
X13945208Y-8641000D01*
X13854792Y-8641000D01*
X13766115Y-8658639D01*
X13682582Y-8693239D01*
X13607404Y-8743471D01*
X13579875Y-8771000D01*
X12186143Y-8771000D01*
X12169999Y-8769410D01*
X12153855Y-8771000D01*
X12153846Y-8771000D01*
X12105505Y-8775761D01*
X12043488Y-8794574D01*
X11986333Y-8825124D01*
X11936237Y-8866237D01*
X11925939Y-8878785D01*
X10683725Y-10121000D01*
X10364047Y-10121000D01*
X10397672Y-10110800D01*
X10441797Y-10087214D01*
X10480473Y-10055473D01*
X10512214Y-10016797D01*
X10535800Y-9972672D01*
X10550324Y-9924793D01*
X10555228Y-9875000D01*
X10555228Y-9625000D01*
X10550324Y-9575207D01*
X10535800Y-9527328D01*
X10521192Y-9500000D01*
X10535800Y-9472672D01*
X10550324Y-9424793D01*
X10555228Y-9375000D01*
X10555228Y-9125000D01*
X10550324Y-9075207D01*
X10535800Y-9027328D01*
X10521192Y-9000000D01*
X10535800Y-8972672D01*
X10550324Y-8924793D01*
X10555228Y-8875000D01*
X10555228Y-8625000D01*
X10550324Y-8575207D01*
X10535800Y-8527328D01*
X10521192Y-8500000D01*
X10535800Y-8472672D01*
X10550324Y-8424793D01*
X10555228Y-8375000D01*
X10555228Y-8125000D01*
X10550324Y-8075207D01*
X10535800Y-8027328D01*
X10512214Y-7983203D01*
X10480473Y-7944527D01*
X10441797Y-7912786D01*
X10397672Y-7889200D01*
X10349793Y-7874676D01*
X10300000Y-7869772D01*
X9630228Y-7869772D01*
X9630228Y-7200000D01*
X9625324Y-7150207D01*
X9621015Y-7136001D01*
X9750857Y-7136001D01*
X9767001Y-7137591D01*
X9783145Y-7136001D01*
X9783155Y-7136001D01*
X9831496Y-7131240D01*
X9893513Y-7112427D01*
X9950668Y-7081877D01*
X9990728Y-7049000D01*
X12455678Y-7049000D01*
X12441000Y-7122790D01*
X12441000Y-7213206D01*
X12458639Y-7301883D01*
X12493239Y-7385416D01*
X12543471Y-7460594D01*
X12607404Y-7524527D01*
X12682582Y-7574759D01*
X12766115Y-7609359D01*
X12854792Y-7626998D01*
X12945208Y-7626998D01*
X13033885Y-7609359D01*
X13117418Y-7574759D01*
X13127910Y-7567748D01*
X13152328Y-7580800D01*
X13200207Y-7595324D01*
X13208273Y-7596118D01*
X13137404Y-7643471D01*
X13073471Y-7707404D01*
X13023239Y-7782582D01*
X12988639Y-7866115D01*
X12971000Y-7954792D01*
X12971000Y-8045208D01*
X12988639Y-8133885D01*
X13023239Y-8217418D01*
X13073471Y-8292596D01*
X13137404Y-8356529D01*
X13212582Y-8406761D01*
X13296115Y-8441361D01*
X13384792Y-8459000D01*
X13475208Y-8459000D01*
X13563885Y-8441361D01*
X13647418Y-8406761D01*
X13722596Y-8356529D01*
X13786529Y-8292596D01*
X13836761Y-8217418D01*
X13871361Y-8133885D01*
X13889000Y-8045208D01*
X13889000Y-7954792D01*
X13871361Y-7866115D01*
X13836761Y-7782582D01*
X13786529Y-7707404D01*
X13722596Y-7643471D01*
X13657878Y-7600228D01*
X13950000Y-7600228D01*
X13999793Y-7595324D01*
X14047672Y-7580800D01*
X14091797Y-7557214D01*
X14130473Y-7525473D01*
X14162214Y-7486797D01*
X14185800Y-7442672D01*
X14200324Y-7394793D01*
X14205228Y-7345000D01*
X14205228Y-7095000D01*
X14200324Y-7045207D01*
X14185800Y-6997328D01*
X14171192Y-6970000D01*
X14185800Y-6942672D01*
X14200324Y-6894793D01*
X14205228Y-6845000D01*
X14205228Y-6595000D01*
X14200324Y-6545207D01*
X14185800Y-6497328D01*
X14171192Y-6470000D01*
X14185800Y-6442672D01*
X14200324Y-6394793D01*
X14205228Y-6345000D01*
X14205228Y-6095000D01*
X14200324Y-6045207D01*
X14185800Y-5997328D01*
X14171192Y-5970000D01*
X14185800Y-5942672D01*
X14200324Y-5894793D01*
X14205228Y-5845000D01*
X14205228Y-5595000D01*
X14200324Y-5545207D01*
X14185800Y-5497328D01*
X14171192Y-5470000D01*
X14185800Y-5442672D01*
X14200324Y-5394793D01*
X14205228Y-5345000D01*
X14205228Y-5095000D01*
X14200324Y-5045207D01*
X14185800Y-4997328D01*
X14171192Y-4970000D01*
X14185800Y-4942672D01*
X14200324Y-4894793D01*
X14205228Y-4845000D01*
X14205228Y-4595000D01*
X14200324Y-4545207D01*
X14185800Y-4497328D01*
X14171192Y-4470000D01*
X14185800Y-4442672D01*
X14200324Y-4394793D01*
X14205228Y-4345000D01*
X14205228Y-4095000D01*
X14200324Y-4045207D01*
X14185800Y-3997328D01*
X14171192Y-3970000D01*
X14185800Y-3942672D01*
X14200324Y-3894793D01*
X14205228Y-3845000D01*
X14205228Y-3675228D01*
X14375000Y-3675228D01*
X14424793Y-3670324D01*
X14472672Y-3655800D01*
X14500000Y-3641192D01*
X14527328Y-3655800D01*
X14575207Y-3670324D01*
X14625000Y-3675228D01*
X14875000Y-3675228D01*
X14924793Y-3670324D01*
X14972672Y-3655800D01*
X15000000Y-3641192D01*
X15027328Y-3655800D01*
X15075207Y-3670324D01*
X15125000Y-3675228D01*
X15375000Y-3675228D01*
X15424793Y-3670324D01*
X15472672Y-3655800D01*
X15500000Y-3641192D01*
X15527328Y-3655800D01*
X15575207Y-3670324D01*
X15625000Y-3675228D01*
X15875000Y-3675228D01*
X15924793Y-3670324D01*
X15972672Y-3655800D01*
X16000000Y-3641192D01*
X16027328Y-3655800D01*
X16075207Y-3670324D01*
X16125000Y-3675228D01*
X16375000Y-3675228D01*
X16424793Y-3670324D01*
X16472672Y-3655800D01*
X16500000Y-3641192D01*
X16527328Y-3655800D01*
X16575207Y-3670324D01*
X16625000Y-3675228D01*
X16875000Y-3675228D01*
X16924793Y-3670324D01*
X16972672Y-3655800D01*
X17000000Y-3641192D01*
X17027328Y-3655800D01*
X17075207Y-3670324D01*
X17125000Y-3675228D01*
X17375000Y-3675228D01*
X17424793Y-3670324D01*
X17472672Y-3655800D01*
X17516797Y-3632214D01*
X17555473Y-3600473D01*
X17587214Y-3561797D01*
X17610800Y-3517672D01*
X17625324Y-3469793D01*
X17630228Y-3420000D01*
X17630228Y-3327128D01*
X17656761Y-3287418D01*
X17691361Y-3203885D01*
X17709000Y-3115208D01*
X17709000Y-3024792D01*
X17691361Y-2936115D01*
X17656761Y-2852582D01*
X17630228Y-2812872D01*
X17630228Y-2720000D01*
X17625324Y-2670207D01*
X17610800Y-2622328D01*
X17587214Y-2578203D01*
X17555473Y-2539527D01*
X17516797Y-2507786D01*
X17472672Y-2484200D01*
X17424793Y-2469676D01*
X17375000Y-2464772D01*
X17129000Y-2464772D01*
X17129000Y-2336275D01*
X18048777Y-1416500D01*
X20523859Y-1416500D01*
X20524676Y-1424793D01*
X20539200Y-1472672D01*
X20562786Y-1516797D01*
X20594527Y-1555473D01*
X20633203Y-1587214D01*
X20677328Y-1610800D01*
X20725207Y-1625324D01*
X20775000Y-1630228D01*
X21425000Y-1630228D01*
X21474793Y-1625324D01*
X21522672Y-1610800D01*
X21566797Y-1587214D01*
X21575000Y-1580482D01*
X21583203Y-1587214D01*
X21627328Y-1610800D01*
X21675207Y-1625324D01*
X21725000Y-1630228D01*
X22375000Y-1630228D01*
X22424793Y-1625324D01*
X22472672Y-1610800D01*
X22516797Y-1587214D01*
X22555473Y-1555473D01*
X22587214Y-1516797D01*
X22610800Y-1472672D01*
X22625324Y-1424793D01*
X22627753Y-1400133D01*
X22651512Y-1392926D01*
X22708667Y-1362376D01*
X22758763Y-1321263D01*
X22769065Y-1308710D01*
X22971766Y-1106010D01*
X28385614Y-1106010D01*
X28393239Y-1124418D01*
X28443471Y-1199596D01*
X28507404Y-1263529D01*
X28582582Y-1313761D01*
X28666115Y-1348361D01*
X28754792Y-1366000D01*
X28845208Y-1366000D01*
X28933885Y-1348361D01*
X29017418Y-1313761D01*
X29092596Y-1263529D01*
X29156529Y-1199596D01*
X29206761Y-1124418D01*
X29241361Y-1040885D01*
X29259000Y-952208D01*
X29259000Y-861792D01*
X29241361Y-773115D01*
X29206761Y-689582D01*
X29156529Y-614404D01*
X29092596Y-550471D01*
X29017418Y-500239D01*
X28933885Y-465639D01*
X28845208Y-448000D01*
X28754792Y-448000D01*
X28732031Y-452527D01*
X28686164Y-448010D01*
X28686154Y-448010D01*
X28670010Y-446420D01*
X28653866Y-448010D01*
X22851633Y-448010D01*
X22835489Y-446420D01*
X22819345Y-448010D01*
X22819336Y-448010D01*
X22770995Y-452771D01*
X22708978Y-471584D01*
X22651823Y-502134D01*
X22601727Y-543247D01*
X22591429Y-555795D01*
X22540217Y-607007D01*
X22516797Y-587786D01*
X22472672Y-564200D01*
X22424793Y-549676D01*
X22375000Y-544772D01*
X21725000Y-544772D01*
X21675207Y-549676D01*
X21627328Y-564200D01*
X21583203Y-587786D01*
X21575000Y-594518D01*
X21566797Y-587786D01*
X21522672Y-564200D01*
X21474793Y-549676D01*
X21425000Y-544772D01*
X20775000Y-544772D01*
X20725207Y-549676D01*
X20677328Y-564200D01*
X20633203Y-587786D01*
X20594527Y-619527D01*
X20562786Y-658203D01*
X20539200Y-702328D01*
X20524676Y-750207D01*
X20523859Y-758500D01*
X17928654Y-758500D01*
X17912500Y-756909D01*
X17848005Y-763261D01*
X17785988Y-782074D01*
X17728833Y-812624D01*
X17691284Y-843439D01*
X17691279Y-843444D01*
X17678737Y-853737D01*
X17668444Y-866279D01*
X16578785Y-1955939D01*
X16566238Y-1966237D01*
X16555940Y-1978785D01*
X16525124Y-2016334D01*
X16514695Y-2035846D01*
X16508842Y-2046796D01*
X16494060Y-2028784D01*
X16483763Y-2016237D01*
X16471215Y-2005939D01*
X15737065Y-1271790D01*
X15726763Y-1259237D01*
X15676667Y-1218124D01*
X15619512Y-1187574D01*
X15613027Y-1185607D01*
X15563891Y-1136471D01*
X15488713Y-1086239D01*
X15405180Y-1051639D01*
X15316503Y-1034000D01*
X15226087Y-1034000D01*
X15137410Y-1051639D01*
X15053877Y-1086239D01*
X14978699Y-1136471D01*
X14914766Y-1200404D01*
X14864534Y-1275582D01*
X14829934Y-1359115D01*
X14812295Y-1447792D01*
X14812295Y-1538208D01*
X14829934Y-1626885D01*
X14864534Y-1710418D01*
X14914766Y-1785596D01*
X14978699Y-1849529D01*
X15053877Y-1899761D01*
X15137410Y-1934361D01*
X15226087Y-1952000D01*
X15316503Y-1952000D01*
X15405180Y-1934361D01*
X15450368Y-1915644D01*
X15921001Y-2386277D01*
X15921001Y-2469303D01*
X15875000Y-2464772D01*
X15625000Y-2464772D01*
X15575207Y-2469676D01*
X15527328Y-2484200D01*
X15500000Y-2498808D01*
X15472672Y-2484200D01*
X15424793Y-2469676D01*
X15375000Y-2464772D01*
X15125000Y-2464772D01*
X15075207Y-2469676D01*
X15027328Y-2484200D01*
X15000000Y-2498808D01*
X14972672Y-2484200D01*
X14924793Y-2469676D01*
X14875000Y-2464772D01*
X14625000Y-2464772D01*
X14575207Y-2469676D01*
X14527328Y-2484200D01*
X14500000Y-2498808D01*
X14472672Y-2484200D01*
X14424793Y-2469676D01*
X14375000Y-2464772D01*
X14125000Y-2464772D01*
X14075207Y-2469676D01*
X14027328Y-2484200D01*
X13983203Y-2507786D01*
X13944527Y-2539527D01*
X13912786Y-2578203D01*
X13889200Y-2622328D01*
X13874676Y-2670207D01*
X13869772Y-2720000D01*
X13869772Y-3339772D01*
X13250000Y-3339772D01*
X13200207Y-3344676D01*
X13152328Y-3359200D01*
X13108203Y-3382786D01*
X13069527Y-3414527D01*
X13037786Y-3453203D01*
X13014200Y-3497328D01*
X12999676Y-3545207D01*
X12994772Y-3595000D01*
X12994772Y-3845000D01*
X12999676Y-3894793D01*
X13014200Y-3942672D01*
X13028808Y-3970000D01*
X13014200Y-3997328D01*
X12999676Y-4045207D01*
X12994772Y-4095000D01*
X12994772Y-4249496D01*
X11924065Y-3178790D01*
X11913763Y-3166237D01*
X11863667Y-3125124D01*
X11806512Y-3094574D01*
X11744495Y-3075761D01*
X11696154Y-3071000D01*
X11696144Y-3071000D01*
X11680000Y-3069410D01*
X11663856Y-3071000D01*
X5848643Y-3071000D01*
X5832499Y-3069410D01*
X5816355Y-3071000D01*
X5816346Y-3071000D01*
X5768005Y-3075761D01*
X5705988Y-3094574D01*
X5648833Y-3125124D01*
X5598737Y-3166237D01*
X5588439Y-3178785D01*
X4780356Y-3986868D01*
X4826761Y-3917418D01*
X4861361Y-3833885D01*
X4879000Y-3745208D01*
X4879000Y-3654792D01*
X4861361Y-3566115D01*
X4826761Y-3482582D01*
X4776529Y-3407404D01*
X4712596Y-3343471D01*
X4637418Y-3293239D01*
X4553885Y-3258639D01*
X4465208Y-3241000D01*
X4374792Y-3241000D01*
X4286115Y-3258639D01*
X4202582Y-3293239D01*
X4127404Y-3343471D01*
X4063471Y-3407404D01*
X4013239Y-3482582D01*
X3978639Y-3566115D01*
X3961000Y-3654792D01*
X3961000Y-3745208D01*
X3978639Y-3833885D01*
X4013239Y-3917418D01*
X4063471Y-3992596D01*
X4127404Y-4056529D01*
X4202582Y-4106761D01*
X4286115Y-4141361D01*
X4374792Y-4159000D01*
X4465208Y-4159000D01*
X4553885Y-4141361D01*
X4637418Y-4106761D01*
X4706868Y-4060356D01*
X2956286Y-5810939D01*
X2943738Y-5821237D01*
X2933440Y-5833785D01*
X2902624Y-5871334D01*
X2872074Y-5928489D01*
X2864867Y-5952247D01*
X2840207Y-5954676D01*
X2792328Y-5969200D01*
X2790000Y-5970444D01*
X2787672Y-5969200D01*
X2739793Y-5954676D01*
X2690000Y-5949772D01*
X2115000Y-5949772D01*
X2065207Y-5954676D01*
X2017328Y-5969200D01*
X1973203Y-5992786D01*
X1934527Y-6024527D01*
X1902786Y-6063203D01*
X1879200Y-6107328D01*
X1864676Y-6155207D01*
X1860372Y-6198912D01*
X1811333Y-6225124D01*
X1761237Y-6266237D01*
X1750939Y-6278785D01*
X1178785Y-6850939D01*
X1166238Y-6861237D01*
X1155940Y-6873785D01*
X1125124Y-6911334D01*
X1094574Y-6968489D01*
X1086570Y-6994876D01*
X1075762Y-7030505D01*
X1073034Y-7058203D01*
X1069410Y-7095000D01*
X1071001Y-7111154D01*
X1071000Y-7879875D01*
X1043471Y-7907404D01*
X993239Y-7982582D01*
X958639Y-8066115D01*
X941000Y-8154792D01*
X941000Y-8245208D01*
X958639Y-8333885D01*
X993239Y-8417418D01*
X1043471Y-8492596D01*
X1107404Y-8556529D01*
X1182582Y-8606761D01*
X1266115Y-8641361D01*
X1354792Y-8659000D01*
X1445208Y-8659000D01*
X1533885Y-8641361D01*
X1617418Y-8606761D01*
X1692596Y-8556529D01*
X1756529Y-8492596D01*
X1806761Y-8417418D01*
X1841361Y-8333885D01*
X1859000Y-8245208D01*
X1859000Y-8154792D01*
X1841361Y-8066115D01*
X1806761Y-7982582D01*
X1756529Y-7907404D01*
X1729000Y-7879875D01*
X1729000Y-7231275D01*
X1930144Y-7030132D01*
X1934527Y-7035473D01*
X1973203Y-7067214D01*
X2017328Y-7090800D01*
X2065207Y-7105324D01*
X2115000Y-7110228D01*
X2690000Y-7110228D01*
X2739793Y-7105324D01*
X2787672Y-7090800D01*
X2790000Y-7089556D01*
X2792328Y-7090800D01*
X2840207Y-7105324D01*
X2890000Y-7110228D01*
X3465000Y-7110228D01*
X3514793Y-7105324D01*
X3562672Y-7090800D01*
X3606797Y-7067214D01*
X3645473Y-7035473D01*
X3677214Y-6996797D01*
X3700800Y-6952672D01*
X3715324Y-6904793D01*
X3720228Y-6855000D01*
X3720228Y-6205000D01*
X3715324Y-6155207D01*
X3700800Y-6107328D01*
X3677214Y-6063203D01*
X3657993Y-6039782D01*
X5968776Y-3729000D01*
X6809621Y-3729000D01*
X6101775Y-4436848D01*
X6089228Y-4447145D01*
X6078930Y-4459693D01*
X6048114Y-4497242D01*
X6017564Y-4554397D01*
X6005706Y-4593488D01*
X5998752Y-4616413D01*
X5995815Y-4646237D01*
X5992400Y-4680908D01*
X5993991Y-4697062D01*
X5993990Y-5280734D01*
X5693974Y-5580751D01*
X5709000Y-5505208D01*
X5709000Y-5414792D01*
X5691361Y-5326115D01*
X5656761Y-5242582D01*
X5606529Y-5167404D01*
X5542596Y-5103471D01*
X5467418Y-5053239D01*
X5383885Y-5018639D01*
X5295208Y-5001000D01*
X5204792Y-5001000D01*
X5116115Y-5018639D01*
X5032582Y-5053239D01*
X4957404Y-5103471D01*
X4893471Y-5167404D01*
X4843239Y-5242582D01*
X4808639Y-5326115D01*
X4791000Y-5414792D01*
X4791000Y-5505208D01*
X4808639Y-5593885D01*
X4843239Y-5677418D01*
X4893471Y-5752596D01*
X4957404Y-5816529D01*
X5032582Y-5866761D01*
X5116115Y-5901361D01*
X5204792Y-5919000D01*
X5295208Y-5919000D01*
X5370751Y-5903974D01*
X4878786Y-6395939D01*
X4866238Y-6406237D01*
X4855940Y-6418785D01*
X4825124Y-6456334D01*
X4794574Y-6513489D01*
X4784953Y-6545207D01*
X4775762Y-6575505D01*
X4773991Y-6593488D01*
X4769410Y-6640000D01*
X4771001Y-6656154D01*
X4771000Y-8373856D01*
X4769410Y-8390000D01*
X4771000Y-8406144D01*
X4771000Y-8406153D01*
X4775761Y-8454494D01*
X4794574Y-8516511D01*
X4825124Y-8573666D01*
X4866237Y-8623763D01*
X4878790Y-8634065D01*
X5095939Y-8851215D01*
X5106237Y-8863763D01*
X5156333Y-8904876D01*
X5213488Y-8935426D01*
X5275505Y-8954239D01*
X5323846Y-8959000D01*
X5323855Y-8959000D01*
X5339999Y-8960590D01*
X5356143Y-8959000D01*
X6153856Y-8959000D01*
X6170000Y-8960590D01*
X6186144Y-8959000D01*
X6186154Y-8959000D01*
X6234495Y-8954239D01*
X6296512Y-8935426D01*
X6353667Y-8904876D01*
X6403763Y-8863763D01*
X6414065Y-8851210D01*
X6444772Y-8820503D01*
X6444772Y-8875000D01*
X6449676Y-8924793D01*
X6464200Y-8972672D01*
X6478808Y-9000000D01*
X6464200Y-9027328D01*
X6449676Y-9075207D01*
X6444772Y-9125000D01*
X6444772Y-9375000D01*
X6449676Y-9424793D01*
X6464200Y-9472672D01*
X6478808Y-9500000D01*
X6464200Y-9527328D01*
X6449676Y-9575207D01*
X6444772Y-9625000D01*
X6444772Y-9875000D01*
X6449676Y-9924793D01*
X6464200Y-9972672D01*
X6487786Y-10016797D01*
X6519527Y-10055473D01*
X6558203Y-10087214D01*
X6602328Y-10110800D01*
X6650207Y-10125324D01*
X6700000Y-10130228D01*
X7400000Y-10130228D01*
X7449793Y-10125324D01*
X7497672Y-10110800D01*
X7541797Y-10087214D01*
X7580473Y-10055473D01*
X7612214Y-10016797D01*
X7635800Y-9972672D01*
X7650324Y-9924793D01*
X7655228Y-9875000D01*
X7655228Y-9625000D01*
X7650324Y-9575207D01*
X7635800Y-9527328D01*
X7621192Y-9500000D01*
X7635800Y-9472672D01*
X7650324Y-9424793D01*
X7655228Y-9375000D01*
X7655228Y-9125000D01*
X7650324Y-9075207D01*
X7635800Y-9027328D01*
X7621192Y-9000000D01*
X7635800Y-8972672D01*
X7650324Y-8924793D01*
X7655228Y-8875000D01*
X7655228Y-8625000D01*
X7650324Y-8575207D01*
X7635800Y-8527328D01*
X7621192Y-8500000D01*
X7635800Y-8472672D01*
X7650324Y-8424793D01*
X7655228Y-8375000D01*
X7655228Y-8155228D01*
X7875000Y-8155228D01*
X7924793Y-8150324D01*
X7972672Y-8135800D01*
X8000000Y-8121192D01*
X8027328Y-8135800D01*
X8075207Y-8150324D01*
X8125000Y-8155228D01*
X8375000Y-8155228D01*
X8424793Y-8150324D01*
X8472672Y-8135800D01*
X8500000Y-8121192D01*
X8527328Y-8135800D01*
X8575207Y-8150324D01*
X8625000Y-8155228D01*
X8875000Y-8155228D01*
X8924793Y-8150324D01*
X8972672Y-8135800D01*
X9000000Y-8121192D01*
X9027328Y-8135800D01*
X9075207Y-8150324D01*
X9125000Y-8155228D01*
X9344772Y-8155228D01*
X9344772Y-8375000D01*
X9349676Y-8424793D01*
X9364200Y-8472672D01*
X9378808Y-8500000D01*
X9364200Y-8527328D01*
X9349676Y-8575207D01*
X9344772Y-8625000D01*
X9344772Y-8875000D01*
X9349676Y-8924793D01*
X9364200Y-8972672D01*
X9378808Y-9000000D01*
X9364200Y-9027328D01*
X9349676Y-9075207D01*
X9344772Y-9125000D01*
X9344772Y-9375000D01*
X9349676Y-9424793D01*
X9364200Y-9472672D01*
X9378808Y-9500000D01*
X9364200Y-9527328D01*
X9349676Y-9575207D01*
X9344772Y-9625000D01*
X9344772Y-9844772D01*
X9125000Y-9844772D01*
X9075207Y-9849676D01*
X9027328Y-9864200D01*
X9000000Y-9878808D01*
X8972672Y-9864200D01*
X8924793Y-9849676D01*
X8875000Y-9844772D01*
X8625000Y-9844772D01*
X8575207Y-9849676D01*
X8527328Y-9864200D01*
X8500000Y-9878808D01*
X8472672Y-9864200D01*
X8424793Y-9849676D01*
X8375000Y-9844772D01*
X8125000Y-9844772D01*
X8075207Y-9849676D01*
X8027328Y-9864200D01*
X7983203Y-9887786D01*
X7944527Y-9919527D01*
X7912786Y-9958203D01*
X7889200Y-10002328D01*
X7874676Y-10050207D01*
X7869772Y-10100000D01*
X7869772Y-10800000D01*
X7874676Y-10849793D01*
X7877063Y-10857661D01*
X7733725Y-11001000D01*
X6582333Y-11001000D01*
X6581361Y-10996115D01*
X6546761Y-10912582D01*
X6496529Y-10837404D01*
X6432596Y-10773471D01*
X6357418Y-10723239D01*
X6273885Y-10688639D01*
X6185208Y-10671000D01*
X6094792Y-10671000D01*
X6006115Y-10688639D01*
X5922582Y-10723239D01*
X5847404Y-10773471D01*
X5783471Y-10837404D01*
X5733239Y-10912582D01*
X5698639Y-10996115D01*
X5681000Y-11084792D01*
X5681000Y-11175208D01*
X5698639Y-11263885D01*
X5733239Y-11347418D01*
X5783471Y-11422596D01*
X5847404Y-11486529D01*
X5922582Y-11536761D01*
X6006115Y-11571361D01*
X6094792Y-11589000D01*
X6136988Y-11589000D01*
X6151610Y-11601000D01*
X6156333Y-11604876D01*
X6213488Y-11635426D01*
X6275505Y-11654239D01*
X6340000Y-11660591D01*
X6356154Y-11659000D01*
X7853856Y-11659000D01*
X7870000Y-11660590D01*
X7886144Y-11659000D01*
X7886154Y-11659000D01*
X7934495Y-11654239D01*
X7996512Y-11635426D01*
X8053667Y-11604876D01*
X8103763Y-11563763D01*
X8114065Y-11551210D01*
X8471215Y-11194061D01*
X8483763Y-11183763D01*
X8524876Y-11133667D01*
X8555426Y-11076512D01*
X8564368Y-11047036D01*
X8575207Y-11050324D01*
X8625000Y-11055228D01*
X8875000Y-11055228D01*
X8924793Y-11050324D01*
X8972672Y-11035800D01*
X9000000Y-11021192D01*
X9027328Y-11035800D01*
X9075207Y-11050324D01*
X9125000Y-11055228D01*
X9375000Y-11055228D01*
X9424793Y-11050324D01*
X9472672Y-11035800D01*
X9511974Y-11014792D01*
X15851000Y-11014792D01*
X15851000Y-11105208D01*
X15868639Y-11193885D01*
X15903239Y-11277418D01*
X15953471Y-11352596D01*
X16017404Y-11416529D01*
X16092582Y-11466761D01*
X16176115Y-11501361D01*
X16264792Y-11519000D01*
X16355208Y-11519000D01*
X16443885Y-11501361D01*
X16527418Y-11466761D01*
X16602596Y-11416529D01*
X16666529Y-11352596D01*
X16716761Y-11277418D01*
X16751361Y-11193885D01*
X16769000Y-11105208D01*
X16769000Y-11014792D01*
X16751361Y-10926115D01*
X16716761Y-10842582D01*
X16666529Y-10767404D01*
X16602596Y-10703471D01*
X16527418Y-10653239D01*
X16443885Y-10618639D01*
X16355208Y-10601000D01*
X16264792Y-10601000D01*
X16176115Y-10618639D01*
X16092582Y-10653239D01*
X16017404Y-10703471D01*
X15953471Y-10767404D01*
X15903239Y-10842582D01*
X15868639Y-10926115D01*
X15851000Y-11014792D01*
X9511974Y-11014792D01*
X9516797Y-11012214D01*
X9555473Y-10980473D01*
X9587214Y-10941797D01*
X9610800Y-10897672D01*
X9625324Y-10849793D01*
X9630228Y-10800000D01*
X9630228Y-10779000D01*
X10803856Y-10779000D01*
X10820000Y-10780590D01*
X10836144Y-10779000D01*
X10836154Y-10779000D01*
X10884495Y-10774239D01*
X10946512Y-10755426D01*
X11003667Y-10724876D01*
X11053763Y-10683763D01*
X11064065Y-10671210D01*
X12306276Y-9429000D01*
X13562328Y-9429000D01*
X13566237Y-9433763D01*
X13616334Y-9474876D01*
X13673489Y-9505426D01*
X13695419Y-9512078D01*
X13766115Y-9541361D01*
X13854792Y-9559000D01*
X13945208Y-9559000D01*
X14033885Y-9541361D01*
X14117418Y-9506761D01*
X14189772Y-9458416D01*
X14189772Y-9567500D01*
X14194676Y-9617293D01*
X14209200Y-9665172D01*
X14232786Y-9709297D01*
X14264527Y-9747973D01*
X14303203Y-9779714D01*
X14347328Y-9803300D01*
X14395207Y-9817824D01*
X14445000Y-9822728D01*
X15095000Y-9822728D01*
X15144793Y-9817824D01*
X15192672Y-9803300D01*
X15236797Y-9779714D01*
X15275473Y-9747973D01*
X15307214Y-9709297D01*
X15330800Y-9665172D01*
X15345324Y-9617293D01*
X15350228Y-9567500D01*
X15350228Y-8992500D01*
X15345324Y-8942707D01*
X15330800Y-8894828D01*
X15307214Y-8850703D01*
X15275473Y-8812027D01*
X15236797Y-8780286D01*
X15192672Y-8756700D01*
X15144793Y-8742176D01*
X15095000Y-8737272D01*
X15079000Y-8737272D01*
X15079000Y-8470698D01*
X15125000Y-8475228D01*
X15375000Y-8475228D01*
X15424793Y-8470324D01*
X15472672Y-8455800D01*
X15500000Y-8441192D01*
X15527328Y-8455800D01*
X15575207Y-8470324D01*
X15625000Y-8475228D01*
X15875000Y-8475228D01*
X15924793Y-8470324D01*
X15972672Y-8455800D01*
X16000000Y-8441192D01*
X16027328Y-8455800D01*
X16075207Y-8470324D01*
X16125000Y-8475228D01*
X16375000Y-8475228D01*
X16424793Y-8470324D01*
X16472672Y-8455800D01*
X16500000Y-8441192D01*
X16527328Y-8455800D01*
X16575207Y-8470324D01*
X16585496Y-8471337D01*
X16537404Y-8503471D01*
X16473471Y-8567404D01*
X16423239Y-8642582D01*
X16388639Y-8726115D01*
X16371000Y-8814792D01*
X16371000Y-8855896D01*
X16350125Y-8881333D01*
X16319575Y-8938488D01*
X16300762Y-9000505D01*
X16296001Y-9048846D01*
X16296001Y-9048855D01*
X16294411Y-9064999D01*
X16296001Y-9081143D01*
X16296002Y-10118838D01*
X16296001Y-10118848D01*
X16296001Y-10131215D01*
X16294411Y-10147363D01*
X16296001Y-10163507D01*
X16296001Y-10163517D01*
X16300762Y-10211858D01*
X16319575Y-10273875D01*
X16350125Y-10331030D01*
X16391239Y-10381126D01*
X16403787Y-10391424D01*
X18713577Y-12701215D01*
X18723875Y-12713763D01*
X18773971Y-12754876D01*
X18831126Y-12785426D01*
X18893143Y-12804239D01*
X18941484Y-12809000D01*
X18941494Y-12809000D01*
X18957638Y-12810590D01*
X18973782Y-12809000D01*
X19203856Y-12809000D01*
X19220000Y-12810590D01*
X19236144Y-12809000D01*
X19236154Y-12809000D01*
X19284495Y-12804239D01*
X19346512Y-12785426D01*
X19403667Y-12754876D01*
X19453763Y-12713763D01*
X19464065Y-12701210D01*
X19539265Y-12626010D01*
X21950735Y-12626010D01*
X24402947Y-15078223D01*
X24413234Y-15090759D01*
X24425782Y-15101058D01*
X24425793Y-15101069D01*
X24442505Y-15114784D01*
X24463327Y-15131874D01*
X24463332Y-15131876D01*
X24463342Y-15131885D01*
X24500917Y-15151969D01*
X24520481Y-15162428D01*
X24520488Y-15162430D01*
X24520497Y-15162435D01*
X24551416Y-15171814D01*
X24582497Y-15181244D01*
X24582508Y-15181245D01*
X24582514Y-15181247D01*
X24603830Y-15183346D01*
X24630837Y-15186008D01*
X24630854Y-15186008D01*
X24647008Y-15187599D01*
X24663142Y-15186010D01*
X25698372Y-15186010D01*
X25963581Y-15451220D01*
X25973875Y-15463763D01*
X25986417Y-15474056D01*
X25986422Y-15474061D01*
X26019824Y-15501473D01*
X26023971Y-15504876D01*
X26050719Y-15519173D01*
X26054486Y-15523763D01*
X26104582Y-15564876D01*
X26161737Y-15595426D01*
X26223754Y-15614239D01*
X26272095Y-15619000D01*
X26272105Y-15619000D01*
X26288249Y-15620590D01*
X26304393Y-15619000D01*
X29387326Y-15619000D01*
X29403239Y-15657418D01*
X29453471Y-15732596D01*
X29517404Y-15796529D01*
X29592582Y-15846761D01*
X29676115Y-15881361D01*
X29764792Y-15899000D01*
X29855208Y-15899000D01*
X29943885Y-15881361D01*
X30027418Y-15846761D01*
X30102596Y-15796529D01*
X30166529Y-15732596D01*
X30216761Y-15657418D01*
X30251361Y-15573885D01*
X30269000Y-15485208D01*
X30269000Y-15394792D01*
X30255913Y-15329000D01*
X30579875Y-15329000D01*
X30607404Y-15356529D01*
X30682582Y-15406761D01*
X30766115Y-15441361D01*
X30854792Y-15459000D01*
X30945208Y-15459000D01*
X31033885Y-15441361D01*
X31046500Y-15436136D01*
X31046500Y-16443875D01*
X31018971Y-16471404D01*
X30988000Y-16517756D01*
X30957029Y-16471404D01*
X30893096Y-16407471D01*
X30817918Y-16357239D01*
X30734385Y-16322639D01*
X30645708Y-16305000D01*
X30555292Y-16305000D01*
X30466615Y-16322639D01*
X30383082Y-16357239D01*
X30307904Y-16407471D01*
X30280375Y-16435000D01*
X29652143Y-16435000D01*
X29635999Y-16433410D01*
X29619855Y-16435000D01*
X29619846Y-16435000D01*
X29571505Y-16439761D01*
X29509488Y-16458574D01*
X29452333Y-16489124D01*
X29402237Y-16530237D01*
X29391939Y-16542785D01*
X29063725Y-16871000D01*
X20446363Y-16871000D01*
X18129000Y-14553638D01*
X18129000Y-12920125D01*
X18156529Y-12892596D01*
X18206761Y-12817418D01*
X18241361Y-12733885D01*
X18259000Y-12645208D01*
X18259000Y-12554792D01*
X18241361Y-12466115D01*
X18206761Y-12382582D01*
X18156529Y-12307404D01*
X18092596Y-12243471D01*
X18017418Y-12193239D01*
X17933885Y-12158639D01*
X17845208Y-12141000D01*
X17754792Y-12141000D01*
X17666115Y-12158639D01*
X17582582Y-12193239D01*
X17507404Y-12243471D01*
X17443471Y-12307404D01*
X17393239Y-12382582D01*
X17358639Y-12466115D01*
X17341000Y-12554792D01*
X17341000Y-12645208D01*
X17358639Y-12733885D01*
X17393239Y-12817418D01*
X17443471Y-12892596D01*
X17471001Y-12920126D01*
X17471000Y-14383846D01*
X17471000Y-14673769D01*
X17469410Y-14689913D01*
X17471000Y-14706057D01*
X17471000Y-14706067D01*
X17475761Y-14754408D01*
X17494574Y-14816425D01*
X17525124Y-14873580D01*
X17566238Y-14923676D01*
X17578786Y-14933974D01*
X20066026Y-17421215D01*
X20076324Y-17433763D01*
X20126420Y-17474876D01*
X20183575Y-17505426D01*
X20245592Y-17524239D01*
X20293933Y-17529000D01*
X20293942Y-17529000D01*
X20310086Y-17530590D01*
X20326230Y-17529000D01*
X29183856Y-17529000D01*
X29200000Y-17530590D01*
X29216144Y-17529000D01*
X29216154Y-17529000D01*
X29264495Y-17524239D01*
X29326512Y-17505426D01*
X29383667Y-17474876D01*
X29433763Y-17433763D01*
X29444065Y-17421210D01*
X29772276Y-17093000D01*
X30280375Y-17093000D01*
X30307904Y-17120529D01*
X30383082Y-17170761D01*
X30466615Y-17205361D01*
X30555292Y-17223000D01*
X30645708Y-17223000D01*
X30734385Y-17205361D01*
X30817918Y-17170761D01*
X30893096Y-17120529D01*
X30957029Y-17056596D01*
X30988000Y-17010244D01*
X31018971Y-17056596D01*
X31082904Y-17120529D01*
X31158082Y-17170761D01*
X31241615Y-17205361D01*
X31330292Y-17223000D01*
X31420708Y-17223000D01*
X31509385Y-17205361D01*
X31592918Y-17170761D01*
X31668096Y-17120529D01*
X31732029Y-17056596D01*
X31782261Y-16981418D01*
X31816861Y-16897885D01*
X31834500Y-16809208D01*
X31834500Y-16718792D01*
X31816861Y-16630115D01*
X31782261Y-16546582D01*
X31732029Y-16471404D01*
X31704500Y-16443875D01*
X31704500Y-15415840D01*
X31766115Y-15441361D01*
X31854792Y-15459000D01*
X31945208Y-15459000D01*
X32033885Y-15441361D01*
X32117418Y-15406761D01*
X32173000Y-15369623D01*
X32173000Y-17696400D01*
X3275491Y-17696400D01*
X3240663Y-17365031D01*
X3235123Y-17338044D01*
X3229973Y-17311047D01*
X3228749Y-17306989D01*
X3055611Y-16747676D01*
X3044951Y-16722316D01*
X3034640Y-16696797D01*
X3032650Y-16693054D01*
X3032650Y-16693053D01*
X3032647Y-16693049D01*
X2754174Y-16178022D01*
X2738808Y-16155241D01*
X2723720Y-16132184D01*
X2721041Y-16128899D01*
X2347831Y-15677766D01*
X2328279Y-15658350D01*
X2309053Y-15638718D01*
X2305793Y-15636020D01*
X2305787Y-15636014D01*
X2305780Y-15636010D01*
X1852059Y-15265963D01*
X1829134Y-15250732D01*
X1806435Y-15235190D01*
X1802707Y-15233173D01*
X1285742Y-14958299D01*
X1260270Y-14947800D01*
X1235010Y-14936974D01*
X1230967Y-14935722D01*
X1230960Y-14935719D01*
X1230953Y-14935718D01*
X670453Y-14766493D01*
X643479Y-14761152D01*
X616545Y-14755427D01*
X612329Y-14754984D01*
X303600Y-14724713D01*
X303600Y-13980000D01*
X12584772Y-13980000D01*
X12584772Y-15200000D01*
X12589676Y-15249793D01*
X12604200Y-15297672D01*
X12627786Y-15341797D01*
X12659527Y-15380473D01*
X12698203Y-15412214D01*
X12742328Y-15435800D01*
X12790207Y-15450324D01*
X12840000Y-15455228D01*
X14640000Y-15455228D01*
X14689793Y-15450324D01*
X14737672Y-15435800D01*
X14781797Y-15412214D01*
X14820473Y-15380473D01*
X14852214Y-15341797D01*
X14875800Y-15297672D01*
X14890324Y-15249793D01*
X14895228Y-15200000D01*
X14895228Y-13980000D01*
X14890324Y-13930207D01*
X14875800Y-13882328D01*
X14852214Y-13838203D01*
X14824144Y-13804000D01*
X14917859Y-13804000D01*
X14918676Y-13812293D01*
X14933200Y-13860172D01*
X14956786Y-13904297D01*
X14988527Y-13942973D01*
X15027203Y-13974714D01*
X15071328Y-13998300D01*
X15119207Y-14012824D01*
X15169000Y-14017728D01*
X15819000Y-14017728D01*
X15868793Y-14012824D01*
X15916672Y-13998300D01*
X15960797Y-13974714D01*
X15999473Y-13942973D01*
X16031214Y-13904297D01*
X16054800Y-13860172D01*
X16069324Y-13812293D01*
X16074228Y-13762500D01*
X16074228Y-13187500D01*
X16069324Y-13137707D01*
X16054800Y-13089828D01*
X16031214Y-13045703D01*
X15999473Y-13007027D01*
X15960797Y-12975286D01*
X15916672Y-12951700D01*
X15868793Y-12937176D01*
X15819000Y-12932272D01*
X15169000Y-12932272D01*
X15119207Y-12937176D01*
X15071328Y-12951700D01*
X15027203Y-12975286D01*
X14988527Y-13007027D01*
X14956786Y-13045703D01*
X14933200Y-13089828D01*
X14918676Y-13137707D01*
X14917859Y-13146000D01*
X14111144Y-13146000D01*
X14095000Y-13144410D01*
X14078856Y-13146000D01*
X14078846Y-13146000D01*
X14030505Y-13150761D01*
X13968488Y-13169574D01*
X13911333Y-13200124D01*
X13861237Y-13241237D01*
X13850939Y-13253785D01*
X13842512Y-13262212D01*
X13833885Y-13258639D01*
X13745208Y-13241000D01*
X13654792Y-13241000D01*
X13566115Y-13258639D01*
X13482582Y-13293239D01*
X13450000Y-13315009D01*
X13417418Y-13293239D01*
X13333885Y-13258639D01*
X13245208Y-13241000D01*
X13154792Y-13241000D01*
X13066115Y-13258639D01*
X12982582Y-13293239D01*
X12907404Y-13343471D01*
X12843471Y-13407404D01*
X12793239Y-13482582D01*
X12758639Y-13566115D01*
X12741000Y-13654792D01*
X12741000Y-13744910D01*
X12698203Y-13767786D01*
X12659527Y-13799527D01*
X12627786Y-13838203D01*
X12604200Y-13882328D01*
X12589676Y-13930207D01*
X12584772Y-13980000D01*
X303600Y-13980000D01*
X303600Y-3275491D01*
X634968Y-3240663D01*
X661943Y-3235126D01*
X688953Y-3229973D01*
X693001Y-3228751D01*
X693011Y-3228749D01*
X693020Y-3228745D01*
X1252325Y-3055611D01*
X1277710Y-3044940D01*
X1303203Y-3034640D01*
X1306938Y-3032654D01*
X1306948Y-3032650D01*
X1306956Y-3032645D01*
X1821978Y-2754175D01*
X1844786Y-2738791D01*
X1867816Y-2723720D01*
X1871101Y-2721041D01*
X2322234Y-2347831D01*
X2341648Y-2328282D01*
X2361283Y-2309053D01*
X2363980Y-2305793D01*
X2363986Y-2305787D01*
X2363990Y-2305780D01*
X2734037Y-1852059D01*
X2749264Y-1829141D01*
X2764810Y-1806435D01*
X2766827Y-1802706D01*
X3041701Y-1285742D01*
X3052200Y-1260270D01*
X3063026Y-1235010D01*
X3064278Y-1230967D01*
X3064281Y-1230960D01*
X3064282Y-1230953D01*
X3233507Y-670453D01*
X3238847Y-643486D01*
X3244573Y-616545D01*
X3245016Y-612329D01*
X3272836Y-328600D01*
X29607204Y-328600D01*
X29573728Y-362076D01*
X29573728Y-362076D01*
G37*
X29573728Y-362076D02*
X29523496Y-437254D01*
X29488896Y-520787D01*
X29471257Y-609464D01*
X29471257Y-699880D01*
X29488896Y-788557D01*
X29523496Y-872090D01*
X29573728Y-947268D01*
X29637661Y-1011201D01*
X29712839Y-1061433D01*
X29796372Y-1096033D01*
X29885049Y-1113672D01*
X29975465Y-1113672D01*
X30064142Y-1096033D01*
X30147675Y-1061433D01*
X30222853Y-1011201D01*
X30250382Y-983672D01*
X31929184Y-983672D01*
X31945328Y-985262D01*
X31961472Y-983672D01*
X31961482Y-983672D01*
X32009823Y-978911D01*
X32071840Y-960098D01*
X32128995Y-929548D01*
X32173000Y-893434D01*
X32173000Y-2571000D01*
X31167125Y-2571000D01*
X31139596Y-2543471D01*
X31064418Y-2493239D01*
X30980885Y-2458639D01*
X30892208Y-2441000D01*
X30801792Y-2441000D01*
X30769000Y-2447523D01*
X30769000Y-2180564D01*
X30798426Y-2125512D01*
X30817239Y-2063495D01*
X30822000Y-2015154D01*
X30822000Y-2015145D01*
X30823590Y-1999001D01*
X30822000Y-1982857D01*
X30822000Y-1844125D01*
X30849529Y-1816596D01*
X30899761Y-1741418D01*
X30934361Y-1657885D01*
X30952000Y-1569208D01*
X30952000Y-1478792D01*
X30934361Y-1390115D01*
X30899761Y-1306582D01*
X30849529Y-1231404D01*
X30785596Y-1167471D01*
X30710418Y-1117239D01*
X30626885Y-1082639D01*
X30538208Y-1065000D01*
X30447792Y-1065000D01*
X30359115Y-1082639D01*
X30275582Y-1117239D01*
X30200404Y-1167471D01*
X30136471Y-1231404D01*
X30086239Y-1306582D01*
X30051639Y-1390115D01*
X30034000Y-1478792D01*
X30034000Y-1569208D01*
X30051639Y-1657885D01*
X30086239Y-1741418D01*
X30136471Y-1816596D01*
X30164001Y-1844126D01*
X30164001Y-1870436D01*
X30134574Y-1925489D01*
X30115761Y-1987506D01*
X30111000Y-2035847D01*
X30111000Y-2035856D01*
X30109410Y-2052000D01*
X30111000Y-2068144D01*
X30111001Y-4891033D01*
X30083239Y-4932582D01*
X30048639Y-5016115D01*
X30031000Y-5104792D01*
X30031000Y-5195208D01*
X30048639Y-5283885D01*
X30083239Y-5367418D01*
X30133471Y-5442596D01*
X30197404Y-5506529D01*
X30272582Y-5556761D01*
X30356115Y-5591361D01*
X30444792Y-5609000D01*
X30535208Y-5609000D01*
X30623885Y-5591361D01*
X30707418Y-5556761D01*
X30782596Y-5506529D01*
X30846529Y-5442596D01*
X30896761Y-5367418D01*
X30931361Y-5283885D01*
X30949000Y-5195208D01*
X30949000Y-5104792D01*
X30931361Y-5016115D01*
X30896761Y-4932582D01*
X30846529Y-4857404D01*
X30782596Y-4793471D01*
X30769000Y-4784387D01*
X30769000Y-3352477D01*
X30801792Y-3359000D01*
X30892208Y-3359000D01*
X30980885Y-3341361D01*
X31064418Y-3306761D01*
X31139596Y-3256529D01*
X31167125Y-3229000D01*
X32063725Y-3229000D01*
X32173000Y-3338275D01*
X32173000Y-14630377D01*
X32117418Y-14593239D01*
X32033885Y-14558639D01*
X31945208Y-14541000D01*
X31854792Y-14541000D01*
X31766115Y-14558639D01*
X31704500Y-14584160D01*
X31704500Y-13911643D01*
X31706090Y-13895499D01*
X31704500Y-13879355D01*
X31704500Y-13879346D01*
X31699739Y-13831005D01*
X31680926Y-13768988D01*
X31650376Y-13711833D01*
X31619000Y-13673601D01*
X31619000Y-13170125D01*
X31646529Y-13142596D01*
X31696761Y-13067418D01*
X31731361Y-12983885D01*
X31749000Y-12895208D01*
X31749000Y-12804792D01*
X31731361Y-12716115D01*
X31696761Y-12632582D01*
X31646529Y-12557404D01*
X31582596Y-12493471D01*
X31507418Y-12443239D01*
X31423885Y-12408639D01*
X31335208Y-12391000D01*
X31244792Y-12391000D01*
X31156115Y-12408639D01*
X31072582Y-12443239D01*
X30997404Y-12493471D01*
X30933471Y-12557404D01*
X30883239Y-12632582D01*
X30848639Y-12716115D01*
X30831000Y-12804792D01*
X30831000Y-12895208D01*
X30848639Y-12983885D01*
X30883239Y-13067418D01*
X30933471Y-13142596D01*
X30961001Y-13170126D01*
X30961000Y-13793856D01*
X30959410Y-13810000D01*
X30961000Y-13826144D01*
X30961000Y-13826153D01*
X30965761Y-13874494D01*
X30984574Y-13936511D01*
X31015124Y-13993666D01*
X31046501Y-14031899D01*
X31046501Y-14563865D01*
X31033885Y-14558639D01*
X30945208Y-14541000D01*
X30854792Y-14541000D01*
X30766115Y-14558639D01*
X30682582Y-14593239D01*
X30607404Y-14643471D01*
X30579875Y-14671000D01*
X26609891Y-14671000D01*
X26619000Y-14625208D01*
X26619000Y-14534792D01*
X26601361Y-14446115D01*
X26566761Y-14362582D01*
X26516529Y-14287404D01*
X26452596Y-14223471D01*
X26377418Y-14173239D01*
X26293885Y-14138639D01*
X26205208Y-14121000D01*
X26114792Y-14121000D01*
X26026115Y-14138639D01*
X25942582Y-14173239D01*
X25867404Y-14223471D01*
X25839875Y-14251000D01*
X24916276Y-14251000D01*
X23956541Y-13291265D01*
X27396000Y-13291265D01*
X27396000Y-13508735D01*
X27438426Y-13722025D01*
X27521648Y-13922940D01*
X27642467Y-14103759D01*
X27796241Y-14257533D01*
X27977060Y-14378352D01*
X28177975Y-14461574D01*
X28391265Y-14504000D01*
X28608735Y-14504000D01*
X28822025Y-14461574D01*
X29022940Y-14378352D01*
X29203759Y-14257533D01*
X29357533Y-14103759D01*
X29478352Y-13922940D01*
X29561574Y-13722025D01*
X29604000Y-13508735D01*
X29604000Y-13291265D01*
X29561574Y-13077975D01*
X29478352Y-12877060D01*
X29357533Y-12696241D01*
X29203759Y-12542467D01*
X29022940Y-12421648D01*
X28822025Y-12338426D01*
X28608735Y-12296000D01*
X28391265Y-12296000D01*
X28177975Y-12338426D01*
X27977060Y-12421648D01*
X27796241Y-12542467D01*
X27642467Y-12696241D01*
X27521648Y-12877060D01*
X27438426Y-13077975D01*
X27396000Y-13291265D01*
X23956541Y-13291265D01*
X22680068Y-12014792D01*
X24431000Y-12014792D01*
X24431000Y-12105208D01*
X24448639Y-12193885D01*
X24483239Y-12277418D01*
X24533471Y-12352596D01*
X24597404Y-12416529D01*
X24672582Y-12466761D01*
X24756115Y-12501361D01*
X24844792Y-12519000D01*
X24935208Y-12519000D01*
X25023885Y-12501361D01*
X25107418Y-12466761D01*
X25182596Y-12416529D01*
X25246529Y-12352596D01*
X25296761Y-12277418D01*
X25331361Y-12193885D01*
X25349000Y-12105208D01*
X25349000Y-12014792D01*
X25331361Y-11926115D01*
X25296761Y-11842582D01*
X25246529Y-11767404D01*
X25182596Y-11703471D01*
X25107418Y-11653239D01*
X25023885Y-11618639D01*
X24935208Y-11601000D01*
X24844792Y-11601000D01*
X24756115Y-11618639D01*
X24672582Y-11653239D01*
X24597404Y-11703471D01*
X24533471Y-11767404D01*
X24483239Y-11842582D01*
X24448639Y-11926115D01*
X24431000Y-12014792D01*
X22680068Y-12014792D01*
X22464065Y-11798790D01*
X22453763Y-11786237D01*
X22403667Y-11745124D01*
X22346512Y-11714574D01*
X22284495Y-11695761D01*
X22236154Y-11691000D01*
X22236144Y-11691000D01*
X22220000Y-11689410D01*
X22203856Y-11691000D01*
X19420125Y-11691000D01*
X19392596Y-11663471D01*
X19317418Y-11613239D01*
X19233885Y-11578639D01*
X19145208Y-11561000D01*
X19054792Y-11561000D01*
X18966115Y-11578639D01*
X18882582Y-11613239D01*
X18807404Y-11663471D01*
X18743471Y-11727404D01*
X18714170Y-11771256D01*
X17322505Y-10379592D01*
X17363885Y-10371361D01*
X17447418Y-10336761D01*
X17522596Y-10286529D01*
X17586529Y-10222596D01*
X17636761Y-10147418D01*
X17671361Y-10063885D01*
X17689000Y-9975208D01*
X17689000Y-9884792D01*
X17687345Y-9876470D01*
X17697404Y-9886529D01*
X17772582Y-9936761D01*
X17856115Y-9971361D01*
X17944792Y-9989000D01*
X18035208Y-9989000D01*
X18123885Y-9971361D01*
X18207418Y-9936761D01*
X18282596Y-9886529D01*
X18346529Y-9822596D01*
X18396761Y-9747418D01*
X18431361Y-9663885D01*
X18449000Y-9575208D01*
X18449000Y-9484792D01*
X18431361Y-9396115D01*
X18396761Y-9312582D01*
X18346529Y-9237404D01*
X18282596Y-9173471D01*
X18207418Y-9123239D01*
X18123885Y-9088639D01*
X18079000Y-9079711D01*
X18079000Y-8371806D01*
X18087214Y-8361797D01*
X18110800Y-8317672D01*
X18125324Y-8269793D01*
X18130228Y-8220000D01*
X18130228Y-7600228D01*
X18750000Y-7600228D01*
X18799793Y-7595324D01*
X18847672Y-7580800D01*
X18891797Y-7557214D01*
X18901806Y-7549000D01*
X19903856Y-7549000D01*
X19920000Y-7550590D01*
X19936144Y-7549000D01*
X19936154Y-7549000D01*
X19984495Y-7544239D01*
X20046512Y-7525426D01*
X20103667Y-7494876D01*
X20153763Y-7453763D01*
X20164065Y-7441210D01*
X20376276Y-7229000D01*
X21079875Y-7229000D01*
X21107404Y-7256529D01*
X21182582Y-7306761D01*
X21266115Y-7341361D01*
X21354792Y-7359000D01*
X21445208Y-7359000D01*
X21533885Y-7341361D01*
X21617418Y-7306761D01*
X21692596Y-7256529D01*
X21756529Y-7192596D01*
X21806761Y-7117418D01*
X21841361Y-7033885D01*
X21859000Y-6945208D01*
X21859000Y-6854792D01*
X21841361Y-6766115D01*
X21806761Y-6682582D01*
X21756529Y-6607404D01*
X21692596Y-6543471D01*
X21617418Y-6493239D01*
X21533885Y-6458639D01*
X21445208Y-6441000D01*
X21354792Y-6441000D01*
X21266115Y-6458639D01*
X21182582Y-6493239D01*
X21107404Y-6543471D01*
X21079875Y-6571000D01*
X20256143Y-6571000D01*
X20239999Y-6569410D01*
X20223855Y-6571000D01*
X20223846Y-6571000D01*
X20175505Y-6575761D01*
X20113488Y-6594574D01*
X20056333Y-6625124D01*
X20006237Y-6666237D01*
X19995939Y-6678785D01*
X19783725Y-6891000D01*
X19704275Y-6891000D01*
X20866276Y-5729000D01*
X21079875Y-5729000D01*
X21107404Y-5756529D01*
X21182582Y-5806761D01*
X21266115Y-5841361D01*
X21354792Y-5859000D01*
X21445208Y-5859000D01*
X21533885Y-5841361D01*
X21617418Y-5806761D01*
X21692596Y-5756529D01*
X21756529Y-5692596D01*
X21806761Y-5617418D01*
X21841361Y-5533885D01*
X21859000Y-5445208D01*
X21859000Y-5354792D01*
X21841361Y-5266115D01*
X21806761Y-5182582D01*
X21756529Y-5107404D01*
X21692596Y-5043471D01*
X21617418Y-4993239D01*
X21533885Y-4958639D01*
X21445208Y-4941000D01*
X21354792Y-4941000D01*
X21266115Y-4958639D01*
X21182582Y-4993239D01*
X21107404Y-5043471D01*
X21079875Y-5071000D01*
X20746144Y-5071000D01*
X20730000Y-5069410D01*
X20713856Y-5071000D01*
X20713846Y-5071000D01*
X20665505Y-5075761D01*
X20603488Y-5094574D01*
X20546333Y-5125124D01*
X20496237Y-5166237D01*
X20485939Y-5178785D01*
X20179000Y-5485724D01*
X20179000Y-4491265D01*
X27396000Y-4491265D01*
X27396000Y-4708735D01*
X27438426Y-4922025D01*
X27521648Y-5122940D01*
X27642467Y-5303759D01*
X27796241Y-5457533D01*
X27977060Y-5578352D01*
X28177975Y-5661574D01*
X28391265Y-5704000D01*
X28608735Y-5704000D01*
X28822025Y-5661574D01*
X29022940Y-5578352D01*
X29203759Y-5457533D01*
X29357533Y-5303759D01*
X29478352Y-5122940D01*
X29561574Y-4922025D01*
X29604000Y-4708735D01*
X29604000Y-4491265D01*
X29561574Y-4277975D01*
X29478352Y-4077060D01*
X29357533Y-3896241D01*
X29203759Y-3742467D01*
X29022940Y-3621648D01*
X28822025Y-3538426D01*
X28608735Y-3496000D01*
X28391265Y-3496000D01*
X28177975Y-3538426D01*
X27977060Y-3621648D01*
X27796241Y-3742467D01*
X27642467Y-3896241D01*
X27521648Y-4077060D01*
X27438426Y-4277975D01*
X27396000Y-4491265D01*
X20179000Y-4491265D01*
X20179000Y-4066275D01*
X20476276Y-3769000D01*
X20515208Y-3769000D01*
X20603885Y-3751361D01*
X20687418Y-3716761D01*
X20762596Y-3666529D01*
X20826529Y-3602596D01*
X20876761Y-3527418D01*
X20911361Y-3443885D01*
X20929000Y-3355208D01*
X20929000Y-3264792D01*
X20911361Y-3176115D01*
X20876761Y-3092582D01*
X20826529Y-3017404D01*
X20762596Y-2953471D01*
X20687418Y-2903239D01*
X20603885Y-2868639D01*
X20515208Y-2851000D01*
X20424792Y-2851000D01*
X20336115Y-2868639D01*
X20252582Y-2903239D01*
X20177404Y-2953471D01*
X20113471Y-3017404D01*
X20063239Y-3092582D01*
X20028639Y-3176115D01*
X20011000Y-3264792D01*
X20011000Y-3303724D01*
X19628786Y-3685939D01*
X19616238Y-3696237D01*
X19605940Y-3708785D01*
X19575124Y-3746334D01*
X19544574Y-3803489D01*
X19531982Y-3845000D01*
X19525762Y-3865505D01*
X19522735Y-3896241D01*
X19519410Y-3930000D01*
X19521001Y-3946154D01*
X19521001Y-4571876D01*
X19509000Y-4559875D01*
X19509000Y-4016146D01*
X19510590Y-4000000D01*
X19509000Y-3983853D01*
X19509000Y-3983846D01*
X19504239Y-3935505D01*
X19485426Y-3873488D01*
X19454876Y-3816333D01*
X19413763Y-3766237D01*
X19401216Y-3755940D01*
X19144065Y-3498790D01*
X19133763Y-3486237D01*
X19083667Y-3445124D01*
X19026512Y-3414574D01*
X18964495Y-3395761D01*
X18916154Y-3391000D01*
X18916144Y-3391000D01*
X18900000Y-3389410D01*
X18899882Y-3389422D01*
X18891797Y-3382786D01*
X18847672Y-3359200D01*
X18799793Y-3344676D01*
X18750000Y-3339772D01*
X18657128Y-3339772D01*
X18617418Y-3313239D01*
X18533885Y-3278639D01*
X18445208Y-3261000D01*
X18354792Y-3261000D01*
X18266115Y-3278639D01*
X18182582Y-3313239D01*
X18142872Y-3339772D01*
X18050000Y-3339772D01*
X18000207Y-3344676D01*
X17952328Y-3359200D01*
X17908203Y-3382786D01*
X17869527Y-3414527D01*
X17837786Y-3453203D01*
X17814200Y-3497328D01*
X17799676Y-3545207D01*
X17794772Y-3595000D01*
X17794772Y-3845000D01*
X17799676Y-3894793D01*
X17814200Y-3942672D01*
X17828808Y-3970000D01*
X17814200Y-3997328D01*
X17799676Y-4045207D01*
X17794772Y-4095000D01*
X17794772Y-4345000D01*
X17799676Y-4394793D01*
X17814200Y-4442672D01*
X17828808Y-4470000D01*
X17814200Y-4497328D01*
X17799676Y-4545207D01*
X17794772Y-4595000D01*
X17794772Y-4845000D01*
X17799676Y-4894793D01*
X17814200Y-4942672D01*
X17828808Y-4970000D01*
X17814200Y-4997328D01*
X17799676Y-5045207D01*
X17794772Y-5095000D01*
X17794772Y-5345000D01*
X17799676Y-5394793D01*
X17814200Y-5442672D01*
X17828808Y-5470000D01*
X17814200Y-5497328D01*
X17799676Y-5545207D01*
X17794772Y-5595000D01*
X17794772Y-5845000D01*
X17799676Y-5894793D01*
X17814200Y-5942672D01*
X17828808Y-5970000D01*
X17814200Y-5997328D01*
X17799676Y-6045207D01*
X17794772Y-6095000D01*
X17794772Y-6345000D01*
X17799676Y-6394793D01*
X17814200Y-6442672D01*
X17828808Y-6470000D01*
X17814200Y-6497328D01*
X17799676Y-6545207D01*
X17794772Y-6595000D01*
X17794772Y-6845000D01*
X17799676Y-6894793D01*
X17814200Y-6942672D01*
X17828808Y-6970000D01*
X17814200Y-6997328D01*
X17799676Y-7045207D01*
X17794772Y-7095000D01*
X17794772Y-7264772D01*
X17625000Y-7264772D01*
X17575207Y-7269676D01*
X17527328Y-7284200D01*
X17500000Y-7298808D01*
X17472672Y-7284200D01*
X17424793Y-7269676D01*
X17375000Y-7264772D01*
X17125000Y-7264772D01*
X17075207Y-7269676D01*
X17027328Y-7284200D01*
X17000000Y-7298808D01*
X16972672Y-7284200D01*
X16924793Y-7269676D01*
X16875000Y-7264772D01*
X16625000Y-7264772D01*
X16575207Y-7269676D01*
X16527328Y-7284200D01*
X16500000Y-7298808D01*
X16472672Y-7284200D01*
X16424793Y-7269676D01*
X16375000Y-7264772D01*
X16125000Y-7264772D01*
X16075207Y-7269676D01*
X16027328Y-7284200D01*
X16000000Y-7298808D01*
X15972672Y-7284200D01*
X15924793Y-7269676D01*
X15875000Y-7264772D01*
X15625000Y-7264772D01*
X15575207Y-7269676D01*
X15527328Y-7284200D01*
X15500000Y-7298808D01*
X15472672Y-7284200D01*
X15424793Y-7269676D01*
X15375000Y-7264772D01*
X15125000Y-7264772D01*
X15075207Y-7269676D01*
X15027328Y-7284200D01*
X15000000Y-7298808D01*
X14972672Y-7284200D01*
X14924793Y-7269676D01*
X14875000Y-7264772D01*
X14625000Y-7264772D01*
X14575207Y-7269676D01*
X14527328Y-7284200D01*
X14483203Y-7307786D01*
X14444527Y-7339527D01*
X14412786Y-7378203D01*
X14389200Y-7422328D01*
X14374676Y-7470207D01*
X14369772Y-7520000D01*
X14369772Y-8220000D01*
X14374676Y-8269793D01*
X14389200Y-8317672D01*
X14412786Y-8361797D01*
X14421000Y-8371806D01*
X14421001Y-8739636D01*
X14395207Y-8742176D01*
X14347328Y-8756700D01*
X14303203Y-8780286D01*
X14264527Y-8812027D01*
X14261821Y-8815324D01*
X14256529Y-8807404D01*
X14192596Y-8743471D01*
X14117418Y-8693239D01*
X14033885Y-8658639D01*
X13945208Y-8641000D01*
X13854792Y-8641000D01*
X13766115Y-8658639D01*
X13682582Y-8693239D01*
X13607404Y-8743471D01*
X13579875Y-8771000D01*
X12186143Y-8771000D01*
X12169999Y-8769410D01*
X12153855Y-8771000D01*
X12153846Y-8771000D01*
X12105505Y-8775761D01*
X12043488Y-8794574D01*
X11986333Y-8825124D01*
X11936237Y-8866237D01*
X11925939Y-8878785D01*
X10683725Y-10121000D01*
X10364047Y-10121000D01*
X10397672Y-10110800D01*
X10441797Y-10087214D01*
X10480473Y-10055473D01*
X10512214Y-10016797D01*
X10535800Y-9972672D01*
X10550324Y-9924793D01*
X10555228Y-9875000D01*
X10555228Y-9625000D01*
X10550324Y-9575207D01*
X10535800Y-9527328D01*
X10521192Y-9500000D01*
X10535800Y-9472672D01*
X10550324Y-9424793D01*
X10555228Y-9375000D01*
X10555228Y-9125000D01*
X10550324Y-9075207D01*
X10535800Y-9027328D01*
X10521192Y-9000000D01*
X10535800Y-8972672D01*
X10550324Y-8924793D01*
X10555228Y-8875000D01*
X10555228Y-8625000D01*
X10550324Y-8575207D01*
X10535800Y-8527328D01*
X10521192Y-8500000D01*
X10535800Y-8472672D01*
X10550324Y-8424793D01*
X10555228Y-8375000D01*
X10555228Y-8125000D01*
X10550324Y-8075207D01*
X10535800Y-8027328D01*
X10512214Y-7983203D01*
X10480473Y-7944527D01*
X10441797Y-7912786D01*
X10397672Y-7889200D01*
X10349793Y-7874676D01*
X10300000Y-7869772D01*
X9630228Y-7869772D01*
X9630228Y-7200000D01*
X9625324Y-7150207D01*
X9621015Y-7136001D01*
X9750857Y-7136001D01*
X9767001Y-7137591D01*
X9783145Y-7136001D01*
X9783155Y-7136001D01*
X9831496Y-7131240D01*
X9893513Y-7112427D01*
X9950668Y-7081877D01*
X9990728Y-7049000D01*
X12455678Y-7049000D01*
X12441000Y-7122790D01*
X12441000Y-7213206D01*
X12458639Y-7301883D01*
X12493239Y-7385416D01*
X12543471Y-7460594D01*
X12607404Y-7524527D01*
X12682582Y-7574759D01*
X12766115Y-7609359D01*
X12854792Y-7626998D01*
X12945208Y-7626998D01*
X13033885Y-7609359D01*
X13117418Y-7574759D01*
X13127910Y-7567748D01*
X13152328Y-7580800D01*
X13200207Y-7595324D01*
X13208273Y-7596118D01*
X13137404Y-7643471D01*
X13073471Y-7707404D01*
X13023239Y-7782582D01*
X12988639Y-7866115D01*
X12971000Y-7954792D01*
X12971000Y-8045208D01*
X12988639Y-8133885D01*
X13023239Y-8217418D01*
X13073471Y-8292596D01*
X13137404Y-8356529D01*
X13212582Y-8406761D01*
X13296115Y-8441361D01*
X13384792Y-8459000D01*
X13475208Y-8459000D01*
X13563885Y-8441361D01*
X13647418Y-8406761D01*
X13722596Y-8356529D01*
X13786529Y-8292596D01*
X13836761Y-8217418D01*
X13871361Y-8133885D01*
X13889000Y-8045208D01*
X13889000Y-7954792D01*
X13871361Y-7866115D01*
X13836761Y-7782582D01*
X13786529Y-7707404D01*
X13722596Y-7643471D01*
X13657878Y-7600228D01*
X13950000Y-7600228D01*
X13999793Y-7595324D01*
X14047672Y-7580800D01*
X14091797Y-7557214D01*
X14130473Y-7525473D01*
X14162214Y-7486797D01*
X14185800Y-7442672D01*
X14200324Y-7394793D01*
X14205228Y-7345000D01*
X14205228Y-7095000D01*
X14200324Y-7045207D01*
X14185800Y-6997328D01*
X14171192Y-6970000D01*
X14185800Y-6942672D01*
X14200324Y-6894793D01*
X14205228Y-6845000D01*
X14205228Y-6595000D01*
X14200324Y-6545207D01*
X14185800Y-6497328D01*
X14171192Y-6470000D01*
X14185800Y-6442672D01*
X14200324Y-6394793D01*
X14205228Y-6345000D01*
X14205228Y-6095000D01*
X14200324Y-6045207D01*
X14185800Y-5997328D01*
X14171192Y-5970000D01*
X14185800Y-5942672D01*
X14200324Y-5894793D01*
X14205228Y-5845000D01*
X14205228Y-5595000D01*
X14200324Y-5545207D01*
X14185800Y-5497328D01*
X14171192Y-5470000D01*
X14185800Y-5442672D01*
X14200324Y-5394793D01*
X14205228Y-5345000D01*
X14205228Y-5095000D01*
X14200324Y-5045207D01*
X14185800Y-4997328D01*
X14171192Y-4970000D01*
X14185800Y-4942672D01*
X14200324Y-4894793D01*
X14205228Y-4845000D01*
X14205228Y-4595000D01*
X14200324Y-4545207D01*
X14185800Y-4497328D01*
X14171192Y-4470000D01*
X14185800Y-4442672D01*
X14200324Y-4394793D01*
X14205228Y-4345000D01*
X14205228Y-4095000D01*
X14200324Y-4045207D01*
X14185800Y-3997328D01*
X14171192Y-3970000D01*
X14185800Y-3942672D01*
X14200324Y-3894793D01*
X14205228Y-3845000D01*
X14205228Y-3675228D01*
X14375000Y-3675228D01*
X14424793Y-3670324D01*
X14472672Y-3655800D01*
X14500000Y-3641192D01*
X14527328Y-3655800D01*
X14575207Y-3670324D01*
X14625000Y-3675228D01*
X14875000Y-3675228D01*
X14924793Y-3670324D01*
X14972672Y-3655800D01*
X15000000Y-3641192D01*
X15027328Y-3655800D01*
X15075207Y-3670324D01*
X15125000Y-3675228D01*
X15375000Y-3675228D01*
X15424793Y-3670324D01*
X15472672Y-3655800D01*
X15500000Y-3641192D01*
X15527328Y-3655800D01*
X15575207Y-3670324D01*
X15625000Y-3675228D01*
X15875000Y-3675228D01*
X15924793Y-3670324D01*
X15972672Y-3655800D01*
X16000000Y-3641192D01*
X16027328Y-3655800D01*
X16075207Y-3670324D01*
X16125000Y-3675228D01*
X16375000Y-3675228D01*
X16424793Y-3670324D01*
X16472672Y-3655800D01*
X16500000Y-3641192D01*
X16527328Y-3655800D01*
X16575207Y-3670324D01*
X16625000Y-3675228D01*
X16875000Y-3675228D01*
X16924793Y-3670324D01*
X16972672Y-3655800D01*
X17000000Y-3641192D01*
X17027328Y-3655800D01*
X17075207Y-3670324D01*
X17125000Y-3675228D01*
X17375000Y-3675228D01*
X17424793Y-3670324D01*
X17472672Y-3655800D01*
X17516797Y-3632214D01*
X17555473Y-3600473D01*
X17587214Y-3561797D01*
X17610800Y-3517672D01*
X17625324Y-3469793D01*
X17630228Y-3420000D01*
X17630228Y-3327128D01*
X17656761Y-3287418D01*
X17691361Y-3203885D01*
X17709000Y-3115208D01*
X17709000Y-3024792D01*
X17691361Y-2936115D01*
X17656761Y-2852582D01*
X17630228Y-2812872D01*
X17630228Y-2720000D01*
X17625324Y-2670207D01*
X17610800Y-2622328D01*
X17587214Y-2578203D01*
X17555473Y-2539527D01*
X17516797Y-2507786D01*
X17472672Y-2484200D01*
X17424793Y-2469676D01*
X17375000Y-2464772D01*
X17129000Y-2464772D01*
X17129000Y-2336275D01*
X18048777Y-1416500D01*
X20523859Y-1416500D01*
X20524676Y-1424793D01*
X20539200Y-1472672D01*
X20562786Y-1516797D01*
X20594527Y-1555473D01*
X20633203Y-1587214D01*
X20677328Y-1610800D01*
X20725207Y-1625324D01*
X20775000Y-1630228D01*
X21425000Y-1630228D01*
X21474793Y-1625324D01*
X21522672Y-1610800D01*
X21566797Y-1587214D01*
X21575000Y-1580482D01*
X21583203Y-1587214D01*
X21627328Y-1610800D01*
X21675207Y-1625324D01*
X21725000Y-1630228D01*
X22375000Y-1630228D01*
X22424793Y-1625324D01*
X22472672Y-1610800D01*
X22516797Y-1587214D01*
X22555473Y-1555473D01*
X22587214Y-1516797D01*
X22610800Y-1472672D01*
X22625324Y-1424793D01*
X22627753Y-1400133D01*
X22651512Y-1392926D01*
X22708667Y-1362376D01*
X22758763Y-1321263D01*
X22769065Y-1308710D01*
X22971766Y-1106010D01*
X28385614Y-1106010D01*
X28393239Y-1124418D01*
X28443471Y-1199596D01*
X28507404Y-1263529D01*
X28582582Y-1313761D01*
X28666115Y-1348361D01*
X28754792Y-1366000D01*
X28845208Y-1366000D01*
X28933885Y-1348361D01*
X29017418Y-1313761D01*
X29092596Y-1263529D01*
X29156529Y-1199596D01*
X29206761Y-1124418D01*
X29241361Y-1040885D01*
X29259000Y-952208D01*
X29259000Y-861792D01*
X29241361Y-773115D01*
X29206761Y-689582D01*
X29156529Y-614404D01*
X29092596Y-550471D01*
X29017418Y-500239D01*
X28933885Y-465639D01*
X28845208Y-448000D01*
X28754792Y-448000D01*
X28732031Y-452527D01*
X28686164Y-448010D01*
X28686154Y-448010D01*
X28670010Y-446420D01*
X28653866Y-448010D01*
X22851633Y-448010D01*
X22835489Y-446420D01*
X22819345Y-448010D01*
X22819336Y-448010D01*
X22770995Y-452771D01*
X22708978Y-471584D01*
X22651823Y-502134D01*
X22601727Y-543247D01*
X22591429Y-555795D01*
X22540217Y-607007D01*
X22516797Y-587786D01*
X22472672Y-564200D01*
X22424793Y-549676D01*
X22375000Y-544772D01*
X21725000Y-544772D01*
X21675207Y-549676D01*
X21627328Y-564200D01*
X21583203Y-587786D01*
X21575000Y-594518D01*
X21566797Y-587786D01*
X21522672Y-564200D01*
X21474793Y-549676D01*
X21425000Y-544772D01*
X20775000Y-544772D01*
X20725207Y-549676D01*
X20677328Y-564200D01*
X20633203Y-587786D01*
X20594527Y-619527D01*
X20562786Y-658203D01*
X20539200Y-702328D01*
X20524676Y-750207D01*
X20523859Y-758500D01*
X17928654Y-758500D01*
X17912500Y-756909D01*
X17848005Y-763261D01*
X17785988Y-782074D01*
X17728833Y-812624D01*
X17691284Y-843439D01*
X17691279Y-843444D01*
X17678737Y-853737D01*
X17668444Y-866279D01*
X16578785Y-1955939D01*
X16566238Y-1966237D01*
X16555940Y-1978785D01*
X16525124Y-2016334D01*
X16514695Y-2035846D01*
X16508842Y-2046796D01*
X16494060Y-2028784D01*
X16483763Y-2016237D01*
X16471215Y-2005939D01*
X15737065Y-1271790D01*
X15726763Y-1259237D01*
X15676667Y-1218124D01*
X15619512Y-1187574D01*
X15613027Y-1185607D01*
X15563891Y-1136471D01*
X15488713Y-1086239D01*
X15405180Y-1051639D01*
X15316503Y-1034000D01*
X15226087Y-1034000D01*
X15137410Y-1051639D01*
X15053877Y-1086239D01*
X14978699Y-1136471D01*
X14914766Y-1200404D01*
X14864534Y-1275582D01*
X14829934Y-1359115D01*
X14812295Y-1447792D01*
X14812295Y-1538208D01*
X14829934Y-1626885D01*
X14864534Y-1710418D01*
X14914766Y-1785596D01*
X14978699Y-1849529D01*
X15053877Y-1899761D01*
X15137410Y-1934361D01*
X15226087Y-1952000D01*
X15316503Y-1952000D01*
X15405180Y-1934361D01*
X15450368Y-1915644D01*
X15921001Y-2386277D01*
X15921001Y-2469303D01*
X15875000Y-2464772D01*
X15625000Y-2464772D01*
X15575207Y-2469676D01*
X15527328Y-2484200D01*
X15500000Y-2498808D01*
X15472672Y-2484200D01*
X15424793Y-2469676D01*
X15375000Y-2464772D01*
X15125000Y-2464772D01*
X15075207Y-2469676D01*
X15027328Y-2484200D01*
X15000000Y-2498808D01*
X14972672Y-2484200D01*
X14924793Y-2469676D01*
X14875000Y-2464772D01*
X14625000Y-2464772D01*
X14575207Y-2469676D01*
X14527328Y-2484200D01*
X14500000Y-2498808D01*
X14472672Y-2484200D01*
X14424793Y-2469676D01*
X14375000Y-2464772D01*
X14125000Y-2464772D01*
X14075207Y-2469676D01*
X14027328Y-2484200D01*
X13983203Y-2507786D01*
X13944527Y-2539527D01*
X13912786Y-2578203D01*
X13889200Y-2622328D01*
X13874676Y-2670207D01*
X13869772Y-2720000D01*
X13869772Y-3339772D01*
X13250000Y-3339772D01*
X13200207Y-3344676D01*
X13152328Y-3359200D01*
X13108203Y-3382786D01*
X13069527Y-3414527D01*
X13037786Y-3453203D01*
X13014200Y-3497328D01*
X12999676Y-3545207D01*
X12994772Y-3595000D01*
X12994772Y-3845000D01*
X12999676Y-3894793D01*
X13014200Y-3942672D01*
X13028808Y-3970000D01*
X13014200Y-3997328D01*
X12999676Y-4045207D01*
X12994772Y-4095000D01*
X12994772Y-4249496D01*
X11924065Y-3178790D01*
X11913763Y-3166237D01*
X11863667Y-3125124D01*
X11806512Y-3094574D01*
X11744495Y-3075761D01*
X11696154Y-3071000D01*
X11696144Y-3071000D01*
X11680000Y-3069410D01*
X11663856Y-3071000D01*
X5848643Y-3071000D01*
X5832499Y-3069410D01*
X5816355Y-3071000D01*
X5816346Y-3071000D01*
X5768005Y-3075761D01*
X5705988Y-3094574D01*
X5648833Y-3125124D01*
X5598737Y-3166237D01*
X5588439Y-3178785D01*
X4780356Y-3986868D01*
X4826761Y-3917418D01*
X4861361Y-3833885D01*
X4879000Y-3745208D01*
X4879000Y-3654792D01*
X4861361Y-3566115D01*
X4826761Y-3482582D01*
X4776529Y-3407404D01*
X4712596Y-3343471D01*
X4637418Y-3293239D01*
X4553885Y-3258639D01*
X4465208Y-3241000D01*
X4374792Y-3241000D01*
X4286115Y-3258639D01*
X4202582Y-3293239D01*
X4127404Y-3343471D01*
X4063471Y-3407404D01*
X4013239Y-3482582D01*
X3978639Y-3566115D01*
X3961000Y-3654792D01*
X3961000Y-3745208D01*
X3978639Y-3833885D01*
X4013239Y-3917418D01*
X4063471Y-3992596D01*
X4127404Y-4056529D01*
X4202582Y-4106761D01*
X4286115Y-4141361D01*
X4374792Y-4159000D01*
X4465208Y-4159000D01*
X4553885Y-4141361D01*
X4637418Y-4106761D01*
X4706868Y-4060356D01*
X2956286Y-5810939D01*
X2943738Y-5821237D01*
X2933440Y-5833785D01*
X2902624Y-5871334D01*
X2872074Y-5928489D01*
X2864867Y-5952247D01*
X2840207Y-5954676D01*
X2792328Y-5969200D01*
X2790000Y-5970444D01*
X2787672Y-5969200D01*
X2739793Y-5954676D01*
X2690000Y-5949772D01*
X2115000Y-5949772D01*
X2065207Y-5954676D01*
X2017328Y-5969200D01*
X1973203Y-5992786D01*
X1934527Y-6024527D01*
X1902786Y-6063203D01*
X1879200Y-6107328D01*
X1864676Y-6155207D01*
X1860372Y-6198912D01*
X1811333Y-6225124D01*
X1761237Y-6266237D01*
X1750939Y-6278785D01*
X1178785Y-6850939D01*
X1166238Y-6861237D01*
X1155940Y-6873785D01*
X1125124Y-6911334D01*
X1094574Y-6968489D01*
X1086570Y-6994876D01*
X1075762Y-7030505D01*
X1073034Y-7058203D01*
X1069410Y-7095000D01*
X1071001Y-7111154D01*
X1071000Y-7879875D01*
X1043471Y-7907404D01*
X993239Y-7982582D01*
X958639Y-8066115D01*
X941000Y-8154792D01*
X941000Y-8245208D01*
X958639Y-8333885D01*
X993239Y-8417418D01*
X1043471Y-8492596D01*
X1107404Y-8556529D01*
X1182582Y-8606761D01*
X1266115Y-8641361D01*
X1354792Y-8659000D01*
X1445208Y-8659000D01*
X1533885Y-8641361D01*
X1617418Y-8606761D01*
X1692596Y-8556529D01*
X1756529Y-8492596D01*
X1806761Y-8417418D01*
X1841361Y-8333885D01*
X1859000Y-8245208D01*
X1859000Y-8154792D01*
X1841361Y-8066115D01*
X1806761Y-7982582D01*
X1756529Y-7907404D01*
X1729000Y-7879875D01*
X1729000Y-7231275D01*
X1930144Y-7030132D01*
X1934527Y-7035473D01*
X1973203Y-7067214D01*
X2017328Y-7090800D01*
X2065207Y-7105324D01*
X2115000Y-7110228D01*
X2690000Y-7110228D01*
X2739793Y-7105324D01*
X2787672Y-7090800D01*
X2790000Y-7089556D01*
X2792328Y-7090800D01*
X2840207Y-7105324D01*
X2890000Y-7110228D01*
X3465000Y-7110228D01*
X3514793Y-7105324D01*
X3562672Y-7090800D01*
X3606797Y-7067214D01*
X3645473Y-7035473D01*
X3677214Y-6996797D01*
X3700800Y-6952672D01*
X3715324Y-6904793D01*
X3720228Y-6855000D01*
X3720228Y-6205000D01*
X3715324Y-6155207D01*
X3700800Y-6107328D01*
X3677214Y-6063203D01*
X3657993Y-6039782D01*
X5968776Y-3729000D01*
X6809621Y-3729000D01*
X6101775Y-4436848D01*
X6089228Y-4447145D01*
X6078930Y-4459693D01*
X6048114Y-4497242D01*
X6017564Y-4554397D01*
X6005706Y-4593488D01*
X5998752Y-4616413D01*
X5995815Y-4646237D01*
X5992400Y-4680908D01*
X5993991Y-4697062D01*
X5993990Y-5280734D01*
X5693974Y-5580751D01*
X5709000Y-5505208D01*
X5709000Y-5414792D01*
X5691361Y-5326115D01*
X5656761Y-5242582D01*
X5606529Y-5167404D01*
X5542596Y-5103471D01*
X5467418Y-5053239D01*
X5383885Y-5018639D01*
X5295208Y-5001000D01*
X5204792Y-5001000D01*
X5116115Y-5018639D01*
X5032582Y-5053239D01*
X4957404Y-5103471D01*
X4893471Y-5167404D01*
X4843239Y-5242582D01*
X4808639Y-5326115D01*
X4791000Y-5414792D01*
X4791000Y-5505208D01*
X4808639Y-5593885D01*
X4843239Y-5677418D01*
X4893471Y-5752596D01*
X4957404Y-5816529D01*
X5032582Y-5866761D01*
X5116115Y-5901361D01*
X5204792Y-5919000D01*
X5295208Y-5919000D01*
X5370751Y-5903974D01*
X4878786Y-6395939D01*
X4866238Y-6406237D01*
X4855940Y-6418785D01*
X4825124Y-6456334D01*
X4794574Y-6513489D01*
X4784953Y-6545207D01*
X4775762Y-6575505D01*
X4773991Y-6593488D01*
X4769410Y-6640000D01*
X4771001Y-6656154D01*
X4771000Y-8373856D01*
X4769410Y-8390000D01*
X4771000Y-8406144D01*
X4771000Y-8406153D01*
X4775761Y-8454494D01*
X4794574Y-8516511D01*
X4825124Y-8573666D01*
X4866237Y-8623763D01*
X4878790Y-8634065D01*
X5095939Y-8851215D01*
X5106237Y-8863763D01*
X5156333Y-8904876D01*
X5213488Y-8935426D01*
X5275505Y-8954239D01*
X5323846Y-8959000D01*
X5323855Y-8959000D01*
X5339999Y-8960590D01*
X5356143Y-8959000D01*
X6153856Y-8959000D01*
X6170000Y-8960590D01*
X6186144Y-8959000D01*
X6186154Y-8959000D01*
X6234495Y-8954239D01*
X6296512Y-8935426D01*
X6353667Y-8904876D01*
X6403763Y-8863763D01*
X6414065Y-8851210D01*
X6444772Y-8820503D01*
X6444772Y-8875000D01*
X6449676Y-8924793D01*
X6464200Y-8972672D01*
X6478808Y-9000000D01*
X6464200Y-9027328D01*
X6449676Y-9075207D01*
X6444772Y-9125000D01*
X6444772Y-9375000D01*
X6449676Y-9424793D01*
X6464200Y-9472672D01*
X6478808Y-9500000D01*
X6464200Y-9527328D01*
X6449676Y-9575207D01*
X6444772Y-9625000D01*
X6444772Y-9875000D01*
X6449676Y-9924793D01*
X6464200Y-9972672D01*
X6487786Y-10016797D01*
X6519527Y-10055473D01*
X6558203Y-10087214D01*
X6602328Y-10110800D01*
X6650207Y-10125324D01*
X6700000Y-10130228D01*
X7400000Y-10130228D01*
X7449793Y-10125324D01*
X7497672Y-10110800D01*
X7541797Y-10087214D01*
X7580473Y-10055473D01*
X7612214Y-10016797D01*
X7635800Y-9972672D01*
X7650324Y-9924793D01*
X7655228Y-9875000D01*
X7655228Y-9625000D01*
X7650324Y-9575207D01*
X7635800Y-9527328D01*
X7621192Y-9500000D01*
X7635800Y-9472672D01*
X7650324Y-9424793D01*
X7655228Y-9375000D01*
X7655228Y-9125000D01*
X7650324Y-9075207D01*
X7635800Y-9027328D01*
X7621192Y-9000000D01*
X7635800Y-8972672D01*
X7650324Y-8924793D01*
X7655228Y-8875000D01*
X7655228Y-8625000D01*
X7650324Y-8575207D01*
X7635800Y-8527328D01*
X7621192Y-8500000D01*
X7635800Y-8472672D01*
X7650324Y-8424793D01*
X7655228Y-8375000D01*
X7655228Y-8155228D01*
X7875000Y-8155228D01*
X7924793Y-8150324D01*
X7972672Y-8135800D01*
X8000000Y-8121192D01*
X8027328Y-8135800D01*
X8075207Y-8150324D01*
X8125000Y-8155228D01*
X8375000Y-8155228D01*
X8424793Y-8150324D01*
X8472672Y-8135800D01*
X8500000Y-8121192D01*
X8527328Y-8135800D01*
X8575207Y-8150324D01*
X8625000Y-8155228D01*
X8875000Y-8155228D01*
X8924793Y-8150324D01*
X8972672Y-8135800D01*
X9000000Y-8121192D01*
X9027328Y-8135800D01*
X9075207Y-8150324D01*
X9125000Y-8155228D01*
X9344772Y-8155228D01*
X9344772Y-8375000D01*
X9349676Y-8424793D01*
X9364200Y-8472672D01*
X9378808Y-8500000D01*
X9364200Y-8527328D01*
X9349676Y-8575207D01*
X9344772Y-8625000D01*
X9344772Y-8875000D01*
X9349676Y-8924793D01*
X9364200Y-8972672D01*
X9378808Y-9000000D01*
X9364200Y-9027328D01*
X9349676Y-9075207D01*
X9344772Y-9125000D01*
X9344772Y-9375000D01*
X9349676Y-9424793D01*
X9364200Y-9472672D01*
X9378808Y-9500000D01*
X9364200Y-9527328D01*
X9349676Y-9575207D01*
X9344772Y-9625000D01*
X9344772Y-9844772D01*
X9125000Y-9844772D01*
X9075207Y-9849676D01*
X9027328Y-9864200D01*
X9000000Y-9878808D01*
X8972672Y-9864200D01*
X8924793Y-9849676D01*
X8875000Y-9844772D01*
X8625000Y-9844772D01*
X8575207Y-9849676D01*
X8527328Y-9864200D01*
X8500000Y-9878808D01*
X8472672Y-9864200D01*
X8424793Y-9849676D01*
X8375000Y-9844772D01*
X8125000Y-9844772D01*
X8075207Y-9849676D01*
X8027328Y-9864200D01*
X7983203Y-9887786D01*
X7944527Y-9919527D01*
X7912786Y-9958203D01*
X7889200Y-10002328D01*
X7874676Y-10050207D01*
X7869772Y-10100000D01*
X7869772Y-10800000D01*
X7874676Y-10849793D01*
X7877063Y-10857661D01*
X7733725Y-11001000D01*
X6582333Y-11001000D01*
X6581361Y-10996115D01*
X6546761Y-10912582D01*
X6496529Y-10837404D01*
X6432596Y-10773471D01*
X6357418Y-10723239D01*
X6273885Y-10688639D01*
X6185208Y-10671000D01*
X6094792Y-10671000D01*
X6006115Y-10688639D01*
X5922582Y-10723239D01*
X5847404Y-10773471D01*
X5783471Y-10837404D01*
X5733239Y-10912582D01*
X5698639Y-10996115D01*
X5681000Y-11084792D01*
X5681000Y-11175208D01*
X5698639Y-11263885D01*
X5733239Y-11347418D01*
X5783471Y-11422596D01*
X5847404Y-11486529D01*
X5922582Y-11536761D01*
X6006115Y-11571361D01*
X6094792Y-11589000D01*
X6136988Y-11589000D01*
X6151610Y-11601000D01*
X6156333Y-11604876D01*
X6213488Y-11635426D01*
X6275505Y-11654239D01*
X6340000Y-11660591D01*
X6356154Y-11659000D01*
X7853856Y-11659000D01*
X7870000Y-11660590D01*
X7886144Y-11659000D01*
X7886154Y-11659000D01*
X7934495Y-11654239D01*
X7996512Y-11635426D01*
X8053667Y-11604876D01*
X8103763Y-11563763D01*
X8114065Y-11551210D01*
X8471215Y-11194061D01*
X8483763Y-11183763D01*
X8524876Y-11133667D01*
X8555426Y-11076512D01*
X8564368Y-11047036D01*
X8575207Y-11050324D01*
X8625000Y-11055228D01*
X8875000Y-11055228D01*
X8924793Y-11050324D01*
X8972672Y-11035800D01*
X9000000Y-11021192D01*
X9027328Y-11035800D01*
X9075207Y-11050324D01*
X9125000Y-11055228D01*
X9375000Y-11055228D01*
X9424793Y-11050324D01*
X9472672Y-11035800D01*
X9511974Y-11014792D01*
X15851000Y-11014792D01*
X15851000Y-11105208D01*
X15868639Y-11193885D01*
X15903239Y-11277418D01*
X15953471Y-11352596D01*
X16017404Y-11416529D01*
X16092582Y-11466761D01*
X16176115Y-11501361D01*
X16264792Y-11519000D01*
X16355208Y-11519000D01*
X16443885Y-11501361D01*
X16527418Y-11466761D01*
X16602596Y-11416529D01*
X16666529Y-11352596D01*
X16716761Y-11277418D01*
X16751361Y-11193885D01*
X16769000Y-11105208D01*
X16769000Y-11014792D01*
X16751361Y-10926115D01*
X16716761Y-10842582D01*
X16666529Y-10767404D01*
X16602596Y-10703471D01*
X16527418Y-10653239D01*
X16443885Y-10618639D01*
X16355208Y-10601000D01*
X16264792Y-10601000D01*
X16176115Y-10618639D01*
X16092582Y-10653239D01*
X16017404Y-10703471D01*
X15953471Y-10767404D01*
X15903239Y-10842582D01*
X15868639Y-10926115D01*
X15851000Y-11014792D01*
X9511974Y-11014792D01*
X9516797Y-11012214D01*
X9555473Y-10980473D01*
X9587214Y-10941797D01*
X9610800Y-10897672D01*
X9625324Y-10849793D01*
X9630228Y-10800000D01*
X9630228Y-10779000D01*
X10803856Y-10779000D01*
X10820000Y-10780590D01*
X10836144Y-10779000D01*
X10836154Y-10779000D01*
X10884495Y-10774239D01*
X10946512Y-10755426D01*
X11003667Y-10724876D01*
X11053763Y-10683763D01*
X11064065Y-10671210D01*
X12306276Y-9429000D01*
X13562328Y-9429000D01*
X13566237Y-9433763D01*
X13616334Y-9474876D01*
X13673489Y-9505426D01*
X13695419Y-9512078D01*
X13766115Y-9541361D01*
X13854792Y-9559000D01*
X13945208Y-9559000D01*
X14033885Y-9541361D01*
X14117418Y-9506761D01*
X14189772Y-9458416D01*
X14189772Y-9567500D01*
X14194676Y-9617293D01*
X14209200Y-9665172D01*
X14232786Y-9709297D01*
X14264527Y-9747973D01*
X14303203Y-9779714D01*
X14347328Y-9803300D01*
X14395207Y-9817824D01*
X14445000Y-9822728D01*
X15095000Y-9822728D01*
X15144793Y-9817824D01*
X15192672Y-9803300D01*
X15236797Y-9779714D01*
X15275473Y-9747973D01*
X15307214Y-9709297D01*
X15330800Y-9665172D01*
X15345324Y-9617293D01*
X15350228Y-9567500D01*
X15350228Y-8992500D01*
X15345324Y-8942707D01*
X15330800Y-8894828D01*
X15307214Y-8850703D01*
X15275473Y-8812027D01*
X15236797Y-8780286D01*
X15192672Y-8756700D01*
X15144793Y-8742176D01*
X15095000Y-8737272D01*
X15079000Y-8737272D01*
X15079000Y-8470698D01*
X15125000Y-8475228D01*
X15375000Y-8475228D01*
X15424793Y-8470324D01*
X15472672Y-8455800D01*
X15500000Y-8441192D01*
X15527328Y-8455800D01*
X15575207Y-8470324D01*
X15625000Y-8475228D01*
X15875000Y-8475228D01*
X15924793Y-8470324D01*
X15972672Y-8455800D01*
X16000000Y-8441192D01*
X16027328Y-8455800D01*
X16075207Y-8470324D01*
X16125000Y-8475228D01*
X16375000Y-8475228D01*
X16424793Y-8470324D01*
X16472672Y-8455800D01*
X16500000Y-8441192D01*
X16527328Y-8455800D01*
X16575207Y-8470324D01*
X16585496Y-8471337D01*
X16537404Y-8503471D01*
X16473471Y-8567404D01*
X16423239Y-8642582D01*
X16388639Y-8726115D01*
X16371000Y-8814792D01*
X16371000Y-8855896D01*
X16350125Y-8881333D01*
X16319575Y-8938488D01*
X16300762Y-9000505D01*
X16296001Y-9048846D01*
X16296001Y-9048855D01*
X16294411Y-9064999D01*
X16296001Y-9081143D01*
X16296002Y-10118838D01*
X16296001Y-10118848D01*
X16296001Y-10131215D01*
X16294411Y-10147363D01*
X16296001Y-10163507D01*
X16296001Y-10163517D01*
X16300762Y-10211858D01*
X16319575Y-10273875D01*
X16350125Y-10331030D01*
X16391239Y-10381126D01*
X16403787Y-10391424D01*
X18713577Y-12701215D01*
X18723875Y-12713763D01*
X18773971Y-12754876D01*
X18831126Y-12785426D01*
X18893143Y-12804239D01*
X18941484Y-12809000D01*
X18941494Y-12809000D01*
X18957638Y-12810590D01*
X18973782Y-12809000D01*
X19203856Y-12809000D01*
X19220000Y-12810590D01*
X19236144Y-12809000D01*
X19236154Y-12809000D01*
X19284495Y-12804239D01*
X19346512Y-12785426D01*
X19403667Y-12754876D01*
X19453763Y-12713763D01*
X19464065Y-12701210D01*
X19539265Y-12626010D01*
X21950735Y-12626010D01*
X24402947Y-15078223D01*
X24413234Y-15090759D01*
X24425782Y-15101058D01*
X24425793Y-15101069D01*
X24442505Y-15114784D01*
X24463327Y-15131874D01*
X24463332Y-15131876D01*
X24463342Y-15131885D01*
X24500917Y-15151969D01*
X24520481Y-15162428D01*
X24520488Y-15162430D01*
X24520497Y-15162435D01*
X24551416Y-15171814D01*
X24582497Y-15181244D01*
X24582508Y-15181245D01*
X24582514Y-15181247D01*
X24603830Y-15183346D01*
X24630837Y-15186008D01*
X24630854Y-15186008D01*
X24647008Y-15187599D01*
X24663142Y-15186010D01*
X25698372Y-15186010D01*
X25963581Y-15451220D01*
X25973875Y-15463763D01*
X25986417Y-15474056D01*
X25986422Y-15474061D01*
X26019824Y-15501473D01*
X26023971Y-15504876D01*
X26050719Y-15519173D01*
X26054486Y-15523763D01*
X26104582Y-15564876D01*
X26161737Y-15595426D01*
X26223754Y-15614239D01*
X26272095Y-15619000D01*
X26272105Y-15619000D01*
X26288249Y-15620590D01*
X26304393Y-15619000D01*
X29387326Y-15619000D01*
X29403239Y-15657418D01*
X29453471Y-15732596D01*
X29517404Y-15796529D01*
X29592582Y-15846761D01*
X29676115Y-15881361D01*
X29764792Y-15899000D01*
X29855208Y-15899000D01*
X29943885Y-15881361D01*
X30027418Y-15846761D01*
X30102596Y-15796529D01*
X30166529Y-15732596D01*
X30216761Y-15657418D01*
X30251361Y-15573885D01*
X30269000Y-15485208D01*
X30269000Y-15394792D01*
X30255913Y-15329000D01*
X30579875Y-15329000D01*
X30607404Y-15356529D01*
X30682582Y-15406761D01*
X30766115Y-15441361D01*
X30854792Y-15459000D01*
X30945208Y-15459000D01*
X31033885Y-15441361D01*
X31046500Y-15436136D01*
X31046500Y-16443875D01*
X31018971Y-16471404D01*
X30988000Y-16517756D01*
X30957029Y-16471404D01*
X30893096Y-16407471D01*
X30817918Y-16357239D01*
X30734385Y-16322639D01*
X30645708Y-16305000D01*
X30555292Y-16305000D01*
X30466615Y-16322639D01*
X30383082Y-16357239D01*
X30307904Y-16407471D01*
X30280375Y-16435000D01*
X29652143Y-16435000D01*
X29635999Y-16433410D01*
X29619855Y-16435000D01*
X29619846Y-16435000D01*
X29571505Y-16439761D01*
X29509488Y-16458574D01*
X29452333Y-16489124D01*
X29402237Y-16530237D01*
X29391939Y-16542785D01*
X29063725Y-16871000D01*
X20446363Y-16871000D01*
X18129000Y-14553638D01*
X18129000Y-12920125D01*
X18156529Y-12892596D01*
X18206761Y-12817418D01*
X18241361Y-12733885D01*
X18259000Y-12645208D01*
X18259000Y-12554792D01*
X18241361Y-12466115D01*
X18206761Y-12382582D01*
X18156529Y-12307404D01*
X18092596Y-12243471D01*
X18017418Y-12193239D01*
X17933885Y-12158639D01*
X17845208Y-12141000D01*
X17754792Y-12141000D01*
X17666115Y-12158639D01*
X17582582Y-12193239D01*
X17507404Y-12243471D01*
X17443471Y-12307404D01*
X17393239Y-12382582D01*
X17358639Y-12466115D01*
X17341000Y-12554792D01*
X17341000Y-12645208D01*
X17358639Y-12733885D01*
X17393239Y-12817418D01*
X17443471Y-12892596D01*
X17471001Y-12920126D01*
X17471000Y-14383846D01*
X17471000Y-14673769D01*
X17469410Y-14689913D01*
X17471000Y-14706057D01*
X17471000Y-14706067D01*
X17475761Y-14754408D01*
X17494574Y-14816425D01*
X17525124Y-14873580D01*
X17566238Y-14923676D01*
X17578786Y-14933974D01*
X20066026Y-17421215D01*
X20076324Y-17433763D01*
X20126420Y-17474876D01*
X20183575Y-17505426D01*
X20245592Y-17524239D01*
X20293933Y-17529000D01*
X20293942Y-17529000D01*
X20310086Y-17530590D01*
X20326230Y-17529000D01*
X29183856Y-17529000D01*
X29200000Y-17530590D01*
X29216144Y-17529000D01*
X29216154Y-17529000D01*
X29264495Y-17524239D01*
X29326512Y-17505426D01*
X29383667Y-17474876D01*
X29433763Y-17433763D01*
X29444065Y-17421210D01*
X29772276Y-17093000D01*
X30280375Y-17093000D01*
X30307904Y-17120529D01*
X30383082Y-17170761D01*
X30466615Y-17205361D01*
X30555292Y-17223000D01*
X30645708Y-17223000D01*
X30734385Y-17205361D01*
X30817918Y-17170761D01*
X30893096Y-17120529D01*
X30957029Y-17056596D01*
X30988000Y-17010244D01*
X31018971Y-17056596D01*
X31082904Y-17120529D01*
X31158082Y-17170761D01*
X31241615Y-17205361D01*
X31330292Y-17223000D01*
X31420708Y-17223000D01*
X31509385Y-17205361D01*
X31592918Y-17170761D01*
X31668096Y-17120529D01*
X31732029Y-17056596D01*
X31782261Y-16981418D01*
X31816861Y-16897885D01*
X31834500Y-16809208D01*
X31834500Y-16718792D01*
X31816861Y-16630115D01*
X31782261Y-16546582D01*
X31732029Y-16471404D01*
X31704500Y-16443875D01*
X31704500Y-15415840D01*
X31766115Y-15441361D01*
X31854792Y-15459000D01*
X31945208Y-15459000D01*
X32033885Y-15441361D01*
X32117418Y-15406761D01*
X32173000Y-15369623D01*
X32173000Y-17696400D01*
X3275491Y-17696400D01*
X3240663Y-17365031D01*
X3235123Y-17338044D01*
X3229973Y-17311047D01*
X3228749Y-17306989D01*
X3055611Y-16747676D01*
X3044951Y-16722316D01*
X3034640Y-16696797D01*
X3032650Y-16693054D01*
X3032650Y-16693053D01*
X3032647Y-16693049D01*
X2754174Y-16178022D01*
X2738808Y-16155241D01*
X2723720Y-16132184D01*
X2721041Y-16128899D01*
X2347831Y-15677766D01*
X2328279Y-15658350D01*
X2309053Y-15638718D01*
X2305793Y-15636020D01*
X2305787Y-15636014D01*
X2305780Y-15636010D01*
X1852059Y-15265963D01*
X1829134Y-15250732D01*
X1806435Y-15235190D01*
X1802707Y-15233173D01*
X1285742Y-14958299D01*
X1260270Y-14947800D01*
X1235010Y-14936974D01*
X1230967Y-14935722D01*
X1230960Y-14935719D01*
X1230953Y-14935718D01*
X670453Y-14766493D01*
X643479Y-14761152D01*
X616545Y-14755427D01*
X612329Y-14754984D01*
X303600Y-14724713D01*
X303600Y-13980000D01*
X12584772Y-13980000D01*
X12584772Y-15200000D01*
X12589676Y-15249793D01*
X12604200Y-15297672D01*
X12627786Y-15341797D01*
X12659527Y-15380473D01*
X12698203Y-15412214D01*
X12742328Y-15435800D01*
X12790207Y-15450324D01*
X12840000Y-15455228D01*
X14640000Y-15455228D01*
X14689793Y-15450324D01*
X14737672Y-15435800D01*
X14781797Y-15412214D01*
X14820473Y-15380473D01*
X14852214Y-15341797D01*
X14875800Y-15297672D01*
X14890324Y-15249793D01*
X14895228Y-15200000D01*
X14895228Y-13980000D01*
X14890324Y-13930207D01*
X14875800Y-13882328D01*
X14852214Y-13838203D01*
X14824144Y-13804000D01*
X14917859Y-13804000D01*
X14918676Y-13812293D01*
X14933200Y-13860172D01*
X14956786Y-13904297D01*
X14988527Y-13942973D01*
X15027203Y-13974714D01*
X15071328Y-13998300D01*
X15119207Y-14012824D01*
X15169000Y-14017728D01*
X15819000Y-14017728D01*
X15868793Y-14012824D01*
X15916672Y-13998300D01*
X15960797Y-13974714D01*
X15999473Y-13942973D01*
X16031214Y-13904297D01*
X16054800Y-13860172D01*
X16069324Y-13812293D01*
X16074228Y-13762500D01*
X16074228Y-13187500D01*
X16069324Y-13137707D01*
X16054800Y-13089828D01*
X16031214Y-13045703D01*
X15999473Y-13007027D01*
X15960797Y-12975286D01*
X15916672Y-12951700D01*
X15868793Y-12937176D01*
X15819000Y-12932272D01*
X15169000Y-12932272D01*
X15119207Y-12937176D01*
X15071328Y-12951700D01*
X15027203Y-12975286D01*
X14988527Y-13007027D01*
X14956786Y-13045703D01*
X14933200Y-13089828D01*
X14918676Y-13137707D01*
X14917859Y-13146000D01*
X14111144Y-13146000D01*
X14095000Y-13144410D01*
X14078856Y-13146000D01*
X14078846Y-13146000D01*
X14030505Y-13150761D01*
X13968488Y-13169574D01*
X13911333Y-13200124D01*
X13861237Y-13241237D01*
X13850939Y-13253785D01*
X13842512Y-13262212D01*
X13833885Y-13258639D01*
X13745208Y-13241000D01*
X13654792Y-13241000D01*
X13566115Y-13258639D01*
X13482582Y-13293239D01*
X13450000Y-13315009D01*
X13417418Y-13293239D01*
X13333885Y-13258639D01*
X13245208Y-13241000D01*
X13154792Y-13241000D01*
X13066115Y-13258639D01*
X12982582Y-13293239D01*
X12907404Y-13343471D01*
X12843471Y-13407404D01*
X12793239Y-13482582D01*
X12758639Y-13566115D01*
X12741000Y-13654792D01*
X12741000Y-13744910D01*
X12698203Y-13767786D01*
X12659527Y-13799527D01*
X12627786Y-13838203D01*
X12604200Y-13882328D01*
X12589676Y-13930207D01*
X12584772Y-13980000D01*
X303600Y-13980000D01*
X303600Y-3275491D01*
X634968Y-3240663D01*
X661943Y-3235126D01*
X688953Y-3229973D01*
X693001Y-3228751D01*
X693011Y-3228749D01*
X693020Y-3228745D01*
X1252325Y-3055611D01*
X1277710Y-3044940D01*
X1303203Y-3034640D01*
X1306938Y-3032654D01*
X1306948Y-3032650D01*
X1306956Y-3032645D01*
X1821978Y-2754175D01*
X1844786Y-2738791D01*
X1867816Y-2723720D01*
X1871101Y-2721041D01*
X2322234Y-2347831D01*
X2341648Y-2328282D01*
X2361283Y-2309053D01*
X2363980Y-2305793D01*
X2363986Y-2305787D01*
X2363990Y-2305780D01*
X2734037Y-1852059D01*
X2749264Y-1829141D01*
X2764810Y-1806435D01*
X2766827Y-1802706D01*
X3041701Y-1285742D01*
X3052200Y-1260270D01*
X3063026Y-1235010D01*
X3064278Y-1230967D01*
X3064281Y-1230960D01*
X3064282Y-1230953D01*
X3233507Y-670453D01*
X3238847Y-643486D01*
X3244573Y-616545D01*
X3245016Y-612329D01*
X3272836Y-328600D01*
X29607204Y-328600D01*
X29573728Y-362076D01*
G36*
X12537851Y-4723127D02*
X12507404Y-4743471D01*
X12443471Y-4807404D01*
X12393239Y-4882582D01*
X12358639Y-4966115D01*
X12341000Y-5054792D01*
X12341000Y-5145208D01*
X12358639Y-5233885D01*
X12393239Y-5317418D01*
X12443471Y-5392596D01*
X12507404Y-5456529D01*
X12582582Y-5506761D01*
X12666115Y-5541361D01*
X12754792Y-5559000D01*
X12845208Y-5559000D01*
X12898251Y-5548449D01*
X12920000Y-5550591D01*
X12936154Y-5549000D01*
X12999302Y-5549000D01*
X12994772Y-5595000D01*
X12994772Y-5845000D01*
X12999302Y-5891000D01*
X12021276Y-5891000D01*
X11890132Y-5759856D01*
X11895473Y-5755473D01*
X11927214Y-5716797D01*
X11950800Y-5672672D01*
X11965324Y-5624793D01*
X11970228Y-5575000D01*
X11970228Y-5000000D01*
X11965324Y-4950207D01*
X11950800Y-4902328D01*
X11927214Y-4858203D01*
X11895473Y-4819527D01*
X11856797Y-4787786D01*
X11812672Y-4764200D01*
X11764793Y-4749676D01*
X11715000Y-4744772D01*
X11065000Y-4744772D01*
X11015207Y-4749676D01*
X10967328Y-4764200D01*
X10923203Y-4787786D01*
X10884527Y-4819527D01*
X10852786Y-4858203D01*
X10829200Y-4902328D01*
X10814676Y-4950207D01*
X10811263Y-4984860D01*
X10790473Y-4959527D01*
X10751797Y-4927786D01*
X10707672Y-4904200D01*
X10659793Y-4889676D01*
X10610000Y-4884772D01*
X9710000Y-4884772D01*
X9660207Y-4889676D01*
X9612328Y-4904200D01*
X9568203Y-4927786D01*
X9529527Y-4959527D01*
X9497786Y-4998203D01*
X9474200Y-5042328D01*
X9459676Y-5090207D01*
X9454772Y-5140000D01*
X9454772Y-5940000D01*
X9457574Y-5968451D01*
X9433885Y-5958639D01*
X9345208Y-5941000D01*
X9254792Y-5941000D01*
X9166115Y-5958639D01*
X9082582Y-5993239D01*
X9007404Y-6043471D01*
X8943471Y-6107404D01*
X8893239Y-6182582D01*
X8858639Y-6266115D01*
X8841000Y-6354792D01*
X8841000Y-6355724D01*
X8624065Y-6138790D01*
X8613763Y-6126237D01*
X8563667Y-6085124D01*
X8506512Y-6054574D01*
X8444495Y-6035761D01*
X8396154Y-6031000D01*
X8396144Y-6031000D01*
X8380000Y-6029410D01*
X8363856Y-6031000D01*
X7366277Y-6031000D01*
X6929000Y-5593725D01*
X6929000Y-5041275D01*
X6999782Y-4970493D01*
X7023203Y-4989714D01*
X7067328Y-5013300D01*
X7115207Y-5027824D01*
X7165000Y-5032728D01*
X7815000Y-5032728D01*
X7864793Y-5027824D01*
X7912672Y-5013300D01*
X7956797Y-4989714D01*
X7995473Y-4957973D01*
X8027214Y-4919297D01*
X8050800Y-4875172D01*
X8056413Y-4856667D01*
X8059676Y-4889793D01*
X8074200Y-4937672D01*
X8097786Y-4981797D01*
X8129527Y-5020473D01*
X8168203Y-5052214D01*
X8212328Y-5075800D01*
X8260207Y-5090324D01*
X8310000Y-5095228D01*
X9210000Y-5095228D01*
X9259793Y-5090324D01*
X9307672Y-5075800D01*
X9351797Y-5052214D01*
X9390473Y-5020473D01*
X9422214Y-4981797D01*
X9445800Y-4937672D01*
X9460324Y-4889793D01*
X9465228Y-4840000D01*
X9465228Y-4040000D01*
X9460324Y-3990207D01*
X9445800Y-3942328D01*
X9422214Y-3898203D01*
X9390473Y-3859527D01*
X9351797Y-3827786D01*
X9307672Y-3804200D01*
X9259793Y-3789676D01*
X9210000Y-3784772D01*
X8310000Y-3784772D01*
X8260207Y-3789676D01*
X8212328Y-3804200D01*
X8168203Y-3827786D01*
X8129527Y-3859527D01*
X8097786Y-3898203D01*
X8074200Y-3942328D01*
X8059676Y-3990207D01*
X8054772Y-4040000D01*
X8054772Y-4117922D01*
X8050800Y-4104828D01*
X8027214Y-4060703D01*
X7995473Y-4022027D01*
X7956797Y-3990286D01*
X7912672Y-3966700D01*
X7864793Y-3952176D01*
X7815000Y-3947272D01*
X7808715Y-3947272D01*
X7811361Y-3940885D01*
X7829000Y-3852208D01*
X7829000Y-3761792D01*
X7822477Y-3729000D01*
X11543725Y-3729000D01*
X12537851Y-4723127D01*
X12537851Y-4723127D01*
G37*
X12537851Y-4723127D02*
X12507404Y-4743471D01*
X12443471Y-4807404D01*
X12393239Y-4882582D01*
X12358639Y-4966115D01*
X12341000Y-5054792D01*
X12341000Y-5145208D01*
X12358639Y-5233885D01*
X12393239Y-5317418D01*
X12443471Y-5392596D01*
X12507404Y-5456529D01*
X12582582Y-5506761D01*
X12666115Y-5541361D01*
X12754792Y-5559000D01*
X12845208Y-5559000D01*
X12898251Y-5548449D01*
X12920000Y-5550591D01*
X12936154Y-5549000D01*
X12999302Y-5549000D01*
X12994772Y-5595000D01*
X12994772Y-5845000D01*
X12999302Y-5891000D01*
X12021276Y-5891000D01*
X11890132Y-5759856D01*
X11895473Y-5755473D01*
X11927214Y-5716797D01*
X11950800Y-5672672D01*
X11965324Y-5624793D01*
X11970228Y-5575000D01*
X11970228Y-5000000D01*
X11965324Y-4950207D01*
X11950800Y-4902328D01*
X11927214Y-4858203D01*
X11895473Y-4819527D01*
X11856797Y-4787786D01*
X11812672Y-4764200D01*
X11764793Y-4749676D01*
X11715000Y-4744772D01*
X11065000Y-4744772D01*
X11015207Y-4749676D01*
X10967328Y-4764200D01*
X10923203Y-4787786D01*
X10884527Y-4819527D01*
X10852786Y-4858203D01*
X10829200Y-4902328D01*
X10814676Y-4950207D01*
X10811263Y-4984860D01*
X10790473Y-4959527D01*
X10751797Y-4927786D01*
X10707672Y-4904200D01*
X10659793Y-4889676D01*
X10610000Y-4884772D01*
X9710000Y-4884772D01*
X9660207Y-4889676D01*
X9612328Y-4904200D01*
X9568203Y-4927786D01*
X9529527Y-4959527D01*
X9497786Y-4998203D01*
X9474200Y-5042328D01*
X9459676Y-5090207D01*
X9454772Y-5140000D01*
X9454772Y-5940000D01*
X9457574Y-5968451D01*
X9433885Y-5958639D01*
X9345208Y-5941000D01*
X9254792Y-5941000D01*
X9166115Y-5958639D01*
X9082582Y-5993239D01*
X9007404Y-6043471D01*
X8943471Y-6107404D01*
X8893239Y-6182582D01*
X8858639Y-6266115D01*
X8841000Y-6354792D01*
X8841000Y-6355724D01*
X8624065Y-6138790D01*
X8613763Y-6126237D01*
X8563667Y-6085124D01*
X8506512Y-6054574D01*
X8444495Y-6035761D01*
X8396154Y-6031000D01*
X8396144Y-6031000D01*
X8380000Y-6029410D01*
X8363856Y-6031000D01*
X7366277Y-6031000D01*
X6929000Y-5593725D01*
X6929000Y-5041275D01*
X6999782Y-4970493D01*
X7023203Y-4989714D01*
X7067328Y-5013300D01*
X7115207Y-5027824D01*
X7165000Y-5032728D01*
X7815000Y-5032728D01*
X7864793Y-5027824D01*
X7912672Y-5013300D01*
X7956797Y-4989714D01*
X7995473Y-4957973D01*
X8027214Y-4919297D01*
X8050800Y-4875172D01*
X8056413Y-4856667D01*
X8059676Y-4889793D01*
X8074200Y-4937672D01*
X8097786Y-4981797D01*
X8129527Y-5020473D01*
X8168203Y-5052214D01*
X8212328Y-5075800D01*
X8260207Y-5090324D01*
X8310000Y-5095228D01*
X9210000Y-5095228D01*
X9259793Y-5090324D01*
X9307672Y-5075800D01*
X9351797Y-5052214D01*
X9390473Y-5020473D01*
X9422214Y-4981797D01*
X9445800Y-4937672D01*
X9460324Y-4889793D01*
X9465228Y-4840000D01*
X9465228Y-4040000D01*
X9460324Y-3990207D01*
X9445800Y-3942328D01*
X9422214Y-3898203D01*
X9390473Y-3859527D01*
X9351797Y-3827786D01*
X9307672Y-3804200D01*
X9259793Y-3789676D01*
X9210000Y-3784772D01*
X8310000Y-3784772D01*
X8260207Y-3789676D01*
X8212328Y-3804200D01*
X8168203Y-3827786D01*
X8129527Y-3859527D01*
X8097786Y-3898203D01*
X8074200Y-3942328D01*
X8059676Y-3990207D01*
X8054772Y-4040000D01*
X8054772Y-4117922D01*
X8050800Y-4104828D01*
X8027214Y-4060703D01*
X7995473Y-4022027D01*
X7956797Y-3990286D01*
X7912672Y-3966700D01*
X7864793Y-3952176D01*
X7815000Y-3947272D01*
X7808715Y-3947272D01*
X7811361Y-3940885D01*
X7829000Y-3852208D01*
X7829000Y-3761792D01*
X7822477Y-3729000D01*
X11543725Y-3729000D01*
X12537851Y-4723127D01*
G04 #@! TO.N,+BATT*
G36*
X37696401Y-14724509D02*
X37365031Y-14759337D01*
X37338044Y-14764877D01*
X37311047Y-14770027D01*
X37306989Y-14771251D01*
X36747676Y-14944389D01*
X36722316Y-14955049D01*
X36702029Y-14963246D01*
X37361216Y-14304060D01*
X37373763Y-14293763D01*
X37414876Y-14243667D01*
X37445426Y-14186512D01*
X37464239Y-14124495D01*
X37469000Y-14076154D01*
X37469000Y-14076147D01*
X37470590Y-14060000D01*
X37469000Y-14043854D01*
X37469000Y-11320125D01*
X37496529Y-11292596D01*
X37546761Y-11217418D01*
X37581361Y-11133885D01*
X37599000Y-11045208D01*
X37599000Y-10954792D01*
X37581361Y-10866115D01*
X37546761Y-10782582D01*
X37496529Y-10707404D01*
X37432596Y-10643471D01*
X37367537Y-10600000D01*
X37432596Y-10556529D01*
X37496529Y-10492596D01*
X37546761Y-10417418D01*
X37581361Y-10333885D01*
X37599000Y-10245208D01*
X37599000Y-10154792D01*
X37581361Y-10066115D01*
X37546761Y-9982582D01*
X37496529Y-9907404D01*
X37432596Y-9843471D01*
X37357418Y-9793239D01*
X37273885Y-9758639D01*
X37185208Y-9741000D01*
X37094792Y-9741000D01*
X37006115Y-9758639D01*
X36943040Y-9784765D01*
X36721999Y-9563725D01*
X36721999Y-7740914D01*
X37696400Y-6766514D01*
X37696401Y-14724509D01*
X37696401Y-14724509D01*
G37*
X37696401Y-14724509D02*
X37365031Y-14759337D01*
X37338044Y-14764877D01*
X37311047Y-14770027D01*
X37306989Y-14771251D01*
X36747676Y-14944389D01*
X36722316Y-14955049D01*
X36702029Y-14963246D01*
X37361216Y-14304060D01*
X37373763Y-14293763D01*
X37414876Y-14243667D01*
X37445426Y-14186512D01*
X37464239Y-14124495D01*
X37469000Y-14076154D01*
X37469000Y-14076147D01*
X37470590Y-14060000D01*
X37469000Y-14043854D01*
X37469000Y-11320125D01*
X37496529Y-11292596D01*
X37546761Y-11217418D01*
X37581361Y-11133885D01*
X37599000Y-11045208D01*
X37599000Y-10954792D01*
X37581361Y-10866115D01*
X37546761Y-10782582D01*
X37496529Y-10707404D01*
X37432596Y-10643471D01*
X37367537Y-10600000D01*
X37432596Y-10556529D01*
X37496529Y-10492596D01*
X37546761Y-10417418D01*
X37581361Y-10333885D01*
X37599000Y-10245208D01*
X37599000Y-10154792D01*
X37581361Y-10066115D01*
X37546761Y-9982582D01*
X37496529Y-9907404D01*
X37432596Y-9843471D01*
X37357418Y-9793239D01*
X37273885Y-9758639D01*
X37185208Y-9741000D01*
X37094792Y-9741000D01*
X37006115Y-9758639D01*
X36943040Y-9784765D01*
X36721999Y-9563725D01*
X36721999Y-7740914D01*
X37696400Y-6766514D01*
X37696401Y-14724509D01*
G36*
X34378001Y-840914D02*
X34378002Y-1190837D01*
X34376410Y-1207001D01*
X34382762Y-1271496D01*
X34401575Y-1333513D01*
X34432125Y-1390668D01*
X34473238Y-1440764D01*
X34498963Y-1461876D01*
X34921459Y-1884373D01*
X34921460Y-2234306D01*
X34919869Y-2250459D01*
X34921460Y-2266613D01*
X34926221Y-2314954D01*
X34931928Y-2333766D01*
X34945033Y-2376970D01*
X34975583Y-2434125D01*
X35002588Y-2467030D01*
X35016697Y-2484222D01*
X35029245Y-2494520D01*
X35771000Y-3236276D01*
X35771001Y-5383846D01*
X35769410Y-5400000D01*
X35775762Y-5464494D01*
X35794574Y-5526511D01*
X35794575Y-5526512D01*
X35825125Y-5583667D01*
X35866238Y-5633763D01*
X35878786Y-5644061D01*
X36655939Y-6421215D01*
X36666237Y-6433763D01*
X36716333Y-6474876D01*
X36773488Y-6505426D01*
X36806235Y-6515360D01*
X36847404Y-6556529D01*
X36922582Y-6606761D01*
X36924717Y-6607645D01*
X36197660Y-7334703D01*
X36159236Y-7366237D01*
X36118123Y-7416334D01*
X36087573Y-7473489D01*
X36068760Y-7535506D01*
X36063999Y-7583847D01*
X36063999Y-7588495D01*
X36062409Y-7604639D01*
X36063999Y-7620783D01*
X36064000Y-9683846D01*
X36062409Y-9700000D01*
X36068761Y-9764494D01*
X36087573Y-9826511D01*
X36118123Y-9883666D01*
X36148939Y-9921215D01*
X36159237Y-9933763D01*
X36171784Y-9944061D01*
X36648938Y-10421215D01*
X36659236Y-10433763D01*
X36709332Y-10474876D01*
X36766487Y-10505426D01*
X36809283Y-10518408D01*
X36847404Y-10556529D01*
X36912463Y-10600000D01*
X36847404Y-10643471D01*
X36783471Y-10707404D01*
X36733239Y-10782582D01*
X36698639Y-10866115D01*
X36681000Y-10954792D01*
X36681000Y-11045208D01*
X36698639Y-11133885D01*
X36733239Y-11217418D01*
X36783471Y-11292596D01*
X36811001Y-11320126D01*
X36811000Y-13923724D01*
X36077725Y-14657000D01*
X35219834Y-14657000D01*
X35215324Y-14611207D01*
X35200800Y-14563328D01*
X35177214Y-14519203D01*
X35145473Y-14480527D01*
X35106797Y-14448786D01*
X35102000Y-14446222D01*
X35102000Y-12025000D01*
X35099560Y-12000224D01*
X35092333Y-11976399D01*
X35080597Y-11954443D01*
X35064803Y-11935197D01*
X35045557Y-11919403D01*
X35023601Y-11907667D01*
X34999776Y-11900440D01*
X34975000Y-11898000D01*
X32477000Y-11898000D01*
X32477000Y-6052000D01*
X34150000Y-6052000D01*
X34174776Y-6049560D01*
X34198601Y-6042333D01*
X34220557Y-6030597D01*
X34239803Y-6014803D01*
X34255597Y-5995557D01*
X34267333Y-5973601D01*
X34274534Y-5949907D01*
X34299534Y-5824907D01*
X34302000Y-5800000D01*
X34302000Y-4636001D01*
X34470726Y-4636001D01*
X34849283Y-5014559D01*
X34848639Y-5016115D01*
X34831000Y-5104792D01*
X34831000Y-5195208D01*
X34848639Y-5283885D01*
X34883239Y-5367418D01*
X34933471Y-5442596D01*
X34997404Y-5506529D01*
X35072582Y-5556761D01*
X35156115Y-5591361D01*
X35244792Y-5609000D01*
X35335208Y-5609000D01*
X35423885Y-5591361D01*
X35507418Y-5556761D01*
X35582596Y-5506529D01*
X35646529Y-5442596D01*
X35696761Y-5367418D01*
X35731361Y-5283885D01*
X35749000Y-5195208D01*
X35749000Y-5104792D01*
X35731361Y-5016115D01*
X35696761Y-4932582D01*
X35646529Y-4857404D01*
X35582596Y-4793471D01*
X35524281Y-4754507D01*
X35523763Y-4753875D01*
X35511215Y-4743577D01*
X35344065Y-4576428D01*
X35333763Y-4563875D01*
X35308043Y-4542767D01*
X34851066Y-4085791D01*
X34840764Y-4073238D01*
X34790668Y-4032125D01*
X34733513Y-4001575D01*
X34671496Y-3982762D01*
X34623155Y-3978001D01*
X34623145Y-3978001D01*
X34607001Y-3976411D01*
X34590857Y-3978001D01*
X34302000Y-3978001D01*
X34302000Y-3300000D01*
X34299560Y-3275224D01*
X34292333Y-3251399D01*
X34280597Y-3229443D01*
X34264803Y-3210197D01*
X34245557Y-3194403D01*
X34223601Y-3182667D01*
X34199776Y-3175440D01*
X34175000Y-3173000D01*
X32938275Y-3173000D01*
X32623632Y-2858357D01*
X32608087Y-821999D01*
X34359086Y-821999D01*
X34378001Y-840914D01*
X34378001Y-840914D01*
G37*
X34378001Y-840914D02*
X34378002Y-1190837D01*
X34376410Y-1207001D01*
X34382762Y-1271496D01*
X34401575Y-1333513D01*
X34432125Y-1390668D01*
X34473238Y-1440764D01*
X34498963Y-1461876D01*
X34921459Y-1884373D01*
X34921460Y-2234306D01*
X34919869Y-2250459D01*
X34921460Y-2266613D01*
X34926221Y-2314954D01*
X34931928Y-2333766D01*
X34945033Y-2376970D01*
X34975583Y-2434125D01*
X35002588Y-2467030D01*
X35016697Y-2484222D01*
X35029245Y-2494520D01*
X35771000Y-3236276D01*
X35771001Y-5383846D01*
X35769410Y-5400000D01*
X35775762Y-5464494D01*
X35794574Y-5526511D01*
X35794575Y-5526512D01*
X35825125Y-5583667D01*
X35866238Y-5633763D01*
X35878786Y-5644061D01*
X36655939Y-6421215D01*
X36666237Y-6433763D01*
X36716333Y-6474876D01*
X36773488Y-6505426D01*
X36806235Y-6515360D01*
X36847404Y-6556529D01*
X36922582Y-6606761D01*
X36924717Y-6607645D01*
X36197660Y-7334703D01*
X36159236Y-7366237D01*
X36118123Y-7416334D01*
X36087573Y-7473489D01*
X36068760Y-7535506D01*
X36063999Y-7583847D01*
X36063999Y-7588495D01*
X36062409Y-7604639D01*
X36063999Y-7620783D01*
X36064000Y-9683846D01*
X36062409Y-9700000D01*
X36068761Y-9764494D01*
X36087573Y-9826511D01*
X36118123Y-9883666D01*
X36148939Y-9921215D01*
X36159237Y-9933763D01*
X36171784Y-9944061D01*
X36648938Y-10421215D01*
X36659236Y-10433763D01*
X36709332Y-10474876D01*
X36766487Y-10505426D01*
X36809283Y-10518408D01*
X36847404Y-10556529D01*
X36912463Y-10600000D01*
X36847404Y-10643471D01*
X36783471Y-10707404D01*
X36733239Y-10782582D01*
X36698639Y-10866115D01*
X36681000Y-10954792D01*
X36681000Y-11045208D01*
X36698639Y-11133885D01*
X36733239Y-11217418D01*
X36783471Y-11292596D01*
X36811001Y-11320126D01*
X36811000Y-13923724D01*
X36077725Y-14657000D01*
X35219834Y-14657000D01*
X35215324Y-14611207D01*
X35200800Y-14563328D01*
X35177214Y-14519203D01*
X35145473Y-14480527D01*
X35106797Y-14448786D01*
X35102000Y-14446222D01*
X35102000Y-12025000D01*
X35099560Y-12000224D01*
X35092333Y-11976399D01*
X35080597Y-11954443D01*
X35064803Y-11935197D01*
X35045557Y-11919403D01*
X35023601Y-11907667D01*
X34999776Y-11900440D01*
X34975000Y-11898000D01*
X32477000Y-11898000D01*
X32477000Y-6052000D01*
X34150000Y-6052000D01*
X34174776Y-6049560D01*
X34198601Y-6042333D01*
X34220557Y-6030597D01*
X34239803Y-6014803D01*
X34255597Y-5995557D01*
X34267333Y-5973601D01*
X34274534Y-5949907D01*
X34299534Y-5824907D01*
X34302000Y-5800000D01*
X34302000Y-4636001D01*
X34470726Y-4636001D01*
X34849283Y-5014559D01*
X34848639Y-5016115D01*
X34831000Y-5104792D01*
X34831000Y-5195208D01*
X34848639Y-5283885D01*
X34883239Y-5367418D01*
X34933471Y-5442596D01*
X34997404Y-5506529D01*
X35072582Y-5556761D01*
X35156115Y-5591361D01*
X35244792Y-5609000D01*
X35335208Y-5609000D01*
X35423885Y-5591361D01*
X35507418Y-5556761D01*
X35582596Y-5506529D01*
X35646529Y-5442596D01*
X35696761Y-5367418D01*
X35731361Y-5283885D01*
X35749000Y-5195208D01*
X35749000Y-5104792D01*
X35731361Y-5016115D01*
X35696761Y-4932582D01*
X35646529Y-4857404D01*
X35582596Y-4793471D01*
X35524281Y-4754507D01*
X35523763Y-4753875D01*
X35511215Y-4743577D01*
X35344065Y-4576428D01*
X35333763Y-4563875D01*
X35308043Y-4542767D01*
X34851066Y-4085791D01*
X34840764Y-4073238D01*
X34790668Y-4032125D01*
X34733513Y-4001575D01*
X34671496Y-3982762D01*
X34623155Y-3978001D01*
X34623145Y-3978001D01*
X34607001Y-3976411D01*
X34590857Y-3978001D01*
X34302000Y-3978001D01*
X34302000Y-3300000D01*
X34299560Y-3275224D01*
X34292333Y-3251399D01*
X34280597Y-3229443D01*
X34264803Y-3210197D01*
X34245557Y-3194403D01*
X34223601Y-3182667D01*
X34199776Y-3175440D01*
X34175000Y-3173000D01*
X32938275Y-3173000D01*
X32623632Y-2858357D01*
X32608087Y-821999D01*
X34359086Y-821999D01*
X34378001Y-840914D01*
G04 #@! TD*
M02*
