G04 #@! TF.GenerationSoftware,KiCad,Pcbnew,5.0.0-fee4fd1~66~ubuntu16.04.1*
G04 #@! TF.CreationDate,2018-08-08T21:48:41-04:00*
G04 #@! TF.ProjectId,motor controller,6D6F746F7220636F6E74726F6C6C6572,rev?*
G04 #@! TF.SameCoordinates,Original*
G04 #@! TF.FileFunction,Legend,Top*
G04 #@! TF.FilePolarity,Positive*
%FSLAX46Y46*%
G04 Gerber Fmt 4.6, Leading zero omitted, Abs format (unit mm)*
G04 Created by KiCad (PCBNEW 5.0.0-fee4fd1~66~ubuntu16.04.1) date Wed Aug  8 21:48:41 2018*
%MOMM*%
%LPD*%
G01*
G04 APERTURE LIST*
%ADD10C,0.120000*%
%ADD11C,0.254000*%
%ADD12C,0.020000*%
G04 APERTURE END LIST*
D10*
G04 #@! TO.C,J1*
X7200000Y-17110000D02*
X9850000Y-17110000D01*
X9850000Y-17110000D02*
X9850000Y-14760000D01*
X9850000Y-14760000D02*
X11240000Y-14760000D01*
X7200000Y-890000D02*
X9850000Y-890000D01*
X9850000Y-890000D02*
X9850000Y-3240000D01*
X2780000Y-17000000D02*
X2780000Y-1000000D01*
D11*
G04 #@! TO.C,IC2*
X37865000Y-13000000D02*
G75*
G03X37865000Y-13000000I-200000J0D01*
G01*
D10*
G04 #@! TO.C,J2*
X20440000Y-1000000D02*
X20440000Y-17000000D01*
X13370000Y-17110000D02*
X13370000Y-14760000D01*
X16020000Y-17110000D02*
X13370000Y-17110000D01*
X13370000Y-3240000D02*
X11980000Y-3240000D01*
X13370000Y-890000D02*
X13370000Y-3240000D01*
X16020000Y-890000D02*
X13370000Y-890000D01*
D11*
G04 #@! TO.C,IC3*
X22351000Y-16695000D02*
G75*
G03X22351000Y-16695000I-125000J0D01*
G01*
D10*
G04 #@! TO.C,D1*
X2160000Y-10470000D02*
X2160000Y-8200000D01*
X640000Y-10470000D02*
X2160000Y-10470000D01*
X640000Y-8200000D02*
X640000Y-10470000D01*
G04 #@! TO.C,J1*
D12*
X4417857Y-9040000D02*
X4525000Y-9040000D01*
X4546428Y-9047142D01*
X4560714Y-9061428D01*
X4567857Y-9082857D01*
X4567857Y-9097142D01*
X4567857Y-8890000D02*
X4567857Y-8975714D01*
X4567857Y-8932857D02*
X4417857Y-8932857D01*
X4439285Y-8947142D01*
X4453571Y-8961428D01*
X4460714Y-8975714D01*
G04 #@! TO.C,J3*
X21377857Y-7700000D02*
X21485000Y-7700000D01*
X21506428Y-7707142D01*
X21520714Y-7721428D01*
X21527857Y-7742857D01*
X21527857Y-7757142D01*
X21377857Y-7642857D02*
X21377857Y-7550000D01*
X21435000Y-7600000D01*
X21435000Y-7578571D01*
X21442142Y-7564285D01*
X21449285Y-7557142D01*
X21463571Y-7550000D01*
X21499285Y-7550000D01*
X21513571Y-7557142D01*
X21520714Y-7564285D01*
X21527857Y-7578571D01*
X21527857Y-7621428D01*
X21520714Y-7635714D01*
X21513571Y-7642857D01*
G04 #@! TO.C,C3*
X24256428Y-12027000D02*
X24249285Y-12019857D01*
X24242142Y-11998428D01*
X24242142Y-11984142D01*
X24249285Y-11962714D01*
X24263571Y-11948428D01*
X24277857Y-11941285D01*
X24306428Y-11934142D01*
X24327857Y-11934142D01*
X24356428Y-11941285D01*
X24370714Y-11948428D01*
X24385000Y-11962714D01*
X24392142Y-11984142D01*
X24392142Y-11998428D01*
X24385000Y-12019857D01*
X24377857Y-12027000D01*
X24392142Y-12077000D02*
X24392142Y-12169857D01*
X24335000Y-12119857D01*
X24335000Y-12141285D01*
X24327857Y-12155571D01*
X24320714Y-12162714D01*
X24306428Y-12169857D01*
X24270714Y-12169857D01*
X24256428Y-12162714D01*
X24249285Y-12155571D01*
X24242142Y-12141285D01*
X24242142Y-12098428D01*
X24249285Y-12084142D01*
X24256428Y-12077000D01*
G04 #@! TO.C,C6*
X35675000Y-14653571D02*
X35667857Y-14660714D01*
X35646428Y-14667857D01*
X35632142Y-14667857D01*
X35610714Y-14660714D01*
X35596428Y-14646428D01*
X35589285Y-14632142D01*
X35582142Y-14603571D01*
X35582142Y-14582142D01*
X35589285Y-14553571D01*
X35596428Y-14539285D01*
X35610714Y-14525000D01*
X35632142Y-14517857D01*
X35646428Y-14517857D01*
X35667857Y-14525000D01*
X35675000Y-14532142D01*
X35803571Y-14517857D02*
X35775000Y-14517857D01*
X35760714Y-14525000D01*
X35753571Y-14532142D01*
X35739285Y-14553571D01*
X35732142Y-14582142D01*
X35732142Y-14639285D01*
X35739285Y-14653571D01*
X35746428Y-14660714D01*
X35760714Y-14667857D01*
X35789285Y-14667857D01*
X35803571Y-14660714D01*
X35810714Y-14653571D01*
X35817857Y-14639285D01*
X35817857Y-14603571D01*
X35810714Y-14589285D01*
X35803571Y-14582142D01*
X35789285Y-14575000D01*
X35760714Y-14575000D01*
X35746428Y-14582142D01*
X35739285Y-14589285D01*
X35732142Y-14603571D01*
G04 #@! TO.C,IC2*
X29653571Y-4767857D02*
X29653571Y-4617857D01*
X29810714Y-4753571D02*
X29803571Y-4760714D01*
X29782142Y-4767857D01*
X29767857Y-4767857D01*
X29746428Y-4760714D01*
X29732142Y-4746428D01*
X29725000Y-4732142D01*
X29717857Y-4703571D01*
X29717857Y-4682142D01*
X29725000Y-4653571D01*
X29732142Y-4639285D01*
X29746428Y-4625000D01*
X29767857Y-4617857D01*
X29782142Y-4617857D01*
X29803571Y-4625000D01*
X29810714Y-4632142D01*
X29867857Y-4632142D02*
X29875000Y-4625000D01*
X29889285Y-4617857D01*
X29925000Y-4617857D01*
X29939285Y-4625000D01*
X29946428Y-4632142D01*
X29953571Y-4646428D01*
X29953571Y-4660714D01*
X29946428Y-4682142D01*
X29860714Y-4767857D01*
X29953571Y-4767857D01*
G04 #@! TO.C,J2*
X21097857Y-9640000D02*
X21205000Y-9640000D01*
X21226428Y-9647142D01*
X21240714Y-9661428D01*
X21247857Y-9682857D01*
X21247857Y-9697142D01*
X21112142Y-9575714D02*
X21105000Y-9568571D01*
X21097857Y-9554285D01*
X21097857Y-9518571D01*
X21105000Y-9504285D01*
X21112142Y-9497142D01*
X21126428Y-9490000D01*
X21140714Y-9490000D01*
X21162142Y-9497142D01*
X21247857Y-9582857D01*
X21247857Y-9490000D01*
G04 #@! TO.C,R7*
X36475000Y-3067857D02*
X36425000Y-2996428D01*
X36389285Y-3067857D02*
X36389285Y-2917857D01*
X36446428Y-2917857D01*
X36460714Y-2925000D01*
X36467857Y-2932142D01*
X36475000Y-2946428D01*
X36475000Y-2967857D01*
X36467857Y-2982142D01*
X36460714Y-2989285D01*
X36446428Y-2996428D01*
X36389285Y-2996428D01*
X36525000Y-2917857D02*
X36625000Y-2917857D01*
X36560714Y-3067857D01*
G04 #@! TO.C,R8*
X30775000Y-16167857D02*
X30725000Y-16096428D01*
X30689285Y-16167857D02*
X30689285Y-16017857D01*
X30746428Y-16017857D01*
X30760714Y-16025000D01*
X30767857Y-16032142D01*
X30775000Y-16046428D01*
X30775000Y-16067857D01*
X30767857Y-16082142D01*
X30760714Y-16089285D01*
X30746428Y-16096428D01*
X30689285Y-16096428D01*
X30860714Y-16082142D02*
X30846428Y-16075000D01*
X30839285Y-16067857D01*
X30832142Y-16053571D01*
X30832142Y-16046428D01*
X30839285Y-16032142D01*
X30846428Y-16025000D01*
X30860714Y-16017857D01*
X30889285Y-16017857D01*
X30903571Y-16025000D01*
X30910714Y-16032142D01*
X30917857Y-16046428D01*
X30917857Y-16053571D01*
X30910714Y-16067857D01*
X30903571Y-16075000D01*
X30889285Y-16082142D01*
X30860714Y-16082142D01*
X30846428Y-16089285D01*
X30839285Y-16096428D01*
X30832142Y-16110714D01*
X30832142Y-16139285D01*
X30839285Y-16153571D01*
X30846428Y-16160714D01*
X30860714Y-16167857D01*
X30889285Y-16167857D01*
X30903571Y-16160714D01*
X30910714Y-16153571D01*
X30917857Y-16139285D01*
X30917857Y-16110714D01*
X30910714Y-16096428D01*
X30903571Y-16089285D01*
X30889285Y-16082142D01*
G04 #@! TO.C,R9*
X30080500Y-2267857D02*
X30030500Y-2196428D01*
X29994785Y-2267857D02*
X29994785Y-2117857D01*
X30051928Y-2117857D01*
X30066214Y-2125000D01*
X30073357Y-2132142D01*
X30080500Y-2146428D01*
X30080500Y-2167857D01*
X30073357Y-2182142D01*
X30066214Y-2189285D01*
X30051928Y-2196428D01*
X29994785Y-2196428D01*
X30151928Y-2267857D02*
X30180500Y-2267857D01*
X30194785Y-2260714D01*
X30201928Y-2253571D01*
X30216214Y-2232142D01*
X30223357Y-2203571D01*
X30223357Y-2146428D01*
X30216214Y-2132142D01*
X30209071Y-2125000D01*
X30194785Y-2117857D01*
X30166214Y-2117857D01*
X30151928Y-2125000D01*
X30144785Y-2132142D01*
X30137642Y-2146428D01*
X30137642Y-2182142D01*
X30144785Y-2196428D01*
X30151928Y-2203571D01*
X30166214Y-2210714D01*
X30194785Y-2210714D01*
X30209071Y-2203571D01*
X30216214Y-2196428D01*
X30223357Y-2182142D01*
G04 #@! TO.C,C8*
X21575000Y-13753571D02*
X21567857Y-13760714D01*
X21546428Y-13767857D01*
X21532142Y-13767857D01*
X21510714Y-13760714D01*
X21496428Y-13746428D01*
X21489285Y-13732142D01*
X21482142Y-13703571D01*
X21482142Y-13682142D01*
X21489285Y-13653571D01*
X21496428Y-13639285D01*
X21510714Y-13625000D01*
X21532142Y-13617857D01*
X21546428Y-13617857D01*
X21567857Y-13625000D01*
X21575000Y-13632142D01*
X21660714Y-13682142D02*
X21646428Y-13675000D01*
X21639285Y-13667857D01*
X21632142Y-13653571D01*
X21632142Y-13646428D01*
X21639285Y-13632142D01*
X21646428Y-13625000D01*
X21660714Y-13617857D01*
X21689285Y-13617857D01*
X21703571Y-13625000D01*
X21710714Y-13632142D01*
X21717857Y-13646428D01*
X21717857Y-13653571D01*
X21710714Y-13667857D01*
X21703571Y-13675000D01*
X21689285Y-13682142D01*
X21660714Y-13682142D01*
X21646428Y-13689285D01*
X21639285Y-13696428D01*
X21632142Y-13710714D01*
X21632142Y-13739285D01*
X21639285Y-13753571D01*
X21646428Y-13760714D01*
X21660714Y-13767857D01*
X21689285Y-13767857D01*
X21703571Y-13760714D01*
X21710714Y-13753571D01*
X21717857Y-13739285D01*
X21717857Y-13710714D01*
X21710714Y-13696428D01*
X21703571Y-13689285D01*
X21689285Y-13682142D01*
G04 #@! TO.C,C9*
X34875000Y-2453571D02*
X34867857Y-2460714D01*
X34846428Y-2467857D01*
X34832142Y-2467857D01*
X34810714Y-2460714D01*
X34796428Y-2446428D01*
X34789285Y-2432142D01*
X34782142Y-2403571D01*
X34782142Y-2382142D01*
X34789285Y-2353571D01*
X34796428Y-2339285D01*
X34810714Y-2325000D01*
X34832142Y-2317857D01*
X34846428Y-2317857D01*
X34867857Y-2325000D01*
X34875000Y-2332142D01*
X34946428Y-2467857D02*
X34975000Y-2467857D01*
X34989285Y-2460714D01*
X34996428Y-2453571D01*
X35010714Y-2432142D01*
X35017857Y-2403571D01*
X35017857Y-2346428D01*
X35010714Y-2332142D01*
X35003571Y-2325000D01*
X34989285Y-2317857D01*
X34960714Y-2317857D01*
X34946428Y-2325000D01*
X34939285Y-2332142D01*
X34932142Y-2346428D01*
X34932142Y-2382142D01*
X34939285Y-2396428D01*
X34946428Y-2403571D01*
X34960714Y-2410714D01*
X34989285Y-2410714D01*
X35003571Y-2403571D01*
X35010714Y-2396428D01*
X35017857Y-2382142D01*
G04 #@! TO.C,IC3*
X24033857Y-15056428D02*
X23883857Y-15056428D01*
X24019571Y-14899285D02*
X24026714Y-14906428D01*
X24033857Y-14927857D01*
X24033857Y-14942142D01*
X24026714Y-14963571D01*
X24012428Y-14977857D01*
X23998142Y-14985000D01*
X23969571Y-14992142D01*
X23948142Y-14992142D01*
X23919571Y-14985000D01*
X23905285Y-14977857D01*
X23891000Y-14963571D01*
X23883857Y-14942142D01*
X23883857Y-14927857D01*
X23891000Y-14906428D01*
X23898142Y-14899285D01*
X23883857Y-14849285D02*
X23883857Y-14756428D01*
X23941000Y-14806428D01*
X23941000Y-14785000D01*
X23948142Y-14770714D01*
X23955285Y-14763571D01*
X23969571Y-14756428D01*
X24005285Y-14756428D01*
X24019571Y-14763571D01*
X24026714Y-14770714D01*
X24033857Y-14785000D01*
X24033857Y-14827857D01*
X24026714Y-14842142D01*
X24019571Y-14849285D01*
G04 #@! TO.C,D1*
X957857Y-7320714D02*
X807857Y-7320714D01*
X807857Y-7285000D01*
X815000Y-7263571D01*
X829285Y-7249285D01*
X843571Y-7242142D01*
X872142Y-7235000D01*
X893571Y-7235000D01*
X922142Y-7242142D01*
X936428Y-7249285D01*
X950714Y-7263571D01*
X957857Y-7285000D01*
X957857Y-7320714D01*
X957857Y-7092142D02*
X957857Y-7177857D01*
X957857Y-7135000D02*
X807857Y-7135000D01*
X829285Y-7149285D01*
X843571Y-7163571D01*
X850714Y-7177857D01*
G04 #@! TD*
M02*
