G04 #@! TF.GenerationSoftware,KiCad,Pcbnew,5.0.0-rc2-be01b52~65~ubuntu16.04.1*
G04 #@! TF.CreationDate,2018-07-13T18:02:19-04:00*
G04 #@! TF.ProjectId,motor controller,6D6F746F7220636F6E74726F6C6C6572,rev?*
G04 #@! TF.SameCoordinates,Original*
G04 #@! TF.FileFunction,Copper,L1,Top,Signal*
G04 #@! TF.FilePolarity,Positive*
%FSLAX46Y46*%
G04 Gerber Fmt 4.6, Leading zero omitted, Abs format (unit mm)*
G04 Created by KiCad (PCBNEW 5.0.0-rc2-be01b52~65~ubuntu16.04.1) date Fri Jul 13 18:02:19 2018*
%MOMM*%
%LPD*%
G01*
G04 APERTURE LIST*
G04 #@! TA.AperFunction,SMDPad,CuDef*
%ADD10R,0.650000X0.575000*%
G04 #@! TD*
G04 #@! TA.AperFunction,SMDPad,CuDef*
%ADD11R,0.575000X0.650000*%
G04 #@! TD*
G04 #@! TA.AperFunction,SMDPad,CuDef*
%ADD12R,1.050000X0.600000*%
G04 #@! TD*
G04 #@! TA.AperFunction,SMDPad,CuDef*
%ADD13R,0.600000X1.050000*%
G04 #@! TD*
G04 #@! TA.AperFunction,SMDPad,CuDef*
%ADD14R,5.200000X5.200000*%
G04 #@! TD*
G04 #@! TA.AperFunction,SMDPad,CuDef*
%ADD15R,2.900000X1.000000*%
G04 #@! TD*
G04 #@! TA.AperFunction,SMDPad,CuDef*
%ADD16R,3.600000X1.800000*%
G04 #@! TD*
G04 #@! TA.AperFunction,SMDPad,CuDef*
%ADD17R,0.400000X0.850000*%
G04 #@! TD*
G04 #@! TA.AperFunction,SMDPad,CuDef*
%ADD18R,2.200000X1.700000*%
G04 #@! TD*
G04 #@! TA.AperFunction,SMDPad,CuDef*
%ADD19O,1.000000X0.600000*%
G04 #@! TD*
G04 #@! TA.AperFunction,ComponentPad*
%ADD20C,1.524000*%
G04 #@! TD*
G04 #@! TA.AperFunction,ViaPad*
%ADD21C,0.410000*%
G04 #@! TD*
G04 #@! TA.AperFunction,Conductor*
%ADD22C,0.150000*%
G04 #@! TD*
G04 #@! TA.AperFunction,Conductor*
%ADD23C,0.254000*%
G04 #@! TD*
G04 APERTURE END LIST*
D10*
G04 #@! TO.P,C3,1*
G04 #@! TO.N,+3V3*
X26162000Y-13582500D03*
G04 #@! TO.P,C3,2*
G04 #@! TO.N,GND*
X26162000Y-14357500D03*
G04 #@! TD*
D11*
G04 #@! TO.P,C6,1*
G04 #@! TO.N,+BATT*
X35293000Y-13970000D03*
G04 #@! TO.P,C6,2*
G04 #@! TO.N,Net-(C6-Pad2)*
X36068000Y-13970000D03*
G04 #@! TD*
D12*
G04 #@! TO.P,IC2,1*
G04 #@! TO.N,Net-(IC2-Pad1)*
X37140000Y-11800000D03*
G04 #@! TO.P,IC2,2*
G04 #@! TO.N,Net-(IC2-Pad2)*
X37140000Y-11000000D03*
G04 #@! TO.P,IC2,3*
G04 #@! TO.N,Net-(IC2-Pad3)*
X37140000Y-10200000D03*
G04 #@! TO.P,IC2,4*
G04 #@! TO.N,+BATT*
X37140000Y-9400000D03*
G04 #@! TO.P,IC2,5*
G04 #@! TO.N,N/C*
X37140000Y-8600000D03*
G04 #@! TO.P,IC2,6*
G04 #@! TO.N,+BATT*
X37140000Y-7800000D03*
G04 #@! TO.P,IC2,7*
G04 #@! TO.N,N/C*
X37140000Y-7000000D03*
G04 #@! TO.P,IC2,8*
G04 #@! TO.N,FB*
X37140000Y-6200000D03*
D13*
G04 #@! TO.P,IC2,9*
G04 #@! TO.N,N/C*
X36090000Y-5150000D03*
G04 #@! TO.P,IC2,10*
G04 #@! TO.N,+3V3*
X35290000Y-5150000D03*
G04 #@! TO.P,IC2,11*
G04 #@! TO.N,+BATT*
X34490000Y-5150000D03*
G04 #@! TO.P,IC2,12*
G04 #@! TO.N,OUT1*
X33690000Y-5150000D03*
G04 #@! TO.P,IC2,13*
X32890000Y-5150000D03*
G04 #@! TO.P,IC2,14*
X32090000Y-5150000D03*
G04 #@! TO.P,IC2,15*
X31290000Y-5150000D03*
G04 #@! TO.P,IC2,16*
G04 #@! TO.N,Net-(IC2-Pad16)*
X30490000Y-5150000D03*
D12*
G04 #@! TO.P,IC2,17*
G04 #@! TO.N,N/C*
X29440000Y-6200000D03*
G04 #@! TO.P,IC2,18*
G04 #@! TO.N,GND*
X29440000Y-7000000D03*
G04 #@! TO.P,IC2,19*
X29440000Y-7800000D03*
G04 #@! TO.P,IC2,20*
X29440000Y-8600000D03*
G04 #@! TO.P,IC2,21*
G04 #@! TO.N,N/C*
X29440000Y-9400000D03*
G04 #@! TO.P,IC2,22*
G04 #@! TO.N,GND*
X29440000Y-10200000D03*
G04 #@! TO.P,IC2,23*
X29440000Y-11000000D03*
G04 #@! TO.P,IC2,24*
X29440000Y-11800000D03*
D13*
G04 #@! TO.P,IC2,25*
G04 #@! TO.N,N/C*
X30490000Y-12850000D03*
G04 #@! TO.P,IC2,26*
G04 #@! TO.N,Net-(IC2-Pad26)*
X31290000Y-12850000D03*
G04 #@! TO.P,IC2,27*
G04 #@! TO.N,OUT2*
X32090000Y-12850000D03*
G04 #@! TO.P,IC2,28*
X32890000Y-12850000D03*
G04 #@! TO.P,IC2,29*
X33690000Y-12850000D03*
G04 #@! TO.P,IC2,30*
X34490000Y-12850000D03*
G04 #@! TO.P,IC2,31*
G04 #@! TO.N,+BATT*
X35290000Y-12850000D03*
G04 #@! TO.P,IC2,32*
G04 #@! TO.N,Net-(C6-Pad2)*
X36090000Y-12850000D03*
D14*
G04 #@! TO.P,IC2,33*
G04 #@! TO.N,GND*
X33290000Y-9000000D03*
G04 #@! TD*
D15*
G04 #@! TO.P,J1,1*
G04 #@! TO.N,+BATT*
X9790000Y-14000000D03*
G04 #@! TO.P,J1,2*
G04 #@! TO.N,GND*
X9790000Y-12000000D03*
G04 #@! TO.P,J1,3*
G04 #@! TO.N,MOSI*
X9790000Y-10000000D03*
G04 #@! TO.P,J1,4*
G04 #@! TO.N,Net-(J1-Pad4)*
X9790000Y-8000000D03*
G04 #@! TO.P,J1,5*
G04 #@! TO.N,SCK*
X9790000Y-6000000D03*
G04 #@! TO.P,J1,6*
G04 #@! TO.N,CS*
X9790000Y-4000000D03*
D16*
G04 #@! TO.P,J1,MP*
G04 #@! TO.N,N/C*
X5140000Y-16350000D03*
X5140000Y-1650000D03*
G04 #@! TD*
G04 #@! TO.P,J2,MP*
G04 #@! TO.N,N/C*
X18080000Y-16350000D03*
X18080000Y-1650000D03*
D15*
G04 #@! TO.P,J2,6*
G04 #@! TO.N,+BATT*
X13430000Y-14000000D03*
G04 #@! TO.P,J2,5*
G04 #@! TO.N,GND*
X13430000Y-12000000D03*
G04 #@! TO.P,J2,4*
G04 #@! TO.N,Net-(J1-Pad4)*
X13430000Y-10000000D03*
G04 #@! TO.P,J2,3*
G04 #@! TO.N,MISO*
X13430000Y-8000000D03*
G04 #@! TO.P,J2,2*
G04 #@! TO.N,SCK*
X13430000Y-6000000D03*
G04 #@! TO.P,J2,1*
G04 #@! TO.N,CS*
X13430000Y-4000000D03*
G04 #@! TD*
D11*
G04 #@! TO.P,R7,1*
G04 #@! TO.N,Net-(IC2-Pad3)*
X36975000Y-3800000D03*
G04 #@! TO.P,R7,2*
G04 #@! TO.N,+3V3*
X36200000Y-3800000D03*
G04 #@! TD*
G04 #@! TO.P,R8,2*
G04 #@! TO.N,Net-(IC2-Pad26)*
X31375500Y-16764000D03*
G04 #@! TO.P,R8,1*
G04 #@! TO.N,D1*
X30600500Y-16764000D03*
G04 #@! TD*
G04 #@! TO.P,R9,1*
G04 #@! TO.N,Net-(IC2-Pad16)*
X30493000Y-1524000D03*
G04 #@! TO.P,R9,2*
G04 #@! TO.N,D2*
X29718000Y-1524000D03*
G04 #@! TD*
D10*
G04 #@! TO.P,C8,2*
G04 #@! TO.N,+BATT*
X21590000Y-14344500D03*
G04 #@! TO.P,C8,1*
G04 #@! TO.N,GND*
X21590000Y-15119500D03*
G04 #@! TD*
G04 #@! TO.P,C9,1*
G04 #@! TO.N,+3V3*
X35300000Y-3775000D03*
G04 #@! TO.P,C9,2*
G04 #@! TO.N,GND*
X35300000Y-3000000D03*
G04 #@! TD*
D17*
G04 #@! TO.P,IC3,1*
G04 #@! TO.N,+BATT*
X22926000Y-16270000D03*
G04 #@! TO.P,IC3,2*
G04 #@! TO.N,GND*
X23876000Y-16270000D03*
G04 #@! TO.P,IC3,3*
G04 #@! TO.N,N/C*
X24826000Y-16270000D03*
G04 #@! TO.P,IC3,4*
G04 #@! TO.N,+3V3*
X24826000Y-13370000D03*
G04 #@! TO.P,IC3,5*
X23876000Y-13370000D03*
G04 #@! TO.P,IC3,6*
G04 #@! TO.N,+BATT*
X22926000Y-13370000D03*
D18*
G04 #@! TO.P,IC3,7*
G04 #@! TO.N,GND*
X23876000Y-14820000D03*
G04 #@! TD*
D19*
G04 #@! TO.P,J3,1*
G04 #@! TO.N,GND*
X21400000Y-8700000D03*
G04 #@! TO.P,J3,2*
G04 #@! TO.N,+3V3*
X21400000Y-8000000D03*
G04 #@! TO.P,J3,3*
G04 #@! TO.N,SWCLK*
X21400000Y-7300000D03*
G04 #@! TO.P,J3,4*
G04 #@! TO.N,SWDIO*
X21400000Y-6600000D03*
G04 #@! TD*
D20*
G04 #@! TO.P,M1,1*
G04 #@! TO.N,OUT2*
X28000000Y-13400000D03*
G04 #@! TO.P,M1,2*
G04 #@! TO.N,OUT1*
X28000000Y-4600000D03*
G04 #@! TD*
D21*
G04 #@! TO.N,GND*
X29800000Y-11800000D03*
X29100000Y-11800000D03*
X29100000Y-11000000D03*
X29800000Y-11000000D03*
X29800000Y-10200000D03*
X29100000Y-10200000D03*
X29800000Y-8600000D03*
X29100000Y-8600000D03*
X29800000Y-7800000D03*
X29100000Y-7800000D03*
X29800000Y-7000000D03*
X29100000Y-7000000D03*
X30900000Y-11600000D03*
X31400000Y-11600000D03*
X31900000Y-11600000D03*
X31900000Y-10600000D03*
X31900000Y-11100000D03*
X31400000Y-11100000D03*
X31400000Y-10600000D03*
X30900000Y-11100000D03*
X30900000Y-10600000D03*
X31900000Y-10100000D03*
X31400000Y-10100000D03*
X30900000Y-10100000D03*
X30900000Y-9600000D03*
X31400000Y-9600000D03*
X31900000Y-9600000D03*
X31900000Y-9100000D03*
X31400000Y-9100000D03*
X30900000Y-9100000D03*
X31900000Y-8600000D03*
X31400000Y-8600000D03*
X30900000Y-8600000D03*
X31900000Y-8100000D03*
X31400000Y-8100000D03*
X30900000Y-8100000D03*
X31900000Y-7600000D03*
X31400000Y-7600000D03*
X30900000Y-7600000D03*
X31900000Y-7100000D03*
X31400000Y-7100000D03*
X30900000Y-7100000D03*
X31900000Y-6600000D03*
X31400000Y-6600000D03*
X30900000Y-6600000D03*
X23900000Y-16230000D03*
X26150000Y-14350000D03*
X14700000Y-12300000D03*
X14200000Y-12300000D03*
X14200000Y-11700000D03*
X13700000Y-11700000D03*
X13700000Y-12300000D03*
X13200000Y-12300000D03*
X13200000Y-11700000D03*
X12700000Y-11700000D03*
X12700000Y-12300000D03*
X12200000Y-12300000D03*
X12200000Y-11700000D03*
X11000000Y-11700000D03*
X11000000Y-12300000D03*
X10500000Y-12300000D03*
X10500000Y-11700000D03*
X10000000Y-11700000D03*
X10000000Y-12300000D03*
X9500000Y-12300000D03*
X9500000Y-11700000D03*
X9000000Y-11700000D03*
X9000000Y-12300000D03*
X8500000Y-12300000D03*
X8500000Y-11700000D03*
X14700000Y-11700000D03*
X21590000Y-15119500D03*
X23876000Y-14820000D03*
X27000000Y-6100000D03*
X27500000Y-6100000D03*
X28000000Y-6100000D03*
X28500000Y-6100000D03*
X28500000Y-6600000D03*
X28000000Y-6600000D03*
X27500000Y-6600000D03*
X27000000Y-6600000D03*
X27000000Y-7100000D03*
X27500000Y-7100000D03*
X28000000Y-7100000D03*
X28500000Y-7100000D03*
X28500000Y-7600000D03*
X28000000Y-7600000D03*
X27500000Y-7600000D03*
X27000000Y-7600000D03*
X27000000Y-8100000D03*
X27500000Y-8100000D03*
X28000000Y-8100000D03*
X28500000Y-8100000D03*
X27000000Y-8100000D03*
X27000000Y-8100000D03*
X27000000Y-8600000D03*
X27500000Y-8600000D03*
X28000000Y-8600000D03*
X28500000Y-8600000D03*
X27000000Y-9100000D03*
X27500000Y-9100000D03*
X28000000Y-9100000D03*
X28500000Y-9100000D03*
X28500000Y-9600000D03*
X28000000Y-9600000D03*
X27500000Y-9600000D03*
X27000000Y-9600000D03*
X27000000Y-10100000D03*
X27500000Y-10100000D03*
X28000000Y-10100000D03*
X28500000Y-10100000D03*
X27000000Y-10600000D03*
X27500000Y-10600000D03*
X28000000Y-10600000D03*
X28500000Y-10600000D03*
X28500000Y-11100000D03*
X28000000Y-11100000D03*
X27500000Y-11100000D03*
X27000000Y-11100000D03*
X27000000Y-11600000D03*
X27500000Y-11600000D03*
X28000000Y-11600000D03*
X28500000Y-11600000D03*
X21400000Y-8710000D03*
X31400000Y-1400000D03*
X32800000Y-15393000D03*
X32800000Y-14579000D03*
X31900000Y-3307000D03*
X31900000Y-2493000D03*
X8100000Y-6793000D03*
X12364566Y-7127000D03*
G04 #@! TO.N,+3V3*
X12900000Y-7167998D03*
X12800000Y-5100000D03*
X15200000Y-15600000D03*
X18400000Y-3720000D03*
X19200000Y-4900000D03*
X31900000Y-15000000D03*
X30900000Y-15000000D03*
X26162000Y-13582500D03*
X35290000Y-5150000D03*
X30847000Y-2900000D03*
G04 #@! TO.N,+BATT*
X35300000Y-14000000D03*
X35300000Y-12500000D03*
X35300000Y-13300000D03*
X34500000Y-5400000D03*
X34500000Y-4800000D03*
X36800000Y-9400000D03*
X37500000Y-9400000D03*
X37400000Y-7800000D03*
X36800000Y-7800000D03*
X13700000Y-13700000D03*
X13700000Y-14300000D03*
X13200000Y-14300000D03*
X13200000Y-13700000D03*
X32800000Y-900000D03*
X32800000Y-1400000D03*
X32800000Y-1900000D03*
X32800000Y-2400000D03*
X32800000Y-2900000D03*
X33300000Y-2900000D03*
X33300000Y-2400000D03*
X33300000Y-1900000D03*
X33300000Y-1400000D03*
X33300000Y-900000D03*
X33800000Y-900000D03*
X33800000Y-1400000D03*
X33800000Y-1900000D03*
X33800000Y-2400000D03*
X33800000Y-2900000D03*
X34300000Y-2900000D03*
X34300000Y-2400000D03*
X34300000Y-1900000D03*
X34300000Y-1400000D03*
X34300000Y-900000D03*
X34800000Y-1900000D03*
X34500000Y-3400000D03*
X34500000Y-3900000D03*
G04 #@! TO.N,FB*
X28800000Y-907000D03*
X29930257Y-654672D03*
X37140000Y-6200000D03*
G04 #@! TO.N,MOSI*
X15271295Y-1493000D03*
X9250000Y-10450000D03*
G04 #@! TO.N,CS*
X14712997Y-3070000D03*
G04 #@! TO.N,MISO*
X13430000Y-8000000D03*
X15787003Y-3070000D03*
G04 #@! TO.N,Net-(IC2-Pad1)*
X34677500Y-16002000D03*
G04 #@! TO.N,Net-(IC2-Pad2)*
X37140000Y-11000000D03*
G04 #@! TO.N,Net-(IC2-Pad3)*
X37593000Y-4800000D03*
X37140000Y-10200000D03*
G04 #@! TO.N,Net-(IC2-Pad16)*
X30493000Y-1524000D03*
X30490000Y-5150000D03*
G04 #@! TO.N,Net-(IC2-Pad26)*
X31375500Y-16764000D03*
X31290000Y-12850000D03*
G04 #@! TO.N,D1*
X17800000Y-8900000D03*
X17800000Y-14400000D03*
X30600500Y-16764000D03*
G04 #@! TO.N,D2*
X20212002Y-1600000D03*
X20600000Y-500000D03*
X29718000Y-1524000D03*
G04 #@! TO.N,SCK*
X15250000Y-3070000D03*
X9300000Y-6400000D03*
X7520000Y-6793000D03*
X7520000Y-6793000D03*
G04 #@! TO.N,SWDIO*
X21300000Y-6600000D03*
G04 #@! TO.N,SWCLK*
X21400000Y-7310000D03*
G04 #@! TO.N,ENC_CS*
X13900000Y-9100000D03*
X15250000Y-7870000D03*
G04 #@! TD*
D22*
G04 #@! TO.N,GND*
X35300000Y-3000000D02*
X35300000Y-2100000D01*
X35300000Y-1826942D02*
X35254452Y-1754452D01*
X35300000Y-2100000D02*
X35300000Y-1826942D01*
X34707001Y-1207001D02*
X34707001Y-1095361D01*
X35254452Y-1754452D02*
X34707001Y-1207001D01*
X34495361Y-492999D02*
X33707001Y-492999D01*
X34707001Y-704639D02*
X34495361Y-492999D01*
X34707001Y-1095361D02*
X34707001Y-704639D01*
X33707001Y-492999D02*
X32007001Y-492999D01*
X31400000Y-1100000D02*
X31400000Y-1400000D01*
X32007001Y-492999D02*
X31400000Y-1100000D01*
X32800000Y-15393000D02*
X32800000Y-14579000D01*
X31900000Y-3307000D02*
X31900000Y-2493000D01*
X8100000Y-6793000D02*
X8490638Y-6793000D01*
X8490638Y-6793000D02*
X8597638Y-6900000D01*
X8597638Y-6900000D02*
X12200000Y-6900000D01*
X12364566Y-7064566D02*
X12364566Y-7127000D01*
X12200000Y-6900000D02*
X12364566Y-7064566D01*
G04 #@! TO.N,+3V3*
X36175000Y-3775000D02*
X36200000Y-3800000D01*
X35300000Y-3775000D02*
X36175000Y-3775000D01*
X35300000Y-5140000D02*
X35290000Y-5150000D01*
X35300000Y-3775000D02*
X35300000Y-5140000D01*
X12800000Y-5100000D02*
X15100000Y-5100000D01*
X15100000Y-5100000D02*
X15200000Y-5200000D01*
X15200000Y-5200000D02*
X15200000Y-6800000D01*
X14832002Y-7167998D02*
X12900000Y-7167998D01*
X15200000Y-6800000D02*
X14832002Y-7167998D01*
X15200000Y-15600000D02*
X15404999Y-15395001D01*
X15404999Y-15395001D02*
X17200000Y-13600000D01*
X17200000Y-13600000D02*
X17200000Y-11800000D01*
X15200000Y-6800000D02*
X16500000Y-6800000D01*
X31900000Y-15000000D02*
X30900000Y-15000000D01*
X30847000Y-2900000D02*
X30100000Y-2900000D01*
X30100000Y-2900000D02*
X27000000Y-2900000D01*
X27000000Y-2900000D02*
X26300000Y-3600000D01*
X26300000Y-3600000D02*
X26300000Y-5200000D01*
G04 #@! TO.N,FB*
X29677929Y-907000D02*
X29930257Y-654672D01*
X28800000Y-907000D02*
X29677929Y-907000D01*
G04 #@! TO.N,Net-(C6-Pad2)*
X36090000Y-13948000D02*
X36068000Y-13970000D01*
X36090000Y-12850000D02*
X36090000Y-13948000D01*
G04 #@! TO.N,MOSI*
X10300000Y-10000000D02*
X10750000Y-10450000D01*
X9790000Y-10000000D02*
X10300000Y-10000000D01*
X8190000Y-10000000D02*
X6600000Y-8410000D01*
X9790000Y-10000000D02*
X8190000Y-10000000D01*
X14981382Y-1493000D02*
X14974382Y-1500000D01*
X15271295Y-1493000D02*
X14981382Y-1493000D01*
X8353602Y-1500000D02*
X6600000Y-3253602D01*
X6600000Y-8410000D02*
X6600000Y-6500000D01*
X6600000Y-3253602D02*
X6600000Y-6500000D01*
X14974382Y-1500000D02*
X8353602Y-1500000D01*
X6600000Y-6500000D02*
X6600000Y-5800000D01*
X9700000Y-10000000D02*
X9250000Y-10450000D01*
X9790000Y-10000000D02*
X9700000Y-10000000D01*
G04 #@! TO.N,CS*
X11390000Y-4000000D02*
X13430000Y-4000000D01*
X9790000Y-4000000D02*
X11390000Y-4000000D01*
X14423084Y-3070000D02*
X14712997Y-3070000D01*
X13710000Y-3070000D02*
X14423084Y-3070000D01*
X13430000Y-3350000D02*
X13710000Y-3070000D01*
X13430000Y-4000000D02*
X13430000Y-3350000D01*
G04 #@! TO.N,MISO*
X15400000Y-1900000D02*
X15787003Y-2287003D01*
X15787003Y-2287003D02*
X15787003Y-3070000D01*
X11830000Y-8000000D02*
X11600000Y-7770000D01*
X11600000Y-7770000D02*
X11600000Y-7496398D01*
X8700000Y-1900000D02*
X15400000Y-1900000D01*
X11600000Y-7496398D02*
X11303602Y-7200000D01*
X11303602Y-7200000D02*
X7200000Y-7200000D01*
X13430000Y-8000000D02*
X11830000Y-8000000D01*
X7200000Y-7200000D02*
X6877010Y-6877010D01*
X6877010Y-6877010D02*
X6877010Y-3722990D01*
X6877010Y-3722990D02*
X8700000Y-1900000D01*
G04 #@! TO.N,Net-(IC2-Pad1)*
X37140000Y-12250000D02*
X37400000Y-12510000D01*
X37140000Y-11800000D02*
X37140000Y-12250000D01*
X37400000Y-12510000D02*
X37400000Y-14200000D01*
X36514613Y-15085387D02*
X36173057Y-15300000D01*
X37400000Y-14200000D02*
X36514613Y-15085387D01*
X36173057Y-15300000D02*
X35700000Y-15300000D01*
X34998000Y-16002000D02*
X34677500Y-16002000D01*
X35700000Y-15300000D02*
X34998000Y-16002000D01*
G04 #@! TO.N,Net-(IC2-Pad3)*
X36975000Y-4182000D02*
X37593000Y-4800000D01*
X36975000Y-3800000D02*
X36975000Y-4182000D01*
G04 #@! TO.N,Net-(J1-Pad4)*
X9790000Y-8000000D02*
X10750000Y-8000000D01*
X10740000Y-8000000D02*
X11390000Y-8650000D01*
X9790000Y-8000000D02*
X10740000Y-8000000D01*
X12480000Y-10000000D02*
X13430000Y-10000000D01*
X11390000Y-8910000D02*
X12480000Y-10000000D01*
X11390000Y-8650000D02*
X11390000Y-8910000D01*
G04 #@! TO.N,D1*
X17800000Y-8900000D02*
X17800000Y-12600000D01*
X17800000Y-12600000D02*
X17800000Y-14400000D01*
G04 #@! TO.N,D2*
X20212002Y-887998D02*
X20600000Y-500000D01*
X20212002Y-1600000D02*
X20212002Y-887998D01*
G04 #@! TO.N,SCK*
X9790000Y-6000000D02*
X13430000Y-6000000D01*
X15200000Y-3120000D02*
X15250000Y-3070000D01*
X8190000Y-6000000D02*
X8180000Y-6010000D01*
X9790000Y-6000000D02*
X8190000Y-6000000D01*
X7790000Y-6010000D02*
X7154020Y-5374020D01*
X8180000Y-6010000D02*
X7790000Y-6010000D01*
X7154020Y-5374020D02*
X7154020Y-3837730D01*
X7154020Y-3837730D02*
X8814740Y-2177010D01*
X8814740Y-2177010D02*
X14887010Y-2177010D01*
X15250000Y-2540000D02*
X15250000Y-3070000D01*
X14887010Y-2177010D02*
X15250000Y-2540000D01*
X7790000Y-6233087D02*
X7790000Y-6010000D01*
X7520000Y-6503087D02*
X7790000Y-6233087D01*
X7520000Y-6793000D02*
X7520000Y-6503087D01*
G04 #@! TO.N,ENC_CS*
X13900000Y-9100000D02*
X15000000Y-9100000D01*
X15250000Y-8850000D02*
X15250000Y-7870000D01*
X15000000Y-9100000D02*
X15250000Y-8850000D01*
G04 #@! TD*
D23*
G04 #@! TO.N,OUT1*
G36*
X31543471Y-3599596D02*
X31607404Y-3663529D01*
X31682582Y-3713761D01*
X31766115Y-3748361D01*
X31854792Y-3766000D01*
X31945208Y-3766000D01*
X32033885Y-3748361D01*
X32117418Y-3713761D01*
X32192596Y-3663529D01*
X32256529Y-3599596D01*
X32305036Y-3527000D01*
X33995369Y-3527000D01*
X33995369Y-4461778D01*
X33977786Y-4483203D01*
X33954200Y-4527328D01*
X33939676Y-4575207D01*
X33934772Y-4625000D01*
X33934772Y-5673000D01*
X31045228Y-5673000D01*
X31045228Y-4625000D01*
X31040324Y-4575207D01*
X31025800Y-4527328D01*
X31002214Y-4483203D01*
X30970473Y-4444527D01*
X30931797Y-4412786D01*
X30887672Y-4389200D01*
X30839793Y-4374676D01*
X30790000Y-4369772D01*
X30190000Y-4369772D01*
X30140207Y-4374676D01*
X30092328Y-4389200D01*
X30048203Y-4412786D01*
X30009527Y-4444527D01*
X29977786Y-4483203D01*
X29954200Y-4527328D01*
X29939676Y-4575207D01*
X29934772Y-4625000D01*
X29934772Y-5644772D01*
X28915000Y-5644772D01*
X28865207Y-5649676D01*
X28817328Y-5664200D01*
X28800865Y-5673000D01*
X28668556Y-5673000D01*
X28633885Y-5658639D01*
X28545208Y-5641000D01*
X28454792Y-5641000D01*
X28366115Y-5658639D01*
X28331444Y-5673000D01*
X28168556Y-5673000D01*
X28133885Y-5658639D01*
X28045208Y-5641000D01*
X27954792Y-5641000D01*
X27866115Y-5658639D01*
X27831444Y-5673000D01*
X27668556Y-5673000D01*
X27633885Y-5658639D01*
X27545208Y-5641000D01*
X27454792Y-5641000D01*
X27366115Y-5658639D01*
X27331444Y-5673000D01*
X27168556Y-5673000D01*
X27133885Y-5658639D01*
X27045208Y-5641000D01*
X26954792Y-5641000D01*
X26927000Y-5646528D01*
X26927000Y-3527000D01*
X31494964Y-3527000D01*
X31543471Y-3599596D01*
X31543471Y-3599596D01*
G37*
X31543471Y-3599596D02*
X31607404Y-3663529D01*
X31682582Y-3713761D01*
X31766115Y-3748361D01*
X31854792Y-3766000D01*
X31945208Y-3766000D01*
X32033885Y-3748361D01*
X32117418Y-3713761D01*
X32192596Y-3663529D01*
X32256529Y-3599596D01*
X32305036Y-3527000D01*
X33995369Y-3527000D01*
X33995369Y-4461778D01*
X33977786Y-4483203D01*
X33954200Y-4527328D01*
X33939676Y-4575207D01*
X33934772Y-4625000D01*
X33934772Y-5673000D01*
X31045228Y-5673000D01*
X31045228Y-4625000D01*
X31040324Y-4575207D01*
X31025800Y-4527328D01*
X31002214Y-4483203D01*
X30970473Y-4444527D01*
X30931797Y-4412786D01*
X30887672Y-4389200D01*
X30839793Y-4374676D01*
X30790000Y-4369772D01*
X30190000Y-4369772D01*
X30140207Y-4374676D01*
X30092328Y-4389200D01*
X30048203Y-4412786D01*
X30009527Y-4444527D01*
X29977786Y-4483203D01*
X29954200Y-4527328D01*
X29939676Y-4575207D01*
X29934772Y-4625000D01*
X29934772Y-5644772D01*
X28915000Y-5644772D01*
X28865207Y-5649676D01*
X28817328Y-5664200D01*
X28800865Y-5673000D01*
X28668556Y-5673000D01*
X28633885Y-5658639D01*
X28545208Y-5641000D01*
X28454792Y-5641000D01*
X28366115Y-5658639D01*
X28331444Y-5673000D01*
X28168556Y-5673000D01*
X28133885Y-5658639D01*
X28045208Y-5641000D01*
X27954792Y-5641000D01*
X27866115Y-5658639D01*
X27831444Y-5673000D01*
X27668556Y-5673000D01*
X27633885Y-5658639D01*
X27545208Y-5641000D01*
X27454792Y-5641000D01*
X27366115Y-5658639D01*
X27331444Y-5673000D01*
X27168556Y-5673000D01*
X27133885Y-5658639D01*
X27045208Y-5641000D01*
X26954792Y-5641000D01*
X26927000Y-5646528D01*
X26927000Y-3527000D01*
X31494964Y-3527000D01*
X31543471Y-3599596D01*
G04 #@! TO.N,OUT2*
G36*
X28817328Y-12335800D02*
X28865207Y-12350324D01*
X28915000Y-12355228D01*
X29934772Y-12355228D01*
X29934772Y-13375000D01*
X29939676Y-13424793D01*
X29954200Y-13472672D01*
X29977786Y-13516797D01*
X30009527Y-13555473D01*
X30048203Y-13587214D01*
X30092328Y-13610800D01*
X30140207Y-13625324D01*
X30190000Y-13630228D01*
X30790000Y-13630228D01*
X30839793Y-13625324D01*
X30887672Y-13610800D01*
X30890000Y-13609556D01*
X30892328Y-13610800D01*
X30940207Y-13625324D01*
X30990000Y-13630228D01*
X31590000Y-13630228D01*
X31639793Y-13625324D01*
X31687672Y-13610800D01*
X31731797Y-13587214D01*
X31770473Y-13555473D01*
X31802214Y-13516797D01*
X31825800Y-13472672D01*
X31840324Y-13424793D01*
X31845228Y-13375000D01*
X31845228Y-12327000D01*
X34734772Y-12327000D01*
X34734772Y-13375000D01*
X34739676Y-13424793D01*
X34754200Y-13472672D01*
X34773000Y-13507843D01*
X34773000Y-13541154D01*
X34769700Y-13547328D01*
X34755176Y-13595207D01*
X34750272Y-13645000D01*
X34750272Y-14295000D01*
X34755176Y-14344793D01*
X34769700Y-14392672D01*
X34773000Y-14398846D01*
X34773000Y-14473000D01*
X33246908Y-14473000D01*
X33241361Y-14445115D01*
X33206761Y-14361582D01*
X33156529Y-14286404D01*
X33092596Y-14222471D01*
X33017418Y-14172239D01*
X32933885Y-14137639D01*
X32845208Y-14120000D01*
X32754792Y-14120000D01*
X32666115Y-14137639D01*
X32582582Y-14172239D01*
X32507404Y-14222471D01*
X32443471Y-14286404D01*
X32393239Y-14361582D01*
X32358639Y-14445115D01*
X32353092Y-14473000D01*
X26949369Y-14473000D01*
X26949369Y-12327000D01*
X28800865Y-12327000D01*
X28817328Y-12335800D01*
X28817328Y-12335800D01*
G37*
X28817328Y-12335800D02*
X28865207Y-12350324D01*
X28915000Y-12355228D01*
X29934772Y-12355228D01*
X29934772Y-13375000D01*
X29939676Y-13424793D01*
X29954200Y-13472672D01*
X29977786Y-13516797D01*
X30009527Y-13555473D01*
X30048203Y-13587214D01*
X30092328Y-13610800D01*
X30140207Y-13625324D01*
X30190000Y-13630228D01*
X30790000Y-13630228D01*
X30839793Y-13625324D01*
X30887672Y-13610800D01*
X30890000Y-13609556D01*
X30892328Y-13610800D01*
X30940207Y-13625324D01*
X30990000Y-13630228D01*
X31590000Y-13630228D01*
X31639793Y-13625324D01*
X31687672Y-13610800D01*
X31731797Y-13587214D01*
X31770473Y-13555473D01*
X31802214Y-13516797D01*
X31825800Y-13472672D01*
X31840324Y-13424793D01*
X31845228Y-13375000D01*
X31845228Y-12327000D01*
X34734772Y-12327000D01*
X34734772Y-13375000D01*
X34739676Y-13424793D01*
X34754200Y-13472672D01*
X34773000Y-13507843D01*
X34773000Y-13541154D01*
X34769700Y-13547328D01*
X34755176Y-13595207D01*
X34750272Y-13645000D01*
X34750272Y-14295000D01*
X34755176Y-14344793D01*
X34769700Y-14392672D01*
X34773000Y-14398846D01*
X34773000Y-14473000D01*
X33246908Y-14473000D01*
X33241361Y-14445115D01*
X33206761Y-14361582D01*
X33156529Y-14286404D01*
X33092596Y-14222471D01*
X33017418Y-14172239D01*
X32933885Y-14137639D01*
X32845208Y-14120000D01*
X32754792Y-14120000D01*
X32666115Y-14137639D01*
X32582582Y-14172239D01*
X32507404Y-14222471D01*
X32443471Y-14286404D01*
X32393239Y-14361582D01*
X32358639Y-14445115D01*
X32353092Y-14473000D01*
X26949369Y-14473000D01*
X26949369Y-12327000D01*
X28800865Y-12327000D01*
X28817328Y-12335800D01*
G04 #@! TO.N,+3V3*
G36*
X26579525Y-5915690D02*
X26558639Y-5966115D01*
X26541000Y-6054792D01*
X26541000Y-6145208D01*
X26558639Y-6233885D01*
X26581376Y-6288777D01*
X26581976Y-6409774D01*
X26558639Y-6466115D01*
X26541000Y-6554792D01*
X26541000Y-6645208D01*
X26558639Y-6733885D01*
X26583886Y-6794838D01*
X26584427Y-6903857D01*
X26558639Y-6966115D01*
X26541000Y-7054792D01*
X26541000Y-7145208D01*
X26558639Y-7233885D01*
X26586396Y-7300898D01*
X26586878Y-7397940D01*
X26558639Y-7466115D01*
X26541000Y-7554792D01*
X26541000Y-7645208D01*
X26558639Y-7733885D01*
X26588906Y-7806958D01*
X26589328Y-7892023D01*
X26558639Y-7966115D01*
X26541000Y-8054792D01*
X26541000Y-8145208D01*
X26558639Y-8233885D01*
X26591417Y-8313018D01*
X26591779Y-8386106D01*
X26558639Y-8466115D01*
X26541000Y-8554792D01*
X26541000Y-8645208D01*
X26558639Y-8733885D01*
X26593239Y-8817418D01*
X26593924Y-8818443D01*
X26594234Y-8881092D01*
X26593239Y-8882582D01*
X26558639Y-8966115D01*
X26541000Y-9054792D01*
X26541000Y-9145208D01*
X26558639Y-9233885D01*
X26593239Y-9317418D01*
X26596422Y-9322182D01*
X26596696Y-9377408D01*
X26593239Y-9382582D01*
X26558639Y-9466115D01*
X26541000Y-9554792D01*
X26541000Y-9645208D01*
X26558639Y-9733885D01*
X26593239Y-9817418D01*
X26598921Y-9825922D01*
X26599158Y-9873723D01*
X26593239Y-9882582D01*
X26558639Y-9966115D01*
X26541000Y-10054792D01*
X26541000Y-10145208D01*
X26558639Y-10233885D01*
X26593239Y-10317418D01*
X26601420Y-10329662D01*
X26601620Y-10370039D01*
X26593239Y-10382582D01*
X26558639Y-10466115D01*
X26541000Y-10554792D01*
X26541000Y-10645208D01*
X26558639Y-10733885D01*
X26593239Y-10817418D01*
X26603918Y-10833401D01*
X26604082Y-10866354D01*
X26593239Y-10882582D01*
X26558639Y-10966115D01*
X26541000Y-11054792D01*
X26541000Y-11145208D01*
X26558639Y-11233885D01*
X26593239Y-11317418D01*
X26606417Y-11337141D01*
X26606544Y-11362669D01*
X26593239Y-11382582D01*
X26558639Y-11466115D01*
X26541000Y-11554792D01*
X26541000Y-11645208D01*
X26558639Y-11733885D01*
X26593239Y-11817418D01*
X26608916Y-11840880D01*
X26618894Y-13852493D01*
X26584672Y-13834200D01*
X26536793Y-13819676D01*
X26487000Y-13814772D01*
X25837000Y-13814772D01*
X25787207Y-13819676D01*
X25739328Y-13834200D01*
X25695203Y-13857786D01*
X25656527Y-13889527D01*
X25624786Y-13928203D01*
X25601200Y-13972328D01*
X25586676Y-14020207D01*
X25581772Y-14070000D01*
X25581772Y-14546166D01*
X25231228Y-14544116D01*
X25231228Y-13970000D01*
X25226324Y-13920207D01*
X25211800Y-13872328D01*
X25188214Y-13828203D01*
X25156473Y-13789527D01*
X25117797Y-13757786D01*
X25073672Y-13734200D01*
X25025793Y-13719676D01*
X24976000Y-13714772D01*
X23452078Y-13714772D01*
X23446998Y-12739339D01*
X23444429Y-12714575D01*
X23437078Y-12690789D01*
X23425228Y-12668894D01*
X23409334Y-12649731D01*
X23390006Y-12634037D01*
X23367989Y-12622416D01*
X23344127Y-12615313D01*
X23320000Y-12613000D01*
X18129000Y-12613000D01*
X18129000Y-9220125D01*
X18156529Y-9192596D01*
X18206761Y-9117418D01*
X18241361Y-9033885D01*
X18259000Y-8945208D01*
X18259000Y-8854792D01*
X18241361Y-8766115D01*
X18213976Y-8700000D01*
X20643320Y-8700000D01*
X20654016Y-8808603D01*
X20685695Y-8913032D01*
X20737137Y-9009275D01*
X20806368Y-9093632D01*
X20890725Y-9162863D01*
X20986968Y-9214305D01*
X21091397Y-9245984D01*
X21172788Y-9254000D01*
X21627212Y-9254000D01*
X21708603Y-9245984D01*
X21813032Y-9214305D01*
X21909275Y-9162863D01*
X21993632Y-9093632D01*
X22062863Y-9009275D01*
X22114305Y-8913032D01*
X22145984Y-8808603D01*
X22156680Y-8700000D01*
X22145984Y-8591397D01*
X22114305Y-8486968D01*
X22062863Y-8390725D01*
X21993632Y-8306368D01*
X21909275Y-8237137D01*
X21813032Y-8185695D01*
X21708603Y-8154016D01*
X21627212Y-8146000D01*
X21172788Y-8146000D01*
X21091397Y-8154016D01*
X20986968Y-8185695D01*
X20890725Y-8237137D01*
X20806368Y-8306368D01*
X20737137Y-8390725D01*
X20685695Y-8486968D01*
X20654016Y-8591397D01*
X20643320Y-8700000D01*
X18213976Y-8700000D01*
X18206761Y-8682582D01*
X18156529Y-8607404D01*
X18092596Y-8543471D01*
X18017418Y-8493239D01*
X17933885Y-8458639D01*
X17845208Y-8441000D01*
X17754792Y-8441000D01*
X17666115Y-8458639D01*
X17582582Y-8493239D01*
X17507404Y-8543471D01*
X17443471Y-8607404D01*
X17393239Y-8682582D01*
X17358639Y-8766115D01*
X17341000Y-8854792D01*
X17341000Y-8945208D01*
X17358639Y-9033885D01*
X17393239Y-9117418D01*
X17443471Y-9192596D01*
X17471000Y-9220125D01*
X17471001Y-12583837D01*
X17471000Y-12583847D01*
X17471000Y-12613000D01*
X16017179Y-12613000D01*
X16025660Y-6600000D01*
X20643320Y-6600000D01*
X20654016Y-6708603D01*
X20685695Y-6813032D01*
X20737137Y-6909275D01*
X20770560Y-6950000D01*
X20737137Y-6990725D01*
X20685695Y-7086968D01*
X20654016Y-7191397D01*
X20643320Y-7300000D01*
X20654016Y-7408603D01*
X20685695Y-7513032D01*
X20737137Y-7609275D01*
X20806368Y-7693632D01*
X20890725Y-7762863D01*
X20986968Y-7814305D01*
X21091397Y-7845984D01*
X21172788Y-7854000D01*
X21627212Y-7854000D01*
X21708603Y-7845984D01*
X21813032Y-7814305D01*
X21909275Y-7762863D01*
X21993632Y-7693632D01*
X22062863Y-7609275D01*
X22114305Y-7513032D01*
X22145984Y-7408603D01*
X22156680Y-7300000D01*
X22145984Y-7191397D01*
X22114305Y-7086968D01*
X22062863Y-6990725D01*
X22029440Y-6950000D01*
X22062863Y-6909275D01*
X22114305Y-6813032D01*
X22145984Y-6708603D01*
X22156680Y-6600000D01*
X22145984Y-6491397D01*
X22114305Y-6386968D01*
X22062863Y-6290725D01*
X21993632Y-6206368D01*
X21909275Y-6137137D01*
X21813032Y-6085695D01*
X21708603Y-6054016D01*
X21627212Y-6046000D01*
X21172788Y-6046000D01*
X21091397Y-6054016D01*
X20986968Y-6085695D01*
X20890725Y-6137137D01*
X20806368Y-6206368D01*
X20737137Y-6290725D01*
X20685695Y-6386968D01*
X20654016Y-6491397D01*
X20643320Y-6600000D01*
X16025660Y-6600000D01*
X16027000Y-5650179D01*
X16027000Y-4727000D01*
X26573629Y-4727000D01*
X26579525Y-5915690D01*
X26579525Y-5915690D01*
G37*
X26579525Y-5915690D02*
X26558639Y-5966115D01*
X26541000Y-6054792D01*
X26541000Y-6145208D01*
X26558639Y-6233885D01*
X26581376Y-6288777D01*
X26581976Y-6409774D01*
X26558639Y-6466115D01*
X26541000Y-6554792D01*
X26541000Y-6645208D01*
X26558639Y-6733885D01*
X26583886Y-6794838D01*
X26584427Y-6903857D01*
X26558639Y-6966115D01*
X26541000Y-7054792D01*
X26541000Y-7145208D01*
X26558639Y-7233885D01*
X26586396Y-7300898D01*
X26586878Y-7397940D01*
X26558639Y-7466115D01*
X26541000Y-7554792D01*
X26541000Y-7645208D01*
X26558639Y-7733885D01*
X26588906Y-7806958D01*
X26589328Y-7892023D01*
X26558639Y-7966115D01*
X26541000Y-8054792D01*
X26541000Y-8145208D01*
X26558639Y-8233885D01*
X26591417Y-8313018D01*
X26591779Y-8386106D01*
X26558639Y-8466115D01*
X26541000Y-8554792D01*
X26541000Y-8645208D01*
X26558639Y-8733885D01*
X26593239Y-8817418D01*
X26593924Y-8818443D01*
X26594234Y-8881092D01*
X26593239Y-8882582D01*
X26558639Y-8966115D01*
X26541000Y-9054792D01*
X26541000Y-9145208D01*
X26558639Y-9233885D01*
X26593239Y-9317418D01*
X26596422Y-9322182D01*
X26596696Y-9377408D01*
X26593239Y-9382582D01*
X26558639Y-9466115D01*
X26541000Y-9554792D01*
X26541000Y-9645208D01*
X26558639Y-9733885D01*
X26593239Y-9817418D01*
X26598921Y-9825922D01*
X26599158Y-9873723D01*
X26593239Y-9882582D01*
X26558639Y-9966115D01*
X26541000Y-10054792D01*
X26541000Y-10145208D01*
X26558639Y-10233885D01*
X26593239Y-10317418D01*
X26601420Y-10329662D01*
X26601620Y-10370039D01*
X26593239Y-10382582D01*
X26558639Y-10466115D01*
X26541000Y-10554792D01*
X26541000Y-10645208D01*
X26558639Y-10733885D01*
X26593239Y-10817418D01*
X26603918Y-10833401D01*
X26604082Y-10866354D01*
X26593239Y-10882582D01*
X26558639Y-10966115D01*
X26541000Y-11054792D01*
X26541000Y-11145208D01*
X26558639Y-11233885D01*
X26593239Y-11317418D01*
X26606417Y-11337141D01*
X26606544Y-11362669D01*
X26593239Y-11382582D01*
X26558639Y-11466115D01*
X26541000Y-11554792D01*
X26541000Y-11645208D01*
X26558639Y-11733885D01*
X26593239Y-11817418D01*
X26608916Y-11840880D01*
X26618894Y-13852493D01*
X26584672Y-13834200D01*
X26536793Y-13819676D01*
X26487000Y-13814772D01*
X25837000Y-13814772D01*
X25787207Y-13819676D01*
X25739328Y-13834200D01*
X25695203Y-13857786D01*
X25656527Y-13889527D01*
X25624786Y-13928203D01*
X25601200Y-13972328D01*
X25586676Y-14020207D01*
X25581772Y-14070000D01*
X25581772Y-14546166D01*
X25231228Y-14544116D01*
X25231228Y-13970000D01*
X25226324Y-13920207D01*
X25211800Y-13872328D01*
X25188214Y-13828203D01*
X25156473Y-13789527D01*
X25117797Y-13757786D01*
X25073672Y-13734200D01*
X25025793Y-13719676D01*
X24976000Y-13714772D01*
X23452078Y-13714772D01*
X23446998Y-12739339D01*
X23444429Y-12714575D01*
X23437078Y-12690789D01*
X23425228Y-12668894D01*
X23409334Y-12649731D01*
X23390006Y-12634037D01*
X23367989Y-12622416D01*
X23344127Y-12615313D01*
X23320000Y-12613000D01*
X18129000Y-12613000D01*
X18129000Y-9220125D01*
X18156529Y-9192596D01*
X18206761Y-9117418D01*
X18241361Y-9033885D01*
X18259000Y-8945208D01*
X18259000Y-8854792D01*
X18241361Y-8766115D01*
X18213976Y-8700000D01*
X20643320Y-8700000D01*
X20654016Y-8808603D01*
X20685695Y-8913032D01*
X20737137Y-9009275D01*
X20806368Y-9093632D01*
X20890725Y-9162863D01*
X20986968Y-9214305D01*
X21091397Y-9245984D01*
X21172788Y-9254000D01*
X21627212Y-9254000D01*
X21708603Y-9245984D01*
X21813032Y-9214305D01*
X21909275Y-9162863D01*
X21993632Y-9093632D01*
X22062863Y-9009275D01*
X22114305Y-8913032D01*
X22145984Y-8808603D01*
X22156680Y-8700000D01*
X22145984Y-8591397D01*
X22114305Y-8486968D01*
X22062863Y-8390725D01*
X21993632Y-8306368D01*
X21909275Y-8237137D01*
X21813032Y-8185695D01*
X21708603Y-8154016D01*
X21627212Y-8146000D01*
X21172788Y-8146000D01*
X21091397Y-8154016D01*
X20986968Y-8185695D01*
X20890725Y-8237137D01*
X20806368Y-8306368D01*
X20737137Y-8390725D01*
X20685695Y-8486968D01*
X20654016Y-8591397D01*
X20643320Y-8700000D01*
X18213976Y-8700000D01*
X18206761Y-8682582D01*
X18156529Y-8607404D01*
X18092596Y-8543471D01*
X18017418Y-8493239D01*
X17933885Y-8458639D01*
X17845208Y-8441000D01*
X17754792Y-8441000D01*
X17666115Y-8458639D01*
X17582582Y-8493239D01*
X17507404Y-8543471D01*
X17443471Y-8607404D01*
X17393239Y-8682582D01*
X17358639Y-8766115D01*
X17341000Y-8854792D01*
X17341000Y-8945208D01*
X17358639Y-9033885D01*
X17393239Y-9117418D01*
X17443471Y-9192596D01*
X17471000Y-9220125D01*
X17471001Y-12583837D01*
X17471000Y-12583847D01*
X17471000Y-12613000D01*
X16017179Y-12613000D01*
X16025660Y-6600000D01*
X20643320Y-6600000D01*
X20654016Y-6708603D01*
X20685695Y-6813032D01*
X20737137Y-6909275D01*
X20770560Y-6950000D01*
X20737137Y-6990725D01*
X20685695Y-7086968D01*
X20654016Y-7191397D01*
X20643320Y-7300000D01*
X20654016Y-7408603D01*
X20685695Y-7513032D01*
X20737137Y-7609275D01*
X20806368Y-7693632D01*
X20890725Y-7762863D01*
X20986968Y-7814305D01*
X21091397Y-7845984D01*
X21172788Y-7854000D01*
X21627212Y-7854000D01*
X21708603Y-7845984D01*
X21813032Y-7814305D01*
X21909275Y-7762863D01*
X21993632Y-7693632D01*
X22062863Y-7609275D01*
X22114305Y-7513032D01*
X22145984Y-7408603D01*
X22156680Y-7300000D01*
X22145984Y-7191397D01*
X22114305Y-7086968D01*
X22062863Y-6990725D01*
X22029440Y-6950000D01*
X22062863Y-6909275D01*
X22114305Y-6813032D01*
X22145984Y-6708603D01*
X22156680Y-6600000D01*
X22145984Y-6491397D01*
X22114305Y-6386968D01*
X22062863Y-6290725D01*
X21993632Y-6206368D01*
X21909275Y-6137137D01*
X21813032Y-6085695D01*
X21708603Y-6054016D01*
X21627212Y-6046000D01*
X21172788Y-6046000D01*
X21091397Y-6054016D01*
X20986968Y-6085695D01*
X20890725Y-6137137D01*
X20806368Y-6206368D01*
X20737137Y-6290725D01*
X20685695Y-6386968D01*
X20654016Y-6491397D01*
X20643320Y-6600000D01*
X16025660Y-6600000D01*
X16027000Y-5650179D01*
X16027000Y-4727000D01*
X26573629Y-4727000D01*
X26579525Y-5915690D01*
G04 #@! TO.N,+BATT*
G36*
X3084772Y-2550000D02*
X3089676Y-2599793D01*
X3104200Y-2647672D01*
X3127786Y-2691797D01*
X3159527Y-2730473D01*
X3198203Y-2762214D01*
X3242328Y-2785800D01*
X3290207Y-2800324D01*
X3340000Y-2805228D01*
X6583099Y-2805228D01*
X6378790Y-3009537D01*
X6366237Y-3019839D01*
X6325124Y-3069936D01*
X6294574Y-3127091D01*
X6275761Y-3189108D01*
X6271000Y-3237449D01*
X6271000Y-3237458D01*
X6269410Y-3253602D01*
X6271000Y-3269746D01*
X6271001Y-5783846D01*
X6271000Y-6516153D01*
X6271001Y-6516163D01*
X6271000Y-8393856D01*
X6269410Y-8410000D01*
X6271000Y-8426144D01*
X6271000Y-8426153D01*
X6275761Y-8474494D01*
X6294574Y-8536511D01*
X6325124Y-8593666D01*
X6366237Y-8643763D01*
X6378790Y-8654065D01*
X7945944Y-10221221D01*
X7956237Y-10233763D01*
X7968779Y-10244056D01*
X7968784Y-10244061D01*
X8006333Y-10274876D01*
X8063488Y-10305426D01*
X8084772Y-10311883D01*
X8084772Y-10500000D01*
X8089676Y-10549793D01*
X8104200Y-10597672D01*
X8127786Y-10641797D01*
X8159527Y-10680473D01*
X8198203Y-10712214D01*
X8242328Y-10735800D01*
X8290207Y-10750324D01*
X8340000Y-10755228D01*
X8906103Y-10755228D01*
X8957404Y-10806529D01*
X9032582Y-10856761D01*
X9116115Y-10891361D01*
X9204792Y-10909000D01*
X9295208Y-10909000D01*
X9383885Y-10891361D01*
X9467418Y-10856761D01*
X9542596Y-10806529D01*
X9593897Y-10755228D01*
X10623118Y-10755228D01*
X10623488Y-10755426D01*
X10685505Y-10774238D01*
X10749999Y-10780590D01*
X10814494Y-10774238D01*
X10876511Y-10755426D01*
X10876881Y-10755228D01*
X11240000Y-10755228D01*
X11289793Y-10750324D01*
X11337672Y-10735800D01*
X11381797Y-10712214D01*
X11420473Y-10680473D01*
X11452214Y-10641797D01*
X11475800Y-10597672D01*
X11490324Y-10549793D01*
X11495228Y-10500000D01*
X11495228Y-9500000D01*
X11493098Y-9478373D01*
X11724772Y-9710048D01*
X11724772Y-10500000D01*
X11729676Y-10549793D01*
X11744200Y-10597672D01*
X11767786Y-10641797D01*
X11799527Y-10680473D01*
X11838203Y-10712214D01*
X11882328Y-10735800D01*
X11930207Y-10750324D01*
X11980000Y-10755228D01*
X14880000Y-10755228D01*
X14929793Y-10750324D01*
X14977672Y-10735800D01*
X15021797Y-10712214D01*
X15060473Y-10680473D01*
X15092214Y-10641797D01*
X15115800Y-10597672D01*
X15130324Y-10549793D01*
X15135228Y-10500000D01*
X15135228Y-9500000D01*
X15130324Y-9450207D01*
X15117563Y-9408141D01*
X15126512Y-9405426D01*
X15183667Y-9374876D01*
X15233763Y-9333763D01*
X15244065Y-9321210D01*
X15471216Y-9094060D01*
X15483763Y-9083763D01*
X15518562Y-9041361D01*
X15524876Y-9033668D01*
X15555426Y-8976512D01*
X15564922Y-8945208D01*
X15574239Y-8914495D01*
X15579000Y-8866154D01*
X15579000Y-8866145D01*
X15580590Y-8850001D01*
X15579000Y-8833857D01*
X15579000Y-8190125D01*
X15606529Y-8162596D01*
X15656761Y-8087418D01*
X15673000Y-8048213D01*
X15673000Y-12800000D01*
X15675440Y-12824776D01*
X15682667Y-12848601D01*
X15694403Y-12870557D01*
X15710197Y-12889803D01*
X15729443Y-12905597D01*
X15751399Y-12917333D01*
X15775224Y-12924560D01*
X15800000Y-12927000D01*
X16871000Y-12927000D01*
X16871000Y-13463724D01*
X15193725Y-15141000D01*
X15154792Y-15141000D01*
X15066115Y-15158639D01*
X14982582Y-15193239D01*
X14907404Y-15243471D01*
X14843471Y-15307404D01*
X14793239Y-15382582D01*
X14758639Y-15466115D01*
X14741000Y-15554792D01*
X14741000Y-15645208D01*
X14758639Y-15733885D01*
X14793239Y-15817418D01*
X14843471Y-15892596D01*
X14907404Y-15956529D01*
X14982582Y-16006761D01*
X15066115Y-16041361D01*
X15154792Y-16059000D01*
X15245208Y-16059000D01*
X15333885Y-16041361D01*
X15417418Y-16006761D01*
X15492596Y-15956529D01*
X15556529Y-15892596D01*
X15606761Y-15817418D01*
X15641361Y-15733885D01*
X15659000Y-15645208D01*
X15659000Y-15606275D01*
X15815275Y-15450000D01*
X16024772Y-15450000D01*
X16024772Y-17250000D01*
X16029676Y-17299793D01*
X16044200Y-17347672D01*
X16067786Y-17391797D01*
X16099527Y-17430473D01*
X16138203Y-17462214D01*
X16182328Y-17485800D01*
X16230207Y-17500324D01*
X16280000Y-17505228D01*
X19880000Y-17505228D01*
X19929793Y-17500324D01*
X19977672Y-17485800D01*
X20021797Y-17462214D01*
X20060473Y-17430473D01*
X20092214Y-17391797D01*
X20115800Y-17347672D01*
X20130324Y-17299793D01*
X20135228Y-17250000D01*
X20135228Y-15450000D01*
X20130324Y-15400207D01*
X20115800Y-15352328D01*
X20092214Y-15308203D01*
X20060473Y-15269527D01*
X20021797Y-15237786D01*
X19977672Y-15214200D01*
X19929793Y-15199676D01*
X19880000Y-15194772D01*
X16280000Y-15194772D01*
X16230207Y-15199676D01*
X16182328Y-15214200D01*
X16138203Y-15237786D01*
X16099527Y-15269527D01*
X16067786Y-15308203D01*
X16044200Y-15352328D01*
X16029676Y-15400207D01*
X16024772Y-15450000D01*
X15815275Y-15450000D01*
X17421216Y-13844060D01*
X17433763Y-13833763D01*
X17471001Y-13788389D01*
X17471001Y-14079874D01*
X17443471Y-14107404D01*
X17393239Y-14182582D01*
X17358639Y-14266115D01*
X17341000Y-14354792D01*
X17341000Y-14445208D01*
X17358639Y-14533885D01*
X17393239Y-14617418D01*
X17443471Y-14692596D01*
X17507404Y-14756529D01*
X17582582Y-14806761D01*
X17666115Y-14841361D01*
X17754792Y-14859000D01*
X17845208Y-14859000D01*
X17933885Y-14841361D01*
X17956484Y-14832000D01*
X21009772Y-14832000D01*
X21009772Y-15407000D01*
X21014676Y-15456793D01*
X21029200Y-15504672D01*
X21052786Y-15548797D01*
X21084527Y-15587473D01*
X21123203Y-15619214D01*
X21167328Y-15642800D01*
X21215207Y-15657324D01*
X21265000Y-15662228D01*
X21915000Y-15662228D01*
X21964793Y-15657324D01*
X22012672Y-15642800D01*
X22056797Y-15619214D01*
X22095473Y-15587473D01*
X22127214Y-15548797D01*
X22150800Y-15504672D01*
X22165324Y-15456793D01*
X22170228Y-15407000D01*
X22170228Y-14832000D01*
X22165324Y-14782207D01*
X22150800Y-14734328D01*
X22127214Y-14690203D01*
X22095473Y-14651527D01*
X22056797Y-14619786D01*
X22012672Y-14596200D01*
X21964793Y-14581676D01*
X21915000Y-14576772D01*
X21265000Y-14576772D01*
X21215207Y-14581676D01*
X21167328Y-14596200D01*
X21123203Y-14619786D01*
X21084527Y-14651527D01*
X21052786Y-14690203D01*
X21029200Y-14734328D01*
X21014676Y-14782207D01*
X21009772Y-14832000D01*
X17956484Y-14832000D01*
X18017418Y-14806761D01*
X18092596Y-14756529D01*
X18156529Y-14692596D01*
X18206761Y-14617418D01*
X18241361Y-14533885D01*
X18259000Y-14445208D01*
X18259000Y-14354792D01*
X18241361Y-14266115D01*
X18206761Y-14182582D01*
X18156529Y-14107404D01*
X18129000Y-14079875D01*
X18129000Y-12927000D01*
X23173000Y-12927000D01*
X23173000Y-13714772D01*
X22776000Y-13714772D01*
X22726207Y-13719676D01*
X22678328Y-13734200D01*
X22634203Y-13757786D01*
X22595527Y-13789527D01*
X22563786Y-13828203D01*
X22540200Y-13872328D01*
X22525676Y-13920207D01*
X22520772Y-13970000D01*
X22520772Y-15670000D01*
X22525676Y-15719793D01*
X22540200Y-15767672D01*
X22563786Y-15811797D01*
X22595527Y-15850473D01*
X22634203Y-15882214D01*
X22678328Y-15905800D01*
X22726207Y-15920324D01*
X22776000Y-15925228D01*
X23420772Y-15925228D01*
X23420772Y-16695000D01*
X23425676Y-16744793D01*
X23440200Y-16792672D01*
X23463786Y-16836797D01*
X23495527Y-16875473D01*
X23534203Y-16907214D01*
X23578328Y-16930800D01*
X23626207Y-16945324D01*
X23676000Y-16950228D01*
X24076000Y-16950228D01*
X24125793Y-16945324D01*
X24173672Y-16930800D01*
X24217797Y-16907214D01*
X24256473Y-16875473D01*
X24288214Y-16836797D01*
X24311800Y-16792672D01*
X24326324Y-16744793D01*
X24331228Y-16695000D01*
X24331228Y-16388349D01*
X24341361Y-16363885D01*
X24359000Y-16275208D01*
X24359000Y-16184792D01*
X24341361Y-16096115D01*
X24331228Y-16071651D01*
X24331228Y-15925228D01*
X24370772Y-15925228D01*
X24370772Y-16695000D01*
X24375676Y-16744793D01*
X24390200Y-16792672D01*
X24413786Y-16836797D01*
X24445527Y-16875473D01*
X24484203Y-16907214D01*
X24528328Y-16930800D01*
X24576207Y-16945324D01*
X24626000Y-16950228D01*
X25026000Y-16950228D01*
X25075793Y-16945324D01*
X25123672Y-16930800D01*
X25167797Y-16907214D01*
X25206473Y-16875473D01*
X25238214Y-16836797D01*
X25261800Y-16792672D01*
X25276324Y-16744793D01*
X25281228Y-16695000D01*
X25281228Y-16439000D01*
X30057772Y-16439000D01*
X30057772Y-17089000D01*
X30062676Y-17138793D01*
X30077200Y-17186672D01*
X30100786Y-17230797D01*
X30132527Y-17269473D01*
X30171203Y-17301214D01*
X30215328Y-17324800D01*
X30263207Y-17339324D01*
X30313000Y-17344228D01*
X30888000Y-17344228D01*
X30937793Y-17339324D01*
X30985672Y-17324800D01*
X30988000Y-17323556D01*
X30990328Y-17324800D01*
X31038207Y-17339324D01*
X31088000Y-17344228D01*
X31663000Y-17344228D01*
X31712793Y-17339324D01*
X31760672Y-17324800D01*
X31804797Y-17301214D01*
X31843473Y-17269473D01*
X31875214Y-17230797D01*
X31898800Y-17186672D01*
X31913324Y-17138793D01*
X31918228Y-17089000D01*
X31918228Y-16439000D01*
X31913324Y-16389207D01*
X31898800Y-16341328D01*
X31875214Y-16297203D01*
X31843473Y-16258527D01*
X31804797Y-16226786D01*
X31760672Y-16203200D01*
X31712793Y-16188676D01*
X31663000Y-16183772D01*
X31088000Y-16183772D01*
X31038207Y-16188676D01*
X30990328Y-16203200D01*
X30988000Y-16204444D01*
X30985672Y-16203200D01*
X30937793Y-16188676D01*
X30888000Y-16183772D01*
X30313000Y-16183772D01*
X30263207Y-16188676D01*
X30215328Y-16203200D01*
X30171203Y-16226786D01*
X30132527Y-16258527D01*
X30100786Y-16297203D01*
X30077200Y-16341328D01*
X30062676Y-16389207D01*
X30057772Y-16439000D01*
X25281228Y-16439000D01*
X25281228Y-15845000D01*
X25276324Y-15795207D01*
X25261800Y-15747328D01*
X25238214Y-15703203D01*
X25229057Y-15692045D01*
X25231228Y-15670000D01*
X25231228Y-14827000D01*
X25473000Y-14827000D01*
X25473000Y-14900000D01*
X25475440Y-14924776D01*
X25482667Y-14948601D01*
X25494403Y-14970557D01*
X25510197Y-14989803D01*
X25529443Y-15005597D01*
X25551399Y-15017333D01*
X25575224Y-15024560D01*
X25600000Y-15027000D01*
X26800000Y-15027000D01*
X26824776Y-15024560D01*
X26848601Y-15017333D01*
X26870557Y-15005597D01*
X26889803Y-14989803D01*
X26905597Y-14970557D01*
X26917333Y-14948601D01*
X26924560Y-14924776D01*
X26927000Y-14900000D01*
X26927000Y-14827000D01*
X30474841Y-14827000D01*
X30458639Y-14866115D01*
X30441000Y-14954792D01*
X30441000Y-15045208D01*
X30458639Y-15133885D01*
X30493239Y-15217418D01*
X30543471Y-15292596D01*
X30607404Y-15356529D01*
X30682582Y-15406761D01*
X30766115Y-15441361D01*
X30854792Y-15459000D01*
X30945208Y-15459000D01*
X31033885Y-15441361D01*
X31117418Y-15406761D01*
X31192596Y-15356529D01*
X31220125Y-15329000D01*
X31579875Y-15329000D01*
X31607404Y-15356529D01*
X31682582Y-15406761D01*
X31766115Y-15441361D01*
X31854792Y-15459000D01*
X31945208Y-15459000D01*
X32033885Y-15441361D01*
X32117418Y-15406761D01*
X32192596Y-15356529D01*
X32256529Y-15292596D01*
X32306761Y-15217418D01*
X32341361Y-15133885D01*
X32359000Y-15045208D01*
X32359000Y-14954792D01*
X32341361Y-14866115D01*
X32325159Y-14827000D01*
X32413673Y-14827000D01*
X32443471Y-14871596D01*
X32471001Y-14899126D01*
X32471000Y-15072875D01*
X32443471Y-15100404D01*
X32393239Y-15175582D01*
X32358639Y-15259115D01*
X32341000Y-15347792D01*
X32341000Y-15438208D01*
X32358639Y-15526885D01*
X32393239Y-15610418D01*
X32443471Y-15685596D01*
X32507404Y-15749529D01*
X32573000Y-15793359D01*
X32573000Y-17696400D01*
X3275491Y-17696400D01*
X3253719Y-17489256D01*
X3290207Y-17500324D01*
X3340000Y-17505228D01*
X6940000Y-17505228D01*
X6989793Y-17500324D01*
X7037672Y-17485800D01*
X7081797Y-17462214D01*
X7120473Y-17430473D01*
X7152214Y-17391797D01*
X7175800Y-17347672D01*
X7190324Y-17299793D01*
X7195228Y-17250000D01*
X7195228Y-15450000D01*
X7190324Y-15400207D01*
X7175800Y-15352328D01*
X7152214Y-15308203D01*
X7120473Y-15269527D01*
X7081797Y-15237786D01*
X7037672Y-15214200D01*
X6989793Y-15199676D01*
X6940000Y-15194772D01*
X3340000Y-15194772D01*
X3290207Y-15199676D01*
X3242328Y-15214200D01*
X3198203Y-15237786D01*
X3159527Y-15269527D01*
X3127786Y-15308203D01*
X3104200Y-15352328D01*
X3089676Y-15400207D01*
X3084772Y-15450000D01*
X3084772Y-16841879D01*
X3055611Y-16747676D01*
X3044951Y-16722316D01*
X3034640Y-16696797D01*
X3032650Y-16693054D01*
X3032650Y-16693053D01*
X3032647Y-16693049D01*
X2754174Y-16178022D01*
X2738808Y-16155241D01*
X2723720Y-16132184D01*
X2721041Y-16128899D01*
X2347831Y-15677766D01*
X2328279Y-15658350D01*
X2309053Y-15638718D01*
X2305793Y-15636020D01*
X2305787Y-15636014D01*
X2305780Y-15636010D01*
X1852059Y-15265963D01*
X1829134Y-15250732D01*
X1806435Y-15235190D01*
X1802707Y-15233173D01*
X1285742Y-14958299D01*
X1260270Y-14947800D01*
X1235010Y-14936974D01*
X1230967Y-14935722D01*
X1230960Y-14935719D01*
X1230953Y-14935718D01*
X670453Y-14766493D01*
X643479Y-14761152D01*
X616545Y-14755427D01*
X612329Y-14754984D01*
X303600Y-14724713D01*
X303600Y-11654792D01*
X8041000Y-11654792D01*
X8041000Y-11745208D01*
X8058639Y-11833885D01*
X8084772Y-11896977D01*
X8084772Y-12103023D01*
X8058639Y-12166115D01*
X8041000Y-12254792D01*
X8041000Y-12345208D01*
X8058639Y-12433885D01*
X8084772Y-12496977D01*
X8084772Y-12500000D01*
X8089676Y-12549793D01*
X8104200Y-12597672D01*
X8127786Y-12641797D01*
X8159527Y-12680473D01*
X8198203Y-12712214D01*
X8242328Y-12735800D01*
X8290207Y-12750324D01*
X8340000Y-12755228D01*
X8435829Y-12755228D01*
X8454792Y-12759000D01*
X8545208Y-12759000D01*
X8564171Y-12755228D01*
X8935829Y-12755228D01*
X8954792Y-12759000D01*
X9045208Y-12759000D01*
X9064171Y-12755228D01*
X9435829Y-12755228D01*
X9454792Y-12759000D01*
X9545208Y-12759000D01*
X9564171Y-12755228D01*
X9935829Y-12755228D01*
X9954792Y-12759000D01*
X10045208Y-12759000D01*
X10064171Y-12755228D01*
X10435829Y-12755228D01*
X10454792Y-12759000D01*
X10545208Y-12759000D01*
X10564171Y-12755228D01*
X10935829Y-12755228D01*
X10954792Y-12759000D01*
X11045208Y-12759000D01*
X11064171Y-12755228D01*
X11240000Y-12755228D01*
X11289793Y-12750324D01*
X11337672Y-12735800D01*
X11381797Y-12712214D01*
X11420473Y-12680473D01*
X11452214Y-12641797D01*
X11475800Y-12597672D01*
X11490324Y-12549793D01*
X11495228Y-12500000D01*
X11495228Y-11500000D01*
X11724772Y-11500000D01*
X11724772Y-12500000D01*
X11729676Y-12549793D01*
X11744200Y-12597672D01*
X11767786Y-12641797D01*
X11799527Y-12680473D01*
X11838203Y-12712214D01*
X11882328Y-12735800D01*
X11930207Y-12750324D01*
X11980000Y-12755228D01*
X12135829Y-12755228D01*
X12154792Y-12759000D01*
X12245208Y-12759000D01*
X12264171Y-12755228D01*
X12635829Y-12755228D01*
X12654792Y-12759000D01*
X12745208Y-12759000D01*
X12764171Y-12755228D01*
X13135829Y-12755228D01*
X13154792Y-12759000D01*
X13245208Y-12759000D01*
X13264171Y-12755228D01*
X13635829Y-12755228D01*
X13654792Y-12759000D01*
X13745208Y-12759000D01*
X13764171Y-12755228D01*
X14135829Y-12755228D01*
X14154792Y-12759000D01*
X14245208Y-12759000D01*
X14264171Y-12755228D01*
X14635829Y-12755228D01*
X14654792Y-12759000D01*
X14745208Y-12759000D01*
X14764171Y-12755228D01*
X14880000Y-12755228D01*
X14929793Y-12750324D01*
X14977672Y-12735800D01*
X15021797Y-12712214D01*
X15060473Y-12680473D01*
X15092214Y-12641797D01*
X15115800Y-12597672D01*
X15130324Y-12549793D01*
X15135228Y-12500000D01*
X15135228Y-12448692D01*
X15141361Y-12433885D01*
X15159000Y-12345208D01*
X15159000Y-12254792D01*
X15141361Y-12166115D01*
X15135228Y-12151308D01*
X15135228Y-11848692D01*
X15141361Y-11833885D01*
X15159000Y-11745208D01*
X15159000Y-11654792D01*
X15141361Y-11566115D01*
X15135228Y-11551308D01*
X15135228Y-11500000D01*
X15130324Y-11450207D01*
X15115800Y-11402328D01*
X15092214Y-11358203D01*
X15060473Y-11319527D01*
X15021797Y-11287786D01*
X14977672Y-11264200D01*
X14929793Y-11249676D01*
X14880000Y-11244772D01*
X14764171Y-11244772D01*
X14745208Y-11241000D01*
X14654792Y-11241000D01*
X14635829Y-11244772D01*
X14264171Y-11244772D01*
X14245208Y-11241000D01*
X14154792Y-11241000D01*
X14135829Y-11244772D01*
X13764171Y-11244772D01*
X13745208Y-11241000D01*
X13654792Y-11241000D01*
X13635829Y-11244772D01*
X13264171Y-11244772D01*
X13245208Y-11241000D01*
X13154792Y-11241000D01*
X13135829Y-11244772D01*
X12764171Y-11244772D01*
X12745208Y-11241000D01*
X12654792Y-11241000D01*
X12635829Y-11244772D01*
X12264171Y-11244772D01*
X12245208Y-11241000D01*
X12154792Y-11241000D01*
X12135829Y-11244772D01*
X11980000Y-11244772D01*
X11930207Y-11249676D01*
X11882328Y-11264200D01*
X11838203Y-11287786D01*
X11799527Y-11319527D01*
X11767786Y-11358203D01*
X11744200Y-11402328D01*
X11729676Y-11450207D01*
X11724772Y-11500000D01*
X11495228Y-11500000D01*
X11490324Y-11450207D01*
X11475800Y-11402328D01*
X11452214Y-11358203D01*
X11420473Y-11319527D01*
X11381797Y-11287786D01*
X11337672Y-11264200D01*
X11289793Y-11249676D01*
X11240000Y-11244772D01*
X11064171Y-11244772D01*
X11045208Y-11241000D01*
X10954792Y-11241000D01*
X10935829Y-11244772D01*
X10564171Y-11244772D01*
X10545208Y-11241000D01*
X10454792Y-11241000D01*
X10435829Y-11244772D01*
X10064171Y-11244772D01*
X10045208Y-11241000D01*
X9954792Y-11241000D01*
X9935829Y-11244772D01*
X9564171Y-11244772D01*
X9545208Y-11241000D01*
X9454792Y-11241000D01*
X9435829Y-11244772D01*
X9064171Y-11244772D01*
X9045208Y-11241000D01*
X8954792Y-11241000D01*
X8935829Y-11244772D01*
X8564171Y-11244772D01*
X8545208Y-11241000D01*
X8454792Y-11241000D01*
X8435829Y-11244772D01*
X8340000Y-11244772D01*
X8290207Y-11249676D01*
X8242328Y-11264200D01*
X8198203Y-11287786D01*
X8159527Y-11319527D01*
X8127786Y-11358203D01*
X8104200Y-11402328D01*
X8089676Y-11450207D01*
X8084772Y-11500000D01*
X8084772Y-11503023D01*
X8058639Y-11566115D01*
X8041000Y-11654792D01*
X303600Y-11654792D01*
X303600Y-3275491D01*
X634968Y-3240663D01*
X661943Y-3235126D01*
X688953Y-3229973D01*
X693001Y-3228751D01*
X693011Y-3228749D01*
X693020Y-3228745D01*
X1252325Y-3055611D01*
X1277710Y-3044940D01*
X1303203Y-3034640D01*
X1306938Y-3032654D01*
X1306948Y-3032650D01*
X1306956Y-3032645D01*
X1821978Y-2754175D01*
X1844786Y-2738791D01*
X1867816Y-2723720D01*
X1871101Y-2721041D01*
X2322234Y-2347831D01*
X2341648Y-2328282D01*
X2361283Y-2309053D01*
X2363980Y-2305793D01*
X2363986Y-2305787D01*
X2363990Y-2305780D01*
X2734037Y-1852059D01*
X2749264Y-1829141D01*
X2764810Y-1806435D01*
X2766827Y-1802706D01*
X3041701Y-1285742D01*
X3052200Y-1260270D01*
X3063026Y-1235010D01*
X3064278Y-1230967D01*
X3064281Y-1230960D01*
X3064282Y-1230953D01*
X3084772Y-1163088D01*
X3084772Y-2550000D01*
X3084772Y-2550000D01*
G37*
X3084772Y-2550000D02*
X3089676Y-2599793D01*
X3104200Y-2647672D01*
X3127786Y-2691797D01*
X3159527Y-2730473D01*
X3198203Y-2762214D01*
X3242328Y-2785800D01*
X3290207Y-2800324D01*
X3340000Y-2805228D01*
X6583099Y-2805228D01*
X6378790Y-3009537D01*
X6366237Y-3019839D01*
X6325124Y-3069936D01*
X6294574Y-3127091D01*
X6275761Y-3189108D01*
X6271000Y-3237449D01*
X6271000Y-3237458D01*
X6269410Y-3253602D01*
X6271000Y-3269746D01*
X6271001Y-5783846D01*
X6271000Y-6516153D01*
X6271001Y-6516163D01*
X6271000Y-8393856D01*
X6269410Y-8410000D01*
X6271000Y-8426144D01*
X6271000Y-8426153D01*
X6275761Y-8474494D01*
X6294574Y-8536511D01*
X6325124Y-8593666D01*
X6366237Y-8643763D01*
X6378790Y-8654065D01*
X7945944Y-10221221D01*
X7956237Y-10233763D01*
X7968779Y-10244056D01*
X7968784Y-10244061D01*
X8006333Y-10274876D01*
X8063488Y-10305426D01*
X8084772Y-10311883D01*
X8084772Y-10500000D01*
X8089676Y-10549793D01*
X8104200Y-10597672D01*
X8127786Y-10641797D01*
X8159527Y-10680473D01*
X8198203Y-10712214D01*
X8242328Y-10735800D01*
X8290207Y-10750324D01*
X8340000Y-10755228D01*
X8906103Y-10755228D01*
X8957404Y-10806529D01*
X9032582Y-10856761D01*
X9116115Y-10891361D01*
X9204792Y-10909000D01*
X9295208Y-10909000D01*
X9383885Y-10891361D01*
X9467418Y-10856761D01*
X9542596Y-10806529D01*
X9593897Y-10755228D01*
X10623118Y-10755228D01*
X10623488Y-10755426D01*
X10685505Y-10774238D01*
X10749999Y-10780590D01*
X10814494Y-10774238D01*
X10876511Y-10755426D01*
X10876881Y-10755228D01*
X11240000Y-10755228D01*
X11289793Y-10750324D01*
X11337672Y-10735800D01*
X11381797Y-10712214D01*
X11420473Y-10680473D01*
X11452214Y-10641797D01*
X11475800Y-10597672D01*
X11490324Y-10549793D01*
X11495228Y-10500000D01*
X11495228Y-9500000D01*
X11493098Y-9478373D01*
X11724772Y-9710048D01*
X11724772Y-10500000D01*
X11729676Y-10549793D01*
X11744200Y-10597672D01*
X11767786Y-10641797D01*
X11799527Y-10680473D01*
X11838203Y-10712214D01*
X11882328Y-10735800D01*
X11930207Y-10750324D01*
X11980000Y-10755228D01*
X14880000Y-10755228D01*
X14929793Y-10750324D01*
X14977672Y-10735800D01*
X15021797Y-10712214D01*
X15060473Y-10680473D01*
X15092214Y-10641797D01*
X15115800Y-10597672D01*
X15130324Y-10549793D01*
X15135228Y-10500000D01*
X15135228Y-9500000D01*
X15130324Y-9450207D01*
X15117563Y-9408141D01*
X15126512Y-9405426D01*
X15183667Y-9374876D01*
X15233763Y-9333763D01*
X15244065Y-9321210D01*
X15471216Y-9094060D01*
X15483763Y-9083763D01*
X15518562Y-9041361D01*
X15524876Y-9033668D01*
X15555426Y-8976512D01*
X15564922Y-8945208D01*
X15574239Y-8914495D01*
X15579000Y-8866154D01*
X15579000Y-8866145D01*
X15580590Y-8850001D01*
X15579000Y-8833857D01*
X15579000Y-8190125D01*
X15606529Y-8162596D01*
X15656761Y-8087418D01*
X15673000Y-8048213D01*
X15673000Y-12800000D01*
X15675440Y-12824776D01*
X15682667Y-12848601D01*
X15694403Y-12870557D01*
X15710197Y-12889803D01*
X15729443Y-12905597D01*
X15751399Y-12917333D01*
X15775224Y-12924560D01*
X15800000Y-12927000D01*
X16871000Y-12927000D01*
X16871000Y-13463724D01*
X15193725Y-15141000D01*
X15154792Y-15141000D01*
X15066115Y-15158639D01*
X14982582Y-15193239D01*
X14907404Y-15243471D01*
X14843471Y-15307404D01*
X14793239Y-15382582D01*
X14758639Y-15466115D01*
X14741000Y-15554792D01*
X14741000Y-15645208D01*
X14758639Y-15733885D01*
X14793239Y-15817418D01*
X14843471Y-15892596D01*
X14907404Y-15956529D01*
X14982582Y-16006761D01*
X15066115Y-16041361D01*
X15154792Y-16059000D01*
X15245208Y-16059000D01*
X15333885Y-16041361D01*
X15417418Y-16006761D01*
X15492596Y-15956529D01*
X15556529Y-15892596D01*
X15606761Y-15817418D01*
X15641361Y-15733885D01*
X15659000Y-15645208D01*
X15659000Y-15606275D01*
X15815275Y-15450000D01*
X16024772Y-15450000D01*
X16024772Y-17250000D01*
X16029676Y-17299793D01*
X16044200Y-17347672D01*
X16067786Y-17391797D01*
X16099527Y-17430473D01*
X16138203Y-17462214D01*
X16182328Y-17485800D01*
X16230207Y-17500324D01*
X16280000Y-17505228D01*
X19880000Y-17505228D01*
X19929793Y-17500324D01*
X19977672Y-17485800D01*
X20021797Y-17462214D01*
X20060473Y-17430473D01*
X20092214Y-17391797D01*
X20115800Y-17347672D01*
X20130324Y-17299793D01*
X20135228Y-17250000D01*
X20135228Y-15450000D01*
X20130324Y-15400207D01*
X20115800Y-15352328D01*
X20092214Y-15308203D01*
X20060473Y-15269527D01*
X20021797Y-15237786D01*
X19977672Y-15214200D01*
X19929793Y-15199676D01*
X19880000Y-15194772D01*
X16280000Y-15194772D01*
X16230207Y-15199676D01*
X16182328Y-15214200D01*
X16138203Y-15237786D01*
X16099527Y-15269527D01*
X16067786Y-15308203D01*
X16044200Y-15352328D01*
X16029676Y-15400207D01*
X16024772Y-15450000D01*
X15815275Y-15450000D01*
X17421216Y-13844060D01*
X17433763Y-13833763D01*
X17471001Y-13788389D01*
X17471001Y-14079874D01*
X17443471Y-14107404D01*
X17393239Y-14182582D01*
X17358639Y-14266115D01*
X17341000Y-14354792D01*
X17341000Y-14445208D01*
X17358639Y-14533885D01*
X17393239Y-14617418D01*
X17443471Y-14692596D01*
X17507404Y-14756529D01*
X17582582Y-14806761D01*
X17666115Y-14841361D01*
X17754792Y-14859000D01*
X17845208Y-14859000D01*
X17933885Y-14841361D01*
X17956484Y-14832000D01*
X21009772Y-14832000D01*
X21009772Y-15407000D01*
X21014676Y-15456793D01*
X21029200Y-15504672D01*
X21052786Y-15548797D01*
X21084527Y-15587473D01*
X21123203Y-15619214D01*
X21167328Y-15642800D01*
X21215207Y-15657324D01*
X21265000Y-15662228D01*
X21915000Y-15662228D01*
X21964793Y-15657324D01*
X22012672Y-15642800D01*
X22056797Y-15619214D01*
X22095473Y-15587473D01*
X22127214Y-15548797D01*
X22150800Y-15504672D01*
X22165324Y-15456793D01*
X22170228Y-15407000D01*
X22170228Y-14832000D01*
X22165324Y-14782207D01*
X22150800Y-14734328D01*
X22127214Y-14690203D01*
X22095473Y-14651527D01*
X22056797Y-14619786D01*
X22012672Y-14596200D01*
X21964793Y-14581676D01*
X21915000Y-14576772D01*
X21265000Y-14576772D01*
X21215207Y-14581676D01*
X21167328Y-14596200D01*
X21123203Y-14619786D01*
X21084527Y-14651527D01*
X21052786Y-14690203D01*
X21029200Y-14734328D01*
X21014676Y-14782207D01*
X21009772Y-14832000D01*
X17956484Y-14832000D01*
X18017418Y-14806761D01*
X18092596Y-14756529D01*
X18156529Y-14692596D01*
X18206761Y-14617418D01*
X18241361Y-14533885D01*
X18259000Y-14445208D01*
X18259000Y-14354792D01*
X18241361Y-14266115D01*
X18206761Y-14182582D01*
X18156529Y-14107404D01*
X18129000Y-14079875D01*
X18129000Y-12927000D01*
X23173000Y-12927000D01*
X23173000Y-13714772D01*
X22776000Y-13714772D01*
X22726207Y-13719676D01*
X22678328Y-13734200D01*
X22634203Y-13757786D01*
X22595527Y-13789527D01*
X22563786Y-13828203D01*
X22540200Y-13872328D01*
X22525676Y-13920207D01*
X22520772Y-13970000D01*
X22520772Y-15670000D01*
X22525676Y-15719793D01*
X22540200Y-15767672D01*
X22563786Y-15811797D01*
X22595527Y-15850473D01*
X22634203Y-15882214D01*
X22678328Y-15905800D01*
X22726207Y-15920324D01*
X22776000Y-15925228D01*
X23420772Y-15925228D01*
X23420772Y-16695000D01*
X23425676Y-16744793D01*
X23440200Y-16792672D01*
X23463786Y-16836797D01*
X23495527Y-16875473D01*
X23534203Y-16907214D01*
X23578328Y-16930800D01*
X23626207Y-16945324D01*
X23676000Y-16950228D01*
X24076000Y-16950228D01*
X24125793Y-16945324D01*
X24173672Y-16930800D01*
X24217797Y-16907214D01*
X24256473Y-16875473D01*
X24288214Y-16836797D01*
X24311800Y-16792672D01*
X24326324Y-16744793D01*
X24331228Y-16695000D01*
X24331228Y-16388349D01*
X24341361Y-16363885D01*
X24359000Y-16275208D01*
X24359000Y-16184792D01*
X24341361Y-16096115D01*
X24331228Y-16071651D01*
X24331228Y-15925228D01*
X24370772Y-15925228D01*
X24370772Y-16695000D01*
X24375676Y-16744793D01*
X24390200Y-16792672D01*
X24413786Y-16836797D01*
X24445527Y-16875473D01*
X24484203Y-16907214D01*
X24528328Y-16930800D01*
X24576207Y-16945324D01*
X24626000Y-16950228D01*
X25026000Y-16950228D01*
X25075793Y-16945324D01*
X25123672Y-16930800D01*
X25167797Y-16907214D01*
X25206473Y-16875473D01*
X25238214Y-16836797D01*
X25261800Y-16792672D01*
X25276324Y-16744793D01*
X25281228Y-16695000D01*
X25281228Y-16439000D01*
X30057772Y-16439000D01*
X30057772Y-17089000D01*
X30062676Y-17138793D01*
X30077200Y-17186672D01*
X30100786Y-17230797D01*
X30132527Y-17269473D01*
X30171203Y-17301214D01*
X30215328Y-17324800D01*
X30263207Y-17339324D01*
X30313000Y-17344228D01*
X30888000Y-17344228D01*
X30937793Y-17339324D01*
X30985672Y-17324800D01*
X30988000Y-17323556D01*
X30990328Y-17324800D01*
X31038207Y-17339324D01*
X31088000Y-17344228D01*
X31663000Y-17344228D01*
X31712793Y-17339324D01*
X31760672Y-17324800D01*
X31804797Y-17301214D01*
X31843473Y-17269473D01*
X31875214Y-17230797D01*
X31898800Y-17186672D01*
X31913324Y-17138793D01*
X31918228Y-17089000D01*
X31918228Y-16439000D01*
X31913324Y-16389207D01*
X31898800Y-16341328D01*
X31875214Y-16297203D01*
X31843473Y-16258527D01*
X31804797Y-16226786D01*
X31760672Y-16203200D01*
X31712793Y-16188676D01*
X31663000Y-16183772D01*
X31088000Y-16183772D01*
X31038207Y-16188676D01*
X30990328Y-16203200D01*
X30988000Y-16204444D01*
X30985672Y-16203200D01*
X30937793Y-16188676D01*
X30888000Y-16183772D01*
X30313000Y-16183772D01*
X30263207Y-16188676D01*
X30215328Y-16203200D01*
X30171203Y-16226786D01*
X30132527Y-16258527D01*
X30100786Y-16297203D01*
X30077200Y-16341328D01*
X30062676Y-16389207D01*
X30057772Y-16439000D01*
X25281228Y-16439000D01*
X25281228Y-15845000D01*
X25276324Y-15795207D01*
X25261800Y-15747328D01*
X25238214Y-15703203D01*
X25229057Y-15692045D01*
X25231228Y-15670000D01*
X25231228Y-14827000D01*
X25473000Y-14827000D01*
X25473000Y-14900000D01*
X25475440Y-14924776D01*
X25482667Y-14948601D01*
X25494403Y-14970557D01*
X25510197Y-14989803D01*
X25529443Y-15005597D01*
X25551399Y-15017333D01*
X25575224Y-15024560D01*
X25600000Y-15027000D01*
X26800000Y-15027000D01*
X26824776Y-15024560D01*
X26848601Y-15017333D01*
X26870557Y-15005597D01*
X26889803Y-14989803D01*
X26905597Y-14970557D01*
X26917333Y-14948601D01*
X26924560Y-14924776D01*
X26927000Y-14900000D01*
X26927000Y-14827000D01*
X30474841Y-14827000D01*
X30458639Y-14866115D01*
X30441000Y-14954792D01*
X30441000Y-15045208D01*
X30458639Y-15133885D01*
X30493239Y-15217418D01*
X30543471Y-15292596D01*
X30607404Y-15356529D01*
X30682582Y-15406761D01*
X30766115Y-15441361D01*
X30854792Y-15459000D01*
X30945208Y-15459000D01*
X31033885Y-15441361D01*
X31117418Y-15406761D01*
X31192596Y-15356529D01*
X31220125Y-15329000D01*
X31579875Y-15329000D01*
X31607404Y-15356529D01*
X31682582Y-15406761D01*
X31766115Y-15441361D01*
X31854792Y-15459000D01*
X31945208Y-15459000D01*
X32033885Y-15441361D01*
X32117418Y-15406761D01*
X32192596Y-15356529D01*
X32256529Y-15292596D01*
X32306761Y-15217418D01*
X32341361Y-15133885D01*
X32359000Y-15045208D01*
X32359000Y-14954792D01*
X32341361Y-14866115D01*
X32325159Y-14827000D01*
X32413673Y-14827000D01*
X32443471Y-14871596D01*
X32471001Y-14899126D01*
X32471000Y-15072875D01*
X32443471Y-15100404D01*
X32393239Y-15175582D01*
X32358639Y-15259115D01*
X32341000Y-15347792D01*
X32341000Y-15438208D01*
X32358639Y-15526885D01*
X32393239Y-15610418D01*
X32443471Y-15685596D01*
X32507404Y-15749529D01*
X32573000Y-15793359D01*
X32573000Y-17696400D01*
X3275491Y-17696400D01*
X3253719Y-17489256D01*
X3290207Y-17500324D01*
X3340000Y-17505228D01*
X6940000Y-17505228D01*
X6989793Y-17500324D01*
X7037672Y-17485800D01*
X7081797Y-17462214D01*
X7120473Y-17430473D01*
X7152214Y-17391797D01*
X7175800Y-17347672D01*
X7190324Y-17299793D01*
X7195228Y-17250000D01*
X7195228Y-15450000D01*
X7190324Y-15400207D01*
X7175800Y-15352328D01*
X7152214Y-15308203D01*
X7120473Y-15269527D01*
X7081797Y-15237786D01*
X7037672Y-15214200D01*
X6989793Y-15199676D01*
X6940000Y-15194772D01*
X3340000Y-15194772D01*
X3290207Y-15199676D01*
X3242328Y-15214200D01*
X3198203Y-15237786D01*
X3159527Y-15269527D01*
X3127786Y-15308203D01*
X3104200Y-15352328D01*
X3089676Y-15400207D01*
X3084772Y-15450000D01*
X3084772Y-16841879D01*
X3055611Y-16747676D01*
X3044951Y-16722316D01*
X3034640Y-16696797D01*
X3032650Y-16693054D01*
X3032650Y-16693053D01*
X3032647Y-16693049D01*
X2754174Y-16178022D01*
X2738808Y-16155241D01*
X2723720Y-16132184D01*
X2721041Y-16128899D01*
X2347831Y-15677766D01*
X2328279Y-15658350D01*
X2309053Y-15638718D01*
X2305793Y-15636020D01*
X2305787Y-15636014D01*
X2305780Y-15636010D01*
X1852059Y-15265963D01*
X1829134Y-15250732D01*
X1806435Y-15235190D01*
X1802707Y-15233173D01*
X1285742Y-14958299D01*
X1260270Y-14947800D01*
X1235010Y-14936974D01*
X1230967Y-14935722D01*
X1230960Y-14935719D01*
X1230953Y-14935718D01*
X670453Y-14766493D01*
X643479Y-14761152D01*
X616545Y-14755427D01*
X612329Y-14754984D01*
X303600Y-14724713D01*
X303600Y-11654792D01*
X8041000Y-11654792D01*
X8041000Y-11745208D01*
X8058639Y-11833885D01*
X8084772Y-11896977D01*
X8084772Y-12103023D01*
X8058639Y-12166115D01*
X8041000Y-12254792D01*
X8041000Y-12345208D01*
X8058639Y-12433885D01*
X8084772Y-12496977D01*
X8084772Y-12500000D01*
X8089676Y-12549793D01*
X8104200Y-12597672D01*
X8127786Y-12641797D01*
X8159527Y-12680473D01*
X8198203Y-12712214D01*
X8242328Y-12735800D01*
X8290207Y-12750324D01*
X8340000Y-12755228D01*
X8435829Y-12755228D01*
X8454792Y-12759000D01*
X8545208Y-12759000D01*
X8564171Y-12755228D01*
X8935829Y-12755228D01*
X8954792Y-12759000D01*
X9045208Y-12759000D01*
X9064171Y-12755228D01*
X9435829Y-12755228D01*
X9454792Y-12759000D01*
X9545208Y-12759000D01*
X9564171Y-12755228D01*
X9935829Y-12755228D01*
X9954792Y-12759000D01*
X10045208Y-12759000D01*
X10064171Y-12755228D01*
X10435829Y-12755228D01*
X10454792Y-12759000D01*
X10545208Y-12759000D01*
X10564171Y-12755228D01*
X10935829Y-12755228D01*
X10954792Y-12759000D01*
X11045208Y-12759000D01*
X11064171Y-12755228D01*
X11240000Y-12755228D01*
X11289793Y-12750324D01*
X11337672Y-12735800D01*
X11381797Y-12712214D01*
X11420473Y-12680473D01*
X11452214Y-12641797D01*
X11475800Y-12597672D01*
X11490324Y-12549793D01*
X11495228Y-12500000D01*
X11495228Y-11500000D01*
X11724772Y-11500000D01*
X11724772Y-12500000D01*
X11729676Y-12549793D01*
X11744200Y-12597672D01*
X11767786Y-12641797D01*
X11799527Y-12680473D01*
X11838203Y-12712214D01*
X11882328Y-12735800D01*
X11930207Y-12750324D01*
X11980000Y-12755228D01*
X12135829Y-12755228D01*
X12154792Y-12759000D01*
X12245208Y-12759000D01*
X12264171Y-12755228D01*
X12635829Y-12755228D01*
X12654792Y-12759000D01*
X12745208Y-12759000D01*
X12764171Y-12755228D01*
X13135829Y-12755228D01*
X13154792Y-12759000D01*
X13245208Y-12759000D01*
X13264171Y-12755228D01*
X13635829Y-12755228D01*
X13654792Y-12759000D01*
X13745208Y-12759000D01*
X13764171Y-12755228D01*
X14135829Y-12755228D01*
X14154792Y-12759000D01*
X14245208Y-12759000D01*
X14264171Y-12755228D01*
X14635829Y-12755228D01*
X14654792Y-12759000D01*
X14745208Y-12759000D01*
X14764171Y-12755228D01*
X14880000Y-12755228D01*
X14929793Y-12750324D01*
X14977672Y-12735800D01*
X15021797Y-12712214D01*
X15060473Y-12680473D01*
X15092214Y-12641797D01*
X15115800Y-12597672D01*
X15130324Y-12549793D01*
X15135228Y-12500000D01*
X15135228Y-12448692D01*
X15141361Y-12433885D01*
X15159000Y-12345208D01*
X15159000Y-12254792D01*
X15141361Y-12166115D01*
X15135228Y-12151308D01*
X15135228Y-11848692D01*
X15141361Y-11833885D01*
X15159000Y-11745208D01*
X15159000Y-11654792D01*
X15141361Y-11566115D01*
X15135228Y-11551308D01*
X15135228Y-11500000D01*
X15130324Y-11450207D01*
X15115800Y-11402328D01*
X15092214Y-11358203D01*
X15060473Y-11319527D01*
X15021797Y-11287786D01*
X14977672Y-11264200D01*
X14929793Y-11249676D01*
X14880000Y-11244772D01*
X14764171Y-11244772D01*
X14745208Y-11241000D01*
X14654792Y-11241000D01*
X14635829Y-11244772D01*
X14264171Y-11244772D01*
X14245208Y-11241000D01*
X14154792Y-11241000D01*
X14135829Y-11244772D01*
X13764171Y-11244772D01*
X13745208Y-11241000D01*
X13654792Y-11241000D01*
X13635829Y-11244772D01*
X13264171Y-11244772D01*
X13245208Y-11241000D01*
X13154792Y-11241000D01*
X13135829Y-11244772D01*
X12764171Y-11244772D01*
X12745208Y-11241000D01*
X12654792Y-11241000D01*
X12635829Y-11244772D01*
X12264171Y-11244772D01*
X12245208Y-11241000D01*
X12154792Y-11241000D01*
X12135829Y-11244772D01*
X11980000Y-11244772D01*
X11930207Y-11249676D01*
X11882328Y-11264200D01*
X11838203Y-11287786D01*
X11799527Y-11319527D01*
X11767786Y-11358203D01*
X11744200Y-11402328D01*
X11729676Y-11450207D01*
X11724772Y-11500000D01*
X11495228Y-11500000D01*
X11490324Y-11450207D01*
X11475800Y-11402328D01*
X11452214Y-11358203D01*
X11420473Y-11319527D01*
X11381797Y-11287786D01*
X11337672Y-11264200D01*
X11289793Y-11249676D01*
X11240000Y-11244772D01*
X11064171Y-11244772D01*
X11045208Y-11241000D01*
X10954792Y-11241000D01*
X10935829Y-11244772D01*
X10564171Y-11244772D01*
X10545208Y-11241000D01*
X10454792Y-11241000D01*
X10435829Y-11244772D01*
X10064171Y-11244772D01*
X10045208Y-11241000D01*
X9954792Y-11241000D01*
X9935829Y-11244772D01*
X9564171Y-11244772D01*
X9545208Y-11241000D01*
X9454792Y-11241000D01*
X9435829Y-11244772D01*
X9064171Y-11244772D01*
X9045208Y-11241000D01*
X8954792Y-11241000D01*
X8935829Y-11244772D01*
X8564171Y-11244772D01*
X8545208Y-11241000D01*
X8454792Y-11241000D01*
X8435829Y-11244772D01*
X8340000Y-11244772D01*
X8290207Y-11249676D01*
X8242328Y-11264200D01*
X8198203Y-11287786D01*
X8159527Y-11319527D01*
X8127786Y-11358203D01*
X8104200Y-11402328D01*
X8089676Y-11450207D01*
X8084772Y-11500000D01*
X8084772Y-11503023D01*
X8058639Y-11566115D01*
X8041000Y-11654792D01*
X303600Y-11654792D01*
X303600Y-3275491D01*
X634968Y-3240663D01*
X661943Y-3235126D01*
X688953Y-3229973D01*
X693001Y-3228751D01*
X693011Y-3228749D01*
X693020Y-3228745D01*
X1252325Y-3055611D01*
X1277710Y-3044940D01*
X1303203Y-3034640D01*
X1306938Y-3032654D01*
X1306948Y-3032650D01*
X1306956Y-3032645D01*
X1821978Y-2754175D01*
X1844786Y-2738791D01*
X1867816Y-2723720D01*
X1871101Y-2721041D01*
X2322234Y-2347831D01*
X2341648Y-2328282D01*
X2361283Y-2309053D01*
X2363980Y-2305793D01*
X2363986Y-2305787D01*
X2363990Y-2305780D01*
X2734037Y-1852059D01*
X2749264Y-1829141D01*
X2764810Y-1806435D01*
X2766827Y-1802706D01*
X3041701Y-1285742D01*
X3052200Y-1260270D01*
X3063026Y-1235010D01*
X3064278Y-1230967D01*
X3064281Y-1230960D01*
X3064282Y-1230953D01*
X3084772Y-1163088D01*
X3084772Y-2550000D01*
G36*
X15569585Y-3476761D02*
X15653118Y-3511361D01*
X15673000Y-3515316D01*
X15673000Y-6471000D01*
X15529000Y-6471000D01*
X15529000Y-5216143D01*
X15530590Y-5199999D01*
X15529000Y-5183855D01*
X15529000Y-5183846D01*
X15524239Y-5135505D01*
X15505426Y-5073488D01*
X15474876Y-5016333D01*
X15433763Y-4966237D01*
X15421211Y-4955936D01*
X15344065Y-4878790D01*
X15333763Y-4866237D01*
X15283667Y-4825124D01*
X15226512Y-4794574D01*
X15164495Y-4775761D01*
X15116154Y-4771000D01*
X15116144Y-4771000D01*
X15100000Y-4769410D01*
X15083856Y-4771000D01*
X13120125Y-4771000D01*
X13104353Y-4755228D01*
X14880000Y-4755228D01*
X14929793Y-4750324D01*
X14977672Y-4735800D01*
X15021797Y-4712214D01*
X15060473Y-4680473D01*
X15092214Y-4641797D01*
X15115800Y-4597672D01*
X15130324Y-4549793D01*
X15135228Y-4500000D01*
X15135228Y-3515163D01*
X15204792Y-3529000D01*
X15295208Y-3529000D01*
X15383885Y-3511361D01*
X15467418Y-3476761D01*
X15518502Y-3442628D01*
X15569585Y-3476761D01*
X15569585Y-3476761D01*
G37*
X15569585Y-3476761D02*
X15653118Y-3511361D01*
X15673000Y-3515316D01*
X15673000Y-6471000D01*
X15529000Y-6471000D01*
X15529000Y-5216143D01*
X15530590Y-5199999D01*
X15529000Y-5183855D01*
X15529000Y-5183846D01*
X15524239Y-5135505D01*
X15505426Y-5073488D01*
X15474876Y-5016333D01*
X15433763Y-4966237D01*
X15421211Y-4955936D01*
X15344065Y-4878790D01*
X15333763Y-4866237D01*
X15283667Y-4825124D01*
X15226512Y-4794574D01*
X15164495Y-4775761D01*
X15116154Y-4771000D01*
X15116144Y-4771000D01*
X15100000Y-4769410D01*
X15083856Y-4771000D01*
X13120125Y-4771000D01*
X13104353Y-4755228D01*
X14880000Y-4755228D01*
X14929793Y-4750324D01*
X14977672Y-4735800D01*
X15021797Y-4712214D01*
X15060473Y-4680473D01*
X15092214Y-4641797D01*
X15115800Y-4597672D01*
X15130324Y-4549793D01*
X15135228Y-4500000D01*
X15135228Y-3515163D01*
X15204792Y-3529000D01*
X15295208Y-3529000D01*
X15383885Y-3511361D01*
X15467418Y-3476761D01*
X15518502Y-3442628D01*
X15569585Y-3476761D01*
G36*
X29573728Y-362076D02*
X29523496Y-437254D01*
X29488896Y-520787D01*
X29477516Y-578000D01*
X29120125Y-578000D01*
X29092596Y-550471D01*
X29017418Y-500239D01*
X28933885Y-465639D01*
X28845208Y-448000D01*
X28754792Y-448000D01*
X28666115Y-465639D01*
X28582582Y-500239D01*
X28507404Y-550471D01*
X28443471Y-614404D01*
X28393239Y-689582D01*
X28358639Y-773115D01*
X28341000Y-861792D01*
X28341000Y-952208D01*
X28358639Y-1040885D01*
X28393239Y-1124418D01*
X28443471Y-1199596D01*
X28507404Y-1263529D01*
X28582582Y-1313761D01*
X28666115Y-1348361D01*
X28754792Y-1366000D01*
X28845208Y-1366000D01*
X28933885Y-1348361D01*
X29017418Y-1313761D01*
X29092596Y-1263529D01*
X29120125Y-1236000D01*
X29175272Y-1236000D01*
X29175272Y-1849000D01*
X29180176Y-1898793D01*
X29194700Y-1946672D01*
X29218286Y-1990797D01*
X29250027Y-2029473D01*
X29288703Y-2061214D01*
X29332828Y-2084800D01*
X29380707Y-2099324D01*
X29430500Y-2104228D01*
X30005500Y-2104228D01*
X30055293Y-2099324D01*
X30103172Y-2084800D01*
X30105500Y-2083556D01*
X30107828Y-2084800D01*
X30155707Y-2099324D01*
X30205500Y-2104228D01*
X30780500Y-2104228D01*
X30830293Y-2099324D01*
X30878172Y-2084800D01*
X30922297Y-2061214D01*
X30960973Y-2029473D01*
X30992714Y-1990797D01*
X31016300Y-1946672D01*
X31030824Y-1898793D01*
X31035728Y-1849000D01*
X31035728Y-1681008D01*
X31043471Y-1692596D01*
X31107404Y-1756529D01*
X31182582Y-1806761D01*
X31266115Y-1841361D01*
X31354792Y-1859000D01*
X31445208Y-1859000D01*
X31533885Y-1841361D01*
X31617418Y-1806761D01*
X31692596Y-1756529D01*
X31756529Y-1692596D01*
X31806761Y-1617418D01*
X31841361Y-1533885D01*
X31859000Y-1445208D01*
X31859000Y-1354792D01*
X31841361Y-1266115D01*
X31806761Y-1182582D01*
X31797121Y-1168154D01*
X32143277Y-821999D01*
X33357872Y-821999D01*
X34194970Y-3173000D01*
X32341313Y-3173000D01*
X32306761Y-3089582D01*
X32256529Y-3014404D01*
X32229000Y-2986875D01*
X32229000Y-2813125D01*
X32256529Y-2785596D01*
X32306761Y-2710418D01*
X32341361Y-2626885D01*
X32359000Y-2538208D01*
X32359000Y-2447792D01*
X32341361Y-2359115D01*
X32306761Y-2275582D01*
X32256529Y-2200404D01*
X32192596Y-2136471D01*
X32117418Y-2086239D01*
X32033885Y-2051639D01*
X31945208Y-2034000D01*
X31854792Y-2034000D01*
X31766115Y-2051639D01*
X31682582Y-2086239D01*
X31607404Y-2136471D01*
X31543471Y-2200404D01*
X31493239Y-2275582D01*
X31458639Y-2359115D01*
X31441000Y-2447792D01*
X31441000Y-2538208D01*
X31458639Y-2626885D01*
X31493239Y-2710418D01*
X31543471Y-2785596D01*
X31571001Y-2813126D01*
X31571000Y-2986875D01*
X31543471Y-3014404D01*
X31493239Y-3089582D01*
X31458687Y-3173000D01*
X31216623Y-3173000D01*
X31253761Y-3117418D01*
X31288361Y-3033885D01*
X31306000Y-2945208D01*
X31306000Y-2854792D01*
X31288361Y-2766115D01*
X31253761Y-2682582D01*
X31203529Y-2607404D01*
X31139596Y-2543471D01*
X31064418Y-2493239D01*
X30980885Y-2458639D01*
X30892208Y-2441000D01*
X30801792Y-2441000D01*
X30713115Y-2458639D01*
X30629582Y-2493239D01*
X30554404Y-2543471D01*
X30526875Y-2571000D01*
X27016143Y-2571000D01*
X26999999Y-2569410D01*
X26983855Y-2571000D01*
X26983846Y-2571000D01*
X26935505Y-2575761D01*
X26873488Y-2594574D01*
X26836241Y-2614483D01*
X26816332Y-2625124D01*
X26794351Y-2643164D01*
X26766237Y-2666237D01*
X26755939Y-2678785D01*
X26078790Y-3355935D01*
X26066237Y-3366237D01*
X26025124Y-3416334D01*
X25994574Y-3473489D01*
X25975761Y-3535506D01*
X25971000Y-3583847D01*
X25971000Y-3583856D01*
X25969410Y-3600000D01*
X25971000Y-3616144D01*
X25971000Y-4373000D01*
X15527000Y-4373000D01*
X15527000Y-3674792D01*
X17941000Y-3674792D01*
X17941000Y-3765208D01*
X17958639Y-3853885D01*
X17993239Y-3937418D01*
X18043471Y-4012596D01*
X18107404Y-4076529D01*
X18182582Y-4126761D01*
X18266115Y-4161361D01*
X18354792Y-4179000D01*
X18445208Y-4179000D01*
X18533885Y-4161361D01*
X18617418Y-4126761D01*
X18692596Y-4076529D01*
X18756529Y-4012596D01*
X18806761Y-3937418D01*
X18841361Y-3853885D01*
X18859000Y-3765208D01*
X18859000Y-3674792D01*
X18841361Y-3586115D01*
X18806761Y-3502582D01*
X18756529Y-3427404D01*
X18692596Y-3363471D01*
X18617418Y-3313239D01*
X18533885Y-3278639D01*
X18445208Y-3261000D01*
X18354792Y-3261000D01*
X18266115Y-3278639D01*
X18182582Y-3313239D01*
X18107404Y-3363471D01*
X18043471Y-3427404D01*
X17993239Y-3502582D01*
X17958639Y-3586115D01*
X17941000Y-3674792D01*
X15527000Y-3674792D01*
X15527000Y-3448306D01*
X15569585Y-3476761D01*
X15653118Y-3511361D01*
X15741795Y-3529000D01*
X15832211Y-3529000D01*
X15920888Y-3511361D01*
X16004421Y-3476761D01*
X16079599Y-3426529D01*
X16143532Y-3362596D01*
X16193764Y-3287418D01*
X16228364Y-3203885D01*
X16246003Y-3115208D01*
X16246003Y-3024792D01*
X16228364Y-2936115D01*
X16193764Y-2852582D01*
X16143532Y-2777404D01*
X16116003Y-2749875D01*
X16116003Y-2743995D01*
X16138203Y-2762214D01*
X16182328Y-2785800D01*
X16230207Y-2800324D01*
X16280000Y-2805228D01*
X19880000Y-2805228D01*
X19929793Y-2800324D01*
X19977672Y-2785800D01*
X20021797Y-2762214D01*
X20060473Y-2730473D01*
X20092214Y-2691797D01*
X20115800Y-2647672D01*
X20130324Y-2599793D01*
X20135228Y-2550000D01*
X20135228Y-2052721D01*
X20166794Y-2059000D01*
X20257210Y-2059000D01*
X20345887Y-2041361D01*
X20429420Y-2006761D01*
X20504598Y-1956529D01*
X20568531Y-1892596D01*
X20618763Y-1817418D01*
X20653363Y-1733885D01*
X20671002Y-1645208D01*
X20671002Y-1554792D01*
X20653363Y-1466115D01*
X20618763Y-1382582D01*
X20568531Y-1307404D01*
X20541002Y-1279875D01*
X20541002Y-1024273D01*
X20606275Y-959000D01*
X20645208Y-959000D01*
X20733885Y-941361D01*
X20817418Y-906761D01*
X20892596Y-856529D01*
X20956529Y-792596D01*
X21006761Y-717418D01*
X21041361Y-633885D01*
X21059000Y-545208D01*
X21059000Y-454792D01*
X21041361Y-366115D01*
X21025822Y-328600D01*
X29607204Y-328600D01*
X29573728Y-362076D01*
X29573728Y-362076D01*
G37*
X29573728Y-362076D02*
X29523496Y-437254D01*
X29488896Y-520787D01*
X29477516Y-578000D01*
X29120125Y-578000D01*
X29092596Y-550471D01*
X29017418Y-500239D01*
X28933885Y-465639D01*
X28845208Y-448000D01*
X28754792Y-448000D01*
X28666115Y-465639D01*
X28582582Y-500239D01*
X28507404Y-550471D01*
X28443471Y-614404D01*
X28393239Y-689582D01*
X28358639Y-773115D01*
X28341000Y-861792D01*
X28341000Y-952208D01*
X28358639Y-1040885D01*
X28393239Y-1124418D01*
X28443471Y-1199596D01*
X28507404Y-1263529D01*
X28582582Y-1313761D01*
X28666115Y-1348361D01*
X28754792Y-1366000D01*
X28845208Y-1366000D01*
X28933885Y-1348361D01*
X29017418Y-1313761D01*
X29092596Y-1263529D01*
X29120125Y-1236000D01*
X29175272Y-1236000D01*
X29175272Y-1849000D01*
X29180176Y-1898793D01*
X29194700Y-1946672D01*
X29218286Y-1990797D01*
X29250027Y-2029473D01*
X29288703Y-2061214D01*
X29332828Y-2084800D01*
X29380707Y-2099324D01*
X29430500Y-2104228D01*
X30005500Y-2104228D01*
X30055293Y-2099324D01*
X30103172Y-2084800D01*
X30105500Y-2083556D01*
X30107828Y-2084800D01*
X30155707Y-2099324D01*
X30205500Y-2104228D01*
X30780500Y-2104228D01*
X30830293Y-2099324D01*
X30878172Y-2084800D01*
X30922297Y-2061214D01*
X30960973Y-2029473D01*
X30992714Y-1990797D01*
X31016300Y-1946672D01*
X31030824Y-1898793D01*
X31035728Y-1849000D01*
X31035728Y-1681008D01*
X31043471Y-1692596D01*
X31107404Y-1756529D01*
X31182582Y-1806761D01*
X31266115Y-1841361D01*
X31354792Y-1859000D01*
X31445208Y-1859000D01*
X31533885Y-1841361D01*
X31617418Y-1806761D01*
X31692596Y-1756529D01*
X31756529Y-1692596D01*
X31806761Y-1617418D01*
X31841361Y-1533885D01*
X31859000Y-1445208D01*
X31859000Y-1354792D01*
X31841361Y-1266115D01*
X31806761Y-1182582D01*
X31797121Y-1168154D01*
X32143277Y-821999D01*
X33357872Y-821999D01*
X34194970Y-3173000D01*
X32341313Y-3173000D01*
X32306761Y-3089582D01*
X32256529Y-3014404D01*
X32229000Y-2986875D01*
X32229000Y-2813125D01*
X32256529Y-2785596D01*
X32306761Y-2710418D01*
X32341361Y-2626885D01*
X32359000Y-2538208D01*
X32359000Y-2447792D01*
X32341361Y-2359115D01*
X32306761Y-2275582D01*
X32256529Y-2200404D01*
X32192596Y-2136471D01*
X32117418Y-2086239D01*
X32033885Y-2051639D01*
X31945208Y-2034000D01*
X31854792Y-2034000D01*
X31766115Y-2051639D01*
X31682582Y-2086239D01*
X31607404Y-2136471D01*
X31543471Y-2200404D01*
X31493239Y-2275582D01*
X31458639Y-2359115D01*
X31441000Y-2447792D01*
X31441000Y-2538208D01*
X31458639Y-2626885D01*
X31493239Y-2710418D01*
X31543471Y-2785596D01*
X31571001Y-2813126D01*
X31571000Y-2986875D01*
X31543471Y-3014404D01*
X31493239Y-3089582D01*
X31458687Y-3173000D01*
X31216623Y-3173000D01*
X31253761Y-3117418D01*
X31288361Y-3033885D01*
X31306000Y-2945208D01*
X31306000Y-2854792D01*
X31288361Y-2766115D01*
X31253761Y-2682582D01*
X31203529Y-2607404D01*
X31139596Y-2543471D01*
X31064418Y-2493239D01*
X30980885Y-2458639D01*
X30892208Y-2441000D01*
X30801792Y-2441000D01*
X30713115Y-2458639D01*
X30629582Y-2493239D01*
X30554404Y-2543471D01*
X30526875Y-2571000D01*
X27016143Y-2571000D01*
X26999999Y-2569410D01*
X26983855Y-2571000D01*
X26983846Y-2571000D01*
X26935505Y-2575761D01*
X26873488Y-2594574D01*
X26836241Y-2614483D01*
X26816332Y-2625124D01*
X26794351Y-2643164D01*
X26766237Y-2666237D01*
X26755939Y-2678785D01*
X26078790Y-3355935D01*
X26066237Y-3366237D01*
X26025124Y-3416334D01*
X25994574Y-3473489D01*
X25975761Y-3535506D01*
X25971000Y-3583847D01*
X25971000Y-3583856D01*
X25969410Y-3600000D01*
X25971000Y-3616144D01*
X25971000Y-4373000D01*
X15527000Y-4373000D01*
X15527000Y-3674792D01*
X17941000Y-3674792D01*
X17941000Y-3765208D01*
X17958639Y-3853885D01*
X17993239Y-3937418D01*
X18043471Y-4012596D01*
X18107404Y-4076529D01*
X18182582Y-4126761D01*
X18266115Y-4161361D01*
X18354792Y-4179000D01*
X18445208Y-4179000D01*
X18533885Y-4161361D01*
X18617418Y-4126761D01*
X18692596Y-4076529D01*
X18756529Y-4012596D01*
X18806761Y-3937418D01*
X18841361Y-3853885D01*
X18859000Y-3765208D01*
X18859000Y-3674792D01*
X18841361Y-3586115D01*
X18806761Y-3502582D01*
X18756529Y-3427404D01*
X18692596Y-3363471D01*
X18617418Y-3313239D01*
X18533885Y-3278639D01*
X18445208Y-3261000D01*
X18354792Y-3261000D01*
X18266115Y-3278639D01*
X18182582Y-3313239D01*
X18107404Y-3363471D01*
X18043471Y-3427404D01*
X17993239Y-3502582D01*
X17958639Y-3586115D01*
X17941000Y-3674792D01*
X15527000Y-3674792D01*
X15527000Y-3448306D01*
X15569585Y-3476761D01*
X15653118Y-3511361D01*
X15741795Y-3529000D01*
X15832211Y-3529000D01*
X15920888Y-3511361D01*
X16004421Y-3476761D01*
X16079599Y-3426529D01*
X16143532Y-3362596D01*
X16193764Y-3287418D01*
X16228364Y-3203885D01*
X16246003Y-3115208D01*
X16246003Y-3024792D01*
X16228364Y-2936115D01*
X16193764Y-2852582D01*
X16143532Y-2777404D01*
X16116003Y-2749875D01*
X16116003Y-2743995D01*
X16138203Y-2762214D01*
X16182328Y-2785800D01*
X16230207Y-2800324D01*
X16280000Y-2805228D01*
X19880000Y-2805228D01*
X19929793Y-2800324D01*
X19977672Y-2785800D01*
X20021797Y-2762214D01*
X20060473Y-2730473D01*
X20092214Y-2691797D01*
X20115800Y-2647672D01*
X20130324Y-2599793D01*
X20135228Y-2550000D01*
X20135228Y-2052721D01*
X20166794Y-2059000D01*
X20257210Y-2059000D01*
X20345887Y-2041361D01*
X20429420Y-2006761D01*
X20504598Y-1956529D01*
X20568531Y-1892596D01*
X20618763Y-1817418D01*
X20653363Y-1733885D01*
X20671002Y-1645208D01*
X20671002Y-1554792D01*
X20653363Y-1466115D01*
X20618763Y-1382582D01*
X20568531Y-1307404D01*
X20541002Y-1279875D01*
X20541002Y-1024273D01*
X20606275Y-959000D01*
X20645208Y-959000D01*
X20733885Y-941361D01*
X20817418Y-906761D01*
X20892596Y-856529D01*
X20956529Y-792596D01*
X21006761Y-717418D01*
X21041361Y-633885D01*
X21059000Y-545208D01*
X21059000Y-454792D01*
X21041361Y-366115D01*
X21025822Y-328600D01*
X29607204Y-328600D01*
X29573728Y-362076D01*
G04 #@! TO.N,GND*
G36*
X28659772Y-6500000D02*
X28664676Y-6549793D01*
X28679200Y-6597672D01*
X28702786Y-6641797D01*
X28734527Y-6680473D01*
X28773203Y-6712214D01*
X28817328Y-6735800D01*
X28865207Y-6750324D01*
X28915000Y-6755228D01*
X29965000Y-6755228D01*
X30014793Y-6750324D01*
X30062672Y-6735800D01*
X30106797Y-6712214D01*
X30145473Y-6680473D01*
X30177214Y-6641797D01*
X30200800Y-6597672D01*
X30215324Y-6549793D01*
X30220228Y-6500000D01*
X30220228Y-6027000D01*
X32173000Y-6027000D01*
X32173000Y-11973000D01*
X26927000Y-11973000D01*
X26927000Y-9100000D01*
X28659772Y-9100000D01*
X28659772Y-9700000D01*
X28664676Y-9749793D01*
X28679200Y-9797672D01*
X28702786Y-9841797D01*
X28734527Y-9880473D01*
X28773203Y-9912214D01*
X28817328Y-9935800D01*
X28865207Y-9950324D01*
X28915000Y-9955228D01*
X29965000Y-9955228D01*
X30014793Y-9950324D01*
X30062672Y-9935800D01*
X30106797Y-9912214D01*
X30145473Y-9880473D01*
X30177214Y-9841797D01*
X30200800Y-9797672D01*
X30215324Y-9749793D01*
X30220228Y-9700000D01*
X30220228Y-9100000D01*
X30215324Y-9050207D01*
X30200800Y-9002328D01*
X30177214Y-8958203D01*
X30145473Y-8919527D01*
X30106797Y-8887786D01*
X30062672Y-8864200D01*
X30014793Y-8849676D01*
X29965000Y-8844772D01*
X28915000Y-8844772D01*
X28865207Y-8849676D01*
X28817328Y-8864200D01*
X28773203Y-8887786D01*
X28734527Y-8919527D01*
X28702786Y-8958203D01*
X28679200Y-9002328D01*
X28664676Y-9050207D01*
X28659772Y-9100000D01*
X26927000Y-9100000D01*
X26927000Y-6027000D01*
X28659772Y-6027000D01*
X28659772Y-6500000D01*
X28659772Y-6500000D01*
G37*
X28659772Y-6500000D02*
X28664676Y-6549793D01*
X28679200Y-6597672D01*
X28702786Y-6641797D01*
X28734527Y-6680473D01*
X28773203Y-6712214D01*
X28817328Y-6735800D01*
X28865207Y-6750324D01*
X28915000Y-6755228D01*
X29965000Y-6755228D01*
X30014793Y-6750324D01*
X30062672Y-6735800D01*
X30106797Y-6712214D01*
X30145473Y-6680473D01*
X30177214Y-6641797D01*
X30200800Y-6597672D01*
X30215324Y-6549793D01*
X30220228Y-6500000D01*
X30220228Y-6027000D01*
X32173000Y-6027000D01*
X32173000Y-11973000D01*
X26927000Y-11973000D01*
X26927000Y-9100000D01*
X28659772Y-9100000D01*
X28659772Y-9700000D01*
X28664676Y-9749793D01*
X28679200Y-9797672D01*
X28702786Y-9841797D01*
X28734527Y-9880473D01*
X28773203Y-9912214D01*
X28817328Y-9935800D01*
X28865207Y-9950324D01*
X28915000Y-9955228D01*
X29965000Y-9955228D01*
X30014793Y-9950324D01*
X30062672Y-9935800D01*
X30106797Y-9912214D01*
X30145473Y-9880473D01*
X30177214Y-9841797D01*
X30200800Y-9797672D01*
X30215324Y-9749793D01*
X30220228Y-9700000D01*
X30220228Y-9100000D01*
X30215324Y-9050207D01*
X30200800Y-9002328D01*
X30177214Y-8958203D01*
X30145473Y-8919527D01*
X30106797Y-8887786D01*
X30062672Y-8864200D01*
X30014793Y-8849676D01*
X29965000Y-8844772D01*
X28915000Y-8844772D01*
X28865207Y-8849676D01*
X28817328Y-8864200D01*
X28773203Y-8887786D01*
X28734527Y-8919527D01*
X28702786Y-8958203D01*
X28679200Y-9002328D01*
X28664676Y-9050207D01*
X28659772Y-9100000D01*
X26927000Y-9100000D01*
X26927000Y-6027000D01*
X28659772Y-6027000D01*
X28659772Y-6500000D01*
G04 #@! TO.N,+BATT*
G36*
X34378001Y-840914D02*
X34378001Y-1190857D01*
X34376411Y-1207001D01*
X34378001Y-1223145D01*
X34378001Y-1223154D01*
X34382762Y-1271495D01*
X34401575Y-1333512D01*
X34432125Y-1390667D01*
X34473238Y-1440764D01*
X34485791Y-1451066D01*
X34971000Y-1936276D01*
X34971000Y-2116153D01*
X34971001Y-2116163D01*
X34971001Y-2457666D01*
X34925207Y-2462176D01*
X34877328Y-2476700D01*
X34833203Y-2500286D01*
X34794527Y-2532027D01*
X34762786Y-2570703D01*
X34739200Y-2614828D01*
X34724676Y-2662707D01*
X34719772Y-2712500D01*
X34719772Y-3287500D01*
X34724676Y-3337293D01*
X34739200Y-3385172D01*
X34740444Y-3387500D01*
X34739200Y-3389828D01*
X34724676Y-3437707D01*
X34719772Y-3487500D01*
X34719772Y-4062500D01*
X34724676Y-4112293D01*
X34739200Y-4160172D01*
X34762786Y-4204297D01*
X34794527Y-4242973D01*
X34833203Y-4274714D01*
X34877328Y-4298300D01*
X34925207Y-4312824D01*
X34971000Y-4317334D01*
X34971000Y-4371643D01*
X34940207Y-4374676D01*
X34892328Y-4389200D01*
X34848203Y-4412786D01*
X34809527Y-4444527D01*
X34777786Y-4483203D01*
X34754200Y-4527328D01*
X34739676Y-4575207D01*
X34734772Y-4625000D01*
X34734772Y-5675000D01*
X34739676Y-5724793D01*
X34754200Y-5772672D01*
X34777786Y-5816797D01*
X34809527Y-5855473D01*
X34848203Y-5887214D01*
X34892328Y-5910800D01*
X34940207Y-5925324D01*
X34990000Y-5930228D01*
X35590000Y-5930228D01*
X35639793Y-5925324D01*
X35687672Y-5910800D01*
X35690000Y-5909556D01*
X35692328Y-5910800D01*
X35740207Y-5925324D01*
X35790000Y-5930228D01*
X36359772Y-5930228D01*
X36359772Y-6500000D01*
X36364676Y-6549793D01*
X36379200Y-6597672D01*
X36380444Y-6600000D01*
X36379200Y-6602328D01*
X36364676Y-6650207D01*
X36359772Y-6700000D01*
X36359772Y-7300000D01*
X36364676Y-7349793D01*
X36379200Y-7397672D01*
X36402786Y-7441797D01*
X36434527Y-7480473D01*
X36473203Y-7512214D01*
X36517328Y-7535800D01*
X36565207Y-7550324D01*
X36615000Y-7555228D01*
X37665000Y-7555228D01*
X37696400Y-7552135D01*
X37696400Y-8047865D01*
X37665000Y-8044772D01*
X36615000Y-8044772D01*
X36565207Y-8049676D01*
X36517328Y-8064200D01*
X36473203Y-8087786D01*
X36434527Y-8119527D01*
X36402786Y-8158203D01*
X36379200Y-8202328D01*
X36364676Y-8250207D01*
X36359772Y-8300000D01*
X36359772Y-8900000D01*
X36364676Y-8949793D01*
X36379200Y-8997672D01*
X36402786Y-9041797D01*
X36434527Y-9080473D01*
X36473203Y-9112214D01*
X36517328Y-9135800D01*
X36565207Y-9150324D01*
X36615000Y-9155228D01*
X37665000Y-9155228D01*
X37696401Y-9152135D01*
X37696401Y-9647865D01*
X37665000Y-9644772D01*
X36615000Y-9644772D01*
X36565207Y-9649676D01*
X36517328Y-9664200D01*
X36473203Y-9687786D01*
X36434527Y-9719527D01*
X36402786Y-9758203D01*
X36379200Y-9802328D01*
X36364676Y-9850207D01*
X36359772Y-9900000D01*
X36359772Y-10500000D01*
X36364676Y-10549793D01*
X36379200Y-10597672D01*
X36380444Y-10600000D01*
X36379200Y-10602328D01*
X36364676Y-10650207D01*
X36359772Y-10700000D01*
X36359772Y-11300000D01*
X36364676Y-11349793D01*
X36379200Y-11397672D01*
X36380444Y-11400000D01*
X36379200Y-11402328D01*
X36364676Y-11450207D01*
X36359772Y-11500000D01*
X36359772Y-12069772D01*
X35790000Y-12069772D01*
X35740207Y-12074676D01*
X35692328Y-12089200D01*
X35648203Y-12112786D01*
X35609527Y-12144527D01*
X35577786Y-12183203D01*
X35554200Y-12227328D01*
X35539676Y-12275207D01*
X35534772Y-12325000D01*
X35534772Y-13375000D01*
X35539676Y-13424793D01*
X35554200Y-13472672D01*
X35569639Y-13501555D01*
X35568286Y-13503203D01*
X35544700Y-13547328D01*
X35530176Y-13595207D01*
X35525272Y-13645000D01*
X35525272Y-14295000D01*
X35530176Y-14344793D01*
X35544700Y-14392672D01*
X35568286Y-14436797D01*
X35600027Y-14475473D01*
X35638703Y-14507214D01*
X35682828Y-14530800D01*
X35730707Y-14545324D01*
X35780500Y-14550228D01*
X36355500Y-14550228D01*
X36405293Y-14545324D01*
X36453172Y-14530800D01*
X36497297Y-14507214D01*
X36535973Y-14475473D01*
X36567714Y-14436797D01*
X36591300Y-14392672D01*
X36605824Y-14344793D01*
X36610728Y-14295000D01*
X36610728Y-13645000D01*
X36605824Y-13595207D01*
X36591300Y-13547328D01*
X36585722Y-13536892D01*
X36602214Y-13516797D01*
X36625800Y-13472672D01*
X36640324Y-13424793D01*
X36645228Y-13375000D01*
X36645228Y-12355228D01*
X36828118Y-12355228D01*
X36834574Y-12376511D01*
X36838304Y-12383489D01*
X36865125Y-12433667D01*
X36906238Y-12483763D01*
X36918785Y-12494060D01*
X37071000Y-12646276D01*
X37071001Y-14063723D01*
X36308190Y-14826535D01*
X36078274Y-14971000D01*
X35716144Y-14971000D01*
X35700000Y-14969410D01*
X35683856Y-14971000D01*
X35683846Y-14971000D01*
X35635505Y-14975761D01*
X35573488Y-14994574D01*
X35516333Y-15025124D01*
X35466237Y-15066237D01*
X35455939Y-15078785D01*
X34921634Y-15613090D01*
X34894918Y-15595239D01*
X34811385Y-15560639D01*
X34722708Y-15543000D01*
X34632292Y-15543000D01*
X34543615Y-15560639D01*
X34460082Y-15595239D01*
X34384904Y-15645471D01*
X34320971Y-15709404D01*
X34270739Y-15784582D01*
X34236139Y-15868115D01*
X34218500Y-15956792D01*
X34218500Y-16047208D01*
X34236139Y-16135885D01*
X34270739Y-16219418D01*
X34320971Y-16294596D01*
X34384904Y-16358529D01*
X34460082Y-16408761D01*
X34543615Y-16443361D01*
X34632292Y-16461000D01*
X34722708Y-16461000D01*
X34811385Y-16443361D01*
X34894918Y-16408761D01*
X34970096Y-16358529D01*
X34996211Y-16332414D01*
X34998000Y-16332590D01*
X35014144Y-16331000D01*
X35014154Y-16331000D01*
X35062495Y-16326239D01*
X35124512Y-16307426D01*
X35181667Y-16276876D01*
X35197974Y-16263493D01*
X34958299Y-16714258D01*
X34947800Y-16739730D01*
X34936974Y-16764990D01*
X34935722Y-16769033D01*
X34935719Y-16769040D01*
X34935718Y-16769047D01*
X34766493Y-17329547D01*
X34761152Y-17356521D01*
X34755427Y-17383455D01*
X34754984Y-17387671D01*
X34724713Y-17696400D01*
X32627000Y-17696400D01*
X32627000Y-15818159D01*
X32666115Y-15834361D01*
X32754792Y-15852000D01*
X32845208Y-15852000D01*
X32933885Y-15834361D01*
X33017418Y-15799761D01*
X33092596Y-15749529D01*
X33156529Y-15685596D01*
X33206761Y-15610418D01*
X33241361Y-15526885D01*
X33259000Y-15438208D01*
X33259000Y-15347792D01*
X33241361Y-15259115D01*
X33206761Y-15175582D01*
X33156529Y-15100404D01*
X33129000Y-15072875D01*
X33129000Y-14899125D01*
X33156529Y-14871596D01*
X33177169Y-14840706D01*
X34972435Y-14876974D01*
X34997256Y-14875035D01*
X35021221Y-14868290D01*
X35043410Y-14857000D01*
X35062970Y-14841598D01*
X35079150Y-14822676D01*
X35091327Y-14800961D01*
X35099034Y-14777287D01*
X35102000Y-14750000D01*
X35102000Y-12025000D01*
X35099560Y-12000224D01*
X35092333Y-11976399D01*
X35080597Y-11954443D01*
X35064803Y-11935197D01*
X35045557Y-11919403D01*
X35023601Y-11907667D01*
X34999776Y-11900440D01*
X34975000Y-11898000D01*
X32477000Y-11898000D01*
X32477000Y-11855228D01*
X35890000Y-11855228D01*
X35939793Y-11850324D01*
X35987672Y-11835800D01*
X36031797Y-11812214D01*
X36070473Y-11780473D01*
X36102214Y-11741797D01*
X36125800Y-11697672D01*
X36140324Y-11649793D01*
X36145228Y-11600000D01*
X36145228Y-6400000D01*
X36140324Y-6350207D01*
X36125800Y-6302328D01*
X36102214Y-6258203D01*
X36070473Y-6219527D01*
X36031797Y-6187786D01*
X35987672Y-6164200D01*
X35939793Y-6149676D01*
X35890000Y-6144772D01*
X32477000Y-6144772D01*
X32477000Y-6052000D01*
X34150000Y-6052000D01*
X34174776Y-6049560D01*
X34198601Y-6042333D01*
X34220557Y-6030597D01*
X34239803Y-6014803D01*
X34255597Y-5995557D01*
X34267333Y-5973601D01*
X34274534Y-5949907D01*
X34299534Y-5824907D01*
X34302000Y-5800000D01*
X34302000Y-3300000D01*
X34299560Y-3275224D01*
X34292333Y-3251399D01*
X34280597Y-3229443D01*
X34264803Y-3210197D01*
X34245557Y-3194403D01*
X34223601Y-3182667D01*
X34199776Y-3175440D01*
X34175000Y-3173000D01*
X32626034Y-3173000D01*
X32608087Y-821999D01*
X34359086Y-821999D01*
X34378001Y-840914D01*
X34378001Y-840914D01*
G37*
X34378001Y-840914D02*
X34378001Y-1190857D01*
X34376411Y-1207001D01*
X34378001Y-1223145D01*
X34378001Y-1223154D01*
X34382762Y-1271495D01*
X34401575Y-1333512D01*
X34432125Y-1390667D01*
X34473238Y-1440764D01*
X34485791Y-1451066D01*
X34971000Y-1936276D01*
X34971000Y-2116153D01*
X34971001Y-2116163D01*
X34971001Y-2457666D01*
X34925207Y-2462176D01*
X34877328Y-2476700D01*
X34833203Y-2500286D01*
X34794527Y-2532027D01*
X34762786Y-2570703D01*
X34739200Y-2614828D01*
X34724676Y-2662707D01*
X34719772Y-2712500D01*
X34719772Y-3287500D01*
X34724676Y-3337293D01*
X34739200Y-3385172D01*
X34740444Y-3387500D01*
X34739200Y-3389828D01*
X34724676Y-3437707D01*
X34719772Y-3487500D01*
X34719772Y-4062500D01*
X34724676Y-4112293D01*
X34739200Y-4160172D01*
X34762786Y-4204297D01*
X34794527Y-4242973D01*
X34833203Y-4274714D01*
X34877328Y-4298300D01*
X34925207Y-4312824D01*
X34971000Y-4317334D01*
X34971000Y-4371643D01*
X34940207Y-4374676D01*
X34892328Y-4389200D01*
X34848203Y-4412786D01*
X34809527Y-4444527D01*
X34777786Y-4483203D01*
X34754200Y-4527328D01*
X34739676Y-4575207D01*
X34734772Y-4625000D01*
X34734772Y-5675000D01*
X34739676Y-5724793D01*
X34754200Y-5772672D01*
X34777786Y-5816797D01*
X34809527Y-5855473D01*
X34848203Y-5887214D01*
X34892328Y-5910800D01*
X34940207Y-5925324D01*
X34990000Y-5930228D01*
X35590000Y-5930228D01*
X35639793Y-5925324D01*
X35687672Y-5910800D01*
X35690000Y-5909556D01*
X35692328Y-5910800D01*
X35740207Y-5925324D01*
X35790000Y-5930228D01*
X36359772Y-5930228D01*
X36359772Y-6500000D01*
X36364676Y-6549793D01*
X36379200Y-6597672D01*
X36380444Y-6600000D01*
X36379200Y-6602328D01*
X36364676Y-6650207D01*
X36359772Y-6700000D01*
X36359772Y-7300000D01*
X36364676Y-7349793D01*
X36379200Y-7397672D01*
X36402786Y-7441797D01*
X36434527Y-7480473D01*
X36473203Y-7512214D01*
X36517328Y-7535800D01*
X36565207Y-7550324D01*
X36615000Y-7555228D01*
X37665000Y-7555228D01*
X37696400Y-7552135D01*
X37696400Y-8047865D01*
X37665000Y-8044772D01*
X36615000Y-8044772D01*
X36565207Y-8049676D01*
X36517328Y-8064200D01*
X36473203Y-8087786D01*
X36434527Y-8119527D01*
X36402786Y-8158203D01*
X36379200Y-8202328D01*
X36364676Y-8250207D01*
X36359772Y-8300000D01*
X36359772Y-8900000D01*
X36364676Y-8949793D01*
X36379200Y-8997672D01*
X36402786Y-9041797D01*
X36434527Y-9080473D01*
X36473203Y-9112214D01*
X36517328Y-9135800D01*
X36565207Y-9150324D01*
X36615000Y-9155228D01*
X37665000Y-9155228D01*
X37696401Y-9152135D01*
X37696401Y-9647865D01*
X37665000Y-9644772D01*
X36615000Y-9644772D01*
X36565207Y-9649676D01*
X36517328Y-9664200D01*
X36473203Y-9687786D01*
X36434527Y-9719527D01*
X36402786Y-9758203D01*
X36379200Y-9802328D01*
X36364676Y-9850207D01*
X36359772Y-9900000D01*
X36359772Y-10500000D01*
X36364676Y-10549793D01*
X36379200Y-10597672D01*
X36380444Y-10600000D01*
X36379200Y-10602328D01*
X36364676Y-10650207D01*
X36359772Y-10700000D01*
X36359772Y-11300000D01*
X36364676Y-11349793D01*
X36379200Y-11397672D01*
X36380444Y-11400000D01*
X36379200Y-11402328D01*
X36364676Y-11450207D01*
X36359772Y-11500000D01*
X36359772Y-12069772D01*
X35790000Y-12069772D01*
X35740207Y-12074676D01*
X35692328Y-12089200D01*
X35648203Y-12112786D01*
X35609527Y-12144527D01*
X35577786Y-12183203D01*
X35554200Y-12227328D01*
X35539676Y-12275207D01*
X35534772Y-12325000D01*
X35534772Y-13375000D01*
X35539676Y-13424793D01*
X35554200Y-13472672D01*
X35569639Y-13501555D01*
X35568286Y-13503203D01*
X35544700Y-13547328D01*
X35530176Y-13595207D01*
X35525272Y-13645000D01*
X35525272Y-14295000D01*
X35530176Y-14344793D01*
X35544700Y-14392672D01*
X35568286Y-14436797D01*
X35600027Y-14475473D01*
X35638703Y-14507214D01*
X35682828Y-14530800D01*
X35730707Y-14545324D01*
X35780500Y-14550228D01*
X36355500Y-14550228D01*
X36405293Y-14545324D01*
X36453172Y-14530800D01*
X36497297Y-14507214D01*
X36535973Y-14475473D01*
X36567714Y-14436797D01*
X36591300Y-14392672D01*
X36605824Y-14344793D01*
X36610728Y-14295000D01*
X36610728Y-13645000D01*
X36605824Y-13595207D01*
X36591300Y-13547328D01*
X36585722Y-13536892D01*
X36602214Y-13516797D01*
X36625800Y-13472672D01*
X36640324Y-13424793D01*
X36645228Y-13375000D01*
X36645228Y-12355228D01*
X36828118Y-12355228D01*
X36834574Y-12376511D01*
X36838304Y-12383489D01*
X36865125Y-12433667D01*
X36906238Y-12483763D01*
X36918785Y-12494060D01*
X37071000Y-12646276D01*
X37071001Y-14063723D01*
X36308190Y-14826535D01*
X36078274Y-14971000D01*
X35716144Y-14971000D01*
X35700000Y-14969410D01*
X35683856Y-14971000D01*
X35683846Y-14971000D01*
X35635505Y-14975761D01*
X35573488Y-14994574D01*
X35516333Y-15025124D01*
X35466237Y-15066237D01*
X35455939Y-15078785D01*
X34921634Y-15613090D01*
X34894918Y-15595239D01*
X34811385Y-15560639D01*
X34722708Y-15543000D01*
X34632292Y-15543000D01*
X34543615Y-15560639D01*
X34460082Y-15595239D01*
X34384904Y-15645471D01*
X34320971Y-15709404D01*
X34270739Y-15784582D01*
X34236139Y-15868115D01*
X34218500Y-15956792D01*
X34218500Y-16047208D01*
X34236139Y-16135885D01*
X34270739Y-16219418D01*
X34320971Y-16294596D01*
X34384904Y-16358529D01*
X34460082Y-16408761D01*
X34543615Y-16443361D01*
X34632292Y-16461000D01*
X34722708Y-16461000D01*
X34811385Y-16443361D01*
X34894918Y-16408761D01*
X34970096Y-16358529D01*
X34996211Y-16332414D01*
X34998000Y-16332590D01*
X35014144Y-16331000D01*
X35014154Y-16331000D01*
X35062495Y-16326239D01*
X35124512Y-16307426D01*
X35181667Y-16276876D01*
X35197974Y-16263493D01*
X34958299Y-16714258D01*
X34947800Y-16739730D01*
X34936974Y-16764990D01*
X34935722Y-16769033D01*
X34935719Y-16769040D01*
X34935718Y-16769047D01*
X34766493Y-17329547D01*
X34761152Y-17356521D01*
X34755427Y-17383455D01*
X34754984Y-17387671D01*
X34724713Y-17696400D01*
X32627000Y-17696400D01*
X32627000Y-15818159D01*
X32666115Y-15834361D01*
X32754792Y-15852000D01*
X32845208Y-15852000D01*
X32933885Y-15834361D01*
X33017418Y-15799761D01*
X33092596Y-15749529D01*
X33156529Y-15685596D01*
X33206761Y-15610418D01*
X33241361Y-15526885D01*
X33259000Y-15438208D01*
X33259000Y-15347792D01*
X33241361Y-15259115D01*
X33206761Y-15175582D01*
X33156529Y-15100404D01*
X33129000Y-15072875D01*
X33129000Y-14899125D01*
X33156529Y-14871596D01*
X33177169Y-14840706D01*
X34972435Y-14876974D01*
X34997256Y-14875035D01*
X35021221Y-14868290D01*
X35043410Y-14857000D01*
X35062970Y-14841598D01*
X35079150Y-14822676D01*
X35091327Y-14800961D01*
X35099034Y-14777287D01*
X35102000Y-14750000D01*
X35102000Y-12025000D01*
X35099560Y-12000224D01*
X35092333Y-11976399D01*
X35080597Y-11954443D01*
X35064803Y-11935197D01*
X35045557Y-11919403D01*
X35023601Y-11907667D01*
X34999776Y-11900440D01*
X34975000Y-11898000D01*
X32477000Y-11898000D01*
X32477000Y-11855228D01*
X35890000Y-11855228D01*
X35939793Y-11850324D01*
X35987672Y-11835800D01*
X36031797Y-11812214D01*
X36070473Y-11780473D01*
X36102214Y-11741797D01*
X36125800Y-11697672D01*
X36140324Y-11649793D01*
X36145228Y-11600000D01*
X36145228Y-6400000D01*
X36140324Y-6350207D01*
X36125800Y-6302328D01*
X36102214Y-6258203D01*
X36070473Y-6219527D01*
X36031797Y-6187786D01*
X35987672Y-6164200D01*
X35939793Y-6149676D01*
X35890000Y-6144772D01*
X32477000Y-6144772D01*
X32477000Y-6052000D01*
X34150000Y-6052000D01*
X34174776Y-6049560D01*
X34198601Y-6042333D01*
X34220557Y-6030597D01*
X34239803Y-6014803D01*
X34255597Y-5995557D01*
X34267333Y-5973601D01*
X34274534Y-5949907D01*
X34299534Y-5824907D01*
X34302000Y-5800000D01*
X34302000Y-3300000D01*
X34299560Y-3275224D01*
X34292333Y-3251399D01*
X34280597Y-3229443D01*
X34264803Y-3210197D01*
X34245557Y-3194403D01*
X34223601Y-3182667D01*
X34199776Y-3175440D01*
X34175000Y-3173000D01*
X32626034Y-3173000D01*
X32608087Y-821999D01*
X34359086Y-821999D01*
X34378001Y-840914D01*
G04 #@! TD*
M02*
