G04 #@! TF.GenerationSoftware,KiCad,Pcbnew,5.0.0-rc2-be01b52~65~ubuntu16.04.1*
G04 #@! TF.CreationDate,2018-07-13T18:02:19-04:00*
G04 #@! TF.ProjectId,motor controller,6D6F746F7220636F6E74726F6C6C6572,rev?*
G04 #@! TF.SameCoordinates,Original*
G04 #@! TF.FileFunction,Soldermask,Top*
G04 #@! TF.FilePolarity,Negative*
%FSLAX46Y46*%
G04 Gerber Fmt 4.6, Leading zero omitted, Abs format (unit mm)*
G04 Created by KiCad (PCBNEW 5.0.0-rc2-be01b52~65~ubuntu16.04.1) date Fri Jul 13 18:02:19 2018*
%MOMM*%
%LPD*%
G01*
G04 APERTURE LIST*
%ADD10C,0.100000*%
G04 APERTURE END LIST*
D10*
G36*
X19981600Y-17351600D02*
X16178400Y-17351600D01*
X16178400Y-15348400D01*
X19981600Y-15348400D01*
X19981600Y-17351600D01*
X19981600Y-17351600D01*
G37*
G36*
X7041600Y-17351600D02*
X3238400Y-17351600D01*
X3238400Y-15348400D01*
X7041600Y-15348400D01*
X7041600Y-17351600D01*
X7041600Y-17351600D01*
G37*
G36*
X31764600Y-17190600D02*
X30211400Y-17190600D01*
X30211400Y-16337400D01*
X31764600Y-16337400D01*
X31764600Y-17190600D01*
X31764600Y-17190600D01*
G37*
G36*
X23227600Y-13817600D02*
X23228576Y-13827511D01*
X23231467Y-13837040D01*
X23236161Y-13845823D01*
X23242479Y-13853521D01*
X23250177Y-13859839D01*
X23258960Y-13864533D01*
X23268489Y-13867424D01*
X23278400Y-13868400D01*
X23523600Y-13868400D01*
X23533511Y-13867424D01*
X23543040Y-13864533D01*
X23551823Y-13859839D01*
X23559521Y-13853521D01*
X23565839Y-13845823D01*
X23570533Y-13837040D01*
X23573424Y-13827511D01*
X23574400Y-13817600D01*
X23574400Y-12843400D01*
X24177600Y-12843400D01*
X24177600Y-13817600D01*
X24178576Y-13827511D01*
X24181467Y-13837040D01*
X24186161Y-13845823D01*
X24192479Y-13853521D01*
X24200177Y-13859839D01*
X24208960Y-13864533D01*
X24218489Y-13867424D01*
X24228400Y-13868400D01*
X24473600Y-13868400D01*
X24483511Y-13867424D01*
X24493040Y-13864533D01*
X24501823Y-13859839D01*
X24509521Y-13853521D01*
X24515839Y-13845823D01*
X24520533Y-13837040D01*
X24523424Y-13827511D01*
X24524400Y-13817600D01*
X24524400Y-12843400D01*
X25127600Y-12843400D01*
X25127600Y-13896679D01*
X25118489Y-13897576D01*
X25108960Y-13900467D01*
X25100177Y-13905161D01*
X25092479Y-13911479D01*
X25086161Y-13919177D01*
X25081467Y-13927960D01*
X25078576Y-13937489D01*
X25077600Y-13947400D01*
X25077600Y-15692600D01*
X25078576Y-15702511D01*
X25081467Y-15712040D01*
X25086161Y-15720823D01*
X25092479Y-15728521D01*
X25100177Y-15734839D01*
X25108960Y-15739533D01*
X25118489Y-15742424D01*
X25127600Y-15743321D01*
X25127600Y-16796600D01*
X24524400Y-16796600D01*
X24524400Y-15822400D01*
X24523424Y-15812489D01*
X24520533Y-15802960D01*
X24515839Y-15794177D01*
X24509521Y-15786479D01*
X24501823Y-15780161D01*
X24493040Y-15775467D01*
X24483511Y-15772576D01*
X24473600Y-15771600D01*
X24228400Y-15771600D01*
X24218489Y-15772576D01*
X24208960Y-15775467D01*
X24200177Y-15780161D01*
X24192479Y-15786479D01*
X24186161Y-15794177D01*
X24181467Y-15802960D01*
X24178576Y-15812489D01*
X24177600Y-15822400D01*
X24177600Y-16796600D01*
X23574400Y-16796600D01*
X23574400Y-15822400D01*
X23573424Y-15812489D01*
X23570533Y-15802960D01*
X23565839Y-15794177D01*
X23559521Y-15786479D01*
X23551823Y-15780161D01*
X23543040Y-15775467D01*
X23533511Y-15772576D01*
X23523600Y-15771600D01*
X23278400Y-15771600D01*
X23268489Y-15772576D01*
X23258960Y-15775467D01*
X23250177Y-15780161D01*
X23242479Y-15786479D01*
X23236161Y-15794177D01*
X23231467Y-15802960D01*
X23228576Y-15812489D01*
X23227600Y-15822400D01*
X23227600Y-16796600D01*
X22624400Y-16796600D01*
X22624400Y-15743321D01*
X22633511Y-15742424D01*
X22643040Y-15739533D01*
X22651823Y-15734839D01*
X22659521Y-15728521D01*
X22665839Y-15720823D01*
X22670533Y-15712040D01*
X22673424Y-15702511D01*
X22674400Y-15692600D01*
X22674400Y-13947400D01*
X22673424Y-13937489D01*
X22670533Y-13927960D01*
X22665839Y-13919177D01*
X22659521Y-13911479D01*
X22651823Y-13905161D01*
X22643040Y-13900467D01*
X22633511Y-13897576D01*
X22624400Y-13896679D01*
X22624400Y-12843400D01*
X23227600Y-12843400D01*
X23227600Y-13817600D01*
X23227600Y-13817600D01*
G37*
G36*
X22016600Y-15508600D02*
X21163400Y-15508600D01*
X21163400Y-13955400D01*
X22016600Y-13955400D01*
X22016600Y-15508600D01*
X22016600Y-15508600D01*
G37*
G36*
X26588600Y-14746600D02*
X25735400Y-14746600D01*
X25735400Y-13193400D01*
X26588600Y-13193400D01*
X26588600Y-14746600D01*
X26588600Y-14746600D01*
G37*
G36*
X14981600Y-14601600D02*
X11878400Y-14601600D01*
X11878400Y-13398400D01*
X14981600Y-13398400D01*
X14981600Y-14601600D01*
X14981600Y-14601600D01*
G37*
G36*
X11341600Y-14601600D02*
X8238400Y-14601600D01*
X8238400Y-13398400D01*
X11341600Y-13398400D01*
X11341600Y-14601600D01*
X11341600Y-14601600D01*
G37*
G36*
X36491600Y-5747600D02*
X36492576Y-5757511D01*
X36495467Y-5767040D01*
X36500161Y-5775823D01*
X36506479Y-5783521D01*
X36514177Y-5789839D01*
X36522960Y-5794533D01*
X36532489Y-5797424D01*
X36542400Y-5798400D01*
X37766600Y-5798400D01*
X37766600Y-12201600D01*
X36542400Y-12201600D01*
X36532489Y-12202576D01*
X36522960Y-12205467D01*
X36514177Y-12210161D01*
X36506479Y-12216479D01*
X36500161Y-12224177D01*
X36495467Y-12232960D01*
X36492576Y-12242489D01*
X36491600Y-12252400D01*
X36491600Y-13479514D01*
X36488460Y-13480467D01*
X36479677Y-13485161D01*
X36471979Y-13491479D01*
X36465661Y-13499177D01*
X36460967Y-13507960D01*
X36458076Y-13517489D01*
X36457100Y-13527400D01*
X36457100Y-14396600D01*
X34903900Y-14396600D01*
X34903900Y-13527400D01*
X34902924Y-13517489D01*
X34900033Y-13507960D01*
X34895339Y-13499177D01*
X34889021Y-13491479D01*
X34881323Y-13485161D01*
X34872540Y-13480467D01*
X34863011Y-13477576D01*
X34853100Y-13476600D01*
X30088400Y-13476600D01*
X30088400Y-12252400D01*
X30087424Y-12242489D01*
X30084533Y-12232960D01*
X30079839Y-12224177D01*
X30073521Y-12216479D01*
X30065823Y-12210161D01*
X30057040Y-12205467D01*
X30047511Y-12202576D01*
X30037600Y-12201600D01*
X28813400Y-12201600D01*
X28813400Y-5827400D01*
X30066600Y-5827400D01*
X30066600Y-12172600D01*
X30067576Y-12182511D01*
X30070467Y-12192040D01*
X30075161Y-12200823D01*
X30081479Y-12208521D01*
X30089177Y-12214839D01*
X30097960Y-12219533D01*
X30107489Y-12222424D01*
X30117400Y-12223400D01*
X36462600Y-12223400D01*
X36472511Y-12222424D01*
X36482040Y-12219533D01*
X36490823Y-12214839D01*
X36498521Y-12208521D01*
X36504839Y-12200823D01*
X36509533Y-12192040D01*
X36512424Y-12182511D01*
X36513400Y-12172600D01*
X36513400Y-5827400D01*
X36512424Y-5817489D01*
X36509533Y-5807960D01*
X36504839Y-5799177D01*
X36498521Y-5791479D01*
X36490823Y-5785161D01*
X36482040Y-5780467D01*
X36472511Y-5777576D01*
X36462600Y-5776600D01*
X30117400Y-5776600D01*
X30107489Y-5777576D01*
X30097960Y-5780467D01*
X30089177Y-5785161D01*
X30081479Y-5791479D01*
X30075161Y-5799177D01*
X30070467Y-5807960D01*
X30067576Y-5817489D01*
X30066600Y-5827400D01*
X28813400Y-5827400D01*
X28813400Y-5798400D01*
X30037600Y-5798400D01*
X30047511Y-5797424D01*
X30057040Y-5794533D01*
X30065823Y-5789839D01*
X30073521Y-5783521D01*
X30079839Y-5775823D01*
X30084533Y-5767040D01*
X30087424Y-5757511D01*
X30088400Y-5747600D01*
X30088400Y-4523400D01*
X36491600Y-4523400D01*
X36491600Y-5747600D01*
X36491600Y-5747600D01*
G37*
G36*
X35991600Y-11701600D02*
X30588400Y-11701600D01*
X30588400Y-6298400D01*
X35991600Y-6298400D01*
X35991600Y-11701600D01*
X35991600Y-11701600D01*
G37*
G36*
X28251903Y-12569587D02*
X28409068Y-12634687D01*
X28550513Y-12729198D01*
X28670802Y-12849487D01*
X28765313Y-12990932D01*
X28830413Y-13148097D01*
X28863600Y-13314943D01*
X28863600Y-13485057D01*
X28830413Y-13651903D01*
X28765313Y-13809068D01*
X28670802Y-13950513D01*
X28550513Y-14070802D01*
X28409068Y-14165313D01*
X28251903Y-14230413D01*
X28085057Y-14263600D01*
X27914943Y-14263600D01*
X27748097Y-14230413D01*
X27590932Y-14165313D01*
X27449487Y-14070802D01*
X27329198Y-13950513D01*
X27234687Y-13809068D01*
X27169587Y-13651903D01*
X27136400Y-13485057D01*
X27136400Y-13314943D01*
X27169587Y-13148097D01*
X27234687Y-12990932D01*
X27329198Y-12849487D01*
X27449487Y-12729198D01*
X27590932Y-12634687D01*
X27748097Y-12569587D01*
X27914943Y-12536400D01*
X28085057Y-12536400D01*
X28251903Y-12569587D01*
X28251903Y-12569587D01*
G37*
G36*
X14981600Y-12601600D02*
X11878400Y-12601600D01*
X11878400Y-11398400D01*
X14981600Y-11398400D01*
X14981600Y-12601600D01*
X14981600Y-12601600D01*
G37*
G36*
X11341600Y-12601600D02*
X8238400Y-12601600D01*
X8238400Y-11398400D01*
X11341600Y-11398400D01*
X11341600Y-12601600D01*
X11341600Y-12601600D01*
G37*
G36*
X11341600Y-10601600D02*
X8238400Y-10601600D01*
X8238400Y-9398400D01*
X11341600Y-9398400D01*
X11341600Y-10601600D01*
X11341600Y-10601600D01*
G37*
G36*
X14981600Y-10601600D02*
X11878400Y-10601600D01*
X11878400Y-9398400D01*
X14981600Y-9398400D01*
X14981600Y-10601600D01*
X14981600Y-10601600D01*
G37*
G36*
X21678727Y-6204211D02*
X21754429Y-6227175D01*
X21824196Y-6264466D01*
X21885348Y-6314652D01*
X21935534Y-6375804D01*
X21972825Y-6445571D01*
X21995789Y-6521273D01*
X22003543Y-6600000D01*
X21995789Y-6678727D01*
X21972825Y-6754429D01*
X21935534Y-6824196D01*
X21885348Y-6885348D01*
X21854410Y-6910738D01*
X21847375Y-6917773D01*
X21841842Y-6926053D01*
X21838031Y-6935254D01*
X21836089Y-6945021D01*
X21836089Y-6954979D01*
X21838031Y-6964746D01*
X21841842Y-6973947D01*
X21847375Y-6982227D01*
X21854410Y-6989262D01*
X21885348Y-7014652D01*
X21935534Y-7075804D01*
X21972825Y-7145571D01*
X21995789Y-7221273D01*
X22003543Y-7300000D01*
X21995789Y-7378727D01*
X21972825Y-7454429D01*
X21935534Y-7524196D01*
X21885348Y-7585348D01*
X21854410Y-7610738D01*
X21847375Y-7617773D01*
X21841842Y-7626053D01*
X21838031Y-7635254D01*
X21836089Y-7645021D01*
X21836089Y-7654979D01*
X21838031Y-7664746D01*
X21841842Y-7673947D01*
X21847375Y-7682227D01*
X21854410Y-7689262D01*
X21885348Y-7714652D01*
X21935534Y-7775804D01*
X21972825Y-7845571D01*
X21995789Y-7921273D01*
X22003543Y-8000000D01*
X21995789Y-8078727D01*
X21972825Y-8154429D01*
X21935534Y-8224196D01*
X21885348Y-8285348D01*
X21854410Y-8310738D01*
X21847375Y-8317773D01*
X21841842Y-8326053D01*
X21838031Y-8335254D01*
X21836089Y-8345021D01*
X21836089Y-8354979D01*
X21838031Y-8364746D01*
X21841842Y-8373947D01*
X21847375Y-8382227D01*
X21854410Y-8389262D01*
X21885348Y-8414652D01*
X21935534Y-8475804D01*
X21972825Y-8545571D01*
X21995789Y-8621273D01*
X22003543Y-8700000D01*
X21995789Y-8778727D01*
X21972825Y-8854429D01*
X21935534Y-8924196D01*
X21885348Y-8985348D01*
X21824196Y-9035534D01*
X21754429Y-9072825D01*
X21678727Y-9095789D01*
X21619727Y-9101600D01*
X21180273Y-9101600D01*
X21121273Y-9095789D01*
X21045571Y-9072825D01*
X20975804Y-9035534D01*
X20914652Y-8985348D01*
X20864466Y-8924196D01*
X20827175Y-8854429D01*
X20804211Y-8778727D01*
X20796457Y-8700000D01*
X20804211Y-8621273D01*
X20827175Y-8545571D01*
X20864466Y-8475804D01*
X20914652Y-8414652D01*
X20945590Y-8389262D01*
X20952625Y-8382227D01*
X20958158Y-8373947D01*
X20961969Y-8364746D01*
X20963911Y-8354979D01*
X20963911Y-8345021D01*
X20961969Y-8335254D01*
X20958158Y-8326053D01*
X20952625Y-8317773D01*
X20945590Y-8310738D01*
X20914652Y-8285348D01*
X20864466Y-8224196D01*
X20827175Y-8154429D01*
X20804211Y-8078727D01*
X20796457Y-8000000D01*
X20804211Y-7921273D01*
X20827175Y-7845571D01*
X20864466Y-7775804D01*
X20914652Y-7714652D01*
X20945590Y-7689262D01*
X20952625Y-7682227D01*
X20958158Y-7673947D01*
X20961969Y-7664746D01*
X20963911Y-7654979D01*
X20963911Y-7645021D01*
X20961969Y-7635254D01*
X20958158Y-7626053D01*
X20952625Y-7617773D01*
X20945590Y-7610738D01*
X20914652Y-7585348D01*
X20864466Y-7524196D01*
X20827175Y-7454429D01*
X20804211Y-7378727D01*
X20796457Y-7300000D01*
X20804211Y-7221273D01*
X20827175Y-7145571D01*
X20864466Y-7075804D01*
X20914652Y-7014652D01*
X20945590Y-6989262D01*
X20952625Y-6982227D01*
X20958158Y-6973947D01*
X20961969Y-6964746D01*
X20963911Y-6954979D01*
X20963911Y-6945021D01*
X20961969Y-6935254D01*
X20958158Y-6926053D01*
X20952625Y-6917773D01*
X20945590Y-6910738D01*
X20914652Y-6885348D01*
X20864466Y-6824196D01*
X20827175Y-6754429D01*
X20804211Y-6678727D01*
X20796457Y-6600000D01*
X20804211Y-6521273D01*
X20827175Y-6445571D01*
X20864466Y-6375804D01*
X20914652Y-6314652D01*
X20975804Y-6264466D01*
X21045571Y-6227175D01*
X21121273Y-6204211D01*
X21180273Y-6198400D01*
X21619727Y-6198400D01*
X21678727Y-6204211D01*
X21678727Y-6204211D01*
G37*
G36*
X11341600Y-8601600D02*
X8238400Y-8601600D01*
X8238400Y-7398400D01*
X11341600Y-7398400D01*
X11341600Y-8601600D01*
X11341600Y-8601600D01*
G37*
G36*
X14981600Y-8601600D02*
X11878400Y-8601600D01*
X11878400Y-7398400D01*
X14981600Y-7398400D01*
X14981600Y-8601600D01*
X14981600Y-8601600D01*
G37*
G36*
X11341600Y-6601600D02*
X8238400Y-6601600D01*
X8238400Y-5398400D01*
X11341600Y-5398400D01*
X11341600Y-6601600D01*
X11341600Y-6601600D01*
G37*
G36*
X14981600Y-6601600D02*
X11878400Y-6601600D01*
X11878400Y-5398400D01*
X14981600Y-5398400D01*
X14981600Y-6601600D01*
X14981600Y-6601600D01*
G37*
G36*
X28251903Y-3769587D02*
X28409068Y-3834687D01*
X28550513Y-3929198D01*
X28670802Y-4049487D01*
X28765313Y-4190932D01*
X28830413Y-4348097D01*
X28863600Y-4514943D01*
X28863600Y-4685057D01*
X28830413Y-4851903D01*
X28765313Y-5009068D01*
X28670802Y-5150513D01*
X28550513Y-5270802D01*
X28409068Y-5365313D01*
X28251903Y-5430413D01*
X28085057Y-5463600D01*
X27914943Y-5463600D01*
X27748097Y-5430413D01*
X27590932Y-5365313D01*
X27449487Y-5270802D01*
X27329198Y-5150513D01*
X27234687Y-5009068D01*
X27169587Y-4851903D01*
X27136400Y-4685057D01*
X27136400Y-4514943D01*
X27169587Y-4348097D01*
X27234687Y-4190932D01*
X27329198Y-4049487D01*
X27449487Y-3929198D01*
X27590932Y-3834687D01*
X27748097Y-3769587D01*
X27914943Y-3736400D01*
X28085057Y-3736400D01*
X28251903Y-3769587D01*
X28251903Y-3769587D01*
G37*
G36*
X11341600Y-4601600D02*
X8238400Y-4601600D01*
X8238400Y-3398400D01*
X11341600Y-3398400D01*
X11341600Y-4601600D01*
X11341600Y-4601600D01*
G37*
G36*
X14981600Y-4601600D02*
X11878400Y-4601600D01*
X11878400Y-3398400D01*
X14981600Y-3398400D01*
X14981600Y-4601600D01*
X14981600Y-4601600D01*
G37*
G36*
X35726600Y-3322600D02*
X35727576Y-3332511D01*
X35730467Y-3342040D01*
X35735161Y-3350823D01*
X35741479Y-3358521D01*
X35749177Y-3364839D01*
X35757960Y-3369533D01*
X35767489Y-3372424D01*
X35777400Y-3373400D01*
X37364100Y-3373400D01*
X37364100Y-4226600D01*
X35810900Y-4226600D01*
X35810900Y-4214900D01*
X35809924Y-4204989D01*
X35807033Y-4195460D01*
X35802339Y-4186677D01*
X35796021Y-4178979D01*
X35788323Y-4172661D01*
X35779540Y-4167967D01*
X35770011Y-4165076D01*
X35760100Y-4164100D01*
X34873400Y-4164100D01*
X34873400Y-2610900D01*
X35726600Y-2610900D01*
X35726600Y-3322600D01*
X35726600Y-3322600D01*
G37*
G36*
X7041600Y-2651600D02*
X3238400Y-2651600D01*
X3238400Y-648400D01*
X7041600Y-648400D01*
X7041600Y-2651600D01*
X7041600Y-2651600D01*
G37*
G36*
X19981600Y-2651600D02*
X16178400Y-2651600D01*
X16178400Y-648400D01*
X19981600Y-648400D01*
X19981600Y-2651600D01*
X19981600Y-2651600D01*
G37*
G36*
X30882100Y-1950600D02*
X29328900Y-1950600D01*
X29328900Y-1097400D01*
X30882100Y-1097400D01*
X30882100Y-1950600D01*
X30882100Y-1950600D01*
G37*
M02*
