G04 #@! TF.GenerationSoftware,KiCad,Pcbnew,5.0.0-fee4fd1~66~ubuntu16.04.1*
G04 #@! TF.CreationDate,2018-08-08T21:48:41-04:00*
G04 #@! TF.ProjectId,motor controller,6D6F746F7220636F6E74726F6C6C6572,rev?*
G04 #@! TF.SameCoordinates,Original*
G04 #@! TF.FileFunction,Soldermask,Bot*
G04 #@! TF.FilePolarity,Negative*
%FSLAX46Y46*%
G04 Gerber Fmt 4.6, Leading zero omitted, Abs format (unit mm)*
G04 Created by KiCad (PCBNEW 5.0.0-fee4fd1~66~ubuntu16.04.1) date Wed Aug  8 21:48:41 2018*
%MOMM*%
%LPD*%
G01*
G04 APERTURE LIST*
%ADD10C,0.100000*%
G04 APERTURE END LIST*
D10*
G36*
X35066600Y-16428600D02*
X33513400Y-16428600D01*
X33513400Y-15575400D01*
X35066600Y-15575400D01*
X35066600Y-16428600D01*
X35066600Y-16428600D01*
G37*
G36*
X35066600Y-15412600D02*
X33513400Y-15412600D01*
X33513400Y-14559400D01*
X35066600Y-14559400D01*
X35066600Y-15412600D01*
X35066600Y-15412600D01*
G37*
G36*
X14741600Y-15301600D02*
X12738400Y-15301600D01*
X12738400Y-13878400D01*
X14741600Y-13878400D01*
X14741600Y-15301600D01*
X14741600Y-15301600D01*
G37*
G36*
X28777573Y-12484970D02*
X28950749Y-12556702D01*
X28950751Y-12556703D01*
X29028680Y-12608773D01*
X29106611Y-12660845D01*
X29239155Y-12793389D01*
X29343298Y-12949251D01*
X29415030Y-13122427D01*
X29451600Y-13306276D01*
X29451600Y-13493724D01*
X29415030Y-13677573D01*
X29343298Y-13850749D01*
X29343297Y-13850751D01*
X29291226Y-13928680D01*
X29239155Y-14006611D01*
X29106611Y-14139155D01*
X29028680Y-14191227D01*
X28950751Y-14243297D01*
X28950750Y-14243298D01*
X28950749Y-14243298D01*
X28777573Y-14315030D01*
X28593724Y-14351600D01*
X28406276Y-14351600D01*
X28222427Y-14315030D01*
X28049251Y-14243298D01*
X28049250Y-14243298D01*
X28049249Y-14243297D01*
X27971320Y-14191227D01*
X27893389Y-14139155D01*
X27760845Y-14006611D01*
X27708774Y-13928680D01*
X27656703Y-13850751D01*
X27656702Y-13850749D01*
X27584970Y-13677573D01*
X27548400Y-13493724D01*
X27548400Y-13306276D01*
X27584970Y-13122427D01*
X27656702Y-12949251D01*
X27760845Y-12793389D01*
X27893389Y-12660845D01*
X27971320Y-12608773D01*
X28049249Y-12556703D01*
X28049251Y-12556702D01*
X28222427Y-12484970D01*
X28406276Y-12448400D01*
X28593724Y-12448400D01*
X28777573Y-12484970D01*
X28777573Y-12484970D01*
G37*
G36*
X15920600Y-13864100D02*
X15067400Y-13864100D01*
X15067400Y-12310900D01*
X15920600Y-12310900D01*
X15920600Y-13864100D01*
X15920600Y-13864100D01*
G37*
G36*
X14741600Y-12441600D02*
X12738400Y-12441600D01*
X12738400Y-11018400D01*
X14741600Y-11018400D01*
X14741600Y-12441600D01*
X14741600Y-12441600D01*
G37*
G36*
X9476600Y-7972600D02*
X9477576Y-7982511D01*
X9480467Y-7992040D01*
X9485161Y-8000823D01*
X9491479Y-8008521D01*
X9499177Y-8014839D01*
X9507960Y-8019533D01*
X9517489Y-8022424D01*
X9527400Y-8023400D01*
X10401600Y-8023400D01*
X10401600Y-9976600D01*
X9527400Y-9976600D01*
X9517489Y-9977576D01*
X9507960Y-9980467D01*
X9499177Y-9985161D01*
X9491479Y-9991479D01*
X9485161Y-9999177D01*
X9480467Y-10007960D01*
X9477576Y-10017489D01*
X9476600Y-10027400D01*
X9476600Y-10901600D01*
X7523400Y-10901600D01*
X7523400Y-10027400D01*
X7522424Y-10017489D01*
X7519533Y-10007960D01*
X7514839Y-9999177D01*
X7508521Y-9991479D01*
X7500823Y-9985161D01*
X7492040Y-9980467D01*
X7482511Y-9977576D01*
X7472600Y-9976600D01*
X6598400Y-9976600D01*
X6598400Y-8023400D01*
X7472600Y-8023400D01*
X7482511Y-8022424D01*
X7492040Y-8019533D01*
X7500823Y-8014839D01*
X7508521Y-8008521D01*
X7514839Y-8000823D01*
X7519533Y-7992040D01*
X7522424Y-7982511D01*
X7523400Y-7972600D01*
X7523400Y-7098400D01*
X9476600Y-7098400D01*
X9476600Y-7972600D01*
X9476600Y-7972600D01*
G37*
G36*
X15196600Y-10444100D02*
X14343400Y-10444100D01*
X14343400Y-8890900D01*
X15196600Y-8890900D01*
X15196600Y-10444100D01*
X15196600Y-10444100D01*
G37*
G36*
X17976600Y-3442600D02*
X17977576Y-3452511D01*
X17980467Y-3462040D01*
X17985161Y-3470823D01*
X17991479Y-3478521D01*
X17999177Y-3484839D01*
X18007960Y-3489533D01*
X18017489Y-3492424D01*
X18027400Y-3493400D01*
X18851600Y-3493400D01*
X18851600Y-7446600D01*
X18027400Y-7446600D01*
X18017489Y-7447576D01*
X18007960Y-7450467D01*
X17999177Y-7455161D01*
X17991479Y-7461479D01*
X17985161Y-7469177D01*
X17980467Y-7477960D01*
X17977576Y-7487489D01*
X17976600Y-7497400D01*
X17976600Y-8321600D01*
X14023400Y-8321600D01*
X14023400Y-7497400D01*
X14022424Y-7487489D01*
X14019533Y-7477960D01*
X14014839Y-7469177D01*
X14008521Y-7461479D01*
X14000823Y-7455161D01*
X13992040Y-7450467D01*
X13982511Y-7447576D01*
X13972600Y-7446600D01*
X13148400Y-7446600D01*
X13148400Y-3572400D01*
X14051600Y-3572400D01*
X14051600Y-7367600D01*
X14052576Y-7377511D01*
X14055467Y-7387040D01*
X14060161Y-7395823D01*
X14066479Y-7403521D01*
X14074177Y-7409839D01*
X14082960Y-7414533D01*
X14092489Y-7417424D01*
X14102400Y-7418400D01*
X17897600Y-7418400D01*
X17907511Y-7417424D01*
X17917040Y-7414533D01*
X17925823Y-7409839D01*
X17933521Y-7403521D01*
X17939839Y-7395823D01*
X17944533Y-7387040D01*
X17947424Y-7377511D01*
X17948400Y-7367600D01*
X17948400Y-3572400D01*
X17947424Y-3562489D01*
X17944533Y-3552960D01*
X17939839Y-3544177D01*
X17933521Y-3536479D01*
X17925823Y-3530161D01*
X17917040Y-3525467D01*
X17907511Y-3522576D01*
X17897600Y-3521600D01*
X14102400Y-3521600D01*
X14092489Y-3522576D01*
X14082960Y-3525467D01*
X14074177Y-3530161D01*
X14066479Y-3536479D01*
X14060161Y-3544177D01*
X14055467Y-3552960D01*
X14052576Y-3562489D01*
X14051600Y-3572400D01*
X13148400Y-3572400D01*
X13148400Y-3493400D01*
X13972600Y-3493400D01*
X13982511Y-3492424D01*
X13992040Y-3489533D01*
X14000823Y-3484839D01*
X14008521Y-3478521D01*
X14014839Y-3470823D01*
X14019533Y-3462040D01*
X14022424Y-3452511D01*
X14023400Y-3442600D01*
X14023400Y-2618400D01*
X17976600Y-2618400D01*
X17976600Y-3442600D01*
X17976600Y-3442600D01*
G37*
G36*
X17826600Y-7296600D02*
X14173400Y-7296600D01*
X14173400Y-3643400D01*
X17826600Y-3643400D01*
X17826600Y-7296600D01*
X17826600Y-7296600D01*
G37*
G36*
X3566600Y-6956600D02*
X2013400Y-6956600D01*
X2013400Y-6103400D01*
X3566600Y-6103400D01*
X3566600Y-6956600D01*
X3566600Y-6956600D01*
G37*
G36*
X10711600Y-6041600D02*
X9608400Y-6041600D01*
X9608400Y-3938400D01*
X10711600Y-3938400D01*
X10711600Y-6041600D01*
X10711600Y-6041600D01*
G37*
G36*
X9311600Y-6041600D02*
X8208400Y-6041600D01*
X8208400Y-3938400D01*
X9311600Y-3938400D01*
X9311600Y-6041600D01*
X9311600Y-6041600D01*
G37*
G36*
X11816600Y-5676600D02*
X10963400Y-5676600D01*
X10963400Y-4123400D01*
X11816600Y-4123400D01*
X11816600Y-5676600D01*
X11816600Y-5676600D01*
G37*
G36*
X7916600Y-5654100D02*
X7063400Y-5654100D01*
X7063400Y-4100900D01*
X7916600Y-4100900D01*
X7916600Y-5654100D01*
X7916600Y-5654100D01*
G37*
G36*
X28777573Y-3684970D02*
X28950749Y-3756702D01*
X28950751Y-3756703D01*
X29028680Y-3808773D01*
X29106611Y-3860845D01*
X29239155Y-3993389D01*
X29343298Y-4149251D01*
X29415030Y-4322427D01*
X29451600Y-4506276D01*
X29451600Y-4693724D01*
X29415030Y-4877573D01*
X29343298Y-5050749D01*
X29239155Y-5206611D01*
X29106611Y-5339155D01*
X29028680Y-5391227D01*
X28950751Y-5443297D01*
X28950750Y-5443298D01*
X28950749Y-5443298D01*
X28777573Y-5515030D01*
X28593724Y-5551600D01*
X28406276Y-5551600D01*
X28222427Y-5515030D01*
X28049251Y-5443298D01*
X28049250Y-5443298D01*
X28049249Y-5443297D01*
X27971320Y-5391227D01*
X27893389Y-5339155D01*
X27760845Y-5206611D01*
X27656702Y-5050749D01*
X27584970Y-4877573D01*
X27548400Y-4693724D01*
X27548400Y-4506276D01*
X27584970Y-4322427D01*
X27656702Y-4149251D01*
X27760845Y-3993389D01*
X27893389Y-3860845D01*
X27971320Y-3808773D01*
X28049249Y-3756703D01*
X28049251Y-3756702D01*
X28222427Y-3684970D01*
X28406276Y-3648400D01*
X28593724Y-3648400D01*
X28777573Y-3684970D01*
X28777573Y-3684970D01*
G37*
G36*
X22476600Y-2251600D02*
X20673400Y-2251600D01*
X20673400Y-698400D01*
X22476600Y-698400D01*
X22476600Y-2251600D01*
X22476600Y-2251600D01*
G37*
M02*
