G04 #@! TF.GenerationSoftware,KiCad,Pcbnew,5.0.0-rc2-be01b52~65~ubuntu16.04.1*
G04 #@! TF.CreationDate,2018-07-13T18:02:19-04:00*
G04 #@! TF.ProjectId,motor controller,6D6F746F7220636F6E74726F6C6C6572,rev?*
G04 #@! TF.SameCoordinates,Original*
G04 #@! TF.FileFunction,Soldermask,Bot*
G04 #@! TF.FilePolarity,Negative*
%FSLAX46Y46*%
G04 Gerber Fmt 4.6, Leading zero omitted, Abs format (unit mm)*
G04 Created by KiCad (PCBNEW 5.0.0-rc2-be01b52~65~ubuntu16.04.1) date Fri Jul 13 18:02:19 2018*
%MOMM*%
%LPD*%
G01*
G04 APERTURE LIST*
%ADD10C,0.100000*%
G04 APERTURE END LIST*
D10*
G36*
X35066600Y-16428600D02*
X33513400Y-16428600D01*
X33513400Y-15575400D01*
X35066600Y-15575400D01*
X35066600Y-16428600D01*
X35066600Y-16428600D01*
G37*
G36*
X35066600Y-15412600D02*
X33513400Y-15412600D01*
X33513400Y-14559400D01*
X35066600Y-14559400D01*
X35066600Y-15412600D01*
X35066600Y-15412600D01*
G37*
G36*
X14741600Y-15301600D02*
X12738400Y-15301600D01*
X12738400Y-13878400D01*
X14741600Y-13878400D01*
X14741600Y-15301600D01*
X14741600Y-15301600D01*
G37*
G36*
X28251903Y-12569587D02*
X28409068Y-12634687D01*
X28550513Y-12729198D01*
X28670802Y-12849487D01*
X28765313Y-12990932D01*
X28830413Y-13148097D01*
X28863600Y-13314943D01*
X28863600Y-13485057D01*
X28830413Y-13651903D01*
X28765313Y-13809068D01*
X28670802Y-13950513D01*
X28550513Y-14070802D01*
X28409068Y-14165313D01*
X28251903Y-14230413D01*
X28085057Y-14263600D01*
X27914943Y-14263600D01*
X27748097Y-14230413D01*
X27590932Y-14165313D01*
X27449487Y-14070802D01*
X27329198Y-13950513D01*
X27234687Y-13809068D01*
X27169587Y-13651903D01*
X27136400Y-13485057D01*
X27136400Y-13314943D01*
X27169587Y-13148097D01*
X27234687Y-12990932D01*
X27329198Y-12849487D01*
X27449487Y-12729198D01*
X27590932Y-12634687D01*
X27748097Y-12569587D01*
X27914943Y-12536400D01*
X28085057Y-12536400D01*
X28251903Y-12569587D01*
X28251903Y-12569587D01*
G37*
G36*
X15920600Y-13864100D02*
X15067400Y-13864100D01*
X15067400Y-12310900D01*
X15920600Y-12310900D01*
X15920600Y-13864100D01*
X15920600Y-13864100D01*
G37*
G36*
X14741600Y-12441600D02*
X12738400Y-12441600D01*
X12738400Y-11018400D01*
X14741600Y-11018400D01*
X14741600Y-12441600D01*
X14741600Y-12441600D01*
G37*
G36*
X9476600Y-7972600D02*
X9477576Y-7982511D01*
X9480467Y-7992040D01*
X9485161Y-8000823D01*
X9491479Y-8008521D01*
X9499177Y-8014839D01*
X9507960Y-8019533D01*
X9517489Y-8022424D01*
X9527400Y-8023400D01*
X10401600Y-8023400D01*
X10401600Y-9976600D01*
X9527400Y-9976600D01*
X9517489Y-9977576D01*
X9507960Y-9980467D01*
X9499177Y-9985161D01*
X9491479Y-9991479D01*
X9485161Y-9999177D01*
X9480467Y-10007960D01*
X9477576Y-10017489D01*
X9476600Y-10027400D01*
X9476600Y-10901600D01*
X7523400Y-10901600D01*
X7523400Y-10027400D01*
X7522424Y-10017489D01*
X7519533Y-10007960D01*
X7514839Y-9999177D01*
X7508521Y-9991479D01*
X7500823Y-9985161D01*
X7492040Y-9980467D01*
X7482511Y-9977576D01*
X7472600Y-9976600D01*
X6598400Y-9976600D01*
X6598400Y-8023400D01*
X7472600Y-8023400D01*
X7482511Y-8022424D01*
X7492040Y-8019533D01*
X7500823Y-8014839D01*
X7508521Y-8008521D01*
X7514839Y-8000823D01*
X7519533Y-7992040D01*
X7522424Y-7982511D01*
X7523400Y-7972600D01*
X7523400Y-7098400D01*
X9476600Y-7098400D01*
X9476600Y-7972600D01*
X9476600Y-7972600D01*
G37*
G36*
X15196600Y-10444100D02*
X14343400Y-10444100D01*
X14343400Y-8890900D01*
X15196600Y-8890900D01*
X15196600Y-10444100D01*
X15196600Y-10444100D01*
G37*
G36*
X17976600Y-3442600D02*
X17977576Y-3452511D01*
X17980467Y-3462040D01*
X17985161Y-3470823D01*
X17991479Y-3478521D01*
X17999177Y-3484839D01*
X18007960Y-3489533D01*
X18017489Y-3492424D01*
X18027400Y-3493400D01*
X18851600Y-3493400D01*
X18851600Y-7446600D01*
X18027400Y-7446600D01*
X18017489Y-7447576D01*
X18007960Y-7450467D01*
X17999177Y-7455161D01*
X17991479Y-7461479D01*
X17985161Y-7469177D01*
X17980467Y-7477960D01*
X17977576Y-7487489D01*
X17976600Y-7497400D01*
X17976600Y-8321600D01*
X14023400Y-8321600D01*
X14023400Y-7497400D01*
X14022424Y-7487489D01*
X14019533Y-7477960D01*
X14014839Y-7469177D01*
X14008521Y-7461479D01*
X14000823Y-7455161D01*
X13992040Y-7450467D01*
X13982511Y-7447576D01*
X13972600Y-7446600D01*
X13148400Y-7446600D01*
X13148400Y-3572400D01*
X14051600Y-3572400D01*
X14051600Y-7367600D01*
X14052576Y-7377511D01*
X14055467Y-7387040D01*
X14060161Y-7395823D01*
X14066479Y-7403521D01*
X14074177Y-7409839D01*
X14082960Y-7414533D01*
X14092489Y-7417424D01*
X14102400Y-7418400D01*
X17897600Y-7418400D01*
X17907511Y-7417424D01*
X17917040Y-7414533D01*
X17925823Y-7409839D01*
X17933521Y-7403521D01*
X17939839Y-7395823D01*
X17944533Y-7387040D01*
X17947424Y-7377511D01*
X17948400Y-7367600D01*
X17948400Y-3572400D01*
X17947424Y-3562489D01*
X17944533Y-3552960D01*
X17939839Y-3544177D01*
X17933521Y-3536479D01*
X17925823Y-3530161D01*
X17917040Y-3525467D01*
X17907511Y-3522576D01*
X17897600Y-3521600D01*
X14102400Y-3521600D01*
X14092489Y-3522576D01*
X14082960Y-3525467D01*
X14074177Y-3530161D01*
X14066479Y-3536479D01*
X14060161Y-3544177D01*
X14055467Y-3552960D01*
X14052576Y-3562489D01*
X14051600Y-3572400D01*
X13148400Y-3572400D01*
X13148400Y-3493400D01*
X13972600Y-3493400D01*
X13982511Y-3492424D01*
X13992040Y-3489533D01*
X14000823Y-3484839D01*
X14008521Y-3478521D01*
X14014839Y-3470823D01*
X14019533Y-3462040D01*
X14022424Y-3452511D01*
X14023400Y-3442600D01*
X14023400Y-2618400D01*
X17976600Y-2618400D01*
X17976600Y-3442600D01*
X17976600Y-3442600D01*
G37*
G36*
X17826600Y-7296600D02*
X14173400Y-7296600D01*
X14173400Y-3643400D01*
X17826600Y-3643400D01*
X17826600Y-7296600D01*
X17826600Y-7296600D01*
G37*
G36*
X11776600Y-5990100D02*
X10923400Y-5990100D01*
X10923400Y-4436900D01*
X11776600Y-4436900D01*
X11776600Y-5990100D01*
X11776600Y-5990100D01*
G37*
G36*
X8656600Y-5976600D02*
X7803400Y-5976600D01*
X7803400Y-4423400D01*
X8656600Y-4423400D01*
X8656600Y-5976600D01*
X8656600Y-5976600D01*
G37*
G36*
X9641600Y-5901600D02*
X8888400Y-5901600D01*
X8888400Y-4498400D01*
X9641600Y-4498400D01*
X9641600Y-5901600D01*
X9641600Y-5901600D01*
G37*
G36*
X10691600Y-5901600D02*
X9938400Y-5901600D01*
X9938400Y-4498400D01*
X10691600Y-4498400D01*
X10691600Y-5901600D01*
X10691600Y-5901600D01*
G37*
G36*
X28251903Y-3769587D02*
X28409068Y-3834687D01*
X28550513Y-3929198D01*
X28670802Y-4049487D01*
X28765313Y-4190932D01*
X28830413Y-4348097D01*
X28863600Y-4514943D01*
X28863600Y-4685057D01*
X28830413Y-4851903D01*
X28765313Y-5009068D01*
X28670802Y-5150513D01*
X28550513Y-5270802D01*
X28409068Y-5365313D01*
X28251903Y-5430413D01*
X28085057Y-5463600D01*
X27914943Y-5463600D01*
X27748097Y-5430413D01*
X27590932Y-5365313D01*
X27449487Y-5270802D01*
X27329198Y-5150513D01*
X27234687Y-5009068D01*
X27169587Y-4851903D01*
X27136400Y-4685057D01*
X27136400Y-4514943D01*
X27169587Y-4348097D01*
X27234687Y-4190932D01*
X27329198Y-4049487D01*
X27449487Y-3929198D01*
X27590932Y-3834687D01*
X27748097Y-3769587D01*
X27914943Y-3736400D01*
X28085057Y-3736400D01*
X28251903Y-3769587D01*
X28251903Y-3769587D01*
G37*
G36*
X22476600Y-2251600D02*
X20673400Y-2251600D01*
X20673400Y-698400D01*
X22476600Y-698400D01*
X22476600Y-2251600D01*
X22476600Y-2251600D01*
G37*
M02*
