M48
;DRILL file {KiCad 5.0.0-rc2-be01b52~65~ubuntu16.04.1} date Fri Jul 13 18:02:23 2018
;FORMAT={-:-/ absolute / inch / decimal}
FMAT,2
INCH,TZ
T1C0.0157
T2C0.0300
%
G90
G05
M72
T1
X0.2961Y-0.2674
X0.2961Y-0.2674
X0.3189Y-0.2674
X0.3346Y-0.4606
X0.3346Y-0.4843
X0.3543Y-0.4606
X0.3543Y-0.4843
X0.3642Y-0.4114
X0.3661Y-0.252
X0.374Y-0.4606
X0.374Y-0.4843
X0.3937Y-0.4606
X0.3937Y-0.4843
X0.4134Y-0.4606
X0.4134Y-0.4843
X0.4331Y-0.4606
X0.4331Y-0.4843
X0.4803Y-0.4606
X0.4803Y-0.4843
X0.4868Y-0.2806
X0.5Y-0.4606
X0.5Y-0.4843
X0.5039Y-0.2008
X0.5079Y-0.2822
X0.5197Y-0.4606
X0.5197Y-0.4843
X0.5197Y-0.5394
X0.5197Y-0.563
X0.5287Y-0.315
X0.5394Y-0.4606
X0.5394Y-0.4843
X0.5394Y-0.5394
X0.5394Y-0.563
X0.5472Y-0.3583
X0.5591Y-0.4606
X0.5591Y-0.4843
X0.5787Y-0.4606
X0.5787Y-0.4843
X0.5793Y-0.1209
X0.5984Y-0.6142
X0.6004Y-0.1209
X0.6004Y-0.3098
X0.6012Y-0.0588
X0.6215Y-0.1209
X0.7008Y-0.3504
X0.7008Y-0.5669
X0.7244Y-0.1465
X0.7559Y-0.1929
X0.7957Y-0.063
X0.811Y-0.0197
X0.8386Y-0.2598
X0.8425Y-0.2878
X0.8425Y-0.3429
X0.85Y-0.5953
X0.94Y-0.5835
X0.9409Y-0.639
X1.0295Y-0.565
X1.03Y-0.5347
X1.063Y-0.2402
X1.063Y-0.2598
X1.063Y-0.2795
X1.063Y-0.2992
X1.063Y-0.3189
X1.063Y-0.3189
X1.063Y-0.3189
X1.063Y-0.3386
X1.063Y-0.3583
X1.063Y-0.378
X1.063Y-0.3976
X1.063Y-0.4173
X1.063Y-0.437
X1.063Y-0.4567
X1.0827Y-0.2402
X1.0827Y-0.2598
X1.0827Y-0.2795
X1.0827Y-0.2992
X1.0827Y-0.3189
X1.0827Y-0.3386
X1.0827Y-0.3583
X1.0827Y-0.378
X1.0827Y-0.3976
X1.0827Y-0.4173
X1.0827Y-0.437
X1.0827Y-0.4567
X1.1024Y-0.2402
X1.1024Y-0.2598
X1.1024Y-0.2795
X1.1024Y-0.2992
X1.1024Y-0.3189
X1.1024Y-0.3386
X1.1024Y-0.3583
X1.1024Y-0.378
X1.1024Y-0.3976
X1.1024Y-0.4173
X1.1024Y-0.437
X1.1024Y-0.4567
X1.122Y-0.2402
X1.122Y-0.2598
X1.122Y-0.2795
X1.122Y-0.2992
X1.122Y-0.3189
X1.122Y-0.3386
X1.122Y-0.3583
X1.122Y-0.378
X1.122Y-0.3976
X1.122Y-0.4173
X1.122Y-0.437
X1.122Y-0.4567
X1.1339Y-0.0357
X1.1457Y-0.2756
X1.1457Y-0.3071
X1.1457Y-0.3386
X1.1457Y-0.4016
X1.1457Y-0.4331
X1.1457Y-0.4646
X1.17Y-0.06
X1.1732Y-0.2756
X1.1732Y-0.3071
X1.1732Y-0.3386
X1.1732Y-0.4016
X1.1732Y-0.4331
X1.1732Y-0.4646
X1.1784Y-0.0258
X1.2004Y-0.2028
X1.2005Y-0.06
X1.2047Y-0.66
X1.2144Y-0.1142
X1.2165Y-0.2598
X1.2165Y-0.2795
X1.2165Y-0.2992
X1.2165Y-0.3189
X1.2165Y-0.3386
X1.2165Y-0.3583
X1.2165Y-0.378
X1.2165Y-0.3976
X1.2165Y-0.4173
X1.2165Y-0.437
X1.2165Y-0.4567
X1.2165Y-0.5906
X1.2319Y-0.5059
X1.2353Y-0.66
X1.2362Y-0.0551
X1.2362Y-0.2598
X1.2362Y-0.2795
X1.2362Y-0.2992
X1.2362Y-0.3189
X1.2362Y-0.3386
X1.2362Y-0.3583
X1.2362Y-0.378
X1.2362Y-0.3976
X1.2362Y-0.4173
X1.2362Y-0.437
X1.2362Y-0.4567
X1.2559Y-0.0981
X1.2559Y-0.1302
X1.2559Y-0.2598
X1.2559Y-0.2795
X1.2559Y-0.2992
X1.2559Y-0.3189
X1.2559Y-0.3386
X1.2559Y-0.3583
X1.2559Y-0.378
X1.2559Y-0.3976
X1.2559Y-0.4173
X1.2559Y-0.437
X1.2559Y-0.4567
X1.2559Y-0.5906
X1.2913Y-0.0354
X1.2913Y-0.0551
X1.2913Y-0.0748
X1.2913Y-0.0945
X1.2913Y-0.1142
X1.2913Y-0.574
X1.2913Y-0.606
X1.311Y-0.0354
X1.311Y-0.0551
X1.311Y-0.0748
X1.311Y-0.0945
X1.311Y-0.1142
X1.3307Y-0.0354
X1.3307Y-0.0551
X1.3307Y-0.0748
X1.3307Y-0.0945
X1.3307Y-0.1142
X1.3504Y-0.0354
X1.3504Y-0.0551
X1.3504Y-0.0748
X1.3504Y-0.0945
X1.3504Y-0.1142
X1.3583Y-0.1339
X1.3583Y-0.1535
X1.3583Y-0.189
X1.3583Y-0.2126
X1.3653Y-0.63
X1.3701Y-0.0748
X1.3894Y-0.2028
X1.3898Y-0.4921
X1.3898Y-0.5236
X1.3898Y-0.5512
X1.4488Y-0.3071
X1.4488Y-0.3701
X1.4622Y-0.2441
X1.4622Y-0.4016
X1.4622Y-0.4331
X1.4724Y-0.3071
X1.4764Y-0.3701
X1.48Y-0.189
T2
X1.1024Y-0.1811
X1.1024Y-0.5276
T0
M30
