G04 #@! TF.GenerationSoftware,KiCad,Pcbnew,5.0.1-33cea8e~68~ubuntu16.04.1*
G04 #@! TF.CreationDate,2018-10-31T23:40:33-04:00*
G04 #@! TF.ProjectId,motor controller,6D6F746F7220636F6E74726F6C6C6572,rev?*
G04 #@! TF.SameCoordinates,Original*
G04 #@! TF.FileFunction,Soldermask,Bot*
G04 #@! TF.FilePolarity,Negative*
%FSLAX46Y46*%
G04 Gerber Fmt 4.6, Leading zero omitted, Abs format (unit mm)*
G04 Created by KiCad (PCBNEW 5.0.1-33cea8e~68~ubuntu16.04.1) date Wed 31 Oct 2018 11:40:33 PM EDT*
%MOMM*%
%LPD*%
G01*
G04 APERTURE LIST*
%ADD10C,0.100000*%
G04 APERTURE END LIST*
D10*
G36*
X10549100Y-17656600D02*
X8995900Y-17656600D01*
X8995900Y-16803400D01*
X10549100Y-16803400D01*
X10549100Y-17656600D01*
X10549100Y-17656600D01*
G37*
G36*
X15976600Y-12172600D02*
X15977576Y-12182511D01*
X15980467Y-12192040D01*
X15985161Y-12200823D01*
X15991479Y-12208521D01*
X15999177Y-12214839D01*
X16007960Y-12219533D01*
X16017489Y-12222424D01*
X16027400Y-12223400D01*
X16851600Y-12223400D01*
X16851600Y-16176600D01*
X16027400Y-16176600D01*
X16017489Y-16177576D01*
X16007960Y-16180467D01*
X15999177Y-16185161D01*
X15991479Y-16191479D01*
X15985161Y-16199177D01*
X15980467Y-16207960D01*
X15977576Y-16217489D01*
X15976600Y-16227400D01*
X15976600Y-17051600D01*
X12023400Y-17051600D01*
X12023400Y-16227400D01*
X12022424Y-16217489D01*
X12019533Y-16207960D01*
X12014839Y-16199177D01*
X12008521Y-16191479D01*
X12000823Y-16185161D01*
X11992040Y-16180467D01*
X11982511Y-16177576D01*
X11972600Y-16176600D01*
X11148400Y-16176600D01*
X11148400Y-12302400D01*
X12051600Y-12302400D01*
X12051600Y-16097600D01*
X12052576Y-16107511D01*
X12055467Y-16117040D01*
X12060161Y-16125823D01*
X12066479Y-16133521D01*
X12074177Y-16139839D01*
X12082960Y-16144533D01*
X12092489Y-16147424D01*
X12102400Y-16148400D01*
X15897600Y-16148400D01*
X15907511Y-16147424D01*
X15917040Y-16144533D01*
X15925823Y-16139839D01*
X15933521Y-16133521D01*
X15939839Y-16125823D01*
X15944533Y-16117040D01*
X15947424Y-16107511D01*
X15948400Y-16097600D01*
X15948400Y-12302400D01*
X15947424Y-12292489D01*
X15944533Y-12282960D01*
X15939839Y-12274177D01*
X15933521Y-12266479D01*
X15925823Y-12260161D01*
X15917040Y-12255467D01*
X15907511Y-12252576D01*
X15897600Y-12251600D01*
X12102400Y-12251600D01*
X12092489Y-12252576D01*
X12082960Y-12255467D01*
X12074177Y-12260161D01*
X12066479Y-12266479D01*
X12060161Y-12274177D01*
X12055467Y-12282960D01*
X12052576Y-12292489D01*
X12051600Y-12302400D01*
X11148400Y-12302400D01*
X11148400Y-12223400D01*
X11972600Y-12223400D01*
X11982511Y-12222424D01*
X11992040Y-12219533D01*
X12000823Y-12214839D01*
X12008521Y-12208521D01*
X12014839Y-12200823D01*
X12019533Y-12192040D01*
X12022424Y-12182511D01*
X12023400Y-12172600D01*
X12023400Y-11348400D01*
X15976600Y-11348400D01*
X15976600Y-12172600D01*
X15976600Y-12172600D01*
G37*
G36*
X15826600Y-16026600D02*
X12173400Y-16026600D01*
X12173400Y-12373400D01*
X15826600Y-12373400D01*
X15826600Y-16026600D01*
X15826600Y-16026600D01*
G37*
G36*
X19069100Y-17026600D02*
X17515900Y-17026600D01*
X17515900Y-16173400D01*
X19069100Y-16173400D01*
X19069100Y-17026600D01*
X19069100Y-17026600D01*
G37*
G36*
X19136600Y-15646600D02*
X17583400Y-15646600D01*
X17583400Y-14793400D01*
X19136600Y-14793400D01*
X19136600Y-15646600D01*
X19136600Y-15646600D01*
G37*
G36*
X20916600Y-14856600D02*
X19363400Y-14856600D01*
X19363400Y-14003400D01*
X20916600Y-14003400D01*
X20916600Y-14856600D01*
X20916600Y-14856600D01*
G37*
G36*
X28777573Y-12454970D02*
X28950749Y-12526702D01*
X28950751Y-12526703D01*
X29028680Y-12578774D01*
X29106611Y-12630845D01*
X29239155Y-12763389D01*
X29343298Y-12919251D01*
X29415030Y-13092427D01*
X29451600Y-13276276D01*
X29451600Y-13463724D01*
X29415030Y-13647573D01*
X29343298Y-13820749D01*
X29239155Y-13976611D01*
X29106611Y-14109155D01*
X29028680Y-14161227D01*
X28950751Y-14213297D01*
X28950750Y-14213298D01*
X28950749Y-14213298D01*
X28777573Y-14285030D01*
X28593724Y-14321600D01*
X28406276Y-14321600D01*
X28222427Y-14285030D01*
X28049251Y-14213298D01*
X28049250Y-14213298D01*
X28049249Y-14213297D01*
X27971320Y-14161227D01*
X27893389Y-14109155D01*
X27760845Y-13976611D01*
X27656702Y-13820749D01*
X27584970Y-13647573D01*
X27548400Y-13463724D01*
X27548400Y-13276276D01*
X27584970Y-13092427D01*
X27656702Y-12919251D01*
X27760845Y-12763389D01*
X27893389Y-12630845D01*
X27971320Y-12578774D01*
X28049249Y-12526703D01*
X28049251Y-12526702D01*
X28222427Y-12454970D01*
X28406276Y-12418400D01*
X28593724Y-12418400D01*
X28777573Y-12454970D01*
X28777573Y-12454970D01*
G37*
G36*
X19219100Y-14196600D02*
X17665900Y-14196600D01*
X17665900Y-13343400D01*
X19219100Y-13343400D01*
X19219100Y-14196600D01*
X19219100Y-14196600D01*
G37*
G36*
X19576600Y-12666600D02*
X18723400Y-12666600D01*
X18723400Y-11113400D01*
X19576600Y-11113400D01*
X19576600Y-12666600D01*
X19576600Y-12666600D01*
G37*
G36*
X18546600Y-12664100D02*
X17693400Y-12664100D01*
X17693400Y-11110900D01*
X18546600Y-11110900D01*
X18546600Y-12664100D01*
X18546600Y-12664100D01*
G37*
G36*
X9476600Y-7972600D02*
X9477576Y-7982511D01*
X9480467Y-7992040D01*
X9485161Y-8000823D01*
X9491479Y-8008521D01*
X9499177Y-8014839D01*
X9507960Y-8019533D01*
X9517489Y-8022424D01*
X9527400Y-8023400D01*
X10401600Y-8023400D01*
X10401600Y-9976600D01*
X9527400Y-9976600D01*
X9517489Y-9977576D01*
X9507960Y-9980467D01*
X9499177Y-9985161D01*
X9491479Y-9991479D01*
X9485161Y-9999177D01*
X9480467Y-10007960D01*
X9477576Y-10017489D01*
X9476600Y-10027400D01*
X9476600Y-10901600D01*
X7523400Y-10901600D01*
X7523400Y-10027400D01*
X7522424Y-10017489D01*
X7519533Y-10007960D01*
X7514839Y-9999177D01*
X7508521Y-9991479D01*
X7500823Y-9985161D01*
X7492040Y-9980467D01*
X7482511Y-9977576D01*
X7472600Y-9976600D01*
X6598400Y-9976600D01*
X6598400Y-8023400D01*
X7472600Y-8023400D01*
X7482511Y-8022424D01*
X7492040Y-8019533D01*
X7500823Y-8014839D01*
X7508521Y-8008521D01*
X7514839Y-8000823D01*
X7519533Y-7992040D01*
X7522424Y-7982511D01*
X7523400Y-7972600D01*
X7523400Y-7098400D01*
X9476600Y-7098400D01*
X9476600Y-7972600D01*
X9476600Y-7972600D01*
G37*
G36*
X15481600Y-9001600D02*
X14058400Y-9001600D01*
X14058400Y-6998400D01*
X15481600Y-6998400D01*
X15481600Y-9001600D01*
X15481600Y-9001600D01*
G37*
G36*
X18341600Y-9001600D02*
X16918400Y-9001600D01*
X16918400Y-6998400D01*
X18341600Y-6998400D01*
X18341600Y-9001600D01*
X18341600Y-9001600D01*
G37*
G36*
X16976600Y-6826600D02*
X15423400Y-6826600D01*
X15423400Y-5973400D01*
X16976600Y-5973400D01*
X16976600Y-6826600D01*
X16976600Y-6826600D01*
G37*
G36*
X28777573Y-3654970D02*
X28950749Y-3726702D01*
X28950751Y-3726703D01*
X29028680Y-3778774D01*
X29106611Y-3830845D01*
X29239155Y-3963389D01*
X29343298Y-4119251D01*
X29415030Y-4292427D01*
X29451600Y-4476276D01*
X29451600Y-4663724D01*
X29415030Y-4847573D01*
X29343298Y-5020749D01*
X29239155Y-5176611D01*
X29106611Y-5309155D01*
X29028680Y-5361226D01*
X28950751Y-5413297D01*
X28950750Y-5413298D01*
X28950749Y-5413298D01*
X28777573Y-5485030D01*
X28593724Y-5521600D01*
X28406276Y-5521600D01*
X28222427Y-5485030D01*
X28049251Y-5413298D01*
X28049250Y-5413298D01*
X28049249Y-5413297D01*
X27971320Y-5361226D01*
X27893389Y-5309155D01*
X27760845Y-5176611D01*
X27656702Y-5020749D01*
X27584970Y-4847573D01*
X27548400Y-4663724D01*
X27548400Y-4476276D01*
X27584970Y-4292427D01*
X27656702Y-4119251D01*
X27760845Y-3963389D01*
X27893389Y-3830845D01*
X27971320Y-3778774D01*
X28049249Y-3726703D01*
X28049251Y-3726702D01*
X28222427Y-3654970D01*
X28406276Y-3618400D01*
X28593724Y-3618400D01*
X28777573Y-3654970D01*
X28777573Y-3654970D01*
G37*
M02*
