G04 #@! TF.GenerationSoftware,KiCad,Pcbnew,5.0.1-33cea8e~67~ubuntu16.04.1*
G04 #@! TF.CreationDate,2018-10-18T23:36:49-04:00*
G04 #@! TF.ProjectId,motor controller,6D6F746F7220636F6E74726F6C6C6572,rev?*
G04 #@! TF.SameCoordinates,Original*
G04 #@! TF.FileFunction,Legend,Bot*
G04 #@! TF.FilePolarity,Positive*
%FSLAX46Y46*%
G04 Gerber Fmt 4.6, Leading zero omitted, Abs format (unit mm)*
G04 Created by KiCad (PCBNEW 5.0.1-33cea8e~67~ubuntu16.04.1) date Thu 18 Oct 2018 11:36:49 PM EDT*
%MOMM*%
%LPD*%
G01*
G04 APERTURE LIST*
%ADD10C,0.150000*%
%ADD11C,0.120000*%
%ADD12C,0.020000*%
G04 APERTURE END LIST*
D10*
G04 #@! TO.C,IC1*
X10300000Y-7200000D02*
X6700000Y-7200000D01*
X6700000Y-7200000D02*
X6700000Y-10800000D01*
X6700000Y-10800000D02*
X10300000Y-10800000D01*
X10300000Y-10800000D02*
X10300000Y-7200000D01*
X10130000Y-7480000D02*
G75*
G03X10130000Y-7480000I-60000J0D01*
G01*
G04 #@! TO.C,U1*
X16625000Y-16825000D02*
X16625000Y-16300000D01*
X11375000Y-11575000D02*
X11375000Y-12100000D01*
X16625000Y-11575000D02*
X16625000Y-12100000D01*
X11375000Y-16825000D02*
X11900000Y-16825000D01*
X11375000Y-11575000D02*
X11900000Y-11575000D01*
X16625000Y-11575000D02*
X16100000Y-11575000D01*
X16625000Y-16825000D02*
X16100000Y-16825000D01*
D11*
G04 #@! TO.C,C7*
X16700000Y-8910000D02*
X15700000Y-8910000D01*
X16700000Y-7090000D02*
X15700000Y-7090000D01*
G04 #@! TO.C,IC1*
D12*
X8646428Y1092142D02*
X8646428Y1242142D01*
X8489285Y1106428D02*
X8496428Y1099285D01*
X8517857Y1092142D01*
X8532142Y1092142D01*
X8553571Y1099285D01*
X8567857Y1113571D01*
X8575000Y1127857D01*
X8582142Y1156428D01*
X8582142Y1177857D01*
X8575000Y1206428D01*
X8567857Y1220714D01*
X8553571Y1235000D01*
X8532142Y1242142D01*
X8517857Y1242142D01*
X8496428Y1235000D01*
X8489285Y1227857D01*
X8346428Y1092142D02*
X8432142Y1092142D01*
X8389285Y1092142D02*
X8389285Y1242142D01*
X8403571Y1220714D01*
X8417857Y1206428D01*
X8432142Y1199285D01*
G04 #@! TO.C,U1*
X17414285Y-11947857D02*
X17414285Y-12069285D01*
X17407142Y-12083571D01*
X17400000Y-12090714D01*
X17385714Y-12097857D01*
X17357142Y-12097857D01*
X17342857Y-12090714D01*
X17335714Y-12083571D01*
X17328571Y-12069285D01*
X17328571Y-11947857D01*
X17178571Y-12097857D02*
X17264285Y-12097857D01*
X17221428Y-12097857D02*
X17221428Y-11947857D01*
X17235714Y-11969285D01*
X17250000Y-11983571D01*
X17264285Y-11990714D01*
G04 #@! TO.C,M1*
X25407857Y-8658571D02*
X25257857Y-8658571D01*
X25365000Y-8708571D01*
X25257857Y-8758571D01*
X25407857Y-8758571D01*
X25407857Y-8908571D02*
X25407857Y-8822857D01*
X25407857Y-8865714D02*
X25257857Y-8865714D01*
X25279285Y-8851428D01*
X25293571Y-8837142D01*
X25300714Y-8822857D01*
G04 #@! TO.C,C5*
X18145000Y-12966071D02*
X18152142Y-12973214D01*
X18173571Y-12980357D01*
X18187857Y-12980357D01*
X18209285Y-12973214D01*
X18223571Y-12958928D01*
X18230714Y-12944642D01*
X18237857Y-12916071D01*
X18237857Y-12894642D01*
X18230714Y-12866071D01*
X18223571Y-12851785D01*
X18209285Y-12837500D01*
X18187857Y-12830357D01*
X18173571Y-12830357D01*
X18152142Y-12837500D01*
X18145000Y-12844642D01*
X18009285Y-12830357D02*
X18080714Y-12830357D01*
X18087857Y-12901785D01*
X18080714Y-12894642D01*
X18066428Y-12887500D01*
X18030714Y-12887500D01*
X18016428Y-12894642D01*
X18009285Y-12901785D01*
X18002142Y-12916071D01*
X18002142Y-12951785D01*
X18009285Y-12966071D01*
X18016428Y-12973214D01*
X18030714Y-12980357D01*
X18066428Y-12980357D01*
X18080714Y-12973214D01*
X18087857Y-12966071D01*
G04 #@! TO.C,C7*
X13793571Y-7915000D02*
X13800714Y-7907857D01*
X13807857Y-7886428D01*
X13807857Y-7872142D01*
X13800714Y-7850714D01*
X13786428Y-7836428D01*
X13772142Y-7829285D01*
X13743571Y-7822142D01*
X13722142Y-7822142D01*
X13693571Y-7829285D01*
X13679285Y-7836428D01*
X13665000Y-7850714D01*
X13657857Y-7872142D01*
X13657857Y-7886428D01*
X13665000Y-7907857D01*
X13672142Y-7915000D01*
X13657857Y-7965000D02*
X13657857Y-8065000D01*
X13807857Y-8000714D01*
G04 #@! TO.C,R1*
X9765000Y-16627857D02*
X9815000Y-16556428D01*
X9850714Y-16627857D02*
X9850714Y-16477857D01*
X9793571Y-16477857D01*
X9779285Y-16485000D01*
X9772142Y-16492142D01*
X9765000Y-16506428D01*
X9765000Y-16527857D01*
X9772142Y-16542142D01*
X9779285Y-16549285D01*
X9793571Y-16556428D01*
X9850714Y-16556428D01*
X9622142Y-16627857D02*
X9707857Y-16627857D01*
X9665000Y-16627857D02*
X9665000Y-16477857D01*
X9679285Y-16499285D01*
X9693571Y-16513571D01*
X9707857Y-16520714D01*
G04 #@! TO.C,R4*
X19225000Y-12982857D02*
X19275000Y-12911428D01*
X19310714Y-12982857D02*
X19310714Y-12832857D01*
X19253571Y-12832857D01*
X19239285Y-12840000D01*
X19232142Y-12847142D01*
X19225000Y-12861428D01*
X19225000Y-12882857D01*
X19232142Y-12897142D01*
X19239285Y-12904285D01*
X19253571Y-12911428D01*
X19310714Y-12911428D01*
X19096428Y-12882857D02*
X19096428Y-12982857D01*
X19132142Y-12825714D02*
X19167857Y-12932857D01*
X19075000Y-12932857D01*
G04 #@! TO.C,R5*
X34315000Y-16667857D02*
X34365000Y-16596428D01*
X34400714Y-16667857D02*
X34400714Y-16517857D01*
X34343571Y-16517857D01*
X34329285Y-16525000D01*
X34322142Y-16532142D01*
X34315000Y-16546428D01*
X34315000Y-16567857D01*
X34322142Y-16582142D01*
X34329285Y-16589285D01*
X34343571Y-16596428D01*
X34400714Y-16596428D01*
X34179285Y-16517857D02*
X34250714Y-16517857D01*
X34257857Y-16589285D01*
X34250714Y-16582142D01*
X34236428Y-16575000D01*
X34200714Y-16575000D01*
X34186428Y-16582142D01*
X34179285Y-16589285D01*
X34172142Y-16603571D01*
X34172142Y-16639285D01*
X34179285Y-16653571D01*
X34186428Y-16660714D01*
X34200714Y-16667857D01*
X34236428Y-16667857D01*
X34250714Y-16660714D01*
X34257857Y-16653571D01*
G04 #@! TO.C,R6*
X34315000Y-14467857D02*
X34365000Y-14396428D01*
X34400714Y-14467857D02*
X34400714Y-14317857D01*
X34343571Y-14317857D01*
X34329285Y-14325000D01*
X34322142Y-14332142D01*
X34315000Y-14346428D01*
X34315000Y-14367857D01*
X34322142Y-14382142D01*
X34329285Y-14389285D01*
X34343571Y-14396428D01*
X34400714Y-14396428D01*
X34186428Y-14317857D02*
X34215000Y-14317857D01*
X34229285Y-14325000D01*
X34236428Y-14332142D01*
X34250714Y-14353571D01*
X34257857Y-14382142D01*
X34257857Y-14439285D01*
X34250714Y-14453571D01*
X34243571Y-14460714D01*
X34229285Y-14467857D01*
X34200714Y-14467857D01*
X34186428Y-14460714D01*
X34179285Y-14453571D01*
X34172142Y-14439285D01*
X34172142Y-14403571D01*
X34179285Y-14389285D01*
X34186428Y-14382142D01*
X34200714Y-14375000D01*
X34229285Y-14375000D01*
X34243571Y-14382142D01*
X34250714Y-14389285D01*
X34257857Y-14403571D01*
G04 #@! TO.C,R7*
X36525000Y-4667857D02*
X36575000Y-4596428D01*
X36610714Y-4667857D02*
X36610714Y-4517857D01*
X36553571Y-4517857D01*
X36539285Y-4525000D01*
X36532142Y-4532142D01*
X36525000Y-4546428D01*
X36525000Y-4567857D01*
X36532142Y-4582142D01*
X36539285Y-4589285D01*
X36553571Y-4596428D01*
X36610714Y-4596428D01*
X36475000Y-4517857D02*
X36375000Y-4517857D01*
X36439285Y-4667857D01*
G04 #@! TO.C,R8*
X17747000Y-17801857D02*
X17797000Y-17730428D01*
X17832714Y-17801857D02*
X17832714Y-17651857D01*
X17775571Y-17651857D01*
X17761285Y-17659000D01*
X17754142Y-17666142D01*
X17747000Y-17680428D01*
X17747000Y-17701857D01*
X17754142Y-17716142D01*
X17761285Y-17723285D01*
X17775571Y-17730428D01*
X17832714Y-17730428D01*
X17661285Y-17716142D02*
X17675571Y-17709000D01*
X17682714Y-17701857D01*
X17689857Y-17687571D01*
X17689857Y-17680428D01*
X17682714Y-17666142D01*
X17675571Y-17659000D01*
X17661285Y-17651857D01*
X17632714Y-17651857D01*
X17618428Y-17659000D01*
X17611285Y-17666142D01*
X17604142Y-17680428D01*
X17604142Y-17687571D01*
X17611285Y-17701857D01*
X17618428Y-17709000D01*
X17632714Y-17716142D01*
X17661285Y-17716142D01*
X17675571Y-17723285D01*
X17682714Y-17730428D01*
X17689857Y-17744714D01*
X17689857Y-17773285D01*
X17682714Y-17787571D01*
X17675571Y-17794714D01*
X17661285Y-17801857D01*
X17632714Y-17801857D01*
X17618428Y-17794714D01*
X17611285Y-17787571D01*
X17604142Y-17773285D01*
X17604142Y-17744714D01*
X17611285Y-17730428D01*
X17618428Y-17723285D01*
X17632714Y-17716142D01*
G04 #@! TO.C,R9*
X18387500Y-14351857D02*
X18437500Y-14280428D01*
X18473214Y-14351857D02*
X18473214Y-14201857D01*
X18416071Y-14201857D01*
X18401785Y-14209000D01*
X18394642Y-14216142D01*
X18387500Y-14230428D01*
X18387500Y-14251857D01*
X18394642Y-14266142D01*
X18401785Y-14273285D01*
X18416071Y-14280428D01*
X18473214Y-14280428D01*
X18316071Y-14351857D02*
X18287500Y-14351857D01*
X18273214Y-14344714D01*
X18266071Y-14337571D01*
X18251785Y-14316142D01*
X18244642Y-14287571D01*
X18244642Y-14230428D01*
X18251785Y-14216142D01*
X18258928Y-14209000D01*
X18273214Y-14201857D01*
X18301785Y-14201857D01*
X18316071Y-14209000D01*
X18323214Y-14216142D01*
X18330357Y-14230428D01*
X18330357Y-14266142D01*
X18323214Y-14280428D01*
X18316071Y-14287571D01*
X18301785Y-14294714D01*
X18273214Y-14294714D01*
X18258928Y-14287571D01*
X18251785Y-14280428D01*
X18244642Y-14266142D01*
G04 #@! TO.C,C4*
X15266071Y-6369000D02*
X15273214Y-6361857D01*
X15280357Y-6340428D01*
X15280357Y-6326142D01*
X15273214Y-6304714D01*
X15258928Y-6290428D01*
X15244642Y-6283285D01*
X15216071Y-6276142D01*
X15194642Y-6276142D01*
X15166071Y-6283285D01*
X15151785Y-6290428D01*
X15137500Y-6304714D01*
X15130357Y-6326142D01*
X15130357Y-6340428D01*
X15137500Y-6361857D01*
X15144642Y-6369000D01*
X15180357Y-6497571D02*
X15280357Y-6497571D01*
X15123214Y-6461857D02*
X15230357Y-6426142D01*
X15230357Y-6519000D01*
G04 #@! TO.C,C9*
X34925000Y-4428571D02*
X34932142Y-4435714D01*
X34953571Y-4442857D01*
X34967857Y-4442857D01*
X34989285Y-4435714D01*
X35003571Y-4421428D01*
X35010714Y-4407142D01*
X35017857Y-4378571D01*
X35017857Y-4357142D01*
X35010714Y-4328571D01*
X35003571Y-4314285D01*
X34989285Y-4300000D01*
X34967857Y-4292857D01*
X34953571Y-4292857D01*
X34932142Y-4300000D01*
X34925000Y-4307142D01*
X34853571Y-4442857D02*
X34825000Y-4442857D01*
X34810714Y-4435714D01*
X34803571Y-4428571D01*
X34789285Y-4407142D01*
X34782142Y-4378571D01*
X34782142Y-4321428D01*
X34789285Y-4307142D01*
X34796428Y-4300000D01*
X34810714Y-4292857D01*
X34839285Y-4292857D01*
X34853571Y-4300000D01*
X34860714Y-4307142D01*
X34867857Y-4321428D01*
X34867857Y-4357142D01*
X34860714Y-4371428D01*
X34853571Y-4378571D01*
X34839285Y-4385714D01*
X34810714Y-4385714D01*
X34796428Y-4378571D01*
X34789285Y-4371428D01*
X34782142Y-4357142D01*
G04 #@! TD*
M02*
