G04 #@! TF.GenerationSoftware,KiCad,Pcbnew,5.0.1-33cea8e~68~ubuntu16.04.1*
G04 #@! TF.CreationDate,2018-10-31T23:40:33-04:00*
G04 #@! TF.ProjectId,motor controller,6D6F746F7220636F6E74726F6C6C6572,rev?*
G04 #@! TF.SameCoordinates,Original*
G04 #@! TF.FileFunction,Soldermask,Top*
G04 #@! TF.FilePolarity,Negative*
%FSLAX46Y46*%
G04 Gerber Fmt 4.6, Leading zero omitted, Abs format (unit mm)*
G04 Created by KiCad (PCBNEW 5.0.1-33cea8e~68~ubuntu16.04.1) date Wed 31 Oct 2018 11:40:33 PM EDT*
%MOMM*%
%LPD*%
G01*
G04 APERTURE LIST*
%ADD10C,0.100000*%
G04 APERTURE END LIST*
D10*
G36*
X20501600Y-17001600D02*
X18498400Y-17001600D01*
X18498400Y-12998400D01*
X20501600Y-12998400D01*
X20501600Y-17001600D01*
X20501600Y-17001600D01*
G37*
G36*
X5801600Y-17001600D02*
X3798400Y-17001600D01*
X3798400Y-12998400D01*
X5801600Y-12998400D01*
X5801600Y-17001600D01*
X5801600Y-17001600D01*
G37*
G36*
X25266600Y-16671600D02*
X22513400Y-16671600D01*
X22513400Y-15408400D01*
X25266600Y-15408400D01*
X25266600Y-16671600D01*
X25266600Y-16671600D01*
G37*
G36*
X22016600Y-15508600D02*
X21163400Y-15508600D01*
X21163400Y-13955400D01*
X22016600Y-13955400D01*
X22016600Y-15508600D01*
X22016600Y-15508600D01*
G37*
G36*
X23366600Y-14471600D02*
X22513400Y-14471600D01*
X22513400Y-13208400D01*
X23366600Y-13208400D01*
X23366600Y-14471600D01*
X23366600Y-14471600D01*
G37*
G36*
X25266600Y-14471600D02*
X24413400Y-14471600D01*
X24413400Y-13208400D01*
X25266600Y-13208400D01*
X25266600Y-14471600D01*
X25266600Y-14471600D01*
G37*
G36*
X36026600Y-14466600D02*
X34473400Y-14466600D01*
X34473400Y-13613400D01*
X36026600Y-13613400D01*
X36026600Y-14466600D01*
X36026600Y-14466600D01*
G37*
G36*
X28777573Y-3654970D02*
X28950749Y-3726702D01*
X28950751Y-3726703D01*
X29028680Y-3778774D01*
X29106611Y-3830845D01*
X29239155Y-3963389D01*
X29343298Y-4119251D01*
X29415030Y-4292427D01*
X29452317Y-4479881D01*
X29452576Y-4482511D01*
X29455467Y-4492040D01*
X29460161Y-4500823D01*
X29466479Y-4508521D01*
X29474177Y-4514839D01*
X29482960Y-4519533D01*
X29492489Y-4522424D01*
X29502400Y-4523400D01*
X37766600Y-4523400D01*
X37766600Y-13476600D01*
X29490729Y-13476600D01*
X29480818Y-13477576D01*
X29471289Y-13480467D01*
X29462506Y-13485161D01*
X29454808Y-13491479D01*
X29448490Y-13499177D01*
X29443796Y-13507960D01*
X29440905Y-13517489D01*
X29415030Y-13647573D01*
X29343298Y-13820749D01*
X29239155Y-13976611D01*
X29106611Y-14109155D01*
X29028680Y-14161227D01*
X28950751Y-14213297D01*
X28950750Y-14213298D01*
X28950749Y-14213298D01*
X28777573Y-14285030D01*
X28593724Y-14321600D01*
X28406276Y-14321600D01*
X28222427Y-14285030D01*
X28049251Y-14213298D01*
X28049250Y-14213298D01*
X28049249Y-14213297D01*
X27971320Y-14161227D01*
X27893389Y-14109155D01*
X27760845Y-13976611D01*
X27656702Y-13820749D01*
X27584970Y-13647573D01*
X27548400Y-13463724D01*
X27548400Y-13276276D01*
X27584970Y-13092427D01*
X27656702Y-12919251D01*
X27760845Y-12763389D01*
X27893389Y-12630845D01*
X27971320Y-12578774D01*
X28049249Y-12526703D01*
X28049251Y-12526702D01*
X28222427Y-12454970D01*
X28406276Y-12418400D01*
X28593724Y-12418400D01*
X28752693Y-12450021D01*
X28762600Y-12450997D01*
X28772510Y-12450021D01*
X28782040Y-12447130D01*
X28790823Y-12442436D01*
X28798521Y-12436118D01*
X28804839Y-12428420D01*
X28809533Y-12419638D01*
X28812424Y-12410108D01*
X28813400Y-12400197D01*
X28813400Y-6227400D01*
X30066600Y-6227400D01*
X30066600Y-11772600D01*
X30067576Y-11782511D01*
X30070467Y-11792040D01*
X30075161Y-11800823D01*
X30081479Y-11808521D01*
X30089177Y-11814839D01*
X30097960Y-11819533D01*
X30107489Y-11822424D01*
X30117400Y-11823400D01*
X30466600Y-11823400D01*
X30466600Y-12172600D01*
X30467576Y-12182511D01*
X30470467Y-12192040D01*
X30475161Y-12200823D01*
X30481479Y-12208521D01*
X30489177Y-12214839D01*
X30497960Y-12219533D01*
X30507489Y-12222424D01*
X30517400Y-12223400D01*
X36062600Y-12223400D01*
X36072511Y-12222424D01*
X36082040Y-12219533D01*
X36090823Y-12214839D01*
X36098521Y-12208521D01*
X36104839Y-12200823D01*
X36109533Y-12192040D01*
X36112424Y-12182511D01*
X36113400Y-12172600D01*
X36113400Y-11823400D01*
X36462600Y-11823400D01*
X36472511Y-11822424D01*
X36482040Y-11819533D01*
X36490823Y-11814839D01*
X36498521Y-11808521D01*
X36504839Y-11800823D01*
X36509533Y-11792040D01*
X36512424Y-11782511D01*
X36513400Y-11772600D01*
X36513400Y-6227400D01*
X36512424Y-6217489D01*
X36509533Y-6207960D01*
X36504839Y-6199177D01*
X36498521Y-6191479D01*
X36490823Y-6185161D01*
X36482040Y-6180467D01*
X36472511Y-6177576D01*
X36462600Y-6176600D01*
X36113400Y-6176600D01*
X36113400Y-5827400D01*
X36112424Y-5817489D01*
X36109533Y-5807960D01*
X36104839Y-5799177D01*
X36098521Y-5791479D01*
X36090823Y-5785161D01*
X36082040Y-5780467D01*
X36072511Y-5777576D01*
X36062600Y-5776600D01*
X30517400Y-5776600D01*
X30507489Y-5777576D01*
X30497960Y-5780467D01*
X30489177Y-5785161D01*
X30481479Y-5791479D01*
X30475161Y-5799177D01*
X30470467Y-5807960D01*
X30467576Y-5817489D01*
X30466600Y-5827400D01*
X30466600Y-6176600D01*
X30117400Y-6176600D01*
X30107489Y-6177576D01*
X30097960Y-6180467D01*
X30089177Y-6185161D01*
X30081479Y-6191479D01*
X30075161Y-6199177D01*
X30070467Y-6207960D01*
X30067576Y-6217489D01*
X30066600Y-6227400D01*
X28813400Y-6227400D01*
X28813400Y-5539803D01*
X28812424Y-5529892D01*
X28809533Y-5520363D01*
X28804839Y-5511580D01*
X28798521Y-5503882D01*
X28790823Y-5497564D01*
X28782040Y-5492870D01*
X28772511Y-5489979D01*
X28762600Y-5489003D01*
X28752693Y-5489979D01*
X28593724Y-5521600D01*
X28406276Y-5521600D01*
X28222427Y-5485030D01*
X28049251Y-5413298D01*
X28049250Y-5413298D01*
X28049249Y-5413297D01*
X27971320Y-5361226D01*
X27893389Y-5309155D01*
X27760845Y-5176611D01*
X27656702Y-5020749D01*
X27584970Y-4847573D01*
X27548400Y-4663724D01*
X27548400Y-4476276D01*
X27584970Y-4292427D01*
X27656702Y-4119251D01*
X27760845Y-3963389D01*
X27893389Y-3830845D01*
X27971320Y-3778774D01*
X28049249Y-3726703D01*
X28049251Y-3726702D01*
X28222427Y-3654970D01*
X28406276Y-3618400D01*
X28593724Y-3618400D01*
X28777573Y-3654970D01*
X28777573Y-3654970D01*
G37*
G36*
X35891600Y-11601600D02*
X30688400Y-11601600D01*
X30688400Y-6398400D01*
X35891600Y-6398400D01*
X35891600Y-11601600D01*
X35891600Y-11601600D01*
G37*
G36*
X22017930Y-11307104D02*
X22017933Y-11307105D01*
X22017934Y-11307105D01*
X22131336Y-11341506D01*
X22235848Y-11397368D01*
X22235850Y-11397369D01*
X22235849Y-11397369D01*
X22327453Y-11472547D01*
X22402631Y-11564151D01*
X22458494Y-11668664D01*
X22492896Y-11782070D01*
X22504511Y-11900000D01*
X22492896Y-12017930D01*
X22492895Y-12017933D01*
X22492895Y-12017934D01*
X22458494Y-12131336D01*
X22402632Y-12235848D01*
X22327453Y-12327453D01*
X22235848Y-12402632D01*
X22131336Y-12458494D01*
X22017934Y-12492895D01*
X22017933Y-12492895D01*
X22017930Y-12492896D01*
X21929553Y-12501600D01*
X20870447Y-12501600D01*
X20782070Y-12492896D01*
X20782067Y-12492895D01*
X20782066Y-12492895D01*
X20668664Y-12458494D01*
X20564152Y-12402632D01*
X20472547Y-12327453D01*
X20397368Y-12235848D01*
X20341506Y-12131336D01*
X20307105Y-12017934D01*
X20307105Y-12017933D01*
X20307104Y-12017930D01*
X20295489Y-11900000D01*
X20307104Y-11782070D01*
X20341506Y-11668664D01*
X20397369Y-11564151D01*
X20472547Y-11472547D01*
X20564151Y-11397369D01*
X20564150Y-11397369D01*
X20564152Y-11397368D01*
X20668664Y-11341506D01*
X20782066Y-11307105D01*
X20782067Y-11307105D01*
X20782070Y-11307104D01*
X20870447Y-11298400D01*
X21929553Y-11298400D01*
X22017930Y-11307104D01*
X22017930Y-11307104D01*
G37*
G36*
X11751600Y-12001600D02*
X10548400Y-12001600D01*
X10548400Y-9098400D01*
X11751600Y-9098400D01*
X11751600Y-12001600D01*
X11751600Y-12001600D01*
G37*
G36*
X13751600Y-12001600D02*
X12548400Y-12001600D01*
X12548400Y-9098400D01*
X13751600Y-9098400D01*
X13751600Y-12001600D01*
X13751600Y-12001600D01*
G37*
G36*
X9751600Y-12001600D02*
X8548400Y-12001600D01*
X8548400Y-9098400D01*
X9751600Y-9098400D01*
X9751600Y-12001600D01*
X9751600Y-12001600D01*
G37*
G36*
X17751600Y-12001600D02*
X16548400Y-12001600D01*
X16548400Y-9098400D01*
X17751600Y-9098400D01*
X17751600Y-12001600D01*
X17751600Y-12001600D01*
G37*
G36*
X15751600Y-12001600D02*
X14548400Y-12001600D01*
X14548400Y-9098400D01*
X15751600Y-9098400D01*
X15751600Y-12001600D01*
X15751600Y-12001600D01*
G37*
G36*
X7751600Y-12001600D02*
X6548400Y-12001600D01*
X6548400Y-9098400D01*
X7751600Y-9098400D01*
X7751600Y-12001600D01*
X7751600Y-12001600D01*
G37*
G36*
X26544100Y-11676600D02*
X24990900Y-11676600D01*
X24990900Y-10823400D01*
X26544100Y-10823400D01*
X26544100Y-11676600D01*
X26544100Y-11676600D01*
G37*
G36*
X22017930Y-9807104D02*
X22017933Y-9807105D01*
X22017934Y-9807105D01*
X22131336Y-9841506D01*
X22235848Y-9897368D01*
X22327453Y-9972547D01*
X22402632Y-10064152D01*
X22458494Y-10168664D01*
X22467515Y-10198400D01*
X22492896Y-10282070D01*
X22504511Y-10400000D01*
X22492896Y-10517930D01*
X22492895Y-10517933D01*
X22492895Y-10517934D01*
X22458494Y-10631336D01*
X22402632Y-10735848D01*
X22327453Y-10827453D01*
X22235848Y-10902632D01*
X22131336Y-10958494D01*
X22017934Y-10992895D01*
X22017933Y-10992895D01*
X22017930Y-10992896D01*
X21929553Y-11001600D01*
X20870447Y-11001600D01*
X20782070Y-10992896D01*
X20782067Y-10992895D01*
X20782066Y-10992895D01*
X20668664Y-10958494D01*
X20564152Y-10902632D01*
X20472547Y-10827453D01*
X20397368Y-10735848D01*
X20341506Y-10631336D01*
X20307105Y-10517934D01*
X20307105Y-10517933D01*
X20307104Y-10517930D01*
X20295489Y-10400000D01*
X20307104Y-10282070D01*
X20332486Y-10198400D01*
X20341506Y-10168664D01*
X20397368Y-10064152D01*
X20472547Y-9972547D01*
X20564152Y-9897368D01*
X20668664Y-9841506D01*
X20782066Y-9807105D01*
X20782067Y-9807105D01*
X20782070Y-9807104D01*
X20870447Y-9798400D01*
X21929553Y-9798400D01*
X22017930Y-9807104D01*
X22017930Y-9807104D01*
G37*
G36*
X2001600Y-10311600D02*
X798400Y-10311600D01*
X798400Y-9288400D01*
X2001600Y-9288400D01*
X2001600Y-10311600D01*
X2001600Y-10311600D01*
G37*
G36*
X3216600Y-9776600D02*
X2363400Y-9776600D01*
X2363400Y-8223400D01*
X3216600Y-8223400D01*
X3216600Y-9776600D01*
X3216600Y-9776600D01*
G37*
G36*
X22017930Y-8307104D02*
X22017933Y-8307105D01*
X22017934Y-8307105D01*
X22131336Y-8341506D01*
X22235848Y-8397368D01*
X22327453Y-8472547D01*
X22402632Y-8564152D01*
X22422648Y-8601600D01*
X22458494Y-8668664D01*
X22492896Y-8782070D01*
X22504511Y-8900000D01*
X22492896Y-9017930D01*
X22492895Y-9017933D01*
X22492895Y-9017934D01*
X22458494Y-9131336D01*
X22402632Y-9235848D01*
X22327453Y-9327453D01*
X22235848Y-9402632D01*
X22131336Y-9458494D01*
X22017934Y-9492895D01*
X22017933Y-9492895D01*
X22017930Y-9492896D01*
X21929553Y-9501600D01*
X20870447Y-9501600D01*
X20782070Y-9492896D01*
X20782067Y-9492895D01*
X20782066Y-9492895D01*
X20668664Y-9458494D01*
X20564152Y-9402632D01*
X20472547Y-9327453D01*
X20397368Y-9235848D01*
X20341506Y-9131336D01*
X20307105Y-9017934D01*
X20307105Y-9017933D01*
X20307104Y-9017930D01*
X20295489Y-8900000D01*
X20307104Y-8782070D01*
X20341506Y-8668664D01*
X20377352Y-8601600D01*
X20397368Y-8564152D01*
X20472547Y-8472547D01*
X20564152Y-8397368D01*
X20668664Y-8341506D01*
X20782066Y-8307105D01*
X20782067Y-8307105D01*
X20782070Y-8307104D01*
X20870447Y-8298400D01*
X21929553Y-8298400D01*
X22017930Y-8307104D01*
X22017930Y-8307104D01*
G37*
G36*
X17751600Y-8901600D02*
X16548400Y-8901600D01*
X16548400Y-5998400D01*
X17751600Y-5998400D01*
X17751600Y-8901600D01*
X17751600Y-8901600D01*
G37*
G36*
X7751600Y-8901600D02*
X6548400Y-8901600D01*
X6548400Y-5998400D01*
X7751600Y-5998400D01*
X7751600Y-8901600D01*
X7751600Y-8901600D01*
G37*
G36*
X9751600Y-8901600D02*
X8548400Y-8901600D01*
X8548400Y-5998400D01*
X9751600Y-5998400D01*
X9751600Y-8901600D01*
X9751600Y-8901600D01*
G37*
G36*
X11751600Y-8901600D02*
X10548400Y-8901600D01*
X10548400Y-5998400D01*
X11751600Y-5998400D01*
X11751600Y-8901600D01*
X11751600Y-8901600D01*
G37*
G36*
X13751600Y-8901600D02*
X12548400Y-8901600D01*
X12548400Y-5998400D01*
X13751600Y-5998400D01*
X13751600Y-8901600D01*
X13751600Y-8901600D01*
G37*
G36*
X15751600Y-8901600D02*
X14548400Y-8901600D01*
X14548400Y-5998400D01*
X15751600Y-5998400D01*
X15751600Y-8901600D01*
X15751600Y-8901600D01*
G37*
G36*
X2001600Y-8711600D02*
X798400Y-8711600D01*
X798400Y-7688400D01*
X2001600Y-7688400D01*
X2001600Y-8711600D01*
X2001600Y-8711600D01*
G37*
G36*
X22017930Y-6807104D02*
X22017933Y-6807105D01*
X22017934Y-6807105D01*
X22131336Y-6841506D01*
X22235848Y-6897368D01*
X22235850Y-6897369D01*
X22235849Y-6897369D01*
X22327453Y-6972547D01*
X22402631Y-7064151D01*
X22458494Y-7168664D01*
X22492896Y-7282070D01*
X22504511Y-7400000D01*
X22492896Y-7517930D01*
X22492895Y-7517933D01*
X22492895Y-7517934D01*
X22458494Y-7631336D01*
X22402632Y-7735848D01*
X22327453Y-7827453D01*
X22235848Y-7902632D01*
X22131336Y-7958494D01*
X22017934Y-7992895D01*
X22017933Y-7992895D01*
X22017930Y-7992896D01*
X21929553Y-8001600D01*
X20870447Y-8001600D01*
X20782070Y-7992896D01*
X20782067Y-7992895D01*
X20782066Y-7992895D01*
X20668664Y-7958494D01*
X20564152Y-7902632D01*
X20472547Y-7827453D01*
X20397368Y-7735848D01*
X20341506Y-7631336D01*
X20307105Y-7517934D01*
X20307105Y-7517933D01*
X20307104Y-7517930D01*
X20295489Y-7400000D01*
X20307104Y-7282070D01*
X20341506Y-7168664D01*
X20397369Y-7064151D01*
X20472547Y-6972547D01*
X20564151Y-6897369D01*
X20564150Y-6897369D01*
X20564152Y-6897368D01*
X20668664Y-6841506D01*
X20782066Y-6807105D01*
X20782067Y-6807105D01*
X20782070Y-6807104D01*
X20870447Y-6798400D01*
X21929553Y-6798400D01*
X22017930Y-6807104D01*
X22017930Y-6807104D01*
G37*
G36*
X20501600Y-5001600D02*
X18498400Y-5001600D01*
X18498400Y-998400D01*
X20501600Y-998400D01*
X20501600Y-5001600D01*
X20501600Y-5001600D01*
G37*
G36*
X5801600Y-5001600D02*
X3798400Y-5001600D01*
X3798400Y-998400D01*
X5801600Y-998400D01*
X5801600Y-5001600D01*
X5801600Y-5001600D01*
G37*
G36*
X35726600Y-3322600D02*
X35727576Y-3332511D01*
X35730467Y-3342040D01*
X35735161Y-3350823D01*
X35741479Y-3358521D01*
X35749177Y-3364839D01*
X35757960Y-3369533D01*
X35767489Y-3372424D01*
X35777400Y-3373400D01*
X37364100Y-3373400D01*
X37364100Y-4226600D01*
X35810900Y-4226600D01*
X35810900Y-4214900D01*
X35809924Y-4204989D01*
X35807033Y-4195460D01*
X35802339Y-4186677D01*
X35796021Y-4178979D01*
X35788323Y-4172661D01*
X35779540Y-4167967D01*
X35770011Y-4165076D01*
X35760100Y-4164100D01*
X34873400Y-4164100D01*
X34873400Y-2610900D01*
X35726600Y-2610900D01*
X35726600Y-3322600D01*
X35726600Y-3322600D01*
G37*
M02*
