G04 #@! TF.GenerationSoftware,KiCad,Pcbnew,5.0.1-33cea8e~67~ubuntu16.04.1*
G04 #@! TF.CreationDate,2018-10-18T23:36:49-04:00*
G04 #@! TF.ProjectId,motor controller,6D6F746F7220636F6E74726F6C6C6572,rev?*
G04 #@! TF.SameCoordinates,Original*
G04 #@! TF.FileFunction,Soldermask,Top*
G04 #@! TF.FilePolarity,Negative*
%FSLAX46Y46*%
G04 Gerber Fmt 4.6, Leading zero omitted, Abs format (unit mm)*
G04 Created by KiCad (PCBNEW 5.0.1-33cea8e~67~ubuntu16.04.1) date Thu 18 Oct 2018 11:36:49 PM EDT*
%MOMM*%
%LPD*%
G01*
G04 APERTURE LIST*
%ADD10C,0.100000*%
G04 APERTURE END LIST*
D10*
G36*
X20501600Y-17001600D02*
X18498400Y-17001600D01*
X18498400Y-12998400D01*
X20501600Y-12998400D01*
X20501600Y-17001600D01*
X20501600Y-17001600D01*
G37*
G36*
X5801600Y-17001600D02*
X3798400Y-17001600D01*
X3798400Y-12998400D01*
X5801600Y-12998400D01*
X5801600Y-17001600D01*
X5801600Y-17001600D01*
G37*
G36*
X25266600Y-16671600D02*
X22513400Y-16671600D01*
X22513400Y-15408400D01*
X25266600Y-15408400D01*
X25266600Y-16671600D01*
X25266600Y-16671600D01*
G37*
G36*
X22016600Y-15508600D02*
X21163400Y-15508600D01*
X21163400Y-13955400D01*
X22016600Y-13955400D01*
X22016600Y-15508600D01*
X22016600Y-15508600D01*
G37*
G36*
X23366600Y-14471600D02*
X22513400Y-14471600D01*
X22513400Y-13208400D01*
X23366600Y-13208400D01*
X23366600Y-14471600D01*
X23366600Y-14471600D01*
G37*
G36*
X25266600Y-14471600D02*
X24413400Y-14471600D01*
X24413400Y-13208400D01*
X25266600Y-13208400D01*
X25266600Y-14471600D01*
X25266600Y-14471600D01*
G37*
G36*
X36026600Y-14466600D02*
X34473400Y-14466600D01*
X34473400Y-13613400D01*
X36026600Y-13613400D01*
X36026600Y-14466600D01*
X36026600Y-14466600D01*
G37*
G36*
X27917573Y-12464970D02*
X28090749Y-12536702D01*
X28090751Y-12536703D01*
X28168680Y-12588774D01*
X28246611Y-12640845D01*
X28379155Y-12773389D01*
X28483298Y-12929251D01*
X28555030Y-13102427D01*
X28591600Y-13286276D01*
X28591600Y-13473724D01*
X28555030Y-13657573D01*
X28483298Y-13830749D01*
X28379155Y-13986611D01*
X28246611Y-14119155D01*
X28168680Y-14171227D01*
X28090751Y-14223297D01*
X28090750Y-14223298D01*
X28090749Y-14223298D01*
X27917573Y-14295030D01*
X27733724Y-14331600D01*
X27546276Y-14331600D01*
X27362427Y-14295030D01*
X27189251Y-14223298D01*
X27189250Y-14223298D01*
X27189249Y-14223297D01*
X27111320Y-14171226D01*
X27033389Y-14119155D01*
X26900845Y-13986611D01*
X26796702Y-13830749D01*
X26724970Y-13657573D01*
X26688400Y-13473724D01*
X26688400Y-13286276D01*
X26724970Y-13102427D01*
X26796702Y-12929251D01*
X26900845Y-12773389D01*
X27033389Y-12640845D01*
X27111320Y-12588774D01*
X27189249Y-12536703D01*
X27189251Y-12536702D01*
X27362427Y-12464970D01*
X27546276Y-12428400D01*
X27733724Y-12428400D01*
X27917573Y-12464970D01*
X27917573Y-12464970D01*
G37*
G36*
X37766600Y-13476600D02*
X28813400Y-13476600D01*
X28813400Y-6227400D01*
X30066600Y-6227400D01*
X30066600Y-11772600D01*
X30067576Y-11782511D01*
X30070467Y-11792040D01*
X30075161Y-11800823D01*
X30081479Y-11808521D01*
X30089177Y-11814839D01*
X30097960Y-11819533D01*
X30107489Y-11822424D01*
X30117400Y-11823400D01*
X30466600Y-11823400D01*
X30466600Y-12172600D01*
X30467576Y-12182511D01*
X30470467Y-12192040D01*
X30475161Y-12200823D01*
X30481479Y-12208521D01*
X30489177Y-12214839D01*
X30497960Y-12219533D01*
X30507489Y-12222424D01*
X30517400Y-12223400D01*
X36062600Y-12223400D01*
X36072511Y-12222424D01*
X36082040Y-12219533D01*
X36090823Y-12214839D01*
X36098521Y-12208521D01*
X36104839Y-12200823D01*
X36109533Y-12192040D01*
X36112424Y-12182511D01*
X36113400Y-12172600D01*
X36113400Y-11823400D01*
X36462600Y-11823400D01*
X36472511Y-11822424D01*
X36482040Y-11819533D01*
X36490823Y-11814839D01*
X36498521Y-11808521D01*
X36504839Y-11800823D01*
X36509533Y-11792040D01*
X36512424Y-11782511D01*
X36513400Y-11772600D01*
X36513400Y-6227400D01*
X36512424Y-6217489D01*
X36509533Y-6207960D01*
X36504839Y-6199177D01*
X36498521Y-6191479D01*
X36490823Y-6185161D01*
X36482040Y-6180467D01*
X36472511Y-6177576D01*
X36462600Y-6176600D01*
X36113400Y-6176600D01*
X36113400Y-5827400D01*
X36112424Y-5817489D01*
X36109533Y-5807960D01*
X36104839Y-5799177D01*
X36098521Y-5791479D01*
X36090823Y-5785161D01*
X36082040Y-5780467D01*
X36072511Y-5777576D01*
X36062600Y-5776600D01*
X30517400Y-5776600D01*
X30507489Y-5777576D01*
X30497960Y-5780467D01*
X30489177Y-5785161D01*
X30481479Y-5791479D01*
X30475161Y-5799177D01*
X30470467Y-5807960D01*
X30467576Y-5817489D01*
X30466600Y-5827400D01*
X30466600Y-6176600D01*
X30117400Y-6176600D01*
X30107489Y-6177576D01*
X30097960Y-6180467D01*
X30089177Y-6185161D01*
X30081479Y-6191479D01*
X30075161Y-6199177D01*
X30070467Y-6207960D01*
X30067576Y-6217489D01*
X30066600Y-6227400D01*
X28813400Y-6227400D01*
X28813400Y-4523400D01*
X37766600Y-4523400D01*
X37766600Y-13476600D01*
X37766600Y-13476600D01*
G37*
G36*
X35891600Y-11601600D02*
X30688400Y-11601600D01*
X30688400Y-6398400D01*
X35891600Y-6398400D01*
X35891600Y-11601600D01*
X35891600Y-11601600D01*
G37*
G36*
X22017930Y-11307104D02*
X22017933Y-11307105D01*
X22017934Y-11307105D01*
X22131336Y-11341506D01*
X22235848Y-11397368D01*
X22235850Y-11397369D01*
X22235849Y-11397369D01*
X22327453Y-11472547D01*
X22402631Y-11564151D01*
X22458494Y-11668664D01*
X22492896Y-11782070D01*
X22504511Y-11900000D01*
X22492896Y-12017930D01*
X22492895Y-12017933D01*
X22492895Y-12017934D01*
X22458494Y-12131336D01*
X22402632Y-12235848D01*
X22327453Y-12327453D01*
X22235848Y-12402632D01*
X22131336Y-12458494D01*
X22017934Y-12492895D01*
X22017933Y-12492895D01*
X22017930Y-12492896D01*
X21929553Y-12501600D01*
X20870447Y-12501600D01*
X20782070Y-12492896D01*
X20782067Y-12492895D01*
X20782066Y-12492895D01*
X20668664Y-12458494D01*
X20564152Y-12402632D01*
X20472547Y-12327453D01*
X20397368Y-12235848D01*
X20341506Y-12131336D01*
X20307105Y-12017934D01*
X20307105Y-12017933D01*
X20307104Y-12017930D01*
X20295489Y-11900000D01*
X20307104Y-11782070D01*
X20341506Y-11668664D01*
X20397369Y-11564151D01*
X20472547Y-11472547D01*
X20564151Y-11397369D01*
X20564150Y-11397369D01*
X20564152Y-11397368D01*
X20668664Y-11341506D01*
X20782066Y-11307105D01*
X20782067Y-11307105D01*
X20782070Y-11307104D01*
X20870447Y-11298400D01*
X21929553Y-11298400D01*
X22017930Y-11307104D01*
X22017930Y-11307104D01*
G37*
G36*
X11751600Y-12001600D02*
X10548400Y-12001600D01*
X10548400Y-9098400D01*
X11751600Y-9098400D01*
X11751600Y-12001600D01*
X11751600Y-12001600D01*
G37*
G36*
X9751600Y-12001600D02*
X8548400Y-12001600D01*
X8548400Y-9098400D01*
X9751600Y-9098400D01*
X9751600Y-12001600D01*
X9751600Y-12001600D01*
G37*
G36*
X7751600Y-12001600D02*
X6548400Y-12001600D01*
X6548400Y-9098400D01*
X7751600Y-9098400D01*
X7751600Y-12001600D01*
X7751600Y-12001600D01*
G37*
G36*
X15751600Y-12001600D02*
X14548400Y-12001600D01*
X14548400Y-9098400D01*
X15751600Y-9098400D01*
X15751600Y-12001600D01*
X15751600Y-12001600D01*
G37*
G36*
X13751600Y-12001600D02*
X12548400Y-12001600D01*
X12548400Y-9098400D01*
X13751600Y-9098400D01*
X13751600Y-12001600D01*
X13751600Y-12001600D01*
G37*
G36*
X17751600Y-12001600D02*
X16548400Y-12001600D01*
X16548400Y-9098400D01*
X17751600Y-9098400D01*
X17751600Y-12001600D01*
X17751600Y-12001600D01*
G37*
G36*
X26544100Y-11676600D02*
X24990900Y-11676600D01*
X24990900Y-10823400D01*
X26544100Y-10823400D01*
X26544100Y-11676600D01*
X26544100Y-11676600D01*
G37*
G36*
X22017930Y-9807104D02*
X22017933Y-9807105D01*
X22017934Y-9807105D01*
X22131336Y-9841506D01*
X22235848Y-9897368D01*
X22327453Y-9972547D01*
X22402632Y-10064152D01*
X22458494Y-10168664D01*
X22467515Y-10198400D01*
X22492896Y-10282070D01*
X22504511Y-10400000D01*
X22492896Y-10517930D01*
X22492895Y-10517933D01*
X22492895Y-10517934D01*
X22458494Y-10631336D01*
X22402632Y-10735848D01*
X22327453Y-10827453D01*
X22235848Y-10902632D01*
X22131336Y-10958494D01*
X22017934Y-10992895D01*
X22017933Y-10992895D01*
X22017930Y-10992896D01*
X21929553Y-11001600D01*
X20870447Y-11001600D01*
X20782070Y-10992896D01*
X20782067Y-10992895D01*
X20782066Y-10992895D01*
X20668664Y-10958494D01*
X20564152Y-10902632D01*
X20472547Y-10827453D01*
X20397368Y-10735848D01*
X20341506Y-10631336D01*
X20307105Y-10517934D01*
X20307105Y-10517933D01*
X20307104Y-10517930D01*
X20295489Y-10400000D01*
X20307104Y-10282070D01*
X20332486Y-10198400D01*
X20341506Y-10168664D01*
X20397368Y-10064152D01*
X20472547Y-9972547D01*
X20564152Y-9897368D01*
X20668664Y-9841506D01*
X20782066Y-9807105D01*
X20782067Y-9807105D01*
X20782070Y-9807104D01*
X20870447Y-9798400D01*
X21929553Y-9798400D01*
X22017930Y-9807104D01*
X22017930Y-9807104D01*
G37*
G36*
X2001600Y-10311600D02*
X798400Y-10311600D01*
X798400Y-9288400D01*
X2001600Y-9288400D01*
X2001600Y-10311600D01*
X2001600Y-10311600D01*
G37*
G36*
X3216600Y-9776600D02*
X2363400Y-9776600D01*
X2363400Y-8223400D01*
X3216600Y-8223400D01*
X3216600Y-9776600D01*
X3216600Y-9776600D01*
G37*
G36*
X22017930Y-8307104D02*
X22017933Y-8307105D01*
X22017934Y-8307105D01*
X22131336Y-8341506D01*
X22235848Y-8397368D01*
X22327453Y-8472547D01*
X22402632Y-8564152D01*
X22422648Y-8601600D01*
X22458494Y-8668664D01*
X22492896Y-8782070D01*
X22504511Y-8900000D01*
X22492896Y-9017930D01*
X22492895Y-9017933D01*
X22492895Y-9017934D01*
X22458494Y-9131336D01*
X22402632Y-9235848D01*
X22327453Y-9327453D01*
X22235848Y-9402632D01*
X22131336Y-9458494D01*
X22017934Y-9492895D01*
X22017933Y-9492895D01*
X22017930Y-9492896D01*
X21929553Y-9501600D01*
X20870447Y-9501600D01*
X20782070Y-9492896D01*
X20782067Y-9492895D01*
X20782066Y-9492895D01*
X20668664Y-9458494D01*
X20564152Y-9402632D01*
X20472547Y-9327453D01*
X20397368Y-9235848D01*
X20341506Y-9131336D01*
X20307105Y-9017934D01*
X20307105Y-9017933D01*
X20307104Y-9017930D01*
X20295489Y-8900000D01*
X20307104Y-8782070D01*
X20341506Y-8668664D01*
X20377352Y-8601600D01*
X20397368Y-8564152D01*
X20472547Y-8472547D01*
X20564152Y-8397368D01*
X20668664Y-8341506D01*
X20782066Y-8307105D01*
X20782067Y-8307105D01*
X20782070Y-8307104D01*
X20870447Y-8298400D01*
X21929553Y-8298400D01*
X22017930Y-8307104D01*
X22017930Y-8307104D01*
G37*
G36*
X7751600Y-8901600D02*
X6548400Y-8901600D01*
X6548400Y-5998400D01*
X7751600Y-5998400D01*
X7751600Y-8901600D01*
X7751600Y-8901600D01*
G37*
G36*
X13751600Y-8901600D02*
X12548400Y-8901600D01*
X12548400Y-5998400D01*
X13751600Y-5998400D01*
X13751600Y-8901600D01*
X13751600Y-8901600D01*
G37*
G36*
X15751600Y-8901600D02*
X14548400Y-8901600D01*
X14548400Y-5998400D01*
X15751600Y-5998400D01*
X15751600Y-8901600D01*
X15751600Y-8901600D01*
G37*
G36*
X17751600Y-8901600D02*
X16548400Y-8901600D01*
X16548400Y-5998400D01*
X17751600Y-5998400D01*
X17751600Y-8901600D01*
X17751600Y-8901600D01*
G37*
G36*
X11751600Y-8901600D02*
X10548400Y-8901600D01*
X10548400Y-5998400D01*
X11751600Y-5998400D01*
X11751600Y-8901600D01*
X11751600Y-8901600D01*
G37*
G36*
X9751600Y-8901600D02*
X8548400Y-8901600D01*
X8548400Y-5998400D01*
X9751600Y-5998400D01*
X9751600Y-8901600D01*
X9751600Y-8901600D01*
G37*
G36*
X2001600Y-8711600D02*
X798400Y-8711600D01*
X798400Y-7688400D01*
X2001600Y-7688400D01*
X2001600Y-8711600D01*
X2001600Y-8711600D01*
G37*
G36*
X22017930Y-6807104D02*
X22017933Y-6807105D01*
X22017934Y-6807105D01*
X22131336Y-6841506D01*
X22235848Y-6897368D01*
X22235850Y-6897369D01*
X22235849Y-6897369D01*
X22327453Y-6972547D01*
X22402631Y-7064151D01*
X22458494Y-7168664D01*
X22492896Y-7282070D01*
X22504511Y-7400000D01*
X22492896Y-7517930D01*
X22492895Y-7517933D01*
X22492895Y-7517934D01*
X22458494Y-7631336D01*
X22402632Y-7735848D01*
X22327453Y-7827453D01*
X22235848Y-7902632D01*
X22131336Y-7958494D01*
X22017934Y-7992895D01*
X22017933Y-7992895D01*
X22017930Y-7992896D01*
X21929553Y-8001600D01*
X20870447Y-8001600D01*
X20782070Y-7992896D01*
X20782067Y-7992895D01*
X20782066Y-7992895D01*
X20668664Y-7958494D01*
X20564152Y-7902632D01*
X20472547Y-7827453D01*
X20397368Y-7735848D01*
X20341506Y-7631336D01*
X20307105Y-7517934D01*
X20307105Y-7517933D01*
X20307104Y-7517930D01*
X20295489Y-7400000D01*
X20307104Y-7282070D01*
X20341506Y-7168664D01*
X20397369Y-7064151D01*
X20472547Y-6972547D01*
X20564151Y-6897369D01*
X20564150Y-6897369D01*
X20564152Y-6897368D01*
X20668664Y-6841506D01*
X20782066Y-6807105D01*
X20782067Y-6807105D01*
X20782070Y-6807104D01*
X20870447Y-6798400D01*
X21929553Y-6798400D01*
X22017930Y-6807104D01*
X22017930Y-6807104D01*
G37*
G36*
X27917573Y-3664970D02*
X28090749Y-3736702D01*
X28090751Y-3736703D01*
X28168680Y-3788774D01*
X28246611Y-3840845D01*
X28379155Y-3973389D01*
X28483298Y-4129251D01*
X28555030Y-4302427D01*
X28591600Y-4486276D01*
X28591600Y-4673724D01*
X28555030Y-4857573D01*
X28483298Y-5030749D01*
X28379155Y-5186611D01*
X28246611Y-5319155D01*
X28168680Y-5371226D01*
X28090751Y-5423297D01*
X28090750Y-5423298D01*
X28090749Y-5423298D01*
X27917573Y-5495030D01*
X27733724Y-5531600D01*
X27546276Y-5531600D01*
X27362427Y-5495030D01*
X27189251Y-5423298D01*
X27189250Y-5423298D01*
X27189249Y-5423297D01*
X27111320Y-5371226D01*
X27033389Y-5319155D01*
X26900845Y-5186611D01*
X26796702Y-5030749D01*
X26724970Y-4857573D01*
X26688400Y-4673724D01*
X26688400Y-4486276D01*
X26724970Y-4302427D01*
X26796702Y-4129251D01*
X26900845Y-3973389D01*
X27033389Y-3840845D01*
X27111320Y-3788774D01*
X27189249Y-3736703D01*
X27189251Y-3736702D01*
X27362427Y-3664970D01*
X27546276Y-3628400D01*
X27733724Y-3628400D01*
X27917573Y-3664970D01*
X27917573Y-3664970D01*
G37*
G36*
X5801600Y-5001600D02*
X3798400Y-5001600D01*
X3798400Y-998400D01*
X5801600Y-998400D01*
X5801600Y-5001600D01*
X5801600Y-5001600D01*
G37*
G36*
X20501600Y-5001600D02*
X18498400Y-5001600D01*
X18498400Y-998400D01*
X20501600Y-998400D01*
X20501600Y-5001600D01*
X20501600Y-5001600D01*
G37*
M02*
