G04 #@! TF.GenerationSoftware,KiCad,Pcbnew,5.0.1-33cea8e~67~ubuntu16.04.1*
G04 #@! TF.CreationDate,2018-10-18T23:36:49-04:00*
G04 #@! TF.ProjectId,motor controller,6D6F746F7220636F6E74726F6C6C6572,rev?*
G04 #@! TF.SameCoordinates,Original*
G04 #@! TF.FileFunction,Soldermask,Bot*
G04 #@! TF.FilePolarity,Negative*
%FSLAX46Y46*%
G04 Gerber Fmt 4.6, Leading zero omitted, Abs format (unit mm)*
G04 Created by KiCad (PCBNEW 5.0.1-33cea8e~67~ubuntu16.04.1) date Thu 18 Oct 2018 11:36:49 PM EDT*
%MOMM*%
%LPD*%
G01*
G04 APERTURE LIST*
%ADD10C,0.100000*%
G04 APERTURE END LIST*
D10*
G36*
X10549100Y-17656600D02*
X8995900Y-17656600D01*
X8995900Y-16803400D01*
X10549100Y-16803400D01*
X10549100Y-17656600D01*
X10549100Y-17656600D01*
G37*
G36*
X18686600Y-17496600D02*
X17133400Y-17496600D01*
X17133400Y-16643400D01*
X18686600Y-16643400D01*
X18686600Y-17496600D01*
X18686600Y-17496600D01*
G37*
G36*
X15976600Y-12172600D02*
X15977576Y-12182511D01*
X15980467Y-12192040D01*
X15985161Y-12200823D01*
X15991479Y-12208521D01*
X15999177Y-12214839D01*
X16007960Y-12219533D01*
X16017489Y-12222424D01*
X16027400Y-12223400D01*
X16851600Y-12223400D01*
X16851600Y-16176600D01*
X16027400Y-16176600D01*
X16017489Y-16177576D01*
X16007960Y-16180467D01*
X15999177Y-16185161D01*
X15991479Y-16191479D01*
X15985161Y-16199177D01*
X15980467Y-16207960D01*
X15977576Y-16217489D01*
X15976600Y-16227400D01*
X15976600Y-17051600D01*
X12023400Y-17051600D01*
X12023400Y-16227400D01*
X12022424Y-16217489D01*
X12019533Y-16207960D01*
X12014839Y-16199177D01*
X12008521Y-16191479D01*
X12000823Y-16185161D01*
X11992040Y-16180467D01*
X11982511Y-16177576D01*
X11972600Y-16176600D01*
X11148400Y-16176600D01*
X11148400Y-12302400D01*
X12051600Y-12302400D01*
X12051600Y-16097600D01*
X12052576Y-16107511D01*
X12055467Y-16117040D01*
X12060161Y-16125823D01*
X12066479Y-16133521D01*
X12074177Y-16139839D01*
X12082960Y-16144533D01*
X12092489Y-16147424D01*
X12102400Y-16148400D01*
X15897600Y-16148400D01*
X15907511Y-16147424D01*
X15917040Y-16144533D01*
X15925823Y-16139839D01*
X15933521Y-16133521D01*
X15939839Y-16125823D01*
X15944533Y-16117040D01*
X15947424Y-16107511D01*
X15948400Y-16097600D01*
X15948400Y-12302400D01*
X15947424Y-12292489D01*
X15944533Y-12282960D01*
X15939839Y-12274177D01*
X15933521Y-12266479D01*
X15925823Y-12260161D01*
X15917040Y-12255467D01*
X15907511Y-12252576D01*
X15897600Y-12251600D01*
X12102400Y-12251600D01*
X12092489Y-12252576D01*
X12082960Y-12255467D01*
X12074177Y-12260161D01*
X12066479Y-12266479D01*
X12060161Y-12274177D01*
X12055467Y-12282960D01*
X12052576Y-12292489D01*
X12051600Y-12302400D01*
X11148400Y-12302400D01*
X11148400Y-12223400D01*
X11972600Y-12223400D01*
X11982511Y-12222424D01*
X11992040Y-12219533D01*
X12000823Y-12214839D01*
X12008521Y-12208521D01*
X12014839Y-12200823D01*
X12019533Y-12192040D01*
X12022424Y-12182511D01*
X12023400Y-12172600D01*
X12023400Y-11348400D01*
X15976600Y-11348400D01*
X15976600Y-12172600D01*
X15976600Y-12172600D01*
G37*
G36*
X15826600Y-16026600D02*
X12173400Y-16026600D01*
X12173400Y-12373400D01*
X15826600Y-12373400D01*
X15826600Y-16026600D01*
X15826600Y-16026600D01*
G37*
G36*
X35066600Y-16428600D02*
X33513400Y-16428600D01*
X33513400Y-15575400D01*
X35066600Y-15575400D01*
X35066600Y-16428600D01*
X35066600Y-16428600D01*
G37*
G36*
X35066600Y-15412600D02*
X33513400Y-15412600D01*
X33513400Y-14559400D01*
X35066600Y-14559400D01*
X35066600Y-15412600D01*
X35066600Y-15412600D01*
G37*
G36*
X19139100Y-15386600D02*
X17585900Y-15386600D01*
X17585900Y-14533400D01*
X19139100Y-14533400D01*
X19139100Y-15386600D01*
X19139100Y-15386600D01*
G37*
G36*
X27917573Y-12464970D02*
X28090749Y-12536702D01*
X28090751Y-12536703D01*
X28168680Y-12588774D01*
X28246611Y-12640845D01*
X28379155Y-12773389D01*
X28483298Y-12929251D01*
X28555030Y-13102427D01*
X28591600Y-13286276D01*
X28591600Y-13473724D01*
X28555030Y-13657573D01*
X28483298Y-13830749D01*
X28379155Y-13986611D01*
X28246611Y-14119155D01*
X28168680Y-14171227D01*
X28090751Y-14223297D01*
X28090750Y-14223298D01*
X28090749Y-14223298D01*
X27917573Y-14295030D01*
X27733724Y-14331600D01*
X27546276Y-14331600D01*
X27362427Y-14295030D01*
X27189251Y-14223298D01*
X27189250Y-14223298D01*
X27189249Y-14223297D01*
X27111320Y-14171226D01*
X27033389Y-14119155D01*
X26900845Y-13986611D01*
X26796702Y-13830749D01*
X26724970Y-13657573D01*
X26688400Y-13473724D01*
X26688400Y-13286276D01*
X26724970Y-13102427D01*
X26796702Y-12929251D01*
X26900845Y-12773389D01*
X27033389Y-12640845D01*
X27111320Y-12588774D01*
X27189249Y-12536703D01*
X27189251Y-12536702D01*
X27362427Y-12464970D01*
X27546276Y-12428400D01*
X27733724Y-12428400D01*
X27917573Y-12464970D01*
X27917573Y-12464970D01*
G37*
G36*
X19576600Y-12666600D02*
X18723400Y-12666600D01*
X18723400Y-11113400D01*
X19576600Y-11113400D01*
X19576600Y-12666600D01*
X19576600Y-12666600D01*
G37*
G36*
X18546600Y-12664100D02*
X17693400Y-12664100D01*
X17693400Y-11110900D01*
X18546600Y-11110900D01*
X18546600Y-12664100D01*
X18546600Y-12664100D01*
G37*
G36*
X9476600Y-7972600D02*
X9477576Y-7982511D01*
X9480467Y-7992040D01*
X9485161Y-8000823D01*
X9491479Y-8008521D01*
X9499177Y-8014839D01*
X9507960Y-8019533D01*
X9517489Y-8022424D01*
X9527400Y-8023400D01*
X10401600Y-8023400D01*
X10401600Y-9976600D01*
X9527400Y-9976600D01*
X9517489Y-9977576D01*
X9507960Y-9980467D01*
X9499177Y-9985161D01*
X9491479Y-9991479D01*
X9485161Y-9999177D01*
X9480467Y-10007960D01*
X9477576Y-10017489D01*
X9476600Y-10027400D01*
X9476600Y-10901600D01*
X7523400Y-10901600D01*
X7523400Y-10027400D01*
X7522424Y-10017489D01*
X7519533Y-10007960D01*
X7514839Y-9999177D01*
X7508521Y-9991479D01*
X7500823Y-9985161D01*
X7492040Y-9980467D01*
X7482511Y-9977576D01*
X7472600Y-9976600D01*
X6598400Y-9976600D01*
X6598400Y-8023400D01*
X7472600Y-8023400D01*
X7482511Y-8022424D01*
X7492040Y-8019533D01*
X7500823Y-8014839D01*
X7508521Y-8008521D01*
X7514839Y-8000823D01*
X7519533Y-7992040D01*
X7522424Y-7982511D01*
X7523400Y-7972600D01*
X7523400Y-7098400D01*
X9476600Y-7098400D01*
X9476600Y-7972600D01*
X9476600Y-7972600D01*
G37*
G36*
X18341600Y-9001600D02*
X16918400Y-9001600D01*
X16918400Y-6998400D01*
X18341600Y-6998400D01*
X18341600Y-9001600D01*
X18341600Y-9001600D01*
G37*
G36*
X15481600Y-9001600D02*
X14058400Y-9001600D01*
X14058400Y-6998400D01*
X15481600Y-6998400D01*
X15481600Y-9001600D01*
X15481600Y-9001600D01*
G37*
G36*
X16976600Y-6826600D02*
X15423400Y-6826600D01*
X15423400Y-5973400D01*
X16976600Y-5973400D01*
X16976600Y-6826600D01*
X16976600Y-6826600D01*
G37*
G36*
X27917573Y-3664970D02*
X28090749Y-3736702D01*
X28090751Y-3736703D01*
X28168680Y-3788774D01*
X28246611Y-3840845D01*
X28379155Y-3973389D01*
X28483298Y-4129251D01*
X28555030Y-4302427D01*
X28591600Y-4486276D01*
X28591600Y-4673724D01*
X28555030Y-4857573D01*
X28483298Y-5030749D01*
X28379155Y-5186611D01*
X28246611Y-5319155D01*
X28168680Y-5371226D01*
X28090751Y-5423297D01*
X28090750Y-5423298D01*
X28090749Y-5423298D01*
X27917573Y-5495030D01*
X27733724Y-5531600D01*
X27546276Y-5531600D01*
X27362427Y-5495030D01*
X27189251Y-5423298D01*
X27189250Y-5423298D01*
X27189249Y-5423297D01*
X27111320Y-5371226D01*
X27033389Y-5319155D01*
X26900845Y-5186611D01*
X26796702Y-5030749D01*
X26724970Y-4857573D01*
X26688400Y-4673724D01*
X26688400Y-4486276D01*
X26724970Y-4302427D01*
X26796702Y-4129251D01*
X26900845Y-3973389D01*
X27033389Y-3840845D01*
X27111320Y-3788774D01*
X27189249Y-3736703D01*
X27189251Y-3736702D01*
X27362427Y-3664970D01*
X27546276Y-3628400D01*
X27733724Y-3628400D01*
X27917573Y-3664970D01*
X27917573Y-3664970D01*
G37*
G36*
X35726600Y-3322600D02*
X35727576Y-3332511D01*
X35730467Y-3342040D01*
X35735161Y-3350823D01*
X35741479Y-3358521D01*
X35749177Y-3364839D01*
X35757960Y-3369533D01*
X35767489Y-3372424D01*
X35777400Y-3373400D01*
X37364100Y-3373400D01*
X37364100Y-4226600D01*
X35810900Y-4226600D01*
X35810900Y-4214900D01*
X35809924Y-4204989D01*
X35807033Y-4195460D01*
X35802339Y-4186677D01*
X35796021Y-4178979D01*
X35788323Y-4172661D01*
X35779540Y-4167967D01*
X35770011Y-4165076D01*
X35760100Y-4164100D01*
X34873400Y-4164100D01*
X34873400Y-2610900D01*
X35726600Y-2610900D01*
X35726600Y-3322600D01*
X35726600Y-3322600D01*
G37*
M02*
