G04 #@! TF.GenerationSoftware,KiCad,Pcbnew,5.0.1-33cea8e~68~ubuntu16.04.1*
G04 #@! TF.CreationDate,2018-10-31T23:40:33-04:00*
G04 #@! TF.ProjectId,motor controller,6D6F746F7220636F6E74726F6C6C6572,rev?*
G04 #@! TF.SameCoordinates,Original*
G04 #@! TF.FileFunction,Legend,Bot*
G04 #@! TF.FilePolarity,Positive*
%FSLAX46Y46*%
G04 Gerber Fmt 4.6, Leading zero omitted, Abs format (unit mm)*
G04 Created by KiCad (PCBNEW 5.0.1-33cea8e~68~ubuntu16.04.1) date Wed 31 Oct 2018 11:40:33 PM EDT*
%MOMM*%
%LPD*%
G01*
G04 APERTURE LIST*
%ADD10C,0.150000*%
%ADD11C,0.120000*%
%ADD12C,0.020000*%
G04 APERTURE END LIST*
D10*
G04 #@! TO.C,IC1*
X10300000Y-7200000D02*
X6700000Y-7200000D01*
X6700000Y-7200000D02*
X6700000Y-10800000D01*
X6700000Y-10800000D02*
X10300000Y-10800000D01*
X10300000Y-10800000D02*
X10300000Y-7200000D01*
X10130000Y-7480000D02*
G75*
G03X10130000Y-7480000I-60000J0D01*
G01*
G04 #@! TO.C,U1*
X16625000Y-16825000D02*
X16625000Y-16300000D01*
X11375000Y-11575000D02*
X11375000Y-12100000D01*
X16625000Y-11575000D02*
X16625000Y-12100000D01*
X11375000Y-16825000D02*
X11900000Y-16825000D01*
X11375000Y-11575000D02*
X11900000Y-11575000D01*
X16625000Y-11575000D02*
X16100000Y-11575000D01*
X16625000Y-16825000D02*
X16100000Y-16825000D01*
D11*
G04 #@! TO.C,C7*
X16700000Y-8910000D02*
X15700000Y-8910000D01*
X16700000Y-7090000D02*
X15700000Y-7090000D01*
G04 #@! TO.C,IC1*
D12*
X8646428Y1092142D02*
X8646428Y1242142D01*
X8489285Y1106428D02*
X8496428Y1099285D01*
X8517857Y1092142D01*
X8532142Y1092142D01*
X8553571Y1099285D01*
X8567857Y1113571D01*
X8575000Y1127857D01*
X8582142Y1156428D01*
X8582142Y1177857D01*
X8575000Y1206428D01*
X8567857Y1220714D01*
X8553571Y1235000D01*
X8532142Y1242142D01*
X8517857Y1242142D01*
X8496428Y1235000D01*
X8489285Y1227857D01*
X8346428Y1092142D02*
X8432142Y1092142D01*
X8389285Y1092142D02*
X8389285Y1242142D01*
X8403571Y1220714D01*
X8417857Y1206428D01*
X8432142Y1199285D01*
G04 #@! TO.C,U1*
X17414285Y-11947857D02*
X17414285Y-12069285D01*
X17407142Y-12083571D01*
X17400000Y-12090714D01*
X17385714Y-12097857D01*
X17357142Y-12097857D01*
X17342857Y-12090714D01*
X17335714Y-12083571D01*
X17328571Y-12069285D01*
X17328571Y-11947857D01*
X17178571Y-12097857D02*
X17264285Y-12097857D01*
X17221428Y-12097857D02*
X17221428Y-11947857D01*
X17235714Y-11969285D01*
X17250000Y-11983571D01*
X17264285Y-11990714D01*
G04 #@! TO.C,M1*
X26267857Y-8648571D02*
X26117857Y-8648571D01*
X26225000Y-8698571D01*
X26117857Y-8748571D01*
X26267857Y-8748571D01*
X26267857Y-8898571D02*
X26267857Y-8812857D01*
X26267857Y-8855714D02*
X26117857Y-8855714D01*
X26139285Y-8841428D01*
X26153571Y-8827142D01*
X26160714Y-8812857D01*
G04 #@! TO.C,C5*
X18145000Y-12966071D02*
X18152142Y-12973214D01*
X18173571Y-12980357D01*
X18187857Y-12980357D01*
X18209285Y-12973214D01*
X18223571Y-12958928D01*
X18230714Y-12944642D01*
X18237857Y-12916071D01*
X18237857Y-12894642D01*
X18230714Y-12866071D01*
X18223571Y-12851785D01*
X18209285Y-12837500D01*
X18187857Y-12830357D01*
X18173571Y-12830357D01*
X18152142Y-12837500D01*
X18145000Y-12844642D01*
X18009285Y-12830357D02*
X18080714Y-12830357D01*
X18087857Y-12901785D01*
X18080714Y-12894642D01*
X18066428Y-12887500D01*
X18030714Y-12887500D01*
X18016428Y-12894642D01*
X18009285Y-12901785D01*
X18002142Y-12916071D01*
X18002142Y-12951785D01*
X18009285Y-12966071D01*
X18016428Y-12973214D01*
X18030714Y-12980357D01*
X18066428Y-12980357D01*
X18080714Y-12973214D01*
X18087857Y-12966071D01*
G04 #@! TO.C,C7*
X13793571Y-7915000D02*
X13800714Y-7907857D01*
X13807857Y-7886428D01*
X13807857Y-7872142D01*
X13800714Y-7850714D01*
X13786428Y-7836428D01*
X13772142Y-7829285D01*
X13743571Y-7822142D01*
X13722142Y-7822142D01*
X13693571Y-7829285D01*
X13679285Y-7836428D01*
X13665000Y-7850714D01*
X13657857Y-7872142D01*
X13657857Y-7886428D01*
X13665000Y-7907857D01*
X13672142Y-7915000D01*
X13657857Y-7965000D02*
X13657857Y-8065000D01*
X13807857Y-8000714D01*
G04 #@! TO.C,R1*
X9765000Y-16627857D02*
X9815000Y-16556428D01*
X9850714Y-16627857D02*
X9850714Y-16477857D01*
X9793571Y-16477857D01*
X9779285Y-16485000D01*
X9772142Y-16492142D01*
X9765000Y-16506428D01*
X9765000Y-16527857D01*
X9772142Y-16542142D01*
X9779285Y-16549285D01*
X9793571Y-16556428D01*
X9850714Y-16556428D01*
X9622142Y-16627857D02*
X9707857Y-16627857D01*
X9665000Y-16627857D02*
X9665000Y-16477857D01*
X9679285Y-16499285D01*
X9693571Y-16513571D01*
X9707857Y-16520714D01*
G04 #@! TO.C,R4*
X19225000Y-12982857D02*
X19275000Y-12911428D01*
X19310714Y-12982857D02*
X19310714Y-12832857D01*
X19253571Y-12832857D01*
X19239285Y-12840000D01*
X19232142Y-12847142D01*
X19225000Y-12861428D01*
X19225000Y-12882857D01*
X19232142Y-12897142D01*
X19239285Y-12904285D01*
X19253571Y-12911428D01*
X19310714Y-12911428D01*
X19096428Y-12882857D02*
X19096428Y-12982857D01*
X19132142Y-12825714D02*
X19167857Y-12932857D01*
X19075000Y-12932857D01*
G04 #@! TO.C,R5*
X18317500Y-17265857D02*
X18367500Y-17194428D01*
X18403214Y-17265857D02*
X18403214Y-17115857D01*
X18346071Y-17115857D01*
X18331785Y-17123000D01*
X18324642Y-17130142D01*
X18317500Y-17144428D01*
X18317500Y-17165857D01*
X18324642Y-17180142D01*
X18331785Y-17187285D01*
X18346071Y-17194428D01*
X18403214Y-17194428D01*
X18181785Y-17115857D02*
X18253214Y-17115857D01*
X18260357Y-17187285D01*
X18253214Y-17180142D01*
X18238928Y-17173000D01*
X18203214Y-17173000D01*
X18188928Y-17180142D01*
X18181785Y-17187285D01*
X18174642Y-17201571D01*
X18174642Y-17237285D01*
X18181785Y-17251571D01*
X18188928Y-17258714D01*
X18203214Y-17265857D01*
X18238928Y-17265857D01*
X18253214Y-17258714D01*
X18260357Y-17251571D01*
G04 #@! TO.C,R6*
X20165000Y-13911857D02*
X20215000Y-13840428D01*
X20250714Y-13911857D02*
X20250714Y-13761857D01*
X20193571Y-13761857D01*
X20179285Y-13769000D01*
X20172142Y-13776142D01*
X20165000Y-13790428D01*
X20165000Y-13811857D01*
X20172142Y-13826142D01*
X20179285Y-13833285D01*
X20193571Y-13840428D01*
X20250714Y-13840428D01*
X20036428Y-13761857D02*
X20065000Y-13761857D01*
X20079285Y-13769000D01*
X20086428Y-13776142D01*
X20100714Y-13797571D01*
X20107857Y-13826142D01*
X20107857Y-13883285D01*
X20100714Y-13897571D01*
X20093571Y-13904714D01*
X20079285Y-13911857D01*
X20050714Y-13911857D01*
X20036428Y-13904714D01*
X20029285Y-13897571D01*
X20022142Y-13883285D01*
X20022142Y-13847571D01*
X20029285Y-13833285D01*
X20036428Y-13826142D01*
X20050714Y-13819000D01*
X20079285Y-13819000D01*
X20093571Y-13826142D01*
X20100714Y-13833285D01*
X20107857Y-13847571D01*
G04 #@! TO.C,R8*
X18197000Y-15951857D02*
X18247000Y-15880428D01*
X18282714Y-15951857D02*
X18282714Y-15801857D01*
X18225571Y-15801857D01*
X18211285Y-15809000D01*
X18204142Y-15816142D01*
X18197000Y-15830428D01*
X18197000Y-15851857D01*
X18204142Y-15866142D01*
X18211285Y-15873285D01*
X18225571Y-15880428D01*
X18282714Y-15880428D01*
X18111285Y-15866142D02*
X18125571Y-15859000D01*
X18132714Y-15851857D01*
X18139857Y-15837571D01*
X18139857Y-15830428D01*
X18132714Y-15816142D01*
X18125571Y-15809000D01*
X18111285Y-15801857D01*
X18082714Y-15801857D01*
X18068428Y-15809000D01*
X18061285Y-15816142D01*
X18054142Y-15830428D01*
X18054142Y-15837571D01*
X18061285Y-15851857D01*
X18068428Y-15859000D01*
X18082714Y-15866142D01*
X18111285Y-15866142D01*
X18125571Y-15873285D01*
X18132714Y-15880428D01*
X18139857Y-15894714D01*
X18139857Y-15923285D01*
X18132714Y-15937571D01*
X18125571Y-15944714D01*
X18111285Y-15951857D01*
X18082714Y-15951857D01*
X18068428Y-15944714D01*
X18061285Y-15937571D01*
X18054142Y-15923285D01*
X18054142Y-15894714D01*
X18061285Y-15880428D01*
X18068428Y-15873285D01*
X18082714Y-15866142D01*
G04 #@! TO.C,R9*
X18467500Y-13161857D02*
X18517500Y-13090428D01*
X18553214Y-13161857D02*
X18553214Y-13011857D01*
X18496071Y-13011857D01*
X18481785Y-13019000D01*
X18474642Y-13026142D01*
X18467500Y-13040428D01*
X18467500Y-13061857D01*
X18474642Y-13076142D01*
X18481785Y-13083285D01*
X18496071Y-13090428D01*
X18553214Y-13090428D01*
X18396071Y-13161857D02*
X18367500Y-13161857D01*
X18353214Y-13154714D01*
X18346071Y-13147571D01*
X18331785Y-13126142D01*
X18324642Y-13097571D01*
X18324642Y-13040428D01*
X18331785Y-13026142D01*
X18338928Y-13019000D01*
X18353214Y-13011857D01*
X18381785Y-13011857D01*
X18396071Y-13019000D01*
X18403214Y-13026142D01*
X18410357Y-13040428D01*
X18410357Y-13076142D01*
X18403214Y-13090428D01*
X18396071Y-13097571D01*
X18381785Y-13104714D01*
X18353214Y-13104714D01*
X18338928Y-13097571D01*
X18331785Y-13090428D01*
X18324642Y-13076142D01*
G04 #@! TO.C,C4*
X15266071Y-6369000D02*
X15273214Y-6361857D01*
X15280357Y-6340428D01*
X15280357Y-6326142D01*
X15273214Y-6304714D01*
X15258928Y-6290428D01*
X15244642Y-6283285D01*
X15216071Y-6276142D01*
X15194642Y-6276142D01*
X15166071Y-6283285D01*
X15151785Y-6290428D01*
X15137500Y-6304714D01*
X15130357Y-6326142D01*
X15130357Y-6340428D01*
X15137500Y-6361857D01*
X15144642Y-6369000D01*
X15180357Y-6497571D02*
X15280357Y-6497571D01*
X15123214Y-6461857D02*
X15230357Y-6426142D01*
X15230357Y-6519000D01*
G04 #@! TD*
M02*
