M48
;DRILL file {KiCad 5.0.1-33cea8e~67~ubuntu16.04.1} date Thu 18 Oct 2018 11:36:52 PM EDT
;FORMAT={-:-/ absolute / inch / decimal}
FMAT,2
INCH,TZ
T1C0.0157
T2C0.0512
%
G90
G05
M72
T1
X0.0551Y-0.3858
X0.1098Y-0.3696
X0.2815Y-0.4154
X0.315Y-0.5135
X0.315Y-0.5618
X0.3217Y-0.2646
X0.3275Y-0.439
X0.3587Y-0.228
X0.3937Y-0.4094
X0.3957Y-0.4328
X0.4075Y-0.4779
X0.439Y-0.4154
X0.4567Y-0.5492
X0.4567Y-0.628
X0.4711Y-0.3581
X0.476Y-0.2791
X0.5177Y-0.2933
X0.5594Y-0.4121
X0.5768Y-0.2972
X0.5768Y-0.315
X0.5768Y-0.3504
X0.5768Y-0.3681
X0.5768Y-0.3858
X0.5787Y-0.2441
X0.5787Y-0.2618
X0.5787Y-0.2795
X0.5787Y-0.3327
X0.5787Y-0.4035
X0.5787Y-0.4232
X0.5965Y-0.2441
X0.5965Y-0.2618
X0.5965Y-0.2795
X0.5965Y-0.2972
X0.5965Y-0.315
X0.5965Y-0.3327
X0.5965Y-0.3524
X0.5965Y-0.3681
X0.5965Y-0.3858
X0.5965Y-0.4035
X0.6142Y-0.2441
X0.6142Y-0.2618
X0.6142Y-0.2795
X0.6142Y-0.2972
X0.6142Y-0.315
X0.6142Y-0.3327
X0.6142Y-0.3524
X0.6142Y-0.3878
X0.6142Y-0.4055
X0.6142Y-0.4232
X0.6161Y-0.3701
X0.6161Y-0.3701
X0.6161Y-0.3701
X0.6201Y-0.4646
X0.6457Y-0.4902
X0.6457Y-0.4902
X0.6457Y-0.5689
X0.6555Y-0.2441
X0.6575Y-0.2618
X0.6752Y-0.2795
X0.6752Y-0.2972
X0.6752Y-0.313
X0.6752Y-0.3327
X0.6929Y-0.2795
X0.6929Y-0.2972
X0.6929Y-0.315
X0.6929Y-0.3327
X0.7126Y-0.5433
X0.752Y-0.6881
X0.7706Y-0.4252
X0.7866Y-0.5
X0.7929Y-0.2685
X0.8079Y-0.5036
X0.8304Y-0.5161
X0.8425Y-0.2913
X0.8504Y-0.5945
X0.865Y-0.5295
X0.93Y-0.6417
X0.95Y-0.63
X1.Y-0.6893
X1.0079Y-0.226
X1.0236Y-0.1496
X1.0315Y-0.2441
X1.0315Y-0.2638
X1.0315Y-0.2835
X1.0315Y-0.3031
X1.0315Y-0.3228
X1.0315Y-0.3425
X1.0315Y-0.3622
X1.0315Y-0.3819
X1.0315Y-0.4016
X1.0315Y-0.4213
X1.0315Y-0.4409
X1.0315Y-0.4606
X1.0394Y-0.6454
X1.0512Y-0.2441
X1.0512Y-0.2638
X1.0512Y-0.2835
X1.0512Y-0.3031
X1.0512Y-0.3228
X1.0512Y-0.3425
X1.0512Y-0.3622
X1.0512Y-0.3819
X1.0512Y-0.4016
X1.0512Y-0.4213
X1.0512Y-0.4409
X1.0512Y-0.4606
X1.0709Y-0.2441
X1.0709Y-0.2638
X1.0709Y-0.2835
X1.0709Y-0.3031
X1.0709Y-0.3228
X1.0709Y-0.3425
X1.0709Y-0.3622
X1.0709Y-0.3819
X1.0709Y-0.4016
X1.0709Y-0.4213
X1.0709Y-0.4409
X1.0709Y-0.4606
X1.0906Y-0.2441
X1.0906Y-0.2638
X1.0906Y-0.2835
X1.0906Y-0.3031
X1.0906Y-0.3228
X1.0906Y-0.3425
X1.0906Y-0.3622
X1.0906Y-0.3819
X1.0906Y-0.4016
X1.0906Y-0.4213
X1.0906Y-0.4409
X1.0906Y-0.4606
X1.1102Y-0.2441
X1.1102Y-0.2638
X1.1102Y-0.2835
X1.1102Y-0.3031
X1.1102Y-0.3228
X1.1102Y-0.3425
X1.1102Y-0.3622
X1.1102Y-0.3819
X1.1102Y-0.4016
X1.1102Y-0.4213
X1.1102Y-0.4409
X1.1102Y-0.4606
X1.126Y-0.6732
X1.1299Y-0.2441
X1.1299Y-0.2638
X1.1299Y-0.2835
X1.1299Y-0.3031
X1.1299Y-0.3228
X1.1299Y-0.3819
X1.1299Y-0.4016
X1.1299Y-0.4213
X1.1299Y-0.4409
X1.1299Y-0.4606
X1.1465Y-0.2953
X1.1469Y-0.2555
X1.1472Y-0.3307
X1.1472Y-0.4488
X1.1476Y-0.4142
X1.1484Y-0.3799
X1.1579Y-0.3122
X1.1587Y-0.2732
X1.1602Y-0.3972
X1.1618Y-0.4311
X1.1693Y-0.2551
X1.1717Y-0.4504
X1.1724Y-0.2957
X1.1728Y-0.3799
X1.1732Y-0.3295
X1.1732Y-0.4138
X1.1929Y-0.2638
X1.1929Y-0.2835
X1.1929Y-0.3031
X1.1929Y-0.3228
X1.1929Y-0.3425
X1.1929Y-0.3622
X1.1929Y-0.3819
X1.1929Y-0.4016
X1.1929Y-0.4213
X1.1929Y-0.4409
X1.2126Y-0.2441
X1.2126Y-0.2638
X1.2126Y-0.2835
X1.2126Y-0.3031
X1.2126Y-0.3228
X1.2126Y-0.3425
X1.2126Y-0.3622
X1.2126Y-0.3819
X1.2126Y-0.4016
X1.2126Y-0.4213
X1.2126Y-0.4409
X1.2126Y-0.4606
X1.215Y-0.2035
X1.2173Y-0.5063
X1.2205Y-0.5827
X1.2323Y-0.2441
X1.2323Y-0.2638
X1.2323Y-0.2835
X1.2323Y-0.3031
X1.2323Y-0.3228
X1.2323Y-0.3425
X1.2323Y-0.3622
X1.2323Y-0.3819
X1.2323Y-0.4016
X1.2323Y-0.4213
X1.2323Y-0.4409
X1.2323Y-0.4606
X1.252Y-0.2441
X1.252Y-0.2638
X1.252Y-0.2835
X1.252Y-0.3031
X1.252Y-0.3228
X1.252Y-0.3425
X1.252Y-0.3622
X1.252Y-0.3819
X1.252Y-0.4016
X1.252Y-0.4213
X1.252Y-0.4409
X1.252Y-0.4606
X1.2717Y-0.2441
X1.2717Y-0.2638
X1.2717Y-0.2835
X1.2717Y-0.3031
X1.2717Y-0.3228
X1.2717Y-0.3425
X1.2717Y-0.3622
X1.2717Y-0.3819
X1.2717Y-0.4016
X1.2717Y-0.4213
X1.2717Y-0.4409
X1.2717Y-0.4606
X1.2913Y-0.2441
X1.2913Y-0.2638
X1.2913Y-0.2835
X1.2913Y-0.3031
X1.2913Y-0.3228
X1.2913Y-0.3425
X1.2913Y-0.3622
X1.2913Y-0.3819
X1.2913Y-0.4016
X1.2913Y-0.4213
X1.2913Y-0.4409
X1.2913Y-0.4606
X1.311Y-0.2441
X1.311Y-0.2638
X1.311Y-0.2835
X1.311Y-0.3031
X1.311Y-0.3228
X1.311Y-0.3425
X1.311Y-0.3622
X1.311Y-0.3819
X1.311Y-0.4016
X1.311Y-0.4213
X1.311Y-0.4409
X1.311Y-0.4606
X1.3307Y-0.2441
X1.3307Y-0.2638
X1.3307Y-0.2835
X1.3307Y-0.3031
X1.3307Y-0.3228
X1.3307Y-0.3425
X1.3307Y-0.3622
X1.3307Y-0.3819
X1.3307Y-0.4016
X1.3307Y-0.4213
X1.3307Y-0.4409
X1.3307Y-0.4606
X1.3898Y-0.1181
X1.4039Y-0.2031
X1.4252Y-0.1496
X1.4557Y-0.1496
X1.4618Y-0.4154
X1.4618Y-0.4492
X1.4626Y-0.2594
X1.463Y-0.4894
X1.463Y-0.5488
T2
X1.0882Y-0.1803
X1.0882Y-0.5268
T0
M30
