M48
;DRILL file {KiCad 5.0.1-33cea8e~68~ubuntu16.04.1} date Wed 31 Oct 2018 11:40:36 PM EDT
;FORMAT={-:-/ absolute / inch / decimal}
FMAT,2
INCH,TZ
T1C0.0157
T2C0.0512
%
G90
G05
M72
T1
X0.0551Y-0.3858
X0.2354Y-0.4449
X0.248Y-0.3083
X0.2846Y-0.5217
X0.3102Y-0.4843
X0.3276Y-0.5098
X0.3308Y-0.4788
X0.3646Y-0.485
X0.3657Y-0.5071
X0.4567Y-0.5492
X0.4567Y-0.628
X0.485Y-0.4377
X0.5596Y-0.6535
X0.5768Y-0.2972
X0.5768Y-0.315
X0.5768Y-0.3504
X0.5768Y-0.3681
X0.5768Y-0.3858
X0.5787Y-0.2441
X0.5787Y-0.2618
X0.5787Y-0.2795
X0.5787Y-0.3327
X0.5787Y-0.4035
X0.5787Y-0.4232
X0.5807Y-0.6535
X0.5965Y-0.2441
X0.5965Y-0.2618
X0.5965Y-0.2795
X0.5965Y-0.2972
X0.5965Y-0.315
X0.5965Y-0.3327
X0.5965Y-0.3524
X0.5965Y-0.3681
X0.5965Y-0.3858
X0.5965Y-0.4035
X0.6019Y-0.6535
X0.6142Y-0.2441
X0.6142Y-0.2618
X0.6142Y-0.2795
X0.6142Y-0.2972
X0.6142Y-0.315
X0.6142Y-0.3327
X0.6142Y-0.3524
X0.6142Y-0.3878
X0.6142Y-0.4055
X0.6142Y-0.4232
X0.6161Y-0.3701
X0.6161Y-0.3701
X0.6161Y-0.3701
X0.6201Y-0.4646
X0.6457Y-0.4902
X0.6457Y-0.4902
X0.6457Y-0.6083
X0.6457Y-0.6294
X0.6555Y-0.2441
X0.6575Y-0.2618
X0.6752Y-0.2795
X0.6752Y-0.2972
X0.6752Y-0.313
X0.6752Y-0.3327
X0.6929Y-0.2795
X0.6929Y-0.2972
X0.6929Y-0.315
X0.6929Y-0.3327
X0.7539Y-0.3874
X0.7729Y-0.3753
X0.8425Y-0.2913
X0.8504Y-0.5945
X0.8626Y-0.6697
X0.93Y-0.63
X0.95Y-0.63
X1.Y-0.174
X1.0055Y-0.1398
X1.0315Y-0.2441
X1.0315Y-0.2638
X1.0315Y-0.2835
X1.0315Y-0.3031
X1.0315Y-0.3228
X1.0315Y-0.3425
X1.0315Y-0.3622
X1.0315Y-0.3819
X1.0315Y-0.4016
X1.0315Y-0.4213
X1.0315Y-0.4409
X1.0315Y-0.4606
X1.0402Y-0.1461
X1.0512Y-0.2441
X1.0512Y-0.2638
X1.0512Y-0.2835
X1.0512Y-0.3031
X1.0512Y-0.3228
X1.0512Y-0.3425
X1.0512Y-0.3622
X1.0512Y-0.3819
X1.0512Y-0.4016
X1.0512Y-0.4213
X1.0512Y-0.4409
X1.0512Y-0.4606
X1.0709Y-0.2441
X1.0709Y-0.2638
X1.0709Y-0.2835
X1.0709Y-0.3031
X1.0709Y-0.3228
X1.0709Y-0.3425
X1.0709Y-0.3622
X1.0709Y-0.3819
X1.0709Y-0.4016
X1.0709Y-0.4213
X1.0709Y-0.4409
X1.0709Y-0.4606
X1.0906Y-0.2441
X1.0906Y-0.2638
X1.0906Y-0.2835
X1.0906Y-0.3031
X1.0906Y-0.3228
X1.0906Y-0.3425
X1.0906Y-0.3622
X1.0906Y-0.3819
X1.0906Y-0.4016
X1.0906Y-0.4213
X1.0906Y-0.4409
X1.0906Y-0.4606
X1.1102Y-0.2441
X1.1102Y-0.2638
X1.1102Y-0.2835
X1.1102Y-0.3031
X1.1102Y-0.3228
X1.1102Y-0.3425
X1.1102Y-0.3622
X1.1102Y-0.3819
X1.1102Y-0.4016
X1.1102Y-0.4213
X1.1102Y-0.4409
X1.1102Y-0.4606
X1.1299Y-0.2441
X1.1299Y-0.2638
X1.1299Y-0.2835
X1.1299Y-0.3031
X1.1299Y-0.3228
X1.1299Y-0.3819
X1.1299Y-0.4016
X1.1299Y-0.4213
X1.1299Y-0.4409
X1.1299Y-0.4606
X1.1465Y-0.2953
X1.1469Y-0.2555
X1.1472Y-0.3307
X1.1472Y-0.4488
X1.1476Y-0.4142
X1.1484Y-0.3799
X1.1579Y-0.3122
X1.1587Y-0.2732
X1.1602Y-0.3972
X1.1618Y-0.4311
X1.1693Y-0.2551
X1.1717Y-0.4504
X1.1724Y-0.2957
X1.1728Y-0.3799
X1.1732Y-0.3295
X1.1732Y-0.4138
X1.1929Y-0.2638
X1.1929Y-0.2835
X1.1929Y-0.3031
X1.1929Y-0.3228
X1.1929Y-0.3425
X1.1929Y-0.3622
X1.1929Y-0.3819
X1.1929Y-0.4016
X1.1929Y-0.4213
X1.1929Y-0.4409
X1.2031Y-0.6469
X1.2126Y-0.2441
X1.2126Y-0.2638
X1.2126Y-0.2835
X1.2126Y-0.3031
X1.2126Y-0.3228
X1.2126Y-0.3425
X1.2126Y-0.3622
X1.2126Y-0.3819
X1.2126Y-0.4016
X1.2126Y-0.4213
X1.2126Y-0.4409
X1.2126Y-0.4606
X1.215Y-0.5087
X1.2161Y-0.2028
X1.2323Y-0.2441
X1.2323Y-0.2638
X1.2323Y-0.2835
X1.2323Y-0.3031
X1.2323Y-0.3228
X1.2323Y-0.3425
X1.2323Y-0.3622
X1.2323Y-0.3819
X1.2323Y-0.4016
X1.2323Y-0.4213
X1.2323Y-0.4409
X1.2323Y-0.4606
X1.252Y-0.2441
X1.252Y-0.2638
X1.252Y-0.2835
X1.252Y-0.3031
X1.252Y-0.3228
X1.252Y-0.3425
X1.252Y-0.3622
X1.252Y-0.3819
X1.252Y-0.4016
X1.252Y-0.4213
X1.252Y-0.4409
X1.252Y-0.4606
X1.2717Y-0.2441
X1.2717Y-0.2638
X1.2717Y-0.2835
X1.2717Y-0.3031
X1.2717Y-0.3228
X1.2717Y-0.3425
X1.2717Y-0.3622
X1.2717Y-0.3819
X1.2717Y-0.4016
X1.2717Y-0.4213
X1.2717Y-0.4409
X1.2717Y-0.4606
X1.2913Y-0.2441
X1.2913Y-0.2638
X1.2913Y-0.2835
X1.2913Y-0.3031
X1.2913Y-0.3228
X1.2913Y-0.3425
X1.2913Y-0.3622
X1.2913Y-0.3819
X1.2913Y-0.4016
X1.2913Y-0.4213
X1.2913Y-0.4409
X1.2913Y-0.4606
X1.311Y-0.2441
X1.311Y-0.2638
X1.311Y-0.2835
X1.311Y-0.3031
X1.311Y-0.3228
X1.311Y-0.3425
X1.311Y-0.3622
X1.311Y-0.3819
X1.311Y-0.4016
X1.311Y-0.4213
X1.311Y-0.4409
X1.311Y-0.4606
X1.3307Y-0.2441
X1.3307Y-0.2638
X1.3307Y-0.2835
X1.3307Y-0.3031
X1.3307Y-0.3228
X1.3307Y-0.3425
X1.3307Y-0.3622
X1.3307Y-0.3819
X1.3307Y-0.4016
X1.3307Y-0.4213
X1.3307Y-0.4409
X1.3307Y-0.4606
X1.3898Y-0.1178
X1.3898Y-0.1507
X1.4557Y-0.1496
X1.4558Y-0.498
X1.4596Y-0.2592
X1.4622Y-0.4173
X1.4622Y-0.4488
T2
X1.122Y-0.1799
X1.122Y-0.5264
T0
M30
