G04 #@! TF.GenerationSoftware,KiCad,Pcbnew,5.0.1-33cea8e~68~ubuntu16.04.1*
G04 #@! TF.CreationDate,2018-10-31T23:40:33-04:00*
G04 #@! TF.ProjectId,motor controller,6D6F746F7220636F6E74726F6C6C6572,rev?*
G04 #@! TF.SameCoordinates,Original*
G04 #@! TF.FileFunction,Copper,L2,Bot,Signal*
G04 #@! TF.FilePolarity,Positive*
%FSLAX46Y46*%
G04 Gerber Fmt 4.6, Leading zero omitted, Abs format (unit mm)*
G04 Created by KiCad (PCBNEW 5.0.1-33cea8e~68~ubuntu16.04.1) date Wed 31 Oct 2018 11:40:33 PM EDT*
%MOMM*%
%LPD*%
G01*
G04 APERTURE LIST*
G04 #@! TA.AperFunction,SMDPad,CuDef*
%ADD10R,0.250000X0.700000*%
G04 #@! TD*
G04 #@! TA.AperFunction,SMDPad,CuDef*
%ADD11R,0.700000X0.250000*%
G04 #@! TD*
G04 #@! TA.AperFunction,SMDPad,CuDef*
%ADD12R,1.700000X1.700000*%
G04 #@! TD*
G04 #@! TA.AperFunction,SMDPad,CuDef*
%ADD13R,3.450000X3.450000*%
G04 #@! TD*
G04 #@! TA.AperFunction,ComponentPad*
%ADD14C,1.700000*%
G04 #@! TD*
G04 #@! TA.AperFunction,SMDPad,CuDef*
%ADD15R,0.650000X0.575000*%
G04 #@! TD*
G04 #@! TA.AperFunction,SMDPad,CuDef*
%ADD16R,1.220000X1.800000*%
G04 #@! TD*
G04 #@! TA.AperFunction,SMDPad,CuDef*
%ADD17R,0.575000X0.650000*%
G04 #@! TD*
G04 #@! TA.AperFunction,ViaPad*
%ADD18C,0.410000*%
G04 #@! TD*
G04 #@! TA.AperFunction,Conductor*
%ADD19C,0.150000*%
G04 #@! TD*
G04 #@! TA.AperFunction,Conductor*
%ADD20C,0.254000*%
G04 #@! TD*
G04 APERTURE END LIST*
D10*
G04 #@! TO.P,IC1,16*
G04 #@! TO.N,N/C*
X9250000Y-7550000D03*
G04 #@! TO.P,IC1,15*
X8750000Y-7550000D03*
G04 #@! TO.P,IC1,14*
X8250000Y-7550000D03*
G04 #@! TO.P,IC1,13*
G04 #@! TO.N,+3V3*
X7750000Y-7550000D03*
D11*
G04 #@! TO.P,IC1,12*
G04 #@! TO.N,SCK*
X7050000Y-8250000D03*
G04 #@! TO.P,IC1,11*
G04 #@! TO.N,N/C*
X7050000Y-8750000D03*
G04 #@! TO.P,IC1,10*
X7050000Y-9250000D03*
G04 #@! TO.P,IC1,9*
X7050000Y-9750000D03*
D10*
G04 #@! TO.P,IC1,8*
G04 #@! TO.N,GND*
X7750000Y-10450000D03*
G04 #@! TO.P,IC1,7*
G04 #@! TO.N,MISO*
X8250000Y-10450000D03*
G04 #@! TO.P,IC1,6*
G04 #@! TO.N,N/C*
X8750000Y-10450000D03*
G04 #@! TO.P,IC1,5*
G04 #@! TO.N,ENC_CS*
X9250000Y-10450000D03*
D11*
G04 #@! TO.P,IC1,4*
G04 #@! TO.N,MOSI*
X9950000Y-9750000D03*
G04 #@! TO.P,IC1,3*
G04 #@! TO.N,N/C*
X9950000Y-9250000D03*
G04 #@! TO.P,IC1,2*
X9950000Y-8750000D03*
G04 #@! TO.P,IC1,1*
X9950000Y-8250000D03*
D12*
G04 #@! TO.P,IC1,17*
G04 #@! TO.N,GND*
X8500000Y-9000000D03*
G04 #@! TD*
D11*
G04 #@! TO.P,U1,1*
G04 #@! TO.N,+3V3*
X11600000Y-15950000D03*
G04 #@! TO.P,U1,2*
G04 #@! TO.N,N/C*
X11600000Y-15450000D03*
G04 #@! TO.P,U1,3*
X11600000Y-14950000D03*
G04 #@! TO.P,U1,4*
X11600000Y-14450000D03*
G04 #@! TO.P,U1,5*
G04 #@! TO.N,+3V3*
X11600000Y-13950000D03*
G04 #@! TO.P,U1,6*
G04 #@! TO.N,signaling*
X11600000Y-13450000D03*
G04 #@! TO.P,U1,7*
G04 #@! TO.N,ENC_CS*
X11600000Y-12950000D03*
G04 #@! TO.P,U1,8*
G04 #@! TO.N,N/C*
X11600000Y-12450000D03*
D10*
G04 #@! TO.P,U1,9*
X12250000Y-11800000D03*
G04 #@! TO.P,U1,10*
G04 #@! TO.N,CS*
X12750000Y-11800000D03*
G04 #@! TO.P,U1,11*
G04 #@! TO.N,SCK*
X13250000Y-11800000D03*
G04 #@! TO.P,U1,12*
G04 #@! TO.N,MISO*
X13750000Y-11800000D03*
G04 #@! TO.P,U1,13*
G04 #@! TO.N,MOSI*
X14250000Y-11800000D03*
G04 #@! TO.P,U1,14*
G04 #@! TO.N,FB*
X14750000Y-11800000D03*
G04 #@! TO.P,U1,15*
G04 #@! TO.N,N/C*
X15250000Y-11800000D03*
G04 #@! TO.P,U1,16*
G04 #@! TO.N,GND*
X15750000Y-11800000D03*
D11*
G04 #@! TO.P,U1,17*
G04 #@! TO.N,+3V3*
X16400000Y-12450000D03*
G04 #@! TO.P,U1,18*
G04 #@! TO.N,N/C*
X16400000Y-12950000D03*
G04 #@! TO.P,U1,19*
X16400000Y-13450000D03*
G04 #@! TO.P,U1,20*
G04 #@! TO.N,D2*
X16400000Y-13950000D03*
G04 #@! TO.P,U1,21*
G04 #@! TO.N,IN1*
X16400000Y-14450000D03*
G04 #@! TO.P,U1,22*
G04 #@! TO.N,D1*
X16400000Y-14950000D03*
G04 #@! TO.P,U1,23*
G04 #@! TO.N,SWDIO*
X16400000Y-15450000D03*
G04 #@! TO.P,U1,24*
G04 #@! TO.N,SWCLK*
X16400000Y-15950000D03*
D10*
G04 #@! TO.P,U1,25*
G04 #@! TO.N,IN2*
X15750000Y-16600000D03*
G04 #@! TO.P,U1,26*
G04 #@! TO.N,CommsSCK*
X15250000Y-16600000D03*
G04 #@! TO.P,U1,27*
G04 #@! TO.N,CommsMISO*
X14750000Y-16600000D03*
G04 #@! TO.P,U1,28*
G04 #@! TO.N,CommsMOSI*
X14250000Y-16600000D03*
G04 #@! TO.P,U1,29*
G04 #@! TO.N,N/C*
X13750000Y-16600000D03*
G04 #@! TO.P,U1,30*
X13250000Y-16600000D03*
G04 #@! TO.P,U1,31*
G04 #@! TO.N,Net-(R1-Pad1)*
X12750000Y-16600000D03*
G04 #@! TO.P,U1,32*
G04 #@! TO.N,GND*
X12250000Y-16600000D03*
D13*
G04 #@! TO.P,U1,33*
X14000000Y-14200000D03*
G04 #@! TD*
D14*
G04 #@! TO.P,M1,1*
G04 #@! TO.N,OUT2*
X28500000Y-13370000D03*
G04 #@! TO.P,M1,2*
G04 #@! TO.N,OUT1*
X28500000Y-4570000D03*
G04 #@! TD*
D15*
G04 #@! TO.P,C5,2*
G04 #@! TO.N,GND*
X18120000Y-12275000D03*
G04 #@! TO.P,C5,1*
G04 #@! TO.N,FB*
X18120000Y-11500000D03*
G04 #@! TD*
D16*
G04 #@! TO.P,C7,2*
G04 #@! TO.N,GND*
X14770000Y-8000000D03*
G04 #@! TO.P,C7,1*
G04 #@! TO.N,+BATT*
X17630000Y-8000000D03*
G04 #@! TD*
D17*
G04 #@! TO.P,R1,2*
G04 #@! TO.N,GND*
X9385000Y-17230000D03*
G04 #@! TO.P,R1,1*
G04 #@! TO.N,Net-(R1-Pad1)*
X10160000Y-17230000D03*
G04 #@! TD*
D15*
G04 #@! TO.P,R4,1*
G04 #@! TO.N,FB*
X19150000Y-11502500D03*
G04 #@! TO.P,R4,2*
G04 #@! TO.N,GND*
X19150000Y-12277500D03*
G04 #@! TD*
D17*
G04 #@! TO.P,R5,1*
G04 #@! TO.N,Net-(IC2-Pad1)*
X18680000Y-16600000D03*
G04 #@! TO.P,R5,2*
G04 #@! TO.N,IN2*
X17905000Y-16600000D03*
G04 #@! TD*
G04 #@! TO.P,R6,2*
G04 #@! TO.N,IN1*
X19752500Y-14430000D03*
G04 #@! TO.P,R6,1*
G04 #@! TO.N,Net-(IC2-Pad2)*
X20527500Y-14430000D03*
G04 #@! TD*
G04 #@! TO.P,R8,2*
G04 #@! TO.N,Net-(IC2-Pad26)*
X18747500Y-15220000D03*
G04 #@! TO.P,R8,1*
G04 #@! TO.N,D1*
X17972500Y-15220000D03*
G04 #@! TD*
G04 #@! TO.P,R9,1*
G04 #@! TO.N,Net-(IC2-Pad16)*
X18830000Y-13770000D03*
G04 #@! TO.P,R9,2*
G04 #@! TO.N,D2*
X18055000Y-13770000D03*
G04 #@! TD*
G04 #@! TO.P,C4,1*
G04 #@! TO.N,+BATT*
X16587500Y-6400000D03*
G04 #@! TO.P,C4,2*
G04 #@! TO.N,GND*
X15812500Y-6400000D03*
G04 #@! TD*
D18*
G04 #@! TO.N,GND*
X29510000Y-10950000D03*
X29430000Y-6940000D03*
X26200000Y-11700000D03*
X26700000Y-11700000D03*
X27200000Y-11700000D03*
X27700000Y-11700000D03*
X28200000Y-11700000D03*
X28700000Y-11700000D03*
X28700000Y-11200000D03*
X28200000Y-11200000D03*
X27700000Y-11200000D03*
X27200000Y-11200000D03*
X26700000Y-11200000D03*
X26200000Y-10700000D03*
X26700000Y-10700000D03*
X27200000Y-10700000D03*
X27700000Y-10700000D03*
X28200000Y-10700000D03*
X28700000Y-10700000D03*
X28700000Y-10200000D03*
X28200000Y-10200000D03*
X27700000Y-10200000D03*
X27200000Y-10200000D03*
X26700000Y-10200000D03*
X26200000Y-10200000D03*
X26200000Y-9700000D03*
X26700000Y-9700000D03*
X27200000Y-9700000D03*
X27700000Y-9700000D03*
X28200000Y-9700000D03*
X28700000Y-9700000D03*
X28200000Y-9200000D03*
X27700000Y-9200000D03*
X27200000Y-9200000D03*
X26700000Y-9200000D03*
X26200000Y-9200000D03*
X26200000Y-8700000D03*
X26700000Y-8700000D03*
X27200000Y-8700000D03*
X27700000Y-8700000D03*
X28200000Y-8700000D03*
X28700000Y-8200000D03*
X28200000Y-8200000D03*
X27700000Y-8200000D03*
X27200000Y-8200000D03*
X26700000Y-8200000D03*
X26200000Y-8200000D03*
X28700000Y-7700000D03*
X28200000Y-7700000D03*
X27700000Y-7700000D03*
X27200000Y-7700000D03*
X26700000Y-7700000D03*
X26200000Y-7700000D03*
X26200000Y-7200000D03*
X26700000Y-7200000D03*
X27200000Y-7200000D03*
X27700000Y-7200000D03*
X28200000Y-7200000D03*
X28700000Y-7200000D03*
X28700000Y-6700000D03*
X28200000Y-6700000D03*
X27700000Y-6700000D03*
X27200000Y-6700000D03*
X26700000Y-6700000D03*
X26200000Y-6700000D03*
X30800000Y-11700000D03*
X31300000Y-11700000D03*
X31800000Y-11700000D03*
X32300000Y-11700000D03*
X32800000Y-11700000D03*
X33300000Y-11700000D03*
X33800000Y-11700000D03*
X30300000Y-11200000D03*
X30300000Y-10700000D03*
X30300000Y-10200000D03*
X30300000Y-9700000D03*
X30300000Y-9200000D03*
X30300000Y-8700000D03*
X30300000Y-8200000D03*
X30300000Y-7700000D03*
X30300000Y-7200000D03*
X30300000Y-6700000D03*
X33800000Y-6200000D03*
X33300000Y-6200000D03*
X32800000Y-6200000D03*
X32300000Y-6200000D03*
X31800000Y-6200000D03*
X31300000Y-6200000D03*
X30800000Y-6200000D03*
X28700000Y-6200000D03*
X28200000Y-6200000D03*
X27700000Y-6200000D03*
X27200000Y-6200000D03*
X26700000Y-6200000D03*
X26200000Y-6200000D03*
X1400000Y-9800000D03*
X21400000Y-7400000D03*
X15150000Y-8950000D03*
X15150000Y-10250000D03*
X15150000Y-9800000D03*
X15650000Y-9400000D03*
X15650000Y-9400000D03*
X15150000Y-9350000D03*
X15600000Y-8950000D03*
X15150000Y-8450000D03*
X15150000Y-8000000D03*
X15150000Y-7550000D03*
X14700000Y-6200000D03*
X15150000Y-6200000D03*
X15600000Y-6200000D03*
X15600000Y-6650000D03*
X15150000Y-6650000D03*
X14700000Y-6650000D03*
X14700000Y-7100000D03*
X15150000Y-7100000D03*
X15600000Y-7100000D03*
X15600000Y-7550000D03*
X14650000Y-7550000D03*
X14650000Y-8000000D03*
X15600000Y-8000000D03*
X15600000Y-8450000D03*
X14700000Y-8450000D03*
X14650000Y-8900000D03*
X14650000Y-9350000D03*
X15650000Y-9400000D03*
X14650000Y-9800000D03*
X15600000Y-9850000D03*
X14700000Y-10250000D03*
X15600000Y-10300000D03*
X15600000Y-10750000D03*
X14700000Y-10750000D03*
X21600000Y-15100000D03*
X33800000Y-6700000D03*
X33300000Y-6700000D03*
X32800000Y-6700000D03*
X32300000Y-6700000D03*
X31800000Y-6700000D03*
X31300000Y-6700000D03*
X30800000Y-6700000D03*
X30800000Y-7200000D03*
X31300000Y-7200000D03*
X31800000Y-7200000D03*
X32300000Y-7200000D03*
X32800000Y-7200000D03*
X33300000Y-7200000D03*
X33800000Y-7200000D03*
X33800000Y-7700000D03*
X33300000Y-7700000D03*
X32800000Y-7700000D03*
X32300000Y-7700000D03*
X31800000Y-7700000D03*
X31300000Y-7700000D03*
X30800000Y-7700000D03*
X30800000Y-8200000D03*
X31300000Y-8200000D03*
X31800000Y-8200000D03*
X32300000Y-8200000D03*
X32800000Y-8200000D03*
X33300000Y-8200000D03*
X33800000Y-8200000D03*
X33800000Y-8700000D03*
X33300000Y-8700000D03*
X32800000Y-8700000D03*
X32300000Y-8700000D03*
X31800000Y-8700000D03*
X31300000Y-8700000D03*
X30800000Y-8700000D03*
X30800000Y-9200000D03*
X31300000Y-9200000D03*
X31800000Y-9200000D03*
X32300000Y-9200000D03*
X32800000Y-9200000D03*
X33300000Y-9200000D03*
X33800000Y-9200000D03*
X33800000Y-9700000D03*
X33300000Y-9700000D03*
X32800000Y-9700000D03*
X32300000Y-9700000D03*
X31800000Y-9700000D03*
X31300000Y-9700000D03*
X30800000Y-9700000D03*
X30800000Y-10200000D03*
X31300000Y-10200000D03*
X31800000Y-10200000D03*
X32300000Y-10200000D03*
X32800000Y-10200000D03*
X33300000Y-10200000D03*
X33800000Y-10200000D03*
X33800000Y-10700000D03*
X33300000Y-10700000D03*
X32800000Y-10700000D03*
X32300000Y-10700000D03*
X31800000Y-10700000D03*
X31300000Y-10700000D03*
X30800000Y-10700000D03*
X30800000Y-11200000D03*
X31300000Y-11200000D03*
X31800000Y-11200000D03*
X32300000Y-11200000D03*
X32800000Y-11200000D03*
X33300000Y-11200000D03*
X33800000Y-11200000D03*
X26200000Y-11200000D03*
X24130000Y-16002000D03*
X29130000Y-6490000D03*
X29700000Y-6480000D03*
X29120000Y-7500000D03*
X29780000Y-7510000D03*
X29410000Y-7930000D03*
X29140000Y-8400000D03*
X29800000Y-8370000D03*
X29170000Y-9650000D03*
X29790000Y-9650000D03*
X29470000Y-10090000D03*
X29150000Y-10520000D03*
X29800000Y-10510000D03*
X29140000Y-11400000D03*
X29760000Y-11440000D03*
X15750000Y-11800000D03*
X7880000Y-12300000D03*
X7230000Y-13250000D03*
X23622000Y-16002990D03*
X35300000Y-2992990D03*
G04 #@! TO.N,+3V3*
X16400000Y-12450000D03*
X16400000Y-12450000D03*
X11600000Y-15950000D03*
X11600000Y-13950000D03*
X6300000Y-7830000D03*
X35300000Y-3827010D03*
X25400000Y-4420000D03*
G04 #@! TO.N,+BATT*
X17150000Y-8450000D03*
X17150000Y-7950000D03*
X17150000Y-7550000D03*
X16650000Y-6200000D03*
X16700000Y-6650000D03*
X17150000Y-7100000D03*
X17600000Y-7100000D03*
X17600000Y-7550000D03*
X17600000Y-8000000D03*
X17600000Y-8450000D03*
G04 #@! TO.N,FB*
X19150000Y-9840000D03*
X37072990Y-6583267D03*
X25540000Y-3550000D03*
G04 #@! TO.N,CS*
X12317998Y-11117998D03*
G04 #@! TO.N,MISO*
X8403000Y-12160305D03*
X9260000Y-12320000D03*
G04 #@! TO.N,Net-(IC2-Pad1)*
X36977010Y-12650000D03*
G04 #@! TO.N,Net-(IC2-Pad2)*
X37140000Y-11400000D03*
G04 #@! TO.N,Net-(IC2-Pad3)*
X36975000Y-3800000D03*
X37140000Y-10600000D03*
G04 #@! TO.N,Net-(IC2-Pad16)*
X19632200Y-9532200D03*
X26420000Y-3710000D03*
X30890000Y-5150000D03*
G04 #@! TO.N,Net-(IC2-Pad26)*
X30860000Y-12920000D03*
X21910000Y-17010000D03*
X30560000Y-16430000D03*
G04 #@! TO.N,SCK*
X8320000Y-12950000D03*
X9290000Y-12880000D03*
G04 #@! TO.N,SWDIO*
X16400000Y-15450000D03*
G04 #@! TO.N,SWCLK*
X16400000Y-15987013D03*
G04 #@! TO.N,signaling*
X5980000Y-11300000D03*
G04 #@! TO.N,CommsSCK*
X15287003Y-16600000D03*
G04 #@! TO.N,CommsMOSI*
X14212997Y-16600000D03*
G04 #@! TO.N,CommsMISO*
X14750000Y-16600000D03*
G04 #@! TD*
D19*
G04 #@! TO.N,+3V3*
X11100000Y-13950000D02*
X10860000Y-14190000D01*
X11600000Y-13950000D02*
X11100000Y-13950000D01*
X10860000Y-15710000D02*
X11100000Y-15950000D01*
X11100000Y-15950000D02*
X11600000Y-15950000D01*
X10860000Y-14190000D02*
X10860000Y-15710000D01*
X7750000Y-7550000D02*
X6790000Y-7550000D01*
X30792364Y-3140000D02*
X30792364Y-3140000D01*
X6504999Y-7625001D02*
X6714999Y-7625001D01*
X6714999Y-7625001D02*
X6790000Y-7550000D01*
X6300000Y-7830000D02*
X6504999Y-7625001D01*
X26390087Y-3140000D02*
X25997001Y-3533086D01*
X35300000Y-3827010D02*
X34877010Y-3827010D01*
X25604999Y-4215001D02*
X25400000Y-4420000D01*
X34190000Y-3140000D02*
X26390087Y-3140000D01*
X25997001Y-3822999D02*
X25604999Y-4215001D01*
X34877010Y-3827010D02*
X34190000Y-3140000D01*
X25997001Y-3533086D02*
X25997001Y-3822999D01*
G04 #@! TO.N,FB*
X17645000Y-11500000D02*
X18120000Y-11500000D01*
X14750000Y-11800000D02*
X14750000Y-11300000D01*
X14750000Y-11300000D02*
X14802001Y-11247999D01*
X17392999Y-11247999D02*
X17645000Y-11500000D01*
X14802001Y-11247999D02*
X17392999Y-11247999D01*
X19147500Y-11500000D02*
X19150000Y-11502500D01*
X18120000Y-11500000D02*
X19147500Y-11500000D01*
X19150000Y-11502500D02*
X19150000Y-9840000D01*
X35950000Y-3400000D02*
X34950000Y-3400000D01*
X36490000Y-3940000D02*
X35950000Y-3400000D01*
X25744999Y-3345001D02*
X25540000Y-3550000D01*
X34405001Y-2855001D02*
X26234999Y-2855001D01*
X26234999Y-2855001D02*
X25744999Y-3345001D01*
X34950000Y-3400000D02*
X34405001Y-2855001D01*
X36490000Y-6000277D02*
X36490000Y-3940000D01*
X37072990Y-6583267D02*
X36490000Y-6000277D01*
G04 #@! TO.N,MOSI*
X10450000Y-9750000D02*
X9950000Y-9750000D01*
X12700000Y-9750000D02*
X10450000Y-9750000D01*
X14250000Y-11300000D02*
X12700000Y-9750000D01*
X14250000Y-11800000D02*
X14250000Y-11300000D01*
G04 #@! TO.N,CS*
X12750000Y-11300000D02*
X12567998Y-11117998D01*
X12567998Y-11117998D02*
X12317998Y-11117998D01*
X12750000Y-11800000D02*
X12750000Y-11300000D01*
G04 #@! TO.N,MISO*
X8250000Y-12007305D02*
X8403000Y-12160305D01*
X8250000Y-10450000D02*
X8250000Y-12007305D01*
X9549913Y-12320000D02*
X9260000Y-12320000D01*
X12820000Y-10370000D02*
X11499913Y-10370000D01*
X13750000Y-11300000D02*
X12820000Y-10370000D01*
X13750000Y-11800000D02*
X13750000Y-11300000D01*
X11499913Y-10370000D02*
X9549913Y-12320000D01*
G04 #@! TO.N,Net-(IC2-Pad1)*
X18680000Y-16600000D02*
X20848248Y-16600000D01*
X36977010Y-12939913D02*
X36977010Y-12650000D01*
X36977010Y-14054742D02*
X36977010Y-12939913D01*
X21765259Y-17517011D02*
X33514741Y-17517011D01*
X33514741Y-17517011D02*
X36977010Y-14054742D01*
X20848248Y-16600000D02*
X21765259Y-17517011D01*
G04 #@! TO.N,Net-(IC2-Pad2)*
X37140000Y-11850000D02*
X36570000Y-12420000D01*
X22862500Y-17240000D02*
X20527500Y-14905000D01*
X20527500Y-14905000D02*
X20527500Y-14430000D01*
X36570000Y-12420000D02*
X36570000Y-14070000D01*
X37140000Y-11400000D02*
X37140000Y-11850000D01*
X33400000Y-17240000D02*
X22862500Y-17240000D01*
X36570000Y-14070000D02*
X33400000Y-17240000D01*
G04 #@! TO.N,Net-(IC2-Pad3)*
X36975000Y-3800000D02*
X36975000Y-4275000D01*
X37140000Y-10600000D02*
X37140000Y-7200000D01*
X37140000Y-7200000D02*
X37480000Y-6860000D01*
X37480000Y-6860000D02*
X37480000Y-6390000D01*
X36975000Y-5885000D02*
X36975000Y-4385000D01*
X37480000Y-6390000D02*
X36975000Y-5885000D01*
X36975000Y-4385000D02*
X36975000Y-3800000D01*
G04 #@! TO.N,Net-(IC2-Pad16)*
X18830000Y-13732500D02*
X20067199Y-12495301D01*
X20067199Y-9967199D02*
X19837199Y-9737199D01*
X20067199Y-12495301D02*
X20067199Y-9967199D01*
X18830000Y-13770000D02*
X18830000Y-13732500D01*
X19837199Y-9737199D02*
X19632200Y-9532200D01*
X26420000Y-3710000D02*
X26650000Y-3480000D01*
X26650000Y-3480000D02*
X29960000Y-3480000D01*
X30890000Y-4410000D02*
X30890000Y-5150000D01*
X29960000Y-3480000D02*
X30890000Y-4410000D01*
G04 #@! TO.N,Net-(IC2-Pad26)*
X20100000Y-15200000D02*
X21910000Y-17010000D01*
X18727500Y-15200000D02*
X20100000Y-15200000D01*
X30560000Y-16430000D02*
X30560000Y-14170000D01*
X30560000Y-14170000D02*
X30870000Y-13860000D01*
X30860000Y-13850000D02*
X30860000Y-12920000D01*
X30870000Y-13860000D02*
X30860000Y-13850000D01*
G04 #@! TO.N,Net-(R1-Pad1)*
X12750000Y-17100000D02*
X12750000Y-16600000D01*
X12620000Y-17230000D02*
X12750000Y-17100000D01*
X10160000Y-17230000D02*
X12620000Y-17230000D01*
G04 #@! TO.N,D1*
X16400000Y-14950000D02*
X16990000Y-14950000D01*
X17240000Y-15200000D02*
X17952500Y-15200000D01*
X16990000Y-14950000D02*
X17240000Y-15200000D01*
G04 #@! TO.N,D2*
X17792500Y-13950000D02*
X17982500Y-13760000D01*
X16400000Y-13950000D02*
X17792500Y-13950000D01*
G04 #@! TO.N,SCK*
X13250000Y-11300000D02*
X12660000Y-10710000D01*
X13250000Y-11800000D02*
X13250000Y-11300000D01*
X12660000Y-10710000D02*
X11750000Y-10710000D01*
X6550000Y-8250000D02*
X6270000Y-8530000D01*
X7050000Y-8250000D02*
X6550000Y-8250000D01*
X6270000Y-8530000D02*
X6270000Y-11180000D01*
X8040000Y-12950000D02*
X8320000Y-12950000D01*
X6270000Y-11180000D02*
X8040000Y-12950000D01*
X9784999Y-12675001D02*
X11750000Y-10710000D01*
X9494999Y-12675001D02*
X9784999Y-12675001D01*
X9290000Y-12880000D02*
X9494999Y-12675001D01*
G04 #@! TO.N,ENC_CS*
X11600000Y-12950000D02*
X11100000Y-12950000D01*
X10740000Y-12950000D02*
X11600000Y-12950000D01*
X10370000Y-13320000D02*
X10740000Y-12950000D01*
X9110000Y-13320000D02*
X10370000Y-13320000D01*
X9250000Y-10450000D02*
X9250000Y-10950000D01*
X8810000Y-11390000D02*
X8810000Y-13020000D01*
X9250000Y-10950000D02*
X8810000Y-11390000D01*
X8810000Y-13020000D02*
X9110000Y-13320000D01*
G04 #@! TO.N,signaling*
X11100000Y-13450000D02*
X10920000Y-13630000D01*
X11600000Y-13450000D02*
X11100000Y-13450000D01*
X10920000Y-13630000D02*
X8310000Y-13630000D01*
X8310000Y-13630000D02*
X5980000Y-11300000D01*
G04 #@! TO.N,IN2*
X15750000Y-16600000D02*
X17905000Y-16600000D01*
G04 #@! TO.N,IN1*
X19732500Y-14450000D02*
X19752500Y-14430000D01*
X16400000Y-14450000D02*
X19732500Y-14450000D01*
G04 #@! TO.N,CommsSCK*
X15250000Y-16600000D02*
X15287003Y-16600000D01*
G04 #@! TD*
D20*
G04 #@! TO.N,GND*
G36*
X34745015Y-558243D02*
X34747530Y-570335D01*
X34748198Y-582669D01*
X34756848Y-619258D01*
X34958255Y-1284251D01*
X34964812Y-1299332D01*
X34969458Y-1315117D01*
X34986293Y-1348735D01*
X35335279Y-1949559D01*
X35345133Y-1962731D01*
X35353283Y-1977020D01*
X35377400Y-2005863D01*
X35855245Y-2510287D01*
X35867864Y-2520838D01*
X35879084Y-2532870D01*
X35909189Y-2555391D01*
X36490261Y-2936360D01*
X36504975Y-2943728D01*
X36518656Y-2952852D01*
X36553135Y-2967844D01*
X37206263Y-3204918D01*
X37222266Y-3208701D01*
X37237690Y-3214437D01*
X37274693Y-3221094D01*
X37696400Y-3270260D01*
X37696400Y-6138910D01*
X37689731Y-6134454D01*
X37304000Y-5748724D01*
X37304000Y-4120123D01*
X37364121Y-4060002D01*
X37434000Y-3891301D01*
X37434000Y-3708699D01*
X37364121Y-3539998D01*
X37235002Y-3410879D01*
X37066301Y-3341000D01*
X36883699Y-3341000D01*
X36714998Y-3410879D01*
X36585879Y-3539998D01*
X36576915Y-3561639D01*
X36205548Y-3190272D01*
X36187195Y-3162805D01*
X36153066Y-3140000D01*
X36142461Y-3132915D01*
X36078369Y-3090089D01*
X35982401Y-3071000D01*
X35982396Y-3071000D01*
X35950000Y-3064556D01*
X35917604Y-3071000D01*
X35086277Y-3071000D01*
X34660549Y-2645273D01*
X34642196Y-2617806D01*
X34533370Y-2545090D01*
X34437402Y-2526001D01*
X34437397Y-2526001D01*
X34405001Y-2519557D01*
X34372605Y-2526001D01*
X26267397Y-2526001D01*
X26234999Y-2519557D01*
X26202601Y-2526001D01*
X26202598Y-2526001D01*
X26130194Y-2540403D01*
X26106629Y-2545090D01*
X26025272Y-2599452D01*
X25997804Y-2617806D01*
X25979451Y-2645273D01*
X25533724Y-3091000D01*
X25448699Y-3091000D01*
X25279998Y-3160879D01*
X25150879Y-3289998D01*
X25081000Y-3458699D01*
X25081000Y-3641301D01*
X25150879Y-3810002D01*
X25279998Y-3939121D01*
X25332818Y-3961000D01*
X25308699Y-3961000D01*
X25139998Y-4030879D01*
X25010879Y-4159998D01*
X24941000Y-4328699D01*
X24941000Y-4511301D01*
X25010879Y-4680002D01*
X25139998Y-4809121D01*
X25308699Y-4879000D01*
X25491301Y-4879000D01*
X25660002Y-4809121D01*
X25789121Y-4680002D01*
X25859000Y-4511301D01*
X25859000Y-4426276D01*
X26178494Y-4106782D01*
X26328699Y-4169000D01*
X26511301Y-4169000D01*
X26680002Y-4099121D01*
X26809121Y-3970002D01*
X26875811Y-3809000D01*
X27699708Y-3809000D01*
X27564074Y-3944634D01*
X27396000Y-4350401D01*
X27396000Y-4789599D01*
X27564074Y-5195366D01*
X27874634Y-5505926D01*
X28280401Y-5674000D01*
X28719599Y-5674000D01*
X29125366Y-5505926D01*
X29435926Y-5195366D01*
X29604000Y-4789599D01*
X29604000Y-4350401D01*
X29435926Y-3944634D01*
X29300292Y-3809000D01*
X29823724Y-3809000D01*
X30561000Y-4546276D01*
X30561001Y-4829876D01*
X30500879Y-4889998D01*
X30431000Y-5058699D01*
X30431000Y-5241301D01*
X30500879Y-5410002D01*
X30629998Y-5539121D01*
X30798699Y-5609000D01*
X30981301Y-5609000D01*
X31150002Y-5539121D01*
X31279121Y-5410002D01*
X31349000Y-5241301D01*
X31349000Y-5058699D01*
X31279121Y-4889998D01*
X31219000Y-4829877D01*
X31219000Y-4442398D01*
X31225444Y-4410000D01*
X31219000Y-4377600D01*
X31219000Y-4377599D01*
X31199911Y-4281631D01*
X31199911Y-4281630D01*
X31145549Y-4200273D01*
X31145548Y-4200272D01*
X31127195Y-4172805D01*
X31099728Y-4154452D01*
X30414276Y-3469000D01*
X34053724Y-3469000D01*
X34621464Y-4036741D01*
X34639815Y-4064205D01*
X34667279Y-4082556D01*
X34667282Y-4082559D01*
X34727373Y-4122710D01*
X34748641Y-4136921D01*
X34844609Y-4156010D01*
X34844613Y-4156010D01*
X34877010Y-4162454D01*
X34909406Y-4156010D01*
X34979877Y-4156010D01*
X35039998Y-4216131D01*
X35208699Y-4286010D01*
X35391301Y-4286010D01*
X35560002Y-4216131D01*
X35689121Y-4087012D01*
X35759000Y-3918311D01*
X35759000Y-3735709D01*
X35756221Y-3729000D01*
X35813724Y-3729000D01*
X36161001Y-4076277D01*
X36161000Y-5967880D01*
X36154556Y-6000277D01*
X36161000Y-6032673D01*
X36161000Y-6032677D01*
X36180089Y-6128645D01*
X36180090Y-6128646D01*
X36224367Y-6194911D01*
X36252805Y-6237472D01*
X36280272Y-6255825D01*
X36613990Y-6589543D01*
X36613990Y-6674568D01*
X36683869Y-6843269D01*
X36812988Y-6972388D01*
X36878320Y-6999450D01*
X36830090Y-7071631D01*
X36804556Y-7200000D01*
X36811001Y-7232401D01*
X36811000Y-10279877D01*
X36750879Y-10339998D01*
X36681000Y-10508699D01*
X36681000Y-10691301D01*
X36750879Y-10860002D01*
X36879998Y-10989121D01*
X36906262Y-11000000D01*
X36879998Y-11010879D01*
X36750879Y-11139998D01*
X36681000Y-11308699D01*
X36681000Y-11491301D01*
X36750879Y-11660002D01*
X36807801Y-11716924D01*
X36360272Y-12164452D01*
X36332805Y-12182805D01*
X36314452Y-12210272D01*
X36314451Y-12210273D01*
X36294754Y-12239752D01*
X36260089Y-12291632D01*
X36241000Y-12387600D01*
X36241000Y-12387604D01*
X36234556Y-12420000D01*
X36241000Y-12452397D01*
X36241001Y-13933722D01*
X33263724Y-16911000D01*
X22998776Y-16911000D01*
X22426475Y-16338699D01*
X30101000Y-16338699D01*
X30101000Y-16521301D01*
X30170879Y-16690002D01*
X30299998Y-16819121D01*
X30468699Y-16889000D01*
X30651301Y-16889000D01*
X30820002Y-16819121D01*
X30949121Y-16690002D01*
X31019000Y-16521301D01*
X31019000Y-16338699D01*
X30949121Y-16169998D01*
X30889000Y-16109877D01*
X30889000Y-14306276D01*
X31079729Y-14115547D01*
X31107195Y-14097195D01*
X31128023Y-14066024D01*
X31179910Y-13988370D01*
X31205444Y-13860001D01*
X31200268Y-13833976D01*
X31189000Y-13777329D01*
X31189000Y-13240123D01*
X31249121Y-13180002D01*
X31319000Y-13011301D01*
X31319000Y-12828699D01*
X31249121Y-12659998D01*
X31120002Y-12530879D01*
X30951301Y-12461000D01*
X30768699Y-12461000D01*
X30599998Y-12530879D01*
X30470879Y-12659998D01*
X30401000Y-12828699D01*
X30401000Y-13011301D01*
X30470879Y-13180002D01*
X30531001Y-13240124D01*
X30531000Y-13733724D01*
X30350270Y-13914454D01*
X30322806Y-13932805D01*
X30304455Y-13960269D01*
X30304451Y-13960273D01*
X30250090Y-14041631D01*
X30224556Y-14170000D01*
X30231001Y-14202401D01*
X30231000Y-16109877D01*
X30170879Y-16169998D01*
X30101000Y-16338699D01*
X22426475Y-16338699D01*
X21009250Y-14921474D01*
X21054263Y-14854106D01*
X21073976Y-14755000D01*
X21073976Y-14105000D01*
X21054263Y-14005894D01*
X20998124Y-13921876D01*
X20914106Y-13865737D01*
X20815000Y-13846024D01*
X20240000Y-13846024D01*
X20140894Y-13865737D01*
X20140000Y-13866334D01*
X20139106Y-13865737D01*
X20040000Y-13846024D01*
X19465000Y-13846024D01*
X19376476Y-13863632D01*
X19376476Y-13651300D01*
X19877375Y-13150401D01*
X27396000Y-13150401D01*
X27396000Y-13589599D01*
X27564074Y-13995366D01*
X27874634Y-14305926D01*
X28280401Y-14474000D01*
X28719599Y-14474000D01*
X29125366Y-14305926D01*
X29435926Y-13995366D01*
X29604000Y-13589599D01*
X29604000Y-13150401D01*
X29435926Y-12744634D01*
X29125366Y-12434074D01*
X28719599Y-12266000D01*
X28280401Y-12266000D01*
X27874634Y-12434074D01*
X27564074Y-12744634D01*
X27396000Y-13150401D01*
X19877375Y-13150401D01*
X20276927Y-12750849D01*
X20304394Y-12732496D01*
X20322748Y-12705028D01*
X20377110Y-12623671D01*
X20388576Y-12566024D01*
X20396199Y-12527702D01*
X20396199Y-12527699D01*
X20402643Y-12495301D01*
X20396199Y-12462903D01*
X20396199Y-9999595D01*
X20402643Y-9967198D01*
X20396199Y-9934802D01*
X20396199Y-9934798D01*
X20377110Y-9838830D01*
X20345954Y-9792202D01*
X20322748Y-9757471D01*
X20322745Y-9757468D01*
X20304394Y-9730004D01*
X20276929Y-9711652D01*
X20091200Y-9525924D01*
X20091200Y-9440899D01*
X20021321Y-9272198D01*
X19892202Y-9143079D01*
X19723501Y-9073200D01*
X19540899Y-9073200D01*
X19372198Y-9143079D01*
X19243079Y-9272198D01*
X19198011Y-9381000D01*
X19058699Y-9381000D01*
X18889998Y-9450879D01*
X18760879Y-9579998D01*
X18691000Y-9748699D01*
X18691000Y-9931301D01*
X18760879Y-10100002D01*
X18821001Y-10160124D01*
X18821000Y-10956820D01*
X18725894Y-10975737D01*
X18641876Y-11031876D01*
X18635835Y-11040917D01*
X18628124Y-11029376D01*
X18544106Y-10973237D01*
X18445000Y-10953524D01*
X17795000Y-10953524D01*
X17695894Y-10973237D01*
X17633119Y-11015182D01*
X17630194Y-11010804D01*
X17597744Y-10989121D01*
X17577713Y-10975737D01*
X17521368Y-10938088D01*
X17425400Y-10918999D01*
X17425395Y-10918999D01*
X17392999Y-10912555D01*
X17360603Y-10918999D01*
X14834399Y-10918999D01*
X14802001Y-10912555D01*
X14769603Y-10918999D01*
X14769600Y-10918999D01*
X14673632Y-10938088D01*
X14564806Y-11010804D01*
X14546452Y-11038273D01*
X14540272Y-11044453D01*
X14512806Y-11062805D01*
X14500001Y-11081970D01*
X14487195Y-11062805D01*
X14459731Y-11044454D01*
X12955548Y-9540272D01*
X12937195Y-9512805D01*
X12828369Y-9440089D01*
X12732401Y-9421000D01*
X12732396Y-9421000D01*
X12700000Y-9414556D01*
X12667604Y-9421000D01*
X10549826Y-9421000D01*
X10558976Y-9375000D01*
X10558976Y-9125000D01*
X10539263Y-9025894D01*
X10521961Y-9000000D01*
X10539263Y-8974106D01*
X10558976Y-8875000D01*
X10558976Y-8625000D01*
X10539263Y-8525894D01*
X10521961Y-8500000D01*
X10539263Y-8474106D01*
X10558976Y-8375000D01*
X10558976Y-8125000D01*
X10539263Y-8025894D01*
X10483124Y-7941876D01*
X10399106Y-7885737D01*
X10300000Y-7866024D01*
X9633976Y-7866024D01*
X9633976Y-7200000D01*
X9614263Y-7100894D01*
X9558124Y-7016876D01*
X9474106Y-6960737D01*
X9375000Y-6941024D01*
X9125000Y-6941024D01*
X9025894Y-6960737D01*
X9000000Y-6978039D01*
X8974106Y-6960737D01*
X8875000Y-6941024D01*
X8625000Y-6941024D01*
X8525894Y-6960737D01*
X8500000Y-6978039D01*
X8474106Y-6960737D01*
X8375000Y-6941024D01*
X8125000Y-6941024D01*
X8025894Y-6960737D01*
X8000000Y-6978039D01*
X7974106Y-6960737D01*
X7875000Y-6941024D01*
X7625000Y-6941024D01*
X7525894Y-6960737D01*
X7441876Y-7016876D01*
X7385737Y-7100894D01*
X7366024Y-7200000D01*
X7366024Y-7221000D01*
X6822396Y-7221000D01*
X6789999Y-7214556D01*
X6757603Y-7221000D01*
X6757599Y-7221000D01*
X6661631Y-7240089D01*
X6577954Y-7296001D01*
X6537395Y-7296001D01*
X6504998Y-7289557D01*
X6472602Y-7296001D01*
X6472598Y-7296001D01*
X6376630Y-7315090D01*
X6292956Y-7371000D01*
X6208699Y-7371000D01*
X6039998Y-7440879D01*
X5910879Y-7569998D01*
X5841000Y-7738699D01*
X5841000Y-7921301D01*
X5910879Y-8090002D01*
X6039998Y-8219121D01*
X6093458Y-8241265D01*
X6060272Y-8274452D01*
X6032805Y-8292805D01*
X6014452Y-8320272D01*
X6014451Y-8320273D01*
X5988776Y-8358699D01*
X5960089Y-8401632D01*
X5941000Y-8497600D01*
X5941000Y-8497604D01*
X5934556Y-8530000D01*
X5941000Y-8562397D01*
X5941001Y-10841000D01*
X5888699Y-10841000D01*
X5719998Y-10910879D01*
X5590879Y-11039998D01*
X5521000Y-11208699D01*
X5521000Y-11391301D01*
X5590879Y-11560002D01*
X5719998Y-11689121D01*
X5888699Y-11759000D01*
X5973724Y-11759000D01*
X8054452Y-13839728D01*
X8072805Y-13867195D01*
X8100272Y-13885548D01*
X8100273Y-13885549D01*
X8181630Y-13939911D01*
X8205195Y-13944598D01*
X8277599Y-13959000D01*
X8277602Y-13959000D01*
X8310000Y-13965444D01*
X8342398Y-13959000D01*
X10618666Y-13959000D01*
X10604452Y-13980272D01*
X10604451Y-13980273D01*
X10587332Y-14005894D01*
X10550089Y-14061632D01*
X10531000Y-14157600D01*
X10531000Y-14157604D01*
X10524556Y-14190000D01*
X10531000Y-14222397D01*
X10531001Y-15677599D01*
X10524556Y-15710000D01*
X10550090Y-15838369D01*
X10604451Y-15919727D01*
X10604455Y-15919731D01*
X10622806Y-15947195D01*
X10650270Y-15965546D01*
X10844452Y-16159728D01*
X10862805Y-16187195D01*
X10971631Y-16259911D01*
X11067599Y-16279000D01*
X11067603Y-16279000D01*
X11099999Y-16285444D01*
X11105982Y-16284254D01*
X11150894Y-16314263D01*
X11250000Y-16333976D01*
X11334853Y-16333976D01*
X11339998Y-16339121D01*
X11508699Y-16409000D01*
X11691301Y-16409000D01*
X11860002Y-16339121D01*
X11865147Y-16333976D01*
X11950000Y-16333976D01*
X12049106Y-16314263D01*
X12133124Y-16258124D01*
X12189263Y-16174106D01*
X12208976Y-16075000D01*
X12208976Y-15825000D01*
X12189263Y-15725894D01*
X12171961Y-15700000D01*
X12189263Y-15674106D01*
X12208976Y-15575000D01*
X12208976Y-15325000D01*
X12189263Y-15225894D01*
X12171961Y-15200000D01*
X12189263Y-15174106D01*
X12208976Y-15075000D01*
X12208976Y-14825000D01*
X12189263Y-14725894D01*
X12171961Y-14700000D01*
X12189263Y-14674106D01*
X12208976Y-14575000D01*
X12208976Y-14325000D01*
X12189263Y-14225894D01*
X12171961Y-14200000D01*
X12189263Y-14174106D01*
X12208976Y-14075000D01*
X12208976Y-13825000D01*
X12189263Y-13725894D01*
X12171961Y-13700000D01*
X12189263Y-13674106D01*
X12208976Y-13575000D01*
X12208976Y-13325000D01*
X12189263Y-13225894D01*
X12171961Y-13200000D01*
X12189263Y-13174106D01*
X12208976Y-13075000D01*
X12208976Y-12825000D01*
X12189263Y-12725894D01*
X12171961Y-12700000D01*
X12189263Y-12674106D01*
X12208976Y-12575000D01*
X12208976Y-12408976D01*
X12375000Y-12408976D01*
X12474106Y-12389263D01*
X12500000Y-12371961D01*
X12525894Y-12389263D01*
X12625000Y-12408976D01*
X12875000Y-12408976D01*
X12974106Y-12389263D01*
X13000000Y-12371961D01*
X13025894Y-12389263D01*
X13125000Y-12408976D01*
X13375000Y-12408976D01*
X13474106Y-12389263D01*
X13500000Y-12371961D01*
X13525894Y-12389263D01*
X13625000Y-12408976D01*
X13875000Y-12408976D01*
X13974106Y-12389263D01*
X14000000Y-12371961D01*
X14025894Y-12389263D01*
X14125000Y-12408976D01*
X14375000Y-12408976D01*
X14474106Y-12389263D01*
X14500000Y-12371961D01*
X14525894Y-12389263D01*
X14625000Y-12408976D01*
X14875000Y-12408976D01*
X14974106Y-12389263D01*
X15000000Y-12371961D01*
X15025894Y-12389263D01*
X15125000Y-12408976D01*
X15375000Y-12408976D01*
X15474106Y-12389263D01*
X15558124Y-12333124D01*
X15614263Y-12249106D01*
X15633976Y-12150000D01*
X15633976Y-11576999D01*
X17256723Y-11576999D01*
X17389451Y-11709727D01*
X17407805Y-11737195D01*
X17516631Y-11809911D01*
X17541464Y-11814851D01*
X17555737Y-11886606D01*
X17611876Y-11970624D01*
X17695894Y-12026763D01*
X17795000Y-12046476D01*
X18445000Y-12046476D01*
X18544106Y-12026763D01*
X18628124Y-11970624D01*
X18634165Y-11961583D01*
X18641876Y-11973124D01*
X18725894Y-12029263D01*
X18825000Y-12048976D01*
X19475000Y-12048976D01*
X19574106Y-12029263D01*
X19658124Y-11973124D01*
X19714263Y-11889106D01*
X19733976Y-11790000D01*
X19733976Y-11215000D01*
X19714263Y-11115894D01*
X19658124Y-11031876D01*
X19574106Y-10975737D01*
X19479000Y-10956820D01*
X19479000Y-10160123D01*
X19539121Y-10100002D01*
X19584189Y-9991200D01*
X19625924Y-9991200D01*
X19738200Y-10103477D01*
X19738199Y-12359025D01*
X18911200Y-13186024D01*
X18542500Y-13186024D01*
X18443394Y-13205737D01*
X18442500Y-13206334D01*
X18441606Y-13205737D01*
X18342500Y-13186024D01*
X17767500Y-13186024D01*
X17668394Y-13205737D01*
X17584376Y-13261876D01*
X17528237Y-13345894D01*
X17508524Y-13445000D01*
X17508524Y-13621000D01*
X16999826Y-13621000D01*
X17008976Y-13575000D01*
X17008976Y-13325000D01*
X16989263Y-13225894D01*
X16971961Y-13200000D01*
X16989263Y-13174106D01*
X17008976Y-13075000D01*
X17008976Y-12825000D01*
X16989263Y-12725894D01*
X16971961Y-12700000D01*
X16989263Y-12674106D01*
X17008976Y-12575000D01*
X17008976Y-12325000D01*
X16989263Y-12225894D01*
X16933124Y-12141876D01*
X16849106Y-12085737D01*
X16750000Y-12066024D01*
X16665147Y-12066024D01*
X16660002Y-12060879D01*
X16491301Y-11991000D01*
X16308699Y-11991000D01*
X16139998Y-12060879D01*
X16134853Y-12066024D01*
X16050000Y-12066024D01*
X15950894Y-12085737D01*
X15866876Y-12141876D01*
X15810737Y-12225894D01*
X15791024Y-12325000D01*
X15791024Y-12575000D01*
X15810737Y-12674106D01*
X15828039Y-12700000D01*
X15810737Y-12725894D01*
X15791024Y-12825000D01*
X15791024Y-13075000D01*
X15810737Y-13174106D01*
X15828039Y-13200000D01*
X15810737Y-13225894D01*
X15791024Y-13325000D01*
X15791024Y-13575000D01*
X15810737Y-13674106D01*
X15828039Y-13700000D01*
X15810737Y-13725894D01*
X15791024Y-13825000D01*
X15791024Y-14075000D01*
X15810737Y-14174106D01*
X15828039Y-14200000D01*
X15810737Y-14225894D01*
X15791024Y-14325000D01*
X15791024Y-14575000D01*
X15810737Y-14674106D01*
X15828039Y-14700000D01*
X15810737Y-14725894D01*
X15791024Y-14825000D01*
X15791024Y-15075000D01*
X15810737Y-15174106D01*
X15828039Y-15200000D01*
X15810737Y-15225894D01*
X15791024Y-15325000D01*
X15791024Y-15575000D01*
X15810737Y-15674106D01*
X15828039Y-15700000D01*
X15810737Y-15725894D01*
X15791024Y-15825000D01*
X15791024Y-15991024D01*
X15625000Y-15991024D01*
X15525894Y-16010737D01*
X15500000Y-16028039D01*
X15474106Y-16010737D01*
X15375000Y-15991024D01*
X15125000Y-15991024D01*
X15025894Y-16010737D01*
X15000000Y-16028039D01*
X14974106Y-16010737D01*
X14875000Y-15991024D01*
X14625000Y-15991024D01*
X14525894Y-16010737D01*
X14500000Y-16028039D01*
X14474106Y-16010737D01*
X14375000Y-15991024D01*
X14125000Y-15991024D01*
X14025894Y-16010737D01*
X14000000Y-16028039D01*
X13974106Y-16010737D01*
X13875000Y-15991024D01*
X13625000Y-15991024D01*
X13525894Y-16010737D01*
X13500000Y-16028039D01*
X13474106Y-16010737D01*
X13375000Y-15991024D01*
X13125000Y-15991024D01*
X13025894Y-16010737D01*
X13000000Y-16028039D01*
X12974106Y-16010737D01*
X12875000Y-15991024D01*
X12625000Y-15991024D01*
X12525894Y-16010737D01*
X12441876Y-16066876D01*
X12385737Y-16150894D01*
X12366024Y-16250000D01*
X12366024Y-16901000D01*
X10705680Y-16901000D01*
X10686763Y-16805894D01*
X10630624Y-16721876D01*
X10546606Y-16665737D01*
X10447500Y-16646024D01*
X9872500Y-16646024D01*
X9773394Y-16665737D01*
X9689376Y-16721876D01*
X9633237Y-16805894D01*
X9613524Y-16905000D01*
X9613524Y-17555000D01*
X9633237Y-17654106D01*
X9661497Y-17696400D01*
X3277711Y-17696400D01*
X3254985Y-17441758D01*
X3252470Y-17429666D01*
X3251802Y-17417331D01*
X3243152Y-17380742D01*
X3041745Y-16715749D01*
X3035186Y-16700663D01*
X3030541Y-16684883D01*
X3013707Y-16651265D01*
X2664721Y-16050441D01*
X2654865Y-16037266D01*
X2646716Y-16022980D01*
X2622600Y-15994137D01*
X2144755Y-15489713D01*
X2132136Y-15479162D01*
X2120916Y-15467130D01*
X2090811Y-15444609D01*
X1509739Y-15063641D01*
X1495029Y-15056275D01*
X1481344Y-15047148D01*
X1446873Y-15032159D01*
X1446866Y-15032156D01*
X1446863Y-15032155D01*
X793737Y-14795082D01*
X777732Y-14791299D01*
X762310Y-14785563D01*
X725307Y-14778906D01*
X303600Y-14729740D01*
X303600Y-6075000D01*
X16041024Y-6075000D01*
X16041024Y-6725000D01*
X16060737Y-6824106D01*
X16116876Y-6908124D01*
X16200894Y-6964263D01*
X16300000Y-6983976D01*
X16384853Y-6983976D01*
X16439998Y-7039121D01*
X16608699Y-7109000D01*
X16691000Y-7109000D01*
X16691000Y-7191301D01*
X16746381Y-7325000D01*
X16691000Y-7458699D01*
X16691000Y-7641301D01*
X16736025Y-7750000D01*
X16691000Y-7858699D01*
X16691000Y-8041301D01*
X16756736Y-8200000D01*
X16691000Y-8358699D01*
X16691000Y-8541301D01*
X16760879Y-8710002D01*
X16761024Y-8710147D01*
X16761024Y-8900000D01*
X16780737Y-8999106D01*
X16836876Y-9083124D01*
X16920894Y-9139263D01*
X17020000Y-9158976D01*
X18240000Y-9158976D01*
X18339106Y-9139263D01*
X18423124Y-9083124D01*
X18479263Y-8999106D01*
X18498976Y-8900000D01*
X18498976Y-7100000D01*
X18479263Y-7000894D01*
X18423124Y-6916876D01*
X18339106Y-6860737D01*
X18240000Y-6841024D01*
X17989546Y-6841024D01*
X17989121Y-6839998D01*
X17860002Y-6710879D01*
X17691301Y-6641000D01*
X17508699Y-6641000D01*
X17375000Y-6696381D01*
X17241301Y-6641000D01*
X17159000Y-6641000D01*
X17159000Y-6558699D01*
X17133976Y-6498286D01*
X17133976Y-6075000D01*
X17114263Y-5975894D01*
X17058124Y-5891876D01*
X16974106Y-5835737D01*
X16925115Y-5825992D01*
X16910002Y-5810879D01*
X16741301Y-5741000D01*
X16558699Y-5741000D01*
X16389998Y-5810879D01*
X16384853Y-5816024D01*
X16300000Y-5816024D01*
X16200894Y-5835737D01*
X16116876Y-5891876D01*
X16060737Y-5975894D01*
X16041024Y-6075000D01*
X303600Y-6075000D01*
X303600Y-3277711D01*
X558243Y-3254985D01*
X570335Y-3252470D01*
X582669Y-3251802D01*
X619258Y-3243152D01*
X1284251Y-3041745D01*
X1299332Y-3035188D01*
X1315117Y-3030542D01*
X1348735Y-3013707D01*
X1949559Y-2664721D01*
X1962731Y-2654867D01*
X1977020Y-2646717D01*
X2005863Y-2622600D01*
X2510287Y-2144755D01*
X2520838Y-2132136D01*
X2532870Y-2120916D01*
X2555391Y-2090811D01*
X2936360Y-1509739D01*
X2943728Y-1495025D01*
X2952852Y-1481344D01*
X2967844Y-1446865D01*
X3204918Y-793737D01*
X3208701Y-777734D01*
X3214437Y-762310D01*
X3221094Y-725307D01*
X3267345Y-328600D01*
X34724520Y-328600D01*
X34745015Y-558243D01*
X34745015Y-558243D01*
G37*
X34745015Y-558243D02*
X34747530Y-570335D01*
X34748198Y-582669D01*
X34756848Y-619258D01*
X34958255Y-1284251D01*
X34964812Y-1299332D01*
X34969458Y-1315117D01*
X34986293Y-1348735D01*
X35335279Y-1949559D01*
X35345133Y-1962731D01*
X35353283Y-1977020D01*
X35377400Y-2005863D01*
X35855245Y-2510287D01*
X35867864Y-2520838D01*
X35879084Y-2532870D01*
X35909189Y-2555391D01*
X36490261Y-2936360D01*
X36504975Y-2943728D01*
X36518656Y-2952852D01*
X36553135Y-2967844D01*
X37206263Y-3204918D01*
X37222266Y-3208701D01*
X37237690Y-3214437D01*
X37274693Y-3221094D01*
X37696400Y-3270260D01*
X37696400Y-6138910D01*
X37689731Y-6134454D01*
X37304000Y-5748724D01*
X37304000Y-4120123D01*
X37364121Y-4060002D01*
X37434000Y-3891301D01*
X37434000Y-3708699D01*
X37364121Y-3539998D01*
X37235002Y-3410879D01*
X37066301Y-3341000D01*
X36883699Y-3341000D01*
X36714998Y-3410879D01*
X36585879Y-3539998D01*
X36576915Y-3561639D01*
X36205548Y-3190272D01*
X36187195Y-3162805D01*
X36153066Y-3140000D01*
X36142461Y-3132915D01*
X36078369Y-3090089D01*
X35982401Y-3071000D01*
X35982396Y-3071000D01*
X35950000Y-3064556D01*
X35917604Y-3071000D01*
X35086277Y-3071000D01*
X34660549Y-2645273D01*
X34642196Y-2617806D01*
X34533370Y-2545090D01*
X34437402Y-2526001D01*
X34437397Y-2526001D01*
X34405001Y-2519557D01*
X34372605Y-2526001D01*
X26267397Y-2526001D01*
X26234999Y-2519557D01*
X26202601Y-2526001D01*
X26202598Y-2526001D01*
X26130194Y-2540403D01*
X26106629Y-2545090D01*
X26025272Y-2599452D01*
X25997804Y-2617806D01*
X25979451Y-2645273D01*
X25533724Y-3091000D01*
X25448699Y-3091000D01*
X25279998Y-3160879D01*
X25150879Y-3289998D01*
X25081000Y-3458699D01*
X25081000Y-3641301D01*
X25150879Y-3810002D01*
X25279998Y-3939121D01*
X25332818Y-3961000D01*
X25308699Y-3961000D01*
X25139998Y-4030879D01*
X25010879Y-4159998D01*
X24941000Y-4328699D01*
X24941000Y-4511301D01*
X25010879Y-4680002D01*
X25139998Y-4809121D01*
X25308699Y-4879000D01*
X25491301Y-4879000D01*
X25660002Y-4809121D01*
X25789121Y-4680002D01*
X25859000Y-4511301D01*
X25859000Y-4426276D01*
X26178494Y-4106782D01*
X26328699Y-4169000D01*
X26511301Y-4169000D01*
X26680002Y-4099121D01*
X26809121Y-3970002D01*
X26875811Y-3809000D01*
X27699708Y-3809000D01*
X27564074Y-3944634D01*
X27396000Y-4350401D01*
X27396000Y-4789599D01*
X27564074Y-5195366D01*
X27874634Y-5505926D01*
X28280401Y-5674000D01*
X28719599Y-5674000D01*
X29125366Y-5505926D01*
X29435926Y-5195366D01*
X29604000Y-4789599D01*
X29604000Y-4350401D01*
X29435926Y-3944634D01*
X29300292Y-3809000D01*
X29823724Y-3809000D01*
X30561000Y-4546276D01*
X30561001Y-4829876D01*
X30500879Y-4889998D01*
X30431000Y-5058699D01*
X30431000Y-5241301D01*
X30500879Y-5410002D01*
X30629998Y-5539121D01*
X30798699Y-5609000D01*
X30981301Y-5609000D01*
X31150002Y-5539121D01*
X31279121Y-5410002D01*
X31349000Y-5241301D01*
X31349000Y-5058699D01*
X31279121Y-4889998D01*
X31219000Y-4829877D01*
X31219000Y-4442398D01*
X31225444Y-4410000D01*
X31219000Y-4377600D01*
X31219000Y-4377599D01*
X31199911Y-4281631D01*
X31199911Y-4281630D01*
X31145549Y-4200273D01*
X31145548Y-4200272D01*
X31127195Y-4172805D01*
X31099728Y-4154452D01*
X30414276Y-3469000D01*
X34053724Y-3469000D01*
X34621464Y-4036741D01*
X34639815Y-4064205D01*
X34667279Y-4082556D01*
X34667282Y-4082559D01*
X34727373Y-4122710D01*
X34748641Y-4136921D01*
X34844609Y-4156010D01*
X34844613Y-4156010D01*
X34877010Y-4162454D01*
X34909406Y-4156010D01*
X34979877Y-4156010D01*
X35039998Y-4216131D01*
X35208699Y-4286010D01*
X35391301Y-4286010D01*
X35560002Y-4216131D01*
X35689121Y-4087012D01*
X35759000Y-3918311D01*
X35759000Y-3735709D01*
X35756221Y-3729000D01*
X35813724Y-3729000D01*
X36161001Y-4076277D01*
X36161000Y-5967880D01*
X36154556Y-6000277D01*
X36161000Y-6032673D01*
X36161000Y-6032677D01*
X36180089Y-6128645D01*
X36180090Y-6128646D01*
X36224367Y-6194911D01*
X36252805Y-6237472D01*
X36280272Y-6255825D01*
X36613990Y-6589543D01*
X36613990Y-6674568D01*
X36683869Y-6843269D01*
X36812988Y-6972388D01*
X36878320Y-6999450D01*
X36830090Y-7071631D01*
X36804556Y-7200000D01*
X36811001Y-7232401D01*
X36811000Y-10279877D01*
X36750879Y-10339998D01*
X36681000Y-10508699D01*
X36681000Y-10691301D01*
X36750879Y-10860002D01*
X36879998Y-10989121D01*
X36906262Y-11000000D01*
X36879998Y-11010879D01*
X36750879Y-11139998D01*
X36681000Y-11308699D01*
X36681000Y-11491301D01*
X36750879Y-11660002D01*
X36807801Y-11716924D01*
X36360272Y-12164452D01*
X36332805Y-12182805D01*
X36314452Y-12210272D01*
X36314451Y-12210273D01*
X36294754Y-12239752D01*
X36260089Y-12291632D01*
X36241000Y-12387600D01*
X36241000Y-12387604D01*
X36234556Y-12420000D01*
X36241000Y-12452397D01*
X36241001Y-13933722D01*
X33263724Y-16911000D01*
X22998776Y-16911000D01*
X22426475Y-16338699D01*
X30101000Y-16338699D01*
X30101000Y-16521301D01*
X30170879Y-16690002D01*
X30299998Y-16819121D01*
X30468699Y-16889000D01*
X30651301Y-16889000D01*
X30820002Y-16819121D01*
X30949121Y-16690002D01*
X31019000Y-16521301D01*
X31019000Y-16338699D01*
X30949121Y-16169998D01*
X30889000Y-16109877D01*
X30889000Y-14306276D01*
X31079729Y-14115547D01*
X31107195Y-14097195D01*
X31128023Y-14066024D01*
X31179910Y-13988370D01*
X31205444Y-13860001D01*
X31200268Y-13833976D01*
X31189000Y-13777329D01*
X31189000Y-13240123D01*
X31249121Y-13180002D01*
X31319000Y-13011301D01*
X31319000Y-12828699D01*
X31249121Y-12659998D01*
X31120002Y-12530879D01*
X30951301Y-12461000D01*
X30768699Y-12461000D01*
X30599998Y-12530879D01*
X30470879Y-12659998D01*
X30401000Y-12828699D01*
X30401000Y-13011301D01*
X30470879Y-13180002D01*
X30531001Y-13240124D01*
X30531000Y-13733724D01*
X30350270Y-13914454D01*
X30322806Y-13932805D01*
X30304455Y-13960269D01*
X30304451Y-13960273D01*
X30250090Y-14041631D01*
X30224556Y-14170000D01*
X30231001Y-14202401D01*
X30231000Y-16109877D01*
X30170879Y-16169998D01*
X30101000Y-16338699D01*
X22426475Y-16338699D01*
X21009250Y-14921474D01*
X21054263Y-14854106D01*
X21073976Y-14755000D01*
X21073976Y-14105000D01*
X21054263Y-14005894D01*
X20998124Y-13921876D01*
X20914106Y-13865737D01*
X20815000Y-13846024D01*
X20240000Y-13846024D01*
X20140894Y-13865737D01*
X20140000Y-13866334D01*
X20139106Y-13865737D01*
X20040000Y-13846024D01*
X19465000Y-13846024D01*
X19376476Y-13863632D01*
X19376476Y-13651300D01*
X19877375Y-13150401D01*
X27396000Y-13150401D01*
X27396000Y-13589599D01*
X27564074Y-13995366D01*
X27874634Y-14305926D01*
X28280401Y-14474000D01*
X28719599Y-14474000D01*
X29125366Y-14305926D01*
X29435926Y-13995366D01*
X29604000Y-13589599D01*
X29604000Y-13150401D01*
X29435926Y-12744634D01*
X29125366Y-12434074D01*
X28719599Y-12266000D01*
X28280401Y-12266000D01*
X27874634Y-12434074D01*
X27564074Y-12744634D01*
X27396000Y-13150401D01*
X19877375Y-13150401D01*
X20276927Y-12750849D01*
X20304394Y-12732496D01*
X20322748Y-12705028D01*
X20377110Y-12623671D01*
X20388576Y-12566024D01*
X20396199Y-12527702D01*
X20396199Y-12527699D01*
X20402643Y-12495301D01*
X20396199Y-12462903D01*
X20396199Y-9999595D01*
X20402643Y-9967198D01*
X20396199Y-9934802D01*
X20396199Y-9934798D01*
X20377110Y-9838830D01*
X20345954Y-9792202D01*
X20322748Y-9757471D01*
X20322745Y-9757468D01*
X20304394Y-9730004D01*
X20276929Y-9711652D01*
X20091200Y-9525924D01*
X20091200Y-9440899D01*
X20021321Y-9272198D01*
X19892202Y-9143079D01*
X19723501Y-9073200D01*
X19540899Y-9073200D01*
X19372198Y-9143079D01*
X19243079Y-9272198D01*
X19198011Y-9381000D01*
X19058699Y-9381000D01*
X18889998Y-9450879D01*
X18760879Y-9579998D01*
X18691000Y-9748699D01*
X18691000Y-9931301D01*
X18760879Y-10100002D01*
X18821001Y-10160124D01*
X18821000Y-10956820D01*
X18725894Y-10975737D01*
X18641876Y-11031876D01*
X18635835Y-11040917D01*
X18628124Y-11029376D01*
X18544106Y-10973237D01*
X18445000Y-10953524D01*
X17795000Y-10953524D01*
X17695894Y-10973237D01*
X17633119Y-11015182D01*
X17630194Y-11010804D01*
X17597744Y-10989121D01*
X17577713Y-10975737D01*
X17521368Y-10938088D01*
X17425400Y-10918999D01*
X17425395Y-10918999D01*
X17392999Y-10912555D01*
X17360603Y-10918999D01*
X14834399Y-10918999D01*
X14802001Y-10912555D01*
X14769603Y-10918999D01*
X14769600Y-10918999D01*
X14673632Y-10938088D01*
X14564806Y-11010804D01*
X14546452Y-11038273D01*
X14540272Y-11044453D01*
X14512806Y-11062805D01*
X14500001Y-11081970D01*
X14487195Y-11062805D01*
X14459731Y-11044454D01*
X12955548Y-9540272D01*
X12937195Y-9512805D01*
X12828369Y-9440089D01*
X12732401Y-9421000D01*
X12732396Y-9421000D01*
X12700000Y-9414556D01*
X12667604Y-9421000D01*
X10549826Y-9421000D01*
X10558976Y-9375000D01*
X10558976Y-9125000D01*
X10539263Y-9025894D01*
X10521961Y-9000000D01*
X10539263Y-8974106D01*
X10558976Y-8875000D01*
X10558976Y-8625000D01*
X10539263Y-8525894D01*
X10521961Y-8500000D01*
X10539263Y-8474106D01*
X10558976Y-8375000D01*
X10558976Y-8125000D01*
X10539263Y-8025894D01*
X10483124Y-7941876D01*
X10399106Y-7885737D01*
X10300000Y-7866024D01*
X9633976Y-7866024D01*
X9633976Y-7200000D01*
X9614263Y-7100894D01*
X9558124Y-7016876D01*
X9474106Y-6960737D01*
X9375000Y-6941024D01*
X9125000Y-6941024D01*
X9025894Y-6960737D01*
X9000000Y-6978039D01*
X8974106Y-6960737D01*
X8875000Y-6941024D01*
X8625000Y-6941024D01*
X8525894Y-6960737D01*
X8500000Y-6978039D01*
X8474106Y-6960737D01*
X8375000Y-6941024D01*
X8125000Y-6941024D01*
X8025894Y-6960737D01*
X8000000Y-6978039D01*
X7974106Y-6960737D01*
X7875000Y-6941024D01*
X7625000Y-6941024D01*
X7525894Y-6960737D01*
X7441876Y-7016876D01*
X7385737Y-7100894D01*
X7366024Y-7200000D01*
X7366024Y-7221000D01*
X6822396Y-7221000D01*
X6789999Y-7214556D01*
X6757603Y-7221000D01*
X6757599Y-7221000D01*
X6661631Y-7240089D01*
X6577954Y-7296001D01*
X6537395Y-7296001D01*
X6504998Y-7289557D01*
X6472602Y-7296001D01*
X6472598Y-7296001D01*
X6376630Y-7315090D01*
X6292956Y-7371000D01*
X6208699Y-7371000D01*
X6039998Y-7440879D01*
X5910879Y-7569998D01*
X5841000Y-7738699D01*
X5841000Y-7921301D01*
X5910879Y-8090002D01*
X6039998Y-8219121D01*
X6093458Y-8241265D01*
X6060272Y-8274452D01*
X6032805Y-8292805D01*
X6014452Y-8320272D01*
X6014451Y-8320273D01*
X5988776Y-8358699D01*
X5960089Y-8401632D01*
X5941000Y-8497600D01*
X5941000Y-8497604D01*
X5934556Y-8530000D01*
X5941000Y-8562397D01*
X5941001Y-10841000D01*
X5888699Y-10841000D01*
X5719998Y-10910879D01*
X5590879Y-11039998D01*
X5521000Y-11208699D01*
X5521000Y-11391301D01*
X5590879Y-11560002D01*
X5719998Y-11689121D01*
X5888699Y-11759000D01*
X5973724Y-11759000D01*
X8054452Y-13839728D01*
X8072805Y-13867195D01*
X8100272Y-13885548D01*
X8100273Y-13885549D01*
X8181630Y-13939911D01*
X8205195Y-13944598D01*
X8277599Y-13959000D01*
X8277602Y-13959000D01*
X8310000Y-13965444D01*
X8342398Y-13959000D01*
X10618666Y-13959000D01*
X10604452Y-13980272D01*
X10604451Y-13980273D01*
X10587332Y-14005894D01*
X10550089Y-14061632D01*
X10531000Y-14157600D01*
X10531000Y-14157604D01*
X10524556Y-14190000D01*
X10531000Y-14222397D01*
X10531001Y-15677599D01*
X10524556Y-15710000D01*
X10550090Y-15838369D01*
X10604451Y-15919727D01*
X10604455Y-15919731D01*
X10622806Y-15947195D01*
X10650270Y-15965546D01*
X10844452Y-16159728D01*
X10862805Y-16187195D01*
X10971631Y-16259911D01*
X11067599Y-16279000D01*
X11067603Y-16279000D01*
X11099999Y-16285444D01*
X11105982Y-16284254D01*
X11150894Y-16314263D01*
X11250000Y-16333976D01*
X11334853Y-16333976D01*
X11339998Y-16339121D01*
X11508699Y-16409000D01*
X11691301Y-16409000D01*
X11860002Y-16339121D01*
X11865147Y-16333976D01*
X11950000Y-16333976D01*
X12049106Y-16314263D01*
X12133124Y-16258124D01*
X12189263Y-16174106D01*
X12208976Y-16075000D01*
X12208976Y-15825000D01*
X12189263Y-15725894D01*
X12171961Y-15700000D01*
X12189263Y-15674106D01*
X12208976Y-15575000D01*
X12208976Y-15325000D01*
X12189263Y-15225894D01*
X12171961Y-15200000D01*
X12189263Y-15174106D01*
X12208976Y-15075000D01*
X12208976Y-14825000D01*
X12189263Y-14725894D01*
X12171961Y-14700000D01*
X12189263Y-14674106D01*
X12208976Y-14575000D01*
X12208976Y-14325000D01*
X12189263Y-14225894D01*
X12171961Y-14200000D01*
X12189263Y-14174106D01*
X12208976Y-14075000D01*
X12208976Y-13825000D01*
X12189263Y-13725894D01*
X12171961Y-13700000D01*
X12189263Y-13674106D01*
X12208976Y-13575000D01*
X12208976Y-13325000D01*
X12189263Y-13225894D01*
X12171961Y-13200000D01*
X12189263Y-13174106D01*
X12208976Y-13075000D01*
X12208976Y-12825000D01*
X12189263Y-12725894D01*
X12171961Y-12700000D01*
X12189263Y-12674106D01*
X12208976Y-12575000D01*
X12208976Y-12408976D01*
X12375000Y-12408976D01*
X12474106Y-12389263D01*
X12500000Y-12371961D01*
X12525894Y-12389263D01*
X12625000Y-12408976D01*
X12875000Y-12408976D01*
X12974106Y-12389263D01*
X13000000Y-12371961D01*
X13025894Y-12389263D01*
X13125000Y-12408976D01*
X13375000Y-12408976D01*
X13474106Y-12389263D01*
X13500000Y-12371961D01*
X13525894Y-12389263D01*
X13625000Y-12408976D01*
X13875000Y-12408976D01*
X13974106Y-12389263D01*
X14000000Y-12371961D01*
X14025894Y-12389263D01*
X14125000Y-12408976D01*
X14375000Y-12408976D01*
X14474106Y-12389263D01*
X14500000Y-12371961D01*
X14525894Y-12389263D01*
X14625000Y-12408976D01*
X14875000Y-12408976D01*
X14974106Y-12389263D01*
X15000000Y-12371961D01*
X15025894Y-12389263D01*
X15125000Y-12408976D01*
X15375000Y-12408976D01*
X15474106Y-12389263D01*
X15558124Y-12333124D01*
X15614263Y-12249106D01*
X15633976Y-12150000D01*
X15633976Y-11576999D01*
X17256723Y-11576999D01*
X17389451Y-11709727D01*
X17407805Y-11737195D01*
X17516631Y-11809911D01*
X17541464Y-11814851D01*
X17555737Y-11886606D01*
X17611876Y-11970624D01*
X17695894Y-12026763D01*
X17795000Y-12046476D01*
X18445000Y-12046476D01*
X18544106Y-12026763D01*
X18628124Y-11970624D01*
X18634165Y-11961583D01*
X18641876Y-11973124D01*
X18725894Y-12029263D01*
X18825000Y-12048976D01*
X19475000Y-12048976D01*
X19574106Y-12029263D01*
X19658124Y-11973124D01*
X19714263Y-11889106D01*
X19733976Y-11790000D01*
X19733976Y-11215000D01*
X19714263Y-11115894D01*
X19658124Y-11031876D01*
X19574106Y-10975737D01*
X19479000Y-10956820D01*
X19479000Y-10160123D01*
X19539121Y-10100002D01*
X19584189Y-9991200D01*
X19625924Y-9991200D01*
X19738200Y-10103477D01*
X19738199Y-12359025D01*
X18911200Y-13186024D01*
X18542500Y-13186024D01*
X18443394Y-13205737D01*
X18442500Y-13206334D01*
X18441606Y-13205737D01*
X18342500Y-13186024D01*
X17767500Y-13186024D01*
X17668394Y-13205737D01*
X17584376Y-13261876D01*
X17528237Y-13345894D01*
X17508524Y-13445000D01*
X17508524Y-13621000D01*
X16999826Y-13621000D01*
X17008976Y-13575000D01*
X17008976Y-13325000D01*
X16989263Y-13225894D01*
X16971961Y-13200000D01*
X16989263Y-13174106D01*
X17008976Y-13075000D01*
X17008976Y-12825000D01*
X16989263Y-12725894D01*
X16971961Y-12700000D01*
X16989263Y-12674106D01*
X17008976Y-12575000D01*
X17008976Y-12325000D01*
X16989263Y-12225894D01*
X16933124Y-12141876D01*
X16849106Y-12085737D01*
X16750000Y-12066024D01*
X16665147Y-12066024D01*
X16660002Y-12060879D01*
X16491301Y-11991000D01*
X16308699Y-11991000D01*
X16139998Y-12060879D01*
X16134853Y-12066024D01*
X16050000Y-12066024D01*
X15950894Y-12085737D01*
X15866876Y-12141876D01*
X15810737Y-12225894D01*
X15791024Y-12325000D01*
X15791024Y-12575000D01*
X15810737Y-12674106D01*
X15828039Y-12700000D01*
X15810737Y-12725894D01*
X15791024Y-12825000D01*
X15791024Y-13075000D01*
X15810737Y-13174106D01*
X15828039Y-13200000D01*
X15810737Y-13225894D01*
X15791024Y-13325000D01*
X15791024Y-13575000D01*
X15810737Y-13674106D01*
X15828039Y-13700000D01*
X15810737Y-13725894D01*
X15791024Y-13825000D01*
X15791024Y-14075000D01*
X15810737Y-14174106D01*
X15828039Y-14200000D01*
X15810737Y-14225894D01*
X15791024Y-14325000D01*
X15791024Y-14575000D01*
X15810737Y-14674106D01*
X15828039Y-14700000D01*
X15810737Y-14725894D01*
X15791024Y-14825000D01*
X15791024Y-15075000D01*
X15810737Y-15174106D01*
X15828039Y-15200000D01*
X15810737Y-15225894D01*
X15791024Y-15325000D01*
X15791024Y-15575000D01*
X15810737Y-15674106D01*
X15828039Y-15700000D01*
X15810737Y-15725894D01*
X15791024Y-15825000D01*
X15791024Y-15991024D01*
X15625000Y-15991024D01*
X15525894Y-16010737D01*
X15500000Y-16028039D01*
X15474106Y-16010737D01*
X15375000Y-15991024D01*
X15125000Y-15991024D01*
X15025894Y-16010737D01*
X15000000Y-16028039D01*
X14974106Y-16010737D01*
X14875000Y-15991024D01*
X14625000Y-15991024D01*
X14525894Y-16010737D01*
X14500000Y-16028039D01*
X14474106Y-16010737D01*
X14375000Y-15991024D01*
X14125000Y-15991024D01*
X14025894Y-16010737D01*
X14000000Y-16028039D01*
X13974106Y-16010737D01*
X13875000Y-15991024D01*
X13625000Y-15991024D01*
X13525894Y-16010737D01*
X13500000Y-16028039D01*
X13474106Y-16010737D01*
X13375000Y-15991024D01*
X13125000Y-15991024D01*
X13025894Y-16010737D01*
X13000000Y-16028039D01*
X12974106Y-16010737D01*
X12875000Y-15991024D01*
X12625000Y-15991024D01*
X12525894Y-16010737D01*
X12441876Y-16066876D01*
X12385737Y-16150894D01*
X12366024Y-16250000D01*
X12366024Y-16901000D01*
X10705680Y-16901000D01*
X10686763Y-16805894D01*
X10630624Y-16721876D01*
X10546606Y-16665737D01*
X10447500Y-16646024D01*
X9872500Y-16646024D01*
X9773394Y-16665737D01*
X9689376Y-16721876D01*
X9633237Y-16805894D01*
X9613524Y-16905000D01*
X9613524Y-17555000D01*
X9633237Y-17654106D01*
X9661497Y-17696400D01*
X3277711Y-17696400D01*
X3254985Y-17441758D01*
X3252470Y-17429666D01*
X3251802Y-17417331D01*
X3243152Y-17380742D01*
X3041745Y-16715749D01*
X3035186Y-16700663D01*
X3030541Y-16684883D01*
X3013707Y-16651265D01*
X2664721Y-16050441D01*
X2654865Y-16037266D01*
X2646716Y-16022980D01*
X2622600Y-15994137D01*
X2144755Y-15489713D01*
X2132136Y-15479162D01*
X2120916Y-15467130D01*
X2090811Y-15444609D01*
X1509739Y-15063641D01*
X1495029Y-15056275D01*
X1481344Y-15047148D01*
X1446873Y-15032159D01*
X1446866Y-15032156D01*
X1446863Y-15032155D01*
X793737Y-14795082D01*
X777732Y-14791299D01*
X762310Y-14785563D01*
X725307Y-14778906D01*
X303600Y-14729740D01*
X303600Y-6075000D01*
X16041024Y-6075000D01*
X16041024Y-6725000D01*
X16060737Y-6824106D01*
X16116876Y-6908124D01*
X16200894Y-6964263D01*
X16300000Y-6983976D01*
X16384853Y-6983976D01*
X16439998Y-7039121D01*
X16608699Y-7109000D01*
X16691000Y-7109000D01*
X16691000Y-7191301D01*
X16746381Y-7325000D01*
X16691000Y-7458699D01*
X16691000Y-7641301D01*
X16736025Y-7750000D01*
X16691000Y-7858699D01*
X16691000Y-8041301D01*
X16756736Y-8200000D01*
X16691000Y-8358699D01*
X16691000Y-8541301D01*
X16760879Y-8710002D01*
X16761024Y-8710147D01*
X16761024Y-8900000D01*
X16780737Y-8999106D01*
X16836876Y-9083124D01*
X16920894Y-9139263D01*
X17020000Y-9158976D01*
X18240000Y-9158976D01*
X18339106Y-9139263D01*
X18423124Y-9083124D01*
X18479263Y-8999106D01*
X18498976Y-8900000D01*
X18498976Y-7100000D01*
X18479263Y-7000894D01*
X18423124Y-6916876D01*
X18339106Y-6860737D01*
X18240000Y-6841024D01*
X17989546Y-6841024D01*
X17989121Y-6839998D01*
X17860002Y-6710879D01*
X17691301Y-6641000D01*
X17508699Y-6641000D01*
X17375000Y-6696381D01*
X17241301Y-6641000D01*
X17159000Y-6641000D01*
X17159000Y-6558699D01*
X17133976Y-6498286D01*
X17133976Y-6075000D01*
X17114263Y-5975894D01*
X17058124Y-5891876D01*
X16974106Y-5835737D01*
X16925115Y-5825992D01*
X16910002Y-5810879D01*
X16741301Y-5741000D01*
X16558699Y-5741000D01*
X16389998Y-5810879D01*
X16384853Y-5816024D01*
X16300000Y-5816024D01*
X16200894Y-5835737D01*
X16116876Y-5891876D01*
X16060737Y-5975894D01*
X16041024Y-6075000D01*
X303600Y-6075000D01*
X303600Y-3277711D01*
X558243Y-3254985D01*
X570335Y-3252470D01*
X582669Y-3251802D01*
X619258Y-3243152D01*
X1284251Y-3041745D01*
X1299332Y-3035188D01*
X1315117Y-3030542D01*
X1348735Y-3013707D01*
X1949559Y-2664721D01*
X1962731Y-2654867D01*
X1977020Y-2646717D01*
X2005863Y-2622600D01*
X2510287Y-2144755D01*
X2520838Y-2132136D01*
X2532870Y-2120916D01*
X2555391Y-2090811D01*
X2936360Y-1509739D01*
X2943728Y-1495025D01*
X2952852Y-1481344D01*
X2967844Y-1446865D01*
X3204918Y-793737D01*
X3208701Y-777734D01*
X3214437Y-762310D01*
X3221094Y-725307D01*
X3267345Y-328600D01*
X34724520Y-328600D01*
X34745015Y-558243D01*
G36*
X9025894Y-8139263D02*
X9125000Y-8158976D01*
X9341024Y-8158976D01*
X9341024Y-8375000D01*
X9360737Y-8474106D01*
X9378039Y-8500000D01*
X9360737Y-8525894D01*
X9341024Y-8625000D01*
X9341024Y-8875000D01*
X9360737Y-8974106D01*
X9378039Y-9000000D01*
X9360737Y-9025894D01*
X9341024Y-9125000D01*
X9341024Y-9375000D01*
X9360737Y-9474106D01*
X9378039Y-9500000D01*
X9360737Y-9525894D01*
X9341024Y-9625000D01*
X9341024Y-9841024D01*
X9125000Y-9841024D01*
X9025894Y-9860737D01*
X9000000Y-9878039D01*
X8974106Y-9860737D01*
X8875000Y-9841024D01*
X8625000Y-9841024D01*
X8525894Y-9860737D01*
X8500000Y-9878039D01*
X8474106Y-9860737D01*
X8375000Y-9841024D01*
X8125000Y-9841024D01*
X8025894Y-9860737D01*
X7941876Y-9916876D01*
X7885737Y-10000894D01*
X7866024Y-10100000D01*
X7866024Y-10800000D01*
X7885737Y-10899106D01*
X7921000Y-10951881D01*
X7921001Y-11974904D01*
X7914556Y-12007305D01*
X7940090Y-12135674D01*
X7944000Y-12141526D01*
X7944000Y-12251606D01*
X8013879Y-12420307D01*
X8126786Y-12533214D01*
X8099708Y-12544431D01*
X6599000Y-11043724D01*
X6599000Y-10112997D01*
X6600894Y-10114263D01*
X6700000Y-10133976D01*
X7400000Y-10133976D01*
X7499106Y-10114263D01*
X7583124Y-10058124D01*
X7639263Y-9974106D01*
X7658976Y-9875000D01*
X7658976Y-9625000D01*
X7639263Y-9525894D01*
X7621961Y-9500000D01*
X7639263Y-9474106D01*
X7658976Y-9375000D01*
X7658976Y-9125000D01*
X7639263Y-9025894D01*
X7621961Y-9000000D01*
X7639263Y-8974106D01*
X7658976Y-8875000D01*
X7658976Y-8625000D01*
X7639263Y-8525894D01*
X7621961Y-8500000D01*
X7639263Y-8474106D01*
X7658976Y-8375000D01*
X7658976Y-8158976D01*
X7875000Y-8158976D01*
X7974106Y-8139263D01*
X8000000Y-8121961D01*
X8025894Y-8139263D01*
X8125000Y-8158976D01*
X8375000Y-8158976D01*
X8474106Y-8139263D01*
X8500000Y-8121961D01*
X8525894Y-8139263D01*
X8625000Y-8158976D01*
X8875000Y-8158976D01*
X8974106Y-8139263D01*
X9000000Y-8121961D01*
X9025894Y-8139263D01*
X9025894Y-8139263D01*
G37*
X9025894Y-8139263D02*
X9125000Y-8158976D01*
X9341024Y-8158976D01*
X9341024Y-8375000D01*
X9360737Y-8474106D01*
X9378039Y-8500000D01*
X9360737Y-8525894D01*
X9341024Y-8625000D01*
X9341024Y-8875000D01*
X9360737Y-8974106D01*
X9378039Y-9000000D01*
X9360737Y-9025894D01*
X9341024Y-9125000D01*
X9341024Y-9375000D01*
X9360737Y-9474106D01*
X9378039Y-9500000D01*
X9360737Y-9525894D01*
X9341024Y-9625000D01*
X9341024Y-9841024D01*
X9125000Y-9841024D01*
X9025894Y-9860737D01*
X9000000Y-9878039D01*
X8974106Y-9860737D01*
X8875000Y-9841024D01*
X8625000Y-9841024D01*
X8525894Y-9860737D01*
X8500000Y-9878039D01*
X8474106Y-9860737D01*
X8375000Y-9841024D01*
X8125000Y-9841024D01*
X8025894Y-9860737D01*
X7941876Y-9916876D01*
X7885737Y-10000894D01*
X7866024Y-10100000D01*
X7866024Y-10800000D01*
X7885737Y-10899106D01*
X7921000Y-10951881D01*
X7921001Y-11974904D01*
X7914556Y-12007305D01*
X7940090Y-12135674D01*
X7944000Y-12141526D01*
X7944000Y-12251606D01*
X8013879Y-12420307D01*
X8126786Y-12533214D01*
X8099708Y-12544431D01*
X6599000Y-11043724D01*
X6599000Y-10112997D01*
X6600894Y-10114263D01*
X6700000Y-10133976D01*
X7400000Y-10133976D01*
X7499106Y-10114263D01*
X7583124Y-10058124D01*
X7639263Y-9974106D01*
X7658976Y-9875000D01*
X7658976Y-9625000D01*
X7639263Y-9525894D01*
X7621961Y-9500000D01*
X7639263Y-9474106D01*
X7658976Y-9375000D01*
X7658976Y-9125000D01*
X7639263Y-9025894D01*
X7621961Y-9000000D01*
X7639263Y-8974106D01*
X7658976Y-8875000D01*
X7658976Y-8625000D01*
X7639263Y-8525894D01*
X7621961Y-8500000D01*
X7639263Y-8474106D01*
X7658976Y-8375000D01*
X7658976Y-8158976D01*
X7875000Y-8158976D01*
X7974106Y-8139263D01*
X8000000Y-8121961D01*
X8025894Y-8139263D01*
X8125000Y-8158976D01*
X8375000Y-8158976D01*
X8474106Y-8139263D01*
X8500000Y-8121961D01*
X8525894Y-8139263D01*
X8625000Y-8158976D01*
X8875000Y-8158976D01*
X8974106Y-8139263D01*
X9000000Y-8121961D01*
X9025894Y-8139263D01*
G04 #@! TD*
M02*
