G04 #@! TF.GenerationSoftware,KiCad,Pcbnew,5.0.0-fee4fd1~66~ubuntu16.04.1*
G04 #@! TF.CreationDate,2018-08-14T00:09:00-04:00*
G04 #@! TF.ProjectId,motor controller,6D6F746F7220636F6E74726F6C6C6572,rev?*
G04 #@! TF.SameCoordinates,Original*
G04 #@! TF.FileFunction,Soldermask,Top*
G04 #@! TF.FilePolarity,Negative*
%FSLAX46Y46*%
G04 Gerber Fmt 4.6, Leading zero omitted, Abs format (unit mm)*
G04 Created by KiCad (PCBNEW 5.0.0-fee4fd1~66~ubuntu16.04.1) date Tue Aug 14 00:09:00 2018*
%MOMM*%
%LPD*%
G01*
G04 APERTURE LIST*
%ADD10C,0.100000*%
G04 APERTURE END LIST*
D10*
G36*
X18397339Y-8809275D02*
X18533903Y-8850702D01*
X18539016Y-8852253D01*
X18669587Y-8922044D01*
X18784032Y-9015968D01*
X18877956Y-9130413D01*
X18947747Y-9260984D01*
X18947748Y-9260987D01*
X18990725Y-9402661D01*
X19005237Y-9550000D01*
X18990725Y-9697339D01*
X18947748Y-9839013D01*
X18947747Y-9839016D01*
X18877956Y-9969587D01*
X18784032Y-10084032D01*
X18669587Y-10177956D01*
X18539016Y-10247747D01*
X18539013Y-10247748D01*
X18397339Y-10290725D01*
X18286925Y-10301600D01*
X16513075Y-10301600D01*
X16402661Y-10290725D01*
X16260987Y-10247748D01*
X16260984Y-10247747D01*
X16130413Y-10177956D01*
X16015968Y-10084032D01*
X15922044Y-9969587D01*
X15852253Y-9839016D01*
X15852252Y-9839013D01*
X15809275Y-9697339D01*
X15794763Y-9550000D01*
X15809275Y-9402661D01*
X15852252Y-9260987D01*
X15852253Y-9260984D01*
X15922044Y-9130413D01*
X16015968Y-9015968D01*
X16130413Y-8922044D01*
X16260984Y-8852253D01*
X16266097Y-8850702D01*
X16402661Y-8809275D01*
X16513075Y-8798400D01*
X18286925Y-8798400D01*
X18397339Y-8809275D01*
X18397339Y-8809275D01*
G37*
G36*
X13296600Y-9941600D02*
X12193400Y-9941600D01*
X12193400Y-9338400D01*
X13296600Y-9338400D01*
X13296600Y-9941600D01*
X13296600Y-9941600D01*
G37*
G36*
X3416600Y-8814781D02*
X3417576Y-8824692D01*
X3420467Y-8834221D01*
X3425161Y-8843004D01*
X3431479Y-8850702D01*
X3439177Y-8857020D01*
X3447960Y-8861714D01*
X3457489Y-8864605D01*
X3467400Y-8865581D01*
X3477311Y-8864605D01*
X3486840Y-8861714D01*
X3495623Y-8857020D01*
X3503321Y-8850702D01*
X3506669Y-8847008D01*
X3515837Y-8835837D01*
X3596020Y-8770031D01*
X3601251Y-8767235D01*
X3687504Y-8721132D01*
X3786769Y-8691020D01*
X3864133Y-8683400D01*
X3915867Y-8683400D01*
X3993231Y-8691020D01*
X4092496Y-8721132D01*
X4178749Y-8767235D01*
X4183980Y-8770031D01*
X4264163Y-8835837D01*
X4329969Y-8916020D01*
X4345198Y-8944512D01*
X4350731Y-8952792D01*
X4357773Y-8959834D01*
X4366053Y-8965367D01*
X4375254Y-8969178D01*
X4385021Y-8971120D01*
X4394979Y-8971120D01*
X4404746Y-8969178D01*
X4413947Y-8965367D01*
X4422227Y-8959834D01*
X4429269Y-8952792D01*
X4434802Y-8944512D01*
X4450031Y-8916020D01*
X4515837Y-8835837D01*
X4596020Y-8770031D01*
X4601251Y-8767235D01*
X4687504Y-8721132D01*
X4786769Y-8691020D01*
X4864133Y-8683400D01*
X4915867Y-8683400D01*
X4993231Y-8691020D01*
X5092496Y-8721132D01*
X5178749Y-8767235D01*
X5183980Y-8770031D01*
X5264163Y-8835837D01*
X5329969Y-8916020D01*
X5345198Y-8944512D01*
X5350731Y-8952792D01*
X5357773Y-8959834D01*
X5366053Y-8965367D01*
X5375254Y-8969178D01*
X5385021Y-8971120D01*
X5394979Y-8971120D01*
X5404746Y-8969178D01*
X5413947Y-8965367D01*
X5422227Y-8959834D01*
X5429269Y-8952792D01*
X5434802Y-8944512D01*
X5450031Y-8916020D01*
X5515837Y-8835837D01*
X5596020Y-8770031D01*
X5601251Y-8767235D01*
X5687504Y-8721132D01*
X5786769Y-8691020D01*
X5864133Y-8683400D01*
X5915867Y-8683400D01*
X5993231Y-8691020D01*
X6092496Y-8721132D01*
X6178749Y-8767235D01*
X6183980Y-8770031D01*
X6264163Y-8835837D01*
X6329969Y-8916020D01*
X6345198Y-8944512D01*
X6350731Y-8952792D01*
X6357773Y-8959834D01*
X6366053Y-8965367D01*
X6375254Y-8969178D01*
X6385021Y-8971120D01*
X6394979Y-8971120D01*
X6404746Y-8969178D01*
X6413947Y-8965367D01*
X6422227Y-8959834D01*
X6429269Y-8952792D01*
X6434802Y-8944512D01*
X6450031Y-8916020D01*
X6515837Y-8835837D01*
X6596020Y-8770031D01*
X6601251Y-8767235D01*
X6687504Y-8721132D01*
X6786769Y-8691020D01*
X6864133Y-8683400D01*
X6915867Y-8683400D01*
X6993231Y-8691020D01*
X7092496Y-8721132D01*
X7178749Y-8767235D01*
X7183980Y-8770031D01*
X7264163Y-8835837D01*
X7329969Y-8916020D01*
X7345198Y-8944512D01*
X7350731Y-8952792D01*
X7357773Y-8959834D01*
X7366053Y-8965367D01*
X7375254Y-8969178D01*
X7385021Y-8971120D01*
X7394979Y-8971120D01*
X7404746Y-8969178D01*
X7413947Y-8965367D01*
X7422227Y-8959834D01*
X7429269Y-8952792D01*
X7434802Y-8944512D01*
X7450031Y-8916020D01*
X7515837Y-8835837D01*
X7596020Y-8770031D01*
X7601251Y-8767235D01*
X7687504Y-8721132D01*
X7786769Y-8691020D01*
X7864133Y-8683400D01*
X7915867Y-8683400D01*
X7993231Y-8691020D01*
X8092496Y-8721132D01*
X8178749Y-8767235D01*
X8183980Y-8770031D01*
X8264163Y-8835837D01*
X8329969Y-8916020D01*
X8329970Y-8916022D01*
X8378868Y-9007504D01*
X8408980Y-9106769D01*
X8419148Y-9210000D01*
X8408980Y-9313231D01*
X8378868Y-9412496D01*
X8345198Y-9475488D01*
X8329969Y-9503980D01*
X8264163Y-9584163D01*
X8183980Y-9649969D01*
X8183978Y-9649970D01*
X8092496Y-9698868D01*
X7993231Y-9728980D01*
X7915867Y-9736600D01*
X7864133Y-9736600D01*
X7786769Y-9728980D01*
X7687504Y-9698868D01*
X7596022Y-9649970D01*
X7596020Y-9649969D01*
X7515837Y-9584163D01*
X7450031Y-9503980D01*
X7434802Y-9475488D01*
X7429269Y-9467208D01*
X7422227Y-9460166D01*
X7413947Y-9454633D01*
X7404746Y-9450822D01*
X7394979Y-9448880D01*
X7385021Y-9448880D01*
X7375254Y-9450822D01*
X7366053Y-9454633D01*
X7357773Y-9460166D01*
X7350731Y-9467208D01*
X7345198Y-9475488D01*
X7329969Y-9503980D01*
X7264163Y-9584163D01*
X7183980Y-9649969D01*
X7183978Y-9649970D01*
X7092496Y-9698868D01*
X6993231Y-9728980D01*
X6915867Y-9736600D01*
X6864133Y-9736600D01*
X6786769Y-9728980D01*
X6687504Y-9698868D01*
X6596022Y-9649970D01*
X6596020Y-9649969D01*
X6515837Y-9584163D01*
X6450031Y-9503980D01*
X6434802Y-9475488D01*
X6429269Y-9467208D01*
X6422227Y-9460166D01*
X6413947Y-9454633D01*
X6404746Y-9450822D01*
X6394979Y-9448880D01*
X6385021Y-9448880D01*
X6375254Y-9450822D01*
X6366053Y-9454633D01*
X6357773Y-9460166D01*
X6350731Y-9467208D01*
X6345198Y-9475488D01*
X6329969Y-9503980D01*
X6264163Y-9584163D01*
X6183980Y-9649969D01*
X6183978Y-9649970D01*
X6092496Y-9698868D01*
X5993231Y-9728980D01*
X5915867Y-9736600D01*
X5864133Y-9736600D01*
X5786769Y-9728980D01*
X5687504Y-9698868D01*
X5596022Y-9649970D01*
X5596020Y-9649969D01*
X5515837Y-9584163D01*
X5450031Y-9503980D01*
X5434802Y-9475488D01*
X5429269Y-9467208D01*
X5422227Y-9460166D01*
X5413947Y-9454633D01*
X5404746Y-9450822D01*
X5394979Y-9448880D01*
X5385021Y-9448880D01*
X5375254Y-9450822D01*
X5366053Y-9454633D01*
X5357773Y-9460166D01*
X5350731Y-9467208D01*
X5345198Y-9475488D01*
X5329969Y-9503980D01*
X5264163Y-9584163D01*
X5183980Y-9649969D01*
X5183978Y-9649970D01*
X5092496Y-9698868D01*
X4993231Y-9728980D01*
X4915867Y-9736600D01*
X4864133Y-9736600D01*
X4786769Y-9728980D01*
X4687504Y-9698868D01*
X4596022Y-9649970D01*
X4596020Y-9649969D01*
X4515837Y-9584163D01*
X4450031Y-9503980D01*
X4434802Y-9475488D01*
X4429269Y-9467208D01*
X4422227Y-9460166D01*
X4413947Y-9454633D01*
X4404746Y-9450822D01*
X4394979Y-9448880D01*
X4385021Y-9448880D01*
X4375254Y-9450822D01*
X4366053Y-9454633D01*
X4357773Y-9460166D01*
X4350731Y-9467208D01*
X4345198Y-9475488D01*
X4329969Y-9503980D01*
X4264163Y-9584163D01*
X4183980Y-9649969D01*
X4183978Y-9649970D01*
X4092496Y-9698868D01*
X3993231Y-9728980D01*
X3915867Y-9736600D01*
X3864133Y-9736600D01*
X3786769Y-9728980D01*
X3687504Y-9698868D01*
X3596022Y-9649970D01*
X3596020Y-9649969D01*
X3515837Y-9584163D01*
X3506669Y-9572992D01*
X3499627Y-9565950D01*
X3491347Y-9560418D01*
X3482147Y-9556607D01*
X3472380Y-9554664D01*
X3462421Y-9554664D01*
X3452654Y-9556606D01*
X3443453Y-9560417D01*
X3435173Y-9565950D01*
X3428131Y-9572992D01*
X3422599Y-9581272D01*
X3418788Y-9590472D01*
X3416845Y-9600239D01*
X3416600Y-9605219D01*
X3416600Y-9736600D01*
X2363400Y-9736600D01*
X2363400Y-8683400D01*
X3416600Y-8683400D01*
X3416600Y-8814781D01*
X3416600Y-8814781D01*
G37*
G36*
X10119600Y-9571600D02*
X9316400Y-9571600D01*
X9316400Y-8168400D01*
X10119600Y-8168400D01*
X10119600Y-9571600D01*
X10119600Y-9571600D01*
G37*
G36*
X11069600Y-9571600D02*
X10266400Y-9571600D01*
X10266400Y-8168400D01*
X11069600Y-8168400D01*
X11069600Y-9571600D01*
X11069600Y-9571600D01*
G37*
G36*
X12019600Y-9571600D02*
X11216400Y-9571600D01*
X11216400Y-8168400D01*
X12019600Y-8168400D01*
X12019600Y-9571600D01*
X12019600Y-9571600D01*
G37*
G36*
X14851600Y-9201600D02*
X13748400Y-9201600D01*
X13748400Y-8598400D01*
X14851600Y-8598400D01*
X14851600Y-9201600D01*
X14851600Y-9201600D01*
G37*
G36*
X2973231Y-7421020D02*
X3072496Y-7451132D01*
X3158749Y-7497235D01*
X3163980Y-7500031D01*
X3244163Y-7565837D01*
X3309969Y-7646020D01*
X3325198Y-7674512D01*
X3330731Y-7682792D01*
X3337773Y-7689834D01*
X3346053Y-7695367D01*
X3355254Y-7699178D01*
X3365021Y-7701120D01*
X3374979Y-7701120D01*
X3384746Y-7699178D01*
X3393947Y-7695367D01*
X3402227Y-7689834D01*
X3409269Y-7682792D01*
X3414802Y-7674512D01*
X3430031Y-7646020D01*
X3495837Y-7565837D01*
X3576020Y-7500031D01*
X3581251Y-7497235D01*
X3667504Y-7451132D01*
X3766769Y-7421020D01*
X3844133Y-7413400D01*
X3895867Y-7413400D01*
X3973231Y-7421020D01*
X4072496Y-7451132D01*
X4158749Y-7497235D01*
X4163980Y-7500031D01*
X4244163Y-7565837D01*
X4309969Y-7646020D01*
X4325198Y-7674512D01*
X4330731Y-7682792D01*
X4337773Y-7689834D01*
X4346053Y-7695367D01*
X4355254Y-7699178D01*
X4365021Y-7701120D01*
X4374979Y-7701120D01*
X4384746Y-7699178D01*
X4393947Y-7695367D01*
X4402227Y-7689834D01*
X4409269Y-7682792D01*
X4414802Y-7674512D01*
X4430031Y-7646020D01*
X4495837Y-7565837D01*
X4576020Y-7500031D01*
X4581251Y-7497235D01*
X4667504Y-7451132D01*
X4766769Y-7421020D01*
X4844133Y-7413400D01*
X4895867Y-7413400D01*
X4973231Y-7421020D01*
X5072496Y-7451132D01*
X5158749Y-7497235D01*
X5163980Y-7500031D01*
X5244163Y-7565837D01*
X5309969Y-7646020D01*
X5325198Y-7674512D01*
X5330731Y-7682792D01*
X5337773Y-7689834D01*
X5346053Y-7695367D01*
X5355254Y-7699178D01*
X5365021Y-7701120D01*
X5374979Y-7701120D01*
X5384746Y-7699178D01*
X5393947Y-7695367D01*
X5402227Y-7689834D01*
X5409269Y-7682792D01*
X5414802Y-7674512D01*
X5430031Y-7646020D01*
X5495837Y-7565837D01*
X5576020Y-7500031D01*
X5581251Y-7497235D01*
X5667504Y-7451132D01*
X5766769Y-7421020D01*
X5844133Y-7413400D01*
X5895867Y-7413400D01*
X5973231Y-7421020D01*
X6072496Y-7451132D01*
X6158749Y-7497235D01*
X6163980Y-7500031D01*
X6244163Y-7565837D01*
X6309969Y-7646020D01*
X6325198Y-7674512D01*
X6330731Y-7682792D01*
X6337773Y-7689834D01*
X6346053Y-7695367D01*
X6355254Y-7699178D01*
X6365021Y-7701120D01*
X6374979Y-7701120D01*
X6384746Y-7699178D01*
X6393947Y-7695367D01*
X6402227Y-7689834D01*
X6409269Y-7682792D01*
X6414802Y-7674512D01*
X6430031Y-7646020D01*
X6495837Y-7565837D01*
X6576020Y-7500031D01*
X6581251Y-7497235D01*
X6667504Y-7451132D01*
X6766769Y-7421020D01*
X6844133Y-7413400D01*
X6895867Y-7413400D01*
X6973231Y-7421020D01*
X7072496Y-7451132D01*
X7158749Y-7497235D01*
X7163980Y-7500031D01*
X7244163Y-7565837D01*
X7253331Y-7577008D01*
X7260373Y-7584050D01*
X7268653Y-7589582D01*
X7277853Y-7593393D01*
X7287620Y-7595336D01*
X7297579Y-7595336D01*
X7307346Y-7593394D01*
X7316547Y-7589583D01*
X7324827Y-7584050D01*
X7331869Y-7577008D01*
X7337401Y-7568728D01*
X7341212Y-7559528D01*
X7343155Y-7549761D01*
X7343400Y-7544781D01*
X7343400Y-7413400D01*
X8396600Y-7413400D01*
X8396600Y-8466600D01*
X7343400Y-8466600D01*
X7343400Y-8335219D01*
X7342424Y-8325308D01*
X7339533Y-8315779D01*
X7334839Y-8306996D01*
X7328521Y-8299298D01*
X7320823Y-8292980D01*
X7312040Y-8288286D01*
X7302511Y-8285395D01*
X7292600Y-8284419D01*
X7282689Y-8285395D01*
X7273160Y-8288286D01*
X7264377Y-8292980D01*
X7256679Y-8299298D01*
X7253331Y-8302992D01*
X7244163Y-8314163D01*
X7163980Y-8379969D01*
X7163978Y-8379970D01*
X7072496Y-8428868D01*
X6973231Y-8458980D01*
X6895867Y-8466600D01*
X6844133Y-8466600D01*
X6766769Y-8458980D01*
X6667504Y-8428868D01*
X6576022Y-8379970D01*
X6576020Y-8379969D01*
X6495837Y-8314163D01*
X6430031Y-8233980D01*
X6414802Y-8205488D01*
X6409269Y-8197208D01*
X6402227Y-8190166D01*
X6393947Y-8184633D01*
X6384746Y-8180822D01*
X6374979Y-8178880D01*
X6365021Y-8178880D01*
X6355254Y-8180822D01*
X6346053Y-8184633D01*
X6337773Y-8190166D01*
X6330731Y-8197208D01*
X6325198Y-8205488D01*
X6309969Y-8233980D01*
X6244163Y-8314163D01*
X6163980Y-8379969D01*
X6163978Y-8379970D01*
X6072496Y-8428868D01*
X5973231Y-8458980D01*
X5895867Y-8466600D01*
X5844133Y-8466600D01*
X5766769Y-8458980D01*
X5667504Y-8428868D01*
X5576022Y-8379970D01*
X5576020Y-8379969D01*
X5495837Y-8314163D01*
X5430031Y-8233980D01*
X5414802Y-8205488D01*
X5409269Y-8197208D01*
X5402227Y-8190166D01*
X5393947Y-8184633D01*
X5384746Y-8180822D01*
X5374979Y-8178880D01*
X5365021Y-8178880D01*
X5355254Y-8180822D01*
X5346053Y-8184633D01*
X5337773Y-8190166D01*
X5330731Y-8197208D01*
X5325198Y-8205488D01*
X5309969Y-8233980D01*
X5244163Y-8314163D01*
X5163980Y-8379969D01*
X5163978Y-8379970D01*
X5072496Y-8428868D01*
X4973231Y-8458980D01*
X4895867Y-8466600D01*
X4844133Y-8466600D01*
X4766769Y-8458980D01*
X4667504Y-8428868D01*
X4576022Y-8379970D01*
X4576020Y-8379969D01*
X4495837Y-8314163D01*
X4430031Y-8233980D01*
X4414802Y-8205488D01*
X4409269Y-8197208D01*
X4402227Y-8190166D01*
X4393947Y-8184633D01*
X4384746Y-8180822D01*
X4374979Y-8178880D01*
X4365021Y-8178880D01*
X4355254Y-8180822D01*
X4346053Y-8184633D01*
X4337773Y-8190166D01*
X4330731Y-8197208D01*
X4325198Y-8205488D01*
X4309969Y-8233980D01*
X4244163Y-8314163D01*
X4163980Y-8379969D01*
X4163978Y-8379970D01*
X4072496Y-8428868D01*
X3973231Y-8458980D01*
X3895867Y-8466600D01*
X3844133Y-8466600D01*
X3766769Y-8458980D01*
X3667504Y-8428868D01*
X3576022Y-8379970D01*
X3576020Y-8379969D01*
X3495837Y-8314163D01*
X3430031Y-8233980D01*
X3414802Y-8205488D01*
X3409269Y-8197208D01*
X3402227Y-8190166D01*
X3393947Y-8184633D01*
X3384746Y-8180822D01*
X3374979Y-8178880D01*
X3365021Y-8178880D01*
X3355254Y-8180822D01*
X3346053Y-8184633D01*
X3337773Y-8190166D01*
X3330731Y-8197208D01*
X3325198Y-8205488D01*
X3309969Y-8233980D01*
X3244163Y-8314163D01*
X3163980Y-8379969D01*
X3163978Y-8379970D01*
X3072496Y-8428868D01*
X2973231Y-8458980D01*
X2895867Y-8466600D01*
X2844133Y-8466600D01*
X2766769Y-8458980D01*
X2667504Y-8428868D01*
X2576022Y-8379970D01*
X2576020Y-8379969D01*
X2495837Y-8314163D01*
X2430031Y-8233980D01*
X2414802Y-8205488D01*
X2381132Y-8142496D01*
X2351020Y-8043231D01*
X2340852Y-7940000D01*
X2351020Y-7836769D01*
X2381131Y-7737508D01*
X2381132Y-7737504D01*
X2430030Y-7646022D01*
X2430031Y-7646020D01*
X2495837Y-7565837D01*
X2576020Y-7500031D01*
X2581251Y-7497235D01*
X2667504Y-7451132D01*
X2766769Y-7421020D01*
X2844133Y-7413400D01*
X2895867Y-7413400D01*
X2973231Y-7421020D01*
X2973231Y-7421020D01*
G37*
G36*
X10119600Y-7071600D02*
X9316400Y-7071600D01*
X9316400Y-5668400D01*
X10119600Y-5668400D01*
X10119600Y-7071600D01*
X10119600Y-7071600D01*
G37*
G36*
X12019600Y-7071600D02*
X11216400Y-7071600D01*
X11216400Y-5668400D01*
X12019600Y-5668400D01*
X12019600Y-7071600D01*
X12019600Y-7071600D01*
G37*
G36*
X1001600Y-6051600D02*
X398400Y-6051600D01*
X398400Y-4948400D01*
X1001600Y-4948400D01*
X1001600Y-6051600D01*
X1001600Y-6051600D01*
G37*
G36*
X6086600Y-1092600D02*
X6087576Y-1102511D01*
X6090467Y-1112040D01*
X6095161Y-1120823D01*
X6101479Y-1128521D01*
X6109177Y-1134839D01*
X6117960Y-1139533D01*
X6127489Y-1142424D01*
X6137400Y-1143400D01*
X6961600Y-1143400D01*
X6961600Y-5096600D01*
X6137400Y-5096600D01*
X6127489Y-5097576D01*
X6117960Y-5100467D01*
X6109177Y-5105161D01*
X6101479Y-5111479D01*
X6095161Y-5119177D01*
X6090467Y-5127960D01*
X6087576Y-5137489D01*
X6086600Y-5147400D01*
X6086600Y-5971600D01*
X2133400Y-5971600D01*
X2133400Y-5147400D01*
X2132424Y-5137489D01*
X2129533Y-5127960D01*
X2124839Y-5119177D01*
X2118521Y-5111479D01*
X2110823Y-5105161D01*
X2102040Y-5100467D01*
X2092511Y-5097576D01*
X2082600Y-5096600D01*
X1258400Y-5096600D01*
X1258400Y-1222400D01*
X2161600Y-1222400D01*
X2161600Y-5017600D01*
X2162576Y-5027511D01*
X2165467Y-5037040D01*
X2170161Y-5045823D01*
X2176479Y-5053521D01*
X2184177Y-5059839D01*
X2192960Y-5064533D01*
X2202489Y-5067424D01*
X2212400Y-5068400D01*
X6007600Y-5068400D01*
X6017511Y-5067424D01*
X6027040Y-5064533D01*
X6035823Y-5059839D01*
X6043521Y-5053521D01*
X6049839Y-5045823D01*
X6054533Y-5037040D01*
X6057424Y-5027511D01*
X6058400Y-5017600D01*
X6058400Y-1222400D01*
X6057424Y-1212489D01*
X6054533Y-1202960D01*
X6049839Y-1194177D01*
X6043521Y-1186479D01*
X6035823Y-1180161D01*
X6027040Y-1175467D01*
X6017511Y-1172576D01*
X6007600Y-1171600D01*
X2212400Y-1171600D01*
X2202489Y-1172576D01*
X2192960Y-1175467D01*
X2184177Y-1180161D01*
X2176479Y-1186479D01*
X2170161Y-1194177D01*
X2165467Y-1202960D01*
X2162576Y-1212489D01*
X2161600Y-1222400D01*
X1258400Y-1222400D01*
X1258400Y-1143400D01*
X2082600Y-1143400D01*
X2092511Y-1142424D01*
X2102040Y-1139533D01*
X2110823Y-1134839D01*
X2118521Y-1128521D01*
X2124839Y-1120823D01*
X2129533Y-1112040D01*
X2132424Y-1102511D01*
X2133400Y-1092600D01*
X2133400Y-268400D01*
X6086600Y-268400D01*
X6086600Y-1092600D01*
X6086600Y-1092600D01*
G37*
G36*
X5936600Y-4946600D02*
X2283400Y-4946600D01*
X2283400Y-1293400D01*
X5936600Y-1293400D01*
X5936600Y-4946600D01*
X5936600Y-4946600D01*
G37*
G36*
X11851600Y-5401600D02*
X10748400Y-5401600D01*
X10748400Y-4798400D01*
X11851600Y-4798400D01*
X11851600Y-5401600D01*
X11851600Y-5401600D01*
G37*
G36*
X11051600Y-4601600D02*
X10202400Y-4601600D01*
X10192489Y-4602576D01*
X10182960Y-4605467D01*
X10174177Y-4610161D01*
X10166479Y-4616479D01*
X10160161Y-4624177D01*
X10155467Y-4632960D01*
X10152576Y-4642489D01*
X10151600Y-4652400D01*
X10151600Y-5301600D01*
X9048400Y-5301600D01*
X9048400Y-4698400D01*
X9897600Y-4698400D01*
X9907511Y-4697424D01*
X9917040Y-4694533D01*
X9925823Y-4689839D01*
X9933521Y-4683521D01*
X9939839Y-4675823D01*
X9944533Y-4667040D01*
X9947424Y-4657511D01*
X9948400Y-4647600D01*
X9948400Y-3998400D01*
X11051600Y-3998400D01*
X11051600Y-4601600D01*
X11051600Y-4601600D01*
G37*
G36*
X1001600Y-4751600D02*
X398400Y-4751600D01*
X398400Y-3648400D01*
X1001600Y-3648400D01*
X1001600Y-4751600D01*
X1001600Y-4751600D01*
G37*
G36*
X12501600Y-3626600D02*
X11898400Y-3626600D01*
X11898400Y-2523400D01*
X12501600Y-2523400D01*
X12501600Y-3626600D01*
X12501600Y-3626600D01*
G37*
G36*
X9651600Y-3001600D02*
X8548400Y-3001600D01*
X8548400Y-2398400D01*
X9651600Y-2398400D01*
X9651600Y-3001600D01*
X9651600Y-3001600D01*
G37*
G36*
X9651600Y-1901600D02*
X8548400Y-1901600D01*
X8548400Y-1298400D01*
X9651600Y-1298400D01*
X9651600Y-1901600D01*
X9651600Y-1901600D01*
G37*
G36*
X18397339Y-209275D02*
X18539013Y-252252D01*
X18539016Y-252253D01*
X18669587Y-322044D01*
X18784032Y-415968D01*
X18877956Y-530413D01*
X18947747Y-660984D01*
X18947748Y-660987D01*
X18990725Y-802661D01*
X19005237Y-950000D01*
X18990725Y-1097339D01*
X18947748Y-1239013D01*
X18947747Y-1239016D01*
X18877956Y-1369587D01*
X18784032Y-1484032D01*
X18669587Y-1577956D01*
X18539016Y-1647747D01*
X18539013Y-1647748D01*
X18397339Y-1690725D01*
X18286925Y-1701600D01*
X16513075Y-1701600D01*
X16402661Y-1690725D01*
X16260987Y-1647748D01*
X16260984Y-1647747D01*
X16130413Y-1577956D01*
X16015968Y-1484032D01*
X15922044Y-1369587D01*
X15852253Y-1239016D01*
X15852252Y-1239013D01*
X15809275Y-1097339D01*
X15794763Y-950000D01*
X15809275Y-802661D01*
X15852252Y-660987D01*
X15852253Y-660984D01*
X15922044Y-530413D01*
X16015968Y-415968D01*
X16130413Y-322044D01*
X16260984Y-252253D01*
X16260987Y-252252D01*
X16402661Y-209275D01*
X16513075Y-198400D01*
X18286925Y-198400D01*
X18397339Y-209275D01*
X18397339Y-209275D01*
G37*
G36*
X11751600Y-1601600D02*
X10648400Y-1601600D01*
X10648400Y-998400D01*
X11751600Y-998400D01*
X11751600Y-1601600D01*
X11751600Y-1601600D01*
G37*
M02*
