M48
;DRILL file {KiCad 5.0.0-fee4fd1~66~ubuntu16.04.1} date Tue Aug 14 00:09:05 2018
;FORMAT={-:-/ absolute / inch / decimal}
FMAT,2
INCH,TZ
T1C0.0118
T2C0.0197
T3C0.0394
%
G90
G05
M72
T1
X0.0217Y-0.1272
X0.0277Y-0.2461
X0.0354Y-0.0965
X0.06Y-0.248
X0.0768Y-0.0717
X0.0817Y-0.248
X0.1126Y-0.2173
X0.1354Y-0.2614
X0.1503Y-0.2457
X0.1618Y-0.1228
X0.2425Y-0.0941
X0.2539Y-0.2362
X0.2563Y-0.172
X0.2776Y-0.2169
X0.2795Y-0.0512
X0.2795Y-0.0787
X0.2854Y-0.1626
X0.2921Y-0.0232
X0.2926Y-0.1909
X0.3117Y-0.075
X0.3125Y-0.1348
X0.3346Y-0.1803
X0.3474Y-0.063
X0.3474Y-0.1063
X0.3496Y-0.3103
X0.3671Y-0.1969
X0.3691Y-0.063
X0.3691Y-0.1065
X0.3744Y-0.3295
X0.3744Y-0.3476
X0.3748Y-0.3665
X0.3816Y-0.2505
X0.4026Y-0.1693
X0.4287Y-0.0571
X0.4341Y-0.2008
X0.4504Y-0.0571
X0.4504Y-0.1752
X0.452Y-0.35
X0.4528Y-0.3299
X0.4528Y-0.3689
X0.4596Y-0.1161
X0.4697Y-0.2016
X0.485Y-0.3106
X0.4886Y-0.2657
X0.4898Y-0.1752
X0.5087Y-0.1055
X0.5087Y-0.3461
X0.511Y-0.1461
X0.513Y-0.3807
X0.5193Y-0.0809
X0.524Y-0.1055
X0.5268Y-0.1461
X0.5394Y-0.1965
X0.5398Y-0.1055
X0.5606Y-0.0748
X0.5752Y-0.3512
T2
X0.1138Y-0.3626
X0.1531Y-0.3626
X0.1925Y-0.3626
X0.2319Y-0.3626
X0.2713Y-0.3626
X0.3106Y-0.3626
X0.113Y-0.3126
X0.1524Y-0.3126
X0.1917Y-0.3126
X0.2311Y-0.3126
X0.2705Y-0.3126
X0.3098Y-0.3126
T3
X0.7047Y-0.0374G85X0.6654Y-0.0374
G05
X0.7047Y-0.376G85X0.6654Y-0.376
G05
T0
M30
