G04 #@! TF.GenerationSoftware,KiCad,Pcbnew,5.0.0-fee4fd1~66~ubuntu16.04.1*
G04 #@! TF.CreationDate,2018-08-14T00:09:00-04:00*
G04 #@! TF.ProjectId,motor controller,6D6F746F7220636F6E74726F6C6C6572,rev?*
G04 #@! TF.SameCoordinates,Original*
G04 #@! TF.FileFunction,Soldermask,Bot*
G04 #@! TF.FilePolarity,Negative*
%FSLAX46Y46*%
G04 Gerber Fmt 4.6, Leading zero omitted, Abs format (unit mm)*
G04 Created by KiCad (PCBNEW 5.0.0-fee4fd1~66~ubuntu16.04.1) date Tue Aug 14 00:09:00 2018*
%MOMM*%
%LPD*%
G01*
G04 APERTURE LIST*
%ADD10C,0.100000*%
G04 APERTURE END LIST*
D10*
G36*
X18397339Y-8809275D02*
X18533903Y-8850702D01*
X18539016Y-8852253D01*
X18669587Y-8922044D01*
X18784032Y-9015968D01*
X18877956Y-9130413D01*
X18947747Y-9260984D01*
X18947748Y-9260987D01*
X18990725Y-9402661D01*
X19005237Y-9550000D01*
X18990725Y-9697339D01*
X18947748Y-9839013D01*
X18947747Y-9839016D01*
X18877956Y-9969587D01*
X18784032Y-10084032D01*
X18669587Y-10177956D01*
X18539016Y-10247747D01*
X18539013Y-10247748D01*
X18397339Y-10290725D01*
X18286925Y-10301600D01*
X16513075Y-10301600D01*
X16402661Y-10290725D01*
X16260987Y-10247748D01*
X16260984Y-10247747D01*
X16130413Y-10177956D01*
X16015968Y-10084032D01*
X15922044Y-9969587D01*
X15852253Y-9839016D01*
X15852252Y-9839013D01*
X15809275Y-9697339D01*
X15794763Y-9550000D01*
X15809275Y-9402661D01*
X15852252Y-9260987D01*
X15852253Y-9260984D01*
X15922044Y-9130413D01*
X16015968Y-9015968D01*
X16130413Y-8922044D01*
X16260984Y-8852253D01*
X16266097Y-8850702D01*
X16402661Y-8809275D01*
X16513075Y-8798400D01*
X18286925Y-8798400D01*
X18397339Y-8809275D01*
X18397339Y-8809275D01*
G37*
G36*
X9901600Y-10251600D02*
X8598400Y-10251600D01*
X8598400Y-9148400D01*
X9901600Y-9148400D01*
X9901600Y-10251600D01*
X9901600Y-10251600D01*
G37*
G36*
X3416600Y-8814781D02*
X3417576Y-8824692D01*
X3420467Y-8834221D01*
X3425161Y-8843004D01*
X3431479Y-8850702D01*
X3439177Y-8857020D01*
X3447960Y-8861714D01*
X3457489Y-8864605D01*
X3467400Y-8865581D01*
X3477311Y-8864605D01*
X3486840Y-8861714D01*
X3495623Y-8857020D01*
X3503321Y-8850702D01*
X3506669Y-8847008D01*
X3515837Y-8835837D01*
X3596020Y-8770031D01*
X3601251Y-8767235D01*
X3687504Y-8721132D01*
X3786769Y-8691020D01*
X3864133Y-8683400D01*
X3915867Y-8683400D01*
X3993231Y-8691020D01*
X4092496Y-8721132D01*
X4178749Y-8767235D01*
X4183980Y-8770031D01*
X4264163Y-8835837D01*
X4329969Y-8916020D01*
X4345198Y-8944512D01*
X4350731Y-8952792D01*
X4357773Y-8959834D01*
X4366053Y-8965367D01*
X4375254Y-8969178D01*
X4385021Y-8971120D01*
X4394979Y-8971120D01*
X4404746Y-8969178D01*
X4413947Y-8965367D01*
X4422227Y-8959834D01*
X4429269Y-8952792D01*
X4434802Y-8944512D01*
X4450031Y-8916020D01*
X4515837Y-8835837D01*
X4596020Y-8770031D01*
X4601251Y-8767235D01*
X4687504Y-8721132D01*
X4786769Y-8691020D01*
X4864133Y-8683400D01*
X4915867Y-8683400D01*
X4993231Y-8691020D01*
X5092496Y-8721132D01*
X5178749Y-8767235D01*
X5183980Y-8770031D01*
X5264163Y-8835837D01*
X5329969Y-8916020D01*
X5345198Y-8944512D01*
X5350731Y-8952792D01*
X5357773Y-8959834D01*
X5366053Y-8965367D01*
X5375254Y-8969178D01*
X5385021Y-8971120D01*
X5394979Y-8971120D01*
X5404746Y-8969178D01*
X5413947Y-8965367D01*
X5422227Y-8959834D01*
X5429269Y-8952792D01*
X5434802Y-8944512D01*
X5450031Y-8916020D01*
X5515837Y-8835837D01*
X5596020Y-8770031D01*
X5601251Y-8767235D01*
X5687504Y-8721132D01*
X5786769Y-8691020D01*
X5864133Y-8683400D01*
X5915867Y-8683400D01*
X5993231Y-8691020D01*
X6092496Y-8721132D01*
X6178749Y-8767235D01*
X6183980Y-8770031D01*
X6264163Y-8835837D01*
X6329969Y-8916020D01*
X6345198Y-8944512D01*
X6350731Y-8952792D01*
X6357773Y-8959834D01*
X6366053Y-8965367D01*
X6375254Y-8969178D01*
X6385021Y-8971120D01*
X6394979Y-8971120D01*
X6404746Y-8969178D01*
X6413947Y-8965367D01*
X6422227Y-8959834D01*
X6429269Y-8952792D01*
X6434802Y-8944512D01*
X6450031Y-8916020D01*
X6515837Y-8835837D01*
X6596020Y-8770031D01*
X6601251Y-8767235D01*
X6687504Y-8721132D01*
X6786769Y-8691020D01*
X6864133Y-8683400D01*
X6915867Y-8683400D01*
X6993231Y-8691020D01*
X7092496Y-8721132D01*
X7178749Y-8767235D01*
X7183980Y-8770031D01*
X7264163Y-8835837D01*
X7329969Y-8916020D01*
X7345198Y-8944512D01*
X7350731Y-8952792D01*
X7357773Y-8959834D01*
X7366053Y-8965367D01*
X7375254Y-8969178D01*
X7385021Y-8971120D01*
X7394979Y-8971120D01*
X7404746Y-8969178D01*
X7413947Y-8965367D01*
X7422227Y-8959834D01*
X7429269Y-8952792D01*
X7434802Y-8944512D01*
X7450031Y-8916020D01*
X7515837Y-8835837D01*
X7596020Y-8770031D01*
X7601251Y-8767235D01*
X7687504Y-8721132D01*
X7786769Y-8691020D01*
X7864133Y-8683400D01*
X7915867Y-8683400D01*
X7993231Y-8691020D01*
X8092496Y-8721132D01*
X8178749Y-8767235D01*
X8183980Y-8770031D01*
X8264163Y-8835837D01*
X8329969Y-8916020D01*
X8329970Y-8916022D01*
X8378868Y-9007504D01*
X8408980Y-9106769D01*
X8419148Y-9210000D01*
X8408980Y-9313231D01*
X8378868Y-9412496D01*
X8345198Y-9475488D01*
X8329969Y-9503980D01*
X8264163Y-9584163D01*
X8183980Y-9649969D01*
X8183978Y-9649970D01*
X8092496Y-9698868D01*
X7993231Y-9728980D01*
X7915867Y-9736600D01*
X7864133Y-9736600D01*
X7786769Y-9728980D01*
X7687504Y-9698868D01*
X7596022Y-9649970D01*
X7596020Y-9649969D01*
X7515837Y-9584163D01*
X7450031Y-9503980D01*
X7434802Y-9475488D01*
X7429269Y-9467208D01*
X7422227Y-9460166D01*
X7413947Y-9454633D01*
X7404746Y-9450822D01*
X7394979Y-9448880D01*
X7385021Y-9448880D01*
X7375254Y-9450822D01*
X7366053Y-9454633D01*
X7357773Y-9460166D01*
X7350731Y-9467208D01*
X7345198Y-9475488D01*
X7329969Y-9503980D01*
X7264163Y-9584163D01*
X7183980Y-9649969D01*
X7183978Y-9649970D01*
X7092496Y-9698868D01*
X6993231Y-9728980D01*
X6915867Y-9736600D01*
X6864133Y-9736600D01*
X6786769Y-9728980D01*
X6687504Y-9698868D01*
X6596022Y-9649970D01*
X6596020Y-9649969D01*
X6515837Y-9584163D01*
X6450031Y-9503980D01*
X6434802Y-9475488D01*
X6429269Y-9467208D01*
X6422227Y-9460166D01*
X6413947Y-9454633D01*
X6404746Y-9450822D01*
X6394979Y-9448880D01*
X6385021Y-9448880D01*
X6375254Y-9450822D01*
X6366053Y-9454633D01*
X6357773Y-9460166D01*
X6350731Y-9467208D01*
X6345198Y-9475488D01*
X6329969Y-9503980D01*
X6264163Y-9584163D01*
X6183980Y-9649969D01*
X6183978Y-9649970D01*
X6092496Y-9698868D01*
X5993231Y-9728980D01*
X5915867Y-9736600D01*
X5864133Y-9736600D01*
X5786769Y-9728980D01*
X5687504Y-9698868D01*
X5596022Y-9649970D01*
X5596020Y-9649969D01*
X5515837Y-9584163D01*
X5450031Y-9503980D01*
X5434802Y-9475488D01*
X5429269Y-9467208D01*
X5422227Y-9460166D01*
X5413947Y-9454633D01*
X5404746Y-9450822D01*
X5394979Y-9448880D01*
X5385021Y-9448880D01*
X5375254Y-9450822D01*
X5366053Y-9454633D01*
X5357773Y-9460166D01*
X5350731Y-9467208D01*
X5345198Y-9475488D01*
X5329969Y-9503980D01*
X5264163Y-9584163D01*
X5183980Y-9649969D01*
X5183978Y-9649970D01*
X5092496Y-9698868D01*
X4993231Y-9728980D01*
X4915867Y-9736600D01*
X4864133Y-9736600D01*
X4786769Y-9728980D01*
X4687504Y-9698868D01*
X4596022Y-9649970D01*
X4596020Y-9649969D01*
X4515837Y-9584163D01*
X4450031Y-9503980D01*
X4434802Y-9475488D01*
X4429269Y-9467208D01*
X4422227Y-9460166D01*
X4413947Y-9454633D01*
X4404746Y-9450822D01*
X4394979Y-9448880D01*
X4385021Y-9448880D01*
X4375254Y-9450822D01*
X4366053Y-9454633D01*
X4357773Y-9460166D01*
X4350731Y-9467208D01*
X4345198Y-9475488D01*
X4329969Y-9503980D01*
X4264163Y-9584163D01*
X4183980Y-9649969D01*
X4183978Y-9649970D01*
X4092496Y-9698868D01*
X3993231Y-9728980D01*
X3915867Y-9736600D01*
X3864133Y-9736600D01*
X3786769Y-9728980D01*
X3687504Y-9698868D01*
X3596022Y-9649970D01*
X3596020Y-9649969D01*
X3515837Y-9584163D01*
X3506669Y-9572992D01*
X3499627Y-9565950D01*
X3491347Y-9560418D01*
X3482147Y-9556607D01*
X3472380Y-9554664D01*
X3462421Y-9554664D01*
X3452654Y-9556606D01*
X3443453Y-9560417D01*
X3435173Y-9565950D01*
X3428131Y-9572992D01*
X3422599Y-9581272D01*
X3418788Y-9590472D01*
X3416845Y-9600239D01*
X3416600Y-9605219D01*
X3416600Y-9736600D01*
X2363400Y-9736600D01*
X2363400Y-8683400D01*
X3416600Y-8683400D01*
X3416600Y-8814781D01*
X3416600Y-8814781D01*
G37*
G36*
X13951600Y-5301600D02*
X12942400Y-5301600D01*
X12932489Y-5302576D01*
X12922960Y-5305467D01*
X12914177Y-5310161D01*
X12906479Y-5316479D01*
X12900161Y-5324177D01*
X12895467Y-5332960D01*
X12892576Y-5342489D01*
X12891600Y-5352400D01*
X12891600Y-6297600D01*
X12892576Y-6307511D01*
X12895467Y-6317040D01*
X12900161Y-6325823D01*
X12906479Y-6333521D01*
X12914177Y-6339839D01*
X12922960Y-6344533D01*
X12932489Y-6347424D01*
X12942400Y-6348400D01*
X13866600Y-6348400D01*
X13866600Y-8351600D01*
X12942400Y-8351600D01*
X12932489Y-8352576D01*
X12922960Y-8355467D01*
X12914177Y-8360161D01*
X12906479Y-8366479D01*
X12900161Y-8374177D01*
X12895467Y-8382960D01*
X12892576Y-8392489D01*
X12891600Y-8402400D01*
X12891600Y-9326600D01*
X11888400Y-9326600D01*
X11888400Y-8273400D01*
X12762600Y-8273400D01*
X12772511Y-8272424D01*
X12782040Y-8269533D01*
X12790823Y-8264839D01*
X12798521Y-8258521D01*
X12804839Y-8250823D01*
X12809533Y-8242040D01*
X12812424Y-8232511D01*
X12813400Y-8222600D01*
X12813400Y-6477400D01*
X12812424Y-6467489D01*
X12809533Y-6457960D01*
X12804839Y-6449177D01*
X12798521Y-6441479D01*
X12790823Y-6435161D01*
X12782040Y-6430467D01*
X12772511Y-6427576D01*
X12762600Y-6426600D01*
X11888400Y-6426600D01*
X11888400Y-5373400D01*
X12797600Y-5373400D01*
X12807511Y-5372424D01*
X12817040Y-5369533D01*
X12825823Y-5364839D01*
X12833521Y-5358521D01*
X12839839Y-5350823D01*
X12844533Y-5342040D01*
X12847424Y-5332511D01*
X12848400Y-5322600D01*
X12848400Y-4698400D01*
X13951600Y-4698400D01*
X13951600Y-5301600D01*
X13951600Y-5301600D01*
G37*
G36*
X2973231Y-7421020D02*
X3072496Y-7451132D01*
X3158749Y-7497235D01*
X3163980Y-7500031D01*
X3244163Y-7565837D01*
X3309969Y-7646020D01*
X3325198Y-7674512D01*
X3330731Y-7682792D01*
X3337773Y-7689834D01*
X3346053Y-7695367D01*
X3355254Y-7699178D01*
X3365021Y-7701120D01*
X3374979Y-7701120D01*
X3384746Y-7699178D01*
X3393947Y-7695367D01*
X3402227Y-7689834D01*
X3409269Y-7682792D01*
X3414802Y-7674512D01*
X3430031Y-7646020D01*
X3495837Y-7565837D01*
X3576020Y-7500031D01*
X3581251Y-7497235D01*
X3667504Y-7451132D01*
X3766769Y-7421020D01*
X3844133Y-7413400D01*
X3895867Y-7413400D01*
X3973231Y-7421020D01*
X4072496Y-7451132D01*
X4158749Y-7497235D01*
X4163980Y-7500031D01*
X4244163Y-7565837D01*
X4309969Y-7646020D01*
X4325198Y-7674512D01*
X4330731Y-7682792D01*
X4337773Y-7689834D01*
X4346053Y-7695367D01*
X4355254Y-7699178D01*
X4365021Y-7701120D01*
X4374979Y-7701120D01*
X4384746Y-7699178D01*
X4393947Y-7695367D01*
X4402227Y-7689834D01*
X4409269Y-7682792D01*
X4414802Y-7674512D01*
X4430031Y-7646020D01*
X4495837Y-7565837D01*
X4576020Y-7500031D01*
X4581251Y-7497235D01*
X4667504Y-7451132D01*
X4766769Y-7421020D01*
X4844133Y-7413400D01*
X4895867Y-7413400D01*
X4973231Y-7421020D01*
X5072496Y-7451132D01*
X5158749Y-7497235D01*
X5163980Y-7500031D01*
X5244163Y-7565837D01*
X5309969Y-7646020D01*
X5325198Y-7674512D01*
X5330731Y-7682792D01*
X5337773Y-7689834D01*
X5346053Y-7695367D01*
X5355254Y-7699178D01*
X5365021Y-7701120D01*
X5374979Y-7701120D01*
X5384746Y-7699178D01*
X5393947Y-7695367D01*
X5402227Y-7689834D01*
X5409269Y-7682792D01*
X5414802Y-7674512D01*
X5430031Y-7646020D01*
X5495837Y-7565837D01*
X5576020Y-7500031D01*
X5581251Y-7497235D01*
X5667504Y-7451132D01*
X5766769Y-7421020D01*
X5844133Y-7413400D01*
X5895867Y-7413400D01*
X5973231Y-7421020D01*
X6072496Y-7451132D01*
X6158749Y-7497235D01*
X6163980Y-7500031D01*
X6244163Y-7565837D01*
X6309969Y-7646020D01*
X6325198Y-7674512D01*
X6330731Y-7682792D01*
X6337773Y-7689834D01*
X6346053Y-7695367D01*
X6355254Y-7699178D01*
X6365021Y-7701120D01*
X6374979Y-7701120D01*
X6384746Y-7699178D01*
X6393947Y-7695367D01*
X6402227Y-7689834D01*
X6409269Y-7682792D01*
X6414802Y-7674512D01*
X6430031Y-7646020D01*
X6495837Y-7565837D01*
X6576020Y-7500031D01*
X6581251Y-7497235D01*
X6667504Y-7451132D01*
X6766769Y-7421020D01*
X6844133Y-7413400D01*
X6895867Y-7413400D01*
X6973231Y-7421020D01*
X7072496Y-7451132D01*
X7158749Y-7497235D01*
X7163980Y-7500031D01*
X7244163Y-7565837D01*
X7253331Y-7577008D01*
X7260373Y-7584050D01*
X7268653Y-7589582D01*
X7277853Y-7593393D01*
X7287620Y-7595336D01*
X7297579Y-7595336D01*
X7307346Y-7593394D01*
X7316547Y-7589583D01*
X7324827Y-7584050D01*
X7331869Y-7577008D01*
X7337401Y-7568728D01*
X7341212Y-7559528D01*
X7343155Y-7549761D01*
X7343400Y-7544781D01*
X7343400Y-7413400D01*
X8396600Y-7413400D01*
X8396600Y-8466600D01*
X7343400Y-8466600D01*
X7343400Y-8335219D01*
X7342424Y-8325308D01*
X7339533Y-8315779D01*
X7334839Y-8306996D01*
X7328521Y-8299298D01*
X7320823Y-8292980D01*
X7312040Y-8288286D01*
X7302511Y-8285395D01*
X7292600Y-8284419D01*
X7282689Y-8285395D01*
X7273160Y-8288286D01*
X7264377Y-8292980D01*
X7256679Y-8299298D01*
X7253331Y-8302992D01*
X7244163Y-8314163D01*
X7163980Y-8379969D01*
X7163978Y-8379970D01*
X7072496Y-8428868D01*
X6973231Y-8458980D01*
X6895867Y-8466600D01*
X6844133Y-8466600D01*
X6766769Y-8458980D01*
X6667504Y-8428868D01*
X6576022Y-8379970D01*
X6576020Y-8379969D01*
X6495837Y-8314163D01*
X6430031Y-8233980D01*
X6414802Y-8205488D01*
X6409269Y-8197208D01*
X6402227Y-8190166D01*
X6393947Y-8184633D01*
X6384746Y-8180822D01*
X6374979Y-8178880D01*
X6365021Y-8178880D01*
X6355254Y-8180822D01*
X6346053Y-8184633D01*
X6337773Y-8190166D01*
X6330731Y-8197208D01*
X6325198Y-8205488D01*
X6309969Y-8233980D01*
X6244163Y-8314163D01*
X6163980Y-8379969D01*
X6163978Y-8379970D01*
X6072496Y-8428868D01*
X5973231Y-8458980D01*
X5895867Y-8466600D01*
X5844133Y-8466600D01*
X5766769Y-8458980D01*
X5667504Y-8428868D01*
X5576022Y-8379970D01*
X5576020Y-8379969D01*
X5495837Y-8314163D01*
X5430031Y-8233980D01*
X5414802Y-8205488D01*
X5409269Y-8197208D01*
X5402227Y-8190166D01*
X5393947Y-8184633D01*
X5384746Y-8180822D01*
X5374979Y-8178880D01*
X5365021Y-8178880D01*
X5355254Y-8180822D01*
X5346053Y-8184633D01*
X5337773Y-8190166D01*
X5330731Y-8197208D01*
X5325198Y-8205488D01*
X5309969Y-8233980D01*
X5244163Y-8314163D01*
X5163980Y-8379969D01*
X5163978Y-8379970D01*
X5072496Y-8428868D01*
X4973231Y-8458980D01*
X4895867Y-8466600D01*
X4844133Y-8466600D01*
X4766769Y-8458980D01*
X4667504Y-8428868D01*
X4576022Y-8379970D01*
X4576020Y-8379969D01*
X4495837Y-8314163D01*
X4430031Y-8233980D01*
X4414802Y-8205488D01*
X4409269Y-8197208D01*
X4402227Y-8190166D01*
X4393947Y-8184633D01*
X4384746Y-8180822D01*
X4374979Y-8178880D01*
X4365021Y-8178880D01*
X4355254Y-8180822D01*
X4346053Y-8184633D01*
X4337773Y-8190166D01*
X4330731Y-8197208D01*
X4325198Y-8205488D01*
X4309969Y-8233980D01*
X4244163Y-8314163D01*
X4163980Y-8379969D01*
X4163978Y-8379970D01*
X4072496Y-8428868D01*
X3973231Y-8458980D01*
X3895867Y-8466600D01*
X3844133Y-8466600D01*
X3766769Y-8458980D01*
X3667504Y-8428868D01*
X3576022Y-8379970D01*
X3576020Y-8379969D01*
X3495837Y-8314163D01*
X3430031Y-8233980D01*
X3414802Y-8205488D01*
X3409269Y-8197208D01*
X3402227Y-8190166D01*
X3393947Y-8184633D01*
X3384746Y-8180822D01*
X3374979Y-8178880D01*
X3365021Y-8178880D01*
X3355254Y-8180822D01*
X3346053Y-8184633D01*
X3337773Y-8190166D01*
X3330731Y-8197208D01*
X3325198Y-8205488D01*
X3309969Y-8233980D01*
X3244163Y-8314163D01*
X3163980Y-8379969D01*
X3163978Y-8379970D01*
X3072496Y-8428868D01*
X2973231Y-8458980D01*
X2895867Y-8466600D01*
X2844133Y-8466600D01*
X2766769Y-8458980D01*
X2667504Y-8428868D01*
X2576022Y-8379970D01*
X2576020Y-8379969D01*
X2495837Y-8314163D01*
X2430031Y-8233980D01*
X2414802Y-8205488D01*
X2381132Y-8142496D01*
X2351020Y-8043231D01*
X2340852Y-7940000D01*
X2351020Y-7836769D01*
X2381131Y-7737508D01*
X2381132Y-7737504D01*
X2430030Y-7646022D01*
X2430031Y-7646020D01*
X2495837Y-7565837D01*
X2576020Y-7500031D01*
X2581251Y-7497235D01*
X2667504Y-7451132D01*
X2766769Y-7421020D01*
X2844133Y-7413400D01*
X2895867Y-7413400D01*
X2973231Y-7421020D01*
X2973231Y-7421020D01*
G37*
G36*
X11376600Y-8351600D02*
X9903400Y-8351600D01*
X9903400Y-6348400D01*
X11376600Y-6348400D01*
X11376600Y-8351600D01*
X11376600Y-8351600D01*
G37*
G36*
X5976600Y-4222600D02*
X5977576Y-4232511D01*
X5980467Y-4242040D01*
X5985161Y-4250823D01*
X5991479Y-4258521D01*
X5999177Y-4264839D01*
X6007960Y-4269533D01*
X6017489Y-4272424D01*
X6027400Y-4273400D01*
X6901600Y-4273400D01*
X6901600Y-6226600D01*
X6027400Y-6226600D01*
X6017489Y-6227576D01*
X6007960Y-6230467D01*
X5999177Y-6235161D01*
X5991479Y-6241479D01*
X5985161Y-6249177D01*
X5980467Y-6257960D01*
X5977576Y-6267489D01*
X5976600Y-6277400D01*
X5976600Y-7151600D01*
X4023400Y-7151600D01*
X4023400Y-6277400D01*
X4022424Y-6267489D01*
X4019533Y-6257960D01*
X4014839Y-6249177D01*
X4008521Y-6241479D01*
X4000823Y-6235161D01*
X3992040Y-6230467D01*
X3982511Y-6227576D01*
X3972600Y-6226600D01*
X3098400Y-6226600D01*
X3098400Y-4273400D01*
X3972600Y-4273400D01*
X3982511Y-4272424D01*
X3992040Y-4269533D01*
X4000823Y-4264839D01*
X4008521Y-4258521D01*
X4014839Y-4250823D01*
X4019533Y-4242040D01*
X4022424Y-4232511D01*
X4023400Y-4222600D01*
X4023400Y-3348400D01*
X5976600Y-3348400D01*
X5976600Y-4222600D01*
X5976600Y-4222600D01*
G37*
G36*
X9301600Y-7001600D02*
X7698400Y-7001600D01*
X7698400Y-5678400D01*
X9301600Y-5678400D01*
X9301600Y-7001600D01*
X9301600Y-7001600D01*
G37*
G36*
X2351600Y-6601600D02*
X1248400Y-6601600D01*
X1248400Y-5998400D01*
X2351600Y-5998400D01*
X2351600Y-6601600D01*
X2351600Y-6601600D01*
G37*
G36*
X9301600Y-5241600D02*
X7698400Y-5241600D01*
X7698400Y-3918400D01*
X9301600Y-3918400D01*
X9301600Y-5241600D01*
X9301600Y-5241600D01*
G37*
G36*
X12691600Y-1897600D02*
X12692576Y-1907511D01*
X12695467Y-1917040D01*
X12700161Y-1925823D01*
X12706479Y-1933521D01*
X12714177Y-1939839D01*
X12722960Y-1944533D01*
X12732489Y-1947424D01*
X12742400Y-1948400D01*
X13691600Y-1948400D01*
X13691600Y-3951600D01*
X12742400Y-3951600D01*
X12732489Y-3952576D01*
X12722960Y-3955467D01*
X12714177Y-3960161D01*
X12706479Y-3966479D01*
X12700161Y-3974177D01*
X12695467Y-3982960D01*
X12692576Y-3992489D01*
X12691600Y-4002400D01*
X12691600Y-4951600D01*
X10688400Y-4951600D01*
X10688400Y-4002400D01*
X10687424Y-3992489D01*
X10684533Y-3982960D01*
X10679839Y-3974177D01*
X10673521Y-3966479D01*
X10665823Y-3960161D01*
X10657040Y-3955467D01*
X10647511Y-3952576D01*
X10637600Y-3951600D01*
X9688400Y-3951600D01*
X9688400Y-1948400D01*
X10637600Y-1948400D01*
X10647511Y-1947424D01*
X10657040Y-1944533D01*
X10665823Y-1939839D01*
X10673521Y-1933521D01*
X10679839Y-1925823D01*
X10684533Y-1917040D01*
X10687424Y-1907511D01*
X10688400Y-1897600D01*
X10688400Y-948400D01*
X12691600Y-948400D01*
X12691600Y-1897600D01*
X12691600Y-1897600D01*
G37*
G36*
X7378727Y-904211D02*
X7454429Y-927175D01*
X7524196Y-964466D01*
X7585348Y-1014652D01*
X7635534Y-1075804D01*
X7672825Y-1145571D01*
X7695789Y-1221273D01*
X7703543Y-1300000D01*
X7695789Y-1378727D01*
X7672825Y-1454429D01*
X7635534Y-1524196D01*
X7585348Y-1585348D01*
X7554410Y-1610738D01*
X7547375Y-1617773D01*
X7541842Y-1626053D01*
X7538031Y-1635254D01*
X7536089Y-1645021D01*
X7536089Y-1654979D01*
X7538031Y-1664746D01*
X7541842Y-1673947D01*
X7547375Y-1682227D01*
X7554410Y-1689262D01*
X7585348Y-1714652D01*
X7635534Y-1775804D01*
X7672825Y-1845571D01*
X7695789Y-1921273D01*
X7703543Y-2000000D01*
X7695789Y-2078727D01*
X7672825Y-2154429D01*
X7635534Y-2224196D01*
X7585348Y-2285348D01*
X7554410Y-2310738D01*
X7547375Y-2317773D01*
X7541842Y-2326053D01*
X7538031Y-2335254D01*
X7536089Y-2345021D01*
X7536089Y-2354979D01*
X7538031Y-2364746D01*
X7541842Y-2373947D01*
X7547375Y-2382227D01*
X7554410Y-2389262D01*
X7585348Y-2414652D01*
X7635534Y-2475804D01*
X7672825Y-2545571D01*
X7695789Y-2621273D01*
X7703543Y-2700000D01*
X7695789Y-2778727D01*
X7672825Y-2854429D01*
X7635534Y-2924196D01*
X7585348Y-2985348D01*
X7554410Y-3010738D01*
X7547375Y-3017773D01*
X7541842Y-3026053D01*
X7538031Y-3035254D01*
X7536089Y-3045021D01*
X7536089Y-3054979D01*
X7538031Y-3064746D01*
X7541842Y-3073947D01*
X7547375Y-3082227D01*
X7554410Y-3089262D01*
X7585348Y-3114652D01*
X7635534Y-3175804D01*
X7672825Y-3245571D01*
X7695789Y-3321273D01*
X7703543Y-3400000D01*
X7695789Y-3478727D01*
X7672825Y-3554429D01*
X7635534Y-3624196D01*
X7585348Y-3685348D01*
X7524196Y-3735534D01*
X7454429Y-3772825D01*
X7378727Y-3795789D01*
X7319727Y-3801600D01*
X6880273Y-3801600D01*
X6821273Y-3795789D01*
X6745571Y-3772825D01*
X6675804Y-3735534D01*
X6614652Y-3685348D01*
X6564466Y-3624196D01*
X6527175Y-3554429D01*
X6504211Y-3478727D01*
X6496457Y-3400000D01*
X6504211Y-3321273D01*
X6527175Y-3245571D01*
X6564466Y-3175804D01*
X6614652Y-3114652D01*
X6645590Y-3089262D01*
X6652625Y-3082227D01*
X6658158Y-3073947D01*
X6661969Y-3064746D01*
X6663911Y-3054979D01*
X6663911Y-3045021D01*
X6661969Y-3035254D01*
X6658158Y-3026053D01*
X6652625Y-3017773D01*
X6645590Y-3010738D01*
X6614652Y-2985348D01*
X6564466Y-2924196D01*
X6527175Y-2854429D01*
X6504211Y-2778727D01*
X6496457Y-2700000D01*
X6504211Y-2621273D01*
X6527175Y-2545571D01*
X6564466Y-2475804D01*
X6614652Y-2414652D01*
X6645590Y-2389262D01*
X6652625Y-2382227D01*
X6658158Y-2373947D01*
X6661969Y-2364746D01*
X6663911Y-2354979D01*
X6663911Y-2345021D01*
X6661969Y-2335254D01*
X6658158Y-2326053D01*
X6652625Y-2317773D01*
X6645590Y-2310738D01*
X6614652Y-2285348D01*
X6564466Y-2224196D01*
X6527175Y-2154429D01*
X6504211Y-2078727D01*
X6496457Y-2000000D01*
X6504211Y-1921273D01*
X6527175Y-1845571D01*
X6564466Y-1775804D01*
X6614652Y-1714652D01*
X6645590Y-1689262D01*
X6652625Y-1682227D01*
X6658158Y-1673947D01*
X6661969Y-1664746D01*
X6663911Y-1654979D01*
X6663911Y-1645021D01*
X6661969Y-1635254D01*
X6658158Y-1626053D01*
X6652625Y-1617773D01*
X6645590Y-1610738D01*
X6614652Y-1585348D01*
X6564466Y-1524196D01*
X6527175Y-1454429D01*
X6504211Y-1378727D01*
X6496457Y-1300000D01*
X6504211Y-1221273D01*
X6527175Y-1145571D01*
X6564466Y-1075804D01*
X6614652Y-1014652D01*
X6675804Y-964466D01*
X6745571Y-927175D01*
X6821273Y-904211D01*
X6880273Y-898400D01*
X7319727Y-898400D01*
X7378727Y-904211D01*
X7378727Y-904211D01*
G37*
G36*
X1851600Y-3501600D02*
X748400Y-3501600D01*
X748400Y-2898400D01*
X1851600Y-2898400D01*
X1851600Y-3501600D01*
X1851600Y-3501600D01*
G37*
G36*
X1276600Y-2776600D02*
X523400Y-2776600D01*
X523400Y-1373400D01*
X1276600Y-1373400D01*
X1276600Y-2776600D01*
X1276600Y-2776600D01*
G37*
G36*
X2326600Y-2776600D02*
X1573400Y-2776600D01*
X1573400Y-1373400D01*
X2326600Y-1373400D01*
X2326600Y-2776600D01*
X2326600Y-2776600D01*
G37*
G36*
X18397339Y-209275D02*
X18539013Y-252252D01*
X18539016Y-252253D01*
X18669587Y-322044D01*
X18784032Y-415968D01*
X18877956Y-530413D01*
X18947747Y-660984D01*
X18947748Y-660987D01*
X18990725Y-802661D01*
X19005237Y-950000D01*
X18990725Y-1097339D01*
X18947748Y-1239013D01*
X18947747Y-1239016D01*
X18877956Y-1369587D01*
X18784032Y-1484032D01*
X18669587Y-1577956D01*
X18539016Y-1647747D01*
X18539013Y-1647748D01*
X18397339Y-1690725D01*
X18286925Y-1701600D01*
X16513075Y-1701600D01*
X16402661Y-1690725D01*
X16260987Y-1647748D01*
X16260984Y-1647747D01*
X16130413Y-1577956D01*
X16015968Y-1484032D01*
X15922044Y-1369587D01*
X15852253Y-1239016D01*
X15852252Y-1239013D01*
X15809275Y-1097339D01*
X15794763Y-950000D01*
X15809275Y-802661D01*
X15852252Y-660987D01*
X15852253Y-660984D01*
X15922044Y-530413D01*
X16015968Y-415968D01*
X16130413Y-322044D01*
X16260984Y-252253D01*
X16260987Y-252252D01*
X16402661Y-209275D01*
X16513075Y-198400D01*
X18286925Y-198400D01*
X18397339Y-209275D01*
X18397339Y-209275D01*
G37*
G36*
X1851600Y-1101600D02*
X748400Y-1101600D01*
X748400Y-498400D01*
X1851600Y-498400D01*
X1851600Y-1101600D01*
X1851600Y-1101600D01*
G37*
G36*
X3076600Y-1001600D02*
X1973400Y-1001600D01*
X1973400Y-398400D01*
X3076600Y-398400D01*
X3076600Y-1001600D01*
X3076600Y-1001600D01*
G37*
M02*
